<svg width="317" height="229" viewBox="0 0 317 229" fill="none" xmlns="http://www.w3.org/2000/svg">
<path d="M245.227 199.038C236.313 198.44 232.584 204.534 228.397 212.367C216.931 233.811 191.397 231.744 182.832 218.54C176.766 209.187 163.683 211.111 153.099 214.772C142.683 218.374 124.936 221.835 110.801 217.53C98.4538 213.77 93.3878 200.203 82.1338 201.038C57.5818 202.858 45.2038 178.57 49.6508 167.977C52.5528 161.063 53.9938 153.329 51.6348 146.215C49.0348 138.379 43.0988 132.176 38.3008 125.44C33.5018 118.704 29.6378 110.284 32.0228 102.381C34.0638 95.6203 40.1528 90.9413 43.9328 84.9623C55.6698 66.3933 44.0588 37.9353 59.6988 22.4583C70.8928 11.3793 89.1448 13.9363 104.809 11.8223C117.872 10.0583 130.165 4.56126 143.168 2.40826C169.501 -1.95374 196.095 7.65326 222.791 7.92425C232.195 8.01926 241.774 6.96927 250.882 9.29326C263.034 12.3933 273.375 21.7623 277.591 33.4913C283.409 49.6763 277.897 68.4073 284.469 84.3053C289.823 97.2563 302.916 107.793 302.093 121.768C301.58 130.468 295.648 137.746 291.568 145.464C285.505 156.933 293.533 202.277 245.227 199.038ZM167.518 220.047C169.861 220.047 171.76 218.589 171.76 216.791C171.76 214.993 169.856 213.689 167.518 213.535C159.9 213.03 159.9 216.116 159.9 217.915C159.9 220.788 165.176 220.047 167.518 220.047ZM90.1528 206.161C88.1158 204.476 85.5198 203.467 82.8718 203.33C82.1638 203.294 81.3938 203.339 80.8488 203.788C80.1738 204.343 80.1008 205.479 80.6998 206.115C81.0758 206.515 81.6248 206.695 82.1358 206.902C83.0058 207.257 83.8598 207.765 84.3528 208.56C84.4958 208.791 84.6188 209.056 84.8568 209.19C86.3308 210.02 92.8338 208.379 90.1528 206.161ZM77.1768 203.285C76.5068 203.053 75.7708 203.266 75.0968 203.486C74.6638 203.627 74.1318 203.937 74.2488 204.374C74.3048 204.585 74.5028 204.724 74.6958 204.828C75.5838 205.304 76.7358 205.655 77.6288 205.046C78.5218 204.437 77.8478 203.517 77.1768 203.285ZM46.1948 141.95C46.0788 140.937 45.4558 140.062 44.8518 139.237C43.6878 137.646 42.5048 136.036 40.9688 134.794C40.3188 134.269 39.5628 133.799 38.7248 133.77C37.9618 133.744 37.2308 134.09 36.6118 134.534C35.1048 135.617 34.0878 137.347 33.8788 139.182C33.5938 141.699 34.7628 144.15 36.1218 146.295C36.9628 147.623 37.9448 148.946 39.3538 149.659C41.7158 150.852 43.2768 149.81 43.9358 147.714C44.5438 145.786 46.4408 144.098 46.1948 141.95ZM297.494 83.3363C298.737 82.2383 297.616 79.0253 297.248 76.9043C297.138 76.2683 296.992 75.6113 296.59 75.1033C296.042 74.4083 295.132 74.1233 294.279 73.8753C292.765 73.4363 290.93 73.0623 289.774 74.1283C288.916 74.9193 288.794 76.2073 288.796 77.3693C288.797 78.4303 288.854 79.4913 288.967 80.5473C289.021 81.0533 289.094 81.5763 289.364 82.0093C289.711 82.5633 290.327 82.8863 290.931 83.1423C293.097 84.0603 296.25 84.4343 297.494 83.3363ZM120.095 4.89827C124.677 1.53926 120.043 -1.45774 114.256 0.766263C111.138 1.96525 108.148 3.14926 104.957 3.95126C103.926 4.21026 97.6888 5.56126 97.6878 6.96525C97.6858 10.6863 104.715 9.80726 109.135 9.18725C112.699 8.68725 116.317 7.66826 120.095 4.89827Z" fill="#ECF6FF"/>
<path d="M271.392 197.704C273.877 197.704 275.892 195.689 275.892 193.204C275.892 190.719 273.877 188.704 271.392 188.704C268.906 188.704 266.892 190.719 266.892 193.204C266.892 195.689 268.906 197.704 271.392 197.704Z" fill="#3D4C65"/>
<path d="M271.392 96.2519C282.101 96.2519 290.783 87.57 290.783 76.8603C290.783 66.1506 282.101 57.4687 271.392 57.4687C260.682 57.4687 252 66.1506 252 76.8603C252 87.57 260.682 96.2519 271.392 96.2519Z" stroke="#3D4C65" stroke-width="0.6" stroke-miterlimit="10"/>
<path d="M271.321 187C271.321 168.536 271.322 113.878 271.322 98.5" stroke="#3D4C65" stroke-width="0.75" stroke-miterlimit="10" stroke-dasharray="3.04 3.04"/>
<path d="M277.025 86.9313C275.946 87.9436 274.493 88.5169 272.664 88.6523C272.558 88.6886 272.502 88.7485 272.498 88.832L272.422 90.9007C272.417 91.005 272.376 91.0918 272.299 91.1621C272.222 91.2303 272.131 91.2633 272.027 91.2579L269.584 91.1312C269.479 91.1257 269.392 91.0836 269.323 91.0078C269.254 90.9299 269.222 90.8393 269.227 90.735L269.367 88.6382C269.371 88.5548 269.323 88.4894 269.22 88.4423C267.419 88.0559 266.029 87.2986 265.052 86.1692C264.073 85.0398 263.628 83.6513 263.713 82.0005L263.754 81.2179C263.759 81.1136 263.799 81.0267 263.877 80.9576C263.954 80.8883 264.045 80.8564 264.149 80.8618L266.78 80.9983C266.884 81.0036 266.971 81.0447 267.041 81.1216C267.11 81.1984 267.142 81.289 267.137 81.3934L267.106 81.9881C267.056 82.9492 267.421 83.7695 268.202 84.4483C268.984 85.127 270.074 85.5026 271.473 85.5752C272.705 85.6391 273.644 85.4157 274.288 84.9051C274.931 84.3944 275.277 83.7103 275.321 82.8546C275.351 82.2703 275.209 81.7649 274.896 81.3406C274.584 80.9153 274.117 80.526 273.497 80.1684C272.877 79.812 271.954 79.3404 270.728 78.7526C269.357 78.1375 268.245 77.5672 267.394 77.0407C266.541 76.5152 265.844 75.8251 265.302 74.9694C264.76 74.1148 264.521 73.0708 264.585 71.8385C264.668 70.2524 265.221 68.9722 266.245 67.999C267.268 67.0267 268.623 66.4577 270.306 66.2939C270.413 66.2576 270.468 66.1977 270.472 66.1142L270.53 63.7934C270.535 63.6891 270.576 63.6023 270.653 63.532C270.73 63.4627 270.821 63.4308 270.925 63.4362L273.369 63.563C273.473 63.5684 273.56 63.6095 273.629 63.6863C273.698 63.7642 273.73 63.8548 273.725 63.9591L273.541 66.3047C273.536 66.3882 273.585 66.4535 273.687 66.5006C275.447 66.8859 276.815 67.6682 277.79 68.8488C278.765 70.0303 279.21 71.446 279.125 73.0957L279.097 73.6279C279.092 73.7322 279.05 73.8189 278.973 73.8882C278.896 73.9585 278.805 73.9894 278.701 73.984L276.039 73.8459C275.934 73.8405 275.847 73.8004 275.779 73.7226C275.709 73.6457 275.678 73.5552 275.683 73.4508L275.701 73.1065C275.752 72.1246 275.413 71.2752 274.687 70.5565C273.959 69.8387 272.927 69.4451 271.591 69.3758C270.484 69.3184 269.616 69.5141 268.986 69.9627C268.355 70.4123 268.017 71.0748 267.971 71.9513C267.939 72.5784 268.074 73.0981 268.377 73.5114C268.68 73.9257 269.141 74.3106 269.762 74.6671C270.382 75.0236 271.337 75.4864 272.627 76.0565C274.018 76.6936 275.123 77.2647 275.946 77.7677C276.767 78.2706 277.459 78.95 278.023 79.8068C278.585 80.6635 278.835 81.7071 278.771 82.9394C278.686 84.5891 278.103 85.919 277.025 86.9313Z" fill="#238C80"/>
<path d="M260.572 31.1537C265.624 33.0769 271.258 30.5464 273.157 25.5031C275.056 20.4597 272.5 14.8121 267.449 12.8889C262.397 10.9657 256.763 13.4954 254.864 18.5387C252.965 23.5829 255.521 29.2305 260.572 31.1537Z" fill="#B7EFF9"/>
<path d="M264.59 17.47L264.009 17.2483L262.195 22.0689L262.775 22.2906L264.59 17.47Z" fill="#434784"/>
<path d="M267.597 18.6144L267.018 18.3936L265.201 23.2142L265.783 23.435L267.597 18.6144Z" fill="#434784"/>
<path d="M260.302 26.3878C258.023 24.0068 259.414 20.318 259.432 20.2743L260.009 20.5011C259.938 20.6861 258.307 25.0469 262.056 26.8968C263.135 27.4308 264.145 27.5202 265.057 27.1626C266.896 26.4436 267.786 24.1413 267.795 24.119L268.375 24.3398C268.336 24.4452 267.383 26.9171 265.29 27.7395C264.207 28.1642 263.028 28.0676 261.783 27.4531C261.171 27.1504 260.685 26.7874 260.302 26.3878Z" fill="#434784"/>
<path d="M240.462 117.95C235.273 117.504 230.689 121.362 230.243 126.551C229.682 133.073 238.144 145.023 238.144 145.023C238.144 145.023 248.531 134.37 249.064 128.169C249.51 122.98 245.651 118.396 240.462 117.95ZM242.256 130.36C241.406 131.075 240.344 131.378 239.315 131.29C238.287 131.201 237.293 130.721 236.577 129.871C235.146 128.171 235.365 125.624 237.065 124.193C237.889 123.5 238.933 123.169 240.006 123.261C241.078 123.353 242.051 123.858 242.744 124.681C244.175 126.381 243.956 128.929 242.256 130.36Z" fill="#D53D3D"/>
<path d="M227.39 114.356L230.591 118.176L230.981 117.852L227.781 114.032L227.39 114.356Z" fill="#3D4C65"/>
<path d="M222.449 120.769L227.093 122.595L227.279 122.123L222.635 120.298L222.449 120.769Z" fill="#3D4C65"/>
<path d="M221 127.391L221.025 127.897L226.007 127.669L225.982 127.162L221 127.391Z" fill="#3D4C65"/>
<path d="M221.761 134.067L221.914 134.55L226.674 133.059L226.521 132.575L221.761 134.067Z" fill="#3D4C65"/>
<path d="M225.426 140.51L225.611 140.983L230.256 139.186L230.072 138.714L225.426 140.51Z" fill="#3D4C65"/>
<path d="M233.915 110.938L235.058 115.777L235.554 115.662L234.41 110.823L233.915 110.938Z" fill="#3D4C65"/>
<path d="M249.371 119.915L249.733 120.272L253.238 116.747L252.876 116.389L249.371 119.915Z" fill="#3D4C65"/>
<path d="M252.193 124.296L252.338 124.782L257.118 123.372L256.973 122.886L252.193 124.296Z" fill="#3D4C65"/>
<path d="M251.848 129.956L251.781 130.459L256.726 131.127L256.793 130.624L251.848 129.956Z" fill="#3D4C65"/>
<path d="M250.288 135.059L250.134 135.542L254.885 137.064L255.039 136.582L250.288 135.059Z" fill="#3D4C65"/>
<path d="M246.852 140.864L251.329 143.065L251.553 142.611L247.076 140.41L246.852 140.864Z" fill="#3D4C65"/>
<path d="M245.944 116.374L246.428 116.532L247.972 111.812L247.488 111.653L245.944 116.374Z" fill="#3D4C65"/>
<path d="M241.723 110L240.917 114.7L241.419 114.787L242.225 110.087L241.723 110Z" fill="#3D4C65"/>
<path d="M234.688 52.3889C234.688 52.3889 242.881 66.9421 242.028 67.542C241.174 68.1418 237.259 69.8516 237.259 69.8516L229.919 54.6986L234.688 52.3889Z" fill="#324B66"/>
<path d="M239.696 57.6267C239.696 57.6267 250.105 75.2287 248.669 76.1517C247.234 77.0747 240.826 79.9508 240.826 79.9508L231.853 61.4259L239.696 57.6267Z" fill="#E6A165"/>
<path d="M213.389 49.4026C216.897 56.6466 225.614 59.6745 232.858 56.1657C240.102 52.6569 243.13 43.9401 239.621 36.6961C236.112 29.4521 227.396 26.4243 220.152 29.9331C212.908 33.4419 209.88 42.1586 213.389 49.4026ZM217.188 47.5621C214.696 42.4167 216.847 36.2252 221.992 33.7329C227.138 31.2405 233.329 33.3913 235.821 38.5367C238.314 43.682 236.163 49.8736 231.018 52.3659C225.872 54.8582 219.681 52.7075 217.188 47.5621Z" fill="#324B66"/>
<path d="M231.823 69.7028C231.823 69.7028 230.353 67.5781 231.311 64.9991C232.764 61.0882 234.511 65.9472 235.873 66.7311C237.234 67.5149 242.36 60.7567 243.555 61.8294C244.749 62.9022 245.25 65.2994 245.582 67.241C245.914 69.1826 248.827 72.3096 248.043 73.6709C247.259 75.0322 243.666 78.7542 239.378 78.6462C235.09 78.5382 229.331 104.28 211.736 113.009C197.043 120.298 169.801 116.627 169.801 116.627L169.529 96.7597C169.529 96.7597 197.76 101.968 207.229 96.0746C217.963 89.3936 231.823 69.7028 231.823 69.7028Z" fill="white" stroke="#282425" stroke-width="0.6" stroke-miterlimit="10" stroke-linecap="round" stroke-linejoin="round"/>
<path d="M242.376 67.6477C242.911 67.5036 243.236 67.0844 243.729 66.4499C244.079 65.9988 244.514 65.4374 245.177 64.7805L244.845 64.446C244.161 65.1243 243.715 65.6991 243.356 66.1611C242.907 66.7401 242.636 67.0897 242.253 67.1927L242.376 67.6477Z" fill="#324B66"/>
<path d="M243.616 70.6342C245.065 69.9376 246.117 68.5854 246.161 68.5282L245.788 68.2405C245.778 68.2536 244.758 69.5623 243.412 70.2092L243.616 70.6342Z" fill="#324B66"/>
<path d="M245.07 73.1989C246.52 72.5024 247.572 71.1502 247.616 71.093L247.243 70.8053C247.233 70.8184 246.213 72.1271 244.866 72.774L245.07 73.1989Z" fill="#324B66"/>
<path d="M112.191 170.177C112.197 169.549 112.982 93.0034 115.556 81.8953L115.624 81.5985L115.326 81.5344C115.315 81.5314 115.035 81.4721 114.558 81.455C99.3849 80.0456 80.1852 92.2134 68.7675 104.115C64.1854 108.891 61.6183 112.99 61.8994 115.079C62.5656 120.007 83.1395 132.326 84.0147 132.847L84.2047 132.961L84.3699 132.813C86.9159 130.516 89.5797 128.2 92.711 125.562C91.5669 138.132 90.8796 166.237 92.067 168.099C92.7173 169.121 94.9496 169.734 97.7006 170.094C103.17 170.809 110.69 170.526 111.904 170.474L112.189 170.461L112.191 170.177Z" fill="#D53D3D"/>
<path d="M125.884 52.3043C125.884 52.3043 128.806 74.1978 122.027 80.0891C115.247 85.9794 96.5283 81.2129 96.7807 106.834C97.0341 132.455 94.6757 168.246 94.6757 168.246L152.902 175.864C152.902 175.864 169.523 107.508 161.297 93.8366C153.071 80.166 139.158 88.6256 141.222 78.9788C143.285 69.3319 142.391 51.673 142.391 51.673L125.884 52.3043Z" fill="white"/>
<path d="M153.116 176.195L94.348 168.506L94.377 168.216C94.3982 168.001 96.7305 132.147 96.4805 106.837C96.2975 88.2116 106.143 85.4115 114.055 83.1615C117.096 82.2967 119.968 81.4798 121.83 79.8624C128.41 74.1443 125.616 52.5614 125.587 52.3443L125.544 52.0171L142.676 51.3619L142.69 51.6578C142.7 51.8348 143.562 69.4668 141.515 79.0414C141.182 80.5969 141.268 81.724 141.777 82.4864C142.587 83.7014 144.47 84.0501 146.855 84.4921C151.21 85.2987 157.174 86.4036 161.553 93.6821C169.755 107.311 153.862 173.738 153.19 175.951L153.116 176.195ZM95.0019 167.987L152.689 175.534C153.867 171.571 168.824 106.928 161.04 93.9912C156.799 86.9445 150.988 85.8681 146.745 85.082C144.222 84.6145 142.228 84.2453 141.277 82.8194C140.666 81.9027 140.554 80.6619 140.928 78.9159C142.814 70.0992 142.209 54.3382 142.105 51.9841L126.223 52.5915C126.574 55.4528 128.671 74.7122 122.223 80.3157C120.261 82.0204 117.326 82.8552 114.219 83.7389C106.102 86.0472 96.9022 88.6635 97.0801 106.831C97.3152 130.584 95.2517 165.332 95.0019 167.987Z" fill="#282425"/>
<path d="M118.501 81.7447C118.501 81.7447 122.987 101.08 136.822 99.1727C146.409 97.8502 143.886 83.7154 146.092 84.244C148.298 84.7727 155.808 84.67 162.154 92.5368C168.5 100.402 160.726 176.887 158.473 176.593C156.22 176.298 94.2295 168.404 92.3198 167.938C90.4099 167.473 94.93 93.4519 98.3313 88.4449C101.732 83.4388 98.0786 82.1822 118.501 81.7447Z" fill="#8BC161"/>
<path d="M155.095 52.4232C155.095 52.4232 155.346 48.135 152.791 47.6606C150.237 47.1864 148.183 54.6405 151.463 56.2939C154.744 57.9474 155.09 52.9511 155.095 52.4232Z" fill="white"/>
<path d="M152.388 56.9094C152.055 56.8659 151.7 56.7501 151.328 56.562C149.319 55.5497 149.092 52.5786 149.904 50.1675C150.55 48.2522 151.738 47.1475 152.846 47.3652C155.61 47.879 155.409 52.1946 155.395 52.4365C155.389 52.6372 155.274 55.6871 153.699 56.6466C153.308 56.8845 152.869 56.9724 152.388 56.9094ZM152.685 47.9474C151.76 47.8264 150.91 49.0606 150.472 50.359C149.76 52.4725 149.912 55.1766 151.598 56.0261C152.321 56.391 152.907 56.4268 153.386 56.134C154.534 55.4351 154.79 53.0271 154.795 52.4206L154.796 52.406C154.798 52.3659 155 48.3759 152.737 47.9557C152.719 47.9525 152.702 47.9497 152.685 47.9474Z" fill="#282425"/>
<path d="M126.275 36.5931C126.275 36.5931 145.245 29.8681 149.767 38.669C154.29 47.47 150.967 77.8413 136.906 74.7875C122.845 71.7327 115.766 38.9771 126.275 36.5931Z" fill="white"/>
<path d="M137.626 75.42C137.353 75.3843 137.078 75.3364 136.8 75.2759C126.918 73.1292 120.784 57.3239 120.736 46.9379C120.708 40.8595 122.677 36.9165 126.135 36.1118C127.253 35.7189 145.589 29.4418 150.212 38.4408C153.447 44.737 152.81 62.9941 146.419 71.3149C144.009 74.4517 140.984 75.8592 137.626 75.42ZM142.391 34.8047C135.516 33.9052 126.571 37.0188 126.442 37.0644L126.386 37.0807C123.406 37.757 121.711 41.3477 121.736 46.9334C121.782 56.9841 127.616 72.2573 137.013 74.2992C140.34 75.0201 143.239 73.8127 145.625 70.7058C151.818 62.6442 152.448 44.9815 149.322 38.8977C148.021 36.3647 145.404 35.1989 142.391 34.8047Z" fill="#282425"/>
<path d="M124.965 42.2545C124.965 42.2545 119.97 59.6642 130.468 64.4257C135.556 66.7334 134.339 56.9612 141.943 58.5026C147.328 59.5939 146.026 65.4065 149.175 61.1589C152.324 56.9115 148.427 42.3739 150.218 43.836C152.008 45.2979 158.136 71.7711 144.185 74.8382C131.02 77.7329 123.118 68.7589 121.493 56.4547C119.868 44.1502 122.579 39.1354 124.965 42.2545Z" fill="#434784"/>
<path d="M141.219 57.386C140.244 57.2584 138.879 56.9468 137.684 56.6462L137.809 56.155C139.563 56.5966 141.626 57.0082 142.109 56.953C142.158 56.3384 141.461 53.2464 140.721 50.465L141.214 50.3358C142.972 56.9474 142.605 57.2407 142.467 57.3508C142.314 57.4737 141.847 57.4682 141.219 57.386Z" fill="#CA6E70"/>
<path d="M124.426 44.6654C124.426 44.6654 124.328 37.0484 134.743 35.9044C147.07 34.5504 149.435 42.2945 150.225 50.5838C150.755 56.1317 154.673 46.1956 150.13 37.1865C144.849 26.7106 130.704 26.1437 124.815 30.1001C117.496 35.0169 114.934 47.9141 120.184 53.276C125.434 58.6381 123.189 47.5307 124.426 44.6654Z" fill="#434784"/>
<path d="M122.122 55.7638C122.122 55.7638 121.266 51.5523 118.675 51.7424C116.085 51.9324 116.009 59.6638 119.604 60.4299C123.199 61.1959 122.253 56.2754 122.122 55.7638Z" fill="white"/>
<path d="M119.876 60.7813C119.767 60.767 119.656 60.748 119.542 60.7233C117.333 60.2525 116.354 57.4288 116.528 54.8821C116.666 52.8776 117.5 51.5281 118.654 51.4432C121.446 51.2348 122.364 55.4584 122.414 55.6994C122.461 55.896 123.133 58.8712 121.855 60.2025C121.381 60.6969 120.716 60.8911 119.876 60.7813ZM119.082 52.0517C118.959 52.0357 118.831 52.0317 118.697 52.0418C117.744 52.1115 117.222 53.5393 117.127 54.9234C116.974 57.1553 117.812 59.7415 119.667 60.1369C120.456 60.3002 121.034 60.1906 121.423 59.7869C122.353 58.8174 121.982 56.4258 121.831 55.8383L121.827 55.824C121.82 55.7866 121.087 52.314 119.082 52.0517Z" fill="#282425"/>
<path d="M133.489 54.9106C134.104 54.7743 134.445 53.961 134.251 53.0941C134.056 52.227 133.399 51.6347 132.783 51.771C132.168 51.9074 131.827 52.7206 132.022 53.5877C132.216 54.4545 132.873 55.0468 133.489 54.9106Z" fill="#3D4C65"/>
<path d="M145.188 53.4358C145.809 53.3304 146.191 52.5353 146.04 51.6597C145.89 50.7842 145.263 50.1599 144.641 50.2652C144.02 50.3705 143.638 51.1656 143.789 52.0412C143.94 52.9167 144.566 53.5412 145.188 53.4358Z" fill="#3D4C65"/>
<path d="M120.322 59.4654L120.273 58.9607C120.398 58.9487 120.581 58.899 120.717 58.6093C121.188 57.6078 120.582 55.0017 119.801 53.8597C119.579 53.5352 119.364 53.3782 119.155 53.3883C118.81 53.4077 118.482 53.8861 118.394 54.0522L117.943 53.8165C117.992 53.7247 118.435 52.921 119.126 52.8825C119.525 52.8595 119.893 53.0932 120.222 53.5748C121.023 54.7477 121.77 57.566 121.178 58.8246C120.999 59.2069 120.702 59.4284 120.322 59.4654Z" fill="#CA6E70"/>
<path d="M134.118 59.0046C134.45 57.7093 133.664 56.39 132.362 56.0578C131.06 55.7256 129.736 56.5064 129.404 57.8017C129.072 59.0971 129.858 60.4164 131.16 60.7486C132.462 61.0808 133.786 60.3 134.118 59.0046Z" fill="#C05C5D"/>
<path d="M149.48 57.5081C149.812 56.2128 149.026 54.8935 147.724 54.5613C146.422 54.2292 145.098 55.0099 144.766 56.3053C144.434 57.6006 145.22 58.9198 146.522 59.252C147.823 59.5842 149.148 58.8035 149.48 57.5081Z" fill="#C05C5D"/>
<path d="M137.323 66.1481C137.323 66.1481 135.892 60.5172 140.566 59.9487C144.575 59.4615 145.226 63.5888 144.858 66.0395C144.62 67.6287 143.918 68.3669 141.201 68.7537C138.559 69.1301 137.219 66.9236 137.323 66.1481Z" fill="white"/>
<path d="M140.057 69.2614C138.935 69.1146 138.183 68.5419 137.786 68.1483C137.171 67.5375 136.794 66.7652 136.819 66.1865C136.702 65.6698 136.186 63.0135 137.452 61.1645C138.116 60.1942 139.143 59.618 140.505 59.4525C141.964 59.2755 143.147 59.6371 144.016 60.5313C145.407 61.9615 145.606 64.4325 145.353 66.1137C145.06 68.0649 144.03 68.8559 141.271 69.2484C140.828 69.312 140.422 69.3091 140.057 69.2614ZM141.676 60.4403C141.353 60.398 141.002 60.3994 140.626 60.4452C139.563 60.5745 138.772 61.0064 138.277 61.7295C137.152 63.3733 137.801 65.9983 137.809 66.0249L137.819 66.2153C137.797 66.3808 137.975 66.9267 138.491 67.4388C138.971 67.9152 139.817 68.4441 141.131 68.2589C143.673 67.8966 144.165 67.2864 144.364 65.9656C144.6 64.395 144.362 62.3212 143.3 61.2284C142.872 60.7889 142.329 60.5257 141.676 60.4403Z" fill="#282425"/>
<path d="M141.205 65.4014C141.097 65.3872 140.979 65.3538 140.853 65.2941C139.064 64.4498 138.399 62.0656 138.372 61.9647L138.864 61.833C138.869 61.8554 139.496 64.093 141.071 64.8366C141.315 64.9511 141.459 64.8936 141.547 64.8402C142.207 64.4372 142.507 62.3266 142.541 61.091L143.05 61.1057C143.041 61.4608 142.923 64.5955 141.813 65.2724C141.671 65.3588 141.466 65.4355 141.205 65.4014Z" fill="#CA6E70"/>
<path d="M134.294 47.8334C134.552 48.5694 133.313 48.1732 132.104 48.5924C130.894 49.0116 130.172 50.0876 129.914 49.3514C129.656 48.6155 130.427 47.679 131.636 47.2597C132.846 46.8405 134.036 47.0973 134.294 47.8334Z" fill="#3D4C65"/>
<path d="M147.441 48.1063C147.384 48.8835 146.405 48.0294 145.128 47.9345C143.85 47.8396 142.757 48.5399 142.815 47.7627C142.872 46.9855 143.954 46.4323 145.231 46.5272C146.509 46.6222 147.499 47.3291 147.441 48.1063Z" fill="#3D4C65"/>
<path d="M131.16 36.6589C131.16 36.6589 126.025 38.149 126.12 42.8984C126.17 45.3817 130.554 50.5397 123.682 52.966C123.682 52.966 118.124 38.9737 131.16 36.6589Z" fill="#434784"/>
<path d="M139.264 35.839C139.264 35.839 145.836 36.3609 146.947 40.515C147.655 43.1604 147.737 48.8561 150.017 48.7356C152.995 48.5783 154.235 34.0847 139.264 35.839Z" fill="#434784"/>
<path d="M194.858 97.1334C185.787 95.6995 182.8 94.7125 173.967 92.2031C171.065 91.3789 168.189 90.4707 165.313 89.5627C162.819 88.7752 160.279 88.1399 157.817 87.3156C157.361 87.163 151.787 85.6581 151.792 85.5122C151.416 97.0731 143.646 173.188 143.646 173.188C143.646 173.188 153.98 178.751 156.595 176.347C158.887 174.24 165.348 134.806 165.22 120.858C170.363 125.458 183.257 126.083 184.321 125.315C187.726 122.858 189.928 119.106 191.933 115.416C192.762 113.89 193.576 112.351 194.223 110.739C195.796 106.818 196.337 102.489 195.789 98.2999C195.745 97.9587 195.679 97.2631 194.858 97.1334Z" fill="#30BFAE" stroke="black" stroke-width="0.6" stroke-miterlimit="10" stroke-linecap="round" stroke-linejoin="round"/>
<path d="M123.258 169.269C122.929 166.682 121.4 164.676 121.384 164.657L121.788 164.347C121.854 164.434 123.418 166.484 123.763 169.207L123.258 169.269Z" fill="#3D4C65"/>
<path d="M121.867 169.641L121.371 169.527C121.524 168.861 120.041 166.767 119.07 165.603L119.462 165.279C119.907 165.815 122.121 168.537 121.867 169.641Z" fill="#3D4C65"/>
<path d="M115.264 81.8275C115.264 81.8275 115.001 81.7709 114.53 81.7537C91.806 79.643 61.2956 108.361 62.1974 115.039C62.851 119.88 84.169 132.59 84.169 132.59C87.3171 129.749 90.3178 127.18 93.0776 124.863C91.8159 138.353 91.2387 166.241 92.3198 167.938C94.2283 170.934 111.891 170.174 111.891 170.174C111.891 170.174 112.653 93.096 115.264 81.8275Z" fill="#30BFAE"/>
<path d="M97.7006 170.094C94.9496 169.734 92.7173 169.121 92.067 168.099C90.8796 166.237 91.5668 138.132 92.7109 125.562C89.5796 128.2 86.9159 130.516 84.3699 132.813L84.2047 132.961L84.0147 132.847C83.1394 132.326 62.5656 120.007 61.8994 115.079C61.6183 112.99 64.1853 108.891 68.7674 104.115C80.1852 92.2134 99.3849 80.0456 114.558 81.455C115.035 81.4721 115.315 81.5314 115.326 81.5344L115.624 81.5985L115.556 81.8953C112.982 93.0034 112.196 169.549 112.191 170.177L112.188 170.461L111.904 170.474C110.69 170.526 103.17 170.81 97.7006 170.094ZM93.4436 124.163L93.376 124.891C92.0709 138.848 91.5851 166.227 92.572 167.777C94.0351 170.069 106.528 170.085 111.594 169.886C111.638 165.304 112.462 93.6459 114.901 82.0794C114.798 82.0689 114.67 82.0591 114.52 82.0537C98.511 80.567 78.649 94.681 69.1997 104.53C64.8101 109.106 62.2407 113.118 62.4949 114.999C63.0895 119.405 82.0193 130.943 84.1325 132.218C86.785 129.83 89.5711 127.414 92.8847 124.633L93.4436 124.163Z" fill="#282425"/>
<path d="M94.0533 122.247C94.2982 108.195 98.3044 91.2097 98.3448 91.0396L98.8407 91.1579C98.7994 91.3269 94.806 108.26 94.5623 122.257L94.0533 122.247Z" fill="#334054"/>
<path d="M164.505 115.709C165.226 106.087 164.673 94.4397 164.667 94.3229L165.176 94.2987C165.182 94.4164 165.736 106.094 165.012 115.747L164.505 115.709Z" fill="#334054"/>
<path d="M118.338 51.0324C111.88 38.6618 123.459 30.7969 123.577 30.7191L123.86 31.1409C123.746 31.2166 112.545 38.8366 118.79 50.799L118.338 51.0324Z" fill="#434784"/>
<path d="M118.954 142.421C110.154 141.608 92.4758 149.945 83.6724 142.66C79.1655 138.931 79.6276 134.514 81.1493 131.089C76.7754 128.35 68.5583 122.977 64.4128 118.805C62.2479 123.015 60.3914 128.219 59.6658 134.408C57.453 153.285 74.6518 161.156 87.0973 160.229C99.5427 159.302 112.78 148.398 115.956 151.593C119.132 154.788 120.321 154.957 121.56 155.283C122.203 155.453 125.605 154.704 125.249 153.808C121.273 143.832 127.393 153.791 129.953 158.425C130.889 160.118 132.243 143.648 118.954 142.421Z" fill="white"/>
<path d="M130.711 154.616C130.422 151.912 128.714 143.027 118.981 142.122C115.879 141.836 111.685 142.671 107.246 143.555C98.9254 145.212 89.4949 147.088 83.8633 142.429C81.6576 140.603 80.4879 138.448 80.3867 136.022C80.317 134.348 80.7627 132.711 81.4083 131.25C81.2397 131.145 81.0684 131.038 80.8875 130.924C80.1968 132.472 79.7117 134.224 79.7869 136.044C79.8953 138.649 81.1383 140.952 83.4817 142.891C89.3334 147.735 98.9119 145.827 107.363 144.144C111.759 143.268 115.911 142.441 118.926 142.72C124.903 143.276 127.643 146.962 128.912 149.961C130.386 153.444 130.333 156.954 130.068 158.013C128.684 155.524 124.834 148.801 123.89 149.263C123.569 149.414 123.237 149.572 124.97 153.919C124.974 153.93 124.988 153.964 124.913 154.048C124.402 154.625 122.085 155.125 121.637 154.993L121.432 154.94C120.292 154.646 119.114 154.344 116.169 151.382C114.45 149.649 110.496 151.485 105.025 154.024C99.8022 156.449 93.3012 159.466 87.0752 159.93C79.022 160.53 70.5123 157.476 65.4047 152.147C61.023 147.577 59.142 141.455 59.9638 134.444C60.6774 128.355 62.5143 123.222 64.6556 119.049C64.5007 118.897 64.3499 118.746 64.2057 118.597C61.9977 122.857 60.1005 128.125 59.3682 134.374C58.5243 141.569 60.4621 147.859 64.971 152.563C68.9618 156.726 74.9737 159.532 81.2561 160.354C83.2024 160.609 85.1736 160.673 87.119 160.529C93.4554 160.056 100.01 157.013 105.278 154.568C110.329 152.222 114.32 150.374 115.743 151.805C118.804 154.884 120.064 155.208 121.283 155.521L121.484 155.573C122.122 155.745 124.675 155.221 125.362 154.446C125.64 154.133 125.585 153.842 125.527 153.696C124.631 151.449 124.348 150.455 124.267 150.018C125.204 150.985 127.776 155.106 129.691 158.571C129.876 158.906 130.134 158.853 130.206 158.829C130.881 158.617 130.873 156.132 130.711 154.616Z" fill="#282425"/>
<path d="M86.8734 194.265H132.997L116.629 177.626H70.5054L86.8734 194.265Z" fill="#FFC44E" stroke="black" stroke-width="0.7" stroke-miterlimit="10" stroke-linecap="round" stroke-linejoin="round"/>
<path d="M70.5054 177.626L87.0087 194.129V228.493H56.6021V195.147L70.5054 177.626Z" fill="#FFAA02" stroke="black" stroke-width="0.7" stroke-miterlimit="10" stroke-linecap="round" stroke-linejoin="round"/>
<path d="M132.997 194.265V228.493H87.0087V194.129L132.997 194.265Z" fill="#FFAA02" stroke="black" stroke-width="0.7" stroke-miterlimit="10" stroke-linecap="round" stroke-linejoin="round"/>
<path d="M93.1562 159.721H80.8209L90.1396 150.248H102.475L93.1562 159.721Z" fill="#FFC44E" stroke="black" stroke-width="0.7" stroke-miterlimit="10" stroke-linecap="round" stroke-linejoin="round"/>
<path d="M102.475 150.248L93.0792 159.644V182.827H110.39V160.223L102.475 150.248Z" fill="#FFAA02" stroke="black" stroke-width="0.7" stroke-miterlimit="10" stroke-linecap="round" stroke-linejoin="round"/>
<path d="M87.4612 177.626L93.0254 182.733H93.0792V159.644L80.8209 159.721V177.626H87.4612Z" fill="#FFAA02" stroke="black" stroke-width="0.7" stroke-miterlimit="10" stroke-linecap="round" stroke-linejoin="round"/>
<path d="M86.7367 164.899C85.288 164.899 84.1137 166.074 84.1137 167.522V173.216H89.3598V167.522C89.3598 166.074 88.1854 164.899 86.7367 164.899Z" fill="#CC8802" stroke="black" stroke-width="0.7" stroke-miterlimit="10" stroke-linecap="round" stroke-linejoin="round"/>
<path d="M101.735 164.899C100.286 164.899 99.1118 166.074 99.1118 167.522V173.216H104.358V167.522C104.358 166.074 103.183 164.899 101.735 164.899Z" fill="#CC8802" stroke="black" stroke-width="0.7" stroke-miterlimit="10" stroke-linecap="round" stroke-linejoin="round"/>
<path d="M98.93 205.569H98.93C96.7056 205.569 94.9024 207.372 94.9024 209.597V218.339H102.958V209.597C102.958 207.372 101.154 205.569 98.93 205.569Z" fill="#CC8802" stroke="black" stroke-width="0.7" stroke-miterlimit="10" stroke-linecap="round" stroke-linejoin="round"/>
<path d="M120.849 205.569H120.849C118.624 205.569 116.821 207.372 116.821 209.597V218.339H124.876V209.597C124.876 207.372 123.073 205.569 120.849 205.569Z" fill="#FFAA02" stroke="black" stroke-width="0.7" stroke-miterlimit="10" stroke-linecap="round" stroke-linejoin="round"/>
<path d="M71.1868 204.593H71.1867C67.0237 204.593 63.6488 207.967 63.6488 212.131V228.493H78.7247V212.131C78.7247 207.967 75.3499 204.593 71.1868 204.593Z" fill="#CC8802" stroke="black" stroke-width="0.7" stroke-miterlimit="10" stroke-linecap="round" stroke-linejoin="round"/>
<path d="M71.1868 198.229C73.5753 198.229 75.5116 196.292 75.5116 193.904C75.5116 191.515 73.5753 189.579 71.1868 189.579C68.7982 189.579 66.8619 191.515 66.8619 193.904C66.8619 196.292 68.7982 198.229 71.1868 198.229Z" fill="#CC8802" stroke="black" stroke-width="0.7" stroke-miterlimit="10" stroke-linecap="round" stroke-linejoin="round"/>
<path d="M171.568 168.741H107.586L136.299 139.554H200.28L171.568 168.741Z" fill="#E9F7F9" stroke="black" stroke-width="0.7" stroke-miterlimit="10" stroke-linecap="round" stroke-linejoin="round"/>
<path d="M200.28 139.554L171.33 168.504V228.493H224.669V170.288L200.28 139.554Z" fill="#B7EFF9" stroke="black" stroke-width="0.7" stroke-miterlimit="10" stroke-linecap="round" stroke-linejoin="round"/>
<path d="M107.586 168.741V228.493H171.33V168.504L107.586 168.741Z" fill="#B7EFF9" stroke="black" stroke-width="0.7" stroke-miterlimit="10" stroke-linecap="round" stroke-linejoin="round"/>
<path d="M124.628 201.957C120.006 201.957 116.259 205.704 116.259 210.326V228.493H132.997V210.326C132.997 205.704 129.25 201.957 124.628 201.957Z" fill="#92BEC6" stroke="black" stroke-width="0.7" stroke-miterlimit="10" stroke-linecap="round" stroke-linejoin="round"/>
<path d="M121.505 177.27C118.608 177.27 116.259 179.619 116.259 182.517V193.904H126.751V182.517C126.751 179.619 124.402 177.27 121.505 177.27Z" fill="#92BEC6" stroke="black" stroke-width="0.7" stroke-miterlimit="10" stroke-linecap="round" stroke-linejoin="round"/>
<path d="M153.446 177.27C150.549 177.27 148.2 179.619 148.2 182.517V193.904H158.692V182.517C158.692 179.619 156.343 177.27 153.446 177.27Z" fill="#92BEC6" stroke="black" stroke-width="0.7" stroke-miterlimit="10" stroke-linecap="round" stroke-linejoin="round"/>
<path d="M189.867 177.35C186.969 177.35 184.621 179.699 184.621 182.596V193.983H195.113V182.596C195.113 179.699 192.764 177.35 189.867 177.35Z" fill="#92BEC6" stroke="black" stroke-width="0.7" stroke-miterlimit="10" stroke-linecap="round" stroke-linejoin="round"/>
<path d="M208.653 177.35C205.756 177.35 203.407 179.699 203.407 182.596V193.983H213.899V182.596C213.899 179.699 211.551 177.35 208.653 177.35Z" fill="#B7EFF9" stroke="black" stroke-width="0.7" stroke-miterlimit="10" stroke-linecap="round" stroke-linejoin="round"/>
<path d="M137.475 177.27C134.578 177.27 132.229 179.619 132.229 182.517V193.904H142.722V182.517C142.722 179.619 140.373 177.27 137.475 177.27Z" fill="#92BEC6" stroke="black" stroke-width="0.7" stroke-miterlimit="10" stroke-linecap="round" stroke-linejoin="round"/>
<path d="M150.323 201.957H150.323C145.701 201.957 141.954 205.704 141.954 210.326V228.493H158.692V210.326C158.692 205.704 154.945 201.957 150.323 201.957Z" fill="#92BEC6" stroke="black" stroke-width="0.7" stroke-miterlimit="10" stroke-linecap="round" stroke-linejoin="round"/>
<path d="M199.292 201.957H199.292C194.67 201.957 190.923 205.704 190.923 210.326V228.493H207.661V210.326C207.661 205.704 203.914 201.957 199.292 201.957Z" fill="#92BEC6" stroke="black" stroke-width="0.7" stroke-miterlimit="10" stroke-linecap="round" stroke-linejoin="round"/>
<path d="M243.233 178.147H203.148L227.34 153.554H267.426L243.233 178.147Z" fill="#61D8CB" stroke="#282425" stroke-width="0.7" stroke-miterlimit="10" stroke-linecap="round" stroke-linejoin="round"/>
<path d="M267.426 153.554L243.033 177.947V228.493H287.975V179.451L267.426 153.554Z" fill="#30BFAE" stroke="#282425" stroke-width="0.7" stroke-miterlimit="10" stroke-linecap="round" stroke-linejoin="round"/>
<path d="M203.148 178.147V228.493H243.033V177.947L203.148 178.147Z" fill="#30BFAE" stroke="#282425" stroke-width="0.7" stroke-miterlimit="10" stroke-linecap="round" stroke-linejoin="round"/>
<path d="M223.058 206.233H223.058C216.911 206.233 211.928 211.216 211.928 217.363V228.493H234.188V217.363C234.188 211.216 229.205 206.233 223.058 206.233Z" fill="#238C80" stroke="#282425" stroke-width="0.7" stroke-miterlimit="10" stroke-linecap="round" stroke-linejoin="round"/>
<path d="M261.849 194.265H251.765V217.363H261.849V194.265Z" fill="#238C80" stroke="#282425" stroke-width="0.7" stroke-miterlimit="10" stroke-linecap="round" stroke-linejoin="round"/>
<path d="M279.463 194.265H269.379V217.363H279.463V194.265Z" fill="#238C80" stroke="#282425" stroke-width="0.7" stroke-miterlimit="10" stroke-linecap="round" stroke-linejoin="round"/>
<path d="M223.058 199.455C226.393 199.455 229.097 196.751 229.097 193.415C229.097 190.08 226.393 187.376 223.058 187.376C219.722 187.376 217.018 190.08 217.018 193.415C217.018 196.751 219.722 199.455 223.058 199.455Z" fill="#238C80" stroke="#282425" stroke-width="0.7" stroke-miterlimit="10" stroke-linecap="round" stroke-linejoin="round"/>
<path d="M272.843 228.493C272.843 223.278 277.07 219.05 282.285 219.05C287.5 219.05 291.728 223.278 291.728 228.493H272.843Z" fill="#8BC161" stroke="black" stroke-width="0.6" stroke-miterlimit="10"/>
<path d="M285.831 228.493C285.831 221.178 291.76 215.248 299.075 215.248C306.39 215.248 312.32 221.178 312.32 228.493H285.831Z" fill="#8BC161" stroke="black" stroke-width="0.6" stroke-miterlimit="10"/>
<path d="M61.3252 228.489C61.3252 224.522 58.1096 221.307 54.1431 221.307C50.1765 221.307 46.9609 224.522 46.9609 228.489H61.3252Z" fill="#8BC161" stroke="black" stroke-width="0.6" stroke-miterlimit="10"/>
<path d="M51.4465 228.489C51.4465 222.925 46.9361 218.415 41.3722 218.415C35.8082 218.415 31.2978 222.925 31.2978 228.489H51.4465Z" fill="#8BC161" stroke="black" stroke-width="0.6" stroke-miterlimit="10"/>
<path d="M175.435 228.493C175.435 221.693 180.947 216.18 187.747 216.18C194.547 216.18 200.06 221.693 200.06 228.493H175.435Z" fill="#8BC161" stroke="black" stroke-width="0.6" stroke-miterlimit="10"/>
<path d="M18.1692 217.072C20.3784 217.072 22.1692 215.281 22.1692 213.072C22.1692 210.862 20.3784 209.072 18.1692 209.072C15.9601 209.072 14.1692 210.862 14.1692 213.072C14.1692 215.281 15.9601 217.072 18.1692 217.072Z" fill="#3D4C65"/>
<path d="M18.1692 180.339C27.6516 180.339 35.3385 172.652 35.3385 163.169C35.3385 153.687 27.6516 146 18.1692 146C8.68689 146 0.999939 153.687 0.999939 163.169C0.999939 172.652 8.68689 180.339 18.1692 180.339Z" stroke="#3D4C65" stroke-width="0.6" stroke-miterlimit="10"/>
<path d="M16.3981 172.824C16.3981 172.824 9.35973 157.654 12.9069 155.475C16.4541 153.297 18.4923 163.191 18.4923 163.191C18.4923 163.191 22.3487 153.926 25.7495 158.505C28.0575 161.611 16.3981 172.824 16.3981 172.824Z" fill="#D53D3D"/>
<path d="M18.5 207.5C18.5 202.481 18.5 187.49 18.5 182.5" stroke="#3D4C65" stroke-width="0.75" stroke-miterlimit="10" stroke-dasharray="2.76 2.76"/>
<path d="M298.169 211.071C300.378 211.071 302.169 209.281 302.169 207.071C302.169 204.862 300.378 203.071 298.169 203.071C295.96 203.071 294.169 204.862 294.169 207.071C294.169 209.281 295.96 211.071 298.169 211.071Z" fill="#3D4C65"/>
<path d="M299.169 156.339C308.652 156.339 316.339 148.652 316.339 139.169C316.339 129.687 308.652 122 299.169 122C289.687 122 282 129.687 282 139.169C282 148.652 289.687 156.339 299.169 156.339Z" stroke="#3D4C65" stroke-width="0.6" stroke-miterlimit="10"/>
<path d="M298.5 201.5C298.5 189 298.5 166.5 298.5 158" stroke="#3D4C65" stroke-width="0.75" stroke-miterlimit="10" stroke-dasharray="2.85 2.85"/>
<path d="M290.121 130.523L288.143 144.412C288.143 144.412 306.474 147.529 307.397 147.762C308.32 147.994 310.591 134.547 310.144 133.991C309.696 133.436 290.121 130.523 290.121 130.523Z" fill="#B7EFF9"/>
<path d="M299.503 141.937C299.434 141.965 299.382 141.979 299.347 141.979C298.605 141.976 292.545 134.044 289.973 130.633L290.269 130.413C293.449 134.633 298.734 141.405 299.371 141.615C299.942 141.526 306.216 136.806 310.031 133.848L310.257 134.136C308.647 135.385 300.886 141.379 299.503 141.937Z" fill="#3D4C65"/>
<path d="M288.249 144.562L288.038 144.262C289.227 143.43 296.111 138.355 296.18 138.304L296.398 138.598C296.328 138.65 289.442 143.727 288.249 144.562Z" fill="#3D4C65"/>
<path d="M307.237 147.854C305.431 144.751 302.671 140.048 302.471 139.813L302.608 139.697L302.49 139.535L302.637 139.504C302.743 139.526 302.826 139.543 307.556 147.669L307.237 147.854Z" fill="#3D4C65"/>
<path d="M83.6765 58.6201C78.7335 57.6607 73.9521 60.8715 72.9972 65.7915C72.0423 70.7116 75.2754 75.4778 80.2184 76.4372C85.1625 77.3968 89.9439 74.1861 90.8989 69.266C91.8538 64.346 88.6206 59.5797 83.6765 58.6201ZM80.7053 72.3045C78.2447 71.827 76.6432 69.4124 77.1286 66.9117C77.614 64.4109 80.0024 62.7709 82.4629 63.2484C84.9246 63.7262 86.5261 66.1406 86.0407 68.6415C85.5554 71.1422 83.1669 72.7823 80.7053 72.3045Z" fill="#3D4C65"/>
<path d="M81.0276 62.5221C81.0276 62.5221 81.5406 56.2601 82.9193 54.2208C83.2853 53.6813 86.4478 54.1367 86.3775 55.518C86.3597 55.8874 85.0734 63.0276 84.8439 63.1229C84.6156 63.2184 81.0276 62.5221 81.0276 62.5221Z" fill="#3D4C65"/>
<path d="M82.8782 72.6643C82.8782 72.6643 82.3653 78.9262 80.9854 80.9651C80.6206 81.5044 77.458 81.05 77.5272 79.6682C77.5461 79.2991 78.8325 72.1586 79.0608 72.0631C79.2902 71.9679 82.8782 72.6643 82.8782 72.6643Z" fill="#3D4C65"/>
<path d="M84.4961 63.2844C84.4961 63.2844 89.3067 59.2256 91.7315 58.757C92.3729 58.6329 94.29 61.1814 93.2592 62.1073C92.9846 62.3549 87.0026 66.4896 86.7727 66.3956C86.5417 66.3013 84.4961 63.2844 84.4961 63.2844Z" fill="#3D4C65"/>
<path d="M78.6034 71.7456C78.6034 71.7456 73.7928 75.8044 71.368 76.273C70.7255 76.3969 68.8083 73.8484 69.8391 72.9224C70.1149 72.6752 76.0969 68.5403 76.3268 68.6345C76.5567 68.7285 78.6034 71.7456 78.6034 71.7456Z" fill="#3D4C65"/>
<path d="M86.1908 70.5304C86.1908 70.5304 90.2751 75.327 90.7508 77.7427C90.8761 78.3818 88.3201 80.2862 87.388 79.2583C87.1392 78.9837 82.9757 73.0205 83.0692 72.7915C83.164 72.5628 86.1908 70.5304 86.1908 70.5304Z" fill="#3D4C65"/>
<path d="M77.6817 64.6489C77.6817 64.6489 73.5962 59.8521 73.1216 57.4367C72.9963 56.7976 75.5523 54.8932 76.4844 55.9211C76.7332 56.1957 80.8968 62.1589 80.802 62.3876C80.7084 62.6165 77.6817 64.6489 77.6817 64.6489Z" fill="#3D4C65"/>
<path d="M76.5646 68.7491C76.5646 68.7491 70.2734 68.227 68.2235 66.8505C67.6805 66.4861 68.1322 63.3374 69.5194 63.4095C69.8909 63.4288 77.0646 64.7216 77.1605 64.9499C77.2577 65.1784 76.5646 68.7491 76.5646 68.7491Z" fill="#3D4C65"/>
<path d="M86.384 66.8542C86.384 66.8542 92.6742 67.376 94.7252 68.7528C95.267 69.117 94.8154 72.2655 93.4281 72.1936C93.0566 72.1742 85.8829 70.8814 85.787 70.6531C85.691 70.4247 86.384 66.8542 86.384 66.8542Z" fill="#3D4C65"/>
<path d="M43.3241 181.056C45.929 181.056 48.0406 178.944 48.0406 176.339C48.0406 173.735 45.929 171.623 43.3241 171.623C40.7193 171.623 38.6077 173.735 38.6077 176.339C38.6077 178.944 40.7193 181.056 43.3241 181.056Z" fill="#3D4C65"/>
<path d="M43.3242 116.648C54.5489 116.648 63.6484 107.549 63.6484 96.3242C63.6484 85.0995 54.5489 76 43.3242 76C32.0994 76 22.9999 85.0995 22.9999 96.3242C22.9999 107.549 32.0994 116.648 43.3242 116.648Z" stroke="#3D4C65" stroke-width="0.6" stroke-miterlimit="10"/>
<path d="M43.6387 170C43.6387 157.746 43.6387 134.827 43.6387 119.5" stroke="#3D4C65" stroke-width="0.75" stroke-miterlimit="10" stroke-dasharray="2.94 2.94"/>
<path d="M34.5319 108.096C41.064 112.89 50.2277 111.507 54.9997 105.006C59.7718 98.5046 58.3451 89.3476 51.813 84.5528C45.2808 79.758 36.1176 81.1417 31.3455 87.6429C26.5735 94.144 27.9997 103.301 34.5319 108.096Z" fill="#EBBE00"/>
<path d="M42.6117 97.0934L41.5549 87.1991L39.7944 87.3768L41.0882 99.4902L53.1919 95.3149L52.6076 93.6437L42.6117 97.0934Z" fill="#3D4C65"/>
<path d="M105.9 47.8029L105.493 45L107.759 46.5432L109.836 45L109.157 47.6904L111.193 49.0821L108.709 49.5279L107.499 52.1738L106.578 49.5279H104L105.9 47.8029Z" fill="#D53D3D"/>
<path d="M190.112 127.063L193.31 124L193.403 128.286L197.254 129.529L193.213 131.108L193.289 134.963L190.466 132.205L186 133.067L188.532 129.493L186.191 126.211L190.112 127.063Z" fill="white"/>
<path d="M143.112 8.06324L146.31 5L146.403 9.28556L150.254 10.5286L146.213 12.1075L146.289 15.9625L143.466 13.205L139 14.0674L141.532 10.4929L139.191 7.21069L143.112 8.06324Z" fill="#8BC161"/>
<path d="M164.296 26.4883C164.296 26.4883 186.689 16.5567 188.064 17.9568C189.439 19.3569 197.718 44.949 197.718 44.949L173.865 53.7979L164.296 26.4883Z" fill="#FFAA02"/>
<path d="M187.361 24.5694C185.373 24.5419 185.357 24.5715 184.545 26.0858C184.033 27.0412 183.697 27.4245 183.321 27.508C182.959 27.5873 182.682 27.3761 182.389 27.1516C182.063 26.9032 181.693 26.6207 181.07 26.5534C179.293 26.3604 178.478 27.1447 177.199 28.552C176.187 29.6436 175.587 29.5057 174.581 29.2611C174.077 29.1387 173.45 28.9857 172.556 28.9327C170.149 28.7884 169.27 31.213 169.233 31.3162L168.638 31.1116C168.648 31.0812 169.708 28.1309 172.596 28.303C173.547 28.3606 174.204 28.5201 174.733 28.649C175.668 28.8762 175.994 28.9547 176.735 28.129C178.115 26.612 179.106 25.7061 181.141 25.9272C181.939 26.0131 182.421 26.3813 182.773 26.6502C182.939 26.7776 183.112 26.9093 183.188 26.892C183.278 26.8718 183.498 26.7112 183.962 25.8434C184.888 24.1202 185.089 23.9075 187.373 23.9392L187.361 24.5694Z" fill="#3D4C65"/>
<path d="M194.416 40.9967C192.428 40.969 192.413 40.9976 191.601 42.5141C191.089 43.4695 190.753 43.8525 190.376 43.9352C190.014 44.0145 189.737 43.8033 189.444 43.5789C189.119 43.3304 188.749 43.0487 188.125 42.9806C186.349 42.7885 185.535 43.5738 184.254 44.9792C183.243 46.0774 182.642 45.9329 181.636 45.6884C181.132 45.5659 180.505 45.4129 179.611 45.3599C177.192 45.2144 176.297 47.7178 176.289 47.7429L175.694 47.5396C175.704 47.509 176.763 44.5584 179.651 44.7302C180.602 44.7877 181.259 44.9475 181.787 45.0753C182.723 45.3037 183.039 45.3842 183.789 44.5555C185.174 43.0379 186.162 42.1347 188.195 42.3536C188.994 42.4404 189.477 42.8094 189.828 43.0774C189.994 43.2048 190.167 43.3368 190.244 43.32C190.333 43.3007 190.554 43.1377 191.017 42.2708C191.942 40.5478 192.142 40.3343 194.428 40.3664L194.416 40.9967Z" fill="#3D4C65"/>
<path d="M189.1 30.3101C187.539 30.2878 187.539 30.2875 187.346 31.0044C187.291 31.2031 187.228 31.4425 187.13 31.7298C186.811 32.6751 186.517 33.1237 186.117 33.2827C185.696 33.4492 185.293 33.2315 184.866 33C184.476 32.7892 184.033 32.5493 183.45 32.4858C181.693 32.2954 181.087 32.7764 179.792 34.1912C178.77 35.2903 178.18 35.1449 177.173 34.8997C176.67 34.7779 176.043 34.625 175.149 34.5719C172.731 34.4264 171.834 36.929 171.825 36.9544L171.23 36.7498C171.24 36.7201 172.299 33.7689 175.188 33.9424C176.139 33.9989 176.797 34.1595 177.325 34.2873C178.26 34.5157 178.574 34.6008 179.327 33.7675C180.723 32.238 181.491 31.6393 183.521 31.8596C184.226 31.9354 184.748 32.2181 185.167 32.4451C185.475 32.6115 185.741 32.7554 185.887 32.6968C186.022 32.6459 186.24 32.3991 186.533 31.5306C186.625 31.2583 186.686 31.031 186.737 30.8428C187.042 29.7178 187.29 29.6551 189.112 29.6803L189.1 30.3101Z" fill="#3D4C65"/>
<path d="M190.247 36.6399C189.659 37.2561 188.803 37.7854 187.592 37.7894C186.639 37.7916 185.973 37.6738 185.438 37.5789C184.49 37.4101 184.171 37.3555 183.471 38.223C182.185 39.8249 181.255 40.7884 179.21 40.6966C178.551 40.667 178.147 40.5656 177.853 40.4917C177.344 40.3637 177.238 40.3365 176.308 41.0738C175.133 42.0037 174.812 42.3304 174.657 42.4872C174.489 42.656 174.437 42.6965 174.091 42.8789L173.799 42.3224C174.083 42.1717 174.088 42.1671 174.209 42.045C174.373 41.8791 174.714 41.5343 175.919 40.5802C177.04 39.6924 177.313 39.7057 178.008 39.8795C178.293 39.9514 178.645 40.0399 179.242 40.0668C181.028 40.1481 181.788 39.3117 182.981 37.8294C183.911 36.6667 184.53 36.7765 185.55 36.9577C186.061 37.049 186.696 37.1615 187.593 37.1583C190.004 37.152 190.731 34.6772 190.761 34.572L191.367 34.7383C191.362 34.7559 191.065 35.7827 190.247 36.6399Z" fill="#3D4C65"/>
<path d="M187.865 21.9944C191.034 21.69 193.358 18.8871 193.055 15.7321C192.752 12.5783 189.937 10.2677 186.768 10.5721C183.599 10.8765 181.276 13.6806 181.579 16.8344C181.882 19.9894 184.696 22.2988 187.865 21.9944Z" fill="white"/>
<path d="M187.737 19.3858L183.538 16.0841L184.714 14.6041L187.222 16.5765L192.25 8.2373L193.874 9.20664L187.737 19.3858Z" fill="#D53D3D"/>
<path d="M186.938 72.4149L186.531 69.612L188.797 71.1552L190.874 69.612L190.195 72.3024L192.231 73.6941L189.747 74.1399L188.537 76.7858L187.616 74.1399H185.038L186.938 72.4149Z" fill="#30BFAE"/>
<path d="M85.8302 11.2396C85.8302 11.2396 75.1837 13.0167 76.0501 22.8108C76.7457 30.6744 83.9247 33.4458 91.1626 31.5858C90.9506 32.9277 90.7065 34.6755 90.8178 34.992C91.0029 35.5178 98.9659 30.1135 99.6402 25.1852C99.6403 25.1843 99.6402 25.1837 99.6403 25.1828C101.608 18.8378 96.4761 9.37221 85.8302 11.2396Z" fill="#8BC161"/>
<path d="M81.149 22.3124C80.9615 22.3124 80.7808 22.2059 80.6959 22.0243C80.5787 21.7743 80.6871 21.4765 80.9371 21.3593C83.0914 20.3524 85.3687 19.5673 87.7056 19.0263L87.8101 19.0018C88.356 18.8768 88.8716 18.7577 89.2818 18.5018C89.73 18.2216 90.0474 17.7743 90.3834 17.3007C90.6939 16.8622 91.0152 16.4081 91.4703 16.039C91.6832 15.8651 91.9986 15.8964 92.1734 16.1112C92.3482 16.3261 92.315 16.6405 92.1011 16.8143C91.7525 17.0985 91.483 17.4774 91.1988 17.8788C90.8209 18.412 90.4302 18.9638 89.8111 19.3505C89.2584 19.6952 88.6363 19.8388 88.0338 19.9765L87.9302 20.0009C85.6617 20.5263 83.4517 21.288 81.3609 22.2655C81.2925 22.2977 81.2203 22.3124 81.149 22.3124Z" fill="#434784"/>
<path d="M84.2915 26.1327C84.1509 26.1327 84.0102 26.0731 83.9116 25.9579C83.7319 25.7479 83.7563 25.4325 83.9663 25.2528C85.0395 24.3329 86.4966 23.7733 87.9624 23.7157C88.1118 23.7099 88.2622 23.7089 88.4116 23.7089C88.7241 23.7069 89.019 23.706 89.2944 23.6552C89.6587 23.5868 89.9448 23.4198 90.0395 23.2196C90.0786 23.1386 90.1059 23.0253 90.1343 22.9052C90.2134 22.5751 90.3218 22.1229 90.7934 21.8895C91.0757 21.7489 91.3657 21.7626 91.5962 21.7724C93.0161 21.8358 94.4272 21.4843 95.5903 20.7812C95.8266 20.6405 96.1343 20.7128 96.2768 20.9501C96.4194 21.1864 96.3442 21.494 96.1079 21.6366C94.7788 22.4403 93.1811 22.8495 91.5815 22.7724C91.4409 22.7685 91.2895 22.7597 91.2378 22.7851C91.185 22.8114 91.1421 22.9931 91.1069 23.1376C91.0688 23.2958 91.0259 23.4745 90.9428 23.6493C90.7075 24.1464 90.1733 24.5077 89.477 24.6376C89.1137 24.705 88.7593 24.7069 88.4165 24.7089C88.2788 24.7089 88.1401 24.7099 88.0014 24.7157C86.7563 24.7636 85.5229 25.2362 84.6167 26.0126C84.5229 26.0937 84.4067 26.1327 84.2915 26.1327Z" fill="#434784"/>
</svg>
