<svg width="1243" height="356" viewBox="0 0 1243 356" fill="none" xmlns="http://www.w3.org/2000/svg">
<path d="M739.974 309.634C726.107 308.705 720.306 318.185 713.791 330.37C695.955 363.729 656.232 360.514 642.908 339.973C633.472 325.423 613.119 328.416 596.654 334.11C580.45 339.715 552.842 345.099 530.853 338.402C511.645 332.552 503.764 311.447 486.257 312.745C448.063 315.577 428.807 277.793 435.725 261.314C440.239 250.558 442.481 238.527 438.811 227.459C434.766 215.27 425.532 205.62 418.068 195.142C410.602 184.663 404.591 171.564 408.302 159.27C411.477 148.752 420.949 141.473 426.829 132.172C445.088 103.285 427.025 59.0141 451.356 34.9373C468.77 17.7022 497.164 21.68 521.531 18.3914C541.853 15.6472 560.977 7.09575 581.205 3.74643C622.17 -3.03934 663.541 11.9058 705.071 12.3274C719.7 12.4752 734.602 10.8418 748.771 14.4571C767.675 19.2796 783.762 33.8546 790.321 52.1008C799.371 77.2791 790.796 106.418 801.02 131.15C809.35 151.297 829.718 167.689 828.437 189.429C827.639 202.964 818.411 214.286 812.065 226.291C802.632 244.133 815.121 314.674 739.974 309.634ZM619.085 342.318C622.73 342.318 625.684 340.05 625.684 337.252C625.684 334.454 622.722 332.427 619.085 332.186C607.234 331.402 607.234 336.202 607.234 339C607.234 343.47 615.442 342.318 619.085 342.318ZM498.732 320.716C495.563 318.094 491.524 316.524 487.405 316.312C486.304 316.255 485.106 316.325 484.258 317.024C483.208 317.888 483.094 319.654 484.026 320.643C484.611 321.266 485.465 321.545 486.26 321.869C487.614 322.42 488.942 323.21 489.709 324.448C489.931 324.807 490.123 325.219 490.493 325.427C492.786 326.719 502.903 324.166 498.732 320.716ZM478.546 316.241C477.503 315.88 476.358 316.212 475.31 316.554C474.636 316.773 473.809 317.255 473.991 317.935C474.078 318.263 474.386 318.48 474.686 318.642C476.067 319.382 477.86 319.928 479.249 318.981C480.638 318.033 479.589 316.602 478.546 316.241ZM430.348 220.825C430.168 219.249 429.199 217.888 428.259 216.605C426.448 214.13 424.608 211.624 422.218 209.693C421.207 208.876 420.031 208.146 418.728 208.1C417.541 208.059 416.403 208.598 415.44 209.289C413.096 210.973 411.514 213.664 411.189 216.519C410.746 220.435 412.564 224.248 414.678 227.584C415.987 229.65 417.514 231.709 419.706 232.817C423.381 234.674 425.809 233.053 426.834 229.793C427.78 226.792 430.731 224.166 430.348 220.825ZM821.282 129.642C823.217 127.934 821.472 122.936 820.901 119.636C820.73 118.647 820.501 117.625 819.877 116.835C819.025 115.754 817.609 115.31 816.281 114.924C813.926 114.241 811.071 113.66 809.273 115.318C807.938 116.548 807.749 118.552 807.752 120.36C807.754 122.01 807.843 123.661 808.018 125.304C808.102 126.091 808.215 126.904 808.636 127.578C809.175 128.44 810.133 128.942 811.073 129.341C814.442 130.769 819.348 131.351 821.282 129.642ZM545.311 7.62001C552.439 2.39455 545.23 -2.26773 536.228 1.19204C531.377 3.05725 526.726 4.89916 521.762 6.1468C520.158 6.54971 510.455 8.6514 510.454 10.8355C510.451 16.6241 521.385 15.2567 528.261 14.2922C533.806 13.5144 539.434 11.9292 545.311 7.62001Z" fill="#ECF6FF"/>
<path d="M1060.86 202.416C1068.71 205.407 1077.48 201.471 1080.43 193.625C1083.39 185.779 1079.41 176.994 1071.55 174.002C1063.7 171.01 1054.93 174.945 1051.98 182.791C1049.02 190.638 1053 199.424 1060.86 202.416Z" fill="#B7EFF9"/>
<path d="M1067.11 181.128L1066.2 180.784L1063.38 188.283L1064.28 188.628L1067.11 181.128Z" fill="#434784"/>
<path d="M1071.79 182.909L1070.88 182.565L1068.06 190.064L1068.96 190.408L1071.79 182.909Z" fill="#434784"/>
<path d="M1060.44 195.001C1056.89 191.298 1059.06 185.559 1059.08 185.491L1059.98 185.844C1059.87 186.132 1057.33 192.916 1063.16 195.793C1064.84 196.624 1066.41 196.763 1067.83 196.207C1070.69 195.088 1072.08 191.507 1072.09 191.472L1073 191.815C1072.93 191.979 1071.45 195.825 1068.2 197.104C1066.51 197.765 1064.68 197.615 1062.74 196.659C1061.79 196.188 1061.03 195.623 1060.44 195.001Z" fill="#434784"/>
<path d="M752.327 182.665C744.255 181.971 737.123 187.974 736.429 196.046C735.557 206.191 748.721 224.782 748.721 224.782C748.721 224.782 764.879 208.21 765.708 198.563C766.402 190.491 760.4 183.359 752.327 182.665ZM755.117 201.97C753.795 203.083 752.143 203.555 750.543 203.417C748.944 203.28 747.396 202.533 746.284 201.211C744.057 198.566 744.398 194.603 747.043 192.377C748.324 191.299 749.949 190.784 751.617 190.927C753.286 191.071 754.798 191.856 755.877 193.137C758.103 195.782 757.762 199.744 755.117 201.97Z" fill="#D53D3D"/>
<path d="M731.992 177.074L736.97 183.017L737.577 182.512L732.6 176.57L731.992 177.074Z" fill="#3D4C65"/>
<path d="M724.305 187.051L731.529 189.891L731.819 189.157L724.594 186.317L724.305 187.051Z" fill="#3D4C65"/>
<path d="M722.051 197.352L722.089 198.14L729.84 197.784L729.801 196.996L722.051 197.352Z" fill="#3D4C65"/>
<path d="M723.235 207.737L723.473 208.489L730.877 206.169L730.639 205.417L723.235 207.737Z" fill="#3D4C65"/>
<path d="M728.937 217.761L729.224 218.496L736.451 215.701L736.163 214.966L728.937 217.761Z" fill="#3D4C65"/>
<path d="M742.142 171.757L743.921 179.285L744.692 179.106L742.913 171.578L742.142 171.757Z" fill="#3D4C65"/>
<path d="M766.186 185.722L766.749 186.278L772.202 180.794L771.638 180.238L766.186 185.722Z" fill="#3D4C65"/>
<path d="M770.577 192.537L770.802 193.293L778.238 191.1L778.012 190.344L770.577 192.537Z" fill="#3D4C65"/>
<path d="M770.04 201.343L769.936 202.125L777.628 203.163L777.732 202.382L770.04 201.343Z" fill="#3D4C65"/>
<path d="M767.613 209.281L767.374 210.033L774.765 212.401L775.004 211.649L767.613 209.281Z" fill="#3D4C65"/>
<path d="M762.267 218.312L769.232 221.736L769.581 221.029L762.615 217.605L762.267 218.312Z" fill="#3D4C65"/>
<path d="M760.856 180.213L761.608 180.459L764.01 173.116L763.257 172.87L760.856 180.213Z" fill="#3D4C65"/>
<path d="M754.289 170.298L753.034 177.61L753.816 177.745L755.069 170.432L754.289 170.298Z" fill="#3D4C65"/>
<path d="M723.578 81.4991C723.578 81.4991 736.325 104.139 734.996 105.072C733.668 106.005 727.579 108.665 727.579 108.665L716.16 85.0922L723.578 81.4991Z" fill="#324B66"/>
<path d="M731.37 89.6473C731.37 89.6473 747.562 117.03 745.329 118.466C743.096 119.902 733.127 124.376 733.127 124.376L719.168 95.5575L731.37 89.6473Z" fill="#E6A165"/>
<path d="M690.444 76.8535C695.903 88.1226 709.463 92.833 720.732 87.3745C732.001 81.916 736.712 68.3557 731.253 57.0865C725.795 45.8174 712.234 41.1071 700.965 46.5656C689.696 52.0241 684.986 65.5843 690.444 76.8535ZM696.355 73.9903C692.478 65.9858 695.824 56.3539 703.828 52.4768C711.833 48.5995 721.465 51.9453 725.342 59.9498C729.219 67.9542 725.873 77.5861 717.869 81.4634C709.864 85.3405 700.232 81.9947 696.355 73.9903Z" fill="#324B66"/>
<path d="M719.122 108.434C719.122 108.434 716.834 105.128 718.325 101.116C720.586 95.0322 723.304 102.591 725.422 103.811C727.539 105.03 735.513 94.5165 737.372 96.1853C739.231 97.8541 740.009 101.583 740.526 104.604C741.043 107.624 745.573 112.489 744.354 114.606C743.135 116.724 737.545 122.514 730.874 122.346C724.203 122.178 715.245 162.223 687.873 175.803C665.016 187.143 622.637 181.432 622.637 181.432L622.213 150.525C622.213 150.525 666.131 158.627 680.861 149.459C697.561 139.066 719.122 108.434 719.122 108.434Z" fill="white" stroke="#282425" stroke-width="0.933393" stroke-miterlimit="10" stroke-linecap="round" stroke-linejoin="round"/>
<path d="M735.538 105.236C736.371 105.012 736.877 104.36 737.643 103.373C738.187 102.671 738.865 101.798 739.895 100.776L739.379 100.256C738.315 101.311 737.621 102.205 737.063 102.924C736.364 103.825 735.943 104.368 735.348 104.529L735.538 105.236Z" fill="#324B66"/>
<path d="M737.467 109.882C739.722 108.799 741.359 106.695 741.427 106.606L740.847 106.159C740.831 106.179 739.244 108.215 737.15 109.221L737.467 109.882Z" fill="#324B66"/>
<path d="M739.73 113.872C741.985 112.789 743.622 110.685 743.69 110.596L743.109 110.149C743.094 110.169 741.507 112.205 739.412 113.211L739.73 113.872Z" fill="#324B66"/>
<path d="M533.016 264.736C533.024 263.76 534.246 144.681 538.25 127.401L538.357 126.939L537.893 126.839C537.876 126.835 537.44 126.743 536.698 126.716C513.094 124.523 483.226 143.452 465.464 161.967C458.335 169.397 454.342 175.773 454.779 179.024C455.816 186.689 487.821 205.853 489.183 206.665L489.479 206.841L489.736 206.611C493.696 203.037 497.84 199.435 502.711 195.332C500.932 214.885 499.862 258.608 501.71 261.504C502.721 263.094 506.194 264.048 510.474 264.607C518.981 265.721 530.68 265.279 532.569 265.199L533.012 265.178L533.016 264.736Z" fill="#D53D3D"/>
<path d="M554.318 81.3674C554.318 81.3674 558.863 115.426 548.316 124.591C537.77 133.754 508.65 126.339 509.042 166.197C509.437 206.055 505.768 261.733 505.768 261.733L596.349 273.584C596.349 273.584 622.204 167.246 609.407 145.977C596.611 124.711 574.967 137.871 578.177 122.864C581.387 107.856 579.996 80.3854 579.996 80.3854L554.318 81.3674Z" fill="white"/>
<path d="M596.68 274.098L505.258 262.137L505.303 261.686C505.336 261.352 508.964 205.576 508.575 166.202C508.291 137.227 523.607 132.871 535.915 129.37C540.646 128.025 545.115 126.754 548.01 124.238C558.247 115.343 553.901 81.7673 553.854 81.4295L553.788 80.9206L580.439 79.9014L580.462 80.3617C580.476 80.637 581.818 108.066 578.633 122.961C578.116 125.381 578.249 127.134 579.041 128.32C580.302 130.21 583.23 130.753 586.94 131.44C593.715 132.695 602.994 134.414 609.806 145.737C622.565 166.939 597.84 270.277 596.796 273.719L596.68 274.098ZM506.275 261.329L596.016 273.07C597.849 266.906 621.117 166.343 609.008 146.218C602.411 135.256 593.371 133.581 586.77 132.358C582.844 131.631 579.743 131.057 578.264 128.838C577.312 127.412 577.139 125.482 577.721 122.766C580.654 109.05 579.712 84.5314 579.551 80.8692L554.844 81.8142C555.391 86.2653 558.653 116.226 548.623 124.943C545.57 127.595 541.004 128.894 536.17 130.269C523.542 133.86 509.231 137.93 509.508 166.192C509.874 203.144 506.664 257.199 506.275 261.329Z" fill="#282425"/>
<path d="M542.832 127.167C542.832 127.167 549.81 157.246 571.333 154.278C586.248 152.221 582.322 130.232 585.754 131.055C589.185 131.877 600.868 131.717 610.74 143.955C620.613 156.192 608.519 275.176 605.014 274.717C601.51 274.259 505.074 261.978 502.103 261.253C499.132 260.53 506.164 145.379 511.455 137.59C516.746 129.802 511.062 127.847 542.832 127.167Z" fill="#8BC161"/>
<path d="M599.759 81.5524C599.759 81.5524 600.15 74.8814 596.176 74.1434C592.202 73.4057 589.006 85.0017 594.109 87.5738C599.214 90.1461 599.752 82.3736 599.759 81.5524Z" fill="white"/>
<path d="M595.548 88.5314C595.03 88.4636 594.479 88.2835 593.899 87.9909C590.775 86.4161 590.42 81.794 591.685 78.0433C592.689 75.0637 594.538 73.3452 596.26 73.6839C600.56 74.4832 600.247 81.1967 600.226 81.5731C600.217 81.8853 600.038 86.6298 597.587 88.1225C596.979 88.4927 596.296 88.6293 595.548 88.5314ZM596.01 74.5896C594.571 74.4014 593.249 76.3213 592.568 78.3412C591.461 81.6291 591.696 85.8358 594.32 87.1572C595.443 87.7248 596.355 87.7806 597.101 87.3251C598.886 86.2378 599.284 82.4918 599.293 81.5483L599.294 81.5255C599.298 81.4632 599.612 75.2562 596.091 74.6025C596.064 74.5974 596.037 74.5931 596.01 74.5896Z" fill="#282425"/>
<path d="M554.925 56.9262C554.925 56.9262 584.436 46.4644 591.471 60.1556C598.507 73.8469 593.337 121.094 571.464 116.344C549.59 111.591 538.577 60.6348 554.925 56.9262Z" fill="white"/>
<path d="M572.584 117.327C572.159 117.272 571.731 117.197 571.299 117.103C555.926 113.764 546.383 89.1761 546.309 73.0192C546.265 63.5633 549.327 57.4293 554.708 56.1775C556.447 55.5662 584.971 45.8013 592.162 59.8006C597.196 69.5953 596.205 97.9971 586.262 110.941C582.514 115.821 577.807 118.011 572.584 117.327ZM579.996 54.1441C569.3 52.7448 555.386 57.5884 555.185 57.6595L555.098 57.6848C550.462 58.7368 547.825 64.3227 547.865 73.0121C547.935 88.6476 557.012 112.407 571.63 115.584C576.806 116.705 581.315 114.827 585.027 109.994C594.661 97.4527 595.642 69.9757 590.779 60.5113C588.754 56.5708 584.683 54.7573 579.996 54.1441Z" fill="#282425"/>
<path d="M552.888 65.7332C552.888 65.7332 545.117 92.8168 561.448 100.224C569.364 103.814 567.47 88.6118 579.3 91.0097C587.677 92.7075 585.651 101.75 590.549 95.1421C595.449 88.5346 589.387 65.9191 592.172 68.1935C594.957 70.4678 604.49 111.651 582.787 116.422C562.307 120.925 550.013 106.965 547.486 87.8239C544.959 68.6823 549.176 60.8811 552.888 65.7332Z" fill="#434784"/>
<path d="M578.173 89.2728C576.657 89.0744 574.533 88.5896 572.674 88.1219L572.868 87.3578C575.597 88.0448 578.807 88.6851 579.557 88.5993C579.633 87.6431 578.549 82.833 577.399 78.5061L578.166 78.3052C580.899 88.5906 580.33 89.0468 580.114 89.218C579.876 89.4093 579.151 89.4007 578.173 89.2728Z" fill="#CA6E70"/>
<path d="M552.049 69.4838C552.049 69.4838 551.897 57.6345 568.098 55.8547C587.275 53.7485 590.954 65.7956 592.184 78.6908C593.008 87.3214 599.103 71.8643 592.036 57.8494C583.82 41.5524 561.815 40.6706 552.654 46.8253C541.269 54.4743 537.283 74.5378 545.45 82.8791C553.617 91.2206 550.125 73.9413 552.049 69.4838Z" fill="#434784"/>
<path d="M548.465 86.7493C548.465 86.7493 547.133 80.1976 543.103 80.4932C539.073 80.7889 538.956 92.8163 544.548 94.008C550.141 95.1997 548.668 87.5451 548.465 86.7493Z" fill="white"/>
<path d="M544.971 94.5546C544.801 94.5323 544.629 94.5029 544.452 94.4644C541.014 93.732 539.491 89.3393 539.763 85.3775C539.976 82.2591 541.275 80.1599 543.069 80.0277C547.414 79.7037 548.842 86.2741 548.92 86.649C548.992 86.9549 550.038 91.5832 548.049 93.6542C547.311 94.4233 546.277 94.7255 544.971 94.5546ZM543.736 80.9745C543.545 80.9494 543.345 80.9432 543.137 80.959C541.654 81.0675 540.842 83.2886 540.694 85.4418C540.456 88.9139 541.76 92.9371 544.646 93.5521C545.874 93.8062 546.772 93.6357 547.377 93.0078C548.825 91.4995 548.246 87.7789 548.012 86.865L548.006 86.8427C547.995 86.7846 546.854 81.3824 543.736 80.9745Z" fill="#282425"/>
<path d="M566.147 85.422C567.104 85.2099 567.635 83.9447 567.333 82.596C567.029 81.2472 566.008 80.3258 565.05 80.5378C564.093 80.75 563.562 82.0151 563.865 83.364C564.168 84.7124 565.189 85.6338 566.147 85.422Z" fill="#3D4C65"/>
<path d="M584.347 83.1277C585.313 82.9637 585.908 81.7268 585.673 80.3647C585.439 79.0027 584.465 78.0314 583.497 78.1953C582.53 78.3591 581.937 79.5961 582.171 80.9581C582.405 82.3202 583.38 83.2916 584.347 83.1277Z" fill="#3D4C65"/>
<path d="M545.665 92.5075L545.588 91.7225C545.783 91.7038 546.068 91.6265 546.279 91.1758C547.011 89.6178 546.069 85.5636 544.855 83.787C544.51 83.2822 544.174 83.038 543.849 83.0536C543.312 83.0839 542.802 83.8282 542.666 84.0865L541.964 83.7198C542.039 83.577 542.728 82.3267 543.805 82.2668C544.424 82.231 544.998 82.5946 545.509 83.3439C546.756 85.1685 547.917 89.5528 546.996 91.5107C546.717 92.1055 546.257 92.4501 545.665 92.5075Z" fill="#CA6E70"/>
<path d="M567.126 91.7907C567.642 89.7757 566.42 87.7234 564.395 87.2066C562.37 86.6898 560.309 87.9045 559.793 89.9195C559.277 91.9347 560.499 93.987 562.524 94.5038C564.55 95.0205 566.61 93.8059 567.126 91.7907Z" fill="#C05C5D"/>
<path d="M591.024 89.4627C591.54 87.4476 590.318 85.3954 588.293 84.8786C586.268 84.3619 584.207 85.5764 583.691 87.5916C583.175 89.6066 584.397 91.6589 586.422 92.1757C588.447 92.6925 590.508 91.4779 591.024 89.4627Z" fill="#C05C5D"/>
<path d="M572.113 102.903C572.113 102.903 569.886 94.1437 577.157 93.2594C583.394 92.5014 584.407 98.9222 583.834 102.735C583.464 105.207 582.372 106.355 578.145 106.957C574.035 107.543 571.95 104.11 572.113 102.903Z" fill="white"/>
<path d="M576.366 107.747C574.62 107.518 573.449 106.627 572.832 106.015C571.877 105.065 571.289 103.864 571.329 102.963C571.146 102.159 570.343 98.0272 572.313 95.1509C573.347 93.6414 574.944 92.7449 577.063 92.4874C579.333 92.2122 581.173 92.7746 582.524 94.1657C584.688 96.3907 584.997 100.235 584.604 102.85C584.149 105.885 582.546 107.116 578.254 107.726C577.564 107.825 576.934 107.821 576.366 107.747ZM578.884 94.0242C578.381 93.9584 577.835 93.9605 577.25 94.0318C575.597 94.233 574.367 94.9049 573.596 96.0297C571.846 98.587 572.856 102.671 572.868 102.712L572.884 103.008C572.849 103.266 573.127 104.115 573.93 104.912C574.676 105.653 575.993 106.475 578.036 106.187C581.991 105.624 582.757 104.674 583.065 102.62C583.433 100.176 583.063 96.9503 581.41 95.2502C580.745 94.5665 579.899 94.157 578.884 94.0242Z" fill="#282425"/>
<path d="M578.151 101.742C577.983 101.72 577.8 101.668 577.604 101.575C574.821 100.262 573.786 96.5527 573.744 96.3958L574.51 96.1908C574.518 96.2258 575.493 99.7066 577.943 100.863C578.323 101.042 578.546 100.952 578.683 100.869C579.711 100.242 580.177 96.9587 580.23 95.0366L581.021 95.0595C581.007 95.6119 580.824 100.488 579.097 101.541C578.877 101.676 578.557 101.795 578.151 101.742Z" fill="#CA6E70"/>
<path d="M567.399 74.4122C567.802 75.5573 565.874 74.9408 563.993 75.5929C562.111 76.2451 560.988 77.919 560.586 76.7737C560.185 75.6288 561.384 74.172 563.266 73.5198C565.148 72.8676 566.999 73.2671 567.399 74.4122Z" fill="#3D4C65"/>
<path d="M587.853 74.8368C587.764 76.0458 586.241 74.7172 584.254 74.5695C582.267 74.4218 580.566 75.5113 580.655 74.3022C580.745 73.0932 582.428 72.2326 584.415 72.3803C586.402 72.5279 587.942 73.6277 587.853 74.8368Z" fill="#3D4C65"/>
<path d="M562.524 57.0286C562.524 57.0286 554.536 59.3466 554.684 66.7351C554.762 70.5983 561.582 78.6223 550.892 82.3967C550.892 82.3967 542.246 60.6295 562.524 57.0286Z" fill="#434784"/>
<path d="M575.132 55.753C575.132 55.753 585.356 56.565 587.083 63.0273C588.185 67.1427 588.313 76.0032 591.86 75.8157C596.492 75.571 598.421 53.024 575.132 55.753Z" fill="#434784"/>
<path d="M661.616 151.106C647.506 148.875 642.858 147.34 629.117 143.436C624.604 142.154 620.129 140.741 615.655 139.329C611.775 138.104 607.824 137.115 603.994 135.833C603.285 135.595 594.613 133.254 594.62 133.027C594.035 151.012 581.949 269.42 581.949 269.42C581.949 269.42 598.025 278.075 602.093 274.335C605.658 271.056 615.71 209.712 615.51 188.013C623.512 195.169 643.57 196.141 645.225 194.947C650.523 191.125 653.948 185.288 657.066 179.548C658.356 177.174 659.623 174.78 660.629 172.272C663.076 166.172 663.918 159.437 663.066 152.921C662.996 152.39 662.893 151.308 661.616 151.106Z" fill="#30BFAE" stroke="black" stroke-width="0.933393" stroke-miterlimit="10" stroke-linecap="round" stroke-linejoin="round"/>
<path d="M550.231 263.323C549.721 259.3 547.341 256.179 547.317 256.149L547.945 255.668C548.048 255.802 550.481 258.991 551.017 263.227L550.231 263.323Z" fill="#3D4C65"/>
<path d="M548.069 263.903L547.297 263.726C547.534 262.69 545.227 259.432 543.716 257.622L544.327 257.118C545.019 257.951 548.463 262.185 548.069 263.903Z" fill="#3D4C65"/>
<path d="M537.796 127.295C537.796 127.295 537.387 127.207 536.655 127.181C501.304 123.897 453.84 168.572 455.243 178.961C456.26 186.492 489.423 206.264 489.423 206.264C494.32 201.845 498.988 197.848 503.282 194.244C501.319 215.23 500.421 258.614 502.103 261.253C505.072 265.914 532.549 264.732 532.549 264.732C532.549 264.732 533.734 144.825 537.796 127.295Z" fill="#30BFAE"/>
<path d="M510.473 264.608C506.194 264.048 502.721 263.094 501.71 261.504C499.862 258.608 500.931 214.885 502.711 195.332C497.84 199.435 493.696 203.037 489.735 206.611L489.478 206.841L489.183 206.665C487.821 205.853 455.816 186.689 454.779 179.024C454.342 175.773 458.335 169.397 465.463 161.967C483.226 143.452 513.094 124.523 536.697 126.716C537.44 126.743 537.875 126.835 537.893 126.839L538.357 126.939L538.25 127.401C534.246 144.681 533.024 263.76 533.016 264.736L533.012 265.178L532.569 265.199C530.68 265.279 518.981 265.721 510.473 264.608ZM503.851 193.155L503.746 194.287C501.716 216 500.96 258.592 502.495 261.004C504.771 264.569 524.206 264.593 532.087 264.284C532.155 257.156 533.436 145.681 537.231 127.687C537.07 127.671 536.872 127.656 536.638 127.647C511.734 125.334 480.836 147.291 466.136 162.613C459.307 169.732 455.31 175.972 455.706 178.899C456.631 185.753 486.079 203.702 489.366 205.686C493.493 201.97 497.827 198.213 502.982 193.886L503.851 193.155Z" fill="#282425"/>
<path d="M504.8 190.173C505.181 168.313 511.413 141.891 511.476 141.626L512.247 141.81C512.183 142.073 505.971 168.415 505.591 190.189L504.8 190.173Z" fill="#334054"/>
<path d="M614.398 180.002C615.52 165.034 614.66 146.916 614.651 146.734L615.442 146.696C615.451 146.879 616.314 165.046 615.187 180.062L614.398 180.002Z" fill="#334054"/>
<path d="M542.578 79.3888C532.532 60.1444 550.545 47.9094 550.728 47.7883L551.168 48.4446C550.991 48.5623 533.566 60.4164 543.281 79.0258L542.578 79.3888Z" fill="#434784"/>
<path d="M543.536 221.558C529.846 220.293 502.346 233.262 488.651 221.93C481.639 216.128 482.358 209.258 484.725 203.929C477.921 199.669 465.138 191.31 458.689 184.82C455.321 191.368 452.433 199.465 451.305 209.093C447.862 238.458 474.618 250.704 493.978 249.261C513.339 247.818 533.932 230.856 538.873 235.826C543.813 240.796 545.663 241.059 547.591 241.567C548.59 241.831 553.884 240.666 553.329 239.272C547.144 223.753 556.665 239.246 560.648 246.455C562.103 249.088 564.209 223.467 543.536 221.558Z" fill="white"/>
<path d="M561.827 240.529C561.377 236.323 558.72 222.501 543.578 221.093C538.752 220.647 532.229 221.947 525.323 223.322C512.379 225.9 497.708 228.819 488.947 221.57C485.516 218.73 483.696 215.377 483.539 211.603C483.431 208.999 484.124 206.453 485.128 204.18C484.866 204.017 484.6 203.85 484.318 203.673C483.244 206.081 482.489 208.806 482.606 211.638C482.775 215.69 484.708 219.273 488.354 222.289C497.457 229.825 512.358 226.856 525.505 224.238C532.343 222.875 538.802 221.589 543.494 222.023C552.791 222.889 557.054 228.622 559.028 233.288C561.321 238.705 561.238 244.166 560.826 245.814C558.673 241.941 552.684 231.484 551.215 232.202C550.716 232.437 550.2 232.682 552.895 239.445C552.902 239.463 552.923 239.514 552.806 239.646C552.012 240.543 548.407 241.321 547.71 241.115L547.391 241.034C545.618 240.576 543.785 240.105 539.204 235.498C536.529 232.802 530.378 235.658 521.868 239.608C513.743 243.38 503.63 248.074 493.944 248.796C481.416 249.729 468.178 244.979 460.232 236.688C453.416 229.578 450.49 220.055 451.768 209.148C452.878 199.676 455.736 191.691 459.067 185.199C458.826 184.962 458.591 184.728 458.367 184.497C454.932 191.124 451.981 199.318 450.842 209.039C449.529 220.233 452.543 230.017 459.558 237.335C465.766 243.811 475.118 248.177 484.892 249.456C487.919 249.852 490.986 249.951 494.012 249.727C503.869 248.993 514.066 244.258 522.261 240.455C530.119 236.805 536.328 233.93 538.542 236.156C543.304 240.946 545.264 241.449 547.159 241.936L547.472 242.019C548.465 242.285 552.436 241.47 553.505 240.265C553.938 239.777 553.852 239.325 553.762 239.098C552.368 235.602 551.927 234.057 551.802 233.377C553.26 234.881 557.261 241.291 560.239 246.681C560.528 247.203 560.929 247.121 561.041 247.083C562.091 246.753 562.079 242.888 561.827 240.529Z" fill="#282425"/>
<path d="M493.63 302.209H565.383L539.92 276.325H468.167L493.63 302.209Z" fill="#FFC44E" stroke="black" stroke-width="1.08896" stroke-miterlimit="10" stroke-linecap="round" stroke-linejoin="round"/>
<path d="M468.167 276.325L493.841 301.998V355.456H446.539V303.581L468.167 276.325Z" fill="#FFAA02" stroke="black" stroke-width="1.08896" stroke-miterlimit="10" stroke-linecap="round" stroke-linejoin="round"/>
<path d="M565.383 302.209V355.456H493.841V301.998L565.383 302.209Z" fill="#FFAA02" stroke="black" stroke-width="1.08896" stroke-miterlimit="10" stroke-linecap="round" stroke-linejoin="round"/>
<path d="M503.404 248.47H484.215L498.711 233.734H517.901L503.404 248.47Z" fill="#FFC44E" stroke="black" stroke-width="1.08896" stroke-miterlimit="10" stroke-linecap="round" stroke-linejoin="round"/>
<path d="M517.901 233.734L503.284 248.35V284.416H530.214V249.251L517.901 233.734Z" fill="#FFAA02" stroke="black" stroke-width="1.08896" stroke-miterlimit="10" stroke-linecap="round" stroke-linejoin="round"/>
<path d="M494.545 276.324L503.201 284.27H503.284V248.35L484.215 248.47V276.324H494.545Z" fill="#FFAA02" stroke="black" stroke-width="1.08896" stroke-miterlimit="10" stroke-linecap="round" stroke-linejoin="round"/>
<path d="M493.418 256.526C491.164 256.526 489.337 258.353 489.337 260.607V269.464H497.498V260.607C497.498 258.353 495.671 256.526 493.418 256.526Z" fill="#CC8802" stroke="black" stroke-width="1.08896" stroke-miterlimit="10" stroke-linecap="round" stroke-linejoin="round"/>
<path d="M516.749 256.526C514.496 256.526 512.669 258.353 512.669 260.607V269.464H520.83V260.607C520.83 258.353 519.003 256.526 516.749 256.526Z" fill="#CC8802" stroke="black" stroke-width="1.08896" stroke-miterlimit="10" stroke-linecap="round" stroke-linejoin="round"/>
<path d="M512.386 319.795H512.386C508.926 319.795 506.12 322.6 506.12 326.06V339.66H518.652V326.06C518.652 322.6 515.846 319.795 512.386 319.795Z" fill="#CC8802" stroke="black" stroke-width="1.08896" stroke-miterlimit="10" stroke-linecap="round" stroke-linejoin="round"/>
<path d="M546.484 319.795H546.484C543.024 319.795 540.218 322.6 540.218 326.06V339.66H552.75V326.06C552.75 322.6 549.944 319.795 546.484 319.795Z" fill="#FFAA02" stroke="black" stroke-width="1.08896" stroke-miterlimit="10" stroke-linecap="round" stroke-linejoin="round"/>
<path d="M469.227 318.276H469.227C462.751 318.276 457.501 323.526 457.501 330.002V355.456H480.954V330.002C480.954 323.526 475.704 318.276 469.227 318.276Z" fill="#CC8802" stroke="black" stroke-width="1.08896" stroke-miterlimit="10" stroke-linecap="round" stroke-linejoin="round"/>
<path d="M469.227 308.375C472.943 308.375 475.955 305.363 475.955 301.647C475.955 297.931 472.943 294.919 469.227 294.919C465.511 294.919 462.499 297.931 462.499 301.647C462.499 305.363 465.511 308.375 469.227 308.375Z" fill="#CC8802" stroke="black" stroke-width="1.08896" stroke-miterlimit="10" stroke-linecap="round" stroke-linejoin="round"/>
<path d="M625.385 262.503H525.852L570.519 217.097H670.052L625.385 262.503Z" fill="#E9F7F9" stroke="black" stroke-width="1.08896" stroke-miterlimit="10" stroke-linecap="round" stroke-linejoin="round"/>
<path d="M670.052 217.097L625.016 262.133V355.455H707.993V264.91L670.052 217.097Z" fill="#B7EFF9" stroke="black" stroke-width="1.08896" stroke-miterlimit="10" stroke-linecap="round" stroke-linejoin="round"/>
<path d="M525.852 262.503V355.456H625.016V262.133L525.852 262.503Z" fill="#B7EFF9" stroke="black" stroke-width="1.08896" stroke-miterlimit="10" stroke-linecap="round" stroke-linejoin="round"/>
<path d="M552.363 314.176C545.173 314.176 539.344 320.005 539.344 327.195V355.456H565.383V327.195C565.383 320.005 559.554 314.176 552.363 314.176Z" fill="#92BEC6" stroke="black" stroke-width="1.08896" stroke-miterlimit="10" stroke-linecap="round" stroke-linejoin="round"/>
<path d="M547.505 275.772C542.998 275.772 539.344 279.425 539.344 283.933V301.647H555.666V283.933C555.666 279.425 552.012 275.772 547.505 275.772Z" fill="#92BEC6" stroke="black" stroke-width="1.08896" stroke-miterlimit="10" stroke-linecap="round" stroke-linejoin="round"/>
<path d="M597.194 275.772C592.687 275.772 589.033 279.425 589.033 283.933V301.647H605.355V283.933C605.355 279.425 601.701 275.772 597.194 275.772Z" fill="#92BEC6" stroke="black" stroke-width="1.08896" stroke-miterlimit="10" stroke-linecap="round" stroke-linejoin="round"/>
<path d="M653.852 275.896C649.345 275.896 645.691 279.55 645.691 284.057V301.771H662.013V284.057C662.013 279.55 658.36 275.896 653.852 275.896Z" fill="#92BEC6" stroke="black" stroke-width="1.08896" stroke-miterlimit="10" stroke-linecap="round" stroke-linejoin="round"/>
<path d="M683.078 275.896C678.57 275.896 674.917 279.55 674.917 284.057V301.771H691.239V284.057C691.239 279.55 687.585 275.896 683.078 275.896Z" fill="#B7EFF9" stroke="black" stroke-width="1.08896" stroke-miterlimit="10" stroke-linecap="round" stroke-linejoin="round"/>
<path d="M572.349 275.772C567.842 275.772 564.188 279.425 564.188 283.933V301.647H580.511V283.933C580.511 279.425 576.857 275.772 572.349 275.772Z" fill="#92BEC6" stroke="black" stroke-width="1.08896" stroke-miterlimit="10" stroke-linecap="round" stroke-linejoin="round"/>
<path d="M592.336 314.176H592.336C585.145 314.176 579.316 320.005 579.316 327.195V355.456H605.355V327.195C605.355 320.005 599.526 314.176 592.336 314.176Z" fill="#92BEC6" stroke="black" stroke-width="1.08896" stroke-miterlimit="10" stroke-linecap="round" stroke-linejoin="round"/>
<path d="M668.515 314.176H668.515C661.324 314.176 655.495 320.005 655.495 327.195V355.456H681.534V327.195C681.534 320.005 675.705 314.176 668.515 314.176Z" fill="#92BEC6" stroke="black" stroke-width="1.08896" stroke-miterlimit="10" stroke-linecap="round" stroke-linejoin="round"/>
<path d="M736.871 277.135H674.513L712.148 238.877H774.507L736.871 277.135Z" fill="#61D8CB" stroke="#282425" stroke-width="1.08896" stroke-miterlimit="10" stroke-linecap="round" stroke-linejoin="round"/>
<path d="M774.507 238.877L736.56 276.824V355.456H806.475V279.163L774.507 238.877Z" fill="#30BFAE" stroke="#282425" stroke-width="1.08896" stroke-miterlimit="10" stroke-linecap="round" stroke-linejoin="round"/>
<path d="M674.513 277.135V355.456H736.56V276.824L674.513 277.135Z" fill="#30BFAE" stroke="#282425" stroke-width="1.08896" stroke-miterlimit="10" stroke-linecap="round" stroke-linejoin="round"/>
<path d="M705.486 320.827H705.486C695.923 320.827 688.171 328.579 688.171 338.141V355.456H722.8V338.141C722.8 328.579 715.048 320.827 705.486 320.827Z" fill="#238C80" stroke="#282425" stroke-width="1.08896" stroke-miterlimit="10" stroke-linecap="round" stroke-linejoin="round"/>
<path d="M765.832 302.209H750.144V338.141H765.832V302.209Z" fill="#238C80" stroke="#282425" stroke-width="1.08896" stroke-miterlimit="10" stroke-linecap="round" stroke-linejoin="round"/>
<path d="M793.234 302.209H777.546V338.141H793.234V302.209Z" fill="#238C80" stroke="#282425" stroke-width="1.08896" stroke-miterlimit="10" stroke-linecap="round" stroke-linejoin="round"/>
<path d="M705.486 310.283C710.675 310.283 714.881 306.077 714.881 300.888C714.881 295.699 710.675 291.492 705.486 291.492C700.297 291.492 696.09 295.699 696.09 300.888C696.09 306.077 700.297 310.283 705.486 310.283Z" fill="#238C80" stroke="#282425" stroke-width="1.08896" stroke-miterlimit="10" stroke-linecap="round" stroke-linejoin="round"/>
<path d="M782.935 355.455C782.935 347.343 789.511 340.766 797.624 340.766C805.736 340.766 812.313 347.343 812.313 355.455H782.935Z" fill="#8BC161" stroke="black" stroke-width="0.933393" stroke-miterlimit="10"/>
<path d="M803.139 355.455C803.139 344.076 812.364 334.851 823.743 334.851C835.123 334.851 844.348 344.076 844.348 355.455H803.139Z" fill="#8BC161" stroke="black" stroke-width="0.933393" stroke-miterlimit="10"/>
<path d="M453.886 355.45C453.886 349.279 448.884 344.277 442.713 344.277C436.542 344.277 431.54 349.279 431.54 355.45H453.886Z" fill="#8BC161" stroke="black" stroke-width="0.933393" stroke-miterlimit="10"/>
<path d="M438.518 355.45C438.518 346.794 431.501 339.777 422.846 339.777C414.19 339.777 407.174 346.794 407.174 355.45H438.518Z" fill="#8BC161" stroke="black" stroke-width="0.933393" stroke-miterlimit="10"/>
<path d="M631.401 355.455C631.401 344.877 639.977 336.302 650.555 336.302C661.134 336.302 669.709 344.877 669.709 355.455H631.401Z" fill="#8BC161" stroke="black" stroke-width="0.933393" stroke-miterlimit="10"/>
<path d="M963.167 339.115C967.033 339.115 970.167 335.98 970.167 332.114C970.167 328.248 967.033 325.114 963.167 325.114C959.3 325.114 956.166 328.248 956.166 332.114C956.166 335.98 959.3 339.115 963.167 339.115Z" fill="#3D4C65"/>
<path d="M963.167 181.29C979.827 181.29 993.333 167.784 993.333 151.124C993.333 134.463 979.827 120.957 963.167 120.957C946.506 120.957 933 134.463 933 151.124C933 167.784 946.506 181.29 963.167 181.29Z" stroke="#3D4C65" stroke-width="0.933393" stroke-miterlimit="10"/>
<path d="M963.058 320.5C963.058 291.705 963.058 210.522 963.058 187" stroke="#3D4C65" stroke-width="1.16674" stroke-miterlimit="10" stroke-dasharray="4.72 4.72"/>
<path d="M971.931 166.791C970.253 168.366 967.991 169.257 965.147 169.468C964.981 169.525 964.895 169.618 964.888 169.748L964.77 172.966C964.761 173.128 964.697 173.263 964.578 173.372C964.458 173.479 964.317 173.53 964.155 173.521L960.355 173.324C960.191 173.316 960.056 173.25 959.948 173.132C959.841 173.011 959.791 172.87 959.799 172.708L960.017 169.446C960.024 169.316 959.948 169.215 959.789 169.141C956.987 168.54 954.824 167.362 953.304 165.605C951.782 163.848 951.089 161.688 951.222 159.12L951.285 157.903C951.293 157.74 951.356 157.605 951.477 157.498C951.596 157.39 951.737 157.34 951.9 157.349L955.993 157.561C956.154 157.569 956.289 157.633 956.399 157.753C956.506 157.872 956.556 158.013 956.547 158.176L956.5 159.101C956.422 160.596 956.991 161.872 958.205 162.928C959.422 163.984 961.117 164.568 963.294 164.681C965.211 164.781 966.671 164.433 967.672 163.639C968.674 162.844 969.211 161.78 969.28 160.449C969.327 159.54 969.105 158.754 968.619 158.094C968.132 157.432 967.407 156.826 966.441 156.27C965.477 155.716 964.042 154.982 962.135 154.068C960.002 153.111 958.272 152.223 956.947 151.404C955.621 150.587 954.537 149.513 953.693 148.182C952.851 146.853 952.479 145.229 952.579 143.312C952.707 140.844 953.567 138.853 955.161 137.339C956.753 135.826 958.859 134.941 961.478 134.686C961.644 134.63 961.73 134.536 961.737 134.407L961.826 130.796C961.835 130.634 961.899 130.499 962.018 130.39C962.138 130.282 962.279 130.232 962.441 130.241L966.243 130.438C966.405 130.446 966.54 130.51 966.648 130.63C966.755 130.751 966.805 130.892 966.797 131.054L966.51 134.703C966.503 134.833 966.579 134.934 966.738 135.008C969.476 135.607 971.603 136.824 973.121 138.661C974.637 140.499 975.33 142.701 975.197 145.267L975.154 146.095C975.146 146.258 975.08 146.392 974.961 146.5C974.841 146.61 974.7 146.658 974.538 146.649L970.397 146.434C970.233 146.426 970.098 146.364 969.992 146.243C969.883 146.123 969.835 145.982 969.843 145.82L969.871 145.284C969.95 143.757 969.423 142.435 968.293 141.317C967.161 140.201 965.555 139.588 963.477 139.481C961.755 139.391 960.405 139.696 959.424 140.393C958.442 141.093 957.917 142.124 957.846 143.487C957.796 144.463 958.006 145.271 958.477 145.914C958.948 146.559 959.666 147.157 960.632 147.712C961.596 148.266 963.082 148.986 965.088 149.873C967.252 150.864 968.972 151.753 970.252 152.535C971.529 153.318 972.606 154.375 973.482 155.707C974.357 157.04 974.747 158.664 974.647 160.581C974.514 163.147 973.608 165.216 971.931 166.791Z" fill="#238C80"/>
<path d="M375.251 169.21C365.398 167.298 355.866 173.698 353.962 183.506C352.058 193.315 358.504 202.816 368.358 204.729C378.214 206.642 387.746 200.241 389.649 190.433C391.553 180.625 385.108 171.123 375.251 169.21ZM369.328 196.49C364.423 195.538 361.231 190.725 362.198 185.74C363.166 180.754 367.927 177.485 372.832 178.437C377.74 179.389 380.932 184.202 379.965 189.188C378.997 194.173 374.236 197.443 369.328 196.49Z" fill="#3D4C65"/>
<path d="M369.971 176.989C369.971 176.989 370.994 164.505 373.742 160.44C374.472 159.365 380.776 160.272 380.636 163.026C380.6 163.763 378.036 177.997 377.579 178.187C377.124 178.377 369.971 176.989 369.971 176.989Z" fill="#3D4C65"/>
<path d="M373.66 197.207C373.66 197.207 372.638 209.691 369.887 213.755C369.16 214.83 362.855 213.924 362.993 211.17C363.03 210.434 365.595 196.199 366.05 196.009C366.507 195.819 373.66 197.207 373.66 197.207Z" fill="#3D4C65"/>
<path d="M376.885 178.509C376.885 178.509 386.475 170.417 391.309 169.483C392.588 169.236 396.41 174.316 394.355 176.162C393.807 176.655 381.882 184.898 381.424 184.711C380.963 184.523 376.885 178.509 376.885 178.509Z" fill="#3D4C65"/>
<path d="M365.138 195.376C365.138 195.376 355.548 203.467 350.714 204.401C349.433 204.648 345.612 199.568 347.667 197.722C348.216 197.229 360.141 188.986 360.6 189.174C361.058 189.361 365.138 195.376 365.138 195.376Z" fill="#3D4C65"/>
<path d="M380.264 192.953C380.264 192.953 388.406 202.516 389.354 207.331C389.604 208.605 384.509 212.402 382.65 210.353C382.155 209.805 373.854 197.918 374.041 197.461C374.23 197.005 380.264 192.953 380.264 192.953Z" fill="#3D4C65"/>
<path d="M363.301 181.229C363.301 181.229 355.156 171.666 354.21 166.851C353.96 165.577 359.056 161.781 360.914 163.83C361.41 164.377 369.71 176.265 369.521 176.721C369.335 177.177 363.301 181.229 363.301 181.229Z" fill="#3D4C65"/>
<path d="M361.074 189.402C361.074 189.402 348.532 188.362 344.446 185.617C343.363 184.891 344.264 178.614 347.029 178.758C347.77 178.796 362.071 181.373 362.262 181.829C362.455 182.284 361.074 189.402 361.074 189.402Z" fill="#3D4C65"/>
<path d="M380.649 185.625C380.649 185.625 393.188 186.665 397.277 189.41C398.357 190.136 397.457 196.412 394.691 196.269C393.951 196.23 379.65 193.653 379.459 193.198C379.267 192.743 380.649 185.625 380.649 185.625Z" fill="#3D4C65"/>
<path d="M1038.03 261.608C1032.03 260.444 1026.23 264.341 1025.07 270.313C1023.91 276.286 1027.83 282.071 1033.83 283.236C1039.83 284.4 1045.64 280.503 1046.8 274.531C1047.96 268.559 1044.03 262.773 1038.03 261.608ZM1034.42 278.219C1031.44 277.639 1029.49 274.709 1030.08 271.673C1030.67 268.637 1033.57 266.647 1036.56 267.226C1039.54 267.806 1041.49 270.737 1040.9 273.773C1040.31 276.808 1037.41 278.799 1034.42 278.219Z" fill="#3D4C65"/>
<path d="M1034.81 266.345C1034.81 266.345 1035.44 258.743 1037.11 256.268C1037.55 255.613 1041.39 256.166 1041.31 257.843C1041.29 258.291 1039.72 266.958 1039.45 267.074C1039.17 267.19 1034.81 266.345 1034.81 266.345Z" fill="#3D4C65"/>
<path d="M1037.06 278.656C1037.06 278.656 1036.44 286.257 1034.76 288.732C1034.32 289.387 1030.48 288.835 1030.56 287.158C1030.59 286.71 1032.15 278.042 1032.43 277.926C1032.7 277.811 1037.06 278.656 1037.06 278.656Z" fill="#3D4C65"/>
<path d="M1039.02 267.27C1039.02 267.27 1044.86 262.343 1047.81 261.774C1048.59 261.624 1050.91 264.717 1049.66 265.841C1049.33 266.142 1042.07 271.161 1041.79 271.047C1041.51 270.932 1039.02 267.27 1039.02 267.27Z" fill="#3D4C65"/>
<path d="M1031.87 277.541C1031.87 277.541 1026.03 282.467 1023.09 283.036C1022.31 283.187 1019.98 280.093 1021.23 278.969C1021.57 278.669 1028.83 273.65 1029.11 273.764C1029.39 273.878 1031.87 277.541 1031.87 277.541Z" fill="#3D4C65"/>
<path d="M1041.08 276.066C1041.08 276.066 1046.04 281.888 1046.62 284.82C1046.77 285.596 1043.67 287.908 1042.53 286.66C1042.23 286.327 1037.18 279.088 1037.29 278.81C1037.41 278.533 1041.08 276.066 1041.08 276.066Z" fill="#3D4C65"/>
<path d="M1030.75 268.926C1030.75 268.926 1025.79 263.104 1025.22 260.172C1025.06 259.396 1028.17 257.084 1029.3 258.332C1029.6 258.665 1034.65 265.904 1034.54 266.181C1034.43 266.459 1030.75 268.926 1030.75 268.926Z" fill="#3D4C65"/>
<path d="M1029.4 273.903C1029.4 273.903 1021.76 273.27 1019.27 271.599C1018.61 271.156 1019.16 267.334 1020.84 267.422C1021.3 267.445 1030 269.014 1030.12 269.292C1030.24 269.569 1029.4 273.903 1029.4 273.903Z" fill="#3D4C65"/>
<path d="M1041.32 271.603C1041.32 271.603 1048.95 272.237 1051.44 273.908C1052.1 274.35 1051.55 278.172 1049.87 278.084C1049.42 278.061 1040.71 276.492 1040.59 276.214C1040.47 275.937 1041.32 271.603 1041.32 271.603Z" fill="#3D4C65"/>
<path d="M458.956 117.36L458.322 113L461.847 115.401L465.079 113L464.023 117.185L467.19 119.35L463.325 120.044L461.444 124.16L460.011 120.044H456L458.956 117.36Z" fill="#D53D3D"/>
<path d="M697.98 201.538L702.955 196.773L703.1 203.44L709.09 205.374L702.803 207.83L702.923 213.827L698.531 209.537L691.583 210.879L695.522 205.318L691.88 200.212L697.98 201.538Z" fill="white"/>
<path d="M763.397 51.7653L768.372 47L768.517 53.6669L774.507 55.6006L768.221 58.0569L768.34 64.0539L763.948 59.7641L757 61.1057L760.939 55.5451L757.297 50.4391L763.397 51.7653Z" fill="#8BC161"/>
<path d="M850 232.392C850 232.392 884.836 216.942 886.975 219.12C889.114 221.298 901.993 261.111 901.993 261.111L864.886 274.877L850 232.392Z" fill="#FFAA02"/>
<path d="M885.882 229.407C882.789 229.364 882.764 229.41 881.501 231.766C880.705 233.252 880.181 233.849 879.596 233.979C879.033 234.102 878.602 233.773 878.146 233.424C877.64 233.038 877.064 232.598 876.095 232.494C873.33 232.193 872.063 233.413 870.073 235.603C868.499 237.301 867.565 237.086 865.999 236.706C865.216 236.515 864.24 236.277 862.849 236.195C859.106 235.97 857.737 239.742 857.68 239.903L856.755 239.585C856.77 239.537 858.42 234.948 862.911 235.215C864.391 235.305 865.413 235.553 866.235 235.754C867.69 236.107 868.198 236.229 869.351 234.945C871.498 232.585 873.04 231.175 876.205 231.519C877.446 231.653 878.195 232.226 878.743 232.644C879.002 232.842 879.271 233.047 879.39 233.02C879.529 232.989 879.872 232.739 880.594 231.389C882.033 228.708 882.346 228.378 885.899 228.427L885.882 229.407Z" fill="#3D4C65"/>
<path d="M896.857 254.962C893.764 254.919 893.741 254.964 892.477 257.323C891.681 258.809 891.158 259.405 890.571 259.534C890.008 259.657 889.578 259.328 889.121 258.979C888.615 258.593 888.041 258.155 887.07 258.049C884.307 257.75 883.04 258.971 881.048 261.158C879.475 262.866 878.54 262.641 876.975 262.261C876.191 262.07 875.215 261.833 873.824 261.75C870.061 261.524 868.67 265.418 868.656 265.457L867.731 265.141C867.747 265.093 869.394 260.503 873.887 260.77C875.367 260.86 876.388 261.108 877.209 261.307C878.665 261.663 879.157 261.788 880.325 260.499C882.478 258.138 884.015 256.733 887.179 257.073C888.421 257.208 889.172 257.782 889.718 258.199C889.978 258.397 890.246 258.603 890.367 258.577C890.505 258.547 890.848 258.293 891.569 256.944C893.008 254.264 893.319 253.932 896.874 253.982L896.857 254.962Z" fill="#3D4C65"/>
<path d="M888.586 238.338C886.158 238.303 886.158 238.303 885.857 239.418C885.773 239.727 885.674 240.099 885.522 240.546C885.026 242.017 884.569 242.715 883.946 242.962C883.291 243.221 882.665 242.882 882 242.522C881.393 242.194 880.703 241.821 879.797 241.722C877.064 241.426 876.121 242.174 874.107 244.375C872.516 246.085 871.598 245.859 870.031 245.478C869.249 245.288 868.273 245.05 866.883 244.968C863.122 244.741 861.727 248.634 861.713 248.674L860.787 248.356C860.802 248.309 862.45 243.718 866.945 243.988C868.424 244.076 869.447 244.326 870.268 244.525C871.724 244.88 872.211 245.013 873.383 243.716C875.554 241.337 876.749 240.406 879.908 240.748C881.003 240.866 881.816 241.306 882.469 241.659C882.947 241.918 883.36 242.142 883.589 242.051C883.798 241.971 884.137 241.588 884.594 240.236C884.736 239.813 884.831 239.459 884.91 239.166C885.385 237.416 885.771 237.319 888.606 237.358L888.586 238.338Z" fill="#3D4C65"/>
<path d="M890.371 248.185C889.457 249.143 888.124 249.967 886.241 249.973C884.758 249.976 883.722 249.793 882.889 249.645C881.414 249.383 880.919 249.298 879.829 250.647C877.828 253.139 876.383 254.638 873.202 254.495C872.176 254.449 871.548 254.292 871.089 254.177C870.298 253.978 870.133 253.935 868.687 255.082C866.859 256.529 866.358 257.037 866.118 257.281C865.857 257.544 865.775 257.607 865.238 257.89L864.783 257.025C865.226 256.79 865.233 256.783 865.422 256.593C865.676 256.335 866.206 255.799 868.081 254.314C869.825 252.933 870.25 252.954 871.331 253.224C871.774 253.336 872.322 253.474 873.251 253.516C876.029 253.642 877.211 252.341 879.067 250.035C880.514 248.226 881.477 248.397 883.064 248.679C883.859 248.821 884.847 248.996 886.241 248.991C889.992 248.981 891.123 245.131 891.17 244.968L892.112 245.226C892.105 245.254 891.643 246.851 890.371 248.185Z" fill="#3D4C65"/>
<path d="M886.666 225.401C891.596 224.928 895.21 220.567 894.739 215.659C894.268 210.753 889.889 207.159 884.959 207.632C880.029 208.106 876.414 212.468 876.886 217.374C877.357 222.282 881.736 225.875 886.666 225.401Z" fill="white"/>
<path d="M886.467 221.343L879.934 216.207L881.763 213.905L885.665 216.973L893.486 204L896.013 205.508L886.467 221.343Z" fill="#D53D3D"/>
<path d="M306.105 244.905C306.105 244.905 343.338 253.026 343.776 256.047C344.215 259.068 331.079 298.797 331.079 298.797L293.009 287.975L306.105 244.905Z" fill="#FFAA02"/>
<path d="M336.816 263.7C334.346 261.838 334.298 261.86 331.887 263.014C330.367 263.743 329.592 263.914 329.043 263.673C328.516 263.44 328.363 262.921 328.201 262.369C328.021 261.759 327.817 261.064 327.096 260.406C325.044 258.531 323.3 258.766 320.401 259.356C318.128 259.796 317.501 259.071 316.463 257.839C315.943 257.222 315.297 256.454 314.223 255.565C311.336 253.172 308.004 255.407 307.863 255.503L307.304 254.699C307.344 254.67 311.387 251.942 314.853 254.812C315.994 255.759 316.671 256.563 317.216 257.211C318.181 258.355 318.518 258.754 320.208 258.399C323.334 257.764 325.411 257.538 327.761 259.686C328.683 260.527 328.949 261.432 329.144 262.093C329.236 262.406 329.331 262.73 329.443 262.779C329.574 262.836 329.998 262.836 331.379 262.174C334.124 260.862 334.572 260.78 337.409 262.919L336.816 263.7Z" fill="#3D4C65"/>
<path d="M330.569 290.801C328.099 288.939 328.054 288.961 325.641 290.118C324.12 290.846 323.346 291.018 322.797 290.775C322.27 290.542 322.116 290.022 321.954 289.471C321.775 288.86 321.57 288.167 320.85 287.508C318.797 285.634 317.053 285.871 314.155 286.458C311.876 286.907 311.254 286.173 310.216 284.941C309.697 284.324 309.05 283.556 307.977 282.667C305.075 280.261 301.651 282.58 301.617 282.604L301.058 281.802C301.099 281.773 305.14 279.044 308.606 281.914C309.747 282.86 310.424 283.665 310.969 284.31C311.934 285.457 312.256 285.849 313.961 285.499C317.093 284.867 319.163 284.642 321.514 286.786C322.436 287.628 322.703 288.535 322.897 289.195C322.989 289.508 323.084 289.832 323.197 289.882C323.326 289.939 323.753 289.938 325.131 289.276C327.876 287.964 328.324 287.88 331.163 290.021L330.569 290.801Z" fill="#3D4C65"/>
<path d="M333.72 272.502C331.782 271.039 331.782 271.039 330.88 271.761C330.63 271.961 330.33 272.203 329.943 272.474C328.674 273.367 327.893 273.659 327.244 273.491C326.563 273.313 326.258 272.67 325.934 271.986C325.638 271.363 325.302 270.654 324.63 270.04C322.6 268.185 321.397 268.232 318.471 268.817C316.178 269.257 315.571 268.532 314.532 267.298C314.014 266.683 313.367 265.915 312.294 265.026C309.394 262.622 305.967 264.938 305.933 264.961L305.374 264.157C305.413 264.129 309.456 261.399 312.922 264.273C314.063 265.218 314.741 266.024 315.286 266.669C316.251 267.816 316.566 268.211 318.277 267.858C321.435 267.221 322.949 267.176 325.295 269.319C326.109 270.061 326.505 270.896 326.822 271.567C327.055 272.059 327.257 272.483 327.495 272.545C327.71 272.604 328.211 272.495 329.377 271.675C329.743 271.417 330.028 271.188 330.265 270.999C331.682 269.867 332.051 270.017 334.315 271.724L333.72 272.502Z" fill="#3D4C65"/>
<path d="M329.341 281.501C328.037 281.734 326.476 281.611 324.953 280.503C323.754 279.63 323.027 278.87 322.442 278.258C321.408 277.175 321.058 276.814 319.382 277.259C316.295 278.087 314.243 278.442 311.761 276.447C310.961 275.804 310.547 275.305 310.246 274.941C309.725 274.313 309.616 274.182 307.772 274.252C305.443 274.339 304.739 274.453 304.4 274.508C304.034 274.566 303.932 274.568 303.33 274.48L303.475 273.513C303.971 273.585 303.981 273.583 304.245 273.542C304.603 273.484 305.348 273.364 307.737 273.275C309.96 273.191 310.291 273.459 311.003 274.316C311.294 274.668 311.656 275.103 312.38 275.685C314.546 277.429 316.269 277.078 319.128 276.314C321.365 275.71 322.041 276.417 323.155 277.582C323.712 278.167 324.406 278.892 325.533 279.712C328.565 281.92 331.752 279.482 331.887 279.378L332.494 280.144C332.472 280.161 331.155 281.177 329.341 281.501Z" fill="#3D4C65"/>
<path d="M339.815 260.931C344.072 263.462 349.565 262.081 352.085 257.843C354.604 253.606 353.195 248.119 348.938 245.588C344.681 243.057 339.187 244.44 336.669 248.676C334.149 252.914 335.558 258.4 339.815 260.931Z" fill="white"/>
<path d="M342.053 257.54L339.818 249.536L342.653 248.759L343.989 253.541L357.964 247.697L359.111 250.406L342.053 257.54Z" fill="#D53D3D"/>
<path d="M649.296 112.653L648.663 108.292L652.188 110.693L655.419 108.292L654.364 112.478L657.531 114.643L653.666 115.336L651.784 119.452L650.352 115.336H646.341L649.296 112.653Z" fill="#30BFAE"/>
<path d="M158.442 255.96C158.442 255.96 142.566 250.491 136.484 264.526C131.601 275.794 139.361 284.91 150.637 287.737C149.352 289.414 147.721 291.623 147.639 292.138C147.502 292.995 162.399 291.513 166.978 285.275C166.979 285.274 166.979 285.273 166.98 285.272C174.378 278.056 174.384 261.306 158.442 255.96Z" fill="#30BFAE"/>
<path d="M155.293 278.76C154.344 279.229 153.233 279.319 151.958 279.028C151.878 279.031 151.828 279.06 151.807 279.117L151.318 280.522C151.292 280.593 151.246 280.644 151.179 280.676C151.112 280.707 151.043 280.711 150.973 280.685L149.336 280.086C149.265 280.06 149.215 280.013 149.184 279.946C149.153 279.878 149.151 279.809 149.176 279.739L149.715 278.328C149.736 278.271 149.716 278.216 149.657 278.162C148.511 277.519 147.724 276.707 147.297 275.727C146.869 274.746 146.859 273.698 147.266 272.582L147.459 272.053C147.485 271.982 147.531 271.931 147.599 271.9C147.666 271.868 147.734 271.865 147.804 271.891L149.568 272.536C149.637 272.562 149.688 272.608 149.719 272.676C149.75 272.743 149.753 272.812 149.727 272.882L149.58 273.285C149.343 273.934 149.419 274.575 149.807 275.205C150.197 275.835 150.859 276.321 151.797 276.665C152.623 276.967 153.31 277.01 153.857 276.794C154.403 276.578 154.783 276.181 154.994 275.602C155.138 275.207 155.148 274.83 155.025 274.473C154.901 274.115 154.666 273.75 154.319 273.374C153.972 272.999 153.443 272.482 152.732 271.821C151.928 271.111 151.291 270.486 150.822 269.946C150.353 269.406 150.024 268.786 149.835 268.084C149.647 267.384 149.705 266.616 150.009 265.783C150.4 264.711 151.047 263.947 151.951 263.493C152.854 263.039 153.897 262.932 155.078 263.173C155.158 263.17 155.209 263.141 155.229 263.084L155.759 261.502C155.785 261.431 155.831 261.38 155.899 261.348C155.966 261.316 156.034 261.314 156.104 261.339L157.742 261.938C157.812 261.964 157.862 262.01 157.893 262.078C157.924 262.146 157.927 262.215 157.901 262.285L157.279 263.858C157.259 263.915 157.278 263.97 157.338 264.024C158.455 264.657 159.222 265.481 159.637 266.497C160.051 267.513 160.055 268.579 159.648 269.694L159.517 270.054C159.491 270.125 159.444 270.176 159.377 270.207C159.31 270.239 159.242 270.241 159.172 270.216L157.388 269.563C157.317 269.537 157.266 269.492 157.236 269.424C157.205 269.356 157.203 269.288 157.229 269.217L157.313 268.984C157.556 268.32 157.504 267.666 157.161 267.02C156.817 266.374 156.197 265.887 155.302 265.56C154.56 265.288 153.927 265.24 153.403 265.417C152.878 265.593 152.508 265.978 152.292 266.57C152.137 266.994 152.119 267.38 152.238 267.727C152.357 268.075 152.59 268.436 152.938 268.812C153.284 269.186 153.837 269.705 154.596 270.367C155.408 271.096 156.041 271.72 156.495 272.238C156.948 272.756 157.276 273.367 157.479 274.074C157.681 274.781 157.631 275.55 157.327 276.383C156.92 277.499 156.242 278.29 155.293 278.76Z" fill="white"/>
<path d="M444.229 51.4686C444.229 51.4686 423.403 54.9448 425.098 74.103C426.459 89.485 440.502 94.906 454.66 91.2677C454.245 93.8926 453.767 97.3114 453.985 97.9305C454.347 98.9591 469.923 88.3878 471.242 78.7475C471.243 78.7458 471.243 78.7446 471.243 78.7429C475.092 66.3314 465.053 47.8159 444.229 51.4686Z" fill="#8BC161"/>
<path d="M435.072 73.1281C434.705 73.1281 434.352 72.9199 434.185 72.5646C433.956 72.0755 434.168 71.4929 434.657 71.2637C438.871 69.2942 443.326 67.7584 447.897 66.7001L448.102 66.6524C449.169 66.4078 450.178 66.1748 450.98 65.6743C451.857 65.1261 452.478 64.2512 453.135 63.3247C453.743 62.467 454.371 61.5787 455.261 60.8567C455.678 60.5167 456.295 60.5778 456.637 60.998C456.978 61.4183 456.914 62.0334 456.495 62.3734C455.813 62.9293 455.286 63.6705 454.73 64.4556C453.991 65.4986 453.227 66.5779 452.016 67.3343C450.934 68.0086 449.718 68.2894 448.539 68.5588L448.337 68.6065C443.899 69.6342 439.576 71.1242 435.486 73.0364C435.353 73.0994 435.211 73.1281 435.072 73.1281Z" fill="#434784"/>
<path d="M441.219 80.6009C440.944 80.6009 440.669 80.4844 440.476 80.259C440.124 79.8483 440.172 79.2313 440.583 78.8798C442.682 77.0803 445.532 75.9858 448.4 75.8731C448.692 75.8616 448.986 75.8597 449.278 75.8597C449.89 75.8559 450.466 75.854 451.005 75.7546C451.718 75.6209 452.277 75.2943 452.463 74.9027C452.539 74.7441 452.593 74.5225 452.648 74.2876C452.803 73.6419 453.015 72.7574 453.937 72.3009C454.489 72.0258 455.057 72.0526 455.508 72.0717C458.285 72.1958 461.045 71.5081 463.32 70.1328C463.783 69.8577 464.384 69.9991 464.663 70.4632C464.942 70.9255 464.795 71.5272 464.333 71.8061C461.733 73.3783 458.608 74.1787 455.479 74.0278C455.204 74.0201 454.908 74.0029 454.807 74.0526C454.703 74.1042 454.619 74.4595 454.551 74.7422C454.476 75.0516 454.392 75.4012 454.23 75.7432C453.769 76.7155 452.724 77.4223 451.362 77.6763C450.652 77.8081 449.958 77.812 449.288 77.8158C449.018 77.8158 448.747 77.8177 448.476 77.8291C446.04 77.9228 443.628 78.8473 441.855 80.366C441.672 80.5245 441.444 80.6009 441.219 80.6009Z" fill="#434784"/>
<path d="M1159.15 341.558C1162.59 341.558 1165.38 338.772 1165.38 335.335C1165.38 331.898 1162.59 329.112 1159.15 329.112C1155.72 329.112 1152.93 331.898 1152.93 335.335C1152.93 338.772 1155.72 341.558 1159.15 341.558Z" fill="#3D4C65"/>
<path d="M1160.71 256.412C1175.46 256.412 1187.42 244.454 1187.42 229.703C1187.42 214.951 1175.46 202.993 1160.71 202.993C1145.96 202.993 1134 214.951 1134 229.703C1134 244.454 1145.96 256.412 1160.71 256.412Z" stroke="#3D4C65" stroke-width="0.933393" stroke-miterlimit="10"/>
<path d="M1159 325C1159 307.735 1159 276.911 1159 261" stroke="#3D4C65" stroke-width="1.16674" stroke-miterlimit="10" stroke-dasharray="4.43 4.43"/>
<path d="M1146.63 216.251L1143.56 237.858C1143.56 237.858 1172.07 242.707 1173.51 243.069C1174.94 243.431 1178.48 222.512 1177.78 221.647C1177.09 220.783 1146.63 216.251 1146.63 216.251Z" fill="#B7EFF9"/>
<path d="M1161.23 234.009C1161.12 234.052 1161.04 234.074 1160.99 234.074C1159.83 234.069 1150.4 221.729 1146.4 216.423L1146.86 216.08C1151.81 222.645 1160.03 233.181 1161.02 233.508C1161.91 233.369 1171.67 226.026 1177.61 221.424L1177.96 221.873C1175.45 223.815 1163.38 233.14 1161.23 234.009Z" fill="#3D4C65"/>
<path d="M1143.72 238.092L1143.39 237.625C1145.24 236.33 1155.95 228.436 1156.06 228.356L1156.4 228.815C1156.29 228.895 1145.58 236.793 1143.72 238.092Z" fill="#3D4C65"/>
<path d="M1173.26 243.213C1170.45 238.385 1166.16 231.07 1165.85 230.704L1166.06 230.524L1165.88 230.272L1166.1 230.223C1166.27 230.257 1166.4 230.284 1173.76 242.926L1173.26 243.213Z" fill="#3D4C65"/>
<path d="M235.618 329.338C239.67 329.338 242.955 326.053 242.955 322.001C242.955 317.949 239.67 314.664 235.618 314.664C231.565 314.664 228.28 317.949 228.28 322.001C228.28 326.053 231.565 329.338 235.618 329.338Z" fill="#3D4C65"/>
<path d="M235.617 229.143C253.079 229.143 267.235 214.987 267.235 197.525C267.235 180.063 253.079 165.908 235.617 165.908C218.156 165.908 204 180.063 204 197.525C204 214.987 218.156 229.143 235.617 229.143Z" stroke="#3D4C65" stroke-width="0.933393" stroke-miterlimit="10"/>
<path d="M236.107 311C236.107 291.355 236.107 257.43 236.107 234" stroke="#3D4C65" stroke-width="1.16674" stroke-miterlimit="10" stroke-dasharray="4.58 4.58"/>
<path d="M221.94 215.837C232.101 223.296 246.357 221.144 253.781 211.031C261.204 200.917 258.985 186.672 248.823 179.213C238.661 171.754 224.407 173.906 216.983 184.02C209.559 194.133 211.778 208.378 221.94 215.837Z" fill="#EBBE00"/>
<path d="M234.509 198.722L232.865 183.329L230.126 183.606L232.139 202.45L250.968 195.955L250.059 193.355L234.509 198.722Z" fill="#3D4C65"/>
<path d="M64.7094 332.416C68.1461 332.416 70.9321 329.63 70.9321 326.194C70.9321 322.757 68.1461 319.971 64.7094 319.971C61.2728 319.971 58.4868 322.757 58.4868 326.194C58.4868 329.63 61.2728 332.416 64.7094 332.416Z" fill="#3D4C65"/>
<path d="M64.7095 275.273C79.4607 275.273 91.419 263.314 91.419 248.563C91.419 233.812 79.4607 221.854 64.7095 221.854C49.9582 221.854 38 233.812 38 248.563C38 263.314 49.9582 275.273 64.7095 275.273Z" stroke="#3D4C65" stroke-width="0.933393" stroke-miterlimit="10"/>
<path d="M61.9543 263.583C61.9543 263.583 51.005 239.983 56.5232 236.594C62.0414 233.205 65.2122 248.597 65.2122 248.597C65.2122 248.597 71.2113 234.184 76.5019 241.307C80.0923 246.139 61.9543 263.583 61.9543 263.583Z" fill="#D53D3D"/>
<path d="M65 316.5C65 308.278 65 287.627 65 279" stroke="#3D4C65" stroke-width="1.16674" stroke-miterlimit="10" stroke-dasharray="4.3 4.3"/>
</svg>
