<svg width="1386" height="575" viewBox="0 0 1386 575" fill="none" xmlns="http://www.w3.org/2000/svg">
<rect x="120" y="43" width="1144" height="4" fill="white"/>
<rect x="82" width="90" height="90" rx="45" fill="white"/>
<path d="M117.89 56.074L106.036 44.221L102 48.229L117.89 64.118L152 30.01L147.99 26L117.89 56.074Z" fill="#3CBFAE"/>
<rect x="425" width="90" height="90" rx="45" fill="white"/>
<path d="M455 40C452.239 40 450 42.2386 450 45C450 47.7614 452.239 50 455 50C457.761 50 460 47.7614 460 45C459.992 42.242 457.758 40.0082 455 40ZM485 40C482.239 40 480 42.2386 480 45C480 47.7614 482.239 50 485 50C487.761 50 490 47.7614 490 45C489.992 42.242 487.758 40.0082 485 40ZM470 40C467.239 40 465 42.2386 465 45C465 47.7614 467.239 50 470 50C472.761 50 475 47.7614 475 45C474.992 42.242 472.758 40.0082 470 40Z" fill="#434784"/>
<rect x="688" width="90" height="90" rx="45" fill="white"/>
<rect x="951" width="90" height="90" rx="45" fill="white"/>
<rect x="1214" width="90" height="90" rx="45" fill="white"/>
<g filter="url(#filter0_d)">
<rect x="3" y="102" width="248" height="226" rx="12" fill="white"/>
</g>
<path opacity="0.8" d="M52.1671 284.78H56.1621C57.4541 284.78 58.4117 285.052 59.0351 285.596C59.6697 286.129 59.9871 286.888 59.9871 287.874C59.9871 288.463 59.8171 288.985 59.4771 289.438C59.1484 289.891 58.6894 290.175 58.1001 290.288V290.305C58.7574 290.43 59.2844 290.73 59.6811 291.206C60.0777 291.682 60.2761 292.232 60.2761 292.855C60.2761 293.818 59.9134 294.583 59.1881 295.15C58.4627 295.717 57.4484 296 56.1451 296H52.1671V284.78ZM56.1791 289.71C56.9837 289.71 57.5787 289.563 57.9641 289.268C58.3607 288.962 58.5591 288.497 58.5591 287.874C58.5591 286.661 57.7657 286.055 56.1791 286.055H53.5271V289.71H56.1791ZM56.4681 294.725C57.2614 294.725 57.8564 294.566 58.2531 294.249C58.6497 293.92 58.8481 293.456 58.8481 292.855C58.8481 292.254 58.6497 291.795 58.2531 291.478C57.8564 291.149 57.2614 290.985 56.4681 290.985H53.5271V294.725H56.4681ZM71.2295 294.725V296H63.1035V284.78H70.9745V286.055H64.4635V289.676H69.5295V290.951H64.4635V294.725H71.2295ZM77.5483 296H75.8653L72.5503 284.78H74.0123L76.7153 294.929L79.3673 284.78H80.9143L83.5663 294.963L86.2863 284.78H87.6633L84.3653 296H82.6823L80.6933 288.724L80.1153 286.191H80.0983L79.5203 288.724L77.5483 296ZM98.0663 294.725V296H89.9403V284.78H97.8113V286.055H91.3003V289.676H96.3663V290.951H91.3003V294.725H98.0663ZM104.657 291.342H101.971V296H100.611V284.78H104.861C106.006 284.78 106.924 285.075 107.615 285.664C108.306 286.253 108.652 287.052 108.652 288.061C108.652 288.854 108.431 289.523 107.989 290.067C107.547 290.611 106.941 290.985 106.17 291.189L109.332 296H107.717L104.657 291.342ZM101.971 290.067H104.844C106.431 290.067 107.224 289.398 107.224 288.061C107.224 286.724 106.431 286.055 104.844 286.055H101.971V290.067ZM111.747 284.78H115.742C117.034 284.78 117.991 285.052 118.615 285.596C119.249 286.129 119.567 286.888 119.567 287.874C119.567 288.463 119.397 288.985 119.057 289.438C118.728 289.891 118.269 290.175 117.68 290.288V290.305C118.337 290.43 118.864 290.73 119.261 291.206C119.657 291.682 119.856 292.232 119.856 292.855C119.856 293.818 119.493 294.583 118.768 295.15C118.042 295.717 117.028 296 115.725 296H111.747V284.78ZM115.759 289.71C116.563 289.71 117.158 289.563 117.544 289.268C117.94 288.962 118.139 288.497 118.139 287.874C118.139 286.661 117.345 286.055 115.759 286.055H113.107V289.71H115.759ZM116.048 294.725C116.841 294.725 117.436 294.566 117.833 294.249C118.229 293.92 118.428 293.456 118.428 292.855C118.428 292.254 118.229 291.795 117.833 291.478C117.436 291.149 116.841 290.985 116.048 290.985H113.107V294.725H116.048ZM130.809 294.725V296H122.683V284.78H130.554V286.055H124.043V289.676H129.109V290.951H124.043V294.725H130.809ZM137.4 291.342H134.714V296H133.354V284.78H137.604C138.749 284.78 139.667 285.075 140.358 285.664C141.049 286.253 141.395 287.052 141.395 288.061C141.395 288.854 141.174 289.523 140.732 290.067C140.29 290.611 139.684 290.985 138.913 291.189L142.075 296H140.46L137.4 291.342ZM134.714 290.067H137.587C139.174 290.067 139.967 289.398 139.967 288.061C139.967 286.724 139.174 286.055 137.587 286.055H134.714V290.067ZM148.451 284.78C149.584 284.78 150.496 285.092 151.188 285.715C151.879 286.327 152.225 287.154 152.225 288.197C152.225 289.24 151.879 290.073 151.188 290.696C150.496 291.308 149.584 291.614 148.451 291.614H145.85V296H144.49V284.78H148.451ZM148.247 290.339C149.119 290.339 149.76 290.163 150.168 289.812C150.587 289.449 150.797 288.911 150.797 288.197C150.797 287.483 150.587 286.95 150.168 286.599C149.76 286.236 149.119 286.055 148.247 286.055H145.85V290.339H148.247ZM158.742 291.342H156.056V296H154.696V284.78H158.946C160.09 284.78 161.008 285.075 161.7 285.664C162.391 286.253 162.737 287.052 162.737 288.061C162.737 288.854 162.516 289.523 162.074 290.067C161.632 290.611 161.025 290.985 160.255 291.189L163.417 296H161.802L158.742 291.342ZM156.056 290.067H158.929C160.515 290.067 161.309 289.398 161.309 288.061C161.309 286.724 160.515 286.055 158.929 286.055H156.056V290.067ZM170.254 284.61C171.308 284.61 172.226 284.848 173.008 285.324C173.79 285.789 174.39 286.457 174.81 287.33C175.24 288.191 175.456 289.211 175.456 290.39C175.456 291.569 175.24 292.594 174.81 293.467C174.39 294.328 173.79 294.997 173.008 295.473C172.226 295.938 171.308 296.17 170.254 296.17C169.2 296.17 168.282 295.938 167.5 295.473C166.718 294.997 166.111 294.328 165.681 293.467C165.261 292.594 165.052 291.569 165.052 290.39C165.052 289.211 165.261 288.191 165.681 287.33C166.111 286.457 166.718 285.789 167.5 285.324C168.282 284.848 169.2 284.61 170.254 284.61ZM170.254 285.885C169.086 285.885 168.163 286.287 167.483 287.092C166.814 287.885 166.48 288.985 166.48 290.39C166.48 291.795 166.814 292.9 167.483 293.705C168.163 294.498 169.086 294.895 170.254 294.895C171.421 294.895 172.339 294.498 173.008 293.705C173.688 292.9 174.028 291.795 174.028 290.39C174.028 288.985 173.688 287.885 173.008 287.092C172.339 286.287 171.421 285.885 170.254 285.885ZM179.639 286.055V289.676H184.705V290.951H179.639V296H178.279V284.78H186.133V286.055H179.639ZM189.844 296H188.484V284.78H189.844V296ZM201.131 294.725V296H193.345V284.78H194.705V294.725H201.131Z" fill="#313131"/>
<rect x="67" y="117" width="120" height="120" rx="60" fill="#F4F4F4"/>
<g clip-path="url(#clip0)">
<path d="M158.837 199.846C158.555 198.494 157.231 197.627 155.879 197.908C154.527 198.19 153.66 199.514 153.941 200.866C154.105 201.639 153.911 202.444 153.412 203.057C152.926 203.663 152.19 204.013 151.413 204.008H102.59C101.814 204.013 101.077 203.663 100.592 203.057C100.093 202.444 99.8984 201.639 100.063 200.866C102.716 188.38 113.579 179.338 126.339 178.996C126.56 179.005 126.781 179.009 127.003 179.009C127.225 179.009 127.447 179.005 127.668 178.996C136.617 179.208 144.902 183.762 149.877 191.202C150.635 192.357 152.185 192.678 153.339 191.92C154.494 191.162 154.815 189.612 154.057 188.458C154.049 188.445 154.04 188.432 154.031 188.419C149.998 182.392 144.066 177.887 137.178 175.619C144.7 170 146.242 159.348 140.623 151.826C135.003 144.305 124.351 142.763 116.83 148.382C109.308 154.001 107.766 164.654 113.385 172.175C114.362 173.482 115.522 174.642 116.83 175.619C105.8 179.247 97.5427 188.482 95.1647 199.846C94.3 203.95 96.9259 207.978 101.03 208.843C101.543 208.951 102.066 209.006 102.59 209.006H151.413C155.607 209.002 159.004 205.599 159 201.404C158.999 200.881 158.945 200.359 158.837 199.846ZM115.001 162.009C115.002 155.382 120.374 150.01 127.001 150.011C133.628 150.011 139 155.383 139 162.01C139 168.401 133.991 173.67 127.609 173.994H127.001H126.395C120.015 173.664 115.009 168.398 115.001 162.009Z" fill="#3CBFAE"/>
</g>
<g filter="url(#filter1_d)">
<rect x="346" y="102" width="248" height="226" rx="12" fill="white"/>
</g>
<g filter="url(#filter2_d)">
<rect x="609" y="102" width="248" height="226" rx="12" fill="white"/>
</g>
<g filter="url(#filter3_d)">
<rect x="872" y="102" width="248" height="226" rx="12" fill="white"/>
</g>
<g filter="url(#filter4_d)">
<rect x="1135" y="102" width="248" height="226" rx="12" fill="white"/>
</g>
<g filter="url(#filter5_d)">
<rect x="3" y="345" width="248" height="226" rx="12" fill="white"/>
</g>
<g filter="url(#filter6_d)">
<rect x="346" y="345" width="248" height="226" rx="12" fill="white"/>
</g>
<rect x="410" y="117" width="120" height="120" rx="60" fill="#F4F4F4"/>
<path d="M459.167 169.474V157.007C459.167 152.404 462.898 148.673 467.501 148.673C472.103 148.673 475.834 152.404 475.834 157.007V169.474C482.722 164.871 484.575 155.556 479.973 148.668C475.37 141.78 466.055 139.927 459.167 144.53C452.279 149.132 450.426 158.447 455.028 165.335C456.123 166.973 457.529 168.379 459.167 169.474ZM491.967 184.907L476.833 177.374C476.263 177.134 475.651 177.009 475.033 177.007H472.5V157.007C472.5 154.245 470.261 152.007 467.5 152.007C464.739 152.007 462.5 154.245 462.5 157.007V192.807C450.5 190.274 450.7 190.307 450.267 190.307C449.278 190.31 448.331 190.705 447.634 191.407L445 194.074L461.467 210.54C462.405 211.476 463.675 212.003 465 212.007H487.633C490.08 211.997 492.137 210.168 492.433 207.74L494.933 190.173C495.316 187.936 494.078 185.738 491.967 184.907Z" fill="#434784"/>
<rect x="673" y="117" width="120" height="120" rx="60" fill="#F4F4F4"/>
<path d="M755.5 159.5H714.5V161.5H755.5V159.5Z" fill="#434784"/>
<path d="M706.5 173C713.404 173 719 167.404 719 160.5C719 153.596 713.404 148 706.5 148C699.596 148 694 153.596 694 160.5C694 167.404 699.596 173 706.5 173Z" fill="#434784"/>
<path d="M755.5 192.5H714.5V194.5H755.5V192.5Z" fill="#434784"/>
<path d="M706.5 206C713.404 206 719 200.404 719 193.5C719 186.596 713.404 181 706.5 181C699.596 181 694 186.596 694 193.5C694 200.404 699.596 206 706.5 206Z" fill="#434784"/>
<path d="M760.5 173C767.404 173 773 167.404 773 160.5C773 153.596 767.404 148 760.5 148C753.596 148 748 153.596 748 160.5C748 167.404 753.596 173 760.5 173Z" fill="white"/>
<path d="M760.5 206C767.404 206 773 200.404 773 193.5C773 186.596 767.404 181 760.5 181C753.596 181 748 186.596 748 193.5C748 200.404 753.596 206 760.5 206Z" fill="white"/>
<rect x="936" y="117" width="120" height="120" rx="60" fill="#F4F4F4"/>
<path d="M969.725 157.565C976.707 166.517 989.598 183.107 989.598 183.107V203.844C989.604 205.751 991.149 207.295 993.055 207.3H999.967C1001.87 207.295 1003.42 205.75 1003.42 203.844V183.106C1003.42 183.106 1016.28 166.516 1023.26 157.565C1024.43 156.061 1024.16 153.894 1022.65 152.725C1022.05 152.254 1021.3 151.999 1020.53 152H972.455C970.551 151.996 969.004 153.538 969 155.443C968.999 156.211 969.254 156.958 969.725 157.565Z" fill="#434784"/>
<rect x="1199" y="117" width="120" height="120" rx="60" fill="#F4F4F4"/>
<path d="M1275.55 147.529L1292.3 176.529L1275.55 205.529H1242.05L1225.3 176.529L1242.05 147.529H1275.55Z" fill="white"/>
<path d="M1275.78 147.5L1242.28 205.7" stroke="#F9F9F9" stroke-linecap="round"/>
<path d="M1292.47 176.582L1280.44 176.585L1225.5 176.598" fill="#F9F9F9"/>
<path d="M1292.47 176.582L1280.44 176.585L1225.5 176.598" stroke="#F9F9F9" stroke-linecap="round"/>
<path d="M1275.78 205.7L1242.28 147.5" stroke="#F9F9F9" stroke-linecap="round"/>
<path opacity="0.948" d="M1231.91 176.58C1237.26 186.39 1248.06 195.58 1248.06 195.58L1271.38 197.957L1275.46 176.583L1265.91 164.683L1257.81 174.548L1231.91 176.58Z" fill="#434784"/>
<path opacity="0.532" d="M1247.36 156.332L1268.33 160.609L1276.63 176.632L1268.33 190.925L1252.02 187.871L1247.36 156.332Z" fill="#434784"/>
<rect x="67" y="360" width="120" height="120" rx="60" fill="#F4F4F4"/>
<path d="M148.076 431.2C149.336 431.199 150.357 430.18 150.36 428.92V400.138C150.354 395.094 146.266 391.006 141.222 391H113.136C108.092 391.007 104.006 395.094 104 400.138V440.338C104.006 445.382 108.092 449.469 113.136 449.476H141.222C146.266 449.47 150.354 445.383 150.36 440.338C150.386 439.076 149.385 438.032 148.123 438.006C146.862 437.979 145.817 438.981 145.791 440.242C145.79 440.274 145.79 440.306 145.791 440.338C145.789 442.86 143.744 444.905 141.222 444.907H113.136C110.614 444.904 108.571 442.86 108.569 440.338V400.138C108.571 397.616 110.616 395.571 113.138 395.569H141.222C143.744 395.571 145.789 397.616 145.791 400.138V428.92C145.794 430.18 146.816 431.2 148.076 431.2Z" fill="#3CBFAE"/>
<path d="M137.146 405.4H125.522C124.59 405.4 123.834 406.157 123.835 407.089C123.835 408.02 124.59 408.776 125.522 408.776H137.146C138.078 408.776 138.834 408.02 138.834 407.088C138.834 406.156 138.078 405.4 137.146 405.4Z" fill="#3CBFAE"/>
<path d="M118.381 407.09C118.381 408.023 117.624 408.78 116.691 408.78C115.758 408.78 115.001 408.023 115.001 407.09C115.001 406.157 115.758 405.4 116.691 405.4C117.624 405.4 118.381 406.157 118.381 407.09Z" fill="#3CBFAE"/>
<path d="M125.526 414C124.594 413.998 123.837 414.751 123.835 415.683C123.833 416.615 124.586 417.372 125.518 417.374H137.144C138.076 417.376 138.833 416.623 138.835 415.691C138.837 414.759 138.084 414.002 137.152 414H125.526Z" fill="#3CBFAE"/>
<path d="M118.382 415.69C118.382 416.623 117.625 417.38 116.692 417.38C115.759 417.38 115.002 416.623 115.002 415.69C115.002 414.757 115.759 414 116.692 414C117.625 414 118.382 414.757 118.382 415.69Z" fill="#3CBFAE"/>
<path d="M125.525 423.002C124.593 423 123.836 423.753 123.834 424.685C123.832 425.617 124.585 426.374 125.517 426.376H137.143C138.075 426.378 138.832 425.625 138.834 424.693C138.836 423.761 138.083 423.004 137.151 423.002H125.525Z" fill="#3CBFAE"/>
<path d="M118.381 424.69C118.381 425.623 117.624 426.38 116.691 426.38C115.758 426.38 115.001 425.623 115.001 424.69C115.001 423.757 115.758 423 116.691 423C117.624 423 118.381 423.757 118.381 424.69Z" fill="#3CBFAE"/>
<path d="M125.525 432.002C124.593 432 123.836 432.753 123.834 433.685C123.832 434.617 124.585 435.374 125.517 435.376H137.143C138.075 435.378 138.832 434.625 138.834 433.693C138.836 432.761 138.083 432.004 137.151 432.002H125.525Z" fill="#3CBFAE"/>
<path d="M118.381 433.69C118.381 434.623 117.624 435.38 116.691 435.38C115.758 435.38 115.001 434.623 115.001 433.69C115.001 432.757 115.758 432 116.691 432C117.624 432 118.381 432.757 118.381 433.69Z" fill="#3CBFAE"/>
<path opacity="0.8" d="M376.087 263.356L374.081 265.396V269H372.721V257.78H374.081V263.56L379.725 257.78H381.51L377.039 262.353L381.561 269H379.929L376.087 263.356ZM391.493 267.725V269H383.707V257.78H385.067V267.725H391.493ZM395.057 269H393.697V257.78H395.057V269ZM407.602 266.127C407.25 267.079 406.672 267.827 405.868 268.371C405.063 268.904 404.134 269.17 403.08 269.17C402.026 269.17 401.108 268.938 400.326 268.473C399.544 267.997 398.937 267.328 398.507 266.467C398.087 265.594 397.878 264.569 397.878 263.39C397.878 262.223 398.087 261.203 398.507 260.33C398.937 259.457 399.544 258.789 400.326 258.324C401.108 257.848 402.014 257.61 403.046 257.61C404.122 257.61 405.023 257.831 405.749 258.273C406.485 258.715 407.035 259.367 407.398 260.228L406.055 260.857C405.805 260.2 405.443 259.707 404.967 259.378C404.491 259.049 403.884 258.885 403.148 258.885C402.377 258.885 401.703 259.066 401.125 259.429C400.547 259.78 400.099 260.296 399.782 260.976C399.464 261.656 399.306 262.461 399.306 263.39C399.306 264.795 399.64 265.9 400.309 266.705C400.989 267.498 401.912 267.895 403.08 267.895C403.839 267.895 404.496 267.702 405.052 267.317C405.607 266.932 406.004 266.365 406.242 265.617L407.602 266.127ZM413.408 263.356L411.402 265.396V269H410.042V257.78H411.402V263.56L417.046 257.78H418.831L414.36 262.353L418.882 269H417.25L413.408 263.356ZM426.436 257.78H430.431C431.723 257.78 432.681 258.052 433.304 258.596C433.939 259.129 434.256 259.888 434.256 260.874C434.256 261.463 434.086 261.985 433.746 262.438C433.418 262.891 432.959 263.175 432.369 263.288V263.305C433.027 263.43 433.554 263.73 433.95 264.206C434.347 264.682 434.545 265.232 434.545 265.855C434.545 266.818 434.183 267.583 433.457 268.15C432.732 268.717 431.718 269 430.414 269H426.436V257.78ZM430.448 262.71C431.253 262.71 431.848 262.563 432.233 262.268C432.63 261.962 432.828 261.497 432.828 260.874C432.828 259.661 432.035 259.055 430.448 259.055H427.796V262.71H430.448ZM430.737 267.725C431.531 267.725 432.126 267.566 432.522 267.249C432.919 266.92 433.117 266.456 433.117 265.855C433.117 265.254 432.919 264.795 432.522 264.478C432.126 264.149 431.531 263.985 430.737 263.985H427.796V267.725H430.737ZM445.499 267.725V269H437.373V257.78H445.244V259.055H438.733V262.676H443.799V263.951H438.733V267.725H445.499ZM451.818 269H450.135L446.82 257.78H448.282L450.985 267.929L453.637 257.78H455.184L457.836 267.963L460.556 257.78H461.933L458.635 269H456.952L454.963 261.724L454.385 259.191H454.368L453.79 261.724L451.818 269ZM472.336 267.725V269H464.21V257.78H472.081V259.055H465.57V262.676H470.636V263.951H465.57V267.725H472.336ZM478.926 264.342H476.24V269H474.88V257.78H479.13C480.275 257.78 481.193 258.075 481.884 258.664C482.576 259.253 482.921 260.052 482.921 261.061C482.921 261.854 482.7 262.523 482.258 263.067C481.816 263.611 481.21 263.985 480.439 264.189L483.601 269H481.986L478.926 264.342ZM476.24 263.067H479.113C480.7 263.067 481.493 262.398 481.493 261.061C481.493 259.724 480.7 259.055 479.113 259.055H476.24V263.067ZM486.016 257.78H490.011C491.303 257.78 492.261 258.052 492.884 258.596C493.519 259.129 493.836 259.888 493.836 260.874C493.836 261.463 493.666 261.985 493.326 262.438C492.997 262.891 492.538 263.175 491.949 263.288V263.305C492.606 263.43 493.133 263.73 493.53 264.206C493.927 264.682 494.125 265.232 494.125 265.855C494.125 266.818 493.762 267.583 493.037 268.15C492.312 268.717 491.297 269 489.994 269H486.016V257.78ZM490.028 262.71C490.833 262.71 491.428 262.563 491.813 262.268C492.21 261.962 492.408 261.497 492.408 260.874C492.408 259.661 491.615 259.055 490.028 259.055H487.376V262.71H490.028ZM490.317 267.725C491.11 267.725 491.705 267.566 492.102 267.249C492.499 266.92 492.697 266.456 492.697 265.855C492.697 265.254 492.499 264.795 492.102 264.478C491.705 264.149 491.11 263.985 490.317 263.985H487.376V267.725H490.317ZM505.64 264.818C505.64 266.257 505.26 267.345 504.501 268.082C503.753 268.807 502.665 269.17 501.237 269.17C499.809 269.17 498.715 268.802 497.956 268.065C497.208 267.328 496.834 266.246 496.834 264.818V257.78H498.194V264.478C498.194 265.657 498.437 266.524 498.925 267.079C499.423 267.623 500.194 267.895 501.237 267.895C502.279 267.895 503.044 267.623 503.532 267.079C504.03 266.524 504.28 265.657 504.28 264.478V257.78H505.64V264.818ZM517.824 269H516.141L511.449 261.486L510.259 259.276H510.242L510.31 261.078V269H509.018V257.78H510.701L515.376 265.26L516.583 267.504H516.6L516.532 265.702V257.78H517.824V269ZM530.461 263.339V269H529.441L529.39 267.487C529.062 268.031 528.597 268.45 527.996 268.745C527.407 269.028 526.693 269.17 525.854 269.17C524.8 269.17 523.882 268.938 523.1 268.473C522.318 267.997 521.712 267.328 521.281 266.467C520.862 265.594 520.652 264.569 520.652 263.39C520.652 262.223 520.868 261.203 521.298 260.33C521.74 259.457 522.352 258.789 523.134 258.324C523.928 257.848 524.846 257.61 525.888 257.61C526.999 257.61 527.911 257.82 528.625 258.239C529.351 258.658 529.934 259.304 530.376 260.177L529.135 260.857C528.886 260.222 528.478 259.735 527.911 259.395C527.356 259.055 526.682 258.885 525.888 258.885C525.129 258.885 524.46 259.066 523.882 259.429C523.316 259.792 522.874 260.313 522.556 260.993C522.239 261.662 522.08 262.461 522.08 263.39C522.08 264.818 522.409 265.929 523.066 266.722C523.724 267.504 524.67 267.895 525.905 267.895C526.88 267.895 527.673 267.646 528.285 267.147C528.909 266.648 529.22 265.934 529.22 265.005V264.614H525.65V263.339H530.461ZM544.714 265.889H539.631L538.441 269H537.013L541.382 257.78H542.997L547.349 269H545.904L544.714 265.889ZM544.221 264.614L542.708 260.636L542.181 259.072H542.147L541.654 260.585L540.124 264.614H544.221ZM557.765 264.818C557.765 266.257 557.385 267.345 556.626 268.082C555.878 268.807 554.79 269.17 553.362 269.17C551.934 269.17 550.84 268.802 550.081 268.065C549.333 267.328 548.959 266.246 548.959 264.818V257.78H550.319V264.478C550.319 265.657 550.563 266.524 551.05 267.079C551.549 267.623 552.319 267.895 553.362 267.895C554.405 267.895 555.17 267.623 555.657 267.079C556.156 266.524 556.405 265.657 556.405 264.478V257.78H557.765V264.818ZM562.503 259.055V262.676H567.569V263.951H562.503V269H561.143V257.78H568.997V259.055H562.503ZM383.672 283.356L381.666 285.396V289H380.306V277.78H381.666V283.56L387.31 277.78H389.095L384.624 282.353L389.146 289H387.514L383.672 283.356ZM397.599 285.889H392.516L391.326 289H389.898L394.267 277.78H395.882L400.234 289H398.789L397.599 285.889ZM397.106 284.614L395.593 280.636L395.066 279.072H395.032L394.539 280.585L393.009 284.614H397.106ZM406.391 284.342H403.705V289H402.345V277.78H406.595C407.74 277.78 408.658 278.075 409.349 278.664C410.04 279.253 410.386 280.052 410.386 281.061C410.386 281.854 410.165 282.523 409.723 283.067C409.281 283.611 408.675 283.985 407.904 284.189L411.066 289H409.451L406.391 284.342ZM403.705 283.067H406.578C408.165 283.067 408.958 282.398 408.958 281.061C408.958 279.724 408.165 279.055 406.578 279.055H403.705V283.067ZM417.527 284.342H414.841V289H413.481V277.78H417.731C418.875 277.78 419.793 278.075 420.485 278.664C421.176 279.253 421.522 280.052 421.522 281.061C421.522 281.854 421.301 282.523 420.859 283.067C420.417 283.611 419.81 283.985 419.04 284.189L422.202 289H420.587L417.527 284.342ZM414.841 283.067H417.714C419.3 283.067 420.094 282.398 420.094 281.061C420.094 279.724 419.3 279.055 417.714 279.055H414.841V283.067ZM425.976 289H424.616V277.78H425.976V289ZM437.602 287.725V289H429.476V277.78H437.347V279.055H430.836V282.676H435.902V283.951H430.836V287.725H437.602ZM444.193 284.342H441.507V289H440.147V277.78H444.397C445.542 277.78 446.46 278.075 447.151 278.664C447.843 279.253 448.188 280.052 448.188 281.061C448.188 281.854 447.967 282.523 447.525 283.067C447.083 283.611 446.477 283.985 445.706 284.189L448.868 289H447.253L444.193 284.342ZM441.507 283.067H444.38C445.967 283.067 446.76 282.398 446.76 281.061C446.76 279.724 445.967 279.055 444.38 279.055H441.507V283.067ZM459.409 287.725V289H451.283V277.78H459.154V279.055H452.643V282.676H457.709V283.951H452.643V287.725H459.409ZM465.558 277.61C467.564 277.61 469.009 278.403 469.893 279.99L468.72 280.942C468.38 280.194 467.972 279.667 467.496 279.361C467.031 279.044 466.391 278.885 465.575 278.885C464.713 278.885 464.033 279.066 463.535 279.429C463.047 279.78 462.804 280.234 462.804 280.789C462.804 281.152 462.9 281.452 463.093 281.69C463.285 281.928 463.603 282.138 464.045 282.319C464.498 282.489 465.121 282.642 465.915 282.778C467.399 283.027 468.448 283.401 469.06 283.9C469.683 284.399 469.995 285.09 469.995 285.974C469.995 286.609 469.813 287.17 469.451 287.657C469.099 288.133 468.595 288.507 467.938 288.779C467.28 289.04 466.521 289.17 465.66 289.17C464.526 289.17 463.557 288.949 462.753 288.507C461.959 288.065 461.353 287.476 460.934 286.739L462.107 285.787C462.413 286.456 462.86 286.977 463.45 287.351C464.05 287.714 464.798 287.895 465.694 287.895C466.578 287.895 467.28 287.736 467.802 287.419C468.323 287.09 468.584 286.631 468.584 286.042C468.584 285.543 468.357 285.147 467.904 284.852C467.45 284.557 466.646 284.308 465.49 284.104C463.994 283.843 462.934 283.469 462.311 282.982C461.687 282.495 461.376 281.815 461.376 280.942C461.376 280.341 461.546 279.786 461.886 279.276C462.226 278.766 462.713 278.364 463.348 278.069C463.982 277.763 464.719 277.61 465.558 277.61ZM480.8 287.725V289H472.674V277.78H480.545V279.055H474.034V282.676H479.1V283.951H474.034V287.725H480.8ZM484.705 289H483.345V277.78H484.705V289ZM496.093 279.055H492.183V289H490.823V279.055H486.913V277.78H496.093V279.055ZM506.421 287.725V289H498.295V277.78H506.166V279.055H499.655V282.676H504.721V283.951H499.655V287.725H506.421ZM517.772 289H516.089L511.397 281.486L510.207 279.276H510.19L510.258 281.078V289H508.966V277.78H510.649L515.324 285.26L516.531 287.504H516.548L516.48 285.702V277.78H517.772V289ZM535.591 284.818C535.591 286.257 535.212 287.345 534.452 288.082C533.704 288.807 532.616 289.17 531.188 289.17C529.76 289.17 528.667 288.802 527.907 288.065C527.159 287.328 526.785 286.246 526.785 284.818V277.78H528.145V284.478C528.145 285.657 528.389 286.524 528.876 287.079C529.375 287.623 530.146 287.895 531.188 287.895C532.231 287.895 532.996 287.623 533.483 287.079C533.982 286.524 534.231 285.657 534.231 284.478V277.78H535.591V284.818ZM547.776 289H546.093L541.401 281.486L540.211 279.276H540.194L540.262 281.078V289H538.97V277.78H540.653L545.328 285.26L546.535 287.504H546.552L546.484 285.702V277.78H547.776V289ZM554.905 277.78C556.673 277.78 558.056 278.267 559.053 279.242C560.05 280.217 560.549 281.599 560.549 283.39C560.549 285.181 560.05 286.563 559.053 287.538C558.056 288.513 556.673 289 554.905 289H551.284V277.78H554.905ZM555.041 287.725C556.322 287.725 557.319 287.345 558.033 286.586C558.758 285.815 559.121 284.75 559.121 283.39C559.121 282.03 558.758 280.97 558.033 280.211C557.319 279.44 556.322 279.055 555.041 279.055H552.644V287.725H555.041ZM427.303 305.158C427.303 306.416 426.963 307.402 426.283 308.116C425.614 308.819 424.685 309.17 423.495 309.17C422.418 309.17 421.585 308.909 420.996 308.388C420.406 307.855 420.112 307.124 420.112 306.195C420.112 305.866 420.14 305.566 420.197 305.294L421.455 305.039C421.409 305.424 421.387 305.696 421.387 305.855C421.387 306.546 421.551 307.062 421.88 307.402C422.208 307.731 422.73 307.895 423.444 307.895C424.373 307.895 425.019 307.646 425.382 307.147C425.756 306.648 425.943 305.872 425.943 304.818V297.78H427.303V305.158ZM435.215 297.61C436.269 297.61 437.187 297.848 437.969 298.324C438.751 298.789 439.351 299.457 439.771 300.33C440.201 301.191 440.417 302.211 440.417 303.39C440.417 304.569 440.201 305.594 439.771 306.467C439.351 307.328 438.751 307.997 437.969 308.473C437.187 308.938 436.269 309.17 435.215 309.17C434.161 309.17 433.243 308.938 432.461 308.473C431.679 307.997 431.072 307.328 430.642 306.467C430.222 305.594 430.013 304.569 430.013 303.39C430.013 302.211 430.222 301.191 430.642 300.33C431.072 299.457 431.679 298.789 432.461 298.324C433.243 297.848 434.161 297.61 435.215 297.61ZM435.215 298.885C434.047 298.885 433.124 299.287 432.444 300.092C431.775 300.885 431.441 301.985 431.441 303.39C431.441 304.795 431.775 305.9 432.444 306.705C433.124 307.498 434.047 307.895 435.215 307.895C436.382 307.895 437.3 307.498 437.969 306.705C438.649 305.9 438.989 304.795 438.989 303.39C438.989 301.985 438.649 300.885 437.969 300.092C437.3 299.287 436.382 298.885 435.215 298.885ZM443.239 297.78H447.234C448.526 297.78 449.484 298.052 450.107 298.596C450.742 299.129 451.059 299.888 451.059 300.874C451.059 301.463 450.889 301.985 450.549 302.438C450.221 302.891 449.762 303.175 449.172 303.288V303.305C449.83 303.43 450.357 303.73 450.753 304.206C451.15 304.682 451.348 305.232 451.348 305.855C451.348 306.818 450.986 307.583 450.26 308.15C449.535 308.717 448.521 309 447.217 309H443.239V297.78ZM447.251 302.71C448.056 302.71 448.651 302.563 449.036 302.268C449.433 301.962 449.631 301.497 449.631 300.874C449.631 299.661 448.838 299.055 447.251 299.055H444.599V302.71H447.251ZM447.54 307.725C448.334 307.725 448.929 307.566 449.325 307.249C449.722 306.92 449.92 306.456 449.92 305.855C449.92 305.254 449.722 304.795 449.325 304.478C448.929 304.149 448.334 303.985 447.54 303.985H444.599V307.725H447.54ZM454.176 297.78H458.171C459.463 297.78 460.421 298.052 461.044 298.596C461.679 299.129 461.996 299.888 461.996 300.874C461.996 301.463 461.826 301.985 461.486 302.438C461.157 302.891 460.698 303.175 460.109 303.288V303.305C460.766 303.43 461.293 303.73 461.69 304.206C462.087 304.682 462.285 305.232 462.285 305.855C462.285 306.818 461.922 307.583 461.197 308.15C460.472 308.717 459.457 309 458.154 309H454.176V297.78ZM458.188 302.71C458.993 302.71 459.588 302.563 459.973 302.268C460.37 301.962 460.568 301.497 460.568 300.874C460.568 299.661 459.775 299.055 458.188 299.055H455.536V302.71H458.188ZM458.477 307.725C459.27 307.725 459.865 307.566 460.262 307.249C460.659 306.92 460.857 306.456 460.857 305.855C460.857 305.254 460.659 304.795 460.262 304.478C459.865 304.149 459.27 303.985 458.477 303.985H455.536V307.725H458.477ZM469.634 297.61C470.688 297.61 471.606 297.848 472.388 298.324C473.17 298.789 473.771 299.457 474.19 300.33C474.621 301.191 474.836 302.211 474.836 303.39C474.836 304.569 474.621 305.594 474.19 306.467C473.771 307.328 473.17 307.997 472.388 308.473C471.606 308.938 470.688 309.17 469.634 309.17C468.58 309.17 467.662 308.938 466.88 308.473C466.098 307.997 465.492 307.328 465.061 306.467C464.642 305.594 464.432 304.569 464.432 303.39C464.432 302.211 464.642 301.191 465.061 300.33C465.492 299.457 466.098 298.789 466.88 298.324C467.662 297.848 468.58 297.61 469.634 297.61ZM469.634 298.885C468.467 298.885 467.543 299.287 466.863 300.092C466.195 300.885 465.86 301.985 465.86 303.39C465.86 304.795 466.195 305.9 466.863 306.705C467.543 307.498 468.467 307.895 469.634 307.895C470.802 307.895 471.72 307.498 472.388 306.705C473.068 305.9 473.408 304.795 473.408 303.39C473.408 301.985 473.068 300.885 472.388 300.092C471.72 299.287 470.802 298.885 469.634 298.885ZM483.584 305.889H478.501L477.311 309H475.883L480.252 297.78H481.867L486.219 309H484.774L483.584 305.889ZM483.091 304.614L481.578 300.636L481.051 299.072H481.017L480.524 300.585L478.994 304.614H483.091ZM492.376 304.342H489.69V309H488.33V297.78H492.58C493.725 297.78 494.643 298.075 495.334 298.664C496.025 299.253 496.371 300.052 496.371 301.061C496.371 301.854 496.15 302.523 495.708 303.067C495.266 303.611 494.66 303.985 493.889 304.189L497.051 309H495.436L492.376 304.342ZM489.69 303.067H492.563C494.15 303.067 494.943 302.398 494.943 301.061C494.943 299.724 494.15 299.055 492.563 299.055H489.69V303.067ZM503.087 297.78C504.855 297.78 506.237 298.267 507.235 299.242C508.232 300.217 508.731 301.599 508.731 303.39C508.731 305.181 508.232 306.563 507.235 307.538C506.237 308.513 504.855 309 503.087 309H499.466V297.78H503.087ZM503.223 307.725C504.503 307.725 505.501 307.345 506.215 306.586C506.94 305.815 507.303 304.75 507.303 303.39C507.303 302.03 506.94 300.97 506.215 300.211C505.501 299.44 504.503 299.055 503.223 299.055H500.826V307.725H503.223ZM515.152 297.61C517.158 297.61 518.603 298.403 519.487 299.99L518.314 300.942C517.974 300.194 517.566 299.667 517.09 299.361C516.625 299.044 515.985 298.885 515.169 298.885C514.307 298.885 513.627 299.066 513.129 299.429C512.641 299.78 512.398 300.234 512.398 300.789C512.398 301.152 512.494 301.452 512.687 301.69C512.879 301.928 513.197 302.138 513.639 302.319C514.092 302.489 514.715 302.642 515.509 302.778C516.993 303.027 518.042 303.401 518.654 303.9C519.277 304.399 519.589 305.09 519.589 305.974C519.589 306.609 519.407 307.17 519.045 307.657C518.693 308.133 518.189 308.507 517.532 308.779C516.874 309.04 516.115 309.17 515.254 309.17C514.12 309.17 513.151 308.949 512.347 308.507C511.553 308.065 510.947 307.476 510.528 306.739L511.701 305.787C512.007 306.456 512.454 306.977 513.044 307.351C513.644 307.714 514.392 307.895 515.288 307.895C516.172 307.895 516.874 307.736 517.396 307.419C517.917 307.09 518.178 306.631 518.178 306.042C518.178 305.543 517.951 305.147 517.498 304.852C517.044 304.557 516.24 304.308 515.084 304.104C513.588 303.843 512.528 303.469 511.905 302.982C511.281 302.495 510.97 301.815 510.97 300.942C510.97 300.341 511.14 299.786 511.48 299.276C511.82 298.766 512.307 298.364 512.942 298.069C513.576 297.763 514.313 297.61 515.152 297.61Z" fill="#313131"/>
<path opacity="0.8" d="M702.758 296H701.466V288.945L701.619 285.987H701.602L697.913 296H696.757L693.068 285.987H693.051L693.204 288.945V296H691.912V284.78H694.003L696.468 291.597L697.318 294.402H697.352L698.219 291.614L700.667 284.78H702.758V296ZM712.559 292.889H707.476L706.286 296H704.858L709.227 284.78H710.842L715.194 296H713.749L712.559 292.889ZM712.066 291.614L710.553 287.636L710.026 286.072H709.992L709.499 287.585L707.969 291.614H712.066ZM723.665 286.055H719.755V296H718.395V286.055H714.485V284.78H723.665V286.055ZM734.529 293.127C734.178 294.079 733.6 294.827 732.795 295.371C731.99 295.904 731.061 296.17 730.007 296.17C728.953 296.17 728.035 295.938 727.253 295.473C726.471 294.997 725.865 294.328 725.434 293.467C725.015 292.594 724.805 291.569 724.805 290.39C724.805 289.223 725.015 288.203 725.434 287.33C725.865 286.457 726.471 285.789 727.253 285.324C728.035 284.848 728.942 284.61 729.973 284.61C731.05 284.61 731.951 284.831 732.676 285.273C733.413 285.715 733.962 286.367 734.325 287.228L732.982 287.857C732.733 287.2 732.37 286.707 731.894 286.378C731.418 286.049 730.812 285.885 730.075 285.885C729.304 285.885 728.63 286.066 728.052 286.429C727.474 286.78 727.026 287.296 726.709 287.976C726.392 288.656 726.233 289.461 726.233 290.39C726.233 291.795 726.567 292.9 727.236 293.705C727.916 294.498 728.84 294.895 730.007 294.895C730.766 294.895 731.424 294.702 731.979 294.317C732.534 293.932 732.931 293.365 733.169 292.617L734.529 293.127ZM745.775 284.78V296H744.415V290.951H738.329V296H736.969V284.78H738.329V289.676H744.415V284.78H745.775ZM750.644 296H749.284V284.78H750.644V296ZM762.95 296H761.267L756.575 288.486L755.385 286.276H755.368L755.436 288.078V296H754.144V284.78H755.827L760.502 292.26L761.709 294.504H761.726L761.658 292.702V284.78H762.95V296ZM775.587 290.339V296H774.567L774.516 294.487C774.188 295.031 773.723 295.45 773.122 295.745C772.533 296.028 771.819 296.17 770.98 296.17C769.926 296.17 769.008 295.938 768.226 295.473C767.444 294.997 766.838 294.328 766.407 293.467C765.988 292.594 765.778 291.569 765.778 290.39C765.778 289.223 765.994 288.203 766.424 287.33C766.866 286.457 767.478 285.789 768.26 285.324C769.054 284.848 769.972 284.61 771.014 284.61C772.125 284.61 773.037 284.82 773.751 285.239C774.477 285.658 775.06 286.304 775.502 287.177L774.261 287.857C774.012 287.222 773.604 286.735 773.037 286.395C772.482 286.055 771.808 285.885 771.014 285.885C770.255 285.885 769.586 286.066 769.008 286.429C768.442 286.792 768 287.313 767.682 287.993C767.365 288.662 767.206 289.461 767.206 290.39C767.206 291.818 767.535 292.929 768.192 293.722C768.85 294.504 769.796 294.895 771.031 294.895C772.006 294.895 772.799 294.646 773.411 294.147C774.035 293.648 774.346 292.934 774.346 292.005V291.614H770.776V290.339H775.587Z" fill="#313131"/>
<path opacity="0.8" d="M894.146 257.78C895.28 257.78 896.192 258.092 896.883 258.715C897.575 259.327 897.92 260.154 897.92 261.197C897.92 262.24 897.575 263.073 896.883 263.696C896.192 264.308 895.28 264.614 894.146 264.614H891.545V269H890.185V257.78H894.146ZM893.942 263.339C894.815 263.339 895.455 263.163 895.863 262.812C896.283 262.449 896.492 261.911 896.492 261.197C896.492 260.483 896.283 259.95 895.863 259.599C895.455 259.236 894.815 259.055 893.942 259.055H891.545V263.339H893.942ZM901.751 269H900.391V257.78H901.751V269ZM909.213 257.78C910.346 257.78 911.258 258.092 911.95 258.715C912.641 259.327 912.987 260.154 912.987 261.197C912.987 262.24 912.641 263.073 911.95 263.696C911.258 264.308 910.346 264.614 909.213 264.614H906.612V269H905.252V257.78H909.213ZM909.009 263.339C909.881 263.339 910.522 263.163 910.93 262.812C911.349 262.449 911.559 261.911 911.559 261.197C911.559 260.483 911.349 259.95 910.93 259.599C910.522 259.236 909.881 259.055 909.009 259.055H906.612V263.339H909.009ZM923.584 267.725V269H915.458V257.78H923.329V259.055H916.818V262.676H921.884V263.951H916.818V267.725H923.584ZM933.915 267.725V269H926.129V257.78H927.489V267.725H933.915ZM937.479 269H936.119V257.78H937.479V269ZM949.785 269H948.102L943.41 261.486L942.22 259.276H942.203L942.271 261.078V269H940.979V257.78H942.662L947.337 265.26L948.544 267.504H948.561L948.493 265.702V257.78H949.785V269ZM961.419 267.725V269H953.293V257.78H961.164V259.055H954.653V262.676H959.719V263.951H954.653V267.725H961.419ZM978.275 264.818C978.275 266.257 977.895 267.345 977.136 268.082C976.388 268.807 975.3 269.17 973.872 269.17C972.444 269.17 971.35 268.802 970.591 268.065C969.843 267.328 969.469 266.246 969.469 264.818V257.78H970.829V264.478C970.829 265.657 971.073 266.524 971.56 267.079C972.059 267.623 972.829 267.895 973.872 267.895C974.915 267.895 975.68 267.623 976.167 267.079C976.666 266.524 976.915 265.657 976.915 264.478V257.78H978.275V264.818ZM990.459 269H988.776L984.084 261.486L982.894 259.276H982.877L982.945 261.078V269H981.653V257.78H983.336L988.011 265.26L989.218 267.504H989.235L989.167 265.702V257.78H990.459V269ZM997.589 257.78C999.357 257.78 1000.74 258.267 1001.74 259.242C1002.73 260.217 1003.23 261.599 1003.23 263.39C1003.23 265.181 1002.73 266.563 1001.74 267.538C1000.74 268.513 999.357 269 997.589 269H993.968V257.78H997.589ZM997.725 267.725C999.006 267.725 1000 267.345 1000.72 266.586C1001.44 265.815 1001.8 264.75 1001.8 263.39C1001.8 262.03 1001.44 260.97 1000.72 260.211C1000 259.44 999.006 259.055 997.725 259.055H995.328V267.725H997.725ZM1020.36 264.818C1020.36 266.257 1019.98 267.345 1019.22 268.082C1018.47 268.807 1017.39 269.17 1015.96 269.17C1014.53 269.17 1013.44 268.802 1012.68 268.065C1011.93 267.328 1011.55 266.246 1011.55 264.818V257.78H1012.91V264.478C1012.91 265.657 1013.16 266.524 1013.65 267.079C1014.14 267.623 1014.92 267.895 1015.96 267.895C1017 267.895 1017.77 267.623 1018.25 267.079C1018.75 266.524 1019 265.657 1019 264.478V257.78H1020.36V264.818ZM1014.31 254.448C1014.6 254.448 1014.84 254.539 1015.01 254.72C1015.19 254.89 1015.28 255.122 1015.28 255.417C1015.28 255.7 1015.19 255.933 1015.01 256.114C1014.84 256.295 1014.6 256.386 1014.31 256.386C1014.03 256.386 1013.79 256.295 1013.61 256.114C1013.43 255.933 1013.34 255.7 1013.34 255.417C1013.34 255.122 1013.43 254.89 1013.61 254.72C1013.79 254.539 1014.03 254.448 1014.31 254.448ZM1017.61 254.448C1017.9 254.448 1018.13 254.539 1018.3 254.72C1018.49 254.89 1018.58 255.122 1018.58 255.417C1018.58 255.7 1018.49 255.933 1018.3 256.114C1018.13 256.295 1017.9 256.386 1017.61 256.386C1017.32 256.386 1017.09 256.295 1016.91 256.114C1016.73 255.933 1016.64 255.7 1016.64 255.417C1016.64 255.122 1016.73 254.89 1016.91 254.72C1017.09 254.539 1017.32 254.448 1017.61 254.448ZM1023.74 257.78H1027.73C1029.03 257.78 1029.98 258.052 1030.61 258.596C1031.24 259.129 1031.56 259.888 1031.56 260.874C1031.56 261.463 1031.39 261.985 1031.05 262.438C1030.72 262.891 1030.26 263.175 1029.67 263.288V263.305C1030.33 263.43 1030.86 263.73 1031.25 264.206C1031.65 264.682 1031.85 265.232 1031.85 265.855C1031.85 266.818 1031.49 267.583 1030.76 268.15C1030.03 268.717 1029.02 269 1027.72 269H1023.74V257.78ZM1027.75 262.71C1028.56 262.71 1029.15 262.563 1029.54 262.268C1029.93 261.962 1030.13 261.497 1030.13 260.874C1030.13 259.661 1029.34 259.055 1027.75 259.055H1025.1V262.71H1027.75ZM1028.04 267.725C1028.83 267.725 1029.43 267.566 1029.83 267.249C1030.22 266.92 1030.42 266.456 1030.42 265.855C1030.42 265.254 1030.22 264.795 1029.83 264.478C1029.43 264.149 1028.83 263.985 1028.04 263.985H1025.1V267.725H1028.04ZM1042.8 267.725V269H1034.68V257.78H1042.55V259.055H1036.04V262.676H1041.1V263.951H1036.04V267.725H1042.8ZM1049.39 264.342H1046.71V269H1045.35V257.78H1049.6C1050.74 257.78 1051.66 258.075 1052.35 258.664C1053.04 259.253 1053.39 260.052 1053.39 261.061C1053.39 261.854 1053.17 262.523 1052.72 263.067C1052.28 263.611 1051.68 263.985 1050.91 264.189L1054.07 269H1052.45L1049.39 264.342ZM1046.71 263.067H1049.58C1051.17 263.067 1051.96 262.398 1051.96 261.061C1051.96 259.724 1051.17 259.055 1049.58 259.055H1046.71V263.067ZM1060.09 257.61C1062.09 257.61 1063.54 258.403 1064.42 259.99L1063.25 260.942C1062.91 260.194 1062.5 259.667 1062.02 259.361C1061.56 259.044 1060.92 258.885 1060.1 258.885C1059.24 258.885 1058.56 259.066 1058.06 259.429C1057.58 259.78 1057.33 260.234 1057.33 260.789C1057.33 261.152 1057.43 261.452 1057.62 261.69C1057.81 261.928 1058.13 262.138 1058.57 262.319C1059.03 262.489 1059.65 262.642 1060.44 262.778C1061.93 263.027 1062.98 263.401 1063.59 263.9C1064.21 264.399 1064.52 265.09 1064.52 265.974C1064.52 266.609 1064.34 267.17 1063.98 267.657C1063.63 268.133 1063.12 268.507 1062.47 268.779C1061.81 269.04 1061.05 269.17 1060.19 269.17C1059.05 269.17 1058.09 268.949 1057.28 268.507C1056.49 268.065 1055.88 267.476 1055.46 266.739L1056.64 265.787C1056.94 266.456 1057.39 266.977 1057.98 267.351C1058.58 267.714 1059.33 267.895 1060.22 267.895C1061.11 267.895 1061.81 267.736 1062.33 267.419C1062.85 267.09 1063.11 266.631 1063.11 266.042C1063.11 265.543 1062.89 265.147 1062.43 264.852C1061.98 264.557 1061.17 264.308 1060.02 264.104C1058.52 263.843 1057.46 263.469 1056.84 262.982C1056.22 262.495 1055.9 261.815 1055.9 260.942C1055.9 260.341 1056.07 259.786 1056.41 259.276C1056.75 258.766 1057.24 258.364 1057.88 258.069C1058.51 257.763 1059.25 257.61 1060.09 257.61ZM1068.56 269H1067.2V257.78H1068.56V269ZM1081.11 266.127C1080.76 267.079 1080.18 267.827 1079.37 268.371C1078.57 268.904 1077.64 269.17 1076.58 269.17C1075.53 269.17 1074.61 268.938 1073.83 268.473C1073.05 267.997 1072.44 267.328 1072.01 266.467C1071.59 265.594 1071.38 264.569 1071.38 263.39C1071.38 262.223 1071.59 261.203 1072.01 260.33C1072.44 259.457 1073.05 258.789 1073.83 258.324C1074.61 257.848 1075.52 257.61 1076.55 257.61C1077.63 257.61 1078.53 257.831 1079.25 258.273C1079.99 258.715 1080.54 259.367 1080.9 260.228L1079.56 260.857C1079.31 260.2 1078.95 259.707 1078.47 259.378C1078 259.049 1077.39 258.885 1076.65 258.885C1075.88 258.885 1075.21 259.066 1074.63 259.429C1074.05 259.78 1073.6 260.296 1073.29 260.976C1072.97 261.656 1072.81 262.461 1072.81 263.39C1072.81 264.795 1073.15 265.9 1073.81 266.705C1074.49 267.498 1075.42 267.895 1076.58 267.895C1077.34 267.895 1078 267.702 1078.56 267.317C1079.11 266.932 1079.51 266.365 1079.75 265.617L1081.11 266.127ZM1092.35 257.78V269H1090.99V263.951H1084.91V269H1083.55V257.78H1084.91V262.676H1090.99V257.78H1092.35ZM1103.75 259.055H1099.84V269H1098.48V259.055H1094.57V257.78H1103.75V259.055ZM956.008 284.818C956.008 286.257 955.628 287.345 954.869 288.082C954.121 288.807 953.033 289.17 951.605 289.17C950.177 289.17 949.083 288.802 948.324 288.065C947.576 287.328 947.202 286.246 947.202 284.818V277.78H948.562V284.478C948.562 285.657 948.805 286.524 949.293 287.079C949.791 287.623 950.562 287.895 951.605 287.895C952.647 287.895 953.412 287.623 953.9 287.079C954.398 286.524 954.648 285.657 954.648 284.478V277.78H956.008V284.818ZM949.956 274.448C950.25 274.448 950.483 274.539 950.653 274.72C950.834 274.89 950.925 275.122 950.925 275.417C950.925 275.7 950.834 275.933 950.653 276.114C950.483 276.295 950.25 276.386 949.956 276.386C949.672 276.386 949.44 276.295 949.259 276.114C949.077 275.933 948.987 275.7 948.987 275.417C948.987 275.122 949.077 274.89 949.259 274.72C949.44 274.539 949.672 274.448 949.956 274.448ZM953.254 274.448C953.548 274.448 953.781 274.539 953.951 274.72C954.132 274.89 954.223 275.122 954.223 275.417C954.223 275.7 954.132 275.933 953.951 276.114C953.781 276.295 953.548 276.386 953.254 276.386C952.97 276.386 952.738 276.295 952.557 276.114C952.375 275.933 952.285 275.7 952.285 275.417C952.285 275.122 952.375 274.89 952.557 274.72C952.738 274.539 952.97 274.448 953.254 274.448ZM959.386 277.78H963.381C964.673 277.78 965.631 278.052 966.254 278.596C966.889 279.129 967.206 279.888 967.206 280.874C967.206 281.463 967.036 281.985 966.696 282.438C966.367 282.891 965.908 283.175 965.319 283.288V283.305C965.976 283.43 966.503 283.73 966.9 284.206C967.297 284.682 967.495 285.232 967.495 285.855C967.495 286.818 967.132 287.583 966.407 288.15C965.682 288.717 964.667 289 963.364 289H959.386V277.78ZM963.398 282.71C964.203 282.71 964.798 282.563 965.183 282.268C965.58 281.962 965.778 281.497 965.778 280.874C965.778 279.661 964.985 279.055 963.398 279.055H960.746V282.71H963.398ZM963.687 287.725C964.48 287.725 965.075 287.566 965.472 287.249C965.869 286.92 966.067 286.456 966.067 285.855C966.067 285.254 965.869 284.795 965.472 284.478C965.075 284.149 964.48 283.985 963.687 283.985H960.746V287.725H963.687ZM978.449 287.725V289H970.323V277.78H978.194V279.055H971.683V282.676H976.749V283.951H971.683V287.725H978.449ZM985.039 284.342H982.353V289H980.993V277.78H985.243C986.388 277.78 987.306 278.075 987.997 278.664C988.689 279.253 989.034 280.052 989.034 281.061C989.034 281.854 988.813 282.523 988.371 283.067C987.929 283.611 987.323 283.985 986.552 284.189L989.714 289H988.099L985.039 284.342ZM982.353 283.067H985.226C986.813 283.067 987.606 282.398 987.606 281.061C987.606 279.724 986.813 279.055 985.226 279.055H982.353V283.067ZM1001.37 277.78C1003.14 277.78 1004.52 278.267 1005.52 279.242C1006.52 280.217 1007.02 281.599 1007.02 283.39C1007.02 285.181 1006.52 286.563 1005.52 287.538C1004.52 288.513 1003.14 289 1001.37 289H997.753V277.78H1001.37ZM1001.51 287.725C1002.79 287.725 1003.79 287.345 1004.5 286.586C1005.23 285.815 1005.59 284.75 1005.59 283.39C1005.59 282.03 1005.23 280.97 1004.5 280.211C1003.79 279.44 1002.79 279.055 1001.51 279.055H999.113V287.725H1001.51ZM1017.96 287.725V289H1009.83V277.78H1017.71V279.055H1011.19V282.676H1016.26V283.951H1011.19V287.725H1017.96ZM1021.87 289H1020.51V277.78H1021.87V289ZM1034.17 289H1032.49L1027.8 281.486L1026.61 279.276H1026.59L1026.66 281.078V289H1025.37V277.78H1027.05L1031.72 285.26L1032.93 287.504H1032.95L1032.88 285.702V277.78H1034.17V289ZM1045.81 287.725V289H1037.68V277.78H1045.55V279.055H1039.04V282.676H1044.11V283.951H1039.04V287.725H1045.81ZM932.745 297.78H936.74C938.032 297.78 938.989 298.052 939.613 298.596C940.247 299.129 940.565 299.888 940.565 300.874C940.565 301.463 940.395 301.985 940.055 302.438C939.726 302.891 939.267 303.175 938.678 303.288V303.305C939.335 303.43 939.862 303.73 940.259 304.206C940.655 304.682 940.854 305.232 940.854 305.855C940.854 306.818 940.491 307.583 939.766 308.15C939.04 308.717 938.026 309 936.723 309H932.745V297.78ZM936.757 302.71C937.561 302.71 938.156 302.563 938.542 302.268C938.938 301.962 939.137 301.497 939.137 300.874C939.137 299.661 938.343 299.055 936.757 299.055H934.105V302.71H936.757ZM937.046 307.725C937.839 307.725 938.434 307.566 938.831 307.249C939.227 306.92 939.426 306.456 939.426 305.855C939.426 305.254 939.227 304.795 938.831 304.478C938.434 304.149 937.839 303.985 937.046 303.985H934.105V307.725H937.046ZM951.807 307.725V309H943.681V297.78H951.552V299.055H945.041V302.676H950.107V303.951H945.041V307.725H951.807ZM958.126 309H956.443L953.128 297.78H954.59L957.293 307.929L959.945 297.78H961.492L964.144 307.963L966.864 297.78H968.241L964.943 309H963.26L961.271 301.724L960.693 299.191H960.676L960.098 301.724L958.126 309ZM978.644 307.725V309H970.518V297.78H978.389V299.055H971.878V302.676H976.944V303.951H971.878V307.725H978.644ZM985.235 304.342H982.549V309H981.189V297.78H985.439C986.583 297.78 987.501 298.075 988.193 298.664C988.884 299.253 989.23 300.052 989.23 301.061C989.23 301.854 989.009 302.523 988.567 303.067C988.125 303.611 987.518 303.985 986.748 304.189L989.91 309H988.295L985.235 304.342ZM982.549 303.067H985.422C987.008 303.067 987.802 302.398 987.802 301.061C987.802 299.724 987.008 299.055 985.422 299.055H982.549V303.067ZM992.324 297.78H996.319C997.611 297.78 998.569 298.052 999.192 298.596C999.827 299.129 1000.14 299.888 1000.14 300.874C1000.14 301.463 999.974 301.985 999.634 302.438C999.306 302.891 998.847 303.175 998.257 303.288V303.305C998.915 303.43 999.442 303.73 999.838 304.206C1000.23 304.682 1000.43 305.232 1000.43 305.855C1000.43 306.818 1000.07 307.583 999.345 308.15C998.62 308.717 997.606 309 996.302 309H992.324V297.78ZM996.336 302.71C997.141 302.71 997.736 302.563 998.121 302.268C998.518 301.962 998.716 301.497 998.716 300.874C998.716 299.661 997.923 299.055 996.336 299.055H993.684V302.71H996.336ZM996.625 307.725C997.419 307.725 998.014 307.566 998.41 307.249C998.807 306.92 999.005 306.456 999.005 305.855C999.005 305.254 998.807 304.795 998.41 304.478C998.014 304.149 997.419 303.985 996.625 303.985H993.684V307.725H996.625ZM1011.95 304.818C1011.95 306.257 1011.57 307.345 1010.81 308.082C1010.06 308.807 1008.97 309.17 1007.54 309.17C1006.12 309.17 1005.02 308.802 1004.26 308.065C1003.52 307.328 1003.14 306.246 1003.14 304.818V297.78H1004.5V304.478C1004.5 305.657 1004.75 306.524 1005.23 307.079C1005.73 307.623 1006.5 307.895 1007.54 307.895C1008.59 307.895 1009.35 307.623 1009.84 307.079C1010.34 306.524 1010.59 305.657 1010.59 304.478V297.78H1011.95V304.818ZM1024.13 309H1022.45L1017.76 301.486L1016.57 299.276H1016.55L1016.62 301.078V309H1015.33V297.78H1017.01L1021.68 305.26L1022.89 307.504H1022.91L1022.84 305.702V297.78H1024.13V309ZM1036.77 303.339V309H1035.75L1035.7 307.487C1035.37 308.031 1034.91 308.45 1034.3 308.745C1033.72 309.028 1033 309.17 1032.16 309.17C1031.11 309.17 1030.19 308.938 1029.41 308.473C1028.63 307.997 1028.02 307.328 1027.59 306.467C1027.17 305.594 1026.96 304.569 1026.96 303.39C1026.96 302.223 1027.18 301.203 1027.61 300.33C1028.05 299.457 1028.66 298.789 1029.44 298.324C1030.24 297.848 1031.15 297.61 1032.2 297.61C1033.31 297.61 1034.22 297.82 1034.93 298.239C1035.66 298.658 1036.24 299.304 1036.68 300.177L1035.44 300.857C1035.19 300.222 1034.79 299.735 1034.22 299.395C1033.66 299.055 1032.99 298.885 1032.2 298.885C1031.44 298.885 1030.77 299.066 1030.19 299.429C1029.62 299.792 1029.18 300.313 1028.86 300.993C1028.55 301.662 1028.39 302.461 1028.39 303.39C1028.39 304.818 1028.72 305.929 1029.37 306.722C1030.03 307.504 1030.98 307.895 1032.21 307.895C1033.19 307.895 1033.98 307.646 1034.59 307.147C1035.22 306.648 1035.53 305.934 1035.53 305.005V304.614H1031.96V303.339H1036.77ZM1047.9 307.725V309H1039.77V297.78H1047.64V299.055H1041.13V302.676H1046.2V303.951H1041.13V307.725H1047.9ZM1059.25 309H1057.57L1052.87 301.486L1051.68 299.276H1051.67L1051.74 301.078V309H1050.44V297.78H1052.13L1056.8 305.26L1058.01 307.504H1058.03L1057.96 305.702V297.78H1059.25V309Z" fill="#313131"/>
<path opacity="0.8" d="M1176.41 257.78C1177.55 257.78 1178.46 258.092 1179.15 258.715C1179.84 259.327 1180.19 260.154 1180.19 261.197C1180.19 262.24 1179.84 263.073 1179.15 263.696C1178.46 264.308 1177.55 264.614 1176.41 264.614H1173.81V269H1172.45V257.78H1176.41ZM1176.21 263.339C1177.08 263.339 1177.72 263.163 1178.13 262.812C1178.55 262.449 1178.76 261.911 1178.76 261.197C1178.76 260.483 1178.55 259.95 1178.13 259.599C1177.72 259.236 1177.08 259.055 1176.21 259.055H1173.81V263.339H1176.21ZM1186.26 257.61C1188.27 257.61 1189.71 258.403 1190.6 259.99L1189.42 260.942C1189.08 260.194 1188.68 259.667 1188.2 259.361C1187.74 259.044 1187.09 258.885 1186.28 258.885C1185.42 258.885 1184.74 259.066 1184.24 259.429C1183.75 259.78 1183.51 260.234 1183.51 260.789C1183.51 261.152 1183.6 261.452 1183.8 261.69C1183.99 261.928 1184.31 262.138 1184.75 262.319C1185.2 262.489 1185.83 262.642 1186.62 262.778C1188.1 263.027 1189.15 263.401 1189.76 263.9C1190.39 264.399 1190.7 265.09 1190.7 265.974C1190.7 266.609 1190.52 267.17 1190.15 267.657C1189.8 268.133 1189.3 268.507 1188.64 268.779C1187.98 269.04 1187.23 269.17 1186.36 269.17C1185.23 269.17 1184.26 268.949 1183.46 268.507C1182.66 268.065 1182.06 267.476 1181.64 266.739L1182.81 265.787C1183.12 266.456 1183.56 266.977 1184.15 267.351C1184.75 267.714 1185.5 267.895 1186.4 267.895C1187.28 267.895 1187.98 267.736 1188.51 267.419C1189.03 267.09 1189.29 266.631 1189.29 266.042C1189.29 265.543 1189.06 265.147 1188.61 264.852C1188.15 264.557 1187.35 264.308 1186.19 264.104C1184.7 263.843 1183.64 263.469 1183.01 262.982C1182.39 262.495 1182.08 261.815 1182.08 260.942C1182.08 260.341 1182.25 259.786 1182.59 259.276C1182.93 258.766 1183.42 258.364 1184.05 258.069C1184.69 257.763 1185.42 257.61 1186.26 257.61ZM1196.82 264.614V269H1195.46V264.614L1191.45 257.78H1193.06L1196.14 263.22L1199.22 257.78H1200.83L1196.82 264.614ZM1211.38 266.127C1211.03 267.079 1210.45 267.827 1209.65 268.371C1208.84 268.904 1207.92 269.17 1206.86 269.17C1205.81 269.17 1204.89 268.938 1204.11 268.473C1203.33 267.997 1202.72 267.328 1202.29 266.467C1201.87 265.594 1201.66 264.569 1201.66 263.39C1201.66 262.223 1201.87 261.203 1202.29 260.33C1202.72 259.457 1203.33 258.789 1204.11 258.324C1204.89 257.848 1205.8 257.61 1206.83 257.61C1207.9 257.61 1208.81 257.831 1209.53 258.273C1210.27 258.715 1210.82 259.367 1211.18 260.228L1209.84 260.857C1209.59 260.2 1209.22 259.707 1208.75 259.378C1208.27 259.049 1207.67 258.885 1206.93 258.885C1206.16 258.885 1205.48 259.066 1204.91 259.429C1204.33 259.78 1203.88 260.296 1203.56 260.976C1203.25 261.656 1203.09 262.461 1203.09 263.39C1203.09 264.795 1203.42 265.9 1204.09 266.705C1204.77 267.498 1205.69 267.895 1206.86 267.895C1207.62 267.895 1208.28 267.702 1208.83 267.317C1209.39 266.932 1209.79 266.365 1210.02 265.617L1211.38 266.127ZM1222.63 257.78V269H1221.27V263.951H1215.18V269H1213.82V257.78H1215.18V262.676H1221.27V257.78H1222.63ZM1230.66 257.61C1231.71 257.61 1232.63 257.848 1233.41 258.324C1234.2 258.789 1234.8 259.457 1235.22 260.33C1235.65 261.191 1235.86 262.211 1235.86 263.39C1235.86 264.569 1235.65 265.594 1235.22 266.467C1234.8 267.328 1234.2 267.997 1233.41 268.473C1232.63 268.938 1231.71 269.17 1230.66 269.17C1229.61 269.17 1228.69 268.938 1227.91 268.473C1227.12 267.997 1226.52 267.328 1226.09 266.467C1225.67 265.594 1225.46 264.569 1225.46 263.39C1225.46 262.211 1225.67 261.191 1226.09 260.33C1226.52 259.457 1227.12 258.789 1227.91 258.324C1228.69 257.848 1229.61 257.61 1230.66 257.61ZM1230.66 258.885C1229.49 258.885 1228.57 259.287 1227.89 260.092C1227.22 260.885 1226.89 261.985 1226.89 263.39C1226.89 264.795 1227.22 265.9 1227.89 266.705C1228.57 267.498 1229.49 267.895 1230.66 267.895C1231.83 267.895 1232.75 267.498 1233.41 266.705C1234.09 265.9 1234.43 264.795 1234.43 263.39C1234.43 261.985 1234.09 260.885 1233.41 260.092C1232.75 259.287 1231.83 258.885 1230.66 258.885ZM1249.53 269H1248.24V261.945L1248.39 258.987H1248.37L1244.69 269H1243.53L1239.84 258.987H1239.82L1239.98 261.945V269H1238.68V257.78H1240.78L1243.24 264.597L1244.09 267.402H1244.12L1244.99 264.614L1247.44 257.78H1249.53V269ZM1261.15 267.725V269H1253.02V257.78H1260.9V259.055H1254.38V262.676H1259.45V263.951H1254.38V267.725H1261.15ZM1271.58 259.055H1267.67V269H1266.31V259.055H1262.4V257.78H1271.58V259.055ZM1277.83 264.342H1275.15V269H1273.79V257.78H1278.04C1279.18 257.78 1280.1 258.075 1280.79 258.664C1281.48 259.253 1281.83 260.052 1281.83 261.061C1281.83 261.854 1281.61 262.523 1281.16 263.067C1280.72 263.611 1280.11 263.985 1279.34 264.189L1282.51 269H1280.89L1277.83 264.342ZM1275.15 263.067H1278.02C1279.6 263.067 1280.4 262.398 1280.4 261.061C1280.4 259.724 1279.6 259.055 1278.02 259.055H1275.15V263.067ZM1286.28 269H1284.92V257.78H1286.28V269ZM1297.91 267.725V269H1289.78V257.78H1297.65V259.055H1291.14V262.676H1296.21V263.951H1291.14V267.725H1297.91ZM1304.94 265.26H1299.33V263.849H1304.94V265.26ZM1322.45 264.818C1322.45 266.257 1322.07 267.345 1321.31 268.082C1320.56 268.807 1319.47 269.17 1318.04 269.17C1316.61 269.17 1315.52 268.802 1314.76 268.065C1314.01 267.328 1313.64 266.246 1313.64 264.818V257.78H1315V264.478C1315 265.657 1315.24 266.524 1315.73 267.079C1316.23 267.623 1317 267.895 1318.04 267.895C1319.09 267.895 1319.85 267.623 1320.34 267.079C1320.84 266.524 1321.09 265.657 1321.09 264.478V257.78H1322.45V264.818ZM1334.63 269H1332.95L1328.25 261.486L1327.06 259.276H1327.05L1327.12 261.078V269H1325.82V257.78H1327.51L1332.18 265.26L1333.39 267.504H1333.41L1333.34 265.702V257.78H1334.63V269ZM1341.76 257.78C1343.53 257.78 1344.91 258.267 1345.91 259.242C1346.9 260.217 1347.4 261.599 1347.4 263.39C1347.4 265.181 1346.9 266.563 1345.91 267.538C1344.91 268.513 1343.53 269 1341.76 269H1338.14V257.78H1341.76ZM1341.9 267.725C1343.18 267.725 1344.17 267.345 1344.89 266.586C1345.61 265.815 1345.98 264.75 1345.98 263.39C1345.98 262.03 1345.61 260.97 1344.89 260.211C1344.17 259.44 1343.18 259.055 1341.9 259.055H1339.5V267.725H1341.9ZM1158.38 287.725V289H1150.26V277.78H1158.13V279.055H1151.62V282.676H1156.68V283.951H1151.62V287.725H1158.38ZM1162.29 289H1160.93V277.78H1162.29V289ZM1174.92 283.339V289H1173.9L1173.84 287.487C1173.52 288.031 1173.05 288.45 1172.45 288.745C1171.86 289.028 1171.15 289.17 1170.31 289.17C1169.25 289.17 1168.34 288.938 1167.55 288.473C1166.77 287.997 1166.17 287.328 1165.74 286.467C1165.32 285.594 1165.11 284.569 1165.11 283.39C1165.11 282.223 1165.32 281.203 1165.75 280.33C1166.19 279.457 1166.81 278.789 1167.59 278.324C1168.38 277.848 1169.3 277.61 1170.34 277.61C1171.45 277.61 1172.37 277.82 1173.08 278.239C1173.8 278.658 1174.39 279.304 1174.83 280.177L1173.59 280.857C1173.34 280.222 1172.93 279.735 1172.37 279.395C1171.81 279.055 1171.14 278.885 1170.34 278.885C1169.58 278.885 1168.91 279.066 1168.34 279.429C1167.77 279.792 1167.33 280.313 1167.01 280.993C1166.69 281.662 1166.53 282.461 1166.53 283.39C1166.53 284.818 1166.86 285.929 1167.52 286.722C1168.18 287.504 1169.12 287.895 1170.36 287.895C1171.33 287.895 1172.13 287.646 1172.74 287.147C1173.36 286.648 1173.67 285.934 1173.67 285.005V284.614H1170.1V283.339H1174.92ZM1186.72 289H1185.04L1180.35 281.486L1179.16 279.276H1179.14L1179.21 281.078V289H1177.92V277.78H1179.6L1184.28 285.26L1185.48 287.504H1185.5L1185.43 285.702V277.78H1186.72V289ZM1198.92 284.818C1198.92 286.257 1198.54 287.345 1197.78 288.082C1197.03 288.807 1195.94 289.17 1194.52 289.17C1193.09 289.17 1191.99 288.802 1191.24 288.065C1190.49 287.328 1190.11 286.246 1190.11 284.818V277.78H1191.47V284.478C1191.47 285.657 1191.72 286.524 1192.2 287.079C1192.7 287.623 1193.47 287.895 1194.52 287.895C1195.56 287.895 1196.32 287.623 1196.81 287.079C1197.31 286.524 1197.56 285.657 1197.56 284.478V277.78H1198.92V284.818ZM1211.1 289H1209.42L1204.73 281.486L1203.54 279.276H1203.52L1203.59 281.078V289H1202.3V277.78H1203.98L1208.66 285.26L1209.86 287.504H1209.88L1209.81 285.702V277.78H1211.1V289ZM1223.74 283.339V289H1222.72L1222.67 287.487C1222.34 288.031 1221.88 288.45 1221.28 288.745C1220.69 289.028 1219.97 289.17 1219.13 289.17C1218.08 289.17 1217.16 288.938 1216.38 288.473C1215.6 287.997 1214.99 287.328 1214.56 286.467C1214.14 285.594 1213.93 284.569 1213.93 283.39C1213.93 282.223 1214.15 281.203 1214.58 280.33C1215.02 279.457 1215.63 278.789 1216.41 278.324C1217.21 277.848 1218.13 277.61 1219.17 277.61C1220.28 277.61 1221.19 277.82 1221.91 278.239C1222.63 278.658 1223.21 279.304 1223.66 280.177L1222.42 280.857C1222.17 280.222 1221.76 279.735 1221.19 279.395C1220.64 279.055 1219.96 278.885 1219.17 278.885C1218.41 278.885 1217.74 279.066 1217.16 279.429C1216.6 279.792 1216.15 280.313 1215.84 280.993C1215.52 281.662 1215.36 282.461 1215.36 283.39C1215.36 284.818 1215.69 285.929 1216.35 286.722C1217 287.504 1217.95 287.895 1219.19 287.895C1220.16 287.895 1220.95 287.646 1221.57 287.147C1222.19 286.648 1222.5 285.934 1222.5 285.005V284.614H1218.93V283.339H1223.74ZM1230.35 277.61C1232.35 277.61 1233.8 278.403 1234.68 279.99L1233.51 280.942C1233.17 280.194 1232.76 279.667 1232.29 279.361C1231.82 279.044 1231.18 278.885 1230.36 278.885C1229.5 278.885 1228.82 279.066 1228.32 279.429C1227.84 279.78 1227.59 280.234 1227.59 280.789C1227.59 281.152 1227.69 281.452 1227.88 281.69C1228.08 281.928 1228.39 282.138 1228.83 282.319C1229.29 282.489 1229.91 282.642 1230.7 282.778C1232.19 283.027 1233.24 283.401 1233.85 283.9C1234.47 284.399 1234.78 285.09 1234.78 285.974C1234.78 286.609 1234.6 287.17 1234.24 287.657C1233.89 288.133 1233.39 288.507 1232.73 288.779C1232.07 289.04 1231.31 289.17 1230.45 289.17C1229.32 289.17 1228.35 288.949 1227.54 288.507C1226.75 288.065 1226.14 287.476 1225.72 286.739L1226.9 285.787C1227.2 286.456 1227.65 286.977 1228.24 287.351C1228.84 287.714 1229.59 287.895 1230.48 287.895C1231.37 287.895 1232.07 287.736 1232.59 287.419C1233.11 287.09 1233.37 286.631 1233.37 286.042C1233.37 285.543 1233.15 285.147 1232.69 284.852C1232.24 284.557 1231.44 284.308 1230.28 284.104C1228.78 283.843 1227.72 283.469 1227.1 282.982C1226.48 282.495 1226.17 281.815 1226.17 280.942C1226.17 280.341 1226.34 279.786 1226.68 279.276C1227.02 278.766 1227.5 278.364 1228.14 278.069C1228.77 277.763 1229.51 277.61 1230.35 277.61ZM1241.09 277.78C1242.85 277.78 1244.24 278.267 1245.23 279.242C1246.23 280.217 1246.73 281.599 1246.73 283.39C1246.73 285.181 1246.23 286.563 1245.23 287.538C1244.24 288.513 1242.85 289 1241.09 289H1237.46V277.78H1241.09ZM1241.22 287.725C1242.5 287.725 1243.5 287.345 1244.21 286.586C1244.94 285.815 1245.3 284.75 1245.3 283.39C1245.3 282.03 1244.94 280.97 1244.21 280.211C1243.5 279.44 1242.5 279.055 1241.22 279.055H1238.82V287.725H1241.22ZM1250.91 289H1249.55V277.78H1250.91V289ZM1260.71 285.889H1255.63L1254.44 289H1253.01L1257.38 277.78H1259L1263.35 289H1261.9L1260.71 285.889ZM1260.22 284.614L1258.71 280.636L1258.18 279.072H1258.15L1257.65 280.585L1256.12 284.614H1260.22ZM1274.21 283.339V289H1273.19L1273.14 287.487C1272.81 288.031 1272.34 288.45 1271.74 288.745C1271.15 289.028 1270.44 289.17 1269.6 289.17C1268.55 289.17 1267.63 288.938 1266.85 288.473C1266.06 287.997 1265.46 287.328 1265.03 286.467C1264.61 285.594 1264.4 284.569 1264.4 283.39C1264.4 282.223 1264.61 281.203 1265.04 280.33C1265.49 279.457 1266.1 278.789 1266.88 278.324C1267.67 277.848 1268.59 277.61 1269.63 277.61C1270.74 277.61 1271.66 277.82 1272.37 278.239C1273.1 278.658 1273.68 279.304 1274.12 280.177L1272.88 280.857C1272.63 280.222 1272.22 279.735 1271.66 279.395C1271.1 279.055 1270.43 278.885 1269.63 278.885C1268.87 278.885 1268.21 279.066 1267.63 279.429C1267.06 279.792 1266.62 280.313 1266.3 280.993C1265.98 281.662 1265.83 282.461 1265.83 283.39C1265.83 284.818 1266.15 285.929 1266.81 286.722C1267.47 287.504 1268.42 287.895 1269.65 287.895C1270.63 287.895 1271.42 287.646 1272.03 287.147C1272.65 286.648 1272.97 285.934 1272.97 285.005V284.614H1269.4V283.339H1274.21ZM1286.02 289H1284.33L1279.64 281.486L1278.45 279.276H1278.43L1278.5 281.078V289H1277.21V277.78H1278.89L1283.57 285.26L1284.77 287.504H1284.79L1284.72 285.702V277.78H1286.02V289ZM1294.05 277.61C1295.1 277.61 1296.02 277.848 1296.8 278.324C1297.58 278.789 1298.18 279.457 1298.6 280.33C1299.03 281.191 1299.25 282.211 1299.25 283.39C1299.25 284.569 1299.03 285.594 1298.6 286.467C1298.18 287.328 1297.58 287.997 1296.8 288.473C1296.02 288.938 1295.1 289.17 1294.05 289.17C1292.99 289.17 1292.07 288.938 1291.29 288.473C1290.51 287.997 1289.9 287.328 1289.47 286.467C1289.05 285.594 1288.84 284.569 1288.84 283.39C1288.84 282.211 1289.05 281.191 1289.47 280.33C1289.9 279.457 1290.51 278.789 1291.29 278.324C1292.07 277.848 1292.99 277.61 1294.05 277.61ZM1294.05 278.885C1292.88 278.885 1291.95 279.287 1291.27 280.092C1290.61 280.885 1290.27 281.985 1290.27 283.39C1290.27 284.795 1290.61 285.9 1291.27 286.705C1291.95 287.498 1292.88 287.895 1294.05 287.895C1295.21 287.895 1296.13 287.498 1296.8 286.705C1297.48 285.9 1297.82 284.795 1297.82 283.39C1297.82 281.985 1297.48 280.885 1296.8 280.092C1296.13 279.287 1295.21 278.885 1294.05 278.885ZM1305.67 277.61C1307.68 277.61 1309.13 278.403 1310.01 279.99L1308.84 280.942C1308.5 280.194 1308.09 279.667 1307.61 279.361C1307.15 279.044 1306.51 278.885 1305.69 278.885C1304.83 278.885 1304.15 279.066 1303.65 279.429C1303.16 279.78 1302.92 280.234 1302.92 280.789C1302.92 281.152 1303.02 281.452 1303.21 281.69C1303.4 281.928 1303.72 282.138 1304.16 282.319C1304.61 282.489 1305.24 282.642 1306.03 282.778C1307.52 283.027 1308.56 283.401 1309.18 283.9C1309.8 284.399 1310.11 285.09 1310.11 285.974C1310.11 286.609 1309.93 287.17 1309.57 287.657C1309.22 288.133 1308.71 288.507 1308.05 288.779C1307.4 289.04 1306.64 289.17 1305.78 289.17C1304.64 289.17 1303.67 288.949 1302.87 288.507C1302.08 288.065 1301.47 287.476 1301.05 286.739L1302.22 285.787C1302.53 286.456 1302.98 286.977 1303.57 287.351C1304.17 287.714 1304.92 287.895 1305.81 287.895C1306.69 287.895 1307.4 287.736 1307.92 287.419C1308.44 287.09 1308.7 286.631 1308.7 286.042C1308.7 285.543 1308.47 285.147 1308.02 284.852C1307.57 284.557 1306.76 284.308 1305.61 284.104C1304.11 283.843 1303.05 283.469 1302.43 282.982C1301.8 282.495 1301.49 281.815 1301.49 280.942C1301.49 280.341 1301.66 279.786 1302 279.276C1302.34 278.766 1302.83 278.364 1303.46 278.069C1304.1 277.763 1304.84 277.61 1305.67 277.61ZM1320.16 279.055H1316.25V289H1314.89V279.055H1310.98V277.78H1320.16V279.055ZM1323.73 289H1322.37V277.78H1323.73V289ZM1330.83 277.61C1332.84 277.61 1334.28 278.403 1335.17 279.99L1333.99 280.942C1333.65 280.194 1333.24 279.667 1332.77 279.361C1332.3 279.044 1331.66 278.885 1330.85 278.885C1329.99 278.885 1329.31 279.066 1328.81 279.429C1328.32 279.78 1328.08 280.234 1328.08 280.789C1328.08 281.152 1328.17 281.452 1328.37 281.69C1328.56 281.928 1328.88 282.138 1329.32 282.319C1329.77 282.489 1330.39 282.642 1331.19 282.778C1332.67 283.027 1333.72 283.401 1334.33 283.9C1334.96 284.399 1335.27 285.09 1335.27 285.974C1335.27 286.609 1335.09 287.17 1334.72 287.657C1334.37 288.133 1333.87 288.507 1333.21 288.779C1332.55 289.04 1331.79 289.17 1330.93 289.17C1329.8 289.17 1328.83 288.949 1328.03 288.507C1327.23 288.065 1326.63 287.476 1326.21 286.739L1327.38 285.787C1327.69 286.456 1328.13 286.977 1328.72 287.351C1329.32 287.714 1330.07 287.895 1330.97 287.895C1331.85 287.895 1332.55 287.736 1333.07 287.419C1333.6 287.09 1333.86 286.631 1333.86 286.042C1333.86 285.543 1333.63 285.147 1333.18 284.852C1332.72 284.557 1331.92 284.308 1330.76 284.104C1329.27 283.843 1328.21 283.469 1327.58 282.982C1326.96 282.495 1326.65 281.815 1326.65 280.942C1326.65 280.341 1326.82 279.786 1327.16 279.276C1327.5 278.766 1327.99 278.364 1328.62 278.069C1329.26 277.763 1329.99 277.61 1330.83 277.61ZM1346.99 286.127C1346.64 287.079 1346.06 287.827 1345.26 288.371C1344.45 288.904 1343.52 289.17 1342.47 289.17C1341.42 289.17 1340.5 288.938 1339.72 288.473C1338.93 287.997 1338.33 287.328 1337.9 286.467C1337.48 285.594 1337.27 284.569 1337.27 283.39C1337.27 282.223 1337.48 281.203 1337.9 280.33C1338.33 279.457 1338.93 278.789 1339.72 278.324C1340.5 277.848 1341.4 277.61 1342.44 277.61C1343.51 277.61 1344.41 277.831 1345.14 278.273C1345.87 278.715 1346.42 279.367 1346.79 280.228L1345.44 280.857C1345.19 280.2 1344.83 279.707 1344.36 279.378C1343.88 279.049 1343.27 278.885 1342.54 278.885C1341.77 278.885 1341.09 279.066 1340.51 279.429C1339.94 279.78 1339.49 280.296 1339.17 280.976C1338.85 281.656 1338.7 282.461 1338.7 283.39C1338.7 284.795 1339.03 285.9 1339.7 286.705C1340.38 287.498 1341.3 287.895 1342.47 287.895C1343.23 287.895 1343.89 287.702 1344.44 287.317C1345 286.932 1345.39 286.365 1345.63 285.617L1346.99 286.127ZM1358.24 277.78V289H1356.88V283.951H1350.79V289H1349.43V277.78H1350.79V282.676H1356.88V277.78H1358.24ZM1369.87 287.725V289H1361.75V277.78H1369.62V279.055H1363.11V282.676H1368.17V283.951H1363.11V287.725H1369.87ZM1206.51 305.889H1201.43L1200.24 309H1198.81L1203.18 297.78H1204.79L1209.15 309H1207.7L1206.51 305.889ZM1206.02 304.614L1204.51 300.636L1203.98 299.072H1203.94L1203.45 300.585L1201.92 304.614H1206.02ZM1214.73 297.61C1216.73 297.61 1218.18 298.403 1219.06 299.99L1217.89 300.942C1217.55 300.194 1217.14 299.667 1216.67 299.361C1216.2 299.044 1215.56 298.885 1214.74 298.885C1213.88 298.885 1213.2 299.066 1212.7 299.429C1212.22 299.78 1211.97 300.234 1211.97 300.789C1211.97 301.152 1212.07 301.452 1212.26 301.69C1212.46 301.928 1212.77 302.138 1213.21 302.319C1213.67 302.489 1214.29 302.642 1215.08 302.778C1216.57 303.027 1217.62 303.401 1218.23 303.9C1218.85 304.399 1219.16 305.09 1219.16 305.974C1219.16 306.609 1218.98 307.17 1218.62 307.657C1218.27 308.133 1217.77 308.507 1217.11 308.779C1216.45 309.04 1215.69 309.17 1214.83 309.17C1213.7 309.17 1212.73 308.949 1211.92 308.507C1211.13 308.065 1210.52 307.476 1210.1 306.739L1211.28 305.787C1211.58 306.456 1212.03 306.977 1212.62 307.351C1213.22 307.714 1213.97 307.895 1214.86 307.895C1215.75 307.895 1216.45 307.736 1216.97 307.419C1217.49 307.09 1217.75 306.631 1217.75 306.042C1217.75 305.543 1217.53 305.147 1217.07 304.852C1216.62 304.557 1215.82 304.308 1214.66 304.104C1213.16 303.843 1212.1 303.469 1211.48 302.982C1210.86 302.495 1210.55 301.815 1210.55 300.942C1210.55 300.341 1210.72 299.786 1211.06 299.276C1211.4 298.766 1211.88 298.364 1212.52 298.069C1213.15 297.763 1213.89 297.61 1214.73 297.61ZM1225.45 297.61C1227.45 297.61 1228.9 298.403 1229.78 299.99L1228.61 300.942C1228.27 300.194 1227.86 299.667 1227.39 299.361C1226.92 299.044 1226.28 298.885 1225.47 298.885C1224.6 298.885 1223.92 299.066 1223.43 299.429C1222.94 299.78 1222.69 300.234 1222.69 300.789C1222.69 301.152 1222.79 301.452 1222.98 301.69C1223.18 301.928 1223.49 302.138 1223.94 302.319C1224.39 302.489 1225.01 302.642 1225.81 302.778C1227.29 303.027 1228.34 303.401 1228.95 303.9C1229.57 304.399 1229.89 305.09 1229.89 305.974C1229.89 306.609 1229.7 307.17 1229.34 307.657C1228.99 308.133 1228.49 308.507 1227.83 308.779C1227.17 309.04 1226.41 309.17 1225.55 309.17C1224.42 309.17 1223.45 308.949 1222.64 308.507C1221.85 308.065 1221.24 307.476 1220.82 306.739L1222 305.787C1222.3 306.456 1222.75 306.977 1223.34 307.351C1223.94 307.714 1224.69 307.895 1225.58 307.895C1226.47 307.895 1227.17 307.736 1227.69 307.419C1228.21 307.09 1228.47 306.631 1228.47 306.042C1228.47 305.543 1228.25 305.147 1227.79 304.852C1227.34 304.557 1226.54 304.308 1225.38 304.104C1223.88 303.843 1222.82 303.469 1222.2 302.982C1221.58 302.495 1221.27 301.815 1221.27 300.942C1221.27 300.341 1221.44 299.786 1221.78 299.276C1222.12 298.766 1222.6 298.364 1223.24 298.069C1223.87 297.763 1224.61 297.61 1225.45 297.61ZM1240.69 307.725V309H1232.57V297.78H1240.44V299.055H1233.93V302.676H1238.99V303.951H1233.93V307.725H1240.69ZM1246.84 297.61C1248.85 297.61 1250.29 298.403 1251.17 299.99L1250 300.942C1249.66 300.194 1249.25 299.667 1248.78 299.361C1248.31 299.044 1247.67 298.885 1246.86 298.885C1246 298.885 1245.32 299.066 1244.82 299.429C1244.33 299.78 1244.09 300.234 1244.09 300.789C1244.09 301.152 1244.18 301.452 1244.37 301.69C1244.57 301.928 1244.88 302.138 1245.33 302.319C1245.78 302.489 1246.4 302.642 1247.2 302.778C1248.68 303.027 1249.73 303.401 1250.34 303.9C1250.97 304.399 1251.28 305.09 1251.28 305.974C1251.28 306.609 1251.1 307.17 1250.73 307.657C1250.38 308.133 1249.88 308.507 1249.22 308.779C1248.56 309.04 1247.8 309.17 1246.94 309.17C1245.81 309.17 1244.84 308.949 1244.03 308.507C1243.24 308.065 1242.64 307.476 1242.22 306.739L1243.39 305.787C1243.69 306.456 1244.14 306.977 1244.73 307.351C1245.33 307.714 1246.08 307.895 1246.98 307.895C1247.86 307.895 1248.56 307.736 1249.08 307.419C1249.61 307.09 1249.87 306.631 1249.87 306.042C1249.87 305.543 1249.64 305.147 1249.19 304.852C1248.73 304.557 1247.93 304.308 1246.77 304.104C1245.28 303.843 1244.22 303.469 1243.59 302.982C1242.97 302.495 1242.66 301.815 1242.66 300.942C1242.66 300.341 1242.83 299.786 1243.17 299.276C1243.51 298.766 1244 298.364 1244.63 298.069C1245.26 297.763 1246 297.61 1246.84 297.61ZM1257.56 297.61C1259.57 297.61 1261.01 298.403 1261.9 299.99L1260.72 300.942C1260.38 300.194 1259.97 299.667 1259.5 299.361C1259.03 299.044 1258.39 298.885 1257.58 298.885C1256.72 298.885 1256.04 299.066 1255.54 299.429C1255.05 299.78 1254.81 300.234 1254.81 300.789C1254.81 301.152 1254.9 301.452 1255.1 301.69C1255.29 301.928 1255.61 302.138 1256.05 302.319C1256.5 302.489 1257.12 302.642 1257.92 302.778C1259.4 303.027 1260.45 303.401 1261.06 303.9C1261.69 304.399 1262 305.09 1262 305.974C1262 306.609 1261.82 307.17 1261.45 307.657C1261.1 308.133 1260.6 308.507 1259.94 308.779C1259.28 309.04 1258.52 309.17 1257.66 309.17C1256.53 309.17 1255.56 308.949 1254.76 308.507C1253.96 308.065 1253.36 307.476 1252.94 306.739L1254.11 305.787C1254.42 306.456 1254.86 306.977 1255.45 307.351C1256.05 307.714 1256.8 307.895 1257.7 307.895C1258.58 307.895 1259.28 307.736 1259.8 307.419C1260.33 307.09 1260.59 306.631 1260.59 306.042C1260.59 305.543 1260.36 305.147 1259.91 304.852C1259.45 304.557 1258.65 304.308 1257.49 304.104C1256 303.843 1254.94 303.469 1254.31 302.982C1253.69 302.495 1253.38 301.815 1253.38 300.942C1253.38 300.341 1253.55 299.786 1253.89 299.276C1254.23 298.766 1254.72 298.364 1255.35 298.069C1255.99 297.763 1256.72 297.61 1257.56 297.61ZM1275.52 309H1274.23V301.945L1274.38 298.987H1274.37L1270.68 309H1269.52L1265.83 298.987H1265.82L1265.97 301.945V309H1264.68V297.78H1266.77L1269.23 304.597L1270.08 307.402H1270.12L1270.98 304.614L1273.43 297.78H1275.52V309ZM1287.14 307.725V309H1279.02V297.78H1286.89V299.055H1280.38V302.676H1285.44V303.951H1280.38V307.725H1287.14ZM1298.49 309H1296.81L1292.12 301.486L1290.93 299.276H1290.91L1290.98 301.078V309H1289.69V297.78H1291.37L1296.05 305.26L1297.25 307.504H1297.27L1297.2 305.702V297.78H1298.49V309ZM1309.89 299.055H1305.98V309H1304.62V299.055H1300.71V297.78H1309.89V299.055ZM1315.18 297.61C1317.19 297.61 1318.63 298.403 1319.52 299.99L1318.34 300.942C1318 300.194 1317.6 299.667 1317.12 299.361C1316.65 299.044 1316.01 298.885 1315.2 298.885C1314.34 298.885 1313.66 299.066 1313.16 299.429C1312.67 299.78 1312.43 300.234 1312.43 300.789C1312.43 301.152 1312.52 301.452 1312.72 301.69C1312.91 301.928 1313.23 302.138 1313.67 302.319C1314.12 302.489 1314.74 302.642 1315.54 302.778C1317.02 303.027 1318.07 303.401 1318.68 303.9C1319.31 304.399 1319.62 305.09 1319.62 305.974C1319.62 306.609 1319.44 307.17 1319.07 307.657C1318.72 308.133 1318.22 308.507 1317.56 308.779C1316.9 309.04 1316.14 309.17 1315.28 309.17C1314.15 309.17 1313.18 308.949 1312.38 308.507C1311.58 308.065 1310.98 307.476 1310.56 306.739L1311.73 305.787C1312.04 306.456 1312.48 306.977 1313.07 307.351C1313.67 307.714 1314.42 307.895 1315.32 307.895C1316.2 307.895 1316.9 307.736 1317.43 307.419C1317.95 307.09 1318.21 306.631 1318.21 306.042C1318.21 305.543 1317.98 305.147 1317.53 304.852C1317.07 304.557 1316.27 304.308 1315.11 304.104C1313.62 303.843 1312.56 303.469 1311.93 302.982C1311.31 302.495 1311 301.815 1311 300.942C1311 300.341 1311.17 299.786 1311.51 299.276C1311.85 298.766 1312.34 298.364 1312.97 298.069C1313.61 297.763 1314.34 297.61 1315.18 297.61Z" fill="#313131"/>
<path opacity="0.8" d="M28.0837 537.725V539H20.2977V527.78H21.6577V537.725H28.0837ZM38.4138 537.725V539H30.2878V527.78H38.1588V529.055H31.6478V532.676H36.7138V533.951H31.6478V537.725H38.4138ZM40.9587 527.78H44.9537C46.2457 527.78 47.2033 528.052 47.8267 528.596C48.4613 529.129 48.7787 529.888 48.7787 530.874C48.7787 531.463 48.6087 531.985 48.2687 532.438C47.94 532.891 47.481 533.175 46.8917 533.288V533.305C47.549 533.43 48.076 533.73 48.4727 534.206C48.8693 534.682 49.0677 535.232 49.0677 535.855C49.0677 536.818 48.705 537.583 47.9797 538.15C47.2543 538.717 46.24 539 44.9367 539H40.9587V527.78ZM44.9707 532.71C45.7753 532.71 46.3703 532.563 46.7557 532.268C47.1523 531.962 47.3507 531.497 47.3507 530.874C47.3507 529.661 46.5573 529.055 44.9707 529.055H42.3187V532.71H44.9707ZM45.2597 537.725C46.053 537.725 46.648 537.566 47.0447 537.249C47.4413 536.92 47.6397 536.456 47.6397 535.855C47.6397 535.254 47.4413 534.795 47.0447 534.478C46.648 534.149 46.053 533.985 45.2597 533.985H42.3187V537.725H45.2597ZM60.0211 537.725V539H51.8951V527.78H59.7661V529.055H53.2551V532.676H58.3211V533.951H53.2551V537.725H60.0211ZM71.3719 539H69.6889L64.9969 531.486L63.8069 529.276H63.7899L63.8579 531.078V539H62.5659V527.78H64.2489L68.9239 535.26L70.1309 537.504H70.1479L70.0799 535.702V527.78H71.3719V539ZM78.4843 527.61C80.4903 527.61 81.9353 528.403 82.8193 529.99L81.6463 530.942C81.3063 530.194 80.8983 529.667 80.4223 529.361C79.9576 529.044 79.3173 528.885 78.5013 528.885C77.64 528.885 76.96 529.066 76.4613 529.429C75.974 529.78 75.7303 530.234 75.7303 530.789C75.7303 531.152 75.8266 531.452 76.0193 531.69C76.212 531.928 76.5293 532.138 76.9713 532.319C77.4246 532.489 78.048 532.642 78.8413 532.778C80.326 533.027 81.3743 533.401 81.9863 533.9C82.6096 534.399 82.9213 535.09 82.9213 535.974C82.9213 536.609 82.74 537.17 82.3773 537.657C82.026 538.133 81.5216 538.507 80.8643 538.779C80.207 539.04 79.4476 539.17 78.5863 539.17C77.453 539.17 76.484 538.949 75.6793 538.507C74.886 538.065 74.2796 537.476 73.8603 536.739L75.0333 535.787C75.3393 536.456 75.787 536.977 76.3763 537.351C76.977 537.714 77.725 537.895 78.6203 537.895C79.5043 537.895 80.207 537.736 80.7283 537.419C81.2496 537.09 81.5103 536.631 81.5103 536.042C81.5103 535.543 81.2836 535.147 80.8303 534.852C80.377 534.557 79.5723 534.308 78.4163 534.104C76.9203 533.843 75.8606 533.469 75.2373 532.982C74.614 532.495 74.3023 531.815 74.3023 530.942C74.3023 530.341 74.4723 529.786 74.8123 529.276C75.1523 528.766 75.6396 528.364 76.2743 528.069C76.909 527.763 77.6456 527.61 78.4843 527.61ZM93.3869 537.725V539H85.6009V527.78H86.9609V537.725H93.3869ZM101.898 535.889H96.8151L95.6251 539H94.1971L98.5661 527.78H100.181L104.533 539H103.088L101.898 535.889ZM101.405 534.614L99.8921 530.636L99.3651 529.072H99.3311L98.8381 530.585L97.3081 534.614H101.405ZM114.949 534.818C114.949 536.257 114.569 537.345 113.81 538.082C113.062 538.807 111.974 539.17 110.546 539.17C109.118 539.17 108.024 538.802 107.265 538.065C106.517 537.328 106.143 536.246 106.143 534.818V527.78H107.503V534.478C107.503 535.657 107.747 536.524 108.234 537.079C108.733 537.623 109.503 537.895 110.546 537.895C111.589 537.895 112.354 537.623 112.841 537.079C113.34 536.524 113.589 535.657 113.589 534.478V527.78H114.949V534.818ZM119.687 529.055V532.676H124.753V533.951H119.687V539H118.327V527.78H126.181V529.055H119.687ZM133.173 535.26H127.563V533.849H133.173V535.26ZM145.494 533.339V539H144.474L144.423 537.487C144.095 538.031 143.63 538.45 143.029 538.745C142.44 539.028 141.726 539.17 140.887 539.17C139.833 539.17 138.915 538.938 138.133 538.473C137.351 537.997 136.745 537.328 136.314 536.467C135.895 535.594 135.685 534.569 135.685 533.39C135.685 532.223 135.901 531.203 136.331 530.33C136.773 529.457 137.385 528.789 138.167 528.324C138.961 527.848 139.879 527.61 140.921 527.61C142.032 527.61 142.944 527.82 143.658 528.239C144.384 528.658 144.967 529.304 145.409 530.177L144.168 530.857C143.919 530.222 143.511 529.735 142.944 529.395C142.389 529.055 141.715 528.885 140.921 528.885C140.162 528.885 139.493 529.066 138.915 529.429C138.349 529.792 137.907 530.313 137.589 530.993C137.272 531.662 137.113 532.461 137.113 533.39C137.113 534.818 137.442 535.929 138.099 536.722C138.757 537.504 139.703 537.895 140.938 537.895C141.913 537.895 142.706 537.646 143.318 537.147C143.942 536.648 144.253 535.934 144.253 535.005V534.614H140.683V533.339H145.494ZM156.623 537.725V539H148.497V527.78H156.368V529.055H149.857V532.676H154.923V533.951H149.857V537.725H156.623ZM167.974 539H166.291L161.599 531.486L160.409 529.276H160.392L160.46 531.078V539H159.168V527.78H160.851L165.526 535.26L166.733 537.504H166.75L166.682 535.702V527.78H167.974V539ZM179.608 537.725V539H171.482V527.78H179.353V529.055H172.842V532.676H177.908V533.951H172.842V537.725H179.608ZM186.199 534.342H183.513V539H182.153V527.78H186.403C187.548 527.78 188.466 528.075 189.157 528.664C189.848 529.253 190.194 530.052 190.194 531.061C190.194 531.854 189.973 532.523 189.531 533.067C189.089 533.611 188.483 533.985 187.712 534.189L190.874 539H189.259L186.199 534.342ZM183.513 533.067H186.386C187.973 533.067 188.766 532.398 188.766 531.061C188.766 529.724 187.973 529.055 186.386 529.055H183.513V533.067ZM199.596 535.889H194.513L193.323 539H191.895L196.264 527.78H197.879L202.231 539H200.786L199.596 535.889ZM199.103 534.614L197.59 530.636L197.063 529.072H197.029L196.536 530.585L195.006 534.614H199.103ZM210.702 529.055H206.792V539H205.432V529.055H201.522V527.78H210.702V529.055ZM217.044 527.61C218.098 527.61 219.016 527.848 219.798 528.324C220.58 528.789 221.181 529.457 221.6 530.33C222.031 531.191 222.246 532.211 222.246 533.39C222.246 534.569 222.031 535.594 221.6 536.467C221.181 537.328 220.58 537.997 219.798 538.473C219.016 538.938 218.098 539.17 217.044 539.17C215.99 539.17 215.072 538.938 214.29 538.473C213.508 537.997 212.902 537.328 212.471 536.467C212.052 535.594 211.842 534.569 211.842 533.39C211.842 532.211 212.052 531.191 212.471 530.33C212.902 529.457 213.508 528.789 214.29 528.324C215.072 527.848 215.99 527.61 217.044 527.61ZM217.044 528.885C215.877 528.885 214.953 529.287 214.273 530.092C213.604 530.885 213.27 531.985 213.27 533.39C213.27 534.795 213.604 535.9 214.273 536.705C214.953 537.498 215.877 537.895 217.044 537.895C218.211 537.895 219.129 537.498 219.798 536.705C220.478 535.9 220.818 534.795 220.818 533.39C220.818 531.985 220.478 530.885 219.798 530.092C219.129 529.287 218.211 528.885 217.044 528.885ZM229.115 534.342H226.429V539H225.069V527.78H229.319C230.463 527.78 231.381 528.075 232.073 528.664C232.764 529.253 233.11 530.052 233.11 531.061C233.11 531.854 232.889 532.523 232.447 533.067C232.005 533.611 231.398 533.985 230.628 534.189L233.79 539H232.175L229.115 534.342ZM226.429 533.067H229.302C230.888 533.067 231.682 532.398 231.682 531.061C231.682 529.724 230.888 529.055 229.302 529.055H226.429V533.067Z" fill="#313131"/>
<path opacity="0.8" d="M394.831 516.356L392.825 518.396V522H391.465V510.78H392.825V516.56L398.469 510.78H400.254L395.783 515.353L400.305 522H398.673L394.831 516.356ZM410.237 520.725V522H402.451V510.78H403.811V520.725H410.237ZM413.801 522H412.441V510.78H413.801V522ZM426.345 519.127C425.994 520.079 425.416 520.827 424.611 521.371C423.807 521.904 422.877 522.17 421.823 522.17C420.769 522.17 419.851 521.938 419.069 521.473C418.287 520.997 417.681 520.328 417.25 519.467C416.831 518.594 416.621 517.569 416.621 516.39C416.621 515.223 416.831 514.203 417.25 513.33C417.681 512.457 418.287 511.789 419.069 511.324C419.851 510.848 420.758 510.61 421.789 510.61C422.866 510.61 423.767 510.831 424.492 511.273C425.229 511.715 425.779 512.367 426.141 513.228L424.798 513.857C424.549 513.2 424.186 512.707 423.71 512.378C423.234 512.049 422.628 511.885 421.891 511.885C421.121 511.885 420.446 512.066 419.868 512.429C419.29 512.78 418.843 513.296 418.525 513.976C418.208 514.656 418.049 515.461 418.049 516.39C418.049 517.795 418.384 518.9 419.052 519.705C419.732 520.498 420.656 520.895 421.823 520.895C422.583 520.895 423.24 520.702 423.795 520.317C424.351 519.932 424.747 519.365 424.985 518.617L426.345 519.127ZM432.151 516.356L430.145 518.396V522H428.785V510.78H430.145V516.56L435.789 510.78H437.574L433.103 515.353L437.625 522H435.993L432.151 516.356ZM445.18 510.78H449.175C450.467 510.78 451.425 511.052 452.048 511.596C452.683 512.129 453 512.888 453 513.874C453 514.463 452.83 514.985 452.49 515.438C452.161 515.891 451.702 516.175 451.113 516.288V516.305C451.77 516.43 452.297 516.73 452.694 517.206C453.091 517.682 453.289 518.232 453.289 518.855C453.289 519.818 452.926 520.583 452.201 521.15C451.476 521.717 450.461 522 449.158 522H445.18V510.78ZM449.192 515.71C449.997 515.71 450.592 515.563 450.977 515.268C451.374 514.962 451.572 514.497 451.572 513.874C451.572 512.661 450.779 512.055 449.192 512.055H446.54V515.71H449.192ZM449.481 520.725C450.274 520.725 450.869 520.566 451.266 520.249C451.663 519.92 451.861 519.456 451.861 518.855C451.861 518.254 451.663 517.795 451.266 517.478C450.869 517.149 450.274 516.985 449.481 516.985H446.54V520.725H449.481ZM464.242 520.725V522H456.116V510.78H463.987V512.055H457.476V515.676H462.542V516.951H457.476V520.725H464.242ZM470.561 522H468.878L465.563 510.78H467.025L469.728 520.929L472.38 510.78H473.927L476.579 520.963L479.299 510.78H480.676L477.378 522H475.695L473.706 514.724L473.128 512.191H473.111L472.533 514.724L470.561 522ZM491.079 520.725V522H482.953V510.78H490.824V512.055H484.313V515.676H489.379V516.951H484.313V520.725H491.079ZM497.67 517.342H494.984V522H493.624V510.78H497.874C499.019 510.78 499.937 511.075 500.628 511.664C501.319 512.253 501.665 513.052 501.665 514.061C501.665 514.854 501.444 515.523 501.002 516.067C500.56 516.611 499.954 516.985 499.183 517.189L502.345 522H500.73L497.67 517.342ZM494.984 516.067H497.857C499.444 516.067 500.237 515.398 500.237 514.061C500.237 512.724 499.444 512.055 497.857 512.055H494.984V516.067ZM504.76 510.78H508.755C510.047 510.78 511.004 511.052 511.628 511.596C512.262 512.129 512.58 512.888 512.58 513.874C512.58 514.463 512.41 514.985 512.07 515.438C511.741 515.891 511.282 516.175 510.693 516.288V516.305C511.35 516.43 511.877 516.73 512.274 517.206C512.67 517.682 512.869 518.232 512.869 518.855C512.869 519.818 512.506 520.583 511.781 521.15C511.055 521.717 510.041 522 508.738 522H504.76V510.78ZM508.772 515.71C509.576 515.71 510.171 515.563 510.557 515.268C510.953 514.962 511.152 514.497 511.152 513.874C511.152 512.661 510.358 512.055 508.772 512.055H506.12V515.71H508.772ZM509.061 520.725C509.854 520.725 510.449 520.566 510.846 520.249C511.242 519.92 511.441 519.456 511.441 518.855C511.441 518.254 511.242 517.795 510.846 517.478C510.449 517.149 509.854 516.985 509.061 516.985H506.12V520.725H509.061ZM524.383 517.818C524.383 519.257 524.003 520.345 523.244 521.082C522.496 521.807 521.408 522.17 519.98 522.17C518.552 522.17 517.458 521.802 516.699 521.065C515.951 520.328 515.577 519.246 515.577 517.818V510.78H516.937V517.478C516.937 518.657 517.181 519.524 517.668 520.079C518.167 520.623 518.937 520.895 519.98 520.895C521.023 520.895 521.788 520.623 522.275 520.079C522.774 519.524 523.023 518.657 523.023 517.478V510.78H524.383V517.818ZM536.567 522H534.884L530.192 514.486L529.002 512.276H528.985L529.053 514.078V522H527.761V510.78H529.444L534.119 518.26L535.326 520.504H535.343L535.275 518.702V510.78H536.567V522ZM549.205 516.339V522H548.185L548.134 520.487C547.805 521.031 547.34 521.45 546.74 521.745C546.15 522.028 545.436 522.17 544.598 522.17C543.544 522.17 542.626 521.938 541.844 521.473C541.062 520.997 540.455 520.328 540.025 519.467C539.605 518.594 539.396 517.569 539.396 516.39C539.396 515.223 539.611 514.203 540.042 513.33C540.484 512.457 541.096 511.789 541.878 511.324C542.671 510.848 543.589 510.61 544.632 510.61C545.742 510.61 546.655 510.82 547.369 511.239C548.094 511.658 548.678 512.304 549.12 513.177L547.879 513.857C547.629 513.222 547.221 512.735 546.655 512.395C546.099 512.055 545.425 511.885 544.632 511.885C543.872 511.885 543.204 512.066 542.626 512.429C542.059 512.792 541.617 513.313 541.3 513.993C540.982 514.662 540.824 515.461 540.824 516.39C540.824 517.818 541.152 518.929 541.81 519.722C542.467 520.504 543.413 520.895 544.649 520.895C545.623 520.895 546.417 520.646 547.029 520.147C547.652 519.648 547.964 518.934 547.964 518.005V517.614H544.394V516.339H549.205ZM399.701 530.78C401.469 530.78 402.851 531.267 403.849 532.242C404.846 533.217 405.345 534.599 405.345 536.39C405.345 538.181 404.846 539.563 403.849 540.538C402.851 541.513 401.469 542 399.701 542H396.08V530.78H399.701ZM399.837 540.725C401.117 540.725 402.115 540.345 402.829 539.586C403.554 538.815 403.917 537.75 403.917 536.39C403.917 535.03 403.554 533.97 402.829 533.211C402.115 532.44 401.117 532.055 399.837 532.055H397.44V540.725H399.837ZM409.522 542H408.162V530.78H409.522V542ZM417.068 537.342H414.382V542H413.022V530.78H417.272C418.417 530.78 419.335 531.075 420.026 531.664C420.717 532.253 421.063 533.052 421.063 534.061C421.063 534.854 420.842 535.523 420.4 536.067C419.958 536.611 419.352 536.985 418.581 537.189L421.743 542H420.128L417.068 537.342ZM414.382 536.067H417.255C418.842 536.067 419.635 535.398 419.635 534.061C419.635 532.724 418.842 532.055 417.255 532.055H414.382V536.067ZM432.284 540.725V542H424.158V530.78H432.029V532.055H425.518V535.676H430.584V536.951H425.518V540.725H432.284ZM438.194 536.356L436.188 538.396V542H434.828V530.78H436.188V536.56L441.832 530.78H443.617L439.146 535.353L443.668 542H442.036L438.194 536.356ZM453.703 532.055H449.793V542H448.433V532.055H444.523V530.78H453.703V532.055ZM466.69 538.889H461.607L460.417 542H458.989L463.358 530.78H464.973L469.325 542H467.88L466.69 538.889ZM466.197 537.614L464.684 533.636L464.157 532.072H464.123L463.63 533.585L462.1 537.614H466.197ZM479.741 537.818C479.741 539.257 479.361 540.345 478.602 541.082C477.854 541.807 476.766 542.17 475.338 542.17C473.91 542.17 472.816 541.802 472.057 541.065C471.309 540.328 470.935 539.246 470.935 537.818V530.78H472.295V537.478C472.295 538.657 472.538 539.524 473.026 540.079C473.524 540.623 474.295 540.895 475.338 540.895C476.38 540.895 477.145 540.623 477.633 540.079C478.131 539.524 478.381 538.657 478.381 537.478V530.78H479.741V537.818ZM484.479 532.055V535.676H489.545V536.951H484.479V542H483.119V530.78H490.973V532.055H484.479ZM498.551 530.78H502.546C503.838 530.78 504.795 531.052 505.419 531.596C506.053 532.129 506.371 532.888 506.371 533.874C506.371 534.463 506.201 534.985 505.861 535.438C505.532 535.891 505.073 536.175 504.484 536.288V536.305C505.141 536.43 505.668 536.73 506.065 537.206C506.461 537.682 506.66 538.232 506.66 538.855C506.66 539.818 506.297 540.583 505.572 541.15C504.846 541.717 503.832 542 502.529 542H498.551V530.78ZM502.563 535.71C503.367 535.71 503.962 535.563 504.348 535.268C504.744 534.962 504.943 534.497 504.943 533.874C504.943 532.661 504.149 532.055 502.563 532.055H499.911V535.71H502.563ZM502.852 540.725C503.645 540.725 504.24 540.566 504.637 540.249C505.033 539.92 505.232 539.456 505.232 538.855C505.232 538.254 505.033 537.795 504.637 537.478C504.24 537.149 503.645 536.985 502.852 536.985H499.911V540.725H502.852ZM517.613 540.725V542H509.487V530.78H517.358V532.055H510.847V535.676H515.913V536.951H510.847V540.725H517.613ZM521.518 542H520.158V530.78H521.518V542ZM533.824 542H532.141L527.449 534.486L526.259 532.276H526.242L526.31 534.078V542H525.018V530.78H526.701L531.376 538.26L532.583 540.504H532.6L532.532 538.702V530.78H533.824V542ZM545.22 532.055H541.31V542H539.95V532.055H536.04V530.78H545.22V532.055Z" fill="#313131"/>
<path d="M718 40C715.239 40 713 42.2386 713 45C713 47.7614 715.239 50 718 50C720.761 50 723 47.7614 723 45C722.992 42.242 720.758 40.0082 718 40ZM748 40C745.239 40 743 42.2386 743 45C743 47.7614 745.239 50 748 50C750.761 50 753 47.7614 753 45C752.992 42.242 750.758 40.0082 748 40ZM733 40C730.239 40 728 42.2386 728 45C728 47.7614 730.239 50 733 50C735.761 50 738 47.7614 738 45C737.992 42.242 735.758 40.0082 733 40Z" fill="#434784"/>
<path d="M981 40C978.239 40 976 42.2386 976 45C976 47.7614 978.239 50 981 50C983.761 50 986 47.7614 986 45C985.992 42.242 983.758 40.0082 981 40ZM1011 40C1008.24 40 1006 42.2386 1006 45C1006 47.7614 1008.24 50 1011 50C1013.76 50 1016 47.7614 1016 45C1015.99 42.242 1013.76 40.0082 1011 40ZM996 40C993.239 40 991 42.2386 991 45C991 47.7614 993.239 50 996 50C998.761 50 1001 47.7614 1001 45C1000.99 42.242 998.758 40.0082 996 40Z" fill="#434784"/>
<path d="M1244 40C1241.24 40 1239 42.2386 1239 45C1239 47.7614 1241.24 50 1244 50C1246.76 50 1249 47.7614 1249 45C1248.99 42.242 1246.76 40.0082 1244 40ZM1274 40C1271.24 40 1269 42.2386 1269 45C1269 47.7614 1271.24 50 1274 50C1276.76 50 1279 47.7614 1279 45C1278.99 42.242 1276.76 40.0082 1274 40ZM1259 40C1256.24 40 1254 42.2386 1254 45C1254 47.7614 1256.24 50 1259 50C1261.76 50 1264 47.7614 1264 45C1263.99 42.242 1261.76 40.0082 1259 40Z" fill="#434784"/>
<rect x="410" y="360" width="120" height="120" rx="60" fill="#F4F4F4"/>
<path d="M468.697 400.51C463.536 400.51 458.673 402.001 454.604 404.487V385H442V427.255C442 442.069 454.009 454 468.697 454C483.386 454 495.394 441.97 495.394 427.255C495.494 412.441 483.485 400.51 468.697 400.51ZM468.697 441.373C460.956 441.373 454.604 435.11 454.604 427.255C454.604 419.5 460.857 413.137 468.697 413.137C476.538 413.137 482.79 419.401 482.79 427.255C482.79 435.01 476.538 441.373 468.697 441.373Z" fill="#434784"/>
<path d="M509 446.379C509 450.588 505.594 454 501.392 454C497.191 454 493.784 450.588 493.784 446.379C493.784 442.169 497.191 438.757 501.392 438.757C505.594 438.757 509 442.169 509 446.379Z" fill="#434784"/>
<defs>
<filter id="filter0_d" x="0" y="100" width="254" height="232" filterUnits="userSpaceOnUse" color-interpolation-filters="sRGB">
<feFlood flood-opacity="0" result="BackgroundImageFix"/>
<feColorMatrix in="SourceAlpha" type="matrix" values="0 0 0 0 0 0 0 0 0 0 0 0 0 0 0 0 0 0 127 0"/>
<feOffset dy="1"/>
<feGaussianBlur stdDeviation="1.5"/>
<feColorMatrix type="matrix" values="0 0 0 0 0 0 0 0 0 0 0 0 0 0 0 0 0 0 0.17 0"/>
<feBlend mode="normal" in2="BackgroundImageFix" result="effect1_dropShadow"/>
<feBlend mode="normal" in="SourceGraphic" in2="effect1_dropShadow" result="shape"/>
</filter>
<filter id="filter1_d" x="343" y="100" width="254" height="232" filterUnits="userSpaceOnUse" color-interpolation-filters="sRGB">
<feFlood flood-opacity="0" result="BackgroundImageFix"/>
<feColorMatrix in="SourceAlpha" type="matrix" values="0 0 0 0 0 0 0 0 0 0 0 0 0 0 0 0 0 0 127 0"/>
<feOffset dy="1"/>
<feGaussianBlur stdDeviation="1.5"/>
<feColorMatrix type="matrix" values="0 0 0 0 0 0 0 0 0 0 0 0 0 0 0 0 0 0 0.17 0"/>
<feBlend mode="normal" in2="BackgroundImageFix" result="effect1_dropShadow"/>
<feBlend mode="normal" in="SourceGraphic" in2="effect1_dropShadow" result="shape"/>
</filter>
<filter id="filter2_d" x="606" y="100" width="254" height="232" filterUnits="userSpaceOnUse" color-interpolation-filters="sRGB">
<feFlood flood-opacity="0" result="BackgroundImageFix"/>
<feColorMatrix in="SourceAlpha" type="matrix" values="0 0 0 0 0 0 0 0 0 0 0 0 0 0 0 0 0 0 127 0"/>
<feOffset dy="1"/>
<feGaussianBlur stdDeviation="1.5"/>
<feColorMatrix type="matrix" values="0 0 0 0 0 0 0 0 0 0 0 0 0 0 0 0 0 0 0.17 0"/>
<feBlend mode="normal" in2="BackgroundImageFix" result="effect1_dropShadow"/>
<feBlend mode="normal" in="SourceGraphic" in2="effect1_dropShadow" result="shape"/>
</filter>
<filter id="filter3_d" x="869" y="100" width="254" height="232" filterUnits="userSpaceOnUse" color-interpolation-filters="sRGB">
<feFlood flood-opacity="0" result="BackgroundImageFix"/>
<feColorMatrix in="SourceAlpha" type="matrix" values="0 0 0 0 0 0 0 0 0 0 0 0 0 0 0 0 0 0 127 0"/>
<feOffset dy="1"/>
<feGaussianBlur stdDeviation="1.5"/>
<feColorMatrix type="matrix" values="0 0 0 0 0 0 0 0 0 0 0 0 0 0 0 0 0 0 0.17 0"/>
<feBlend mode="normal" in2="BackgroundImageFix" result="effect1_dropShadow"/>
<feBlend mode="normal" in="SourceGraphic" in2="effect1_dropShadow" result="shape"/>
</filter>
<filter id="filter4_d" x="1132" y="100" width="254" height="232" filterUnits="userSpaceOnUse" color-interpolation-filters="sRGB">
<feFlood flood-opacity="0" result="BackgroundImageFix"/>
<feColorMatrix in="SourceAlpha" type="matrix" values="0 0 0 0 0 0 0 0 0 0 0 0 0 0 0 0 0 0 127 0"/>
<feOffset dy="1"/>
<feGaussianBlur stdDeviation="1.5"/>
<feColorMatrix type="matrix" values="0 0 0 0 0 0 0 0 0 0 0 0 0 0 0 0 0 0 0.17 0"/>
<feBlend mode="normal" in2="BackgroundImageFix" result="effect1_dropShadow"/>
<feBlend mode="normal" in="SourceGraphic" in2="effect1_dropShadow" result="shape"/>
</filter>
<filter id="filter5_d" x="0" y="343" width="254" height="232" filterUnits="userSpaceOnUse" color-interpolation-filters="sRGB">
<feFlood flood-opacity="0" result="BackgroundImageFix"/>
<feColorMatrix in="SourceAlpha" type="matrix" values="0 0 0 0 0 0 0 0 0 0 0 0 0 0 0 0 0 0 127 0"/>
<feOffset dy="1"/>
<feGaussianBlur stdDeviation="1.5"/>
<feColorMatrix type="matrix" values="0 0 0 0 0 0 0 0 0 0 0 0 0 0 0 0 0 0 0.17 0"/>
<feBlend mode="normal" in2="BackgroundImageFix" result="effect1_dropShadow"/>
<feBlend mode="normal" in="SourceGraphic" in2="effect1_dropShadow" result="shape"/>
</filter>
<filter id="filter6_d" x="343" y="343" width="254" height="232" filterUnits="userSpaceOnUse" color-interpolation-filters="sRGB">
<feFlood flood-opacity="0" result="BackgroundImageFix"/>
<feColorMatrix in="SourceAlpha" type="matrix" values="0 0 0 0 0 0 0 0 0 0 0 0 0 0 0 0 0 0 127 0"/>
<feOffset dy="1"/>
<feGaussianBlur stdDeviation="1.5"/>
<feColorMatrix type="matrix" values="0 0 0 0 0 0 0 0 0 0 0 0 0 0 0 0 0 0 0.17 0"/>
<feBlend mode="normal" in2="BackgroundImageFix" result="effect1_dropShadow"/>
<feBlend mode="normal" in="SourceGraphic" in2="effect1_dropShadow" result="shape"/>
</filter>
<clipPath id="clip0">
<rect width="64" height="64.0061" fill="white" transform="translate(95 145)"/>
</clipPath>
</defs>
</svg>
