<svg width="343" height="503" viewBox="0 0 343 503" fill="none" xmlns="http://www.w3.org/2000/svg">
<path d="M22 34V471" stroke="#434784" stroke-width="1.5"/>
<g filter="url(#filter0_d)">
<rect x="55" y="2" width="285" height="60" rx="12" fill="white"/>
</g>
<path opacity="0.8" d="M137.383 28.08H140.203C141.115 28.08 141.791 28.272 142.231 28.656C142.679 29.032 142.903 29.568 142.903 30.264C142.903 30.68 142.783 31.048 142.543 31.368C142.311 31.688 141.987 31.888 141.571 31.968V31.98C142.035 32.068 142.407 32.28 142.687 32.616C142.967 32.952 143.107 33.34 143.107 33.78C143.107 34.46 142.851 35 142.339 35.4C141.827 35.8 141.111 36 140.191 36H137.383V28.08ZM140.215 31.56C140.783 31.56 141.203 31.456 141.475 31.248C141.755 31.032 141.895 30.704 141.895 30.264C141.895 29.408 141.335 28.98 140.215 28.98H138.343V31.56H140.215ZM140.419 35.1C140.979 35.1 141.399 34.988 141.679 34.764C141.959 34.532 142.099 34.204 142.099 33.78C142.099 33.356 141.959 33.032 141.679 32.808C141.399 32.576 140.979 32.46 140.419 32.46H138.343V35.1H140.419ZM150.838 35.1V36H145.102V28.08H150.658V28.98H146.062V31.536H149.638V32.436H146.062V35.1H150.838ZM155.299 36H154.111L151.771 28.08H152.803L154.711 35.244L156.583 28.08H157.675L159.547 35.268L161.467 28.08H162.439L160.111 36H158.923L157.519 30.864L157.111 29.076H157.099L156.691 30.864L155.299 36ZM169.782 35.1V36H164.046V28.08H169.602V28.98H165.006V31.536H168.582V32.436H165.006V35.1H169.782ZM174.434 32.712H172.538V36H171.578V28.08H174.578C175.386 28.08 176.034 28.288 176.522 28.704C177.01 29.12 177.254 29.684 177.254 30.396C177.254 30.956 177.098 31.428 176.786 31.812C176.474 32.196 176.046 32.46 175.502 32.604L177.734 36H176.594L174.434 32.712ZM172.538 31.812H174.566C175.686 31.812 176.246 31.34 176.246 30.396C176.246 29.452 175.686 28.98 174.566 28.98H172.538V31.812ZM179.439 28.08H182.259C183.171 28.08 183.847 28.272 184.287 28.656C184.735 29.032 184.959 29.568 184.959 30.264C184.959 30.68 184.839 31.048 184.599 31.368C184.367 31.688 184.043 31.888 183.627 31.968V31.98C184.091 32.068 184.463 32.28 184.743 32.616C185.023 32.952 185.163 33.34 185.163 33.78C185.163 34.46 184.907 35 184.395 35.4C183.883 35.8 183.167 36 182.247 36H179.439V28.08ZM182.271 31.56C182.839 31.56 183.259 31.456 183.531 31.248C183.811 31.032 183.951 30.704 183.951 30.264C183.951 29.408 183.391 28.98 182.271 28.98H180.399V31.56H182.271ZM182.475 35.1C183.035 35.1 183.455 34.988 183.735 34.764C184.015 34.532 184.155 34.204 184.155 33.78C184.155 33.356 184.015 33.032 183.735 32.808C183.455 32.576 183.035 32.46 182.475 32.46H180.399V35.1H182.475ZM192.895 35.1V36H187.159V28.08H192.715V28.98H188.119V31.536H191.695V32.436H188.119V35.1H192.895ZM197.547 32.712H195.651V36H194.691V28.08H197.691C198.499 28.08 199.147 28.288 199.635 28.704C200.123 29.12 200.367 29.684 200.367 30.396C200.367 30.956 200.211 31.428 199.899 31.812C199.587 32.196 199.159 32.46 198.615 32.604L200.847 36H199.707L197.547 32.712ZM195.651 31.812H197.679C198.799 31.812 199.359 31.34 199.359 30.396C199.359 29.452 198.799 28.98 197.679 28.98H195.651V31.812ZM205.348 28.08C206.148 28.08 206.792 28.3 207.28 28.74C207.768 29.172 208.012 29.756 208.012 30.492C208.012 31.228 207.768 31.816 207.28 32.256C206.792 32.688 206.148 32.904 205.348 32.904H203.512V36H202.552V28.08H205.348ZM205.204 32.004C205.82 32.004 206.272 31.88 206.56 31.632C206.856 31.376 207.004 30.996 207.004 30.492C207.004 29.988 206.856 29.612 206.56 29.364C206.272 29.108 205.82 28.98 205.204 28.98H203.512V32.004H205.204ZM212.612 32.712H210.716V36H209.756V28.08H212.756C213.564 28.08 214.212 28.288 214.7 28.704C215.188 29.12 215.432 29.684 215.432 30.396C215.432 30.956 215.276 31.428 214.964 31.812C214.652 32.196 214.224 32.46 213.68 32.604L215.912 36H214.772L212.612 32.712ZM210.716 31.812H212.744C213.864 31.812 214.424 31.34 214.424 30.396C214.424 29.452 213.864 28.98 212.744 28.98H210.716V31.812ZM220.738 27.96C221.482 27.96 222.13 28.128 222.682 28.464C223.234 28.792 223.658 29.264 223.954 29.88C224.258 30.488 224.41 31.208 224.41 32.04C224.41 32.872 224.258 33.596 223.954 34.212C223.658 34.82 223.234 35.292 222.682 35.628C222.13 35.956 221.482 36.12 220.738 36.12C219.994 36.12 219.346 35.956 218.794 35.628C218.242 35.292 217.814 34.82 217.51 34.212C217.214 33.596 217.066 32.872 217.066 32.04C217.066 31.208 217.214 30.488 217.51 29.88C217.814 29.264 218.242 28.792 218.794 28.464C219.346 28.128 219.994 27.96 220.738 27.96ZM220.738 28.86C219.914 28.86 219.262 29.144 218.782 29.712C218.31 30.272 218.074 31.048 218.074 32.04C218.074 33.032 218.31 33.812 218.782 34.38C219.262 34.94 219.914 35.22 220.738 35.22C221.562 35.22 222.21 34.94 222.682 34.38C223.162 33.812 223.402 33.032 223.402 32.04C223.402 31.048 223.162 30.272 222.682 29.712C222.21 29.144 221.562 28.86 220.738 28.86ZM227.362 28.98V31.536H230.938V32.436H227.362V36H226.402V28.08H231.946V28.98H227.362ZM234.567 36H233.607V28.08H234.567V36ZM242.533 35.1V36H237.037V28.08H237.997V35.1H242.533Z" fill="#313131"/>
<rect x="69" y="11" width="43" height="43" rx="21.5" fill="#F4F4F4"/>
<g clip-path="url(#clip0)">
<path d="M101.908 40.6864C101.807 40.202 101.333 39.891 100.848 39.9919C100.364 40.0928 100.053 40.5673 100.154 41.0518C100.213 41.3287 100.143 41.6173 99.9644 41.8368C99.7904 42.054 99.5265 42.1796 99.2482 42.1777H81.7533C81.475 42.1796 81.2112 42.054 81.0371 41.8368C80.8584 41.6173 80.7887 41.3287 80.8475 41.0518C81.7983 36.5777 85.691 33.3378 90.2634 33.2151C90.3424 33.2182 90.4217 33.2197 90.5012 33.2197C90.5807 33.2197 90.6601 33.2182 90.7396 33.2151C93.9461 33.2912 96.9149 34.9229 98.6978 37.589C98.9694 38.0027 99.5248 38.1178 99.9384 37.8463C100.352 37.5747 100.467 37.0193 100.196 36.6057C100.193 36.6009 100.189 36.5962 100.186 36.5915C98.7409 34.4321 96.6154 32.8178 94.1473 32.0051C96.8425 29.9916 97.3951 26.1744 95.3816 23.4793C93.368 20.7841 89.5509 20.2315 86.8557 22.2451C84.1606 24.2586 83.608 28.0757 85.6215 30.7709C85.9715 31.2394 86.3872 31.6551 86.8557 32.0051C82.9036 33.3052 79.9446 36.6141 79.0925 40.6864C78.7826 42.157 79.7236 43.6004 81.1942 43.9103C81.3781 43.949 81.5654 43.9686 81.7533 43.9687H99.2482C100.751 43.9673 101.968 42.7477 101.967 41.2448C101.967 41.0571 101.947 40.87 101.908 40.6864ZM86.2006 27.1282C86.2007 24.7535 88.1259 22.8285 90.5006 22.8286C92.8753 22.8287 94.8002 24.7539 94.8001 27.1286C94.8001 29.4185 93.0053 31.3066 90.7182 31.4226H90.5004H90.2833C87.9971 31.3043 86.2033 29.4175 86.2006 27.1282Z" fill="#3CBFAE"/>
</g>
<rect y="11" width="43" height="43" rx="21.5" fill="white"/>
<path d="M17.1476 37.7911L11.484 32.128L9.55566 34.0429L17.1476 41.6343L33.4446 25.3383L31.5287 23.4224L17.1476 37.7911Z" fill="#3CBFAE"/>
<rect y="80" width="43" height="43" rx="21.5" fill="white"/>
<path d="M17.1476 106.791L11.484 101.128L9.55566 103.043L17.1476 110.634L33.4446 94.3383L31.5287 92.4224L17.1476 106.791Z" fill="#3CBFAE"/>
<rect y="172" width="43" height="43" rx="21.5" fill="white"/>
<path d="M12.125 190C10.3991 190 9 191.399 9 193.125C9 194.851 10.3991 196.25 12.125 196.25C13.8509 196.25 15.25 194.851 15.25 193.125C15.2449 191.401 13.8488 190.005 12.125 190ZM30.875 190C29.1491 190 27.75 191.399 27.75 193.125C27.75 194.851 29.1491 196.25 30.875 196.25C32.6009 196.25 34 194.851 34 193.125C33.9949 191.401 32.5988 190.005 30.875 190ZM21.5 190C19.7741 190 18.375 191.399 18.375 193.125C18.375 194.851 19.7741 196.25 21.5 196.25C23.2259 196.25 24.625 194.851 24.625 193.125C24.6199 191.401 23.2238 190.005 21.5 190Z" fill="#434784"/>
<rect y="241" width="43" height="43" rx="21.5" fill="white"/>
<path d="M12.125 259C10.3991 259 9 260.399 9 262.125C9 263.851 10.3991 265.25 12.125 265.25C13.8509 265.25 15.25 263.851 15.25 262.125C15.2449 260.401 13.8488 259.005 12.125 259ZM30.875 259C29.1491 259 27.75 260.399 27.75 262.125C27.75 263.851 29.1491 265.25 30.875 265.25C32.6009 265.25 34 263.851 34 262.125C33.9949 260.401 32.5988 259.005 30.875 259ZM21.5 259C19.7741 259 18.375 260.399 18.375 262.125C18.375 263.851 19.7741 265.25 21.5 265.25C23.2259 265.25 24.625 263.851 24.625 262.125C24.6199 260.401 23.2238 259.005 21.5 259Z" fill="#434784"/>
<rect y="310" width="43" height="43" rx="21.5" fill="white"/>
<path d="M12.125 328C10.3991 328 9 329.399 9 331.125C9 332.851 10.3991 334.25 12.125 334.25C13.8509 334.25 15.25 332.851 15.25 331.125C15.2449 329.401 13.8488 328.005 12.125 328ZM30.875 328C29.1491 328 27.75 329.399 27.75 331.125C27.75 332.851 29.1491 334.25 30.875 334.25C32.6009 334.25 34 332.851 34 331.125C33.9949 329.401 32.5988 328.005 30.875 328ZM21.5 328C19.7741 328 18.375 329.399 18.375 331.125C18.375 332.851 19.7741 334.25 21.5 334.25C23.2259 334.25 24.625 332.851 24.625 331.125C24.6199 329.401 23.2238 328.005 21.5 328Z" fill="#434784"/>
<rect y="379" width="43" height="43" rx="21.5" fill="white"/>
<path d="M12.125 397C10.3991 397 9 398.399 9 400.125C9 401.851 10.3991 403.25 12.125 403.25C13.8509 403.25 15.25 401.851 15.25 400.125C15.2449 398.401 13.8488 397.005 12.125 397ZM30.875 397C29.1491 397 27.75 398.399 27.75 400.125C27.75 401.851 29.1491 403.25 30.875 403.25C32.6009 403.25 34 401.851 34 400.125C33.9949 398.401 32.5988 397.005 30.875 397ZM21.5 397C19.7741 397 18.375 398.399 18.375 400.125C18.375 401.851 19.7741 403.25 21.5 403.25C23.2259 403.25 24.625 401.851 24.625 400.125C24.6199 398.401 23.2238 397.005 21.5 397Z" fill="#434784"/>
<rect y="448" width="43" height="43" rx="21.5" fill="white"/>
<path d="M12.125 466C10.3991 466 9 467.399 9 469.125C9 470.851 10.3991 472.25 12.125 472.25C13.8509 472.25 15.25 470.851 15.25 469.125C15.2449 467.401 13.8488 466.005 12.125 466ZM30.875 466C29.1491 466 27.75 467.399 27.75 469.125C27.75 470.851 29.1491 472.25 30.875 472.25C32.6009 472.25 34 470.851 34 469.125C33.9949 467.401 32.5988 466.005 30.875 466ZM21.5 466C19.7741 466 18.375 467.399 18.375 469.125C18.375 470.851 19.7741 472.25 21.5 472.25C23.2259 472.25 24.625 470.851 24.625 469.125C24.6199 467.401 23.2238 466.005 21.5 466Z" fill="#434784"/>
<g filter="url(#filter1_d)">
<rect x="55" y="71" width="285" height="60" rx="12" fill="white"/>
</g>
<path opacity="0.8" d="M143.03 104.1V105H137.534V97.08H138.494V104.1H143.03ZM150.322 104.1V105H144.586V97.08H150.142V97.98H145.546V100.536H149.122V101.436H145.546V104.1H150.322ZM152.118 97.08H154.938C155.85 97.08 156.526 97.272 156.966 97.656C157.414 98.032 157.638 98.568 157.638 99.264C157.638 99.68 157.518 100.048 157.278 100.368C157.046 100.688 156.722 100.888 156.306 100.968V100.98C156.77 101.068 157.142 101.28 157.422 101.616C157.702 101.952 157.842 102.34 157.842 102.78C157.842 103.46 157.586 104 157.074 104.4C156.562 104.8 155.846 105 154.926 105H152.118V97.08ZM154.95 100.56C155.518 100.56 155.938 100.456 156.21 100.248C156.49 100.032 156.63 99.704 156.63 99.264C156.63 98.408 156.07 97.98 154.95 97.98H153.078V100.56H154.95ZM155.154 104.1C155.714 104.1 156.134 103.988 156.414 103.764C156.694 103.532 156.834 103.204 156.834 102.78C156.834 102.356 156.694 102.032 156.414 101.808C156.134 101.576 155.714 101.46 155.154 101.46H153.078V104.1H155.154ZM165.574 104.1V105H159.838V97.08H165.394V97.98H160.798V100.536H164.374V101.436H160.798V104.1H165.574ZM173.586 105H172.398L169.086 99.696L168.246 98.136H168.234L168.282 99.408V105H167.37V97.08H168.558L171.858 102.36L172.71 103.944H172.722L172.674 102.672V97.08H173.586V105ZM178.607 96.96C180.023 96.96 181.043 97.52 181.667 98.64L180.839 99.312C180.599 98.784 180.311 98.412 179.975 98.196C179.647 97.972 179.195 97.86 178.619 97.86C178.011 97.86 177.531 97.988 177.179 98.244C176.835 98.492 176.663 98.812 176.663 99.204C176.663 99.46 176.731 99.672 176.867 99.84C177.003 100.008 177.227 100.156 177.539 100.284C177.859 100.404 178.299 100.512 178.859 100.608C179.907 100.784 180.647 101.048 181.079 101.4C181.519 101.752 181.739 102.24 181.739 102.864C181.739 103.312 181.611 103.708 181.355 104.052C181.107 104.388 180.751 104.652 180.287 104.844C179.823 105.028 179.287 105.12 178.679 105.12C177.879 105.12 177.195 104.964 176.627 104.652C176.067 104.34 175.639 103.924 175.343 103.404L176.171 102.732C176.387 103.204 176.703 103.572 177.119 103.836C177.543 104.092 178.071 104.22 178.703 104.22C179.327 104.22 179.823 104.108 180.191 103.884C180.559 103.652 180.743 103.328 180.743 102.912C180.743 102.56 180.583 102.28 180.263 102.072C179.943 101.864 179.375 101.688 178.559 101.544C177.503 101.36 176.755 101.096 176.315 100.752C175.875 100.408 175.655 99.928 175.655 99.312C175.655 98.888 175.775 98.496 176.015 98.136C176.255 97.776 176.599 97.492 177.047 97.284C177.495 97.068 178.015 96.96 178.607 96.96ZM189.126 104.1V105H183.63V97.08H184.59V104.1H189.126ZM195.134 102.804H191.546L190.706 105H189.698L192.782 97.08H193.922L196.994 105H195.974L195.134 102.804ZM194.786 101.904L193.718 99.096L193.346 97.992H193.322L192.974 99.06L191.894 101.904H194.786ZM204.346 102.048C204.346 103.064 204.078 103.832 203.542 104.352C203.014 104.864 202.246 105.12 201.238 105.12C200.23 105.12 199.458 104.86 198.922 104.34C198.394 103.82 198.13 103.056 198.13 102.048V97.08H199.09V101.808C199.09 102.64 199.262 103.252 199.606 103.644C199.958 104.028 200.502 104.22 201.238 104.22C201.974 104.22 202.514 104.028 202.858 103.644C203.21 103.252 203.386 102.64 203.386 101.808V97.08H204.346V102.048ZM207.691 97.98V100.536H211.267V101.436H207.691V105H206.731V97.08H212.275V97.98H207.691ZM217.21 102.36H213.25V101.364H217.21V102.36ZM225.908 101.004V105H225.188L225.152 103.932C224.92 104.316 224.592 104.612 224.168 104.82C223.752 105.02 223.248 105.12 222.656 105.12C221.912 105.12 221.264 104.956 220.712 104.628C220.16 104.292 219.732 103.82 219.428 103.212C219.132 102.596 218.984 101.872 218.984 101.04C218.984 100.216 219.136 99.496 219.44 98.88C219.752 98.264 220.184 97.792 220.736 97.464C221.296 97.128 221.944 96.96 222.68 96.96C223.464 96.96 224.108 97.108 224.612 97.404C225.124 97.7 225.536 98.156 225.848 98.772L224.972 99.252C224.796 98.804 224.508 98.46 224.108 98.22C223.716 97.98 223.24 97.86 222.68 97.86C222.144 97.86 221.672 97.988 221.264 98.244C220.864 98.5 220.552 98.868 220.328 99.348C220.104 99.82 219.992 100.384 219.992 101.04C219.992 102.048 220.224 102.832 220.688 103.392C221.152 103.944 221.82 104.22 222.692 104.22C223.38 104.22 223.94 104.044 224.372 103.692C224.812 103.34 225.032 102.836 225.032 102.18V101.904H222.512V101.004H225.908ZM233.763 104.1V105H228.027V97.08H233.583V97.98H228.987V100.536H232.563V101.436H228.987V104.1H233.763ZM241.776 105H240.588L237.276 99.696L236.436 98.136H236.424L236.472 99.408V105H235.56V97.08H236.748L240.048 102.36L240.9 103.944H240.912L240.864 102.672V97.08H241.776V105ZM249.988 104.1V105H244.252V97.08H249.808V97.98H245.212V100.536H248.788V101.436H245.212V104.1H249.988ZM254.64 101.712H252.744V105H251.784V97.08H254.784C255.592 97.08 256.24 97.288 256.728 97.704C257.216 98.12 257.46 98.684 257.46 99.396C257.46 99.956 257.304 100.428 256.992 100.812C256.68 101.196 256.252 101.46 255.708 101.604L257.94 105H256.8L254.64 101.712ZM252.744 100.812H254.772C255.892 100.812 256.452 100.34 256.452 99.396C256.452 98.452 255.892 97.98 254.772 97.98H252.744V100.812ZM264.097 102.804H260.509L259.669 105H258.661L261.745 97.08H262.885L265.957 105H264.937L264.097 102.804ZM263.749 101.904L262.681 99.096L262.309 97.992H262.285L261.937 99.06L260.857 101.904H263.749ZM271.937 97.98H269.177V105H268.217V97.98H265.457V97.08H271.937V97.98ZM276.413 96.96C277.157 96.96 277.805 97.128 278.357 97.464C278.909 97.792 279.333 98.264 279.629 98.88C279.933 99.488 280.085 100.208 280.085 101.04C280.085 101.872 279.933 102.596 279.629 103.212C279.333 103.82 278.909 104.292 278.357 104.628C277.805 104.956 277.157 105.12 276.413 105.12C275.669 105.12 275.021 104.956 274.469 104.628C273.917 104.292 273.489 103.82 273.185 103.212C272.889 102.596 272.741 101.872 272.741 101.04C272.741 100.208 272.889 99.488 273.185 98.88C273.489 98.264 273.917 97.792 274.469 97.464C275.021 97.128 275.669 96.96 276.413 96.96ZM276.413 97.86C275.589 97.86 274.937 98.144 274.457 98.712C273.985 99.272 273.749 100.048 273.749 101.04C273.749 102.032 273.985 102.812 274.457 103.38C274.937 103.94 275.589 104.22 276.413 104.22C277.237 104.22 277.885 103.94 278.357 103.38C278.837 102.812 279.077 102.032 279.077 101.04C279.077 100.048 278.837 99.272 278.357 98.712C277.885 98.144 277.237 97.86 276.413 97.86ZM284.934 101.712H283.038V105H282.078V97.08H285.078C285.886 97.08 286.534 97.288 287.022 97.704C287.51 98.12 287.754 98.684 287.754 99.396C287.754 99.956 287.598 100.428 287.286 100.812C286.974 101.196 286.546 101.46 286.002 101.604L288.234 105H287.094L284.934 101.712ZM283.038 100.812H285.066C286.186 100.812 286.746 100.34 286.746 99.396C286.746 98.452 286.186 97.98 285.066 97.98H283.038V100.812Z" fill="#313131"/>
<rect x="69" y="80" width="43" height="43" rx="21.5" fill="#F4F4F4"/>
<g clip-path="url(#clip1)">
<path d="M101.908 109.686C101.807 109.202 101.333 108.891 100.848 108.992C100.364 109.093 100.053 109.567 100.154 110.052C100.213 110.329 100.143 110.617 99.9644 110.837C99.7904 111.054 99.5265 111.18 99.2482 111.178H81.7533C81.475 111.18 81.2112 111.054 81.0371 110.837C80.8584 110.617 80.7887 110.329 80.8475 110.052C81.7983 105.578 85.691 102.338 90.2634 102.215C90.3424 102.218 90.4217 102.22 90.5012 102.22C90.5807 102.22 90.6601 102.218 90.7396 102.215C93.9461 102.291 96.9149 103.923 98.6978 106.589C98.9694 107.003 99.5248 107.118 99.9384 106.846C100.352 106.575 100.467 106.019 100.196 105.606C100.193 105.601 100.189 105.596 100.186 105.592C98.7409 103.432 96.6154 101.818 94.1473 101.005C96.8425 98.9916 97.3951 95.1744 95.3816 92.4793C93.368 89.7841 89.5509 89.2315 86.8557 91.2451C84.1606 93.2586 83.608 97.0757 85.6215 99.7709C85.9715 100.239 86.3872 100.655 86.8557 101.005C82.9036 102.305 79.9446 105.614 79.0925 109.686C78.7826 111.157 79.7236 112.6 81.1942 112.91C81.3781 112.949 81.5654 112.969 81.7533 112.969H99.2482C100.751 112.967 101.968 111.748 101.967 110.245C101.967 110.057 101.947 109.87 101.908 109.686ZM86.2006 96.1282C86.2007 93.7535 88.1259 91.8285 90.5006 91.8286C92.8753 91.8287 94.8002 93.7539 94.8001 96.1286C94.8001 98.4185 93.0053 100.307 90.7182 100.423H90.5004H90.2833C87.9971 100.304 86.2033 98.4175 86.2006 96.1282Z" fill="#3CBFAE"/>
</g>
<g filter="url(#filter2_d)">
<rect x="55" y="163" width="285" height="60" rx="12" fill="white"/>
</g>
<path opacity="0.8" d="M143.68 178.972C143.432 179.644 143.024 180.172 142.456 180.556C141.888 180.932 141.232 181.12 140.488 181.12C139.744 181.12 139.096 180.956 138.544 180.628C137.992 180.292 137.564 179.82 137.26 179.212C136.964 178.596 136.816 177.872 136.816 177.04C136.816 176.216 136.964 175.496 137.26 174.88C137.564 174.264 137.992 173.792 138.544 173.464C139.096 173.128 139.736 172.96 140.464 172.96C141.224 172.96 141.86 173.116 142.372 173.428C142.892 173.74 143.28 174.2 143.536 174.808L142.588 175.252C142.412 174.788 142.156 174.44 141.82 174.208C141.484 173.976 141.056 173.86 140.536 173.86C139.992 173.86 139.516 173.988 139.108 174.244C138.7 174.492 138.384 174.856 138.16 175.336C137.936 175.816 137.824 176.384 137.824 177.04C137.824 178.032 138.06 178.812 138.532 179.38C139.012 179.94 139.664 180.22 140.488 180.22C141.024 180.22 141.488 180.084 141.88 179.812C142.272 179.54 142.552 179.14 142.72 178.612L143.68 178.972ZM150.899 180.1V181H145.403V173.08H146.363V180.1H150.899ZM153.414 181H152.454V173.08H153.414V181ZM162.269 178.972C162.021 179.644 161.613 180.172 161.045 180.556C160.477 180.932 159.821 181.12 159.077 181.12C158.333 181.12 157.685 180.956 157.133 180.628C156.581 180.292 156.153 179.82 155.849 179.212C155.553 178.596 155.405 177.872 155.405 177.04C155.405 176.216 155.553 175.496 155.849 174.88C156.153 174.264 156.581 173.792 157.133 173.464C157.685 173.128 158.325 172.96 159.053 172.96C159.813 172.96 160.449 173.116 160.961 173.428C161.481 173.74 161.869 174.2 162.125 174.808L161.177 175.252C161.001 174.788 160.745 174.44 160.409 174.208C160.073 173.976 159.645 173.86 159.125 173.86C158.581 173.86 158.105 173.988 157.697 174.244C157.289 174.492 156.973 174.856 156.749 175.336C156.525 175.816 156.413 176.384 156.413 177.04C156.413 178.032 156.649 178.812 157.121 179.38C157.601 179.94 158.253 180.22 159.077 180.22C159.613 180.22 160.077 180.084 160.469 179.812C160.861 179.54 161.141 179.14 161.309 178.612L162.269 178.972ZM166.368 177.016L164.952 178.456V181H163.992V173.08H164.952V177.16L168.936 173.08H170.196L167.04 176.308L170.232 181H169.08L166.368 177.016ZM171.747 173.08H174.567C175.479 173.08 176.155 173.272 176.595 173.656C177.043 174.032 177.267 174.568 177.267 175.264C177.267 175.68 177.147 176.048 176.907 176.368C176.675 176.688 176.351 176.888 175.935 176.968V176.98C176.399 177.068 176.771 177.28 177.051 177.616C177.331 177.952 177.471 178.34 177.471 178.78C177.471 179.46 177.215 180 176.703 180.4C176.191 180.8 175.475 181 174.555 181H171.747V173.08ZM174.579 176.56C175.147 176.56 175.567 176.456 175.839 176.248C176.119 176.032 176.259 175.704 176.259 175.264C176.259 174.408 175.699 173.98 174.579 173.98H172.707V176.56H174.579ZM174.783 180.1C175.343 180.1 175.763 179.988 176.043 179.764C176.323 179.532 176.463 179.204 176.463 178.78C176.463 178.356 176.323 178.032 176.043 177.808C175.763 177.576 175.343 177.46 174.783 177.46H172.707V180.1H174.783ZM185.203 180.1V181H179.467V173.08H185.023V173.98H180.427V176.536H184.003V177.436H180.427V180.1H185.203ZM189.663 181H188.475L186.135 173.08H187.167L189.075 180.244L190.947 173.08H192.039L193.911 180.268L195.831 173.08H196.803L194.475 181H193.287L191.883 175.864L191.475 174.076H191.463L191.055 175.864L189.663 181ZM204.146 180.1V181H198.41V173.08H203.966V173.98H199.37V176.536H202.946V177.436H199.37V180.1H204.146ZM208.799 177.712H206.903V181H205.943V173.08H208.943C209.751 173.08 210.399 173.288 210.887 173.704C211.375 174.12 211.619 174.684 211.619 175.396C211.619 175.956 211.463 176.428 211.151 176.812C210.839 177.196 210.411 177.46 209.867 177.604L212.099 181H210.959L208.799 177.712ZM206.903 176.812H208.931C210.051 176.812 210.611 176.34 210.611 175.396C210.611 174.452 210.051 173.98 208.931 173.98H206.903V176.812ZM213.803 173.08H216.623C217.535 173.08 218.211 173.272 218.651 173.656C219.099 174.032 219.323 174.568 219.323 175.264C219.323 175.68 219.203 176.048 218.963 176.368C218.731 176.688 218.407 176.888 217.991 176.968V176.98C218.455 177.068 218.827 177.28 219.107 177.616C219.387 177.952 219.527 178.34 219.527 178.78C219.527 179.46 219.271 180 218.759 180.4C218.247 180.8 217.531 181 216.611 181H213.803V173.08ZM216.635 176.56C217.203 176.56 217.623 176.456 217.895 176.248C218.175 176.032 218.315 175.704 218.315 175.264C218.315 174.408 217.755 173.98 216.635 173.98H214.763V176.56H216.635ZM216.839 180.1C217.399 180.1 217.819 179.988 218.099 179.764C218.379 179.532 218.519 179.204 218.519 178.78C218.519 178.356 218.379 178.032 218.099 177.808C217.819 177.576 217.399 177.46 216.839 177.46H214.763V180.1H216.839ZM227.655 178.048C227.655 179.064 227.387 179.832 226.851 180.352C226.323 180.864 225.555 181.12 224.547 181.12C223.539 181.12 222.767 180.86 222.231 180.34C221.703 179.82 221.439 179.056 221.439 178.048V173.08H222.399V177.808C222.399 178.64 222.571 179.252 222.915 179.644C223.267 180.028 223.811 180.22 224.547 180.22C225.283 180.22 225.823 180.028 226.167 179.644C226.519 179.252 226.695 178.64 226.695 177.808V173.08H227.655V178.048ZM236.256 181H235.068L231.756 175.696L230.916 174.136H230.904L230.952 175.408V181H230.04V173.08H231.228L234.528 178.36L235.38 179.944H235.392L235.344 178.672V173.08H236.256V181ZM245.176 177.004V181H244.456L244.42 179.932C244.188 180.316 243.86 180.612 243.436 180.82C243.02 181.02 242.516 181.12 241.924 181.12C241.18 181.12 240.532 180.956 239.98 180.628C239.428 180.292 239 179.82 238.696 179.212C238.4 178.596 238.252 177.872 238.252 177.04C238.252 176.216 238.404 175.496 238.708 174.88C239.02 174.264 239.452 173.792 240.004 173.464C240.564 173.128 241.212 172.96 241.948 172.96C242.732 172.96 243.376 173.108 243.88 173.404C244.392 173.7 244.804 174.156 245.116 174.772L244.24 175.252C244.064 174.804 243.776 174.46 243.376 174.22C242.984 173.98 242.508 173.86 241.948 173.86C241.412 173.86 240.94 173.988 240.532 174.244C240.132 174.5 239.82 174.868 239.596 175.348C239.372 175.82 239.26 176.384 239.26 177.04C239.26 178.048 239.492 178.832 239.956 179.392C240.42 179.944 241.088 180.22 241.96 180.22C242.648 180.22 243.208 180.044 243.64 179.692C244.08 179.34 244.3 178.836 244.3 178.18V177.904H241.78V177.004H245.176ZM255.237 178.804H251.649L250.809 181H249.801L252.885 173.08H254.025L257.097 181H256.077L255.237 178.804ZM254.889 177.904L253.821 175.096L253.449 173.992H253.425L253.077 175.06L251.997 177.904H254.889ZM264.449 178.048C264.449 179.064 264.181 179.832 263.645 180.352C263.117 180.864 262.349 181.12 261.341 181.12C260.333 181.12 259.561 180.86 259.025 180.34C258.497 179.82 258.233 179.056 258.233 178.048V173.08H259.193V177.808C259.193 178.64 259.365 179.252 259.709 179.644C260.061 180.028 260.605 180.22 261.341 180.22C262.077 180.22 262.617 180.028 262.961 179.644C263.313 179.252 263.489 178.64 263.489 177.808V173.08H264.449V178.048ZM267.794 173.98V176.536H271.37V177.436H267.794V181H266.834V173.08H272.378V173.98H267.794ZM139.672 194.016L138.256 195.456V198H137.296V190.08H138.256V194.16L142.24 190.08H143.5L140.344 193.308L143.536 198H142.384L139.672 194.016ZM149.503 195.804H145.915L145.075 198H144.067L147.151 190.08H148.291L151.363 198H150.343L149.503 195.804ZM149.155 194.904L148.087 192.096L147.715 190.992H147.691L147.343 192.06L146.263 194.904H149.155ZM155.709 194.712H153.813V198H152.853V190.08H155.853C156.661 190.08 157.309 190.288 157.797 190.704C158.285 191.12 158.529 191.684 158.529 192.396C158.529 192.956 158.373 193.428 158.061 193.812C157.749 194.196 157.321 194.46 156.777 194.604L159.009 198H157.869L155.709 194.712ZM153.813 193.812H155.841C156.961 193.812 157.521 193.34 157.521 192.396C157.521 191.452 156.961 190.98 155.841 190.98H153.813V193.812ZM163.569 194.712H161.673V198H160.713V190.08H163.713C164.521 190.08 165.169 190.288 165.657 190.704C166.145 191.12 166.389 191.684 166.389 192.396C166.389 192.956 166.233 193.428 165.921 193.812C165.609 194.196 165.181 194.46 164.637 194.604L166.869 198H165.729L163.569 194.712ZM161.673 193.812H163.701C164.821 193.812 165.381 193.34 165.381 192.396C165.381 191.452 164.821 190.98 163.701 190.98H161.673V193.812ZM169.534 198H168.574V190.08H169.534V198ZM177.741 197.1V198H172.005V190.08H177.561V190.98H172.965V193.536H176.541V194.436H172.965V197.1H177.741ZM182.393 194.712H180.497V198H179.537V190.08H182.537C183.345 190.08 183.993 190.288 184.481 190.704C184.969 191.12 185.213 191.684 185.213 192.396C185.213 192.956 185.057 193.428 184.745 193.812C184.433 194.196 184.005 194.46 183.461 194.604L185.693 198H184.553L182.393 194.712ZM180.497 193.812H182.525C183.645 193.812 184.205 193.34 184.205 192.396C184.205 191.452 183.645 190.98 182.525 190.98H180.497V193.812ZM193.133 197.1V198H187.397V190.08H192.953V190.98H188.357V193.536H191.933V194.436H188.357V197.1H193.133ZM197.474 189.96C198.89 189.96 199.91 190.52 200.534 191.64L199.706 192.312C199.466 191.784 199.178 191.412 198.842 191.196C198.514 190.972 198.062 190.86 197.486 190.86C196.878 190.86 196.398 190.988 196.046 191.244C195.702 191.492 195.53 191.812 195.53 192.204C195.53 192.46 195.598 192.672 195.734 192.84C195.87 193.008 196.094 193.156 196.406 193.284C196.726 193.404 197.166 193.512 197.726 193.608C198.774 193.784 199.514 194.048 199.946 194.4C200.386 194.752 200.606 195.24 200.606 195.864C200.606 196.312 200.478 196.708 200.222 197.052C199.974 197.388 199.618 197.652 199.154 197.844C198.69 198.028 198.154 198.12 197.546 198.12C196.746 198.12 196.062 197.964 195.494 197.652C194.934 197.34 194.506 196.924 194.21 196.404L195.038 195.732C195.254 196.204 195.57 196.572 195.986 196.836C196.41 197.092 196.938 197.22 197.57 197.22C198.194 197.22 198.69 197.108 199.058 196.884C199.426 196.652 199.61 196.328 199.61 195.912C199.61 195.56 199.45 195.28 199.13 195.072C198.81 194.864 198.242 194.688 197.426 194.544C196.37 194.36 195.622 194.096 195.182 193.752C194.742 193.408 194.522 192.928 194.522 192.312C194.522 191.888 194.642 191.496 194.882 191.136C195.122 190.776 195.466 190.492 195.914 190.284C196.362 190.068 196.882 189.96 197.474 189.96ZM208.233 197.1V198H202.497V190.08H208.053V190.98H203.457V193.536H207.033V194.436H203.457V197.1H208.233ZM210.99 198H210.03V190.08H210.99V198ZM219.028 190.98H216.268V198H215.308V190.98H212.548V190.08H219.028V190.98ZM226.319 197.1V198H220.583V190.08H226.139V190.98H221.543V193.536H225.119V194.436H221.543V197.1H226.319ZM234.331 198H233.143L229.831 192.696L228.991 191.136H228.979L229.027 192.408V198H228.115V190.08H229.303L232.603 195.36L233.455 196.944H233.467L233.419 195.672V190.08H234.331V198ZM246.909 195.048C246.909 196.064 246.641 196.832 246.105 197.352C245.577 197.864 244.809 198.12 243.801 198.12C242.793 198.12 242.021 197.86 241.485 197.34C240.957 196.82 240.693 196.056 240.693 195.048V190.08H241.653V194.808C241.653 195.64 241.825 196.252 242.169 196.644C242.521 197.028 243.065 197.22 243.801 197.22C244.537 197.22 245.077 197.028 245.421 196.644C245.773 196.252 245.949 195.64 245.949 194.808V190.08H246.909V195.048ZM255.51 198H254.322L251.01 192.696L250.17 191.136H250.158L250.206 192.408V198H249.294V190.08H250.482L253.782 195.36L254.634 196.944H254.646L254.598 195.672V190.08H255.51V198ZM260.542 190.08C261.79 190.08 262.766 190.424 263.47 191.112C264.174 191.8 264.526 192.776 264.526 194.04C264.526 195.304 264.174 196.28 263.47 196.968C262.766 197.656 261.79 198 260.542 198H257.986V190.08H260.542ZM260.638 197.1C261.542 197.1 262.246 196.832 262.75 196.296C263.262 195.752 263.518 195 263.518 194.04C263.518 193.08 263.262 192.332 262.75 191.796C262.246 191.252 261.542 190.98 260.638 190.98H258.946V197.1H260.638ZM141.58 212.288C141.58 213.176 141.34 213.872 140.86 214.376C140.388 214.872 139.732 215.12 138.892 215.12C138.132 215.12 137.544 214.936 137.128 214.568C136.712 214.192 136.504 213.676 136.504 213.02C136.504 212.788 136.524 212.576 136.564 212.384L137.452 212.204C137.42 212.476 137.404 212.668 137.404 212.78C137.404 213.268 137.52 213.632 137.752 213.872C137.984 214.104 138.352 214.22 138.856 214.22C139.512 214.22 139.968 214.044 140.224 213.692C140.488 213.34 140.62 212.792 140.62 212.048V207.08H141.58V212.288ZM147.165 206.96C147.909 206.96 148.557 207.128 149.109 207.464C149.661 207.792 150.085 208.264 150.381 208.88C150.685 209.488 150.837 210.208 150.837 211.04C150.837 211.872 150.685 212.596 150.381 213.212C150.085 213.82 149.661 214.292 149.109 214.628C148.557 214.956 147.909 215.12 147.165 215.12C146.421 215.12 145.773 214.956 145.221 214.628C144.669 214.292 144.241 213.82 143.937 213.212C143.641 212.596 143.493 211.872 143.493 211.04C143.493 210.208 143.641 209.488 143.937 208.88C144.241 208.264 144.669 207.792 145.221 207.464C145.773 207.128 146.421 206.96 147.165 206.96ZM147.165 207.86C146.341 207.86 145.689 208.144 145.209 208.712C144.737 209.272 144.501 210.048 144.501 211.04C144.501 212.032 144.737 212.812 145.209 213.38C145.689 213.94 146.341 214.22 147.165 214.22C147.989 214.22 148.637 213.94 149.109 213.38C149.589 212.812 149.829 212.032 149.829 211.04C149.829 210.048 149.589 209.272 149.109 208.712C148.637 208.144 147.989 207.86 147.165 207.86ZM152.829 207.08H155.649C156.561 207.08 157.237 207.272 157.677 207.656C158.125 208.032 158.349 208.568 158.349 209.264C158.349 209.68 158.229 210.048 157.989 210.368C157.757 210.688 157.433 210.888 157.017 210.968V210.98C157.481 211.068 157.853 211.28 158.133 211.616C158.413 211.952 158.553 212.34 158.553 212.78C158.553 213.46 158.297 214 157.785 214.4C157.273 214.8 156.557 215 155.637 215H152.829V207.08ZM155.661 210.56C156.229 210.56 156.649 210.456 156.921 210.248C157.201 210.032 157.341 209.704 157.341 209.264C157.341 208.408 156.781 207.98 155.661 207.98H153.789V210.56H155.661ZM155.865 214.1C156.425 214.1 156.845 213.988 157.125 213.764C157.405 213.532 157.545 213.204 157.545 212.78C157.545 212.356 157.405 212.032 157.125 211.808C156.845 211.576 156.425 211.46 155.865 211.46H153.789V214.1H155.865ZM160.549 207.08H163.369C164.281 207.08 164.957 207.272 165.397 207.656C165.845 208.032 166.069 208.568 166.069 209.264C166.069 209.68 165.949 210.048 165.709 210.368C165.477 210.688 165.153 210.888 164.737 210.968V210.98C165.201 211.068 165.573 211.28 165.853 211.616C166.133 211.952 166.273 212.34 166.273 212.78C166.273 213.46 166.017 214 165.505 214.4C164.993 214.8 164.277 215 163.357 215H160.549V207.08ZM163.381 210.56C163.949 210.56 164.369 210.456 164.641 210.248C164.921 210.032 165.061 209.704 165.061 209.264C165.061 208.408 164.501 207.98 163.381 207.98H161.509V210.56H163.381ZM163.585 214.1C164.145 214.1 164.565 213.988 164.845 213.764C165.125 213.532 165.265 213.204 165.265 212.78C165.265 212.356 165.125 212.032 164.845 211.808C164.565 211.576 164.145 211.46 163.585 211.46H161.509V214.1H163.585ZM171.461 206.96C172.205 206.96 172.853 207.128 173.405 207.464C173.957 207.792 174.381 208.264 174.677 208.88C174.981 209.488 175.133 210.208 175.133 211.04C175.133 211.872 174.981 212.596 174.677 213.212C174.381 213.82 173.957 214.292 173.405 214.628C172.853 214.956 172.205 215.12 171.461 215.12C170.717 215.12 170.069 214.956 169.517 214.628C168.965 214.292 168.537 213.82 168.233 213.212C167.937 212.596 167.789 211.872 167.789 211.04C167.789 210.208 167.937 209.488 168.233 208.88C168.537 208.264 168.965 207.792 169.517 207.464C170.069 207.128 170.717 206.96 171.461 206.96ZM171.461 207.86C170.637 207.86 169.985 208.144 169.505 208.712C169.033 209.272 168.797 210.048 168.797 211.04C168.797 212.032 169.033 212.812 169.505 213.38C169.985 213.94 170.637 214.22 171.461 214.22C172.285 214.22 172.933 213.94 173.405 213.38C173.885 212.812 174.125 212.032 174.125 211.04C174.125 210.048 173.885 209.272 173.405 208.712C172.933 208.144 172.285 207.86 171.461 207.86ZM181.308 212.804H177.72L176.88 215H175.872L178.956 207.08H180.096L183.168 215H182.148L181.308 212.804ZM180.96 211.904L179.892 209.096L179.52 207.992H179.496L179.148 209.06L178.068 211.904H180.96ZM187.514 211.712H185.618V215H184.658V207.08H187.658C188.466 207.08 189.114 207.288 189.602 207.704C190.09 208.12 190.334 208.684 190.334 209.396C190.334 209.956 190.178 210.428 189.866 210.812C189.554 211.196 189.126 211.46 188.582 211.604L190.814 215H189.674L187.514 211.712ZM185.618 210.812H187.646C188.766 210.812 189.326 210.34 189.326 209.396C189.326 208.452 188.766 207.98 187.646 207.98H185.618V210.812ZM195.074 207.08C196.323 207.08 197.299 207.424 198.002 208.112C198.707 208.8 199.059 209.776 199.059 211.04C199.059 212.304 198.707 213.28 198.002 213.968C197.299 214.656 196.323 215 195.074 215H192.518V207.08H195.074ZM195.171 214.1C196.075 214.1 196.779 213.832 197.282 213.296C197.794 212.752 198.05 212 198.05 211.04C198.05 210.08 197.794 209.332 197.282 208.796C196.779 208.252 196.075 207.98 195.171 207.98H193.478V214.1H195.171ZM203.591 206.96C205.007 206.96 206.027 207.52 206.651 208.64L205.823 209.312C205.583 208.784 205.295 208.412 204.959 208.196C204.631 207.972 204.179 207.86 203.603 207.86C202.995 207.86 202.515 207.988 202.163 208.244C201.819 208.492 201.647 208.812 201.647 209.204C201.647 209.46 201.715 209.672 201.851 209.84C201.987 210.008 202.211 210.156 202.523 210.284C202.843 210.404 203.283 210.512 203.843 210.608C204.891 210.784 205.631 211.048 206.063 211.4C206.503 211.752 206.723 212.24 206.723 212.864C206.723 213.312 206.595 213.708 206.339 214.052C206.091 214.388 205.735 214.652 205.271 214.844C204.807 215.028 204.271 215.12 203.663 215.12C202.863 215.12 202.179 214.964 201.611 214.652C201.051 214.34 200.623 213.924 200.327 213.404L201.155 212.732C201.371 213.204 201.687 213.572 202.103 213.836C202.527 214.092 203.055 214.22 203.687 214.22C204.311 214.22 204.807 214.108 205.175 213.884C205.543 213.652 205.727 213.328 205.727 212.912C205.727 212.56 205.567 212.28 205.247 212.072C204.927 211.864 204.359 211.688 203.543 211.544C202.487 211.36 201.739 211.096 201.299 210.752C200.859 210.408 200.639 209.928 200.639 209.312C200.639 208.888 200.759 208.496 200.999 208.136C201.239 207.776 201.583 207.492 202.031 207.284C202.479 207.068 202.999 206.96 203.591 206.96Z" fill="#313131"/>
<rect x="69" y="172" width="43" height="43" rx="21.5" fill="#F4F4F4"/>
<path d="M86.6183 190.803V186.336C86.6183 184.687 87.9552 183.35 89.6044 183.35C91.2536 183.35 92.5906 184.687 92.5906 186.336V190.803C95.0588 189.154 95.7228 185.816 94.0736 183.348C92.4244 180.88 89.0865 180.216 86.6183 181.865C84.15 183.514 83.486 186.852 85.1353 189.32C85.5274 189.907 86.0313 190.411 86.6183 190.803ZM98.3716 196.333L92.9486 193.634C92.7443 193.548 92.5251 193.503 92.3036 193.503H91.3959V186.336C91.3959 185.346 90.5938 184.544 89.6042 184.544C88.6147 184.544 87.8126 185.346 87.8126 186.336V199.164C83.5126 198.257 83.5842 198.268 83.4291 198.268C83.0748 198.269 82.7354 198.411 82.4856 198.663L81.5417 199.618L87.4424 205.519C87.7785 205.854 88.2336 206.043 88.7084 206.044H96.8186C97.6953 206.041 98.4324 205.385 98.5386 204.515L99.4344 198.22C99.5716 197.419 99.128 196.631 98.3716 196.333Z" fill="#434784"/>
<g filter="url(#filter3_d)">
<rect x="55" y="232" width="285" height="60" rx="12" fill="white"/>
</g>
<path opacity="0.8" d="M143.68 255.972C143.432 256.644 143.024 257.172 142.456 257.556C141.888 257.932 141.232 258.12 140.488 258.12C139.744 258.12 139.096 257.956 138.544 257.628C137.992 257.292 137.564 256.82 137.26 256.212C136.964 255.596 136.816 254.872 136.816 254.04C136.816 253.216 136.964 252.496 137.26 251.88C137.564 251.264 137.992 250.792 138.544 250.464C139.096 250.128 139.736 249.96 140.464 249.96C141.224 249.96 141.86 250.116 142.372 250.428C142.892 250.74 143.28 251.2 143.536 251.808L142.588 252.252C142.412 251.788 142.156 251.44 141.82 251.208C141.484 250.976 141.056 250.86 140.536 250.86C139.992 250.86 139.516 250.988 139.108 251.244C138.7 251.492 138.384 251.856 138.16 252.336C137.936 252.816 137.824 253.384 137.824 254.04C137.824 255.032 138.06 255.812 138.532 256.38C139.012 256.94 139.664 257.22 140.488 257.22C141.024 257.22 141.488 257.084 141.88 256.812C142.272 256.54 142.552 256.14 142.72 255.612L143.68 255.972ZM150.899 257.1V258H145.403V250.08H146.363V257.1H150.899ZM153.414 258H152.454V250.08H153.414V258ZM162.269 255.972C162.021 256.644 161.613 257.172 161.045 257.556C160.477 257.932 159.821 258.12 159.077 258.12C158.333 258.12 157.685 257.956 157.133 257.628C156.581 257.292 156.153 256.82 155.849 256.212C155.553 255.596 155.405 254.872 155.405 254.04C155.405 253.216 155.553 252.496 155.849 251.88C156.153 251.264 156.581 250.792 157.133 250.464C157.685 250.128 158.325 249.96 159.053 249.96C159.813 249.96 160.449 250.116 160.961 250.428C161.481 250.74 161.869 251.2 162.125 251.808L161.177 252.252C161.001 251.788 160.745 251.44 160.409 251.208C160.073 250.976 159.645 250.86 159.125 250.86C158.581 250.86 158.105 250.988 157.697 251.244C157.289 251.492 156.973 251.856 156.749 252.336C156.525 252.816 156.413 253.384 156.413 254.04C156.413 255.032 156.649 255.812 157.121 256.38C157.601 256.94 158.253 257.22 159.077 257.22C159.613 257.22 160.077 257.084 160.469 256.812C160.861 256.54 161.141 256.14 161.309 255.612L162.269 255.972ZM166.368 254.016L164.952 255.456V258H163.992V250.08H164.952V254.16L168.936 250.08H170.196L167.04 253.308L170.232 258H169.08L166.368 254.016ZM174.764 255.36H170.804V254.364H174.764V255.36ZM177.017 250.08H179.837C180.749 250.08 181.425 250.272 181.865 250.656C182.313 251.032 182.537 251.568 182.537 252.264C182.537 252.68 182.417 253.048 182.177 253.368C181.945 253.688 181.621 253.888 181.205 253.968V253.98C181.669 254.068 182.041 254.28 182.321 254.616C182.601 254.952 182.741 255.34 182.741 255.78C182.741 256.46 182.485 257 181.973 257.4C181.461 257.8 180.745 258 179.825 258H177.017V250.08ZM179.849 253.56C180.417 253.56 180.837 253.456 181.109 253.248C181.389 253.032 181.529 252.704 181.529 252.264C181.529 251.408 180.969 250.98 179.849 250.98H177.977V253.56H179.849ZM180.053 257.1C180.613 257.1 181.033 256.988 181.313 256.764C181.593 256.532 181.733 256.204 181.733 255.78C181.733 255.356 181.593 255.032 181.313 254.808C181.033 254.576 180.613 254.46 180.053 254.46H177.977V257.1H180.053ZM190.473 257.1V258H184.737V250.08H190.293V250.98H185.697V253.536H189.273V254.436H185.697V257.1H190.473ZM194.934 258H193.746L191.406 250.08H192.438L194.346 257.244L196.218 250.08H197.31L199.182 257.268L201.102 250.08H202.074L199.746 258H198.558L197.154 252.864L196.746 251.076H196.734L196.326 252.864L194.934 258ZM209.417 257.1V258H203.681V250.08H209.237V250.98H204.641V253.536H208.217V254.436H204.641V257.1H209.417ZM214.069 254.712H212.173V258H211.213V250.08H214.213C215.021 250.08 215.669 250.288 216.157 250.704C216.645 251.12 216.889 251.684 216.889 252.396C216.889 252.956 216.733 253.428 216.421 253.812C216.109 254.196 215.681 254.46 215.137 254.604L217.369 258H216.229L214.069 254.712ZM212.173 253.812H214.201C215.321 253.812 215.881 253.34 215.881 252.396C215.881 251.452 215.321 250.98 214.201 250.98H212.173V253.812ZM219.074 250.08H221.894C222.806 250.08 223.482 250.272 223.922 250.656C224.37 251.032 224.594 251.568 224.594 252.264C224.594 252.68 224.474 253.048 224.234 253.368C224.002 253.688 223.678 253.888 223.262 253.968V253.98C223.726 254.068 224.098 254.28 224.378 254.616C224.658 254.952 224.798 255.34 224.798 255.78C224.798 256.46 224.542 257 224.03 257.4C223.518 257.8 222.802 258 221.882 258H219.074V250.08ZM221.906 253.56C222.474 253.56 222.894 253.456 223.166 253.248C223.446 253.032 223.586 252.704 223.586 252.264C223.586 251.408 223.026 250.98 221.906 250.98H220.034V253.56H221.906ZM222.11 257.1C222.67 257.1 223.09 256.988 223.37 256.764C223.65 256.532 223.79 256.204 223.79 255.78C223.79 255.356 223.65 255.032 223.37 254.808C223.09 254.576 222.67 254.46 222.11 254.46H220.034V257.1H222.11ZM232.925 255.048C232.925 256.064 232.657 256.832 232.121 257.352C231.593 257.864 230.825 258.12 229.817 258.12C228.809 258.12 228.037 257.86 227.501 257.34C226.973 256.82 226.709 256.056 226.709 255.048V250.08H227.669V254.808C227.669 255.64 227.841 256.252 228.185 256.644C228.537 257.028 229.081 257.22 229.817 257.22C230.553 257.22 231.093 257.028 231.437 256.644C231.789 256.252 231.965 255.64 231.965 254.808V250.08H232.925V255.048ZM241.526 258H240.338L237.026 252.696L236.186 251.136H236.174L236.222 252.408V258H235.31V250.08H236.498L239.798 255.36L240.65 256.944H240.662L240.614 255.672V250.08H241.526V258ZM250.447 254.004V258H249.727L249.691 256.932C249.459 257.316 249.131 257.612 248.707 257.82C248.291 258.02 247.787 258.12 247.195 258.12C246.451 258.12 245.803 257.956 245.251 257.628C244.699 257.292 244.271 256.82 243.967 256.212C243.671 255.596 243.523 254.872 243.523 254.04C243.523 253.216 243.675 252.496 243.979 251.88C244.291 251.264 244.723 250.792 245.275 250.464C245.835 250.128 246.483 249.96 247.219 249.96C248.003 249.96 248.647 250.108 249.151 250.404C249.663 250.7 250.075 251.156 250.387 251.772L249.511 252.252C249.335 251.804 249.047 251.46 248.647 251.22C248.255 250.98 247.779 250.86 247.219 250.86C246.683 250.86 246.211 250.988 245.803 251.244C245.403 251.5 245.091 251.868 244.867 252.348C244.643 252.82 244.531 253.384 244.531 254.04C244.531 255.048 244.763 255.832 245.227 256.392C245.691 256.944 246.359 257.22 247.231 257.22C247.919 257.22 248.479 257.044 248.911 256.692C249.351 256.34 249.571 255.836 249.571 255.18V254.904H247.051V254.004H250.447ZM139.852 267.08C141.1 267.08 142.076 267.424 142.78 268.112C143.484 268.8 143.836 269.776 143.836 271.04C143.836 272.304 143.484 273.28 142.78 273.968C142.076 274.656 141.1 275 139.852 275H137.296V267.08H139.852ZM139.948 274.1C140.852 274.1 141.556 273.832 142.06 273.296C142.572 272.752 142.828 272 142.828 271.04C142.828 270.08 142.572 269.332 142.06 268.796C141.556 268.252 140.852 267.98 139.948 267.98H138.256V274.1H139.948ZM146.784 275H145.824V267.08H146.784V275ZM152.111 271.712H150.215V275H149.255V267.08H152.255C153.063 267.08 153.711 267.288 154.199 267.704C154.687 268.12 154.931 268.684 154.931 269.396C154.931 269.956 154.775 270.428 154.463 270.812C154.151 271.196 153.723 271.46 153.179 271.604L155.411 275H154.271L152.111 271.712ZM150.215 270.812H152.243C153.363 270.812 153.923 270.34 153.923 269.396C153.923 268.452 153.363 267.98 152.243 267.98H150.215V270.812ZM162.852 274.1V275H157.116V267.08H162.672V267.98H158.076V270.536H161.652V271.436H158.076V274.1H162.852ZM167.024 271.016L165.608 272.456V275H164.648V267.08H165.608V271.16L169.592 267.08H170.852L167.696 270.308L170.888 275H169.736L167.024 271.016ZM177.971 267.98H175.211V275H174.251V267.98H171.491V267.08H177.971V267.98ZM187.138 272.804H183.55L182.71 275H181.702L184.786 267.08H185.926L188.998 275H187.978L187.138 272.804ZM186.79 271.904L185.722 269.096L185.35 267.992H185.326L184.978 269.06L183.898 271.904H186.79ZM196.351 272.048C196.351 273.064 196.083 273.832 195.547 274.352C195.019 274.864 194.251 275.12 193.243 275.12C192.235 275.12 191.463 274.86 190.927 274.34C190.399 273.82 190.135 273.056 190.135 272.048V267.08H191.095V271.808C191.095 272.64 191.267 273.252 191.611 273.644C191.963 274.028 192.507 274.22 193.243 274.22C193.979 274.22 194.519 274.028 194.863 273.644C195.215 273.252 195.391 272.64 195.391 271.808V267.08H196.351V272.048ZM199.696 267.98V270.536H203.272V271.436H199.696V275H198.736V267.08H204.28V267.98H199.696ZM209.628 267.08H212.448C213.36 267.08 214.036 267.272 214.476 267.656C214.924 268.032 215.148 268.568 215.148 269.264C215.148 269.68 215.028 270.048 214.788 270.368C214.556 270.688 214.232 270.888 213.816 270.968V270.98C214.28 271.068 214.652 271.28 214.932 271.616C215.212 271.952 215.352 272.34 215.352 272.78C215.352 273.46 215.096 274 214.584 274.4C214.072 274.8 213.356 275 212.436 275H209.628V267.08ZM212.46 270.56C213.028 270.56 213.448 270.456 213.72 270.248C214 270.032 214.14 269.704 214.14 269.264C214.14 268.408 213.58 267.98 212.46 267.98H210.588V270.56H212.46ZM212.664 274.1C213.224 274.1 213.644 273.988 213.924 273.764C214.204 273.532 214.344 273.204 214.344 272.78C214.344 272.356 214.204 272.032 213.924 271.808C213.644 271.576 213.224 271.46 212.664 271.46H210.588V274.1H212.664ZM223.084 274.1V275H217.348V267.08H222.904V267.98H218.308V270.536H221.884V271.436H218.308V274.1H223.084ZM225.841 275H224.881V267.08H225.841V275ZM234.527 275H233.339L230.027 269.696L229.187 268.136H229.175L229.223 269.408V275H228.311V267.08H229.499L232.799 272.36L233.651 273.944H233.663L233.615 272.672V267.08H234.527V275ZM242.572 267.98H239.812V275H238.852V267.98H236.092V267.08H242.572V267.98Z" fill="#313131"/>
<rect x="69" y="241" width="43" height="43" rx="21.5" fill="#F4F4F4"/>
<path d="M90.033 255.516C88.1838 255.516 86.4412 256.051 84.9831 256.941V249.958H80.4666V265.1C80.4666 270.408 84.7697 274.683 90.033 274.683C95.2964 274.683 99.5995 270.373 99.5995 265.1C99.6351 259.791 95.332 255.516 90.033 255.516ZM90.033 270.159C87.2591 270.159 84.9831 267.914 84.9831 265.1C84.9831 262.321 87.2236 260.041 90.033 260.041C92.8425 260.041 95.083 262.285 95.083 265.1C95.083 267.879 92.8425 270.159 90.033 270.159Z" fill="#434784"/>
<path d="M104.475 271.953C104.475 273.461 103.254 274.683 101.749 274.683C100.243 274.683 99.0227 273.461 99.0227 271.953C99.0227 270.444 100.243 269.222 101.749 269.222C103.254 269.222 104.475 270.444 104.475 271.953Z" fill="#434784"/>
<g filter="url(#filter4_d)">
<rect x="55" y="301" width="285" height="60" rx="12" fill="white"/>
</g>
<path opacity="0.8" d="M144.952 335H144.04V330.02L144.148 327.932H144.136L141.532 335H140.716L138.112 327.932H138.1L138.208 330.02V335H137.296V327.08H138.772L140.512 331.892L141.112 333.872H141.136L141.748 331.904L143.476 327.08H144.952V335ZM151.87 332.804H148.282L147.442 335H146.434L149.518 327.08H150.658L153.73 335H152.71L151.87 332.804ZM151.522 331.904L150.454 329.096L150.082 327.992H150.058L149.71 329.06L148.63 331.904H151.522ZM159.71 327.98H156.95V335H155.99V327.98H153.23V327.08H159.71V327.98ZM167.379 332.972C167.131 333.644 166.723 334.172 166.155 334.556C165.587 334.932 164.931 335.12 164.187 335.12C163.443 335.12 162.795 334.956 162.243 334.628C161.691 334.292 161.263 333.82 160.959 333.212C160.663 332.596 160.515 331.872 160.515 331.04C160.515 330.216 160.663 329.496 160.959 328.88C161.263 328.264 161.691 327.792 162.243 327.464C162.795 327.128 163.435 326.96 164.163 326.96C164.923 326.96 165.559 327.116 166.071 327.428C166.591 327.74 166.979 328.2 167.235 328.808L166.287 329.252C166.111 328.788 165.855 328.44 165.519 328.208C165.183 327.976 164.755 327.86 164.235 327.86C163.691 327.86 163.215 327.988 162.807 328.244C162.399 328.492 162.083 328.856 161.859 329.336C161.635 329.816 161.523 330.384 161.523 331.04C161.523 332.032 161.759 332.812 162.231 333.38C162.711 333.94 163.363 334.22 164.187 334.22C164.723 334.22 165.187 334.084 165.579 333.812C165.971 333.54 166.251 333.14 166.419 332.612L167.379 332.972ZM175.317 327.08V335H174.357V331.436H170.061V335H169.101V327.08H170.061V330.536H174.357V327.08H175.317ZM178.754 335H177.794V327.08H178.754V335ZM187.44 335H186.252L182.94 329.696L182.1 328.136H182.088L182.136 329.408V335H181.224V327.08H182.412L185.712 332.36L186.564 333.944H186.576L186.528 332.672V327.08H187.44V335ZM196.361 331.004V335H195.641L195.605 333.932C195.373 334.316 195.045 334.612 194.621 334.82C194.205 335.02 193.701 335.12 193.109 335.12C192.365 335.12 191.717 334.956 191.165 334.628C190.613 334.292 190.185 333.82 189.881 333.212C189.585 332.596 189.437 331.872 189.437 331.04C189.437 330.216 189.589 329.496 189.893 328.88C190.205 328.264 190.637 327.792 191.189 327.464C191.749 327.128 192.397 326.96 193.133 326.96C193.917 326.96 194.561 327.108 195.065 327.404C195.577 327.7 195.989 328.156 196.301 328.772L195.425 329.252C195.249 328.804 194.961 328.46 194.561 328.22C194.169 327.98 193.693 327.86 193.133 327.86C192.597 327.86 192.125 327.988 191.717 328.244C191.317 328.5 191.005 328.868 190.781 329.348C190.557 329.82 190.445 330.384 190.445 331.04C190.445 332.048 190.677 332.832 191.141 333.392C191.605 333.944 192.273 334.22 193.145 334.22C193.833 334.22 194.393 334.044 194.825 333.692C195.265 333.34 195.485 332.836 195.485 332.18V331.904H192.965V331.004H196.361Z" fill="#313131"/>
<rect x="69" y="310" width="43" height="43" rx="21.5" fill="#F4F4F4"/>
<path d="M98.5624 325.229H83.8707V325.946H98.5624V325.229Z" fill="#434784"/>
<path d="M81.0041 330.067C83.4778 330.067 85.4832 328.061 85.4832 325.588C85.4832 323.114 83.4778 321.108 81.0041 321.108C78.5303 321.108 76.5249 323.114 76.5249 325.588C76.5249 328.061 78.5303 330.067 81.0041 330.067Z" fill="#434784"/>
<path d="M98.5624 337.054H83.8707V337.771H98.5624V337.054Z" fill="#434784"/>
<path d="M81.0041 341.892C83.4778 341.892 85.4832 339.886 85.4832 337.413C85.4832 334.939 83.4778 332.933 81.0041 332.933C78.5303 332.933 76.5249 334.939 76.5249 337.413C76.5249 339.886 78.5303 341.892 81.0041 341.892Z" fill="#434784"/>
<path d="M100.354 330.067C102.828 330.067 104.833 328.061 104.833 325.588C104.833 323.114 102.828 321.108 100.354 321.108C97.8804 321.108 95.875 323.114 95.875 325.588C95.875 328.061 97.8804 330.067 100.354 330.067Z" fill="white"/>
<path d="M100.354 341.892C102.828 341.892 104.833 339.886 104.833 337.413C104.833 334.939 102.828 332.933 100.354 332.933C97.8804 332.933 95.875 334.939 95.875 337.413C95.875 339.886 97.8804 341.892 100.354 341.892Z" fill="white"/>
<g filter="url(#filter5_d)">
<rect x="55" y="370" width="285" height="60" rx="12" fill="white"/>
</g>
<path opacity="0.8" d="M140.092 388.08C140.892 388.08 141.536 388.3 142.024 388.74C142.512 389.172 142.756 389.756 142.756 390.492C142.756 391.228 142.512 391.816 142.024 392.256C141.536 392.688 140.892 392.904 140.092 392.904H138.256V396H137.296V388.08H140.092ZM139.948 392.004C140.564 392.004 141.016 391.88 141.304 391.632C141.6 391.376 141.748 390.996 141.748 390.492C141.748 389.988 141.6 389.612 141.304 389.364C141.016 389.108 140.564 388.98 139.948 388.98H138.256V392.004H139.948ZM145.46 396H144.5V388.08H145.46V396ZM150.727 388.08C151.527 388.08 152.171 388.3 152.659 388.74C153.147 389.172 153.391 389.756 153.391 390.492C153.391 391.228 153.147 391.816 152.659 392.256C152.171 392.688 151.527 392.904 150.727 392.904H148.891V396H147.931V388.08H150.727ZM150.583 392.004C151.199 392.004 151.651 391.88 151.939 391.632C152.235 391.376 152.383 390.996 152.383 390.492C152.383 389.988 152.235 389.612 151.939 389.364C151.651 389.108 151.199 388.98 150.583 388.98H148.891V392.004H150.583ZM160.871 395.1V396H155.135V388.08H160.691V388.98H156.095V391.536H159.671V392.436H156.095V395.1H160.871ZM168.164 395.1V396H162.668V388.08H163.628V395.1H168.164ZM170.679 396H169.719V388.08H170.679V396ZM179.366 396H178.178L174.866 390.696L174.026 389.136H174.014L174.062 390.408V396H173.15V388.08H174.338L177.638 393.36L178.49 394.944H178.502L178.454 393.672V388.08H179.366V396ZM187.579 395.1V396H181.843V388.08H187.399V388.98H182.803V391.536H186.379V392.436H182.803V395.1H187.579ZM199.477 393.048C199.477 394.064 199.209 394.832 198.673 395.352C198.145 395.864 197.377 396.12 196.369 396.12C195.361 396.12 194.589 395.86 194.053 395.34C193.525 394.82 193.261 394.056 193.261 393.048V388.08H194.221V392.808C194.221 393.64 194.393 394.252 194.737 394.644C195.089 395.028 195.633 395.22 196.369 395.22C197.105 395.22 197.645 395.028 197.989 394.644C198.341 394.252 198.517 393.64 198.517 392.808V388.08H199.477V393.048ZM208.078 396H206.89L203.578 390.696L202.738 389.136H202.726L202.774 390.408V396H201.862V388.08H203.05L206.35 393.36L207.202 394.944H207.214L207.166 393.672V388.08H208.078V396ZM213.11 388.08C214.358 388.08 215.334 388.424 216.038 389.112C216.742 389.8 217.094 390.776 217.094 392.04C217.094 393.304 216.742 394.28 216.038 394.968C215.334 395.656 214.358 396 213.11 396H210.554V388.08H213.11ZM213.206 395.1C214.11 395.1 214.814 394.832 215.318 394.296C215.83 393.752 216.086 393 216.086 392.04C216.086 391.08 215.83 390.332 215.318 389.796C214.814 389.252 214.11 388.98 213.206 388.98H211.514V395.1H213.206ZM229.184 393.048C229.184 394.064 228.916 394.832 228.38 395.352C227.852 395.864 227.084 396.12 226.076 396.12C225.068 396.12 224.296 395.86 223.76 395.34C223.232 394.82 222.968 394.056 222.968 393.048V388.08H223.928V392.808C223.928 393.64 224.1 394.252 224.444 394.644C224.796 395.028 225.34 395.22 226.076 395.22C226.812 395.22 227.352 395.028 227.696 394.644C228.048 394.252 228.224 393.64 228.224 392.808V388.08H229.184V393.048ZM224.912 385.728C225.12 385.728 225.284 385.792 225.404 385.92C225.532 386.04 225.596 386.204 225.596 386.412C225.596 386.612 225.532 386.776 225.404 386.904C225.284 387.032 225.12 387.096 224.912 387.096C224.712 387.096 224.548 387.032 224.42 386.904C224.292 386.776 224.228 386.612 224.228 386.412C224.228 386.204 224.292 386.04 224.42 385.92C224.548 385.792 224.712 385.728 224.912 385.728ZM227.24 385.728C227.448 385.728 227.612 385.792 227.732 385.92C227.86 386.04 227.924 386.204 227.924 386.412C227.924 386.612 227.86 386.776 227.732 386.904C227.612 387.032 227.448 387.096 227.24 387.096C227.04 387.096 226.876 387.032 226.748 386.904C226.62 386.776 226.556 386.612 226.556 386.412C226.556 386.204 226.62 386.04 226.748 385.92C226.876 385.792 227.04 385.728 227.24 385.728ZM231.569 388.08H234.389C235.301 388.08 235.977 388.272 236.417 388.656C236.865 389.032 237.089 389.568 237.089 390.264C237.089 390.68 236.969 391.048 236.729 391.368C236.497 391.688 236.173 391.888 235.757 391.968V391.98C236.221 392.068 236.593 392.28 236.873 392.616C237.153 392.952 237.293 393.34 237.293 393.78C237.293 394.46 237.037 395 236.525 395.4C236.013 395.8 235.297 396 234.377 396H231.569V388.08ZM234.401 391.56C234.969 391.56 235.389 391.456 235.661 391.248C235.941 391.032 236.081 390.704 236.081 390.264C236.081 389.408 235.521 388.98 234.401 388.98H232.529V391.56H234.401ZM234.605 395.1C235.165 395.1 235.585 394.988 235.865 394.764C236.145 394.532 236.285 394.204 236.285 393.78C236.285 393.356 236.145 393.032 235.865 392.808C235.585 392.576 235.165 392.46 234.605 392.46H232.529V395.1H234.605ZM245.025 395.1V396H239.289V388.08H244.845V388.98H240.249V391.536H243.825V392.436H240.249V395.1H245.025ZM249.677 392.712H247.781V396H246.821V388.08H249.821C250.629 388.08 251.277 388.288 251.765 388.704C252.253 389.12 252.497 389.684 252.497 390.396C252.497 390.956 252.341 391.428 252.029 391.812C251.717 392.196 251.289 392.46 250.745 392.604L252.977 396H251.837L249.677 392.712ZM247.781 391.812H249.809C250.929 391.812 251.489 391.34 251.489 390.396C251.489 389.452 250.929 388.98 249.809 388.98H247.781V391.812ZM257.226 387.96C258.642 387.96 259.662 388.52 260.286 389.64L259.458 390.312C259.218 389.784 258.93 389.412 258.594 389.196C258.266 388.972 257.814 388.86 257.238 388.86C256.63 388.86 256.15 388.988 255.798 389.244C255.454 389.492 255.282 389.812 255.282 390.204C255.282 390.46 255.35 390.672 255.486 390.84C255.622 391.008 255.846 391.156 256.158 391.284C256.478 391.404 256.918 391.512 257.478 391.608C258.526 391.784 259.266 392.048 259.698 392.4C260.138 392.752 260.358 393.24 260.358 393.864C260.358 394.312 260.23 394.708 259.974 395.052C259.726 395.388 259.37 395.652 258.906 395.844C258.442 396.028 257.906 396.12 257.298 396.12C256.498 396.12 255.814 395.964 255.246 395.652C254.686 395.34 254.258 394.924 253.962 394.404L254.79 393.732C255.006 394.204 255.322 394.572 255.738 394.836C256.162 395.092 256.69 395.22 257.322 395.22C257.946 395.22 258.442 395.108 258.81 394.884C259.178 394.652 259.362 394.328 259.362 393.912C259.362 393.56 259.202 393.28 258.882 393.072C258.562 392.864 257.994 392.688 257.178 392.544C256.122 392.36 255.374 392.096 254.934 391.752C254.494 391.408 254.274 390.928 254.274 390.312C254.274 389.888 254.394 389.496 254.634 389.136C254.874 388.776 255.218 388.492 255.666 388.284C256.114 388.068 256.634 387.96 257.226 387.96ZM263.209 396H262.249V388.08H263.209V396ZM272.064 393.972C271.816 394.644 271.408 395.172 270.84 395.556C270.272 395.932 269.616 396.12 268.872 396.12C268.128 396.12 267.48 395.956 266.928 395.628C266.376 395.292 265.948 394.82 265.644 394.212C265.348 393.596 265.2 392.872 265.2 392.04C265.2 391.216 265.348 390.496 265.644 389.88C265.948 389.264 266.376 388.792 266.928 388.464C267.48 388.128 268.12 387.96 268.848 387.96C269.608 387.96 270.244 388.116 270.756 388.428C271.276 388.74 271.664 389.2 271.92 389.808L270.972 390.252C270.796 389.788 270.54 389.44 270.204 389.208C269.868 388.976 269.44 388.86 268.92 388.86C268.376 388.86 267.9 388.988 267.492 389.244C267.084 389.492 266.768 389.856 266.544 390.336C266.32 390.816 266.208 391.384 266.208 392.04C266.208 393.032 266.444 393.812 266.916 394.38C267.396 394.94 268.048 395.22 268.872 395.22C269.408 395.22 269.872 395.084 270.264 394.812C270.656 394.54 270.936 394.14 271.104 393.612L272.064 393.972ZM280.003 388.08V396H279.043V392.436H274.747V396H273.787V388.08H274.747V391.536H279.043V388.08H280.003ZM288.047 388.98H285.287V396H284.327V388.98H281.567V388.08H288.047V388.98ZM299.375 393.048C299.375 394.064 299.107 394.832 298.571 395.352C298.043 395.864 297.275 396.12 296.267 396.12C295.259 396.12 294.487 395.86 293.951 395.34C293.423 394.82 293.159 394.056 293.159 393.048V388.08H294.119V392.808C294.119 393.64 294.291 394.252 294.635 394.644C294.987 395.028 295.531 395.22 296.267 395.22C297.003 395.22 297.543 395.028 297.887 394.644C298.239 394.252 298.415 393.64 298.415 392.808V388.08H299.375V393.048ZM295.103 385.728C295.311 385.728 295.475 385.792 295.595 385.92C295.723 386.04 295.787 386.204 295.787 386.412C295.787 386.612 295.723 386.776 295.595 386.904C295.475 387.032 295.311 387.096 295.103 387.096C294.903 387.096 294.739 387.032 294.611 386.904C294.483 386.776 294.419 386.612 294.419 386.412C294.419 386.204 294.483 386.04 294.611 385.92C294.739 385.792 294.903 385.728 295.103 385.728ZM297.431 385.728C297.639 385.728 297.803 385.792 297.923 385.92C298.051 386.04 298.115 386.204 298.115 386.412C298.115 386.612 298.051 386.776 297.923 386.904C297.803 387.032 297.639 387.096 297.431 387.096C297.231 387.096 297.067 387.032 296.939 386.904C296.811 386.776 296.747 386.612 296.747 386.412C296.747 386.204 296.811 386.04 296.939 385.92C297.067 385.792 297.231 385.728 297.431 385.728ZM301.76 388.08H304.58C305.492 388.08 306.168 388.272 306.608 388.656C307.056 389.032 307.28 389.568 307.28 390.264C307.28 390.68 307.16 391.048 306.92 391.368C306.688 391.688 306.364 391.888 305.948 391.968V391.98C306.412 392.068 306.784 392.28 307.064 392.616C307.344 392.952 307.484 393.34 307.484 393.78C307.484 394.46 307.228 395 306.716 395.4C306.204 395.8 305.488 396 304.568 396H301.76V388.08ZM304.592 391.56C305.16 391.56 305.58 391.456 305.852 391.248C306.132 391.032 306.272 390.704 306.272 390.264C306.272 389.408 305.712 388.98 304.592 388.98H302.72V391.56H304.592ZM304.796 395.1C305.356 395.1 305.776 394.988 306.056 394.764C306.336 394.532 306.476 394.204 306.476 393.78C306.476 393.356 306.336 393.032 306.056 392.808C305.776 392.576 305.356 392.46 304.796 392.46H302.72V395.1H304.796ZM315.216 395.1V396H309.48V388.08H315.036V388.98H310.44V391.536H314.016V392.436H310.44V395.1H315.216ZM319.868 392.712H317.972V396H317.012V388.08H320.012C320.82 388.08 321.468 388.288 321.956 388.704C322.444 389.12 322.688 389.684 322.688 390.396C322.688 390.956 322.532 391.428 322.22 391.812C321.908 392.196 321.48 392.46 320.936 392.604L323.168 396H322.028L319.868 392.712ZM317.972 391.812H320C321.12 391.812 321.68 391.34 321.68 390.396C321.68 389.452 321.12 388.98 320 388.98H317.972V391.812ZM139.852 405.08C141.1 405.08 142.076 405.424 142.78 406.112C143.484 406.8 143.836 407.776 143.836 409.04C143.836 410.304 143.484 411.28 142.78 411.968C142.076 412.656 141.1 413 139.852 413H137.296V405.08H139.852ZM139.948 412.1C140.852 412.1 141.556 411.832 142.06 411.296C142.572 410.752 142.828 410 142.828 409.04C142.828 408.08 142.572 407.332 142.06 406.796C141.556 406.252 140.852 405.98 139.948 405.98H138.256V412.1H139.948ZM151.56 412.1V413H145.824V405.08H151.38V405.98H146.784V408.536H150.36V409.436H146.784V412.1H151.56ZM154.317 413H153.357V405.08H154.317V413ZM163.004 413H161.816L158.504 407.696L157.664 406.136H157.652L157.7 407.408V413H156.788V405.08H157.976L161.276 410.36L162.128 411.944H162.14L162.092 410.672V405.08H163.004V413ZM171.216 412.1V413H165.48V405.08H171.036V405.98H166.44V408.536H170.016V409.436H166.44V412.1H171.216ZM176.982 405.08H179.802C180.714 405.08 181.39 405.272 181.83 405.656C182.278 406.032 182.502 406.568 182.502 407.264C182.502 407.68 182.382 408.048 182.142 408.368C181.91 408.688 181.586 408.888 181.17 408.968V408.98C181.634 409.068 182.006 409.28 182.286 409.616C182.566 409.952 182.706 410.34 182.706 410.78C182.706 411.46 182.45 412 181.938 412.4C181.426 412.8 180.71 413 179.79 413H176.982V405.08ZM179.814 408.56C180.382 408.56 180.802 408.456 181.074 408.248C181.354 408.032 181.494 407.704 181.494 407.264C181.494 406.408 180.934 405.98 179.814 405.98H177.942V408.56H179.814ZM180.018 412.1C180.578 412.1 180.998 411.988 181.278 411.764C181.558 411.532 181.698 411.204 181.698 410.78C181.698 410.356 181.558 410.032 181.278 409.808C180.998 409.576 180.578 409.46 180.018 409.46H177.942V412.1H180.018ZM190.438 412.1V413H184.702V405.08H190.258V405.98H185.662V408.536H189.238V409.436H185.662V412.1H190.438ZM194.898 413H193.71L191.37 405.08H192.402L194.31 412.244L196.182 405.08H197.274L199.146 412.268L201.066 405.08H202.038L199.71 413H198.522L197.118 407.864L196.71 406.076H196.698L196.29 407.864L194.898 413ZM209.382 412.1V413H203.646V405.08H209.202V405.98H204.606V408.536H208.182V409.436H204.606V412.1H209.382ZM214.034 409.712H212.138V413H211.178V405.08H214.178C214.986 405.08 215.634 405.288 216.122 405.704C216.61 406.12 216.854 406.684 216.854 407.396C216.854 407.956 216.698 408.428 216.386 408.812C216.074 409.196 215.646 409.46 215.102 409.604L217.334 413H216.194L214.034 409.712ZM212.138 408.812H214.166C215.286 408.812 215.846 408.34 215.846 407.396C215.846 406.452 215.286 405.98 214.166 405.98H212.138V408.812ZM219.039 405.08H221.859C222.771 405.08 223.447 405.272 223.887 405.656C224.335 406.032 224.559 406.568 224.559 407.264C224.559 407.68 224.439 408.048 224.199 408.368C223.967 408.688 223.643 408.888 223.227 408.968V408.98C223.691 409.068 224.063 409.28 224.343 409.616C224.623 409.952 224.763 410.34 224.763 410.78C224.763 411.46 224.507 412 223.995 412.4C223.483 412.8 222.767 413 221.847 413H219.039V405.08ZM221.871 408.56C222.439 408.56 222.859 408.456 223.131 408.248C223.411 408.032 223.551 407.704 223.551 407.264C223.551 406.408 222.991 405.98 221.871 405.98H219.999V408.56H221.871ZM222.075 412.1C222.635 412.1 223.055 411.988 223.335 411.764C223.615 411.532 223.755 411.204 223.755 410.78C223.755 410.356 223.615 410.032 223.335 409.808C223.055 409.576 222.635 409.46 222.075 409.46H219.999V412.1H222.075ZM232.89 410.048C232.89 411.064 232.622 411.832 232.086 412.352C231.558 412.864 230.79 413.12 229.782 413.12C228.774 413.12 228.002 412.86 227.466 412.34C226.938 411.82 226.674 411.056 226.674 410.048V405.08H227.634V409.808C227.634 410.64 227.806 411.252 228.15 411.644C228.502 412.028 229.046 412.22 229.782 412.22C230.518 412.22 231.058 412.028 231.402 411.644C231.754 411.252 231.93 410.64 231.93 409.808V405.08H232.89V410.048ZM241.491 413H240.303L236.991 407.696L236.151 406.136H236.139L236.187 407.408V413H235.275V405.08H236.463L239.763 410.36L240.615 411.944H240.627L240.579 410.672V405.08H241.491V413ZM250.412 409.004V413H249.692L249.656 411.932C249.424 412.316 249.096 412.612 248.672 412.82C248.256 413.02 247.752 413.12 247.16 413.12C246.416 413.12 245.768 412.956 245.216 412.628C244.664 412.292 244.236 411.82 243.932 411.212C243.636 410.596 243.488 409.872 243.488 409.04C243.488 408.216 243.64 407.496 243.944 406.88C244.256 406.264 244.688 405.792 245.24 405.464C245.8 405.128 246.448 404.96 247.184 404.96C247.968 404.96 248.612 405.108 249.116 405.404C249.628 405.7 250.04 406.156 250.352 406.772L249.476 407.252C249.3 406.804 249.012 406.46 248.612 406.22C248.22 405.98 247.744 405.86 247.184 405.86C246.648 405.86 246.176 405.988 245.768 406.244C245.368 406.5 245.056 406.868 244.832 407.348C244.608 407.82 244.496 408.384 244.496 409.04C244.496 410.048 244.728 410.832 245.192 411.392C245.656 411.944 246.324 412.22 247.196 412.22C247.884 412.22 248.444 412.044 248.876 411.692C249.316 411.34 249.536 410.836 249.536 410.18V409.904H247.016V409.004H250.412ZM258.267 412.1V413H252.531V405.08H258.087V405.98H253.491V408.536H257.067V409.436H253.491V412.1H258.267ZM266.28 413H265.092L261.78 407.696L260.94 406.136H260.928L260.976 407.408V413H260.064V405.08H261.252L264.552 410.36L265.404 411.944H265.416L265.368 410.672V405.08H266.28V413Z" fill="#313131"/>
<rect x="69" y="379" width="43" height="43" rx="21.5" fill="#F4F4F4"/>
<path d="M81.0849 393.536C83.5868 396.743 88.206 402.688 88.206 402.688V410.119C88.208 410.802 88.7615 411.356 89.4448 411.357H91.9216C92.6047 411.355 93.158 410.802 93.16 410.119V402.688C93.16 402.688 97.7671 396.743 100.269 393.536C100.688 392.997 100.59 392.22 100.051 391.801C99.8338 391.632 99.5661 391.541 99.2907 391.542H82.0631C81.3806 391.54 80.8262 392.093 80.825 392.775C80.8244 393.05 80.9159 393.318 81.0849 393.536Z" fill="#434784"/>
<g filter="url(#filter6_d)">
<rect x="55" y="439" width="285" height="60" rx="12" fill="white"/>
</g>
<path opacity="0.8" d="M140.092 449.08C140.892 449.08 141.536 449.3 142.024 449.74C142.512 450.172 142.756 450.756 142.756 451.492C142.756 452.228 142.512 452.816 142.024 453.256C141.536 453.688 140.892 453.904 140.092 453.904H138.256V457H137.296V449.08H140.092ZM139.948 453.004C140.564 453.004 141.016 452.88 141.304 452.632C141.6 452.376 141.748 451.996 141.748 451.492C141.748 450.988 141.6 450.612 141.304 450.364C141.016 450.108 140.564 449.98 139.948 449.98H138.256V453.004H139.948ZM147.044 448.96C148.46 448.96 149.48 449.52 150.104 450.64L149.276 451.312C149.036 450.784 148.748 450.412 148.412 450.196C148.084 449.972 147.632 449.86 147.056 449.86C146.448 449.86 145.968 449.988 145.616 450.244C145.272 450.492 145.1 450.812 145.1 451.204C145.1 451.46 145.168 451.672 145.304 451.84C145.44 452.008 145.664 452.156 145.976 452.284C146.296 452.404 146.736 452.512 147.296 452.608C148.344 452.784 149.084 453.048 149.516 453.4C149.956 453.752 150.176 454.24 150.176 454.864C150.176 455.312 150.048 455.708 149.792 456.052C149.544 456.388 149.188 456.652 148.724 456.844C148.26 457.028 147.724 457.12 147.116 457.12C146.316 457.12 145.632 456.964 145.064 456.652C144.504 456.34 144.076 455.924 143.78 455.404L144.608 454.732C144.824 455.204 145.14 455.572 145.556 455.836C145.98 456.092 146.508 456.22 147.14 456.22C147.764 456.22 148.26 456.108 148.628 455.884C148.996 455.652 149.18 455.328 149.18 454.912C149.18 454.56 149.02 454.28 148.7 454.072C148.38 453.864 147.812 453.688 146.996 453.544C145.94 453.36 145.192 453.096 144.752 452.752C144.312 452.408 144.092 451.928 144.092 451.312C144.092 450.888 144.212 450.496 144.452 450.136C144.692 449.776 145.036 449.492 145.484 449.284C145.932 449.068 146.452 448.96 147.044 448.96ZM154.496 453.904V457H153.536V453.904L150.704 449.08H151.844L154.016 452.92L156.188 449.08H157.328L154.496 453.904ZM164.777 454.972C164.529 455.644 164.121 456.172 163.553 456.556C162.985 456.932 162.329 457.12 161.585 457.12C160.841 457.12 160.193 456.956 159.641 456.628C159.089 456.292 158.661 455.82 158.357 455.212C158.061 454.596 157.913 453.872 157.913 453.04C157.913 452.216 158.061 451.496 158.357 450.88C158.661 450.264 159.089 449.792 159.641 449.464C160.193 449.128 160.833 448.96 161.561 448.96C162.321 448.96 162.957 449.116 163.469 449.428C163.989 449.74 164.377 450.2 164.633 450.808L163.685 451.252C163.509 450.788 163.253 450.44 162.917 450.208C162.581 449.976 162.153 449.86 161.633 449.86C161.089 449.86 160.613 449.988 160.205 450.244C159.797 450.492 159.481 450.856 159.257 451.336C159.033 451.816 158.921 452.384 158.921 453.04C158.921 454.032 159.157 454.812 159.629 455.38C160.109 455.94 160.761 456.22 161.585 456.22C162.121 456.22 162.585 456.084 162.977 455.812C163.369 455.54 163.649 455.14 163.817 454.612L164.777 454.972ZM172.716 449.08V457H171.756V453.436H167.46V457H166.5V449.08H167.46V452.536H171.756V449.08H172.716ZM178.384 448.96C179.128 448.96 179.776 449.128 180.328 449.464C180.88 449.792 181.304 450.264 181.6 450.88C181.904 451.488 182.056 452.208 182.056 453.04C182.056 453.872 181.904 454.596 181.6 455.212C181.304 455.82 180.88 456.292 180.328 456.628C179.776 456.956 179.128 457.12 178.384 457.12C177.64 457.12 176.992 456.956 176.44 456.628C175.888 456.292 175.46 455.82 175.156 455.212C174.86 454.596 174.712 453.872 174.712 453.04C174.712 452.208 174.86 451.488 175.156 450.88C175.46 450.264 175.888 449.792 176.44 449.464C176.992 449.128 177.64 448.96 178.384 448.96ZM178.384 449.86C177.56 449.86 176.908 450.144 176.428 450.712C175.956 451.272 175.72 452.048 175.72 453.04C175.72 454.032 175.956 454.812 176.428 455.38C176.908 455.94 177.56 456.22 178.384 456.22C179.208 456.22 179.856 455.94 180.328 455.38C180.808 454.812 181.048 454.032 181.048 453.04C181.048 452.048 180.808 451.272 180.328 450.712C179.856 450.144 179.208 449.86 178.384 449.86ZM191.705 457H190.793V452.02L190.901 449.932H190.889L188.285 457H187.469L184.865 449.932H184.853L184.961 452.02V457H184.049V449.08H185.525L187.265 453.892L187.865 455.872H187.889L188.501 453.904L190.229 449.08H191.705V457ZM199.907 456.1V457H194.171V449.08H199.727V449.98H195.131V452.536H198.707V453.436H195.131V456.1H199.907ZM207.271 449.98H204.511V457H203.551V449.98H200.791V449.08H207.271V449.98ZM211.681 453.712H209.785V457H208.825V449.08H211.825C212.633 449.08 213.281 449.288 213.769 449.704C214.257 450.12 214.501 450.684 214.501 451.396C214.501 451.956 214.345 452.428 214.033 452.812C213.721 453.196 213.293 453.46 212.749 453.604L214.981 457H213.841L211.681 453.712ZM209.785 452.812H211.813C212.933 452.812 213.493 452.34 213.493 451.396C213.493 450.452 212.933 449.98 211.813 449.98H209.785V452.812ZM217.646 457H216.686V449.08H217.646V457ZM225.853 456.1V457H220.117V449.08H225.673V449.98H221.077V452.536H224.653V453.436H221.077V456.1H225.853ZM230.819 454.36H226.859V453.364H230.819V454.36ZM243.174 454.048C243.174 455.064 242.906 455.832 242.37 456.352C241.842 456.864 241.074 457.12 240.066 457.12C239.058 457.12 238.286 456.86 237.75 456.34C237.222 455.82 236.958 455.056 236.958 454.048V449.08H237.918V453.808C237.918 454.64 238.09 455.252 238.434 455.644C238.786 456.028 239.33 456.22 240.066 456.22C240.802 456.22 241.342 456.028 241.686 455.644C242.038 455.252 242.214 454.64 242.214 453.808V449.08H243.174V454.048ZM251.774 457H250.586L247.274 451.696L246.434 450.136H246.422L246.47 451.408V457H245.558V449.08H246.746L250.046 454.36L250.898 455.944H250.91L250.862 454.672V449.08H251.774V457ZM256.807 449.08C258.055 449.08 259.031 449.424 259.735 450.112C260.439 450.8 260.791 451.776 260.791 453.04C260.791 454.304 260.439 455.28 259.735 455.968C259.031 456.656 258.055 457 256.807 457H254.251V449.08H256.807ZM256.903 456.1C257.807 456.1 258.511 455.832 259.015 455.296C259.527 454.752 259.783 454 259.783 453.04C259.783 452.08 259.527 451.332 259.015 450.796C258.511 450.252 257.807 449.98 256.903 449.98H255.211V456.1H256.903ZM143.032 473.1V474H137.296V466.08H142.852V466.98H138.256V469.536H141.832V470.436H138.256V473.1H143.032ZM145.788 474H144.828V466.08H145.788V474ZM154.703 470.004V474H153.983L153.947 472.932C153.715 473.316 153.387 473.612 152.963 473.82C152.547 474.02 152.043 474.12 151.451 474.12C150.707 474.12 150.059 473.956 149.507 473.628C148.955 473.292 148.527 472.82 148.223 472.212C147.927 471.596 147.779 470.872 147.779 470.04C147.779 469.216 147.931 468.496 148.235 467.88C148.547 467.264 148.979 466.792 149.531 466.464C150.091 466.128 150.739 465.96 151.475 465.96C152.259 465.96 152.903 466.108 153.407 466.404C153.919 466.7 154.331 467.156 154.643 467.772L153.767 468.252C153.591 467.804 153.303 467.46 152.903 467.22C152.511 466.98 152.035 466.86 151.475 466.86C150.939 466.86 150.467 466.988 150.059 467.244C149.659 467.5 149.347 467.868 149.123 468.348C148.899 468.82 148.787 469.384 148.787 470.04C148.787 471.048 149.019 471.832 149.483 472.392C149.947 472.944 150.615 473.22 151.487 473.22C152.175 473.22 152.735 473.044 153.167 472.692C153.607 472.34 153.827 471.836 153.827 471.18V470.904H151.307V470.004H154.703ZM163.039 474H161.851L158.539 468.696L157.699 467.136H157.687L157.735 468.408V474H156.823V466.08H158.011L161.311 471.36L162.163 472.944H162.175L162.127 471.672V466.08H163.039V474ZM171.647 471.048C171.647 472.064 171.379 472.832 170.843 473.352C170.315 473.864 169.547 474.12 168.539 474.12C167.531 474.12 166.759 473.86 166.223 473.34C165.695 472.82 165.431 472.056 165.431 471.048V466.08H166.391V470.808C166.391 471.64 166.563 472.252 166.907 472.644C167.259 473.028 167.803 473.22 168.539 473.22C169.275 473.22 169.815 473.028 170.159 472.644C170.511 472.252 170.687 471.64 170.687 470.808V466.08H171.647V471.048ZM180.248 474H179.06L175.748 468.696L174.908 467.136H174.896L174.944 468.408V474H174.032V466.08H175.22L178.52 471.36L179.372 472.944H179.384L179.336 471.672V466.08H180.248V474ZM189.168 470.004V474H188.448L188.412 472.932C188.18 473.316 187.852 473.612 187.428 473.82C187.012 474.02 186.508 474.12 185.916 474.12C185.172 474.12 184.524 473.956 183.972 473.628C183.42 473.292 182.992 472.82 182.688 472.212C182.392 471.596 182.244 470.872 182.244 470.04C182.244 469.216 182.396 468.496 182.7 467.88C183.012 467.264 183.444 466.792 183.996 466.464C184.556 466.128 185.204 465.96 185.94 465.96C186.724 465.96 187.368 466.108 187.872 466.404C188.384 466.7 188.796 467.156 189.108 467.772L188.232 468.252C188.056 467.804 187.768 467.46 187.368 467.22C186.976 466.98 186.5 466.86 185.94 466.86C185.404 466.86 184.932 466.988 184.524 467.244C184.124 467.5 183.812 467.868 183.588 468.348C183.364 468.82 183.252 469.384 183.252 470.04C183.252 471.048 183.484 471.832 183.948 472.392C184.412 472.944 185.08 473.22 185.952 473.22C186.64 473.22 187.2 473.044 187.632 472.692C188.072 472.34 188.292 471.836 188.292 471.18V470.904H185.772V470.004H189.168ZM193.832 465.96C195.248 465.96 196.268 466.52 196.892 467.64L196.064 468.312C195.824 467.784 195.536 467.412 195.2 467.196C194.872 466.972 194.42 466.86 193.844 466.86C193.236 466.86 192.756 466.988 192.404 467.244C192.06 467.492 191.888 467.812 191.888 468.204C191.888 468.46 191.956 468.672 192.092 468.84C192.228 469.008 192.452 469.156 192.764 469.284C193.084 469.404 193.524 469.512 194.084 469.608C195.132 469.784 195.872 470.048 196.304 470.4C196.744 470.752 196.964 471.24 196.964 471.864C196.964 472.312 196.836 472.708 196.58 473.052C196.332 473.388 195.976 473.652 195.512 473.844C195.048 474.028 194.512 474.12 193.904 474.12C193.104 474.12 192.42 473.964 191.852 473.652C191.292 473.34 190.864 472.924 190.568 472.404L191.396 471.732C191.612 472.204 191.928 472.572 192.344 472.836C192.768 473.092 193.296 473.22 193.928 473.22C194.552 473.22 195.048 473.108 195.416 472.884C195.784 472.652 195.968 472.328 195.968 471.912C195.968 471.56 195.808 471.28 195.488 471.072C195.168 470.864 194.6 470.688 193.784 470.544C192.728 470.36 191.98 470.096 191.54 469.752C191.1 469.408 190.88 468.928 190.88 468.312C190.88 467.888 191 467.496 191.24 467.136C191.48 466.776 191.824 466.492 192.272 466.284C192.72 466.068 193.24 465.96 193.832 465.96ZM201.412 466.08C202.66 466.08 203.636 466.424 204.34 467.112C205.044 467.8 205.396 468.776 205.396 470.04C205.396 471.304 205.044 472.28 204.34 472.968C203.636 473.656 202.66 474 201.412 474H198.856V466.08H201.412ZM201.508 473.1C202.412 473.1 203.116 472.832 203.62 472.296C204.132 471.752 204.388 471 204.388 470.04C204.388 469.08 204.132 468.332 203.62 467.796C203.116 467.252 202.412 466.98 201.508 466.98H199.816V473.1H201.508ZM208.344 474H207.384V466.08H208.344V474ZM215.267 471.804H211.679L210.839 474H209.831L212.915 466.08H214.055L217.127 474H216.107L215.267 471.804ZM214.919 470.904L213.851 468.096L213.479 466.992H213.455L213.107 468.06L212.027 470.904H214.919ZM224.791 470.004V474H224.071L224.035 472.932C223.803 473.316 223.475 473.612 223.051 473.82C222.635 474.02 222.131 474.12 221.539 474.12C220.795 474.12 220.147 473.956 219.595 473.628C219.043 473.292 218.615 472.82 218.311 472.212C218.015 471.596 217.867 470.872 217.867 470.04C217.867 469.216 218.019 468.496 218.323 467.88C218.635 467.264 219.067 466.792 219.619 466.464C220.179 466.128 220.827 465.96 221.563 465.96C222.347 465.96 222.991 466.108 223.495 466.404C224.007 466.7 224.419 467.156 224.731 467.772L223.855 468.252C223.679 467.804 223.391 467.46 222.991 467.22C222.599 466.98 222.123 466.86 221.563 466.86C221.027 466.86 220.555 466.988 220.147 467.244C219.747 467.5 219.435 467.868 219.211 468.348C218.987 468.82 218.875 469.384 218.875 470.04C218.875 471.048 219.107 471.832 219.571 472.392C220.035 472.944 220.703 473.22 221.575 473.22C222.263 473.22 222.823 473.044 223.255 472.692C223.695 472.34 223.915 471.836 223.915 471.18V470.904H221.395V470.004H224.791ZM233.127 474H231.939L228.627 468.696L227.787 467.136H227.775L227.823 468.408V474H226.911V466.08H228.099L231.399 471.36L232.251 472.944H232.263L232.215 471.672V466.08H233.127V474ZM238.795 465.96C239.539 465.96 240.187 466.128 240.739 466.464C241.291 466.792 241.715 467.264 242.011 467.88C242.315 468.488 242.467 469.208 242.467 470.04C242.467 470.872 242.315 471.596 242.011 472.212C241.715 472.82 241.291 473.292 240.739 473.628C240.187 473.956 239.539 474.12 238.795 474.12C238.051 474.12 237.403 473.956 236.851 473.628C236.299 473.292 235.871 472.82 235.567 472.212C235.271 471.596 235.123 470.872 235.123 470.04C235.123 469.208 235.271 468.488 235.567 467.88C235.871 467.264 236.299 466.792 236.851 466.464C237.403 466.128 238.051 465.96 238.795 465.96ZM238.795 466.86C237.971 466.86 237.319 467.144 236.839 467.712C236.367 468.272 236.131 469.048 236.131 470.04C236.131 471.032 236.367 471.812 236.839 472.38C237.319 472.94 237.971 473.22 238.795 473.22C239.619 473.22 240.267 472.94 240.739 472.38C241.219 471.812 241.459 471.032 241.459 470.04C241.459 469.048 241.219 468.272 240.739 467.712C240.267 467.144 239.619 466.86 238.795 466.86ZM247.004 465.96C248.42 465.96 249.44 466.52 250.064 467.64L249.236 468.312C248.996 467.784 248.708 467.412 248.372 467.196C248.044 466.972 247.592 466.86 247.016 466.86C246.408 466.86 245.928 466.988 245.576 467.244C245.232 467.492 245.06 467.812 245.06 468.204C245.06 468.46 245.128 468.672 245.264 468.84C245.4 469.008 245.624 469.156 245.936 469.284C246.256 469.404 246.696 469.512 247.256 469.608C248.304 469.784 249.044 470.048 249.476 470.4C249.916 470.752 250.136 471.24 250.136 471.864C250.136 472.312 250.008 472.708 249.752 473.052C249.504 473.388 249.148 473.652 248.684 473.844C248.22 474.028 247.684 474.12 247.076 474.12C246.276 474.12 245.592 473.964 245.024 473.652C244.464 473.34 244.036 472.924 243.74 472.404L244.568 471.732C244.784 472.204 245.1 472.572 245.516 472.836C245.94 473.092 246.468 473.22 247.1 473.22C247.724 473.22 248.22 473.108 248.588 472.884C248.956 472.652 249.14 472.328 249.14 471.912C249.14 471.56 248.98 471.28 248.66 471.072C248.34 470.864 247.772 470.688 246.956 470.544C245.9 470.36 245.152 470.096 244.712 469.752C244.272 469.408 244.052 468.928 244.052 468.312C244.052 467.888 244.172 467.496 244.412 467.136C244.652 466.776 244.996 466.492 245.444 466.284C245.892 466.068 246.412 465.96 247.004 465.96ZM257.232 466.98H254.472V474H253.512V466.98H250.752V466.08H257.232V466.98ZM259.746 474H258.786V466.08H259.746V474ZM264.761 465.96C266.177 465.96 267.197 466.52 267.821 467.64L266.993 468.312C266.753 467.784 266.465 467.412 266.129 467.196C265.801 466.972 265.349 466.86 264.773 466.86C264.165 466.86 263.685 466.988 263.333 467.244C262.989 467.492 262.817 467.812 262.817 468.204C262.817 468.46 262.885 468.672 263.021 468.84C263.157 469.008 263.381 469.156 263.693 469.284C264.013 469.404 264.453 469.512 265.013 469.608C266.061 469.784 266.801 470.048 267.233 470.4C267.673 470.752 267.893 471.24 267.893 471.864C267.893 472.312 267.765 472.708 267.509 473.052C267.261 473.388 266.905 473.652 266.441 473.844C265.977 474.028 265.441 474.12 264.833 474.12C264.033 474.12 263.349 473.964 262.781 473.652C262.221 473.34 261.793 472.924 261.497 472.404L262.325 471.732C262.541 472.204 262.857 472.572 263.273 472.836C263.697 473.092 264.225 473.22 264.857 473.22C265.481 473.22 265.977 473.108 266.345 472.884C266.713 472.652 266.897 472.328 266.897 471.912C266.897 471.56 266.737 471.28 266.417 471.072C266.097 470.864 265.529 470.688 264.713 470.544C263.657 470.36 262.909 470.096 262.469 469.752C262.029 469.408 261.809 468.928 261.809 468.312C261.809 467.888 261.929 467.496 262.169 467.136C262.409 466.776 262.753 466.492 263.201 466.284C263.649 466.068 264.169 465.96 264.761 465.96ZM276.168 471.972C275.92 472.644 275.512 473.172 274.944 473.556C274.376 473.932 273.72 474.12 272.976 474.12C272.232 474.12 271.584 473.956 271.032 473.628C270.48 473.292 270.052 472.82 269.748 472.212C269.452 471.596 269.304 470.872 269.304 470.04C269.304 469.216 269.452 468.496 269.748 467.88C270.052 467.264 270.48 466.792 271.032 466.464C271.584 466.128 272.224 465.96 272.952 465.96C273.712 465.96 274.348 466.116 274.86 466.428C275.38 466.74 275.768 467.2 276.024 467.808L275.076 468.252C274.9 467.788 274.644 467.44 274.308 467.208C273.972 466.976 273.544 466.86 273.024 466.86C272.48 466.86 272.004 466.988 271.596 467.244C271.188 467.492 270.872 467.856 270.648 468.336C270.424 468.816 270.312 469.384 270.312 470.04C270.312 471.032 270.548 471.812 271.02 472.38C271.5 472.94 272.152 473.22 272.976 473.22C273.512 473.22 273.976 473.084 274.368 472.812C274.76 472.54 275.04 472.14 275.208 471.612L276.168 471.972ZM284.107 466.08V474H283.147V470.436H278.851V474H277.891V466.08H278.851V469.536H283.147V466.08H284.107ZM292.32 473.1V474H286.584V466.08H292.14V466.98H287.544V469.536H291.12V470.436H287.544V473.1H292.32ZM141.748 488.804H138.16L137.32 491H136.312L139.396 483.08H140.536L143.608 491H142.588L141.748 488.804ZM141.4 487.904L140.332 485.096L139.96 483.992H139.936L139.588 485.06L138.508 487.904H141.4ZM147.548 482.96C148.964 482.96 149.984 483.52 150.608 484.64L149.78 485.312C149.54 484.784 149.252 484.412 148.916 484.196C148.588 483.972 148.136 483.86 147.56 483.86C146.952 483.86 146.472 483.988 146.12 484.244C145.776 484.492 145.604 484.812 145.604 485.204C145.604 485.46 145.672 485.672 145.808 485.84C145.944 486.008 146.168 486.156 146.48 486.284C146.8 486.404 147.24 486.512 147.8 486.608C148.848 486.784 149.588 487.048 150.02 487.4C150.46 487.752 150.68 488.24 150.68 488.864C150.68 489.312 150.552 489.708 150.296 490.052C150.048 490.388 149.692 490.652 149.228 490.844C148.764 491.028 148.228 491.12 147.62 491.12C146.82 491.12 146.136 490.964 145.568 490.652C145.008 490.34 144.58 489.924 144.284 489.404L145.112 488.732C145.328 489.204 145.644 489.572 146.06 489.836C146.484 490.092 147.012 490.22 147.644 490.22C148.268 490.22 148.764 490.108 149.132 489.884C149.5 489.652 149.684 489.328 149.684 488.912C149.684 488.56 149.524 488.28 149.204 488.072C148.884 487.864 148.316 487.688 147.5 487.544C146.444 487.36 145.696 487.096 145.256 486.752C144.816 486.408 144.596 485.928 144.596 485.312C144.596 484.888 144.716 484.496 144.956 484.136C145.196 483.776 145.54 483.492 145.988 483.284C146.436 483.068 146.956 482.96 147.548 482.96ZM155.116 482.96C156.532 482.96 157.552 483.52 158.176 484.64L157.348 485.312C157.108 484.784 156.82 484.412 156.484 484.196C156.156 483.972 155.704 483.86 155.128 483.86C154.52 483.86 154.04 483.988 153.688 484.244C153.344 484.492 153.172 484.812 153.172 485.204C153.172 485.46 153.24 485.672 153.376 485.84C153.512 486.008 153.736 486.156 154.048 486.284C154.368 486.404 154.808 486.512 155.368 486.608C156.416 486.784 157.156 487.048 157.588 487.4C158.028 487.752 158.248 488.24 158.248 488.864C158.248 489.312 158.12 489.708 157.864 490.052C157.616 490.388 157.26 490.652 156.796 490.844C156.332 491.028 155.796 491.12 155.188 491.12C154.388 491.12 153.704 490.964 153.136 490.652C152.576 490.34 152.148 489.924 151.852 489.404L152.68 488.732C152.896 489.204 153.212 489.572 153.628 489.836C154.052 490.092 154.58 490.22 155.212 490.22C155.836 490.22 156.332 490.108 156.7 489.884C157.068 489.652 157.252 489.328 157.252 488.912C157.252 488.56 157.092 488.28 156.772 488.072C156.452 487.864 155.884 487.688 155.068 487.544C154.012 487.36 153.264 487.096 152.824 486.752C152.384 486.408 152.164 485.928 152.164 485.312C152.164 484.888 152.284 484.496 152.524 484.136C152.764 483.776 153.108 483.492 153.556 483.284C154.004 483.068 154.524 482.96 155.116 482.96ZM165.875 490.1V491H160.139V483.08H165.695V483.98H161.099V486.536H164.675V487.436H161.099V490.1H165.875ZM170.215 482.96C171.631 482.96 172.651 483.52 173.275 484.64L172.447 485.312C172.207 484.784 171.919 484.412 171.583 484.196C171.255 483.972 170.803 483.86 170.227 483.86C169.619 483.86 169.139 483.988 168.787 484.244C168.443 484.492 168.271 484.812 168.271 485.204C168.271 485.46 168.339 485.672 168.475 485.84C168.611 486.008 168.835 486.156 169.147 486.284C169.467 486.404 169.907 486.512 170.467 486.608C171.515 486.784 172.255 487.048 172.687 487.4C173.127 487.752 173.347 488.24 173.347 488.864C173.347 489.312 173.219 489.708 172.963 490.052C172.715 490.388 172.359 490.652 171.895 490.844C171.431 491.028 170.895 491.12 170.287 491.12C169.487 491.12 168.803 490.964 168.235 490.652C167.675 490.34 167.247 489.924 166.951 489.404L167.779 488.732C167.995 489.204 168.311 489.572 168.727 489.836C169.151 490.092 169.679 490.22 170.311 490.22C170.935 490.22 171.431 490.108 171.799 489.884C172.167 489.652 172.351 489.328 172.351 488.912C172.351 488.56 172.191 488.28 171.871 488.072C171.551 487.864 170.983 487.688 170.167 487.544C169.111 487.36 168.363 487.096 167.923 486.752C167.483 486.408 167.263 485.928 167.263 485.312C167.263 484.888 167.383 484.496 167.623 484.136C167.863 483.776 168.207 483.492 168.655 483.284C169.103 483.068 169.623 482.96 170.215 482.96ZM177.783 482.96C179.199 482.96 180.219 483.52 180.843 484.64L180.015 485.312C179.775 484.784 179.487 484.412 179.151 484.196C178.823 483.972 178.371 483.86 177.795 483.86C177.187 483.86 176.707 483.988 176.355 484.244C176.011 484.492 175.839 484.812 175.839 485.204C175.839 485.46 175.907 485.672 176.043 485.84C176.179 486.008 176.403 486.156 176.715 486.284C177.035 486.404 177.475 486.512 178.035 486.608C179.083 486.784 179.823 487.048 180.255 487.4C180.695 487.752 180.915 488.24 180.915 488.864C180.915 489.312 180.787 489.708 180.531 490.052C180.283 490.388 179.927 490.652 179.463 490.844C178.999 491.028 178.463 491.12 177.855 491.12C177.055 491.12 176.371 490.964 175.803 490.652C175.243 490.34 174.815 489.924 174.519 489.404L175.347 488.732C175.563 489.204 175.879 489.572 176.295 489.836C176.719 490.092 177.247 490.22 177.879 490.22C178.503 490.22 178.999 490.108 179.367 489.884C179.735 489.652 179.919 489.328 179.919 488.912C179.919 488.56 179.759 488.28 179.439 488.072C179.119 487.864 178.551 487.688 177.735 487.544C176.679 487.36 175.931 487.096 175.491 486.752C175.051 486.408 174.831 485.928 174.831 485.312C174.831 484.888 174.951 484.496 175.191 484.136C175.431 483.776 175.775 483.492 176.223 483.284C176.671 483.068 177.191 482.96 177.783 482.96ZM190.462 491H189.55V486.02L189.658 483.932H189.646L187.042 491H186.226L183.622 483.932H183.61L183.718 486.02V491H182.806V483.08H184.282L186.022 487.892L186.622 489.872H186.646L187.258 487.904L188.986 483.08H190.462V491ZM198.665 490.1V491H192.929V483.08H198.485V483.98H193.889V486.536H197.465V487.436H193.889V490.1H198.665ZM206.677 491H205.489L202.177 485.696L201.337 484.136H201.325L201.373 485.408V491H200.461V483.08H201.649L204.949 488.36L205.801 489.944H205.813L205.765 488.672V483.08H206.677V491ZM214.721 483.98H211.961V491H211.001V483.98H208.241V483.08H214.721V483.98ZM218.456 482.96C219.872 482.96 220.892 483.52 221.516 484.64L220.688 485.312C220.448 484.784 220.16 484.412 219.824 484.196C219.496 483.972 219.044 483.86 218.468 483.86C217.86 483.86 217.38 483.988 217.028 484.244C216.684 484.492 216.512 484.812 216.512 485.204C216.512 485.46 216.58 485.672 216.716 485.84C216.852 486.008 217.076 486.156 217.388 486.284C217.708 486.404 218.148 486.512 218.708 486.608C219.756 486.784 220.496 487.048 220.928 487.4C221.368 487.752 221.588 488.24 221.588 488.864C221.588 489.312 221.46 489.708 221.204 490.052C220.956 490.388 220.6 490.652 220.136 490.844C219.672 491.028 219.136 491.12 218.528 491.12C217.728 491.12 217.044 490.964 216.476 490.652C215.916 490.34 215.488 489.924 215.192 489.404L216.02 488.732C216.236 489.204 216.552 489.572 216.968 489.836C217.392 490.092 217.92 490.22 218.552 490.22C219.176 490.22 219.672 490.108 220.04 489.884C220.408 489.652 220.592 489.328 220.592 488.912C220.592 488.56 220.432 488.28 220.112 488.072C219.792 487.864 219.224 487.688 218.408 487.544C217.352 487.36 216.604 487.096 216.164 486.752C215.724 486.408 215.504 485.928 215.504 485.312C215.504 484.888 215.624 484.496 215.864 484.136C216.104 483.776 216.448 483.492 216.896 483.284C217.344 483.068 217.864 482.96 218.456 482.96Z" fill="#313131"/>
<rect x="69" y="448" width="43" height="43" rx="21.5" fill="#F4F4F4"/>
<path d="M96.4313 458.939L102.433 469.331L96.4313 479.723H84.4271L78.425 469.331L84.4271 458.939H96.4313Z" fill="white"/>
<path d="M96.5145 458.929L84.5078 479.784" stroke="#F9F9F9" stroke-linecap="round"/>
<path d="M102.494 469.35L98.1817 469.351L78.4958 469.356" fill="#F9F9F9"/>
<path d="M102.494 469.35L98.1817 469.351L78.4958 469.356" stroke="#F9F9F9" stroke-linecap="round"/>
<path d="M96.5145 479.784L84.5078 458.929" stroke="#F9F9F9" stroke-linecap="round"/>
<path opacity="0.948" d="M80.7927 469.349C82.7083 472.865 86.5806 476.158 86.5806 476.158L94.9357 477.009L96.3991 469.351L92.9775 465.086L90.0751 468.621L80.7927 469.349Z" fill="#434784"/>
<path opacity="0.532" d="M86.3274 462.094L93.8433 463.626L96.8177 469.368L93.8433 474.49L87.9994 473.395L86.3274 462.094Z" fill="#434784"/>
<defs>
<filter id="filter0_d" x="52" y="0" width="291" height="66" filterUnits="userSpaceOnUse" color-interpolation-filters="sRGB">
<feFlood flood-opacity="0" result="BackgroundImageFix"/>
<feColorMatrix in="SourceAlpha" type="matrix" values="0 0 0 0 0 0 0 0 0 0 0 0 0 0 0 0 0 0 127 0"/>
<feOffset dy="1"/>
<feGaussianBlur stdDeviation="1.5"/>
<feColorMatrix type="matrix" values="0 0 0 0 0 0 0 0 0 0 0 0 0 0 0 0 0 0 0.17 0"/>
<feBlend mode="normal" in2="BackgroundImageFix" result="effect1_dropShadow"/>
<feBlend mode="normal" in="SourceGraphic" in2="effect1_dropShadow" result="shape"/>
</filter>
<filter id="filter1_d" x="52" y="69" width="291" height="66" filterUnits="userSpaceOnUse" color-interpolation-filters="sRGB">
<feFlood flood-opacity="0" result="BackgroundImageFix"/>
<feColorMatrix in="SourceAlpha" type="matrix" values="0 0 0 0 0 0 0 0 0 0 0 0 0 0 0 0 0 0 127 0"/>
<feOffset dy="1"/>
<feGaussianBlur stdDeviation="1.5"/>
<feColorMatrix type="matrix" values="0 0 0 0 0 0 0 0 0 0 0 0 0 0 0 0 0 0 0.17 0"/>
<feBlend mode="normal" in2="BackgroundImageFix" result="effect1_dropShadow"/>
<feBlend mode="normal" in="SourceGraphic" in2="effect1_dropShadow" result="shape"/>
</filter>
<filter id="filter2_d" x="52" y="161" width="291" height="66" filterUnits="userSpaceOnUse" color-interpolation-filters="sRGB">
<feFlood flood-opacity="0" result="BackgroundImageFix"/>
<feColorMatrix in="SourceAlpha" type="matrix" values="0 0 0 0 0 0 0 0 0 0 0 0 0 0 0 0 0 0 127 0"/>
<feOffset dy="1"/>
<feGaussianBlur stdDeviation="1.5"/>
<feColorMatrix type="matrix" values="0 0 0 0 0 0 0 0 0 0 0 0 0 0 0 0 0 0 0.17 0"/>
<feBlend mode="normal" in2="BackgroundImageFix" result="effect1_dropShadow"/>
<feBlend mode="normal" in="SourceGraphic" in2="effect1_dropShadow" result="shape"/>
</filter>
<filter id="filter3_d" x="52" y="230" width="291" height="66" filterUnits="userSpaceOnUse" color-interpolation-filters="sRGB">
<feFlood flood-opacity="0" result="BackgroundImageFix"/>
<feColorMatrix in="SourceAlpha" type="matrix" values="0 0 0 0 0 0 0 0 0 0 0 0 0 0 0 0 0 0 127 0"/>
<feOffset dy="1"/>
<feGaussianBlur stdDeviation="1.5"/>
<feColorMatrix type="matrix" values="0 0 0 0 0 0 0 0 0 0 0 0 0 0 0 0 0 0 0.17 0"/>
<feBlend mode="normal" in2="BackgroundImageFix" result="effect1_dropShadow"/>
<feBlend mode="normal" in="SourceGraphic" in2="effect1_dropShadow" result="shape"/>
</filter>
<filter id="filter4_d" x="52" y="299" width="291" height="66" filterUnits="userSpaceOnUse" color-interpolation-filters="sRGB">
<feFlood flood-opacity="0" result="BackgroundImageFix"/>
<feColorMatrix in="SourceAlpha" type="matrix" values="0 0 0 0 0 0 0 0 0 0 0 0 0 0 0 0 0 0 127 0"/>
<feOffset dy="1"/>
<feGaussianBlur stdDeviation="1.5"/>
<feColorMatrix type="matrix" values="0 0 0 0 0 0 0 0 0 0 0 0 0 0 0 0 0 0 0.17 0"/>
<feBlend mode="normal" in2="BackgroundImageFix" result="effect1_dropShadow"/>
<feBlend mode="normal" in="SourceGraphic" in2="effect1_dropShadow" result="shape"/>
</filter>
<filter id="filter5_d" x="52" y="368" width="291" height="66" filterUnits="userSpaceOnUse" color-interpolation-filters="sRGB">
<feFlood flood-opacity="0" result="BackgroundImageFix"/>
<feColorMatrix in="SourceAlpha" type="matrix" values="0 0 0 0 0 0 0 0 0 0 0 0 0 0 0 0 0 0 127 0"/>
<feOffset dy="1"/>
<feGaussianBlur stdDeviation="1.5"/>
<feColorMatrix type="matrix" values="0 0 0 0 0 0 0 0 0 0 0 0 0 0 0 0 0 0 0.17 0"/>
<feBlend mode="normal" in2="BackgroundImageFix" result="effect1_dropShadow"/>
<feBlend mode="normal" in="SourceGraphic" in2="effect1_dropShadow" result="shape"/>
</filter>
<filter id="filter6_d" x="52" y="437" width="291" height="66" filterUnits="userSpaceOnUse" color-interpolation-filters="sRGB">
<feFlood flood-opacity="0" result="BackgroundImageFix"/>
<feColorMatrix in="SourceAlpha" type="matrix" values="0 0 0 0 0 0 0 0 0 0 0 0 0 0 0 0 0 0 127 0"/>
<feOffset dy="1"/>
<feGaussianBlur stdDeviation="1.5"/>
<feColorMatrix type="matrix" values="0 0 0 0 0 0 0 0 0 0 0 0 0 0 0 0 0 0 0.17 0"/>
<feBlend mode="normal" in2="BackgroundImageFix" result="effect1_dropShadow"/>
<feBlend mode="normal" in="SourceGraphic" in2="effect1_dropShadow" result="shape"/>
</filter>
<clipPath id="clip0">
<rect width="22.9333" height="22.9355" fill="white" transform="translate(79.0334 21.0332)"/>
</clipPath>
<clipPath id="clip1">
<rect width="22.9333" height="22.9355" fill="white" transform="translate(79.0334 90.0332)"/>
</clipPath>
</defs>
</svg>
