<svg width="103" height="115" viewBox="0 0 103 115" fill="none" xmlns="http://www.w3.org/2000/svg">
<path d="M102.067 6.42805C102.749 5.04767 102.669 3.41299 101.857 2.10543C101.045 0.797867 99.6142 0.00268555 98.0747 0.00268555H69.2668C67.5719 0.00268555 66.0242 0.964653 65.2739 2.48443L47.4968 38.4863C40.9318 39.1323 34.8535 41.4626 29.7017 45.0386L11.862 8.90979H30.737L37.8874 23.3907C38.9764 25.5961 41.6465 26.5009 43.8519 25.412C46.0571 24.3229 46.962 21.6523 45.873 19.4469L37.4973 2.48443C36.747 0.964653 35.199 0.00268555 33.5044 0.00268555H4.69647C3.15703 0.00268555 1.72668 0.797867 0.913989 2.10543C0.101516 3.41299 0.0218054 5.04767 0.703579 6.42805L22.6944 50.9636C22.7312 51.0382 22.7699 51.1112 22.8102 51.1827C16.9428 57.8528 13.3801 66.5973 13.3801 76.1584C13.3801 97.0318 30.3603 114.014 51.2316 114.014C58.1936 114.014 65.0009 112.106 70.9173 108.497C73.017 107.216 73.6807 104.475 72.4 102.375C71.1191 100.275 68.3788 99.6113 66.2794 100.892C61.7602 103.649 56.5567 105.106 51.2312 105.106C35.2705 105.106 22.2859 92.1202 22.2859 76.1582C22.2859 60.1962 35.2705 47.2101 51.2312 47.2101C67.1918 47.2101 80.1765 60.1962 80.1765 76.1582C80.1765 79.9682 79.4493 83.6689 78.0152 87.1576C77.0802 89.4325 78.1661 92.0349 80.4408 92.9701C82.7155 93.9054 85.3179 92.8192 86.2528 90.5443C88.1309 85.9758 89.083 81.1357 89.083 76.1584C89.083 66.6969 85.5939 58.0347 79.8354 51.3916C79.9227 51.2548 80.0031 51.1121 80.0765 50.9636L102.067 6.42805ZM72.9903 45.1987C68.3978 41.9609 63.0562 39.7181 57.2817 38.7864L72.0342 8.90979H90.909L72.9903 45.1987Z" fill="#F9F9F9"/>
<path d="M51.4543 92.1912C53.9137 92.1912 55.9074 90.1974 55.9074 87.7377V65.0246C55.9074 62.5649 53.9137 60.571 51.4543 60.571H43.6613C41.2019 60.571 39.2082 62.5649 39.2082 65.0246C39.2082 67.4842 41.2019 69.4781 43.6613 69.4781H47.0012V87.7377C47.0012 90.1974 48.9948 92.1912 51.4543 92.1912Z" fill="#F9F9F9"/>
</svg>
