<svg width="92" height="115" viewBox="0 0 92 115" fill="none" xmlns="http://www.w3.org/2000/svg">
<path d="M86.865 78.3852C89.3247 78.3852 91.3186 76.3911 91.3186 73.9312V17.8188C91.3082 7.98358 83.3385 0.0131673 73.5042 0.00268555H18.7538C8.92104 0.0152518 0.953703 7.98505 0.943237 17.8188V96.1975C0.953703 106.031 8.92104 114.001 18.7538 114.014H73.5042C83.3385 114.003 91.3082 106.033 91.3187 96.1975C91.3187 93.7376 89.3247 91.7435 86.8651 91.7435C84.4054 91.7435 82.4114 93.7376 82.4114 96.1975C82.4072 101.116 78.4218 105.101 73.5042 105.106H18.7538C13.8377 105.099 9.85463 101.114 9.85044 96.1975V17.8188C9.85463 12.9007 13.8401 8.91493 18.7577 8.91074H73.5042C78.4218 8.91493 82.4072 12.9007 82.4114 17.8188V73.9312C82.4114 76.3911 84.4054 78.3852 86.865 78.3852Z" fill="#F9F9F9"/>
<path d="M69.0507 26.7231H23.1846C20.725 26.7231 18.731 28.7172 18.731 31.1771C18.731 33.637 20.725 35.6311 23.1846 35.6311H69.0507C71.5103 35.6311 73.5042 33.637 73.5042 31.1771C73.5042 28.7172 71.5103 26.7231 69.0507 26.7231Z" fill="#F9F9F9"/>
<path d="M23.1846 44.5392C20.725 44.5336 18.7265 46.5232 18.7209 48.9831C18.7154 51.443 20.7048 53.4416 23.1645 53.4472H69.0507C71.5103 53.4528 73.5088 51.4632 73.5143 49.0033C73.5199 46.5434 71.5304 44.5447 69.0708 44.5392H23.1846Z" fill="#F9F9F9"/>
<path d="M23.1847 62.3515C20.725 62.3459 18.7266 64.3355 18.721 66.7954C18.7154 69.2553 20.7049 71.2539 23.1646 71.2595H51.0425C53.5021 71.2651 55.5006 69.2755 55.5061 66.8156C55.5117 64.3557 53.5222 62.357 51.0626 62.3515H23.1847Z" fill="#F9F9F9"/>
</svg>
