<svg width="115" height="112" viewBox="0 0 115 112" fill="none" xmlns="http://www.w3.org/2000/svg">
<path d="M111.477 78.2816C110.322 77.1267 108.941 76.2852 107.438 75.7765V26.1366L111.223 24.8489C113.139 24.1968 114.428 22.4077 114.428 20.3966C114.428 18.3855 113.139 16.5964 111.223 15.9443L70.8102 2.19494C62.2177 -0.727958 52.7538 -0.728287 44.1613 2.19527L3.7495 15.9439C1.8315 16.596 0.543213 18.3855 0.543213 20.3966C0.543213 22.4077 1.8315 24.1972 3.74884 24.8489L21.8493 31.007V65.5305C21.8493 68.8556 23.7725 71.9381 26.7496 73.3834C31.7413 75.8076 42.372 79.8744 57.4854 79.8744C72.5989 79.8744 83.2296 75.8076 88.2219 73.3834C91.1983 71.9381 93.1216 68.8556 93.1216 65.5305V31.0072L100.714 28.4241V75.7764C99.2106 76.2852 97.8294 77.1269 96.6746 78.282C94.6968 80.2596 93.6082 82.8883 93.6082 85.6844V101.052C93.6082 103.846 94.6968 106.475 96.6746 108.454C98.651 110.431 101.279 111.52 104.076 111.52C106.871 111.52 109.5 110.431 111.478 108.453C113.455 106.476 114.543 103.847 114.543 101.052V85.6844C114.543 82.8879 113.455 80.2589 111.477 78.2816ZM46.3268 8.56117C53.5227 6.11338 61.4488 6.11338 68.6447 8.56117L103.433 20.3966L88.9168 25.3349C88.7327 25.3828 88.5531 25.4399 88.3827 25.5167L68.6447 32.2317C61.4481 34.6801 53.5221 34.6792 46.3268 32.232L26.5878 25.5165C26.4184 25.4401 26.2399 25.3836 26.057 25.3358L11.539 20.3966L46.3268 8.56117ZM86.3978 65.5305C86.3978 66.2981 85.9605 67.006 85.2848 67.3347C80.8119 69.5064 71.2535 73.15 57.4854 73.15C43.7174 73.15 34.159 69.5064 29.6867 67.3347C29.0104 67.006 28.5731 66.2981 28.5731 65.5305V33.2945L44.1613 38.5979C48.4575 40.0597 52.9712 40.7903 57.4854 40.7903C61.9997 40.7903 66.514 40.0597 70.8102 38.5979L86.3978 33.2948V65.5305ZM107.819 101.052C107.819 102.052 107.43 102.992 106.724 103.699C106.016 104.406 105.076 104.795 104.076 104.795C103.076 104.795 102.136 104.406 101.429 103.7C100.722 102.991 100.332 102.051 100.332 101.052V85.6844C100.332 84.6846 100.721 83.7443 101.429 83.0367C102.136 82.3298 103.076 81.9403 104.076 81.9403C105.076 81.9403 106.016 82.3298 106.724 83.037C107.43 83.7439 107.819 84.684 107.819 85.6844V101.052Z" fill="#F9F9F9"/>
</svg>
