<svg width="115" height="106" viewBox="0 0 115 106" fill="none" xmlns="http://www.w3.org/2000/svg">
<path d="M110.09 69.7008C112.539 69.7008 114.543 67.6967 114.543 65.2472V35.8538C114.543 26.0337 106.55 18.0396 96.7307 18.0396H77.56V12.25C77.56 5.50282 72.0604 0.00268555 65.3139 0.00268555H49.7502C43.0038 0.00268555 37.5042 5.50282 37.5042 12.25V18.0396H18.3557C8.53657 18.0396 0.543213 26.0337 0.543213 35.8538V87.7377C0.543213 97.5577 8.53657 105.552 18.3557 105.552H96.7307C106.55 105.552 114.543 97.5577 114.543 87.7377C114.543 85.2882 112.539 83.2841 110.09 83.2841C107.641 83.2841 105.637 85.2882 105.637 87.7377C105.637 92.6588 101.651 96.6448 96.7307 96.6448H18.3557C13.435 96.6448 9.44946 92.6588 9.44946 87.7377V56.1174H53.3127V62.7978C53.3127 65.2472 55.3167 67.2513 57.7659 67.2513C60.2151 67.2513 62.219 65.2472 62.219 62.7978V56.1174H105.637V65.2472C105.637 67.7189 107.641 69.7008 110.09 69.7008ZM46.4327 12.25C46.4327 10.4017 47.9245 8.90979 49.7725 8.90979H65.3362C67.1842 8.90979 68.676 10.4017 68.676 12.25V18.0396H46.4327V12.25ZM9.44946 47.2103V35.8538C9.44946 30.9326 13.435 26.9467 18.3557 26.9467H96.7307C101.651 26.9467 105.637 30.9326 105.637 35.8538V47.2103H9.44946Z" fill="#F9F9F9"/>
</svg>
