<svg width="115" height="115" viewBox="0 0 115 115" fill="none" xmlns="http://www.w3.org/2000/svg">
<path d="M97.8484 16.6991C87.0823 5.93237 72.7684 0.00268555 57.5432 0.00268555C42.318 0.00268555 28.0041 5.93237 17.238 16.6991C6.47233 27.4662 0.543213 41.7815 0.543213 57.0082C0.543213 72.2349 6.47233 86.5501 17.238 97.3173C28.0041 108.084 42.318 114.014 57.5432 114.014C67.9664 114.014 78.165 111.173 87.0367 105.798C89.1401 104.524 89.8126 101.785 88.5383 99.6816C87.2638 97.5776 84.5256 96.9053 82.4222 98.1799C74.9425 102.711 66.3392 105.107 57.5432 105.107C31.0242 105.107 9.44946 83.5297 9.44946 57.0082C9.44946 30.4866 31.0242 8.90979 57.5432 8.90979C84.0622 8.90979 105.637 30.4866 105.637 57.0082C105.637 66.4918 102.817 75.7229 97.4819 83.7036C96.1151 85.7483 96.6644 88.5141 98.7088 89.8812C100.753 91.2484 103.519 90.6988 104.886 88.6542C111.204 79.2033 114.543 68.2601 114.543 57.0082C114.543 41.7815 108.614 27.4662 97.8484 16.6991Z" fill="#F9F9F9"/>
<path d="M74.2424 65.2472C71.783 65.2472 69.7893 67.2411 69.7893 69.7008C69.7893 76.4539 64.2957 81.9481 57.5432 81.9481C50.7907 81.9481 45.2971 76.4539 45.2971 69.7008C45.2971 67.2411 43.3035 65.2472 40.844 65.2472C38.3845 65.2472 36.3909 67.2411 36.3909 69.7008C36.3909 81.3653 45.8798 90.8552 57.5432 90.8552C69.2066 90.8552 78.6956 81.3653 78.6956 69.7008C78.6956 67.2411 76.7019 65.2472 74.2424 65.2472Z" fill="#F9F9F9"/>
<path d="M77.3596 33.627C71.221 33.627 66.2268 38.6217 66.2268 44.7609C66.2268 47.2206 68.2205 49.2144 70.6799 49.2144C73.1394 49.2144 75.1331 47.2206 75.1331 44.7609C75.1331 43.533 76.1319 42.5341 77.3596 42.5341C78.5873 42.5341 79.5862 43.533 79.5862 44.7609C79.5862 47.2206 81.5798 49.2144 84.0393 49.2144C86.4988 49.2144 88.4924 47.2206 88.4924 44.7609C88.4924 38.6217 83.4983 33.627 77.3596 33.627Z" fill="#F9F9F9"/>
<path d="M37.9495 33.627C31.8108 33.627 26.8167 38.6217 26.8167 44.7609C26.8167 47.2206 28.8103 49.2144 31.2698 49.2144C33.7292 49.2144 35.7229 47.2206 35.7229 44.7609C35.7229 43.533 36.7217 42.5341 37.9495 42.5341C39.1772 42.5341 40.176 43.533 40.176 44.7609C40.176 47.2206 42.1697 49.2144 44.6292 49.2144C47.0886 49.2144 49.0823 47.2206 49.0823 44.7609C49.0823 38.6217 44.0881 33.627 37.9495 33.627Z" fill="#F9F9F9"/>
</svg>
