<svg width="115" height="115" viewBox="0 0 115 115" fill="none" xmlns="http://www.w3.org/2000/svg">
<path d="M114.253 97.6974C113.751 95.2893 111.392 93.7437 108.984 94.2452C106.576 94.7468 105.031 97.1056 105.532 99.5137C105.824 100.89 105.478 102.325 104.59 103.416C103.724 104.495 102.413 105.12 101.029 105.111H14.0637C12.6802 105.12 11.3686 104.495 10.5033 103.416C9.61501 102.325 9.26855 100.89 9.56092 99.5137C14.287 77.2731 33.6376 61.168 56.3666 60.5583C56.7593 60.5735 57.1532 60.5811 57.5484 60.5811C57.9436 60.5811 58.3387 60.5735 58.7339 60.5583C74.6729 60.9363 89.4308 69.0474 98.2935 82.3006C99.6433 84.3566 102.404 84.9291 104.46 83.5793C106.516 82.2295 107.089 79.4685 105.739 77.4125C105.723 77.3888 105.708 77.3653 105.692 77.3419C98.5075 66.6079 87.9416 58.5831 75.6734 54.5432C89.0708 44.5341 91.8176 25.5594 81.8085 12.1619C71.7994 -1.23553 52.8247 -3.98234 39.4272 6.02676C26.0298 16.0359 23.283 35.0106 33.2921 48.4081C35.032 50.737 37.0983 52.8033 39.4272 54.5432C19.7813 61.0059 5.07242 77.4542 0.836611 97.6974C-0.703737 105.008 3.97378 112.183 11.2841 113.723C12.1981 113.916 13.1296 114.013 14.0637 114.014H101.029C108.5 114.006 114.551 107.944 114.543 100.473C114.542 99.5403 114.445 98.6101 114.253 97.6974ZM36.1708 30.3006C36.1713 18.4962 45.741 8.9272 57.5454 8.92767C69.3499 8.92814 78.9188 18.4979 78.9184 30.3023C78.9179 41.6855 69.9961 51.071 58.6275 51.6478H57.5446H56.4654C45.1008 51.0598 36.1839 41.6805 36.1708 30.3006Z" fill="#F9F9F9"/>
</svg>
