<svg width="115" height="115" viewBox="0 0 115 115" fill="none" xmlns="http://www.w3.org/2000/svg">
<g clip-path="url(#clip0)">
<rect x="0.543213" y="0.00268555" width="114" height="114.011"/>
<path d="M96.6064 56.7595C94.0088 56.1267 91.3925 57.7096 90.7283 60.3205C88.1492 71.0109 81.5474 80.0664 72.1402 85.8189C62.733 91.5714 51.6632 93.3306 40.9739 90.7327C18.8753 85.3958 5.2357 63.0724 10.5683 40.9717C15.9009 18.8895 38.2018 5.2486 60.3227 10.5613C75.8734 14.3171 87.9488 26.8817 91.0808 42.5749C91.3406 43.8368 92.0754 44.9223 93.1478 45.6312C94.2314 46.3512 95.534 46.5961 96.7697 46.3345C99.3525 45.8075 101.041 43.2764 100.54 40.6915C95.931 17.2212 75.2314 0.112169 51.32 0.00639698L51.0379 0.00268555C37.545 0.00825232 24.861 5.27087 15.322 14.8163C5.78492 24.3655 0.535799 37.0544 0.543221 50.5486C0.556209 78.3815 23.2078 101.035 51.0379 101.05C74.3371 101.046 94.5097 85.2437 100.095 62.6271C100.752 60.0458 99.1855 57.4145 96.6064 56.7595Z" fill="#F9F9F9"/>
<path d="M113.152 105.904L87.7873 80.5451C85.9392 78.6969 82.9185 78.6969 81.0705 80.5451C79.2187 82.397 79.2187 85.4106 81.0705 87.2625L106.435 112.622C107.333 113.52 108.528 114.014 109.793 114.014C111.059 114.014 112.253 113.52 113.152 112.622C114.05 111.727 114.543 110.532 114.543 109.263C114.543 107.994 114.05 106.799 113.152 105.904Z" fill="#F9F9F9"/>
</g>
<defs>
<clipPath id="clip0">
<rect x="0.543213" y="0.00268555" width="114" height="114.011" fill="white"/>
</clipPath>
</defs>
</svg>
