<svg width="30" height="30" viewBox="0 0 30 30" fill="none" xmlns="http://www.w3.org/2000/svg">
<path d="M27.6281 1.83147C26.5363 0.739678 25.0848 0.138428 23.5409 0.138428C21.997 0.138428 20.5454 0.739678 19.4537 1.83142L3.2999 17.9853C3.16245 18.1227 3.06287 18.2933 3.01073 18.4806L0.473473 27.5962C0.364068 27.9894 0.475392 28.4111 0.764788 28.6989C0.979198 28.9122 1.26651 29.0273 1.5607 29.0273C1.6635 29.0273 1.76721 29.0132 1.86894 28.9843L10.9846 26.395C11.3692 26.2857 11.6673 25.9811 11.7682 25.5942C11.8691 25.2073 11.7577 24.7959 11.4754 24.5128L5.72854 18.7485L19.1187 5.35823L24.0985 10.3381L13.8478 20.5608C13.4066 21.0009 13.4056 21.7154 13.8457 22.1567C14.2857 22.5981 15.0004 22.599 15.4416 22.1589L27.628 10.0057C28.7197 8.91399 29.321 7.46249 29.321 5.91858C29.321 4.37466 28.7198 2.92316 27.6281 1.83147ZM8.52298 24.748L3.18711 26.2637L4.68149 20.8949L8.52298 24.748ZM26.0332 8.40872L25.6966 8.74438L20.7147 3.76235L21.0497 3.4273C21.7151 2.76184 22.5998 2.39537 23.5409 2.39537C24.482 2.39537 25.3667 2.76184 26.0321 3.42736C26.6976 4.09276 27.0641 4.97749 27.0641 5.91858C27.0641 6.85966 26.6976 7.74439 26.0332 8.40872Z" fill="white"/>
</svg>
