<svg width="11" height="18" viewBox="0 0 11 18" fill="none" xmlns="http://www.w3.org/2000/svg">
<path opacity="0.8" d="M9.03125 0.125C9.46289 0.125 9.82812 0.291016 10.1602 0.589844C10.459 0.921875 10.625 1.28711 10.625 1.71875V15.5312C10.625 15.9961 10.459 16.3613 10.1602 16.6602C9.82812 16.9922 9.46289 17.125 9.03125 17.125H1.59375C1.12891 17.125 0.763672 16.9922 0.464844 16.6602C0.132812 16.3613 0 15.9961 0 15.5312V1.71875C0 1.28711 0.132812 0.921875 0.464844 0.589844C0.763672 0.291016 1.12891 0.125 1.59375 0.125H9.03125ZM5.3125 16.0625C5.57812 16.0625 5.84375 15.9629 6.04297 15.7637C6.24219 15.5645 6.375 15.2988 6.375 15C6.375 14.7344 6.24219 14.4688 6.04297 14.2695C5.84375 14.0703 5.57812 13.9375 5.3125 13.9375C5.01367 13.9375 4.74805 14.0703 4.54883 14.2695C4.34961 14.4688 4.25 14.7344 4.25 15C4.25 15.2988 4.34961 15.5645 4.54883 15.7637C4.74805 15.9629 5.01367 16.0625 5.3125 16.0625ZM9.03125 12.4766V2.11719C9.03125 2.01758 8.96484 1.91797 8.89844 1.85156C8.83203 1.78516 8.73242 1.71875 8.63281 1.71875H1.99219C1.85938 1.71875 1.75977 1.78516 1.69336 1.85156C1.62695 1.91797 1.59375 2.01758 1.59375 2.11719V12.4766C1.59375 12.6094 1.62695 12.709 1.69336 12.7754C1.75977 12.8418 1.85938 12.875 1.99219 12.875H8.63281C8.73242 12.875 8.83203 12.8418 8.89844 12.7754C8.96484 12.709 9.03125 12.6094 9.03125 12.4766Z" fill="#989898"/>
</svg>
