<svg xmlns="http://www.w3.org/2000/svg" width="15.156" height="20" viewBox="0 0 15.156 20"><defs><style>.a{fill:#313131;}</style></defs><g transform="translate(-62.002)"><g transform="translate(62.002)"><path class="a" d="M76.377,16.875a.781.781,0,0,0-.781.781.737.737,0,0,1-.219.545.848.848,0,0,1-.591.236.718.718,0,0,1-.531-.223L70.14,13.986a.781.781,0,0,0-1.12,0l-4.115,4.228a.727.727,0,0,1-.535.223.834.834,0,0,1-.591-.232.722.722,0,0,1-.215-.536V3.125a1.564,1.564,0,0,1,1.563-1.562h8.906A1.564,1.564,0,0,1,75.6,3.125V13.789a.781.781,0,0,0,1.563,0V3.125A3.129,3.129,0,0,0,74.033,0H65.127A3.129,3.129,0,0,0,62,3.125V17.67a2.292,2.292,0,0,0,.683,1.65,2.4,2.4,0,0,0,1.672.68H64.4a2.278,2.278,0,0,0,1.627-.7l3.555-3.653L73.135,19.3a2.268,2.268,0,0,0,1.631.7,2.412,2.412,0,0,0,1.709-.687,2.307,2.307,0,0,0,.684-1.657A.781.781,0,0,0,76.377,16.875Z" transform="translate(-62.002)"/></g></g></svg>