<svg xmlns="http://www.w3.org/2000/svg" width="21.625" height="21.625" viewBox="0 0 21.625 21.625"><defs><style>.a{fill:#313131;}</style></defs><path class="a" d="M20.78,14.867a.845.845,0,0,0,.845-.845V5.068a3.383,3.383,0,0,0-3.379-3.379h-1.1V.845a.845.845,0,0,0-1.689,0v.845H11.615V.845a.845.845,0,0,0-1.689,0v.845h-3.8V.845a.845.845,0,0,0-1.689,0v.845H3.379A3.383,3.383,0,0,0,0,5.068V18.246a3.383,3.383,0,0,0,3.379,3.379H18.246a3.383,3.383,0,0,0,3.379-3.379.845.845,0,0,0-1.689,0,1.691,1.691,0,0,1-1.689,1.689H3.379a1.691,1.691,0,0,1-1.689-1.689V5.068A1.691,1.691,0,0,1,3.379,3.379H4.435v.845a.845.845,0,0,0,1.689,0V3.379h3.8v.845a.845.845,0,0,0,1.689,0V3.379h3.844v.845a.845.845,0,0,0,1.689,0V3.379h1.1a1.691,1.691,0,0,1,1.689,1.689v8.954A.845.845,0,0,0,20.78,14.867Z"/><g transform="translate(4.372 7.87)"><g transform="translate(0 0)"><circle class="a" cx="1" cy="1" r="1" transform="translate(-0.372 0.13)"/></g></g><g transform="translate(11.368 7.87)"><g transform="translate(0 0)"><circle class="a" cx="1" cy="1" r="1" transform="translate(-0.368 0.13)"/></g></g><g transform="translate(15.74 7.87)"><g transform="translate(0 0)"><ellipse class="a" cx="0.5" cy="1" rx="0.5" ry="1" transform="translate(0.26 0.13)"/></g></g><g transform="translate(4.372 11.368)"><g transform="translate(0 0)"><circle class="a" cx="1" cy="1" r="1" transform="translate(-0.372 -0.368)"/></g></g><g transform="translate(4.372 15.74)"><g transform="translate(0 0)"><ellipse class="a" cx="1" cy="0.5" rx="1" ry="0.5" transform="translate(-0.372 0.26)"/></g></g><g transform="translate(7.87 7.87)"><g transform="translate(0 0)"><circle class="a" cx="1" cy="1" r="1" transform="translate(0.13 0.13)"/></g></g><g transform="translate(7.87 11.368)"><g transform="translate(0 0)"><circle class="a" cx="1" cy="1" r="1" transform="translate(0.13 -0.368)"/></g></g><g transform="translate(7.87 15.74)"><g transform="translate(0 0)"><ellipse class="a" cx="1" cy="0.5" rx="1" ry="0.5" transform="translate(0.13 0.26)"/></g></g><g transform="translate(11.368 11.368)"><g transform="translate(0 0)"><circle class="a" cx="1" cy="1" r="1" transform="translate(-0.368 -0.368)"/></g></g><g transform="translate(15.74 11.368)"><g transform="translate(0 0)"><ellipse class="a" cx="0.5" cy="1" rx="0.5" ry="1" transform="translate(0.26 -0.368)"/></g></g><g transform="translate(11.368 15.74)"><g transform="translate(0 0)"><ellipse class="a" cx="1" cy="0.5" rx="1" ry="0.5" transform="translate(-0.368 0.26)"/></g></g></svg>