<svg width="15" height="18" viewBox="0 0 15 18" fill="none" xmlns="http://www.w3.org/2000/svg">
<path opacity="0.8" d="M5.03906 9.6875C5.13867 9.6875 5.23828 9.6543 5.30469 9.58789C5.37109 9.52148 5.4375 9.42188 5.4375 9.28906V7.96094C5.4375 7.86133 5.37109 7.76172 5.30469 7.69531C5.23828 7.62891 5.13867 7.5625 5.03906 7.5625H3.71094C3.57812 7.5625 3.47852 7.62891 3.41211 7.69531C3.3457 7.76172 3.3125 7.86133 3.3125 7.96094V9.28906C3.3125 9.42188 3.3457 9.52148 3.41211 9.58789C3.47852 9.6543 3.57812 9.6875 3.71094 9.6875H5.03906ZM8.625 9.28906C8.625 9.42188 8.55859 9.52148 8.49219 9.58789C8.42578 9.6543 8.32617 9.6875 8.22656 9.6875H6.89844C6.76562 9.6875 6.66602 9.6543 6.59961 9.58789C6.5332 9.52148 6.5 9.42188 6.5 9.28906V7.96094C6.5 7.86133 6.5332 7.76172 6.59961 7.69531C6.66602 7.62891 6.76562 7.5625 6.89844 7.5625H8.22656C8.32617 7.5625 8.42578 7.62891 8.49219 7.69531C8.55859 7.76172 8.625 7.86133 8.625 7.96094V9.28906ZM11.8125 9.28906C11.8125 9.42188 11.7461 9.52148 11.6797 9.58789C11.6133 9.6543 11.5137 9.6875 11.4141 9.6875H10.0859C9.95312 9.6875 9.85352 9.6543 9.78711 9.58789C9.7207 9.52148 9.6875 9.42188 9.6875 9.28906V7.96094C9.6875 7.86133 9.7207 7.76172 9.78711 7.69531C9.85352 7.62891 9.95312 7.5625 10.0859 7.5625H11.4141C11.5137 7.5625 11.6133 7.62891 11.6797 7.69531C11.7461 7.76172 11.8125 7.86133 11.8125 7.96094V9.28906ZM8.625 12.4766C8.625 12.6094 8.55859 12.709 8.49219 12.7754C8.42578 12.8418 8.32617 12.875 8.22656 12.875H6.89844C6.76562 12.875 6.66602 12.8418 6.59961 12.7754C6.5332 12.709 6.5 12.6094 6.5 12.4766V11.1484C6.5 11.0488 6.5332 10.9492 6.59961 10.8828C6.66602 10.8164 6.76562 10.75 6.89844 10.75H8.22656C8.32617 10.75 8.42578 10.8164 8.49219 10.8828C8.55859 10.9492 8.625 11.0488 8.625 11.1484V12.4766ZM5.4375 12.4766C5.4375 12.6094 5.37109 12.709 5.30469 12.7754C5.23828 12.8418 5.13867 12.875 5.03906 12.875H3.71094C3.57812 12.875 3.47852 12.8418 3.41211 12.7754C3.3457 12.709 3.3125 12.6094 3.3125 12.4766V11.1484C3.3125 11.0488 3.3457 10.9492 3.41211 10.8828C3.47852 10.8164 3.57812 10.75 3.71094 10.75H5.03906C5.13867 10.75 5.23828 10.8164 5.30469 10.8828C5.37109 10.9492 5.4375 11.0488 5.4375 11.1484V12.4766ZM11.8125 12.4766C11.8125 12.6094 11.7461 12.709 11.6797 12.7754C11.6133 12.8418 11.5137 12.875 11.4141 12.875H10.0859C9.95312 12.875 9.85352 12.8418 9.78711 12.7754C9.7207 12.709 9.6875 12.6094 9.6875 12.4766V11.1484C9.6875 11.0488 9.7207 10.9492 9.78711 10.8828C9.85352 10.8164 9.95312 10.75 10.0859 10.75H11.4141C11.5137 10.75 11.6133 10.8164 11.6797 10.8828C11.7461 10.9492 11.8125 11.0488 11.8125 11.1484V12.4766ZM15 3.84375C15 3.41211 14.834 3.04688 14.5352 2.71484C14.2031 2.41602 13.8379 2.25 13.4062 2.25H11.8125V0.523438C11.8125 0.423828 11.7461 0.324219 11.6797 0.257812C11.6133 0.191406 11.5137 0.125 11.4141 0.125H10.0859C9.95312 0.125 9.85352 0.191406 9.78711 0.257812C9.7207 0.324219 9.6875 0.423828 9.6875 0.523438V2.25H5.4375V0.523438C5.4375 0.423828 5.37109 0.324219 5.30469 0.257812C5.23828 0.191406 5.13867 0.125 5.03906 0.125H3.71094C3.57812 0.125 3.47852 0.191406 3.41211 0.257812C3.3457 0.324219 3.3125 0.423828 3.3125 0.523438V2.25H1.71875C1.25391 2.25 0.888672 2.41602 0.589844 2.71484C0.257812 3.04688 0.125 3.41211 0.125 3.84375V15.5312C0.125 15.9961 0.257812 16.3613 0.589844 16.6602C0.888672 16.9922 1.25391 17.125 1.71875 17.125H13.4062C13.8379 17.125 14.2031 16.9922 14.5352 16.6602C14.834 16.3613 15 15.9961 15 15.5312V3.84375ZM13.4062 15.332C13.4062 15.3984 13.373 15.4316 13.3398 15.4648C13.2734 15.5312 13.2402 15.5312 13.207 15.5312H1.91797C1.85156 15.5312 1.81836 15.5312 1.78516 15.4648C1.71875 15.4316 1.71875 15.3984 1.71875 15.332V5.4375H13.4062V15.332Z" fill="#989898"/>
</svg>
