<svg width="18" height="9" viewBox="0 0 18 9" fill="none" xmlns="http://www.w3.org/2000/svg">
<path opacity="0.8" d="M9 0.25C9.83008 0.25 10.638 0.35791 11.4238 0.57373C12.2096 0.789551 12.9622 1.08838 13.6816 1.47021C14.4066 1.84652 15.0872 2.29476 15.7236 2.81494C16.3656 3.33512 16.9577 3.89681 17.5 4.5C16.9577 5.10872 16.3656 5.67318 15.7236 6.19336C15.0872 6.70801 14.4066 7.15625 13.6816 7.53809C12.9622 7.91439 12.2096 8.21045 11.4238 8.42627C10.638 8.64209 9.83008 8.75 9 8.75C8.16992 8.75 7.36198 8.64209 6.57617 8.42627C5.79036 8.21045 5.03499 7.91439 4.31006 7.53809C3.59066 7.15625 2.90999 6.70801 2.26807 6.19336C1.62614 5.67318 1.03678 5.10872 0.5 4.5C1.03678 3.89681 1.62614 3.33512 2.26807 2.81494C2.90999 2.29476 3.59066 1.84652 4.31006 1.47021C5.03499 1.08838 5.79036 0.789551 6.57617 0.57373C7.36198 0.35791 8.16992 0.25 9 0.25ZM12.1875 4.5C12.1875 4.06283 12.1017 3.65055 11.9302 3.26318C11.7642 2.87581 11.5373 2.53825 11.2495 2.25049C10.9618 1.96273 10.6242 1.73584 10.2368 1.56982C9.84945 1.39827 9.43717 1.3125 9 1.3125C8.56283 1.3125 8.15055 1.39827 7.76318 1.56982C7.37581 1.73584 7.03825 1.96273 6.75049 2.25049C6.46273 2.53825 6.23307 2.87581 6.06152 3.26318C5.89551 3.65055 5.8125 4.06283 5.8125 4.5C5.8125 4.93717 5.89551 5.34945 6.06152 5.73682C6.23307 6.12419 6.46273 6.46175 6.75049 6.74951C7.03825 7.03727 7.37581 7.26693 7.76318 7.43848C8.15055 7.60449 8.56283 7.6875 9 7.6875C9.43717 7.6875 9.84945 7.60449 10.2368 7.43848C10.6242 7.26693 10.9618 7.03727 11.2495 6.74951C11.5373 6.46175 11.7642 6.12419 11.9302 5.73682C12.1017 5.34945 12.1875 4.93717 12.1875 4.5ZM1.96924 4.5C2.48942 5.00358 3.04281 5.46566 3.62939 5.88623C4.21598 6.30127 4.84408 6.6499 5.51367 6.93213C5.26465 6.57796 5.07373 6.19336 4.94092 5.77832C4.81364 5.35775 4.75 4.93164 4.75 4.5C4.75 4.06836 4.81364 3.64502 4.94092 3.22998C5.07373 2.80941 5.26465 2.42204 5.51367 2.06787C4.84408 2.3501 4.21598 2.7015 3.62939 3.12207C3.04281 3.53711 2.48942 3.99642 1.96924 4.5ZM12.4863 6.93213C13.1559 6.6499 13.784 6.30127 14.3706 5.88623C14.9572 5.46566 15.5106 5.00358 16.0308 4.5C15.5106 3.99642 14.9572 3.53711 14.3706 3.12207C13.784 2.7015 13.1559 2.3501 12.4863 2.06787C12.7354 2.42204 12.9235 2.80941 13.0508 3.22998C13.1836 3.64502 13.25 4.06836 13.25 4.5C13.25 4.93164 13.1836 5.35775 13.0508 5.77832C12.9235 6.19336 12.7354 6.57796 12.4863 6.93213ZM9 5.5625C8.85059 5.5625 8.71224 5.53483 8.58496 5.47949C8.45768 5.42415 8.34424 5.34945 8.24463 5.25537C8.15055 5.15576 8.07585 5.04232 8.02051 4.91504C7.96517 4.78776 7.9375 4.64941 7.9375 4.5C7.9375 4.35059 7.96517 4.21224 8.02051 4.08496C8.07585 3.95768 8.15055 3.84701 8.24463 3.75293C8.34424 3.65332 8.45768 3.57585 8.58496 3.52051C8.71224 3.46517 8.85059 3.4375 9 3.4375C9.14941 3.4375 9.28776 3.46517 9.41504 3.52051C9.54232 3.57585 9.65299 3.65332 9.74707 3.75293C9.84668 3.84701 9.92415 3.95768 9.97949 4.08496C10.0348 4.21224 10.0625 4.35059 10.0625 4.5C10.0625 4.64941 10.0348 4.78776 9.97949 4.91504C9.92415 5.04232 9.84668 5.15576 9.74707 5.25537C9.65299 5.34945 9.54232 5.42415 9.41504 5.47949C9.28776 5.53483 9.14941 5.5625 9 5.5625Z" fill="#989898"/>
</svg>
