<svg xmlns="http://www.w3.org/2000/svg" width="13.404" height="16.908" viewBox="0 0 13.404 16.908"><defs><style>.a{fill:#fff;}</style></defs><g transform="translate(0)"><path class="a" d="M65.8,11.624a.66.66,0,0,0,.66-.66V2.642A2.645,2.645,0,0,0,63.818,0H55.7a2.645,2.645,0,0,0-2.642,2.642V14.266A2.645,2.645,0,0,0,55.7,16.908h8.12a2.645,2.645,0,0,0,2.642-2.642.66.66,0,1,0-1.321,0,1.322,1.322,0,0,1-1.321,1.321H55.7a1.322,1.322,0,0,1-1.321-1.321V2.642A1.322,1.322,0,0,1,55.7,1.321h8.12a1.322,1.322,0,0,1,1.321,1.321v8.322A.66.66,0,0,0,65.8,11.624Z" transform="translate(-53.056)"/></g><g transform="translate(2.638 3.963)"><g transform="translate(0)"><path class="a" d="M140.407,120h-6.8a.66.66,0,0,0,0,1.321h6.8a.66.66,0,0,0,0-1.321Z" transform="translate(-132.944 -120)"/></g></g><g transform="translate(2.638 6.605)"><g transform="translate(0)"><path class="a" d="M140.407,200h-6.8a.66.66,0,0,0,0,1.321h6.8a.66.66,0,0,0,0-1.321Z" transform="translate(-132.944 -200)"/></g></g><g transform="translate(2.638 9.247)"><g transform="translate(0)"><path class="a" d="M137.736,280H133.6a.66.66,0,1,0,0,1.321h4.132a.66.66,0,1,0,0-1.321Z" transform="translate(-132.944 -280)"/></g></g></svg>