<svg width="20" height="11" viewBox="0 0 20 11" fill="none" xmlns="http://www.w3.org/2000/svg">
<g opacity="0.8">
<path d="M15.0002 4.7002H5.00024V6.2998H15.0002V4.7002Z" fill="#313131"/>
<path d="M8 8.89996H5C4.0918 8.89996 3.23798 8.54633 2.59583 7.90411C1.95367 7.26196 1.59998 6.40814 1.59998 5.5C1.59998 4.5918 1.95367 3.73804 2.59589 3.09583C3.23798 2.45367 4.0918 2.09998 5 2.09998H8V0.5H5C3.61926 0.5 2.36926 1.05963 1.46448 1.96448C0.559631 2.86926 0 4.11926 0 5.5C0 6.88068 0.559631 8.13068 1.46448 9.03552C2.36926 9.94037 3.61926 10.5 5 10.5H8V8.89996Z" fill="#313131"/>
<path d="M12 10.5H15C16.3807 10.5 17.6307 9.94037 18.5355 9.03552C19.4404 8.13068 20 6.88068 20 5.5C20 4.11926 19.4404 2.86926 18.5355 1.96448C17.6307 1.05963 16.3807 0.5 15 0.5H12V2.09998H15C15.9082 2.09998 16.762 2.45367 17.4042 3.09583C18.0463 3.73798 18.4 4.5918 18.4 5.5C18.4 6.40814 18.0463 7.26196 17.4041 7.90417C16.762 8.54633 15.9082 8.89996 15 8.89996H12V10.5Z" fill="#313131"/>
</g>
</svg>
