<svg width="20" height="20" viewBox="0 0 20 20" fill="none" xmlns="http://www.w3.org/2000/svg">
<path d="M16.8735 0H10.5456C8.82249 0 7.42065 1.40188 7.42065 3.125V3.90625C7.42065 4.33773 7.77041 4.6875 8.20188 4.6875C8.63336 4.6875 8.98312 4.33773 8.98312 3.90625V3.125C8.98312 2.26344 9.68404 1.5625 10.5456 1.5625H16.8735C17.7351 1.5625 18.436 2.26344 18.436 3.125V16.875C18.436 17.7366 17.7351 18.4375 16.8735 18.4375H10.5456C9.68404 18.4375 8.98312 17.7366 8.98312 16.875V16.0938C8.98312 15.6623 8.63336 15.3125 8.20188 15.3125C7.77041 15.3125 7.42065 15.6623 7.42065 16.0938V16.875C7.42065 18.5981 8.82249 20 10.5456 20H16.8735C18.5966 20 19.9985 18.5981 19.9985 16.875V3.125C19.9985 1.40188 18.5966 0 16.8735 0Z" fill="#30BFAE"/>
<path d="M1.79544 10.5577C1.79372 10.5559 1.79196 10.5542 1.79021 10.5524C1.4856 10.2478 1.4856 9.75217 1.79181 9.44596L4.69353 6.52737C4.99775 6.22139 4.9963 5.72674 4.69032 5.42252C4.38435 5.11835 3.8897 5.11975 3.58548 5.42573L0.685362 8.34272C-0.22749 9.25557 -0.228466 10.7403 0.68251 11.6544L3.58189 14.6096C3.73485 14.7656 3.93712 14.8437 4.13958 14.8437C4.337 14.8437 4.53462 14.7694 4.68661 14.6202C4.99462 14.318 4.99935 13.8233 4.69716 13.5154L1.79544 10.5577Z" fill="#30BFAE"/>
<path d="M13.0066 9.21875H4.68626C4.25478 9.21875 3.90501 9.56852 3.90501 10C3.90501 10.4315 4.25478 10.7812 4.68626 10.7812H13.0066C13.4381 10.7812 13.7878 10.4315 13.7878 10C13.7878 9.56852 13.4381 9.21875 13.0066 9.21875Z" fill="#30BFAE"/>
</svg>
