<svg width="17" height="20" viewBox="0 0 17 20" fill="none" xmlns="http://www.w3.org/2000/svg">
<path d="M8.5 3.125C5.81122 3.125 3.62195 5.31641 3.62195 8.00781C3.62195 10.6992 5.81122 12.8906 8.5 12.8906C8.95268 12.8906 9.40537 12.8281 9.83854 12.7031C10.2522 12.5859 10.4941 12.1523 10.3771 11.7383C10.26 11.3242 9.82683 11.082 9.41317 11.1992C9.12049 11.2812 8.8122 11.3242 8.5039 11.3242C6.67366 11.3242 5.18683 9.83594 5.18683 8.00391C5.18683 6.17187 6.67366 4.68359 8.5039 4.68359C10.3341 4.68359 11.821 6.17187 11.821 8.00391C11.821 8.32812 11.7741 8.65234 11.6805 8.96094C11.5556 9.375 11.7898 9.80859 12.2034 9.93359C12.6171 10.0586 13.0502 9.82422 13.1751 9.41016C13.3117 8.95703 13.382 8.48438 13.382 8.00391C13.378 5.31641 11.1888 3.125 8.5 3.125Z" fill="#313131"/>
<path d="M14.1546 2.34375C12.6444 0.832031 10.6346 0 8.5 0C6.36537 0 4.35561 0.832031 2.84537 2.34375C1.33512 3.85156 0.503902 5.86328 0.5 8C0.5 9.55859 0.933171 11.0156 1.81902 12.4648C2.5878 13.7188 3.58683 14.8125 4.64049 15.9727C5.67463 17.1094 6.74781 18.2812 7.60244 19.6367C7.74683 19.8633 7.99268 20 8.26195 20H8.73024C8.99951 20 9.24537 19.8633 9.38976 19.6367C10.2444 18.2812 11.3176 17.1094 12.3517 15.9727C13.4093 14.8164 14.4044 13.7188 15.1732 12.4648C16.0668 11.0156 16.5 9.55859 16.5 8C16.4961 5.86328 15.6649 3.85156 14.1546 2.34375ZM11.2044 14.918C10.2834 15.9258 9.33512 16.9648 8.5 18.1602C7.66488 16.9648 6.71659 15.9258 5.79561 14.918C3.79366 12.7227 2.06488 10.8281 2.06098 8C2.06488 4.44922 4.95268 1.5625 8.5 1.5625C12.0473 1.5625 14.9351 4.44922 14.939 8C14.9351 10.8281 13.2063 12.7227 11.2044 14.918Z" fill="#313131"/>
</svg>
