<svg width="18" height="18" viewBox="0 0 18 18" fill="none" xmlns="http://www.w3.org/2000/svg">
<path d="M9 6.75C8.68945 6.75 8.39941 6.80859 8.12988 6.92578C7.85449 7.04297 7.61426 7.2041 7.40918 7.40918C7.2041 7.61426 7.04297 7.85449 6.92578 8.12988C6.80859 8.39941 6.75 8.68945 6.75 9C6.75 9.31055 6.80859 9.60352 6.92578 9.87891C7.04297 10.1484 7.2041 10.3857 7.40918 10.5908C7.61426 10.7959 7.85449 10.957 8.12988 11.0742C8.39941 11.1914 8.68945 11.25 9 11.25C9.31055 11.25 9.60352 11.1914 9.87891 11.0742C10.1484 10.957 10.3857 10.7959 10.5908 10.5908C10.7959 10.3857 10.957 10.1484 11.0742 9.87891C11.1914 9.60352 11.25 9.31055 11.25 9C11.25 8.68945 11.1914 8.39941 11.0742 8.12988C10.957 7.85449 10.7959 7.61426 10.5908 7.40918C10.3857 7.2041 10.1484 7.04297 9.87891 6.92578C9.60352 6.80859 9.31055 6.75 9 6.75ZM9 10.125C8.8418 10.125 8.69531 10.0957 8.56055 10.0371C8.42578 9.97852 8.30859 9.89941 8.20898 9.7998C8.10352 9.69434 8.02148 9.57422 7.96289 9.43945C7.9043 9.30469 7.875 9.1582 7.875 9C7.875 8.8418 7.9043 8.69531 7.96289 8.56055C8.02148 8.42578 8.10352 8.30859 8.20898 8.20898C8.30859 8.10352 8.42578 8.02148 8.56055 7.96289C8.69531 7.9043 8.8418 7.875 9 7.875C9.1582 7.875 9.30469 7.9043 9.43945 7.96289C9.57422 8.02148 9.69434 8.10352 9.7998 8.20898C9.89941 8.30859 9.97852 8.42578 10.0371 8.56055C10.0957 8.69531 10.125 8.8418 10.125 9C10.125 9.1582 10.0957 9.30469 10.0371 9.43945C9.97852 9.57422 9.89941 9.69434 9.7998 9.7998C9.69434 9.89941 9.57422 9.97852 9.43945 10.0371C9.30469 10.0957 9.1582 10.125 9 10.125ZM0 9C0 9.82031 0.108398 10.6172 0.325195 11.3906C0.541992 12.1641 0.852539 12.8936 1.25684 13.5791C1.65527 14.2588 2.1416 14.8799 2.71582 15.4424C3.29004 16.0049 3.9375 16.4824 4.6582 16.875H2.25V18H6.75V13.5H5.625V16.1104C4.93945 15.7881 4.32129 15.3779 3.77051 14.8799C3.21387 14.3818 2.73926 13.8252 2.34668 13.21C1.9541 12.5889 1.65234 11.9209 1.44141 11.2061C1.23047 10.4912 1.125 9.75586 1.125 9C1.125 8.2793 1.21875 7.58496 1.40625 6.91699C1.59375 6.24316 1.86035 5.61621 2.20605 5.03613C2.5459 4.4502 2.95605 3.91699 3.43652 3.43652C3.91699 2.95605 4.4502 2.5459 5.03613 2.20605C5.61621 1.86035 6.24316 1.59375 6.91699 1.40625C7.58496 1.21875 8.2793 1.125 9 1.125C9.7207 1.125 10.418 1.21875 11.0918 1.40625C11.7598 1.59375 12.3867 1.86035 12.9727 2.20605C13.5527 2.5459 14.083 2.95605 14.5635 3.43652C15.0439 3.91699 15.457 4.4502 15.8027 5.03613C16.1426 5.61621 16.4062 6.24316 16.5938 6.91699C16.7812 7.58496 16.875 8.2793 16.875 9H18C18 8.17383 17.8945 7.37695 17.6836 6.60938C17.4668 5.8418 17.165 5.12402 16.7783 4.45605C16.3857 3.78809 15.917 3.18164 15.3721 2.63672C14.8213 2.08594 14.2119 1.61719 13.5439 1.23047C12.876 0.837891 12.1611 0.536133 11.3994 0.325195C10.6318 0.108398 9.83203 0 9 0C8.17383 0 7.37695 0.108398 6.60938 0.325195C5.8418 0.536133 5.12402 0.837891 4.45605 1.23047C3.78809 1.61719 3.18164 2.08594 2.63672 2.63672C2.08594 3.18164 1.61719 3.78809 1.23047 4.45605C0.837891 5.12402 0.536133 5.8418 0.325195 6.60938C0.108398 7.37695 0 8.17383 0 9Z" fill="#434784"/>
</svg>
