<svg width="18" height="18" viewBox="0 0 18 18" fill="none" xmlns="http://www.w3.org/2000/svg">
<path d="M9 6.75C9.31055 6.75 9.60059 6.80859 9.87012 6.92578C10.1455 7.04297 10.3857 7.2041 10.5908 7.40918C10.7959 7.61426 10.957 7.85449 11.0742 8.12988C11.1914 8.39941 11.25 8.68945 11.25 9C11.25 9.31055 11.1914 9.60352 11.0742 9.87891C10.957 10.1484 10.7959 10.3857 10.5908 10.5908C10.3857 10.7959 10.1455 10.957 9.87012 11.0742C9.60059 11.1914 9.31055 11.25 9 11.25C8.68945 11.25 8.39648 11.1914 8.12109 11.0742C7.85156 10.957 7.61426 10.7959 7.40918 10.5908C7.2041 10.3857 7.04297 10.1484 6.92578 9.87891C6.80859 9.60352 6.75 9.31055 6.75 9C6.75 8.68945 6.80859 8.39941 6.92578 8.12988C7.04297 7.85449 7.2041 7.61426 7.40918 7.40918C7.61426 7.2041 7.85156 7.04297 8.12109 6.92578C8.39648 6.80859 8.68945 6.75 9 6.75ZM9 10.125C9.1582 10.125 9.30469 10.0957 9.43945 10.0371C9.57422 9.97852 9.69141 9.89941 9.79102 9.7998C9.89648 9.69434 9.97852 9.57422 10.0371 9.43945C10.0957 9.30469 10.125 9.1582 10.125 9C10.125 8.8418 10.0957 8.69531 10.0371 8.56055C9.97852 8.42578 9.89648 8.30859 9.79102 8.20898C9.69141 8.10352 9.57422 8.02148 9.43945 7.96289C9.30469 7.9043 9.1582 7.875 9 7.875C8.8418 7.875 8.69531 7.9043 8.56055 7.96289C8.42578 8.02148 8.30566 8.10352 8.2002 8.20898C8.10059 8.30859 8.02148 8.42578 7.96289 8.56055C7.9043 8.69531 7.875 8.8418 7.875 9C7.875 9.1582 7.9043 9.30469 7.96289 9.43945C8.02148 9.57422 8.10059 9.69434 8.2002 9.7998C8.30566 9.89941 8.42578 9.97852 8.56055 10.0371C8.69531 10.0957 8.8418 10.125 9 10.125ZM18 9C18 9.82031 17.8916 10.6172 17.6748 11.3906C17.458 12.1641 17.1475 12.8936 16.7432 13.5791C16.3447 14.2588 15.8584 14.8799 15.2842 15.4424C14.71 16.0049 14.0625 16.4824 13.3418 16.875H15.75V18H11.25V13.5H12.375V16.1104C13.0605 15.7881 13.6787 15.3779 14.2295 14.8799C14.7861 14.3818 15.2607 13.8252 15.6533 13.21C16.0459 12.5889 16.3477 11.9209 16.5586 11.2061C16.7695 10.4912 16.875 9.75586 16.875 9C16.875 8.2793 16.7812 7.58496 16.5938 6.91699C16.4062 6.24316 16.1396 5.61621 15.7939 5.03613C15.4541 4.4502 15.0439 3.91699 14.5635 3.43652C14.083 2.95605 13.5498 2.5459 12.9639 2.20605C12.3838 1.86035 11.7568 1.59375 11.083 1.40625C10.415 1.21875 9.7207 1.125 9 1.125C8.2793 1.125 7.58203 1.21875 6.9082 1.40625C6.24023 1.59375 5.61328 1.86035 5.02734 2.20605C4.44727 2.5459 3.91699 2.95605 3.43652 3.43652C2.95605 3.91699 2.54297 4.4502 2.19727 5.03613C1.85742 5.61621 1.59375 6.24316 1.40625 6.91699C1.21875 7.58496 1.125 8.2793 1.125 9H0C0 8.17383 0.105469 7.37695 0.316406 6.60938C0.533203 5.8418 0.834961 5.12402 1.22168 4.45605C1.61426 3.78809 2.08301 3.18164 2.62793 2.63672C3.17871 2.08594 3.78809 1.61719 4.45605 1.23047C5.12402 0.837891 5.83887 0.536133 6.60059 0.325195C7.36816 0.108398 8.16797 0 9 0C9.82617 0 10.623 0.108398 11.3906 0.325195C12.1582 0.536133 12.876 0.837891 13.5439 1.23047C14.2119 1.61719 14.8184 2.08594 15.3633 2.63672C15.9141 3.18164 16.3828 3.78809 16.7695 4.45605C17.1621 5.12402 17.4639 5.8418 17.6748 6.60938C17.8916 7.37695 18 8.17383 18 9Z" fill="#434784"/>
</svg>
