<svg xmlns="http://www.w3.org/2000/svg" width="20.861" height="20.085" viewBox="0 0 20.861 20.085"><defs><style>.a{fill:#989898;}</style></defs><g transform="translate(0.001 -9.527)"><g transform="translate(-0.001 9.527)"><path class="a" d="M20.744,17.033a2.215,2.215,0,0,0-2.135-1.559H14.441a.6.6,0,0,1-.586-.4l-1.289-3.991a2.246,2.246,0,0,0-4.273,0L7.005,15.069a.6.6,0,0,1-.587.405H2.25A2.26,2.26,0,0,0,.93,19.559L4.3,22.009a.615.615,0,0,1,.224.69L3.238,26.663a2.213,2.213,0,0,0,.816,2.512,2.213,2.213,0,0,0,2.641,0l3.372-2.45a.615.615,0,0,1,.725,0l3.372,2.45a2.246,2.246,0,0,0,3.457-2.512l-.882-2.714a.815.815,0,1,0-1.55.5l.882,2.714a.617.617,0,0,1-.949.69l-3.372-2.45a2.241,2.241,0,0,0-2.641,0l-3.372,2.45a.617.617,0,0,1-.949-.69L6.076,23.2a2.241,2.241,0,0,0-.816-2.511l-3.372-2.45a.611.611,0,0,1-.223-.7A.6.6,0,0,1,2.25,17.1H6.419a2.231,2.231,0,0,0,2.137-1.533l1.288-3.988a.617.617,0,0,1,1.173,0L12.3,15.573A2.231,2.231,0,0,0,14.441,17.1h4.168a.6.6,0,0,1,.585.433.611.611,0,0,1-.223.7l-2.3,1.671a.815.815,0,0,0,.958,1.318l2.3-1.671A2.224,2.224,0,0,0,20.744,17.033Z" transform="translate(0.001 -9.527)"/></g></g></svg>