<svg width="613" height="589" viewBox="0 0 613 589" fill="none" xmlns="http://www.w3.org/2000/svg">
<rect x="189.168" y="397" width="42" height="42" fill="#313131"/>
<rect x="99.1682" y="72" width="42" height="42" fill="white"/>
<rect x="23.1682" y="6" width="42" height="42" fill="white"/>
<path d="M444.198 371.03C406.643 370.949 376.133 401.328 376.052 438.883C375.97 476.438 406.349 506.949 443.905 507.03C450.971 507.045 457.996 505.959 464.728 503.81C470.9 501.858 474.32 495.272 472.368 489.1C470.416 482.928 463.83 479.508 457.658 481.46C434.239 488.857 409.256 475.869 401.859 452.45C394.461 429.03 407.45 404.048 430.869 396.65C454.289 389.253 479.271 402.241 486.669 425.661C489.324 434.066 489.421 443.07 486.948 451.53C485.131 457.743 488.695 464.253 494.908 466.07C501.121 467.887 507.631 464.323 509.448 458.11C519.986 422.063 499.307 384.299 463.26 373.762C457.068 371.951 450.65 371.032 444.198 371.03Z" fill="#434784"/>
<path d="M559.008 398H553.108C551.533 397.98 550.124 397.013 549.538 395.55L549.438 395.3C548.791 393.851 549.079 392.154 550.168 391L554.338 386.83C568.044 373.09 568.044 350.85 554.338 337.11L546.048 328.82C532.318 315.092 510.059 315.092 496.328 328.82L492.168 333C491.023 334.103 489.325 334.407 487.868 333.77L487.648 333.68C486.17 333.101 485.187 331.687 485.158 330.1V324.2C485.158 304.787 469.441 289.039 450.028 289H438.308C418.907 289.033 403.19 304.759 403.168 324.16V330.06C403.144 331.646 402.164 333.06 400.688 333.64L400.458 333.73C399.012 334.373 397.321 334.085 396.168 333L391.968 328.79C378.238 315.062 355.979 315.062 342.248 328.79L333.958 337.08C320.252 350.82 320.252 373.06 333.958 386.8L338.168 391C339.268 392.168 339.563 393.881 338.918 395.35L338.848 395.52C338.269 396.998 336.856 397.982 335.268 398.01H329.368C309.955 398.01 294.207 413.727 294.168 433.14V444.86C294.201 464.261 309.927 479.978 329.328 480H335.228C336.804 480.02 338.212 480.987 338.798 482.45L338.898 482.7C339.546 484.149 339.258 485.846 338.168 487L333.998 491.17C320.27 504.9 320.27 527.16 333.998 540.89L342.288 549.18C356.019 562.908 378.278 562.908 392.008 549.18L396.168 545C397.314 543.897 399.011 543.593 400.468 544.23L400.688 544.32C402.167 544.899 403.15 546.313 403.178 547.9V553.8C403.178 573.213 418.895 588.961 438.308 589H450.028C469.43 588.967 485.146 573.241 485.168 553.84V547.94C485.192 546.354 486.172 544.94 487.648 544.36L487.878 544.27C489.338 543.629 491.041 543.933 492.188 545.04L496.358 549.21C510.089 562.938 532.348 562.938 546.078 549.21L554.368 540.92C568.097 527.19 568.097 504.93 554.368 491.2L550.168 487C549.061 485.853 548.757 484.15 549.398 482.69L549.488 482.48C550.067 481.002 551.481 480.018 553.068 479.99H558.968C578.381 479.99 594.13 464.273 594.168 444.86V433.14C594.135 413.739 578.41 398.022 559.008 398ZM570.728 444.87C570.723 451.34 565.479 456.584 559.008 456.59H553.108C542.019 456.598 532.037 463.318 527.858 473.59L527.778 473.77C523.484 483.988 525.795 495.788 533.628 503.63L537.798 507.8C542.372 512.376 542.372 519.794 537.798 524.37L529.508 532.66C524.932 537.234 517.515 537.234 512.938 532.66L508.768 528.49C500.92 520.652 489.11 518.344 478.888 522.65L478.718 522.72C468.446 526.899 461.726 536.88 461.718 547.97V553.87C461.713 560.341 456.469 565.585 449.998 565.59H438.308C431.838 565.585 426.594 560.341 426.588 553.87V547.97C426.581 536.88 419.86 526.899 409.588 522.72L409.428 522.65C406.06 521.246 402.447 520.522 398.798 520.52C391.573 520.52 384.645 523.399 379.548 528.52L375.378 532.69C370.802 537.264 363.385 537.264 358.808 532.69L350.518 524.4C345.944 519.824 345.944 512.406 350.518 507.83L354.688 503.66C362.521 495.818 364.833 484.018 360.538 473.8L360.458 473.62C356.279 463.348 346.298 456.628 335.208 456.62H329.308C322.838 456.614 317.594 451.371 317.588 444.9V433.14C317.594 426.67 322.838 421.426 329.308 421.42H335.208C346.301 421.414 356.286 414.694 360.468 404.42L360.518 404.29C364.837 394.072 362.54 382.256 354.708 374.4L350.538 370.23C345.97 365.651 345.97 358.239 350.538 353.66L358.828 345.37C363.405 340.796 370.822 340.796 375.398 345.37L379.568 349.54C387.416 357.378 399.227 359.686 409.448 355.38L409.618 355.31C419.89 351.131 426.611 341.15 426.618 330.06V324.16C426.624 317.69 431.868 312.446 438.338 312.44H450.058C456.529 312.446 461.773 317.69 461.778 324.16V330.06C461.786 341.15 468.506 351.131 478.778 355.31L478.938 355.38C489.157 359.682 500.962 357.374 508.808 349.54L512.978 345.37C517.555 340.796 524.972 340.796 529.548 345.37L537.838 353.66C542.407 358.239 542.407 365.651 537.838 370.23L533.668 374.4C525.84 382.231 523.524 394.019 527.808 404.23L527.898 404.44C532.077 414.712 542.059 421.432 553.148 421.44H559.048C565.519 421.446 570.763 426.689 570.768 433.16L570.728 444.87Z" fill="#434784"/>
<path d="M562.174 15.0388C555.289 15.024 549.695 20.5934 549.68 27.4785C549.665 34.3637 555.235 39.9572 562.12 39.9721C563.415 39.9749 564.703 39.7758 565.938 39.3818C567.069 39.0239 567.696 37.8165 567.338 36.685C566.98 35.5535 565.773 34.9264 564.641 35.2843C560.348 36.6405 555.768 34.2593 554.412 29.9657C553.055 25.6722 555.437 21.0921 559.73 19.7359C564.024 18.3797 568.604 20.7609 569.96 25.0545C570.447 26.5954 570.465 28.2461 570.011 29.7972C569.678 30.9363 570.331 32.1297 571.471 32.4628C572.61 32.796 573.803 32.1426 574.136 31.0035C576.068 24.3949 572.277 17.4715 565.668 15.5396C564.533 15.2078 563.356 15.0391 562.174 15.0388Z" fill="#3CBFAE"/>
<path d="M583.222 19.9833H582.141C581.852 19.9796 581.593 19.8024 581.486 19.5342L581.468 19.4883C581.349 19.2226 581.402 18.9116 581.602 18.7L582.366 17.9355C584.879 15.4166 584.879 11.3391 582.366 8.82017L580.846 7.30033C578.329 4.78347 574.248 4.78347 571.731 7.30033L570.968 8.06667C570.758 8.26889 570.447 8.32461 570.18 8.20783L570.14 8.19133C569.869 8.08519 569.688 7.82604 569.683 7.535V6.45333C569.683 2.89426 566.802 0.00707905 563.243 0H561.094C557.537 0.00606063 554.656 2.88908 554.652 6.446V7.52767C554.647 7.81841 554.468 8.07769 554.197 8.184L554.155 8.2005C553.89 8.31835 553.58 8.2656 553.368 8.06667L552.598 7.29483C550.081 4.77797 546 4.77797 543.483 7.29483L541.963 8.81467C539.45 11.3336 539.45 15.4111 541.963 17.93L542.735 18.7C542.937 18.9142 542.991 19.2282 542.872 19.4975L542.86 19.5287C542.753 19.7997 542.494 19.98 542.203 19.9852H541.122C537.562 19.9852 534.675 22.8666 534.668 26.4257V28.5743C534.674 32.1313 537.557 35.0126 541.114 35.0167H542.196C542.485 35.0204 542.743 35.1976 542.85 35.4658L542.869 35.5117C542.987 35.7774 542.935 36.0884 542.735 36.3L541.97 37.0645C539.454 39.5817 539.454 43.6626 541.97 46.1798L543.49 47.6997C546.007 50.2165 550.088 50.2165 552.606 47.6997L553.368 46.9333C553.578 46.7311 553.889 46.6754 554.157 46.7922L554.197 46.8087C554.468 46.9148 554.648 47.174 554.653 47.465V48.5467C554.653 52.1057 557.535 54.9929 561.094 55H563.243C566.799 54.9939 569.681 52.1109 569.685 48.554V47.4723C569.689 47.1816 569.869 46.9223 570.14 46.816L570.182 46.7995C570.449 46.6819 570.762 46.7377 570.972 46.9407L571.736 47.7052C574.254 50.222 578.334 50.222 580.852 47.7052L582.372 46.1853C584.888 43.6681 584.888 39.5872 582.372 37.07L581.602 36.3C581.399 36.0896 581.343 35.7775 581.46 35.5098L581.477 35.4713C581.583 35.2003 581.842 35.02 582.133 35.0148H583.215C586.774 35.0148 589.661 32.1334 589.668 28.5743V26.4257C589.662 22.8687 586.779 19.9874 583.222 19.9833ZM585.371 28.5762C585.37 29.7624 584.408 30.7238 583.222 30.7248H582.141C580.107 30.7262 578.278 31.9583 577.511 33.8415L577.497 33.8745C576.709 35.7478 577.133 37.9112 578.569 39.3488L579.334 40.1133C580.172 40.9523 580.172 42.3122 579.334 43.1512L577.814 44.671C576.975 45.5095 575.615 45.5095 574.776 44.671L574.012 43.9065C572.573 42.4696 570.407 42.0464 568.534 42.8358L568.502 42.8487C566.619 43.6148 565.387 45.4447 565.386 47.4778V48.5595C565.385 49.7458 564.423 50.7072 563.237 50.7082H561.094C559.908 50.7072 558.946 49.7458 558.945 48.5595V47.4778C558.944 45.4447 557.712 43.6148 555.829 42.8487L555.799 42.8358C555.182 42.5784 554.519 42.4457 553.85 42.4453C552.526 42.4453 551.256 42.9731 550.321 43.912L549.557 44.6765C548.718 45.5151 547.358 45.5151 546.519 44.6765L544.999 43.1567C544.161 42.3177 544.161 40.9578 544.999 40.1188L545.764 39.3543C547.2 37.9167 547.623 35.7533 546.836 33.88L546.821 33.847C546.055 31.9638 544.225 30.7317 542.192 30.7303H541.111C539.924 30.7293 538.963 29.7679 538.962 28.5817V26.4257C538.963 25.2394 539.924 24.278 541.111 24.277H542.192C544.226 24.2758 546.056 23.0438 546.823 21.1603L546.832 21.1365C547.624 19.2632 547.203 17.097 545.767 15.6567L545.003 14.8922C544.165 14.0527 544.165 12.6938 545.003 11.8543L546.523 10.3345C547.362 9.49595 548.721 9.49595 549.56 10.3345L550.325 11.099C551.764 12.5359 553.929 12.9591 555.803 12.1697L555.834 12.1568C557.717 11.3907 558.949 9.56077 558.951 7.52767V6.446C558.952 5.25974 559.913 4.29834 561.099 4.29733H563.248C564.434 4.29834 565.396 5.25974 565.397 6.446V7.52767C565.398 9.56077 566.63 11.3907 568.513 12.1568L568.543 12.1697C570.416 12.9583 572.58 12.5352 574.019 11.099L574.783 10.3345C575.622 9.49595 576.982 9.49595 577.821 10.3345L579.341 11.8543C580.179 12.6938 580.179 14.0527 579.341 14.8922L578.577 15.6567C577.141 17.0924 576.717 19.2535 577.502 21.1255L577.519 21.164C578.285 23.0472 580.115 24.2793 582.148 24.2807H583.23C584.416 24.2817 585.377 25.2431 585.378 26.4293L585.371 28.5762Z" fill="#3CBFAE"/>
<path d="M187.674 25.039C180.789 25.0241 175.195 30.5935 175.18 37.4787C175.165 44.3638 180.735 49.9574 187.62 49.9722C188.915 49.975 190.203 49.7759 191.438 49.382C192.569 49.024 193.196 47.8166 192.838 46.6851C192.48 45.5536 191.273 44.9265 190.141 45.2845C185.848 46.6407 181.268 44.2594 179.912 39.9659C178.555 35.6723 180.937 31.0922 185.23 29.736C189.524 28.3798 194.104 30.761 195.46 35.0546C195.947 36.5955 195.965 38.2463 195.511 39.7973C195.178 40.9364 195.831 42.1298 196.971 42.463C198.11 42.7961 199.303 42.1427 199.636 41.0036C201.568 34.3951 197.777 27.4717 191.168 25.5398C190.033 25.2079 188.856 25.0393 187.674 25.039Z" fill="#EBBE00"/>
<path d="M208.722 29.9835H207.641C207.352 29.9797 207.093 29.8025 206.986 29.5343L206.968 29.4885C206.849 29.2228 206.902 28.9118 207.102 28.7001L207.866 27.9356C210.379 25.4167 210.379 21.3392 207.866 18.8203L206.346 17.3005C203.829 14.7836 199.748 14.7836 197.231 17.3005L196.468 18.0668C196.258 18.269 195.947 18.3247 195.68 18.208L195.64 18.1915C195.369 18.0853 195.188 17.8262 195.183 17.5351V16.4535C195.183 12.8944 192.302 10.0072 188.743 10.0001H186.594C183.037 10.0062 180.156 12.8892 180.152 16.4461V17.5278C180.147 17.8185 179.968 18.0778 179.697 18.1841L179.655 18.2006C179.39 18.3185 179.08 18.2657 178.868 18.0668L178.098 17.295C175.581 14.7781 171.5 14.7781 168.983 17.295L167.463 18.8148C164.95 21.3337 164.95 25.4112 167.463 27.9301L168.235 28.7001C168.437 28.9143 168.491 29.2283 168.372 29.4976L168.36 29.5288C168.253 29.7998 167.994 29.9801 167.703 29.9853H166.622C163.062 29.9853 160.175 32.8667 160.168 36.4258V38.5745C160.174 42.1314 163.057 45.0128 166.614 45.0168H167.696C167.985 45.0205 168.243 45.1978 168.35 45.466L168.369 45.5118C168.487 45.7775 168.435 46.0885 168.235 46.3001L167.47 47.0646C164.954 49.5819 164.954 53.6627 167.47 56.18L168.99 57.6998C171.507 60.2167 175.588 60.2167 178.106 57.6998L178.868 56.9335C179.078 56.7312 179.389 56.6755 179.657 56.7923L179.697 56.8088C179.968 56.9149 180.148 57.1741 180.153 57.4651V58.5468C180.153 62.1059 183.035 64.993 186.594 65.0001H188.743C192.299 64.9941 195.181 62.111 195.185 58.5541V57.4725C195.189 57.1817 195.369 56.9224 195.64 56.8161L195.682 56.7996C195.949 56.682 196.262 56.7378 196.472 56.9408L197.236 57.7053C199.754 60.2221 203.834 60.2221 206.352 57.7053L207.872 56.1855C210.388 53.6682 210.388 49.5874 207.872 47.0701L207.102 46.3001C206.899 46.0898 206.843 45.7776 206.96 45.51L206.977 45.4715C207.083 45.2004 207.342 45.0202 207.633 45.015H208.715C212.274 45.015 215.161 42.1335 215.168 38.5745V36.4258C215.162 32.8689 212.279 29.9875 208.722 29.9835ZM210.871 38.5763C210.87 39.7625 209.908 40.7239 208.722 40.725H207.641C205.607 40.7264 203.778 41.9584 203.011 43.8416L202.997 43.8746C202.209 45.7479 202.633 47.9113 204.069 49.349L204.834 50.1135C205.672 50.9525 205.672 52.3123 204.834 53.1513L203.314 54.6711C202.475 55.5097 201.115 55.5097 200.276 54.6711L199.512 53.9066C198.073 52.4697 195.907 52.0465 194.034 52.836L194.002 52.8488C192.119 53.6149 190.887 55.4449 190.886 57.478V58.5596C190.885 59.7459 189.923 60.7073 188.737 60.7083H186.594C185.408 60.7073 184.446 59.7459 184.445 58.5596V57.478C184.444 55.4449 183.212 53.6149 181.329 52.8488L181.299 52.836C180.682 52.5786 180.019 52.4458 179.35 52.4455C178.026 52.4455 176.756 52.9733 175.821 53.9121L175.057 54.6766C174.218 55.5152 172.858 55.5152 172.019 54.6766L170.499 53.1568C169.661 52.3178 169.661 50.958 170.499 50.119L171.264 49.3545C172.7 47.9168 173.123 45.7534 172.336 43.8801L172.321 43.8471C171.555 41.9639 169.725 40.7319 167.692 40.7305H166.611C165.424 40.7294 164.463 39.768 164.462 38.5818V36.4258C164.463 35.2395 165.424 34.2781 166.611 34.2771H167.692C169.726 34.276 171.556 33.044 172.323 31.1605L172.332 31.1366C173.124 29.2633 172.703 27.0971 171.267 25.6568L170.503 24.8923C169.665 24.0529 169.665 22.6939 170.503 21.8545L172.023 20.3346C172.862 19.4961 174.221 19.4961 175.06 20.3346L175.825 21.0991C177.264 22.5361 179.429 22.9593 181.303 22.1698L181.334 22.157C183.217 21.3908 184.449 19.5609 184.451 17.5278V16.4461C184.452 15.2599 185.413 14.2985 186.599 14.2975H188.748C189.934 14.2985 190.896 15.2599 190.897 16.4461V17.5278C190.898 19.5609 192.13 21.3908 194.013 22.157L194.043 22.1698C195.916 22.9584 198.08 22.5353 199.519 21.0991L200.283 20.3346C201.122 19.4961 202.482 19.4961 203.321 20.3346L204.841 21.8545C205.679 22.6939 205.679 24.0529 204.841 24.8923L204.077 25.6568C202.641 27.0925 202.217 29.2536 203.002 31.1256L203.019 31.1641C203.785 33.0473 205.615 34.2794 207.648 34.2808H208.73C209.916 34.2818 210.877 35.2432 210.878 36.4295L210.871 38.5763Z" fill="#EBBE00"/>
<rect x="421.668" y="180.5" width="44" height="44" stroke="#434784"/>
<rect x="366.168" y="180" width="45" height="45" fill="#434784"/>
<rect x="366.668" y="125.5" width="44" height="44" stroke="#434784"/>
<rect x="421.168" y="125" width="45" height="45" fill="#434784"/>
<path d="M562.168 125L612.168 225H512.168L562.168 125Z" fill="#3CBFAE"/>
<path d="M100.668 175L0.668209 225L0.668213 125L100.668 175Z" fill="#3CBFAE"/>
<circle cx="481.168" cy="266" r="15" fill="#EBBE00"/>
<circle cx="461.168" cy="70" r="15" fill="#EBBE00"/>
<circle cx="252.168" cy="93.0001" r="15" fill="#434784"/>
<circle cx="187.668" cy="175" r="50" fill="#EBBE00"/>
<circle cx="187.668" cy="266" r="50" fill="#EBBE00"/>
<circle cx="187.668" cy="311" r="50" fill="white"/>
<path d="M256.918 225H346.918" stroke="#434784"/>
<path d="M256.918 175H346.918" stroke="#434784"/>
<path d="M256.918 125H346.918" stroke="#434784"/>
<path d="M256.918 70H446.168" stroke="#434784"/>
<path d="M221.918 37.5001H411.168" stroke="#434784"/>
<path d="M337.918 5.51733H527.168" stroke="#434784"/>
</svg>
