<svg width="20" height="24" viewBox="0 0 20 24" fill="none" xmlns="http://www.w3.org/2000/svg">
<g opacity="0.8">
<path d="M19.75 6.43359V24H0.25V0H13.3164L19.75 6.43359ZM13.75 6H17.1836L13.75 2.56641V6ZM18.25 22.5V7.5H12.25V1.5H1.75V22.5H18.25Z" fill="#989898"/>
<path d="M10.1763 6.92044C10.5825 6.92044 10.9692 7.00247 11.3364 7.16653C11.7036 7.32278 12.02 7.53762 12.2856 7.81106C12.5591 8.07669 12.7739 8.39309 12.9302 8.76028C13.0942 9.12747 13.1763 9.51419 13.1763 9.92044V11.4204H14.6763V18.9204H5.67627V11.4204H7.17627V9.92044C7.17627 9.51419 7.2544 9.12747 7.41065 8.76028C7.57471 8.39309 7.78955 8.07669 8.05518 7.81106C8.32861 7.53762 8.64502 7.32278 9.00439 7.16653C9.37158 7.00247 9.76221 6.92044 10.1763 6.92044ZM8.67627 11.4204H11.6763V9.92044C11.6763 9.71731 11.6372 9.5259 11.5591 9.34622C11.481 9.15872 11.3716 8.99856 11.231 8.86575C11.0981 8.72512 10.938 8.61575 10.7505 8.53762C10.5708 8.4595 10.3794 8.42044 10.1763 8.42044C9.96533 8.42044 9.77002 8.4595 9.59033 8.53762C9.41064 8.61575 9.25049 8.72512 9.10986 8.86575C8.97705 8.99856 8.87158 9.15481 8.79346 9.3345C8.71533 9.51419 8.67627 9.7095 8.67627 9.92044V11.4204ZM13.1763 12.9204H7.17627V17.4204H13.1763V12.9204Z" fill="#989898"/>
</g>
</svg>
