<svg width="20" height="24" viewBox="0 0 20 24" fill="none" xmlns="http://www.w3.org/2000/svg">
<path opacity="0.8" d="M19.75 4.5H18.25V21.75C18.25 22.0625 18.1914 22.3555 18.0742 22.6289C17.957 22.9023 17.7969 23.1406 17.5938 23.3438C17.3906 23.5469 17.1523 23.707 16.8789 23.8242C16.6055 23.9414 16.3125 24 16 24H4C3.6875 24 3.39453 23.9414 3.12109 23.8242C2.84766 23.707 2.60938 23.5469 2.40625 23.3438C2.20312 23.1406 2.04297 22.9023 1.92578 22.6289C1.80859 22.3555 1.75 22.0625 1.75 21.75V4.5H0.25V3H6.25V1.5C6.25 1.28906 6.28906 1.09375 6.36719 0.914062C6.44531 0.734375 6.55078 0.578125 6.68359 0.445312C6.82422 0.304688 6.98438 0.195312 7.16406 0.117188C7.34375 0.0390625 7.53906 0 7.75 0H12.25C12.4609 0 12.6562 0.0390625 12.8359 0.117188C13.0156 0.195312 13.1719 0.304688 13.3047 0.445312C13.4453 0.578125 13.5547 0.734375 13.6328 0.914062C13.7109 1.09375 13.75 1.28906 13.75 1.5V3H19.75V4.5ZM7.75 3H12.25V1.5H7.75V3ZM16.75 4.5H3.25V21.75C3.25 21.9531 3.32422 22.1289 3.47266 22.2773C3.62109 22.4258 3.79688 22.5 4 22.5H16C16.2031 22.5 16.3789 22.4258 16.5273 22.2773C16.6758 22.1289 16.75 21.9531 16.75 21.75V4.5ZM7.75 19.5H6.25V7.5H7.75V19.5ZM10.75 19.5H9.25V7.5H10.75V19.5ZM13.75 19.5H12.25V7.5H13.75V19.5Z" fill="#989898"/>
</svg>
