<svg width="24" height="24" viewBox="0 0 24 24" fill="none" xmlns="http://www.w3.org/2000/svg">
<g opacity="0.8">
<path d="M23.9999 16.2422C23.9999 12.744 21.6428 9.68756 18.3189 8.76654C18.11 3.89722 14.0839 0 9.164 0C4.11084 0 -6.10352e-05 4.1109 -6.10352e-05 9.16406C-6.10352e-05 10.8109 0.438293 12.4144 1.27069 13.8221L0.0336304 18.2943L4.50598 17.0574C5.79999 17.8226 7.2597 18.2536 8.7663 18.3186C9.68713 21.6427 12.7437 24 16.2421 24C17.6385 24 18.9964 23.6281 20.1895 22.9215L23.9661 23.9661L22.9214 20.1896C23.6281 18.9965 23.9999 17.6385 23.9999 16.2422ZM4.72791 15.5369L2.05054 16.2775L2.7912 13.6002L2.62238 13.3361C1.82678 12.0914 1.40619 10.6487 1.40619 9.16406C1.40619 4.88635 4.88629 1.40625 9.164 1.40625C13.4417 1.40625 16.9218 4.88635 16.9218 9.16406C16.9218 13.4418 13.4417 16.9219 9.164 16.9219C7.67938 16.9219 6.23688 16.5013 4.99194 15.7057L4.72791 15.5369ZM21.9493 21.9494L19.9626 21.3997L19.6973 21.5724C18.6688 22.2405 17.4739 22.5938 16.2421 22.5938C13.4926 22.5938 11.0765 20.816 10.2205 18.2668C14.4308 17.7814 17.7813 14.4309 18.2669 10.2204C20.8159 11.0766 22.5937 13.4927 22.5937 16.2422C22.5937 17.4739 22.2405 18.6689 21.5723 19.6974L21.3997 19.9627L21.9493 21.9494Z" fill="#989898"/>
<path d="M8.46088 12.7031H9.86713V14.1094H8.46088V12.7031Z" fill="#989898"/>
<path d="M10.5703 7.03125C10.5703 7.4306 10.4077 7.79919 10.1125 8.06927L8.46088 9.58099V11.2969H9.86713V10.2003L11.0619 9.10675C11.6431 8.57483 11.9765 7.81842 11.9765 7.03125C11.9765 5.48035 10.7149 4.21875 9.164 4.21875C7.6131 4.21875 6.3515 5.48035 6.3515 7.03125H7.75775C7.75775 6.2558 8.38855 5.625 9.164 5.625C9.93945 5.625 10.5703 6.2558 10.5703 7.03125Z" fill="#989898"/>
</g>
</svg>
