<svg width="24" height="24" viewBox="0 0 24 24" fill="none" xmlns="http://www.w3.org/2000/svg">
<g opacity="0.8">
<path d="M19 7.5V17H6V7.5C9 7.5 16 7.5 19 7.5ZM17.5 9H7.5V15.5H17.5V9Z" fill="#989898"/>
<path d="M7.10303 9.20386L13.3033 12.7836L12.5533 14.0826L6.35303 10.5029L7.10303 9.20386Z" fill="#989898"/>
<path d="M17.9969 9.2062L11.8006 12.7836L12.5506 14.0826L18.7469 10.5052L17.9969 9.2062Z" fill="#989898"/>
<path d="M23.0625 7.32422C23.6875 8.82422 24 10.3828 24 12C24 13.6172 23.6875 15.1758 23.0625 16.6758C22.4531 18.1055 21.5938 19.375 20.4844 20.4844C19.375 21.5938 18.1055 22.4531 16.6758 23.0625C15.1758 23.6875 13.6172 24 12 24C10.6406 24 9.32812 23.7773 8.0625 23.332C6.82812 22.9023 5.69922 22.293 4.67578 21.5039C3.66016 20.7148 2.78906 19.7852 2.0625 18.7148C1.69531 18.1758 1.375 17.6133 1.10156 17.0273C0.835938 16.4414 0.617188 15.832 0.445312 15.1992L1.88672 14.8008C2.19922 15.9336 2.67969 16.9727 3.32812 17.918C3.98438 18.8633 4.75781 19.6758 5.64844 20.3555C6.53906 21.0352 7.52734 21.5625 8.61328 21.9375C9.69922 22.3125 10.8281 22.5 12 22.5C12.9609 22.5 13.8867 22.375 14.7773 22.125C15.6758 21.875 16.5117 21.5234 17.2852 21.0703C18.0664 20.6094 18.7773 20.0586 19.418 19.418C20.0586 18.7773 20.6055 18.0703 21.0586 17.2969C21.5195 16.5156 21.875 15.6797 22.125 14.7891C22.375 13.8984 22.5 12.9688 22.5 12C22.5 11.0391 22.375 10.1133 22.125 9.22266C21.875 8.32422 21.5195 7.48828 21.0586 6.71484C20.6055 5.93359 20.0586 5.22266 19.418 4.58203C18.7773 3.94141 18.0664 3.39453 17.2852 2.94141C16.5117 2.48047 15.6758 2.125 14.7773 1.875C13.8867 1.625 12.9609 1.5 12 1.5C10.9844 1.5 10 1.64453 9.04688 1.93359C8.09375 2.21484 7.20312 2.61719 6.375 3.14062C5.55469 3.66406 4.8125 4.29688 4.14844 5.03906C3.49219 5.77344 2.94922 6.59375 2.51953 7.5H5V9H0V3H1.5V6.21094C1.63281 5.96094 1.77734 5.71875 1.93359 5.48438C2.08984 5.24219 2.25391 5.00781 2.42578 4.78125C3.16016 3.80469 4.01953 2.96094 5.00391 2.25C6.03516 1.51562 7.14062 0.957031 8.32031 0.574219C9.5 0.191406 10.7266 0 12 0C13.6172 0 15.1758 0.3125 16.6758 0.9375C18.1055 1.54688 19.375 2.40625 20.4844 3.51562C21.5938 4.625 22.4531 5.89453 23.0625 7.32422Z" fill="#989898"/>
</g>
</svg>
