<svg width="31" height="31" viewBox="0 0 31 31" fill="none" xmlns="http://www.w3.org/2000/svg">
<g clip-path="url(#clip0)">
<path d="M26.4244 25.7908C26.2924 25.157 25.6716 24.7503 25.0379 24.8823C24.4041 25.0143 23.9974 25.635 24.1294 26.2688C24.2063 26.631 24.1151 27.0086 23.8814 27.2958C23.6536 27.5798 23.3084 27.7441 22.9444 27.7418H4.05736C3.69327 27.7441 3.3481 27.5798 3.12036 27.2958C2.8866 27.0086 2.79542 26.631 2.87236 26.2688C4.11614 20.4157 9.2087 16.1772 15.1904 16.0168C15.2937 16.0208 15.3974 16.0228 15.5014 16.0228C15.6054 16.0228 15.7094 16.0208 15.8134 16.0168C20.0081 16.1163 23.892 18.2509 26.2244 21.7388C26.5796 22.2799 27.3062 22.4305 27.8473 22.0753C28.3884 21.72 28.539 20.9934 28.1838 20.4523C28.1797 20.4461 28.1756 20.4399 28.1714 20.4338C26.2807 17.6089 23.5 15.497 20.2714 14.4338C23.7972 11.7997 24.5201 6.80601 21.886 3.28017C19.2518 -0.24568 14.2582 -0.968565 10.7324 1.66556C7.20651 4.29968 6.48363 9.29332 9.11775 12.8192C9.57566 13.4321 10.1194 13.9759 10.7324 14.4338C5.56209 16.1346 1.69111 20.4633 0.57636 25.7908C0.170982 27.7147 1.40198 29.6029 3.32587 30.0083C3.5664 30.059 3.81154 30.0846 4.05736 30.0848H22.9444C24.9105 30.0828 26.5028 28.4874 26.5008 26.5213C26.5006 26.2758 26.475 26.031 26.4244 25.7908ZM9.87536 8.05377C9.87548 4.94717 12.394 2.42887 15.5006 2.429C18.6072 2.42912 21.1255 4.94762 21.1254 8.05422C21.1252 11.05 18.7773 13.52 15.7854 13.6718H15.5004H15.2164C12.2255 13.517 9.8788 11.0486 9.87536 8.05377Z" fill="#3CBFAE"/>
<circle cx="22.9997" cy="22.5836" r="7.50115" fill="#3CBFAE"/>
<path d="M19.4636 21.8315C19.0731 21.441 18.4399 21.441 18.0494 21.8315C17.6588 22.2221 17.6588 22.8552 18.0494 23.2458L19.4636 21.8315ZM21.9389 25.7211L21.2318 26.4282C21.6224 26.8187 22.2555 26.8187 22.646 26.4282L21.9389 25.7211ZM27.9502 21.1241C28.3407 20.7336 28.3407 20.1004 27.9502 19.7099C27.5596 19.3194 26.9265 19.3194 26.5359 19.7099L27.9502 21.1241ZM18.0494 23.2458L21.2318 26.4282L22.646 25.014L19.4636 21.8315L18.0494 23.2458ZM22.646 26.4282L27.9502 21.1241L26.5359 19.7099L21.2318 25.014L22.646 26.4282Z" fill="white"/>
</g>
<defs>
<clipPath id="clip0">
<path d="M0.499146 0.0801849H30.5009V30.0848H0.499146V0.0801849Z" fill="white"/>
</clipPath>
</defs>
</svg>
