<svg xmlns="http://www.w3.org/2000/svg" width="41.419" height="41.419" viewBox="0 0 41.419 41.419"><defs><style>.a{fill:none;}.a,.b{fill-rule:evenodd;}.b{fill:#707070;}</style></defs><path class="a" d="M0,0H41.419V41.419H0Z"/><g transform="translate(5.177 6.903)"><path class="b" d="M12.484,24.55,17.227,19.9a14.765,14.765,0,0,0-1.581-.095C11.425,19.807,3,21.926,3,26.13v3.161H17.227Zm3.161-7.9a6.323,6.323,0,1,0-6.323-6.323,6.321,6.321,0,0,0,6.323,6.323" transform="translate(-3 -4)"/><path class="b" d="M17.485,25.146,12,19.613l2.213-2.229,3.272,3.288L25.594,12.5l2.213,2.229Z" transform="translate(2.227 0.936)"/></g></svg>