<svg width="24" height="31" viewBox="0 0 24 31" fill="none" xmlns="http://www.w3.org/2000/svg">
<path d="M22.611 20.7052C23.2583 20.7052 23.783 20.1805 23.783 19.5332V4.76819C23.7802 2.18022 21.683 0.082943 19.095 0.0801849H4.687C2.09942 0.0834915 0.0027542 2.18061 0 4.76819V25.3922C0.0027542 27.9798 2.09942 30.0769 4.687 30.0802H19.095C21.683 30.0774 23.7803 27.9802 23.783 25.3922C23.783 24.7449 23.2583 24.2202 22.611 24.2202C21.9637 24.2202 21.439 24.7449 21.439 25.3922C21.4379 26.6863 20.3891 27.7351 19.095 27.7362H4.687C3.39329 27.7345 2.3451 26.6859 2.344 25.3922V4.76819C2.3451 3.47409 3.39391 2.42529 4.688 2.42419H19.095C20.3891 2.42529 21.4379 3.47409 21.439 4.76819V19.5332C21.439 20.1805 21.9637 20.7052 22.611 20.7052Z" fill="#3CBFAE"/>
<path d="M17.923 7.11119H9.853C9.20572 7.11119 8.681 7.6359 8.681 8.28318C8.681 8.93047 9.20572 9.45519 9.853 9.45519H17.923C18.5703 9.45519 19.095 8.93047 19.095 8.28318C19.095 7.6359 18.5703 7.11119 17.923 7.11119Z" fill="#3CBFAE"/>
<path d="M9.853 11.7992C9.20572 11.7977 8.67981 12.3212 8.67834 12.9685C8.67688 13.6158 9.20042 14.1417 9.8477 14.1432H17.923C18.5703 14.1446 19.0962 13.6211 19.0977 12.9738C19.0991 12.3266 18.5756 11.8006 17.9283 11.7992H9.853Z" fill="#3CBFAE"/>
<path d="M9.85301 16.4862C9.20573 16.4847 8.67982 17.0082 8.67836 17.6555C8.67689 18.3028 9.20044 18.8287 9.84772 18.8302H14.184C14.8313 18.8316 15.3572 18.3081 15.3587 17.6608C15.3601 17.0136 14.8366 16.4876 14.1893 16.4862H9.85301Z" fill="#3CBFAE"/>
<path d="M9.853 20.9291C9.20572 20.9276 8.67981 21.4512 8.67835 22.0984C8.67688 22.7457 9.20043 23.2716 9.8477 23.2731H17.923C18.5703 23.2746 19.0962 22.751 19.0977 22.1038C19.0991 21.4565 18.5756 20.9306 17.9283 20.9291H9.853Z" fill="#3CBFAE"/>
<path d="M6.66883 8.2853C6.66883 8.93423 6.14277 9.4603 5.49383 9.4603C4.8449 9.4603 4.31883 8.93423 4.31883 8.2853C4.31883 7.63636 4.8449 7.1103 5.49383 7.1103C6.14277 7.1103 6.66883 7.63636 6.66883 8.2853Z" fill="#3CBFAE"/>
<path d="M6.66885 12.9738C6.66885 13.6227 6.14278 14.1488 5.49385 14.1488C4.84491 14.1488 4.31885 13.6227 4.31885 12.9738C4.31885 12.3249 4.84491 11.7988 5.49385 11.7988C6.14278 11.7988 6.66885 12.3249 6.66885 12.9738Z" fill="#3CBFAE"/>
<path d="M6.66885 17.6529C6.66885 18.3018 6.14278 18.8279 5.49385 18.8279C4.84491 18.8279 4.31885 18.3018 4.31885 17.6529C4.31885 17.004 4.84491 16.4779 5.49385 16.4779C6.14278 16.4779 6.66885 17.004 6.66885 17.6529Z" fill="#3CBFAE"/>
<path d="M6.66885 22.1149C6.66885 22.7638 6.14278 23.2899 5.49385 23.2899C4.84491 23.2899 4.31885 22.7638 4.31885 22.1149C4.31885 21.4659 4.84491 20.9399 5.49385 20.9399C6.14278 20.9399 6.66885 21.4659 6.66885 22.1149Z" fill="#3CBFAE"/>
</svg>
