<svg width="22" height="31" viewBox="0 0 22 31" fill="none" xmlns="http://www.w3.org/2000/svg">
<path fill-rule="evenodd" clip-rule="evenodd" d="M11.7753 9.17355C12.6706 8.43999 13.2419 7.32566 13.2419 6.0779C13.2419 3.86876 11.4511 2.0779 9.24194 2.0779C7.0328 2.0779 5.24194 3.86876 5.24194 6.0779C5.24194 7.43213 5.91493 8.62919 6.9447 9.35286V11.6224C4.77089 10.7207 3.24194 8.57786 3.24194 6.0779C3.24194 2.76419 5.92823 0.0778961 9.24194 0.0778961C12.5557 0.0778961 15.2419 2.76419 15.2419 6.0779C15.2419 8.48633 13.8229 10.5633 11.7753 11.5184V9.17355Z" fill="#3CBFAE"/>
<path d="M18.7541 12.2115C18.3206 12.2115 17.9215 12.3445 17.5865 12.5662C17.3008 11.7484 16.5174 11.1621 15.6011 11.1621C15.1675 11.1621 14.7685 11.2951 14.4335 11.5168C14.1477 10.699 13.3644 10.1127 12.4481 10.1127C12.0638 10.1127 11.7042 10.2162 11.3987 10.3935V6.95972C11.3987 5.79704 10.4528 4.85606 9.29505 4.85606C8.1373 4.85606 7.1914 5.79704 7.1914 6.95972V19.2466L4.30442 17.8031C3.87088 17.5864 3.38315 17.4731 2.89542 17.4731C1.78693 17.4731 0.890295 18.3746 0.890295 19.488C0.890295 20.025 1.09721 20.5275 1.47656 20.9069L8.27032 27.7006C9.80742 29.2328 11.8519 30.0802 14.0246 30.0802C17.7934 30.0802 20.8578 27.0159 20.8578 23.247V14.3151C20.8578 13.1574 19.9118 12.2115 18.7541 12.2115ZM19.8035 23.247C19.8035 26.4345 17.2071 29.0259 14.0196 29.0259C12.1278 29.0259 10.3493 28.2869 9.00931 26.9518L2.21062 20.158C2.02834 19.9807 1.92981 19.7393 1.92981 19.4782C1.92981 18.951 2.35842 18.5224 2.88556 18.5224C3.21072 18.5224 3.53587 18.6012 3.82654 18.7441L7.47714 20.5669C7.63972 20.6458 7.83678 20.6408 7.98951 20.5423C8.14223 20.4487 8.24076 20.2763 8.24076 20.094V6.95972C8.24076 6.37838 8.71372 5.91035 9.29013 5.91035C9.86654 5.91035 10.3395 6.38331 10.3395 6.95972V16.9459C10.3395 17.2366 10.576 17.4731 10.8666 17.4731C11.1573 17.4731 11.3938 17.2366 11.3938 16.9459V12.2164C11.3938 11.635 11.8667 11.167 12.4431 11.167C13.0196 11.167 13.4925 11.64 13.4925 12.2164V16.9459C13.4925 17.2366 13.729 17.4731 14.0196 17.4731C14.3103 17.4731 14.5468 17.2366 14.5468 16.9459V13.2657C14.5468 12.6844 15.0197 12.2164 15.5962 12.2164C16.1726 12.2164 16.6455 12.6893 16.6455 13.2657V16.9459C16.6455 17.2366 16.882 17.4731 17.1727 17.4731C17.4633 17.4731 17.6998 17.2366 17.6998 16.9459V14.3151C17.6998 13.7338 18.1728 13.2657 18.7492 13.2657C19.3256 13.2657 19.7985 13.7387 19.7985 14.3151V23.247H19.8035Z" fill="#3CBFAE"/>
<path fill-rule="evenodd" clip-rule="evenodd" d="M8.27032 27.7006L1.47656 20.9069C1.09721 20.5275 0.890295 20.025 0.890295 19.488C0.890295 18.3746 1.78693 17.4731 2.89542 17.4731C3.38315 17.4731 3.87088 17.5864 4.30442 17.8031L7.1914 19.2466V6.95972C7.1914 5.79704 8.1373 4.85606 9.29505 4.85606C10.4528 4.85606 11.3987 5.79704 11.3987 6.95972V10.3935C11.5236 10.321 11.6576 10.2608 11.7986 10.215C12.0024 10.1489 12.221 10.1127 12.4481 10.1127C13.2207 10.1127 13.8986 10.5295 14.2636 11.1504C14.3315 11.2659 14.3887 11.3885 14.4335 11.5168C14.5454 11.4427 14.6645 11.3786 14.7896 11.3259C15.039 11.2211 15.3124 11.1621 15.6011 11.1621C16.3737 11.1621 17.0516 11.5788 17.4166 12.1997C17.4845 12.3153 17.5417 12.4379 17.5865 12.5662C17.6984 12.4921 17.8175 12.4279 17.9426 12.3753C18.192 12.2704 18.4654 12.2115 18.7541 12.2115C19.9118 12.2115 20.8578 13.1574 20.8578 14.3151V23.247C20.8578 27.0159 17.7934 30.0802 14.0246 30.0802C11.8519 30.0802 9.80742 29.2328 8.27032 27.7006ZM17.7711 12.0136C18.0716 11.8847 18.4031 11.8115 18.754 11.8115C20.1327 11.8115 21.2577 12.9364 21.2577 14.3151V23.247C21.2577 27.2368 18.0143 30.4802 14.0245 30.4802C11.7458 30.4802 9.59977 29.5907 7.98787 27.9839L1.19366 21.1897C0.738809 20.7349 0.490234 20.1304 0.490234 19.488C0.490234 18.1556 1.56405 17.0731 2.89536 17.0731C3.44398 17.0731 3.9931 17.2003 4.48324 17.4454L6.79134 18.5994V6.95972C6.79134 5.57552 7.91694 4.45606 9.29499 4.45606C10.673 4.45606 11.7986 5.57552 11.7986 6.95972V9.79799C12.0055 9.74251 12.2234 9.71273 12.448 9.71273C13.3738 9.71273 14.1857 10.2157 14.6181 10.9642C14.9186 10.8353 15.2501 10.7621 15.601 10.7621C16.5269 10.7621 17.3387 11.265 17.7711 12.0136ZM7.47714 20.5669L3.82654 18.7441C3.53587 18.6012 3.21072 18.5224 2.88556 18.5224C2.35842 18.5224 1.92981 18.951 1.92981 19.4782C1.92981 19.7393 2.02834 19.9807 2.21062 20.158L9.00931 26.9518C10.3493 28.2869 12.1278 29.0259 14.0196 29.0259C17.0727 29.0259 19.5833 26.6485 19.7897 23.647C19.7933 23.5939 19.7963 23.5406 19.7985 23.4872C19.8017 23.4075 19.8035 23.3275 19.8035 23.247H19.7985V14.3151C19.7985 13.7387 19.3256 13.2657 18.7492 13.2657C18.1728 13.2657 17.6998 13.7338 17.6998 14.3151V16.9459C17.6998 17.2366 17.4633 17.4731 17.1727 17.4731C16.882 17.4731 16.6455 17.2366 16.6455 16.9459V13.2657C16.6455 12.6893 16.1726 12.2164 15.5962 12.2164C15.0197 12.2164 14.5468 12.6844 14.5468 13.2657V16.9459C14.5468 17.2366 14.3103 17.4731 14.0196 17.4731C13.729 17.4731 13.4925 17.2366 13.4925 16.9459V12.2164C13.4925 11.64 13.0196 11.167 12.4431 11.167C11.8667 11.167 11.3938 11.635 11.3938 12.2164V16.9459C11.3938 17.2366 11.1573 17.4731 10.8666 17.4731C10.576 17.4731 10.3395 17.2366 10.3395 16.9459V6.95972C10.3395 6.38331 9.86654 5.91035 9.29013 5.91035C8.71372 5.91035 8.24076 6.37838 8.24076 6.95972V20.094C8.24076 20.2763 8.14223 20.4487 7.98951 20.5423C7.83678 20.6408 7.63972 20.6458 7.47714 20.5669ZM8.20236 20.881C8.4701 20.715 8.6407 20.4155 8.6407 20.094V6.95972C8.6407 6.60051 8.93334 6.31035 9.29006 6.31035C9.64556 6.31035 9.93943 6.60422 9.93943 6.95972V16.9459C9.93943 17.4575 10.355 17.8731 10.8666 17.8731C11.3782 17.8731 11.7937 17.4575 11.7937 16.9459V12.2164C11.7937 11.8572 12.0864 11.567 12.4431 11.567C12.7986 11.567 13.0924 11.8609 13.0924 12.2164V16.9459C13.0924 17.4575 13.508 17.8731 14.0196 17.8731C14.5312 17.8731 14.9467 17.4575 14.9467 16.9459V13.2657C14.9467 12.9065 15.2394 12.6164 15.5961 12.6164C15.9516 12.6164 16.2455 12.9103 16.2455 13.2657V16.9459C16.2455 17.4575 16.661 17.8731 17.1726 17.8731C17.6842 17.8731 18.0997 17.4575 18.0997 16.9459V14.3151C18.0997 13.9559 18.3924 13.6657 18.7491 13.6657C19.1046 13.6657 19.3985 13.9596 19.3985 14.3151V23.4786C19.2766 26.3377 16.909 28.6259 14.0196 28.6259C12.2343 28.6259 10.5573 27.9294 9.29179 26.6687C9.29186 26.6687 9.29172 26.6686 9.29179 26.6687L2.4933 19.8751L2.4895 19.8714C2.38828 19.7729 2.32974 19.6365 2.32974 19.4782C2.32974 19.1719 2.57927 18.9224 2.8855 18.9224C3.14658 18.9224 3.41118 18.9859 3.64896 19.1026C3.64931 19.1027 3.64967 19.1029 3.65003 19.1031L7.29839 20.9248L7.30257 20.9269C7.57881 21.0608 7.92332 21.0589 8.20236 20.881Z" fill="#3CBFAE"/>
</svg>
