<svg xmlns="http://www.w3.org/2000/svg" width="22.878" height="32.03" viewBox="0 0 22.878 32.03"><defs><style>.a{fill:#707070;}</style></defs><g transform="translate(-4.75 -3)"><g transform="translate(4.75 3)"><path class="a" d="M11.232,15.568v-5.7a3.813,3.813,0,1,1,7.626,0v5.7a6.863,6.863,0,1,0-7.626,0ZM26.24,22.63l-6.925-3.447a2.148,2.148,0,0,0-.824-.168H17.333V9.863a2.288,2.288,0,1,0-4.576,0V26.244c-5.491-1.159-5.4-1.144-5.6-1.144a1.706,1.706,0,0,0-1.2.5l-1.2,1.22,7.535,7.535a2.3,2.3,0,0,0,1.617.671H24.258a2.222,2.222,0,0,0,2.2-1.952L27.6,25.039a2.192,2.192,0,0,0-1.357-2.41Z" transform="translate(-4.75 -3)"/></g></g></svg>