<svg width="291" height="232" viewBox="0 0 291 232" fill="none" xmlns="http://www.w3.org/2000/svg">
<path d="M57.5624 29.4545C66.4761 30.0522 70.2051 23.9581 74.393 16.1256C85.8585 -5.31828 111.393 -3.25187 119.958 9.95255C126.024 19.3055 139.107 17.3815 149.691 13.721C160.107 10.1183 177.854 6.65717 191.989 10.9625C204.336 14.7229 209.402 28.2893 220.656 27.4548C245.208 25.6342 257.586 49.9229 253.139 60.5157C250.237 67.4296 248.796 75.1636 251.155 82.278C253.755 90.1135 259.691 96.3167 264.489 103.052C269.288 109.788 273.152 118.208 270.767 126.111C268.726 132.872 262.637 137.551 258.857 143.53C247.12 162.099 258.731 190.557 243.091 206.034C231.897 217.113 213.645 214.556 197.981 216.67C184.918 218.434 172.625 223.931 159.622 226.084C133.289 230.446 106.695 220.839 79.9984 220.568C70.5949 220.473 61.0155 221.523 51.9077 219.199C39.7556 216.099 29.4146 206.73 25.1986 195.001C19.3808 178.816 24.893 160.085 18.3207 144.187C12.9665 131.236 -0.126887 120.699 0.696813 106.725C1.20961 98.0242 7.14151 90.7463 11.2213 83.029C17.2846 71.5596 9.25631 26.2151 57.5624 29.4545ZM135.272 8.44522C132.929 8.44522 131.03 9.90314 131.03 11.7015C131.03 13.4999 132.934 14.8031 135.272 14.9579C142.89 15.4621 142.89 12.3763 142.89 10.5778C142.89 7.70472 137.614 8.44522 135.272 8.44522ZM212.637 22.3311C214.674 24.0168 217.27 25.026 219.918 25.1621C220.626 25.1985 221.396 25.1535 221.941 24.7046C222.616 24.1491 222.689 23.014 222.09 22.378C221.714 21.9778 221.165 21.798 220.654 21.5902C219.784 21.2358 218.93 20.728 218.437 19.9324C218.294 19.7013 218.171 19.4368 217.933 19.3029C216.459 18.4721 209.956 20.1131 212.637 22.3311ZM225.613 25.2079C226.283 25.4399 227.019 25.2261 227.693 25.0066C228.126 24.8658 228.658 24.5556 228.541 24.1185C228.485 23.9079 228.287 23.7681 228.094 23.6646C227.206 23.1884 226.054 22.8375 225.161 23.4466C224.268 24.0556 224.942 24.9759 225.613 25.2079ZM256.595 86.5426C256.711 87.5557 257.334 88.4305 257.938 89.2556C259.102 90.8466 260.285 92.457 261.821 93.6982C262.471 94.2234 263.227 94.6932 264.065 94.7222C264.828 94.7487 265.559 94.4024 266.178 93.9581C267.685 92.8755 268.702 91.1456 268.911 89.3107C269.196 86.7932 268.027 84.3423 266.668 82.1978C265.827 80.8696 264.845 79.5461 263.436 78.834C261.074 77.6401 259.513 78.6822 258.854 80.7781C258.246 82.707 256.349 84.3947 256.595 86.5426ZM5.29591 145.156C4.05221 146.254 5.17401 149.467 5.54111 151.588C5.65111 152.224 5.79801 152.881 6.19911 153.389C6.74731 154.084 7.65751 154.369 8.51071 154.617C10.0249 155.056 11.8598 155.43 13.0159 154.364C13.8738 153.573 13.9952 152.285 13.9936 151.123C13.9923 150.062 13.9351 149.001 13.8227 147.945C13.7687 147.439 13.6958 146.916 13.4252 146.483C13.0789 145.929 12.4627 145.606 11.859 145.35C9.69291 144.432 6.53971 144.058 5.29591 145.156ZM81.316 225.647C80.5801 225.795 79.7015 226.114 79.5952 226.851C79.5074 227.461 80.0197 227.981 80.5149 228.351C84.5742 231.386 90.0367 231.58 95.1187 231.651C95.7117 231.659 96.3257 231.663 96.8727 231.433C97.9597 230.974 98.4807 229.54 97.9747 228.48C97.7897 228.094 97.4987 227.768 97.1907 227.468C93.1077 223.486 86.3962 224.626 81.316 225.647ZM182.695 223.594C178.113 226.953 182.747 229.95 188.534 227.726C191.652 226.527 194.642 225.343 197.833 224.541C198.864 224.282 205.101 222.931 205.102 221.527C205.104 217.806 198.075 218.685 193.655 219.305C190.091 219.805 186.473 220.824 182.695 223.594Z" fill="#ECF6FF"/>
<path d="M130.622 199.001C130.546 198.378 123.031 136.563 124.143 125.215L124.172 124.911L123.868 124.887C123.856 124.885 123.571 124.863 123.096 124.908C107.868 125.478 90.4092 140.034 80.6319 153.316C76.708 158.646 74.6944 163.043 75.2442 165.079C76.544 169.878 98.542 179.424 99.4776 179.828L99.6807 179.916L99.8252 179.747C102.052 177.139 104.393 174.498 107.155 171.476C107.651 184.088 108.98 197.86 110.398 199.552C111.176 200.481 113.469 200.799 116.243 200.799C121.759 200.799 129.179 199.542 130.376 199.333L130.656 199.284L130.622 199.001Z" fill="#D53D3D"/>
<path d="M231.187 45.7955C231.187 45.7955 219.196 75.3091 218.797 76.2929C218.397 77.2767 178.628 61.3064 177.886 60.6776C177.143 60.0489 192.802 29.9257 193.138 30.1618C198.157 33.6935 231.187 45.7955 231.187 45.7955Z" fill="#B7EFF9"/>
<path d="M231.138 76.0023L231.182 45.7871L218.788 76.2904L231.138 76.0023Z" fill="#3D4C65"/>
<path d="M196.151 35.4337C195.55 35.268 194.922 34.9707 194.481 34.4414C193.897 33.7405 193.757 32.78 194.064 31.5858C194.534 29.7582 195.657 29.2745 196.285 29.1487C197.284 28.9497 198.387 29.3773 199.029 30.2132C199.685 31.0687 199.753 32.1706 199.214 33.237L198.759 33.008C199.207 32.1216 199.158 31.2147 198.625 30.52C198.099 29.835 197.2 29.4834 196.387 29.6459C195.504 29.8225 194.854 30.5565 194.557 31.7131C194.293 32.7409 194.399 33.5502 194.872 34.1184C195.813 35.2469 197.901 35.1266 197.923 35.1251L197.957 35.6308C197.899 35.6346 197.055 35.683 196.151 35.4337Z" fill="#3D4C65"/>
<path d="M202.164 38.3116C201.563 38.1458 200.935 37.8486 200.493 37.3192C199.91 36.6184 199.769 35.6578 200.076 34.4636C200.546 32.636 201.67 32.1523 202.298 32.0266C203.296 31.8269 204.399 32.2543 205.041 33.091C205.698 33.9462 205.765 35.0482 205.227 36.1146L204.772 35.8855C205.219 34.9991 205.17 34.0925 204.637 33.3978C204.112 32.7125 203.212 32.3609 202.4 32.5237C201.517 32.7002 200.867 33.4342 200.569 34.5908C200.305 35.618 200.411 36.4269 200.884 36.995C201.821 38.122 203.915 38.0044 203.936 38.003L203.97 38.5087C203.912 38.5125 203.068 38.5609 202.164 38.3116Z" fill="#3D4C65"/>
<path d="M208.799 40.6699C208.198 40.5042 207.57 40.2069 207.129 39.6776C206.545 38.9767 206.405 38.0162 206.712 36.822C207.182 34.9944 208.305 34.5107 208.934 34.385C209.932 34.1853 211.035 34.6126 211.677 35.4494C212.333 36.3046 212.4 37.4066 211.862 38.473L211.407 38.2439C211.855 37.3576 211.806 36.4509 211.273 35.7562C210.748 35.0711 209.848 34.7195 209.035 34.8821C208.152 35.0586 207.502 35.7927 207.205 36.9493C206.941 37.9771 207.047 38.7864 207.52 39.3546C208.461 40.483 210.549 40.3623 210.571 40.3613L210.605 40.867C210.547 40.8708 209.703 40.9192 208.799 40.6699Z" fill="#3D4C65"/>
<path d="M216.182 43.0875C215.58 42.9218 214.953 42.6246 214.511 42.0951C213.928 41.3944 213.787 40.4337 214.094 39.2396C214.564 37.4117 215.688 36.9282 216.316 36.8027C217.315 36.6032 218.418 37.0309 219.06 37.8673C219.716 38.7224 219.783 39.8246 219.245 40.8908L218.79 40.6617C219.237 39.7755 219.188 38.8688 218.656 38.1741C218.13 37.4884 217.231 37.1369 216.418 37.2998C215.535 37.4761 214.885 38.2103 214.587 39.3668C214.323 40.394 214.429 41.2029 214.902 41.7709C215.839 42.8979 217.932 42.7802 217.953 42.7789L217.988 43.2847C217.93 43.2885 217.086 43.3368 216.182 43.0875Z" fill="#3D4C65"/>
<path d="M223.984 45.891C223.382 45.7252 222.754 45.4279 222.313 44.8982C221.729 44.1974 221.589 43.2368 221.896 42.0426C222.366 40.2148 223.49 39.7315 224.118 39.6057C225.116 39.406 226.22 39.8339 226.861 40.6704C227.517 41.5255 227.585 42.6276 227.046 43.6938L226.591 43.4648C227.039 42.5785 226.99 41.6719 226.457 40.9772C225.931 40.2922 225.032 39.9405 224.22 40.1028C223.336 40.2794 222.686 41.0134 222.389 42.1699C222.125 43.197 222.23 44.0059 222.703 44.574C223.64 45.7007 225.735 45.5837 225.755 45.5822L225.789 46.088C225.731 46.0918 224.888 46.1401 223.984 45.891Z" fill="#3D4C65"/>
<path d="M215.176 71.453L182.005 58.7315L192.288 36.1716L225.876 48.9756L215.176 71.453ZM182.692 58.4525L214.917 70.811L225.18 49.2523L192.554 36.8152L182.692 58.4525Z" fill="#3D4C65"/>
<path d="M196.893 38.3655L187.215 60.4525L187.682 60.6567L197.36 38.5697L196.893 38.3655Z" fill="#3D4C65"/>
<path d="M219.285 46.7141L209.474 68.9859L209.941 69.191L219.752 46.9192L219.285 46.7141Z" fill="#3D4C65"/>
<path d="M211.521 43.7466L200.924 65.6985L201.383 65.9196L211.981 43.9676L211.521 43.7466Z" fill="#3D4C65"/>
<path d="M203.988 40.8848L194.14 63.1061L194.606 63.312L204.454 41.0906L203.988 40.8848Z" fill="#3D4C65"/>
<path d="M190.428 40.8494L190.239 41.3196L223.014 54.4226L223.202 53.9524L190.428 40.8494Z" fill="#3D4C65"/>
<path d="M187.397 47.4985L187.208 47.9679L219.836 61.0959L220.025 60.6264L187.397 47.4985Z" fill="#3D4C65"/>
<path d="M184.452 53.9502L184.269 54.4224L217 67.06L217.183 66.5878L184.452 53.9502Z" fill="#3D4C65"/>
<path d="M201.31 49.7846C201.31 49.7846 204.726 46.3138 206.815 49.6533C208.924 53.0237 202.481 54.7837 201.063 51.806C201.063 51.806 204.606 53.1267 205.912 51.3904C207.219 49.6542 203.336 48.5829 201.31 49.7846Z" fill="#D53D3D"/>
<path d="M86.5329 52.7786C86.5329 52.7786 73.4535 60.5039 73.8547 61.3613C74.2559 62.2186 76.5683 65.332 76.5683 65.332L89.2465 56.7493L86.5329 52.7786Z" fill="#3D4C65"/>
<path d="M80.4036 55.0532C80.4036 55.0532 64.1908 64.1717 64.9041 65.5458C65.6174 66.9199 69.3677 72.0772 69.3677 72.0772L84.8671 61.5847L80.4036 55.0532Z" fill="#EBBE00"/>
<path d="M108.209 41.7143C104.087 35.682 95.8312 34.118 89.7706 38.221C83.7097 42.324 82.1384 50.5402 86.2608 56.5726C90.3833 62.6049 98.6382 64.1688 104.699 60.0658C110.76 55.9628 112.331 47.7467 108.209 41.7143ZM89.44 54.4203C86.5118 50.1355 87.6281 44.2996 91.9332 41.3853C96.2382 38.4709 102.101 39.5817 105.03 43.8666C107.958 48.1513 106.842 53.9873 102.537 56.9016C98.2322 59.816 92.3682 58.705 89.44 54.4203Z" fill="#B7EFF9"/>
<path d="M43.9559 31.0879C43.9559 31.0879 63.1415 26.3768 64.0423 27.6801C64.9431 28.9835 68.0005 50.4282 68.0005 50.4282L47.8029 54.0758L43.9559 31.0879Z" fill="#FFAA02"/>
<path d="M47.2185 35.6095L46.7732 35.3637C46.7859 35.3416 48.0359 33.1548 50.3092 33.6967C51.0578 33.8761 51.5588 34.0953 51.9613 34.2714C52.6743 34.5839 52.9149 34.6888 53.6265 34.1417C54.9369 33.1352 55.8483 32.5578 57.4352 33.0189C58.0582 33.2 58.3909 33.5596 58.634 33.8223C58.7494 33.9468 58.864 34.0742 58.9316 34.0725C59.0052 34.0695 59.2021 33.972 59.6914 33.3505C60.6642 32.1147 60.8546 31.9755 62.6675 32.3226L62.571 32.8204C60.9951 32.5189 60.9777 32.5389 60.1222 33.6249C59.583 34.3097 59.2632 34.5666 58.9517 34.5788C58.6504 34.5959 58.4615 34.3843 58.2594 34.1655C58.0344 33.9225 57.7795 33.6468 57.2925 33.5054C55.906 33.1028 55.1517 33.6103 53.9377 34.5432C52.9855 35.2741 52.5229 35.0708 51.7562 34.7354C51.3723 34.5671 50.8945 34.3581 50.1904 34.1896C48.2972 33.7374 47.2618 35.5331 47.2185 35.6095Z" fill="#3D4C65"/>
<path d="M50.5659 49.6201L50.1207 49.3742C50.1336 49.3519 51.3826 47.165 53.6569 47.7072C54.4055 47.8866 54.9062 48.1058 55.3087 48.282C56.0217 48.5942 56.2624 48.6996 56.9739 48.1523C58.2846 47.1462 59.1952 46.5682 60.7829 47.0294C61.4056 47.2106 61.7385 47.5703 61.9814 47.8329C62.0968 47.9573 62.2164 48.0882 62.279 48.083C62.3528 48.0803 62.5495 47.9826 63.0388 47.3612C64.0116 46.125 64.2018 45.9852 66.0151 46.3334L65.9187 46.8312C64.3412 46.5286 64.3253 46.5496 63.4694 47.6359C62.9304 48.3206 62.6107 48.5772 62.2991 48.5895C61.9934 48.5987 61.8091 48.3946 61.6068 48.1761C61.382 47.9331 61.1272 47.6574 60.6402 47.5159C59.2542 47.1138 58.4996 47.6208 57.2852 48.5537C56.3335 49.2846 55.8706 49.0819 55.1036 48.7459C54.7197 48.5777 54.2421 48.3686 53.5381 48.2001C51.6434 47.748 50.6092 49.5437 50.5659 49.6201Z" fill="#3D4C65"/>
<path d="M48.5032 40.443L48.0579 40.1971C48.0703 40.1751 49.3194 37.9867 51.5939 38.5301C52.3427 38.7095 52.8437 38.9287 53.2459 39.1051C53.9587 39.4171 54.1989 39.5233 54.9111 38.9755C56.231 37.962 56.9264 37.5955 58.5108 38.055C59.0607 38.2148 59.4373 38.5125 59.7399 38.7518C59.9619 38.9267 60.1541 39.0804 60.2782 39.0524C60.391 39.0297 60.5994 38.8666 60.9526 38.2195C61.0633 38.0169 61.1431 37.8457 61.2095 37.7034C61.6057 36.8544 61.8133 36.8398 63.2595 37.1167L63.163 37.6146C61.923 37.3768 61.923 37.3768 61.6714 37.9169C61.6013 38.0671 61.517 38.2475 61.4001 38.4615C61.016 39.1648 60.7204 39.48 60.3798 39.549C60.0201 39.6215 59.731 39.3917 59.4234 39.1487C59.1415 38.9257 58.822 38.6733 58.3681 38.5415C56.9975 38.1431 56.4463 38.4365 55.2224 39.3768C54.2707 40.107 53.808 39.9051 53.0408 39.5688C52.657 39.4008 52.1794 39.1915 51.4751 39.023C49.5821 38.5707 48.5462 40.3666 48.5032 40.443Z" fill="#3D4C65"/>
<path d="M49.489 45.4565L49.3334 44.974C49.58 44.8951 49.5845 44.8918 49.6974 44.8122C49.8505 44.7038 50.1687 44.4789 51.2594 43.8922C52.2737 43.3471 52.4895 43.3961 53.0191 43.6324C53.2351 43.7289 53.5039 43.8491 53.9747 43.9545C55.3839 44.27 56.1048 43.7153 57.2577 42.7089C58.1614 41.9203 58.6362 42.0938 59.4226 42.3808C59.8164 42.5246 60.3064 42.7035 61.0197 42.8277C62.9499 43.1615 63.8869 41.2446 63.8961 41.2253L64.356 41.4425C64.3451 41.4653 63.238 43.7291 60.9319 43.327C60.1736 43.1949 59.66 43.0073 59.2473 42.8564C58.5164 42.5902 58.2698 42.4998 57.5933 43.09C56.349 44.1765 55.4776 44.8107 53.8629 44.4489C53.342 44.3324 53.0347 44.1951 52.8105 44.0946C52.4246 43.9226 52.3436 43.8858 51.5016 44.3381C50.4382 44.9099 50.1372 45.1227 49.9925 45.2251C49.8361 45.3358 49.7891 45.3605 49.489 45.4565Z" fill="#3D4C65"/>
<path d="M31.8517 177.768C31.8517 177.768 50.104 185.305 50.0522 186.886C50.0004 188.467 39.678 207.535 39.678 207.535L21.2451 198.544L31.8517 177.768Z" fill="#EBBE00"/>
<path d="M45.8039 190.155C44.7139 188.98 44.6876 188.987 43.3526 189.356C42.5105 189.589 42.0998 189.606 41.8417 189.433C41.5941 189.266 41.5633 188.987 41.531 188.691C41.4949 188.363 41.4538 187.99 41.1464 187.589C40.2703 186.445 39.3594 186.406 37.8269 186.443C36.6271 186.46 36.3735 186.033 35.9564 185.31C35.7475 184.948 35.4877 184.497 35.0213 183.946C33.7666 182.462 31.863 183.298 31.7824 183.334L31.5706 182.873C31.594 182.862 33.9048 181.839 35.4109 183.619C35.9066 184.206 36.1791 184.678 36.3979 185.058C36.7857 185.73 36.9215 185.964 37.8155 185.937C39.4682 185.898 40.548 185.972 41.5511 187.282C41.9447 187.795 41.9981 188.281 42.0371 188.636C42.0555 188.804 42.0747 188.978 42.1273 189.013C42.189 189.054 42.4051 189.093 43.1696 188.881C44.6896 188.462 44.9255 188.461 46.1778 189.811L45.8039 190.155Z" fill="#3D4C65"/>
<path d="M40.1465 203.41C39.0566 202.235 39.0315 202.242 37.695 202.612C36.8529 202.845 36.4425 202.862 36.1844 202.688C35.9368 202.521 35.906 202.242 35.8736 201.946C35.8376 201.618 35.7966 201.246 35.489 200.844C34.6129 199.701 33.7018 199.663 32.1696 199.698C30.9663 199.719 30.7162 199.288 30.299 198.565C30.0902 198.203 29.8304 197.752 29.364 197.201C28.103 195.709 26.145 196.58 26.1256 196.589L25.9133 196.129C25.9369 196.118 28.2472 195.094 29.7536 196.874C30.2493 197.461 30.5215 197.933 30.7406 198.312C31.1281 198.985 31.2569 199.214 32.1581 199.191C33.8134 199.154 34.8901 199.228 35.8938 200.536C36.2873 201.05 36.3408 201.537 36.3798 201.891C36.3982 202.059 36.4171 202.233 36.4701 202.269C36.5307 202.31 36.7485 202.348 37.512 202.136C39.0318 201.717 39.2677 201.715 40.5205 203.066L40.1465 203.41Z" fill="#3D4C65"/>
<path d="M43.4224 194.363C42.5669 193.44 42.5672 193.44 42.0414 193.726C41.8954 193.805 41.7202 193.901 41.4984 194.004C40.7697 194.344 40.3444 194.422 40.0289 194.277C39.6975 194.124 39.6005 193.768 39.4978 193.39C39.4036 193.045 39.297 192.653 39.0101 192.278C38.1434 191.147 37.5256 191.061 35.98 191.093C34.77 191.108 34.5266 190.683 34.1092 189.959C33.9006 189.598 33.6408 189.147 33.1744 188.596C31.9144 187.105 29.9554 187.974 29.9357 187.983L29.7239 187.522C29.7465 187.511 32.0574 186.487 33.5637 188.269C34.0597 188.855 34.3319 189.328 34.551 189.707C34.9385 190.38 35.0631 190.61 35.9685 190.586C37.637 190.549 38.4136 190.664 39.4148 191.971C39.7624 192.424 39.8882 192.886 39.9891 193.257C40.0632 193.529 40.1271 193.764 40.2429 193.817C40.3473 193.867 40.6126 193.857 41.2826 193.545C41.4924 193.447 41.6588 193.356 41.797 193.281C42.6229 192.833 42.7977 192.943 43.7968 194.02L43.4224 194.363Z" fill="#3D4C65"/>
<path d="M40.3684 198.554C39.682 198.554 38.8968 198.349 38.2209 197.645C37.6891 197.09 37.3873 196.636 37.1449 196.271C36.7158 195.624 36.5706 195.408 35.6748 195.482C34.0247 195.623 32.9458 195.617 31.8616 194.373C31.5121 193.972 31.3465 193.68 31.2257 193.467C31.0173 193.099 30.9741 193.022 30.0269 192.89C28.8308 192.722 28.4611 192.716 28.2836 192.713C28.0917 192.709 28.039 192.701 27.7404 192.601L27.9025 192.121C28.1486 192.203 28.1538 192.203 28.2926 192.206C28.4803 192.209 28.8711 192.216 30.098 192.388C31.2396 192.548 31.384 192.715 31.6692 193.217C31.7856 193.423 31.9302 193.678 32.2465 194.041C33.1926 195.128 34.1034 195.106 35.6316 194.977C36.8277 194.873 37.1077 195.295 37.5698 195.991C37.801 196.34 38.0886 196.773 38.5891 197.294C39.9342 198.697 41.7822 197.744 41.8603 197.703L42.1005 198.149C42.0875 198.156 41.3232 198.554 40.3684 198.554Z" fill="#3D4C65"/>
<path d="M20.7225 130.167C15.0857 130.167 10.5162 134.714 10.5162 140.325C10.5162 145.935 15.0857 150.483 20.7225 150.483C26.3592 150.483 30.9287 145.935 30.9287 140.325C30.9287 134.714 26.3592 130.167 20.7225 130.167ZM20.3758 145.838C17.5697 145.838 15.2949 143.526 15.2949 140.674C15.2949 137.823 17.5697 135.511 20.3758 135.511C23.182 135.511 25.4568 137.823 25.4568 140.674C25.4568 143.526 23.182 145.838 20.3758 145.838Z" fill="#3D4C65"/>
<path d="M18.6436 135.019C18.6436 135.019 17.8718 128.028 18.9524 125.494C19.2383 124.823 22.8115 124.649 23.0292 126.182C23.0874 126.591 23.1974 134.712 22.9658 134.865C22.7343 135.019 18.6436 135.019 18.6436 135.019Z" fill="#3D4C65"/>
<path d="M22.8398 145.769C22.8398 145.769 23.6116 152.759 22.5311 155.294C22.2451 155.965 18.672 156.139 18.4542 154.606C18.396 154.197 18.2861 146.076 18.5176 145.923C18.7491 145.769 22.8398 145.769 22.8398 145.769Z" fill="#3D4C65"/>
<path d="M22.6172 135.117C22.6172 135.117 27.0378 129.631 29.6029 128.598C30.2817 128.325 32.932 130.717 31.9968 131.954C31.747 132.285 26.0554 138.104 25.7826 138.05C25.5097 137.996 22.6172 135.117 22.6172 135.117Z" fill="#3D4C65"/>
<path d="M17.9468 145.671C17.9468 145.671 13.5261 151.157 10.9611 152.189C10.2822 152.463 7.63194 150.071 8.56715 148.834C8.81704 148.503 14.5085 142.684 14.7814 142.738C15.0543 142.792 17.9468 145.671 17.9468 145.671Z" fill="#3D4C65"/>
<path d="M26.0248 142.718C26.0248 142.718 31.537 147.118 32.5739 149.671C32.8484 150.346 30.4455 152.984 29.2023 152.054C28.8702 151.805 23.0232 146.14 23.0778 145.869C23.1323 145.597 26.0248 142.718 26.0248 142.718Z" fill="#3D4C65"/>
<path d="M15.4202 138.07C15.4202 138.07 9.90813 133.67 8.87113 131.117C8.59673 130.441 10.9996 127.803 12.2427 128.734C12.5749 128.983 18.4219 134.648 18.3673 134.919C18.3127 135.191 15.4202 138.07 15.4202 138.07Z" fill="#3D4C65"/>
<path d="M15.0668 142.814C15.0668 142.814 8.04329 143.582 5.49629 142.506C4.82219 142.222 4.64729 138.665 6.18759 138.449C6.59909 138.391 14.7581 138.281 14.9124 138.512C15.0668 138.742 15.0668 142.814 15.0668 142.814Z" fill="#3D4C65"/>
<path d="M25.4531 138.637C25.4531 138.637 32.4767 137.869 35.0237 138.944C35.6977 139.229 35.8727 142.785 34.3324 143.002C33.9208 143.06 25.7618 143.169 25.6075 142.939C25.4531 142.709 25.4531 138.637 25.4531 138.637Z" fill="#3D4C65"/>
<path d="M221.08 89.5742C216.801 89.5742 213.332 93.027 213.332 97.2861C213.332 101.545 216.801 104.998 221.08 104.998C225.36 104.998 228.829 101.545 228.829 97.2861C228.829 93.027 225.36 89.5742 221.08 89.5742ZM220.817 101.472C218.687 101.472 216.96 99.7165 216.96 97.5517C216.96 95.3868 218.687 93.6319 220.817 93.6319C222.948 93.6319 224.675 95.3868 224.675 97.5517C224.675 99.7165 222.948 101.472 220.817 101.472Z" fill="#3D4C65"/>
<path d="M219.502 93.2584C219.502 93.2584 218.916 87.9513 219.736 86.0268C219.954 85.5175 222.666 85.3853 222.831 86.5491C222.876 86.8601 222.959 93.0251 222.783 93.1417C222.608 93.2584 219.502 93.2584 219.502 93.2584Z" fill="#3D4C65"/>
<path d="M222.688 101.42C222.688 101.42 223.274 106.727 222.453 108.651C222.236 109.16 219.524 109.293 219.358 108.129C219.314 107.818 219.231 101.653 219.406 101.537C219.582 101.42 222.688 101.42 222.688 101.42Z" fill="#3D4C65"/>
<path d="M222.519 93.3328C222.519 93.3328 225.875 89.1678 227.822 88.3843C228.337 88.1769 230.349 89.9926 229.639 90.9319C229.45 91.1829 225.129 95.6009 224.922 95.5597C224.714 95.5184 222.519 93.3328 222.519 93.3328Z" fill="#3D4C65"/>
<path d="M218.973 101.346C218.973 101.346 215.617 105.511 213.67 106.294C213.154 106.502 211.142 104.686 211.852 103.747C212.042 103.496 216.363 99.0776 216.57 99.1189C216.777 99.1601 218.973 101.346 218.973 101.346Z" fill="#3D4C65"/>
<path d="M225.106 99.1033C225.106 99.1033 229.29 102.444 230.078 104.382C230.286 104.895 228.462 106.897 227.518 106.191C227.266 106.002 222.827 101.701 222.868 101.495C222.91 101.289 225.106 99.1033 225.106 99.1033Z" fill="#3D4C65"/>
<path d="M217.055 95.5745C217.055 95.5745 212.87 92.2343 212.083 90.2961C211.875 89.7832 213.699 87.7806 214.643 88.4872C214.895 88.676 219.334 92.9766 219.292 93.1828C219.251 93.3889 217.055 95.5745 217.055 95.5745Z" fill="#3D4C65"/>
<path d="M216.787 99.176C216.787 99.176 211.454 99.759 209.521 98.9427C209.009 98.7266 208.876 96.0267 210.045 95.8622C210.358 95.8182 216.552 95.7351 216.669 95.9101C216.787 96.085 216.787 99.176 216.787 99.176Z" fill="#3D4C65"/>
<path d="M224.672 96.0053C224.672 96.0053 230.004 95.4221 231.938 96.2386C232.449 96.4547 232.582 99.1545 231.413 99.3191C231.1 99.3631 224.906 99.4461 224.789 99.2712C224.672 99.0962 224.672 96.0053 224.672 96.0053Z" fill="#3D4C65"/>
<path d="M265.785 92.4024C265.551 92.4024 265.34 92.2403 265.288 92.0028L262.576 79.5281C262.53 79.3168 262.624 79.0998 262.81 78.9877C263.612 78.5027 270.618 74.3066 272.69 74.3066C272.72 74.3066 272.749 74.3076 272.777 74.3094C273.244 74.3393 273.774 74.373 276.296 87.2638C276.349 87.5385 276.169 87.8045 275.893 87.8579C275.617 87.9109 275.35 87.7325 275.296 87.4573C274.424 82.9967 273.028 76.5447 272.496 75.3306C271.018 75.5171 266.498 77.9653 263.648 79.6677L266.284 91.7885C266.343 92.0619 266.168 92.3316 265.894 92.391C265.858 92.3987 265.821 92.4024 265.785 92.4024Z" fill="#3D4C65"/>
<path d="M265.311 90.4128C265.311 90.4128 266.711 88.3693 268.827 89.591C270.56 90.5916 268.671 93.2155 266.396 93.0178C263.621 92.7768 265.311 90.4128 265.311 90.4128Z" fill="#3D4C65"/>
<path d="M275.281 85.8862C275.281 85.8862 276.682 83.8427 278.797 85.0644C280.53 86.0651 278.642 88.6889 276.366 88.4912C273.591 88.2502 275.281 85.8862 275.281 85.8862Z" fill="#3D4C65"/>
<path d="M251.947 79.5382C251.883 79.5382 251.818 79.5261 251.755 79.5006C251.495 79.3949 251.369 79.0992 251.476 78.8402C252.975 75.1746 254.526 71.0896 254.756 70.0268C253.7 69.5884 250.101 69.2756 247.488 69.1719L244.11 77.9464C244.01 78.2077 243.714 78.3388 243.453 78.2381C243.19 78.1382 243.058 77.845 243.159 77.5837L246.668 68.4709C246.745 68.2693 246.942 68.1334 247.16 68.1458C248.354 68.1856 254.372 68.4296 255.573 69.3263C255.941 69.6008 256.258 69.8378 252.419 79.2222C252.339 79.4189 252.148 79.5382 251.947 79.5382Z" fill="#3D4C65"/>
<path d="M243.954 76.6178C243.954 76.6178 245.709 75.8932 246.55 77.556C247.238 78.9181 244.926 79.8108 243.553 78.7367C241.879 77.4269 243.954 76.6178 243.954 76.6178Z" fill="#3D4C65"/>
<path d="M252.237 77.8734C252.237 77.8734 253.993 77.1488 254.833 78.8116C255.521 80.1736 253.21 81.0664 251.837 79.9922C250.162 78.6825 252.237 77.8734 252.237 77.8734Z" fill="#3D4C65"/>
<path d="M253.096 122.006L243.362 138.793C243.362 138.793 265.255 152.289 266.318 153.066C267.382 153.843 277.263 137.775 276.977 136.83C276.691 135.886 253.096 122.006 253.096 122.006Z" fill="#B7EFF9"/>
<path d="M259.213 141.506C259.111 141.506 259.036 141.497 258.991 141.479C258.041 141.09 254.38 127.777 252.85 122.071L253.343 121.941C255.235 129.001 258.503 140.425 259.211 141.025C259.99 141.206 270.482 138.404 276.907 136.587L277.047 137.074C274.335 137.841 261.276 141.506 259.213 141.506Z" fill="#3D4C65"/>
<path d="M243.42 139.04L243.305 138.546C245.262 138.095 256.719 135.154 256.834 135.124L256.961 135.615C256.845 135.645 245.383 138.587 243.42 139.04Z" fill="#3D4C65"/>
<path d="M266.066 153.102C265.358 148.186 264.255 140.725 264.12 140.319L264.356 140.242L264.289 139.973L264.494 140.009C264.618 140.092 264.715 140.157 266.57 153.03L266.066 153.102Z" fill="#3D4C65"/>
<path d="M14.1142 184.935L13.6876 184.659C13.6876 184.659 13.9411 184.271 14.4197 183.611L14.8329 183.907C14.365 184.553 14.1162 184.933 14.1142 184.935Z" fill="#3D4C65"/>
<path d="M78.7598 224.151C77.9153 224.126 77.0509 224.072 76.1904 223.992L76.2381 223.487C77.0876 223.567 77.9414 223.619 78.7752 223.644L78.7598 224.151ZM81.3337 224.145L81.3158 223.638C82.1568 223.609 83.0091 223.55 83.8489 223.464L83.9011 223.968C83.0501 224.055 82.1862 224.115 81.3337 224.145ZM73.6369 223.677C72.8021 223.549 71.9506 223.394 71.1065 223.217L71.2117 222.721C72.0465 222.896 72.8888 223.049 73.7145 223.176L73.6369 223.677ZM86.451 223.618L86.3645 223.118C87.1925 222.976 88.0291 222.802 88.8506 222.603L88.9715 223.095C88.1384 223.297 87.2906 223.473 86.451 223.618ZM68.6038 222.614C67.7418 222.372 66.9184 222.096 66.1562 221.794L66.3451 221.323C67.0907 221.619 67.8972 221.889 68.742 222.126L68.6038 222.614ZM91.4512 222.408L91.2986 221.924C92.0862 221.679 92.8941 221.399 93.7001 221.094L93.8811 221.567C93.0661 221.877 92.2482 222.159 91.4512 222.408ZM63.8195 220.684C63.0423 220.246 62.3206 219.756 61.6747 219.228L61.9979 218.836C62.6212 219.346 63.3185 219.819 64.0706 220.243L63.8195 220.684ZM96.2581 220.588L96.0511 220.125C96.7971 219.794 97.5722 219.428 98.3512 219.038L98.5802 219.491C97.7932 219.885 97.0121 220.254 96.2581 220.588ZM100.853 218.301L100.609 217.856C101.38 217.435 102.121 217.016 102.834 216.608L103.088 217.047C102.372 217.457 101.628 217.878 100.853 218.301ZM59.8357 217.397C59.293 216.734 58.8122 216.005 58.4067 215.231L58.8582 214.997C59.2478 215.741 59.7094 216.44 60.2305 217.077L59.8357 217.397ZM105.304 215.773L105.05 215.334C105.985 214.8 106.678 214.418 107.298 214.095L107.534 214.543C106.921 214.863 106.233 215.243 105.304 215.773ZM109.828 213.485L109.645 213.012C110.602 212.648 111.435 212.447 112.193 212.4L112.225 212.906C111.519 212.95 110.735 213.139 109.828 213.485ZM57.4225 212.838C57.1786 212.059 56.9802 211.214 56.8332 210.326L57.3354 210.244C57.4786 211.108 57.6716 211.93 57.9087 212.687L57.4225 212.838ZM56.5501 207.77C56.5066 207.076 56.4844 206.329 56.4844 205.551L56.4857 205.208L56.9948 205.211L56.9936 205.55C56.9936 206.319 57.0152 207.055 57.0582 207.738L56.5501 207.77ZM57.0781 202.678L56.5695 202.651C56.6105 201.889 56.6677 201.055 56.7447 200.103L57.2524 200.143C57.1756 201.092 57.1187 201.921 57.0781 202.678ZM57.4737 197.608L56.9665 197.562L57.0105 197.081C57.0729 196.398 57.1356 195.712 57.1952 195.026L57.7024 195.069C57.6427 195.756 57.5801 196.443 57.5174 197.127L57.4737 197.608ZM57.9018 192.525L57.3936 192.492C57.456 191.57 57.499 190.741 57.5254 189.957L58.034 189.974C58.0077 190.763 57.9642 191.598 57.9018 192.525ZM57.5492 187.424C57.5336 186.542 57.4901 185.692 57.4197 184.9L57.9269 184.855C57.9982 185.659 58.0425 186.521 58.0584 187.415L57.5492 187.424ZM57.0851 182.4C56.928 181.547 56.7278 180.725 56.4899 179.956L56.9767 179.807C57.2201 180.595 57.4252 181.437 57.5858 182.308L57.0851 182.4ZM16.3732 181.89L15.9749 181.574C16.5042 180.914 17.0586 180.252 17.6229 179.608L18.0068 179.94C17.4472 180.58 16.8975 181.236 16.3732 181.89ZM19.725 178.066L19.3565 177.716C19.9567 177.09 20.5692 176.482 21.1773 175.907L21.5279 176.274C20.926 176.844 20.3191 177.446 19.725 178.066ZM55.5862 177.615C55.2265 176.852 54.8092 176.119 54.3461 175.436L54.7683 175.153C55.2459 175.857 55.6762 176.613 56.0471 177.399L55.5862 177.615ZM23.4191 174.577L23.0889 174.191C23.7559 173.625 24.4319 173.086 25.0979 172.588L25.4037 172.993C24.7462 173.485 24.0784 174.018 23.4191 174.577ZM52.7804 173.479C52.2208 172.882 51.5992 172.309 50.9327 171.777L51.2509 171.382C51.9368 171.929 52.5765 172.518 53.1528 173.134L52.7804 173.479ZM27.4854 171.544L27.2089 171.118C27.9468 170.643 28.6936 170.203 29.429 169.811L29.6697 170.257C28.9467 170.644 28.2118 171.076 27.4854 171.544ZM48.8655 170.336C48.5696 170.155 48.2643 169.979 47.9489 169.806C47.515 169.568 47.0747 169.347 46.6397 169.149L46.8515 168.687C47.298 168.891 47.7497 169.118 48.1945 169.362C48.5169 169.538 48.8297 169.719 49.1322 169.904L48.8655 170.336ZM31.9562 169.171L31.7598 168.704C32.572 168.366 33.3916 168.076 34.1964 167.843L34.3391 168.33C33.5525 168.558 32.7507 168.841 31.9562 169.171ZM44.2806 168.264C43.4721 168.024 42.6445 167.845 41.8208 167.729L41.8913 167.228C42.7404 167.346 43.5932 167.531 44.4258 167.778L44.2806 168.264ZM36.7996 167.78L36.721 167.28C37.5832 167.145 38.4519 167.073 39.3029 167.063L39.3088 167.57C38.482 167.579 37.6379 167.65 36.7996 167.78Z" fill="#3D4C65"/>
<path d="M115.559 214.178C115.253 213.88 114.932 213.632 114.605 213.441L114.862 213.004C115.225 213.216 115.579 213.489 115.915 213.815L115.559 214.178Z" fill="#3D4C65"/>
<path d="M34.7618 45.4772C34.7516 45.4383 34.5092 44.5084 34.2594 42.9662L34.7621 42.8855C35.0077 44.4013 35.2521 45.3398 35.2546 45.349L34.7618 45.4772ZM33.9302 40.4373C33.8457 39.5844 33.7878 38.7283 33.7582 37.8927L34.2669 37.8748C34.2962 38.6998 34.3534 39.5451 34.4369 40.3873L33.9302 40.4373ZM34.2626 35.3569L33.754 35.3401C33.7828 34.4725 33.8447 33.6152 33.9374 32.7917L34.4436 32.8481C34.3521 33.6585 34.2915 34.5025 34.2626 35.3569ZM34.8342 30.3673L34.3355 30.2658C34.511 29.4117 34.7278 28.5788 34.9794 27.7897L35.4647 27.9431C35.2185 28.7151 35.0062 29.5307 34.8342 30.3673ZM85.3071 28.6357C84.9101 28.6357 84.515 28.6129 84.1332 28.5684L84.1923 28.0651C84.5548 28.1074 84.93 28.1289 85.3071 28.1289C85.3093 28.1289 85.3113 28.1289 85.3133 28.1289C85.7511 28.1289 86.2071 28.1005 86.6688 28.0443L86.7304 28.5471C86.2484 28.606 85.7718 28.6357 85.3136 28.6357C85.3113 28.6357 85.3093 28.6357 85.3071 28.6357ZM89.2573 28.0092L89.1126 27.5232C89.8599 27.3025 90.6555 27.015 91.4771 26.6693L91.6751 27.136C90.8365 27.4891 90.023 27.7828 89.2573 28.0092ZM81.6194 27.9206C80.8696 27.6158 80.1278 27.2104 79.3516 26.6817L79.639 26.2635C80.3851 26.7717 81.0959 27.1605 81.8119 27.4515L81.6194 27.9206ZM93.9951 26.0485L93.7611 25.5981C94.4691 25.2346 95.2141 24.8246 95.9761 24.3795L96.2341 24.8165C95.4641 25.2663 94.7111 25.6808 93.9951 26.0485ZM36.3674 25.6088L35.9045 25.3975C36.2684 24.6081 36.6836 23.85 37.1383 23.1438L37.5669 23.4174C37.1249 24.1036 36.7214 24.841 36.3674 25.6088ZM77.3279 25.1037C76.7394 24.598 76.1599 24.0692 75.5466 23.5095L75.4305 23.4036L75.7746 23.03L75.8907 23.1359C76.5013 23.6931 77.0778 24.2194 77.6606 24.7202L77.3279 25.1037ZM98.4101 23.482L98.1341 23.0559C98.5021 22.8204 98.8771 22.5754 99.2601 22.321L99.5431 22.7422C99.1581 22.9985 98.7801 23.245 98.4101 23.482ZM73.5416 21.717C72.8459 21.1192 72.2033 20.6023 71.5768 20.1366L71.8816 19.7308C72.5178 20.2037 73.1696 20.7278 73.8742 21.3335L73.5416 21.717ZM39.0733 21.429L38.6919 21.0935C39.2605 20.4529 39.8847 19.8523 40.5475 19.3087L40.8712 19.6997C40.2293 20.2265 39.6242 20.8082 39.0733 21.429ZM69.4904 18.7334C68.7677 18.2987 68.0214 17.9033 67.2721 17.5583L67.4859 17.0986C68.2521 17.4512 69.0151 17.8555 69.754 18.2999L69.4904 18.7334ZM42.918 18.2687L42.6575 17.8332C43.3787 17.4059 44.1529 17.0179 44.9582 16.6807L45.1556 17.1479C44.3719 17.4759 43.6191 17.8533 42.918 18.2687ZM64.9366 16.6374C64.1574 16.3788 63.3423 16.1551 62.5136 15.972L62.624 15.4771C63.4698 15.664 64.3019 15.8926 65.0977 16.1569L64.9366 16.6374ZM47.5251 16.3224L47.3854 15.8349C48.1819 15.6088 49.0237 15.4165 49.8876 15.2636L49.9766 15.7624C49.1299 15.9124 48.305 16.1007 47.5251 16.3224ZM60.0337 15.5449C59.2265 15.4427 58.3817 15.3705 57.523 15.3302L57.5469 14.8239C58.4192 14.865 59.2774 14.9385 60.0979 15.0421L60.0337 15.5449ZM52.4747 15.4331L52.4289 14.9283C53.0099 14.8761 53.6118 14.8378 54.2182 14.8147C54.4778 14.8046 54.7343 14.7972 54.9879 14.7922L54.9978 15.299C54.7477 15.3039 54.4942 15.3111 54.2376 15.321C53.6402 15.3438 53.047 15.3816 52.4747 15.4331Z" fill="#3D4C65"/>
<path d="M248.619 165.209L243.961 197.57L284.928 204.386L290.342 172.151C282.347 170.821 248.619 165.209 248.619 165.209Z" fill="#3D4C65"/>
<path d="M251.444 168.933L247.89 194.036L282.756 199.837L287.388 174.913C276.33 173.074 251.444 168.933 251.444 168.933Z" fill="white"/>
<path d="M253.531 192.649C253.531 192.649 254.311 182.878 254.58 182.741C254.849 182.603 259.376 183.507 259.376 183.507C259.376 183.507 258.571 193.427 258.202 193.426C257.833 193.425 253.531 192.649 253.531 192.649Z" fill="#F7705F"/>
<path d="M266.588 194.805C266.588 194.805 268.339 179.252 268.626 179.008C268.913 178.764 273.425 179.756 273.425 179.756C273.425 179.756 271.634 195.547 271.259 195.582C270.884 195.617 266.588 194.805 266.588 194.805Z" fill="#87BECA"/>
<path d="M260.239 193.756C260.239 193.756 261.529 180.951 261.807 180.758C262.086 180.564 266.605 181.514 266.605 181.514C266.605 181.514 265.283 194.516 264.91 194.533C264.538 194.551 260.239 193.756 260.239 193.756Z" fill="#EBBE00"/>
<path d="M273.529 195.949C273.529 195.949 275.923 176.566 276.222 176.252C276.521 175.937 281.023 176.988 281.023 176.988C281.023 176.988 278.579 196.668 278.2 196.726C277.82 196.784 273.529 195.949 273.529 195.949Z" fill="#3D4C65"/>
<path d="M100.577 7.24829L105.629 12.2388L101.831 20.573L107.032 19.2044L107.299 24.7355L127.228 10.4892L100.577 7.24829Z" fill="#87BECA"/>
<path d="M126.638 10.4097L105.61 11.988L105.648 12.4933L126.676 10.9149L126.638 10.4097Z" fill="#3D4C65"/>
<path d="M107.294 15.7708L101.669 20.3779L101.993 20.7693L107.617 16.1622L107.294 15.7708Z" fill="#3D4C65"/>
<path d="M126.589 10.4189L107.388 15.724L107.524 16.2124L126.725 10.9074L126.589 10.4189Z" fill="#3D4C65"/>
<path d="M107.204 15.9343L106.778 19.1711L107.283 19.2369L107.709 16.0001L107.204 15.9343Z" fill="#3D4C65"/>
<path d="M126.244 205.301L126.728 212.369L118.347 216.132L123.161 218.522L119.692 222.852L144.11 225.248L126.244 205.301Z" fill="#EBBE00"/>
<path d="M126.879 212.167L126.573 212.571L143.41 225.206L143.717 224.801L126.879 212.167Z" fill="#3D4C65"/>
<path d="M118.352 215.879L118.336 216.385L125.616 216.623L125.633 216.116L118.352 215.879Z" fill="#3D4C65"/>
<path d="M125.735 216.141L125.514 216.598L143.453 225.232L143.674 224.776L125.735 216.141Z" fill="#3D4C65"/>
<path d="M125.457 216.179L122.99 218.331L123.326 218.712L125.792 216.56L125.457 216.179Z" fill="#3D4C65"/>
<path d="M271.503 95.1301L271.019 102.198L279.4 105.961L274.586 108.351L278.054 112.681L253.636 115.077L271.503 95.1301Z" fill="#FFAA02"/>
<path d="M270.869 102.001L254.024 114.626L254.33 115.031L271.175 102.406L270.869 102.001Z" fill="#3D4C65"/>
<path d="M279.392 105.707L272.112 105.948L272.128 106.454L279.409 106.213L279.392 105.707Z" fill="#3D4C65"/>
<path d="M272.008 105.97L254.07 114.606L254.292 115.062L272.23 106.426L272.008 105.97Z" fill="#3D4C65"/>
<path d="M272.288 106.008L271.952 106.39L274.418 108.542L274.754 108.16L272.288 106.008Z" fill="#3D4C65"/>
<path d="M235.843 211.592C239.841 209.693 241.535 204.927 239.627 200.948C237.719 196.969 232.931 195.283 228.933 197.182C224.935 199.081 223.241 203.846 225.149 207.825C227.057 211.805 231.845 213.491 235.843 211.592Z" fill="#EBBE00"/>
<path d="M230.024 201.467L229.564 201.685L231.388 205.488L231.848 205.27L230.024 201.467Z" fill="#3D4C65"/>
<path d="M232.404 200.336L231.945 200.554L233.768 204.358L234.228 204.139L232.404 200.336Z" fill="#3D4C65"/>
<path d="M232.871 209.053C230.172 209.053 228.778 206.141 228.762 206.106L229.223 205.893C229.292 206.04 230.948 209.474 234.165 208.304C235.092 207.968 235.717 207.421 236.022 206.679C236.638 205.184 235.78 203.354 235.772 203.336L236.231 203.118C236.271 203.201 237.194 205.164 236.495 206.868C236.133 207.749 235.408 208.392 234.34 208.78C233.814 208.971 233.324 209.053 232.871 209.053Z" fill="#3D4C65"/>
<path d="M40.2839 98.0215C40.2839 98.0215 67.6273 87.493 69.1845 88.8762C70.7417 90.2594 85.0158 133.25 83.8607 134.084C82.7056 134.918 56.8142 143.662 55.102 143.975C53.3898 144.287 38.0438 98.8733 40.2839 98.0215Z" fill="#B7EFF9"/>
<path d="M43.8649 99.04C43.8649 99.04 65.0993 90.9917 66.3018 92.0317C67.5044 93.0717 78.4243 125.511 77.526 126.145C76.6276 126.779 56.5249 133.474 55.1965 133.716C53.868 133.957 42.1252 99.6913 43.8649 99.04Z" fill="#3D4C65"/>
<path d="M68.652 136.559C70.2169 136.297 71.2723 134.822 71.0094 133.264C70.7464 131.707 69.2646 130.656 67.6997 130.918C66.1348 131.18 65.0793 132.655 65.3423 134.212C65.6052 135.77 67.087 136.82 68.652 136.559Z" fill="#798B97"/>
<path d="M46.5399 102.531C46.5399 102.531 58.3588 97.9502 59.2291 98.0585C60.0993 98.1668 60.8422 101.307 60.634 101.631C60.4257 101.956 47.9158 105.907 47.4807 106.043C47.0455 106.179 45.6732 102.865 46.5399 102.531Z" fill="#87BECA"/>
<path d="M59.2765 117.376C59.2765 117.376 71.5487 112.75 72.4189 112.859C73.2892 112.967 74.0522 115.968 73.844 116.293C73.6357 116.618 61.3931 121.001 60.597 120.997C60.141 120.995 58.4098 117.71 59.2765 117.376Z" fill="#87BECA"/>
<path d="M47.9159 107.421C47.9159 107.421 56.0745 104.555 56.9448 104.663C57.815 104.771 58.67 107.382 58.4617 107.707C58.2534 108.032 49.7652 110.615 49.33 110.75C48.8949 110.886 47.469 107.707 47.9159 107.421Z" fill="#87BECA"/>
<path d="M64.6286 120.96C64.6286 120.96 73.2049 117.943 74.0751 118.051C74.9454 118.159 75.8004 120.771 75.5921 121.096C75.3838 121.42 66.9163 124.143 65.3021 124.569C64.8613 124.685 63.7619 121.294 64.6286 120.96Z" fill="#87BECA"/>
<path d="M50.0919 112.474C50.0919 112.474 58.2505 109.607 59.1208 109.715C59.991 109.824 60.8461 112.435 60.6378 112.76C60.4295 113.085 51.5061 115.803 51.071 115.939C50.6358 116.074 49.2252 112.808 50.0919 112.474Z" fill="#87BECA"/>
<path d="M72.2631 81.6791C72.2631 81.6791 62.1624 77.8736 57.997 86.7801C54.6525 93.931 59.4715 99.9307 66.6655 101.954C65.8087 103.008 64.7205 104.398 64.658 104.727C64.5541 105.275 74.1539 104.596 77.2103 100.672C77.2108 100.671 77.211 100.67 77.2116 100.67C82.0976 96.1689 82.4086 85.4061 72.2631 81.6791Z" fill="white"/>
<path d="M67.3055 97.5437C67.3055 97.5437 62.3306 86.8381 65.7388 85.5211C69.1469 84.204 69.556 91.0045 69.556 91.0045C69.556 91.0045 71.9221 86.3063 73.7746 86.7841C77.8014 87.8225 72.0258 95.2765 67.3055 97.5437Z" fill="#D53D3D"/>
<path d="M140.947 53.4089C140.947 53.4089 142.682 49.0533 141.125 43.2059C139.69 37.8158 138.369 27.392 149.194 25.3435C160.019 23.295 162.336 33.2966 160.995 39.0196C159.814 44.0609 152.775 51.9718 152.245 56.0227L140.947 53.4089Z" fill="#EBBE00"/>
<path d="M140.533 50.2657C140.533 50.2657 153.915 52.8665 153.915 53.3617C153.916 53.857 152.773 61.2498 151.98 61.6467C151.188 62.0435 138.964 58.9832 138.598 58.5506C138.233 58.118 139.445 50.0514 140.533 50.2657Z" fill="#3D4C65"/>
<path d="M142.985 55.814C142.985 55.814 149.147 56.832 149.108 57.2304C149.068 57.6288 147.924 63.6691 147.514 64.052C147.105 64.4349 141.531 62.9543 141.392 62.6356C141.253 62.3168 142.484 55.729 142.985 55.814Z" fill="#3D4C65"/>
<path d="M149.793 53.4185C149.478 52.3245 151.029 49.4577 152.825 46.1383C154.654 42.7571 156.93 38.5488 156.352 37.3183C156.082 36.7438 155.799 36.7913 155.708 36.8071C155.371 36.8623 154.989 37.2268 154.66 37.7073C155.247 38.7181 155.313 39.8061 154.998 40.3695C154.759 40.7944 154.335 40.9337 153.866 40.7444C153.643 40.6548 153.283 40.3814 153.375 39.5589C153.435 39.022 153.694 38.3222 154.061 37.7083C153.834 37.3844 153.543 37.0751 153.181 36.8103C152.778 36.5164 152.379 36.4642 151.992 36.653C151.793 36.7502 151.604 36.9098 151.434 37.112C152.135 39.0648 152.432 40.3507 151.949 40.7657C151.722 40.9601 151.391 40.9396 150.966 40.7048C150.448 40.419 150.174 39.8308 150.194 39.0487C150.21 38.3996 150.451 37.6279 150.861 37.0273C150.801 36.8625 150.737 36.6901 150.669 36.5095C150.583 36.2806 150.439 36.1677 150.215 36.1549C149.755 36.1314 149.064 36.5213 148.486 37.0753C148.607 37.4953 148.664 37.9325 148.668 38.3296C148.676 39.0789 148.504 39.9439 147.996 40.125C147.807 40.1928 147.512 40.1894 147.185 39.7848C146.812 39.3241 146.817 38.6637 147.199 37.9258C147.372 37.592 147.619 37.2505 147.908 36.9368C147.697 36.3835 147.343 35.9124 146.798 35.731C146.749 35.7147 146.69 35.7075 146.603 35.7671C145.585 36.4696 144.782 42.2595 144.455 51.2551C144.449 51.4142 144.445 51.5176 144.443 51.5567L143.935 51.5295L143.946 51.2368C144.188 44.5673 144.796 36.3974 146.313 35.3507C146.514 35.2116 146.738 35.1765 146.96 35.2505C147.596 35.4623 148.027 35.9621 148.296 36.5557C148.917 36.0034 149.648 35.614 150.245 35.6489C150.669 35.6736 150.99 35.9161 151.146 36.3318C151.177 36.4144 151.208 36.4961 151.238 36.5768C151.399 36.4211 151.576 36.2917 151.768 36.1982C152.16 36.0067 152.777 35.8854 153.482 36.4021C153.833 36.6582 154.124 36.9506 154.361 37.2599C154.737 36.7589 155.181 36.3798 155.625 36.307C155.971 36.2504 156.456 36.3432 156.813 37.1036C157.499 38.5649 155.446 42.3602 153.273 46.3783C151.676 49.3305 150.025 52.3832 150.282 53.2789L149.793 53.4185ZM151.081 37.6464C150.858 38.0748 150.715 38.5785 150.703 39.0615C150.694 39.3998 150.749 40.0058 151.213 40.2619C151.483 40.4108 151.598 40.399 151.616 40.3819C151.767 40.2525 151.773 39.6517 151.081 37.6464ZM154.358 38.2111C154.11 38.6825 153.928 39.1942 153.881 39.6148C153.862 39.7843 153.842 40.1879 154.057 40.2747C154.288 40.368 154.442 40.3215 154.553 40.1226C154.773 39.7294 154.73 38.9715 154.358 38.2111ZM148.074 37.5222C147.908 37.7269 147.764 37.9416 147.652 38.1576C147.451 38.5461 147.275 39.0885 147.582 39.4671C147.706 39.6208 147.797 39.6581 147.824 39.6482C147.942 39.6062 148.168 39.165 148.159 38.3353C148.156 38.0762 148.129 37.7979 148.074 37.5222Z" fill="#3D4C65"/>
<path d="M168.119 24.5208L163.948 27.2464L164.227 27.6701L168.399 24.9444L168.119 24.5208Z" fill="#3D4C65"/>
<path d="M171.223 32.0112L166.249 32.4088L166.29 32.9141L171.264 32.5165L171.223 32.0112Z" fill="#3D4C65"/>
<path d="M166.026 37.6074L165.855 38.085L170.556 39.751L170.727 39.2734L166.026 37.6074Z" fill="#3D4C65"/>
<path d="M165.547 43.8086L165.384 44.2887L170.112 45.877L170.275 45.3969L165.547 43.8086Z" fill="#3D4C65"/>
<path d="M162.994 48.0264L162.68 48.4246L166.603 51.4936L166.917 51.0954L162.994 48.0264Z" fill="#3D4C65"/>
<path d="M159.514 52.4434L159.049 52.6493L161.076 57.1871L161.542 56.9812L159.514 52.4434Z" fill="#3D4C65"/>
<path d="M162.708 19.5244L160.208 23.8223L160.649 24.0762L163.149 19.7783L162.708 19.5244Z" fill="#3D4C65"/>
<path d="M142.793 18.2969L142.342 18.5336L144.672 22.9254L145.122 22.6887L142.793 18.2969Z" fill="#3D4C65"/>
<path d="M136.441 23.3679L136.161 23.7905L140.325 26.5277L140.605 26.1051L136.441 23.3679Z" fill="#3D4C65"/>
<path d="M133.356 29.9675L133.274 30.4678L138.199 31.2655L138.281 30.7652L133.356 29.9675Z" fill="#3D4C65"/>
<path d="M130.783 35.5479L130.693 36.0466L135.604 36.9258L135.694 36.4271L130.783 35.5479Z" fill="#3D4C65"/>
<path d="M135.886 41.3467L130.962 42.1522L131.045 42.652L135.968 41.8466L135.886 41.3467Z" fill="#3D4C65"/>
<path d="M136.793 46.8872L132.818 49.8887L133.125 50.2926L137.101 47.291L136.793 46.8872Z" fill="#3D4C65"/>
<path d="M149.953 16.5195L149.444 16.5303L149.55 21.4957L150.059 21.4849L149.953 16.5195Z" fill="#3D4C65"/>
<path d="M155.445 16.5496L154.85 21.2814L155.356 21.3443L155.95 16.6124L155.445 16.5496Z" fill="#3D4C65"/>
<path d="M99.1462 93.5525C104.321 93.5525 108.516 89.3772 108.516 84.2268C108.516 79.0763 104.321 74.9011 99.1462 74.9011C93.9712 74.9011 89.7765 79.0763 89.7765 84.2268C89.7765 89.3772 93.9712 93.5525 99.1462 93.5525Z" fill="white"/>
<path d="M99.1742 85.8911L94.4042 80.6627L94.7812 80.3223L99.1192 85.0771L103.008 79.4575L103.427 79.745L99.1742 85.8911Z" fill="#3D4C65"/>
<path d="M99.1461 96.7047C92.0831 96.7047 86.3376 90.9859 86.3376 83.9564C86.3376 76.9269 92.0831 71.2078 99.1461 71.2078C106.209 71.2078 111.955 76.9269 111.955 83.9564C111.955 90.9859 106.209 96.7047 99.1461 96.7047ZM99.1461 71.7146C92.3642 71.7146 86.8468 77.2063 86.8468 83.9564C86.8468 90.7066 92.3642 96.198 99.1461 96.198C105.928 96.198 111.446 90.7066 111.446 83.9564C111.446 77.2063 105.928 71.7146 99.1461 71.7146Z" fill="#3D4C65"/>
<path d="M170.56 83.9247C170.56 83.9247 165.028 72.0013 167.816 70.289C170.604 68.5768 172.206 76.3531 172.206 76.3531C172.206 76.3531 175.237 69.0714 177.91 72.67C179.724 75.1114 170.56 83.9247 170.56 83.9247Z" fill="#D53D3D"/>
<path d="M70.8303 209.876C70.8303 209.876 59.2527 203.575 60.4681 200.547C61.6835 197.52 67.6226 202.818 67.6226 202.818C67.6226 202.818 65.7017 195.171 70.0024 196.478C72.9202 197.364 70.8303 209.876 70.8303 209.876Z" fill="white"/>
<path d="M31.4531 76.9811L31.0459 74.1782L33.3118 75.7214L35.389 74.1782L34.7104 76.8686L36.7461 78.2603L34.2619 78.7061L33.0522 81.352L32.1314 78.7061H29.553L31.4531 76.9811Z" fill="#D53D3D"/>
<path d="M62.4294 175.323L62.0223 172.52L64.2881 174.063L66.3653 172.52L65.6867 175.21L67.7225 176.602L65.2382 177.048L64.0286 179.694L63.1077 177.048H60.5294L62.4294 175.323Z" fill="white"/>
<path d="M245.749 150.315L248.311 149.082L247.517 151.698L249.622 153.203L246.84 153.372L246.122 155.723L244.945 153.501L242.045 153.152L244.301 151.479L243.523 149.033L245.749 150.315Z" fill="#D53D3D"/>
<path d="M121.672 39.9129L124.234 38.6802L123.44 41.2961L125.545 42.801L122.763 42.9695L122.045 45.3214L120.868 43.0988L117.968 42.75L120.224 41.0773L119.446 38.6309L121.672 39.9129Z" fill="white"/>
<path d="M283.586 102.743L283.219 102.392C283.573 102.025 283.919 101.645 284.246 101.262L284.634 101.59C284.3 101.981 283.947 102.369 283.586 102.743ZM286.196 99.5575L285.775 99.2715C286.25 98.5804 286.69 97.8601 287.083 97.1309L287.532 97.3704C287.13 98.1157 286.681 98.8516 286.196 99.5575ZM288.619 95.0494L288.146 94.8614C288.456 94.0881 288.724 93.2894 288.944 92.4874L289.435 92.6205C289.211 93.4408 288.936 94.2581 288.619 95.0494ZM289.969 90.1157L289.465 90.039C289.591 89.2222 289.673 88.3836 289.708 87.5463L290.218 87.5676C290.181 88.4235 290.097 89.2809 289.969 90.1157ZM289.683 85.0407C289.631 84.2207 289.538 83.3819 289.404 82.548L289.907 82.4684C290.043 83.3183 290.139 84.173 290.191 85.0091L289.683 85.0407ZM288.897 80.0897C288.697 79.2949 288.456 78.4838 288.184 77.6792L288.667 77.5173C288.943 78.3346 289.187 79.1586 289.391 79.966L288.897 80.0897ZM287.291 75.326C286.976 74.5728 286.623 73.8023 286.243 73.0362L286.699 72.8115C287.084 73.5875 287.442 74.3679 287.762 75.131L287.291 75.326ZM285.057 70.8107C284.655 70.1013 284.217 69.3739 283.755 68.6491L284.186 68.3779C284.651 69.1098 285.094 69.8445 285.501 70.5613L285.057 70.8107ZM282.351 66.5501C281.88 65.879 281.378 65.1931 280.857 64.5114L281.263 64.2051C281.787 64.892 282.294 65.5836 282.769 66.2601L282.351 66.5501ZM279.286 62.5297L279.172 62.3921C278.671 61.7854 278.149 61.1965 277.619 60.6415L277.988 60.2926C278.526 60.8565 279.056 61.4543 279.565 62.0702L279.68 62.21L279.286 62.5297ZM245.981 62.2642C245.887 62.2642 245.793 62.2568 245.698 62.2414L245.781 61.7411C246.547 61.868 247.229 61.2074 247.63 60.6576L248.042 60.9555C247.416 61.8116 246.704 62.2642 245.981 62.2642ZM243.638 60.5098C243.445 60.128 243.347 59.719 243.346 59.2939C243.346 58.8263 243.465 58.3403 243.7 57.8494L244.159 58.0671C243.958 58.4895 243.856 58.9022 243.856 59.2937C243.856 59.6389 243.936 59.9714 244.093 60.2822L243.638 60.5098ZM275.81 58.8908C275.179 58.3287 274.522 57.7937 273.859 57.3003L274.163 56.8945C274.839 57.3966 275.507 57.9412 276.149 58.5133L275.81 58.8908ZM249.204 58.6283L248.724 58.4605C248.98 57.7351 249.194 56.9235 249.361 56.048L249.861 56.1425C249.689 57.0427 249.469 57.8791 249.204 58.6283ZM245.678 56.1839L245.341 55.8038C245.94 55.278 246.654 54.7791 247.464 54.3209L247.716 54.7613C246.936 55.2025 246.25 55.6811 245.678 56.1839ZM271.772 55.8919C271.055 55.4547 270.311 55.0491 269.562 54.6868L269.785 54.2311C270.548 54.6005 271.306 55.014 272.038 55.4598L271.772 55.8919ZM267.246 53.7028C266.459 53.4138 265.65 53.1614 264.842 52.9525L264.97 52.4621C265.795 52.6749 266.62 52.9325 267.422 53.2272L267.246 53.7028ZM249.983 53.6941L249.939 53.5835L249.687 53.564C249.737 52.9159 249.763 52.2466 249.763 51.5746C249.763 51.4026 249.762 51.2296 249.758 51.0559L250.267 51.046C250.271 51.2232 250.272 51.3991 250.272 51.5746C250.272 52.0731 250.258 52.5705 250.231 53.0589C250.88 52.8226 251.557 52.6128 252.247 52.4337L252.375 52.9241C251.549 53.1386 250.744 53.3977 249.983 53.6941ZM262.375 52.4458C261.547 52.3186 260.704 52.2315 259.869 52.1875L259.896 51.6812C260.748 51.7265 261.608 51.8151 262.452 51.945L262.375 52.4458ZM254.843 52.423L254.768 51.9217C255.608 51.7963 256.47 51.7126 257.326 51.6728L257.35 52.179C256.51 52.2179 255.667 52.3 254.843 52.423ZM249.593 48.5513C249.499 47.718 249.366 46.8843 249.196 46.0735L249.694 45.9701C249.867 46.7965 250.003 47.646 250.099 48.4949L249.593 48.5513ZM248.562 43.6461C248.309 42.8429 248.014 42.0526 247.684 41.2974L248.152 41.0955C248.488 41.867 248.79 42.6744 249.049 43.4947L248.562 43.6461ZM246.553 39.0606L246.456 38.893C246.049 38.2074 245.63 37.5467 245.212 36.9299L245.634 36.6463C246.058 37.2718 246.482 37.9411 246.894 38.6357L246.995 38.8077L246.553 39.0606ZM243.719 34.9051C243.174 34.2268 242.613 33.5956 242.052 33.0287L242.415 32.6729C242.988 33.2522 243.561 33.8967 244.117 34.5883L243.719 34.9051ZM240.181 31.3672C239.49 30.8362 238.784 30.3836 238.083 30.0221L238.317 29.5722C239.045 29.9474 239.777 30.4165 240.492 30.9663L240.181 31.3672ZM235.766 29.1511C235.196 29.017 234.645 28.9492 234.129 28.9492C233.64 28.9492 233.362 29.0128 233.359 29.0133L233.24 28.5204C233.254 28.5174 233.572 28.4424 234.129 28.4424C234.685 28.4424 235.275 28.5149 235.884 28.6577L235.766 29.1511Z" fill="#3D4C65"/>
<path d="M47.8195 191.525C50.3859 191.525 52.4664 189.455 52.4664 186.9C52.4664 184.346 50.3859 182.275 47.8195 182.275C45.2531 182.275 43.1726 184.346 43.1726 186.9C43.1726 189.455 45.2531 191.525 47.8195 191.525Z" fill="white"/>
<path d="M47.918 189.422L44.8031 186.449L45.8602 185.352L47.7211 187.128L52.398 180.824L53.6266 181.727L47.918 189.422Z" fill="#87BECA"/>
<path d="M244.248 98.8251L243.965 98.4039C243.996 98.3836 247.035 96.3333 247.308 94.2727L247.813 94.339C247.509 96.627 244.381 98.7362 244.248 98.8251Z" fill="#3D4C65"/>
<path d="M246.776 101.054L246.427 100.684C246.443 100.67 248.014 99.1954 249.145 97.8579L249.535 98.1841C248.384 99.5445 246.792 101.039 246.776 101.054Z" fill="#3D4C65"/>
<path d="M226.431 139.587C226.431 139.587 253.657 169.658 230.116 182.631C210.628 193.369 185.57 160.823 183.073 158.589C180.577 156.355 192.719 141.96 194.853 141.923C196.987 141.885 214.997 170.764 222.054 165.79C232.272 158.589 223.177 151.562 223.177 151.562C223.177 151.562 224.805 140.024 226.431 139.587Z" fill="white"/>
<path d="M221.616 185.102C216.124 185.102 209.999 182.774 203.304 178.128C194.922 172.31 187.959 164.472 184.612 160.706C183.766 159.752 183.153 159.063 182.873 158.813C182.322 158.32 182.296 157.391 182.794 156.053C184.57 151.282 192.948 141.656 194.849 141.623C194.852 141.623 194.854 141.623 194.856 141.623C195.597 141.623 196.994 143.302 200.773 148.071C206.927 155.835 217.228 168.823 221.881 165.545C224.959 163.376 226.549 161.019 226.605 158.542C226.69 154.708 223.03 151.828 222.993 151.8L222.855 151.693L222.88 151.52C223.269 148.767 224.666 139.751 226.353 139.298L226.53 139.25L226.653 139.386C226.808 139.556 242.085 156.621 239.757 170.546C238.888 175.746 235.692 179.901 230.261 182.894C227.588 184.367 224.701 185.102 221.616 185.102ZM194.855 142.223C193.367 142.249 185.113 151.543 183.356 156.262C182.959 157.331 182.93 158.058 183.273 158.365C183.579 158.639 184.169 159.302 185.061 160.307C203.585 181.159 218.694 188.581 229.972 182.368C235.234 179.469 238.327 175.458 239.165 170.448C241.321 157.555 227.957 141.789 226.362 139.962C225.479 140.737 224.245 146.207 223.498 151.436C224.204 152.024 227.287 154.807 227.204 158.552C227.146 161.231 225.471 163.749 222.227 166.035C217.109 169.645 206.995 156.886 200.303 148.444C197.904 145.417 195.424 142.286 194.855 142.223Z" fill="#282425"/>
<path d="M130.545 94.5338C130.545 94.5338 136.282 115.863 130.324 122.584C124.366 129.304 105.187 127.006 108.761 152.378C112.336 177.75 113.004 199.359 113.004 199.359H171.727C171.727 199.359 180.976 143.61 171.046 131.121C161.116 118.633 148.418 128.826 149.213 118.993C150.007 109.16 146.83 91.7666 146.83 91.7666L130.545 94.5338Z" fill="white"/>
<path d="M171.981 199.659H112.713L112.704 199.368C112.697 199.153 111.995 177.484 108.464 152.42C105.866 133.976 115.266 129.922 122.818 126.665C125.722 125.413 128.464 124.23 130.1 122.385C135.883 115.862 130.313 94.8235 130.255 94.6121L130.17 94.2932L147.072 91.4211L147.125 91.7126C147.157 91.887 150.3 109.258 149.512 119.017C149.384 120.603 149.615 121.709 150.219 122.399C151.18 123.499 153.092 123.6 155.514 123.729C159.937 123.964 165.994 124.286 171.28 130.935C181.181 143.385 172.402 197.127 172.023 199.408L171.981 199.659ZM113.294 199.06H171.473C172.127 194.978 180.208 143.126 170.812 131.308C165.692 124.871 159.791 124.557 155.481 124.328C152.919 124.192 150.895 124.085 149.767 122.794C149.041 121.965 148.77 120.749 148.914 118.969C149.64 109.982 146.995 94.4329 146.587 92.1121L130.918 94.7747C131.638 97.5662 136.215 116.391 130.549 122.783C128.824 124.728 126.022 125.937 123.056 127.216C115.307 130.558 106.524 134.345 109.058 152.336C112.372 175.858 113.197 196.395 113.294 199.06Z" fill="#282425"/>
<path d="M127.043 124.683C127.043 124.683 133.999 143.273 147.47 139.587C156.805 137.032 152.469 123.344 154.725 123.582C156.981 123.82 164.414 122.744 171.727 129.721C179.04 136.697 179.617 199.359 177.345 199.359C175.073 199.359 112.582 199.573 110.628 199.359C108.674 199.146 105.19 139.349 107.913 133.943C110.636 128.538 106.85 127.766 127.043 124.683Z" fill="#8BC161"/>
<path d="M159.524 90.8624C159.524 90.8624 159.217 86.5778 156.622 86.4389C154.028 86.3 152.958 93.9576 156.425 95.1715C159.893 96.3854 159.588 91.3864 159.524 90.8624Z" fill="white"/>
<path d="M157.422 95.6619C157.086 95.6619 156.72 95.5931 156.326 95.4549C154.203 94.7117 153.592 91.7952 154.085 89.2991C154.477 87.3162 155.512 86.0667 156.638 86.139C159.445 86.2898 159.806 90.595 159.823 90.8367C159.844 91.0364 160.125 94.0755 158.687 95.2312C158.331 95.5179 157.907 95.6619 157.422 95.6619ZM156.554 86.7371C155.621 86.7371 154.938 88.0711 154.673 89.4153C154.241 91.6033 154.742 94.2649 156.524 94.8885C157.288 95.1565 157.874 95.116 158.312 94.7635C159.358 93.9217 159.3 91.5008 159.227 90.8987L159.226 90.8841C159.223 90.844 158.905 86.8616 156.606 86.7386C156.589 86.7376 156.571 86.7371 156.554 86.7371Z" fill="#282425"/>
<path d="M128.894 78.9047C128.894 78.9047 146.831 69.7757 152.457 77.9156C158.083 86.0555 158.728 116.601 144.39 115.397C130.052 114.192 118.783 82.6318 128.894 78.9047Z" fill="white"/>
<path d="M145.187 115.931C144.911 115.931 144.632 115.919 144.349 115.895C134.271 115.049 126.139 100.173 124.744 89.8807C123.928 83.8572 125.368 79.6922 128.693 78.4456C129.751 77.9109 147.117 69.3084 152.868 77.6316C156.894 83.4549 158.63 101.64 153.372 110.72C151.39 114.143 148.572 115.931 145.187 115.931ZM144.642 75.0408C137.708 75.0408 129.243 79.2884 129.121 79.3504L129.067 79.3738C126.2 80.431 124.985 84.2112 125.735 89.7464C127.084 99.7064 134.851 114.094 144.433 114.899C147.825 115.182 150.543 113.609 152.506 110.219C157.601 101.422 155.935 83.827 152.046 78.2C150.427 75.8572 147.681 75.0408 144.642 75.0408Z" fill="#282425"/>
<path d="M128.33 84.6881C128.33 84.6881 125.635 102.599 136.662 105.958C142.007 107.586 139.532 98.0546 147.272 98.5965C152.753 98.9801 152.216 104.912 154.787 100.292C157.359 95.6722 151.609 81.763 153.574 82.9804C155.539 84.1977 165.049 109.652 151.614 114.503C138.936 119.081 129.936 111.208 126.729 99.2188C123.522 87.229 125.559 81.905 128.33 84.6881Z" fill="#434784"/>
<path d="M146.409 97.5833C145.426 97.5833 144.032 97.4514 142.808 97.3083L142.868 96.8051C144.665 97.0154 146.764 97.1559 147.235 97.0386C147.204 96.4228 146.112 93.4473 145.018 90.7853L145.49 90.5933C148.09 96.9211 147.765 97.2594 147.642 97.3865C147.506 97.5283 147.043 97.5833 146.409 97.5833Z" fill="#CA6E70"/>
<path d="M128.108 87.1487C128.108 87.1487 127.023 79.6088 137.201 77.1234C149.248 74.1818 152.598 81.5536 154.457 89.6703C155.702 95.1026 158.298 84.7422 152.625 76.3986C146.029 66.6963 131.93 67.9692 126.604 72.6561C119.985 78.4808 119.118 91.6013 125.019 96.2369C130.92 100.873 127.253 90.1503 128.108 87.1487Z" fill="#434784"/>
<path d="M127.263 98.4521C127.263 98.4521 125.868 94.3872 123.324 94.9117C120.78 95.4362 121.708 103.112 125.372 103.405C129.036 103.699 127.459 98.9424 127.263 98.4521Z" fill="white"/>
<path d="M125.687 103.719C125.577 103.719 125.465 103.714 125.349 103.704C123.097 103.524 121.76 100.851 121.603 98.3035C121.479 96.2981 122.131 94.8518 123.264 94.6179C126.006 94.0491 127.464 98.1179 127.545 98.3504C127.616 98.5393 128.669 101.402 127.574 102.888C127.168 103.44 126.534 103.719 125.687 103.719ZM123.768 95.1658C123.644 95.1658 123.516 95.1785 123.385 95.2058C122.448 95.3987 122.116 96.8821 122.201 98.2669C122.339 100.5 123.506 102.955 125.396 103.107C126.2 103.166 126.759 102.983 127.092 102.532C127.889 101.45 127.21 99.1267 126.984 98.5637L126.979 98.5501C126.967 98.5139 125.789 95.1658 123.768 95.1658Z" fill="#282425"/>
<path d="M138.423 96.1316C139.015 95.9166 139.248 95.0659 138.943 94.2315C138.637 93.3971 137.909 92.895 137.316 93.11C136.724 93.325 136.491 94.1757 136.797 95.0101C137.102 95.8444 137.83 96.3465 138.423 96.1316Z" fill="#3D4C65"/>
<path d="M149.832 93.1517C150.434 92.9666 150.71 92.1286 150.447 91.28C150.184 90.4314 149.482 89.8936 148.879 90.0787C148.276 90.2638 148.001 91.1017 148.264 91.9503C148.527 92.7989 149.229 93.3368 149.832 93.1517Z" fill="#3D4C65"/>
<path d="M125.959 102.356L125.844 101.862C125.967 101.834 126.142 101.761 126.239 101.456C126.576 100.402 125.637 97.8964 124.715 96.8653C124.453 96.5723 124.219 96.4446 124.013 96.4817C123.673 96.5458 123.41 97.0627 123.345 97.2387L122.867 97.0635C122.903 96.9662 123.238 96.1118 123.919 95.9839C124.311 95.9094 124.707 96.0933 125.095 96.5283C126.042 97.5873 127.148 100.285 126.724 101.61C126.596 102.012 126.331 102.27 125.959 102.356Z" fill="#CA6E70"/>
<path d="M139.578 100.109C139.739 98.7819 138.789 97.5757 137.455 97.4152C136.121 97.2547 134.909 98.2007 134.748 99.5281C134.587 100.856 135.537 102.062 136.871 102.222C138.205 102.383 139.417 101.437 139.578 100.109Z" fill="#C05C5D"/>
<path d="M154.616 96.6327C154.777 95.3053 153.827 94.0991 152.493 93.9386C151.159 93.7782 149.947 94.7241 149.786 96.0516C149.625 97.379 150.575 98.5852 151.909 98.7457C153.243 98.9062 154.455 97.9602 154.616 96.6327Z" fill="#C05C5D"/>
<path d="M143.683 106.777C143.683 106.777 141.533 101.379 146.094 100.209C150.006 99.206 151.187 103.214 151.14 105.692C151.11 107.298 150.51 108.121 147.866 108.857C145.295 109.573 143.68 107.559 143.683 106.777Z" fill="white"/>
<path d="M146.798 109.509C145.666 109.509 144.846 109.039 144.401 108.7C143.713 108.174 143.238 107.457 143.188 106.88C143.005 106.383 142.148 103.816 143.164 101.819C143.697 100.77 144.641 100.066 145.97 99.7249C147.394 99.3602 148.613 99.5653 149.591 100.339C151.155 101.577 151.673 104.001 151.641 105.701C151.603 107.674 150.685 108.592 148 109.339C147.568 109.459 147.166 109.509 146.798 109.509ZM147.259 100.553C146.933 100.553 146.585 100.599 146.218 100.694C145.181 100.96 144.453 101.491 144.056 102.272C143.153 104.048 144.138 106.566 144.148 106.592L144.184 106.779C144.183 106.946 144.431 107.464 145.009 107.905C145.546 108.315 146.454 108.73 147.732 108.376C150.206 107.687 150.615 107.018 150.641 105.682C150.671 104.095 150.166 102.069 148.971 101.123C148.49 100.743 147.917 100.553 147.259 100.553Z" fill="#282425"/>
<path d="M147.435 105.533C147.326 105.533 147.205 105.515 147.072 105.472C145.189 104.867 144.22 102.589 144.18 102.493L144.651 102.298C144.659 102.32 145.571 104.457 147.229 104.99C147.486 105.072 147.621 104.996 147.701 104.932C148.304 104.447 148.327 102.315 148.201 101.086L148.707 101.034C148.744 101.387 149.034 104.511 148.021 105.326C147.892 105.43 147.698 105.533 147.435 105.533Z" fill="#CA6E70"/>
<path d="M138.303 89.0097C138.655 89.706 137.375 89.4738 136.23 90.0464C135.085 90.619 134.509 91.7795 134.157 91.0831C133.806 90.3868 134.449 89.3582 135.594 88.7856C136.739 88.213 137.952 88.3133 138.303 89.0097Z" fill="#3D4C65"/>
<path d="M151.375 87.5749C151.419 88.3529 150.338 87.633 149.059 87.7046C147.78 87.7762 146.787 88.6124 146.743 87.8343C146.699 87.0563 147.7 86.3674 148.979 86.2958C150.258 86.2242 151.331 86.7968 151.375 87.5749Z" fill="#3D4C65"/>
<path d="M133.746 78.3364C133.746 78.3364 128.848 80.48 129.558 85.177C129.93 87.6328 134.946 92.1785 128.447 95.4757C128.447 95.4757 121.121 82.3226 133.746 78.3364Z" fill="#434784"/>
<path d="M141.676 76.472C141.676 76.472 148.26 76.137 149.9 80.1119C150.945 82.6432 151.766 88.28 154.011 87.8647C156.943 87.3225 156.292 72.7906 141.676 76.472Z" fill="#434784"/>
<path d="M219.395 166.291C219.395 166.291 211.651 179.294 210.061 181.787C210.061 181.787 199.257 174.927 192.535 167.315L205.595 154.184C205.595 154.184 212.379 162.997 219.395 166.291Z" fill="#C05C5D"/>
<path d="M208.427 149.576C194.51 129.559 169.477 125.277 160.541 124.1C161.668 135.612 162.202 197.906 162.202 197.906C162.202 197.906 173.17 202.082 175.451 199.359C177.45 196.972 180.378 171.219 178.441 157.405C183.548 163.351 190.194 169.708 192.535 168.68C192.535 168.68 211.987 154.697 208.427 149.576Z" fill="#30BFAE"/>
<path d="M172.462 200.569C168.412 200.569 162.434 198.316 162.096 198.187L161.904 198.114L161.902 197.909C161.896 197.286 161.355 135.496 160.242 124.13L160.206 123.754L160.58 123.803C175.792 125.806 196.484 131.874 208.673 149.405C212.359 154.708 193.515 168.346 192.71 168.924C189.722 170.246 181.658 161.526 178.866 158.351C180.551 172.47 177.639 197.215 175.682 199.552C175.062 200.292 173.88 200.569 172.462 200.569ZM162.5 197.698C165.637 198.866 173.497 201.221 175.222 199.167C177.18 196.827 180.08 171.254 178.145 157.447L178.002 156.433L178.669 157.21C184.997 164.58 190.667 169.18 192.414 168.406C197.704 164.595 210.963 153.749 208.181 149.748C196.216 132.539 175.931 126.485 160.875 124.448C161.935 136.396 162.465 193.781 162.5 197.698Z" fill="#282425"/>
<path d="M192.742 137.48C192.742 137.48 210.067 136.291 210.515 136.588C210.963 136.885 212.756 156.061 212.308 156.358C211.859 156.656 194.803 157.399 194.803 157.399C194.803 157.399 191.722 137.549 192.742 137.48Z" fill="#D53D3D"/>
<path d="M194.977 138.91L210.061 138.018C210.061 138.018 206.789 141.139 203.347 141.288C199.905 141.437 193.917 138.972 194.977 138.91Z" fill="#3D4C65"/>
<path d="M210.061 139.656C210.061 139.656 216.675 139.22 217.628 141.294C218.58 143.369 219.924 151.726 219.178 152.378C218.431 153.031 212.336 154.205 212.336 154.205L211.262 152.378C211.262 152.378 217.317 150.801 217.052 150.355C216.788 149.91 215.593 142.328 215.593 142.328L210.061 143.22V139.656Z" fill="#D53D3D"/>
<path d="M230.116 150.068C230.116 150.068 229.118 141.522 226.431 139.587C223.745 137.652 217.227 137.489 214.865 135.896C212.503 134.303 215.142 140.426 220.263 141.296C224.127 141.953 214.926 141.322 214.416 143.916C213.906 146.51 213.815 152.686 217.523 151.39C222.891 149.514 227.506 155.432 230.116 150.068Z" fill="white"/>
<path d="M223.484 151.339C222.342 151.014 221.123 150.707 219.834 150.707C219.054 150.707 218.249 150.819 217.425 151.107C216.659 151.373 216.062 151.309 215.598 150.906C214.286 149.77 214.293 146.098 214.71 143.974C214.976 142.623 218.431 142.236 220.091 142.05C221.256 141.919 221.498 141.891 221.508 141.554C221.517 141.222 221.208 141.153 220.313 141C217.334 140.494 215.348 138.201 214.644 136.925C214.31 136.321 214.268 135.967 214.243 135.933C214.245 135.933 214.362 135.919 214.697 136.145C215.861 136.93 217.914 137.365 220.087 137.827C222.447 138.328 224.889 138.846 226.255 139.831C226.848 140.258 227.357 141.04 227.79 141.987C228.113 142.224 228.47 142.551 228.833 142.994C228.27 141.422 227.541 140.017 226.606 139.344C225.137 138.285 222.633 137.754 220.211 137.24C218.097 136.791 216.1 136.367 215.033 135.648C214.855 135.528 214.316 135.165 213.935 135.424C213.78 135.529 213.619 135.758 213.728 136.254C214.045 137.717 216.35 140.68 219.709 141.488C217.614 141.728 214.455 142.163 214.122 143.859C213.695 146.026 213.613 149.98 215.204 151.36C215.836 151.906 216.648 152.014 217.622 151.674C219.829 150.902 221.95 151.515 223.822 152.058C223.99 152.106 224.156 152.153 224.322 152.2C224.087 151.942 223.801 151.644 223.484 151.339Z" fill="#282425"/>
<path d="M214.208 146.222L213.902 145.816C215.435 144.675 219.817 143.835 220.002 143.8L220.098 144.298C220.053 144.306 215.646 145.151 214.208 146.222Z" fill="#282425"/>
<path d="M214.255 149.786L213.971 149.366C216.928 147.379 220.967 147.292 221.138 147.289L221.146 147.795C221.106 147.796 217.085 147.885 214.255 149.786Z" fill="#282425"/>
<path d="M179.311 97.7708C179.311 97.7708 169.779 114.053 186.677 115.446C203.574 116.838 214.934 117.353 212.027 123.579C209.12 129.805 197.409 134.42 203.01 139.587C203.01 139.587 195.627 138.166 201.992 129.805C208.356 121.443 196.9 130.565 181.371 117.643C165.842 104.721 174.705 103.996 179.311 97.7708Z" fill="white"/>
<path d="M214.186 206.574C214.186 206.574 151.437 209.188 149.807 208.752C148.178 208.316 133.101 192.197 134.324 192.197C135.546 192.197 151.03 192.197 151.03 192.197C151.03 192.197 153.882 163.008 155.512 162.572C157.142 162.136 219.076 161.701 220.298 162.572C221.521 163.443 214.186 206.574 214.186 206.574Z" fill="#B7EFF9"/>
<path d="M151.262 209.291C150.37 209.291 149.821 209.274 149.679 209.236C148.513 208.924 133.542 193.842 133.759 192.188L133.816 191.753L134.324 191.698H150.577C151.892 178.318 153.777 162.518 155.383 162.09C156.403 161.817 175.483 161.626 188.057 161.582C219.612 161.476 220.348 161.994 220.588 162.165C221.017 162.47 221.604 162.888 218.195 184.976C216.533 195.747 214.698 206.55 214.68 206.658L214.611 207.057L214.207 207.074C208.332 207.319 160.702 209.291 151.262 209.291ZM135.028 192.698C137.036 195.618 148.648 207.834 149.941 208.271C151.618 208.58 196.185 206.823 213.762 206.092C216.528 189.79 220.349 165.465 219.918 162.959C216.813 162.387 159.506 162.425 155.719 163.041C154.716 164.409 152.82 179.013 151.528 192.246L151.483 192.698H135.028Z" fill="#282425"/>
<path d="M149.887 204.551C149.887 204.551 140.095 193.94 141.318 193.94C142.54 193.94 150.282 193.94 150.282 193.94L149.887 204.551Z" fill="#3D4C65"/>
<path d="M141.477 196.665C140.816 194.143 139.039 192.352 139.021 192.335L139.381 191.976C139.458 192.053 141.275 193.883 141.97 196.538L141.477 196.665Z" fill="#3D4C65"/>
<path d="M140.147 197.215L139.64 197.166C139.705 196.486 137.963 194.602 136.849 193.574L137.196 193.202C137.707 193.675 140.255 196.087 140.147 197.215Z" fill="#3D4C65"/>
<path d="M123.844 125.185C123.844 125.185 123.576 125.163 123.107 125.207C100.301 126.062 73.774 158.495 75.5345 165C76.8105 169.715 99.5972 179.552 99.5972 179.552C102.35 176.327 104.992 173.39 107.428 170.735C107.927 184.275 109.336 197.817 110.628 199.359C112.909 202.082 130.324 199.037 130.324 199.037C130.324 199.037 122.717 136.697 123.844 125.185Z" fill="#30BFAE"/>
<path d="M116.243 200.799C113.469 200.799 111.176 200.481 110.398 199.552C108.98 197.86 107.651 184.088 107.155 171.476C104.393 174.498 102.052 177.139 99.8252 179.747L99.6807 179.916L99.4776 179.828C98.542 179.424 76.544 169.878 75.2442 165.079C74.6944 163.043 76.708 158.646 80.6319 153.316C90.4092 140.034 107.868 125.478 123.096 124.908C123.571 124.863 123.856 124.885 123.868 124.887L124.172 124.911L124.143 125.215C123.031 136.563 130.546 198.378 130.622 199.001L130.656 199.284L130.376 199.333C129.179 199.542 121.759 200.799 116.243 200.799ZM107.7 169.994L107.728 170.724C108.244 184.733 109.678 197.758 110.857 199.167C112.605 201.25 124.995 199.645 129.992 198.79C129.441 194.242 122.599 137.267 123.517 125.482C123.413 125.485 123.285 125.492 123.136 125.506C107.069 126.109 89.2061 142.68 81.1143 153.672C77.3555 158.779 75.3282 163.09 75.8242 164.922C76.9854 169.214 97.252 178.199 99.5127 179.189C101.833 176.476 104.282 173.72 107.207 170.533L107.7 169.994Z" fill="#282425"/>
<path d="M184.711 189.017C187.052 189.017 188.949 187.128 188.949 184.798C188.949 182.468 187.052 180.579 184.711 180.579C182.369 180.579 180.472 182.468 180.472 184.798C180.472 187.128 182.369 189.017 184.711 189.017Z" fill="#798B97"/>
<path d="M108.056 168.014C106.476 154.049 108.245 136.688 108.263 136.514L108.77 136.567C108.751 136.74 106.988 154.048 108.562 167.958L108.056 168.014Z" fill="#334054"/>
<path d="M177.064 152.392C176.531 142.758 174.472 131.281 174.451 131.166L174.952 131.076C174.973 131.192 177.038 142.699 177.572 152.364L177.064 152.392Z" fill="#334054"/>
<path d="M122.897 94.2517C114.889 82.8234 125.35 73.5229 125.457 73.4304L125.792 73.812C125.689 73.9018 115.571 82.9105 123.315 93.9617L122.897 94.2517Z" fill="#434784"/>
<path d="M135.363 184.788C126.532 185.123 110.085 195.683 100.411 189.602C95.4585 186.489 95.3437 182.05 96.4082 178.456C91.716 176.308 82.8713 172.046 78.2197 168.447C76.6191 172.902 75.4534 178.303 75.5369 184.534C75.7915 203.538 93.8662 209.112 106.086 206.578C118.306 204.044 130.017 191.515 133.581 194.271C137.144 197.027 138.345 197.04 139.616 197.203C140.275 197.288 143.552 196.104 143.082 195.262C137.846 185.886 145.206 194.967 148.346 199.23C149.493 200.787 148.699 184.281 135.363 184.788Z" fill="white"/>
<path d="M148.604 195.355C147.966 192.711 145.12 184.123 135.352 184.489C132.238 184.607 128.189 185.979 123.901 187.431C115.866 190.154 106.759 193.238 100.57 189.348C98.1465 187.824 96.7071 185.839 96.292 183.446C96.0058 181.796 96.2354 180.115 96.686 178.583C96.5052 178.5 96.3215 178.416 96.1274 178.327C95.6433 179.951 95.3895 181.751 95.7002 183.546C96.1456 186.115 97.6768 188.237 100.252 189.856C106.683 193.9 115.933 190.765 124.094 188C128.339 186.561 132.349 185.203 135.375 185.088C141.373 184.865 144.568 188.163 146.216 190.973C148.129 194.235 148.531 197.722 148.406 198.807C146.711 196.518 142.022 190.352 141.146 190.932C140.847 191.123 140.538 191.323 142.82 195.409C142.826 195.419 142.844 195.451 142.78 195.544C142.349 196.182 140.116 196.979 139.654 196.906L139.444 196.88C138.276 196.737 137.068 196.589 133.765 194.034C131.835 192.539 128.152 194.872 123.058 198.1C118.193 201.182 112.139 205.017 106.025 206.284C98.1182 207.924 89.2842 206 83.5284 201.378C78.5909 197.415 75.9317 191.589 75.837 184.531C75.7547 178.401 76.9102 173.073 78.492 168.657C78.3188 168.527 78.1497 168.397 77.9874 168.268C76.3506 172.778 75.1529 178.248 75.2374 184.538C75.334 191.783 78.0713 197.768 83.1524 201.847C87.6495 205.457 93.9747 207.46 100.311 207.46C102.273 207.46 104.236 207.268 106.147 206.872C112.368 205.582 118.473 201.714 123.379 198.607C128.083 195.625 131.801 193.275 133.398 194.509C136.832 197.165 138.123 197.323 139.372 197.475L139.578 197.501C140.233 197.588 142.696 196.738 143.277 195.88C143.513 195.534 143.42 195.252 143.344 195.116C142.164 193.003 141.754 192.055 141.617 191.632C142.672 192.469 145.757 196.221 148.105 199.409C148.332 199.717 148.581 199.631 148.649 199.598C149.291 199.3 148.961 196.837 148.604 195.355Z" fill="#282425"/>
</svg>
