<svg width="1297" height="356" viewBox="0 0 1297 356" fill="none" xmlns="http://www.w3.org/2000/svg">
<g clip-path="url(#clip0)">
<path d="M543.329 65.254C556.142 66.1134 561.503 57.3506 567.523 46.0879C584.004 15.2534 620.708 18.2247 633.02 37.2116C641.74 50.6604 660.546 47.8939 675.759 42.6304C690.732 37.45 716.243 32.4731 736.562 38.6639C754.309 44.071 761.591 63.5785 777.77 62.3784C813.062 59.7606 830.854 94.6858 824.462 109.917C820.29 119.859 818.219 130.98 821.611 141.21C825.347 152.477 833.881 161.396 840.778 171.082C847.675 180.767 853.23 192.875 849.802 204.238C846.868 213.961 838.115 220.688 832.682 229.286C815.811 255.986 832.501 296.906 810.019 319.162C793.928 335.092 767.692 331.415 745.175 334.456C726.398 336.991 708.727 344.896 690.035 347.992C652.182 354.264 613.955 340.45 575.58 340.061C562.063 339.924 548.293 341.433 535.201 338.092C517.733 333.634 502.868 320.162 496.808 303.296C488.445 280.024 496.369 253.091 486.921 230.231C479.225 211.608 460.403 196.457 461.587 176.362C462.325 163.852 470.852 153.387 476.716 142.29C485.432 125.798 473.891 60.596 543.329 65.254ZM655.033 35.0442C651.665 35.0442 648.935 37.1406 648.935 39.7265C648.935 42.3125 651.673 44.1864 655.033 44.4089C665.983 45.134 665.983 40.6968 665.983 38.1107C665.983 33.9794 658.4 35.0442 655.033 35.0442ZM766.242 55.011C769.17 57.435 772.902 58.8861 776.709 59.0819C777.726 59.1341 778.833 59.0694 779.616 58.424C780.587 57.6251 780.691 55.9931 779.831 55.0784C779.29 54.503 778.501 54.2444 777.767 53.9457C776.515 53.4361 775.288 52.7059 774.579 51.5619C774.374 51.2296 774.197 50.8493 773.855 50.6567C771.736 49.4621 762.389 51.8217 766.242 55.011ZM784.895 59.1476C785.858 59.4812 786.915 59.1738 787.885 58.8582C788.507 58.6558 789.271 58.2097 789.104 57.5812C789.023 57.2784 788.739 57.0774 788.461 56.9286C787.184 56.2437 785.529 55.7392 784.245 56.615C782.962 57.4907 783.931 58.8141 784.895 59.1476ZM829.43 147.342C829.596 148.799 830.493 150.057 831.361 151.243C833.034 153.531 834.734 155.846 836.943 157.631C837.877 158.386 838.964 159.062 840.168 159.104C841.265 159.142 842.316 158.644 843.205 158.005C845.371 156.448 846.834 153.961 847.133 151.322C847.544 147.702 845.864 144.178 843.91 141.095C842.7 139.185 841.288 137.282 839.263 136.258C835.869 134.541 833.625 136.039 832.677 139.053C831.804 141.827 829.077 144.253 829.43 147.342ZM468.199 231.624C466.411 233.202 468.023 237.823 468.551 240.872C468.709 241.787 468.92 242.731 469.497 243.462C470.285 244.461 471.593 244.871 472.82 245.227C474.996 245.86 477.634 246.396 479.296 244.864C480.529 243.727 480.703 241.874 480.701 240.203C480.699 238.678 480.617 237.152 480.455 235.635C480.378 234.906 480.273 234.154 479.884 233.532C479.386 232.736 478.5 232.271 477.633 231.903C474.519 230.582 469.986 230.045 468.199 231.624ZM577.474 347.364C576.416 347.577 575.153 348.035 575.001 349.095C574.874 349.971 575.611 350.719 576.323 351.252C582.158 355.615 590.01 355.894 597.315 355.996C598.168 356.008 599.05 356.015 599.836 355.683C601.398 355.023 602.148 352.961 601.421 351.437C601.155 350.882 600.736 350.413 600.294 349.982C594.425 344.255 584.777 345.896 577.474 347.364ZM723.202 344.411C716.616 349.241 723.277 353.551 731.595 350.352C736.078 348.629 740.375 346.927 744.962 345.774C746.445 345.401 755.41 343.458 755.411 341.439C755.414 336.089 745.31 337.352 738.956 338.244C733.833 338.963 728.633 340.429 723.202 344.411Z" fill="#ECF6FF"/>
<path d="M477.376 267.147C477.376 267.147 507.496 279.599 507.41 282.211C507.325 284.823 490.291 316.326 490.291 316.326L459.873 301.473L477.376 267.147Z" fill="#EBBE00"/>
<path d="M500.4 287.612C498.601 285.671 498.558 285.682 496.355 286.293C494.965 286.678 494.287 286.706 493.861 286.42C493.453 286.143 493.402 285.682 493.349 285.194C493.289 284.651 493.221 284.036 492.714 283.373C491.268 281.484 489.765 281.419 487.236 281.481C485.256 281.508 484.838 280.803 484.15 279.608C483.805 279.01 483.376 278.265 482.607 277.354C480.536 274.902 477.395 276.285 477.262 276.344L476.912 275.582C476.951 275.564 480.764 273.873 483.249 276.815C484.067 277.783 484.517 278.564 484.878 279.191C485.518 280.302 485.742 280.688 487.217 280.643C489.945 280.58 491.727 280.701 493.382 282.866C494.031 283.714 494.12 284.517 494.184 285.103C494.214 285.381 494.246 285.668 494.333 285.726C494.435 285.794 494.791 285.857 496.053 285.508C498.561 284.815 498.95 284.813 501.017 287.044L500.4 287.612Z" fill="#3D4C65"/>
<path d="M491.064 309.511C489.266 307.571 489.224 307.582 487.019 308.192C485.629 308.578 484.952 308.606 484.526 308.319C484.117 308.043 484.067 307.582 484.013 307.093C483.954 306.551 483.886 305.936 483.379 305.272C481.933 303.384 480.429 303.32 477.901 303.379C475.915 303.414 475.503 302.701 474.814 301.507C474.47 300.909 474.041 300.164 473.271 299.253C471.19 296.789 467.959 298.228 467.927 298.242L467.577 297.482C467.616 297.465 471.428 295.772 473.914 298.714C474.732 299.683 475.181 300.464 475.543 301.09C476.182 302.201 476.395 302.579 477.882 302.542C480.614 302.481 482.39 302.602 484.047 304.764C484.696 305.613 484.784 306.416 484.849 307.003C484.879 307.28 484.91 307.567 484.997 307.626C485.098 307.694 485.457 307.757 486.717 307.407C489.225 306.714 489.614 306.712 491.681 308.944L491.064 309.511Z" fill="#3D4C65"/>
<path d="M496.47 294.565C495.058 293.041 495.059 293.04 494.191 293.512C493.95 293.643 493.661 293.801 493.295 293.972C492.092 294.533 491.39 294.663 490.87 294.422C490.323 294.171 490.163 293.581 489.994 292.957C489.838 292.387 489.662 291.739 489.189 291.121C487.758 289.252 486.739 289.11 484.188 289.162C482.192 289.186 481.79 288.484 481.101 287.29C480.757 286.692 480.328 285.947 479.559 285.036C477.48 282.574 474.247 284.009 474.214 284.025L473.865 283.263C473.902 283.245 477.715 281.553 480.201 284.497C481.02 285.466 481.469 286.246 481.83 286.873C482.47 287.984 482.675 288.364 484.17 288.325C486.923 288.264 488.204 288.454 489.857 290.613C490.43 291.361 490.638 292.125 490.804 292.738C490.926 293.187 491.032 293.574 491.223 293.663C491.395 293.745 491.833 293.729 492.939 293.213C493.285 293.052 493.559 292.902 493.788 292.777C495.15 292.037 495.439 292.218 497.088 293.998L496.47 294.565Z" fill="#3D4C65"/>
<path d="M491.43 301.489C490.297 301.489 489.002 301.15 487.886 299.986C487.009 299.071 486.511 298.32 486.111 297.717C485.403 296.648 485.163 296.292 483.685 296.414C480.962 296.646 479.182 296.637 477.393 294.581C476.816 293.918 476.542 293.436 476.343 293.084C475.999 292.477 475.928 292.35 474.365 292.131C472.391 291.854 471.781 291.843 471.488 291.838C471.171 291.833 471.084 291.819 470.592 291.654L470.859 290.861C471.265 290.997 471.274 290.997 471.503 291.001C471.813 291.007 472.458 291.018 474.482 291.302C476.366 291.566 476.604 291.842 477.075 292.672C477.267 293.011 477.506 293.433 478.028 294.033C479.589 295.829 481.092 295.793 483.614 295.58C485.587 295.407 486.05 296.105 486.812 297.255C487.193 297.83 487.668 298.547 488.494 299.408C490.714 301.725 493.763 300.151 493.892 300.082L494.288 300.82C494.267 300.832 493.006 301.489 491.43 301.489Z" fill="#3D4C65"/>
<path d="M872.205 169.778L856.141 197.513C856.141 197.513 892.268 219.81 894.023 221.093C895.779 222.376 912.084 195.83 911.612 194.27C911.141 192.71 872.205 169.778 872.205 169.778Z" fill="#B7EFF9"/>
<path d="M882.301 201.997C882.132 201.997 882.008 201.983 881.933 201.952C880.367 201.309 874.325 179.314 871.801 169.888L872.613 169.672C875.737 181.336 881.128 200.211 882.298 201.203C883.582 201.501 900.896 196.873 911.499 193.87L911.729 194.674C907.255 195.942 885.705 201.997 882.301 201.997Z" fill="#3D4C65"/>
<path d="M856.239 197.923L856.049 197.107C859.278 196.361 878.184 191.502 878.375 191.453L878.585 192.264C878.394 192.313 859.478 197.175 856.239 197.923Z" fill="#3D4C65"/>
<path d="M893.609 221.155C892.44 213.033 890.62 200.707 890.398 200.036L890.787 199.908L890.677 199.464L891.015 199.524C891.219 199.661 891.379 199.768 894.441 221.035L893.609 221.155Z" fill="#3D4C65"/>
<path d="M448.106 278.989L447.402 278.533C447.402 278.533 447.821 277.892 448.61 276.8L449.292 277.291C448.52 278.357 448.109 278.985 448.106 278.989Z" fill="#3D4C65"/>
<path d="M554.783 343.778C553.389 343.737 551.963 343.648 550.543 343.516L550.622 342.682C552.024 342.813 553.432 342.9 554.808 342.941L554.783 343.778ZM559.03 343.768L559.001 342.931C560.389 342.882 561.795 342.786 563.181 342.643L563.267 343.476C561.863 343.62 560.437 343.719 559.03 343.768ZM546.329 342.995C544.952 342.783 543.546 342.527 542.154 342.235L542.327 341.415C543.705 341.706 545.095 341.958 546.457 342.168L546.329 342.995ZM567.475 342.897L567.332 342.071C568.698 341.836 570.079 341.549 571.435 341.221L571.634 342.033C570.259 342.368 568.86 342.658 567.475 342.897ZM538.024 341.24C536.601 340.84 535.243 340.384 533.985 339.884L534.296 339.106C535.527 339.595 536.858 340.042 538.252 340.433L538.024 341.24ZM575.725 340.899L575.474 340.099C576.774 339.694 578.107 339.232 579.437 338.728L579.736 339.51C578.391 340.021 577.041 340.487 575.725 340.899ZM530.129 338.051C528.846 337.327 527.655 336.517 526.589 335.646L527.123 334.998C528.151 335.84 529.302 336.622 530.543 337.322L530.129 338.051ZM583.658 337.892L583.316 337.126C584.548 336.58 585.826 335.976 587.113 335.332L587.49 336.079C586.192 336.73 584.902 337.34 583.658 337.892ZM591.241 334.113L590.838 333.378C592.111 332.683 593.333 331.99 594.51 331.316L594.929 332.042C593.747 332.719 592.519 333.414 591.241 334.113ZM523.555 332.62C522.659 331.524 521.866 330.321 521.197 329.042L521.942 328.654C522.585 329.883 523.346 331.039 524.206 332.091L523.555 332.62ZM598.586 329.937L598.167 329.211C599.71 328.329 600.854 327.698 601.876 327.164L602.266 327.905C601.254 328.434 600.118 329.061 598.586 329.937ZM606.051 326.157L605.75 325.376C607.328 324.773 608.703 324.442 609.953 324.364L610.006 325.2C608.841 325.273 607.548 325.586 606.051 326.157ZM519.572 325.087C519.17 323.801 518.843 322.405 518.6 320.938L519.429 320.802C519.665 322.23 519.984 323.588 520.375 324.839L519.572 325.087ZM518.133 316.715C518.061 315.569 518.025 314.335 518.025 313.049L518.027 312.481L518.867 312.488L518.865 313.048C518.865 314.318 518.9 315.533 518.971 316.662L518.133 316.715ZM519.004 308.302L518.165 308.258C518.233 306.998 518.327 305.622 518.454 304.048L519.292 304.115C519.165 305.681 519.071 307.051 519.004 308.302ZM519.657 299.925L518.82 299.85L518.893 299.055C518.996 297.926 519.099 296.794 519.197 295.66L520.034 295.732C519.936 296.867 519.833 298.001 519.729 299.131L519.657 299.925ZM520.363 291.529L519.525 291.473C519.628 289.951 519.699 288.581 519.742 287.285L520.582 287.313C520.538 288.618 520.466 289.997 520.363 291.529ZM519.782 283.101C519.756 281.643 519.684 280.239 519.568 278.93L520.405 278.857C520.523 280.185 520.596 281.609 520.622 283.086L519.782 283.101ZM519.016 274.8C518.756 273.392 518.426 272.034 518.034 270.763L518.837 270.516C519.239 271.819 519.577 273.209 519.842 274.649L519.016 274.8ZM451.834 273.957L451.177 273.436C452.05 272.345 452.965 271.252 453.896 270.188L454.53 270.737C453.606 271.793 452.699 272.877 451.834 273.957ZM457.365 267.641L456.757 267.062C457.747 266.028 458.758 265.023 459.762 264.073L460.34 264.679C459.347 265.62 458.345 266.616 457.365 267.641ZM516.542 266.894C515.949 265.634 515.26 264.423 514.496 263.295L515.193 262.827C515.981 263.991 516.691 265.239 517.303 266.538L516.542 266.894ZM463.461 261.877L462.916 261.239C464.017 260.304 465.132 259.412 466.231 258.59L466.736 259.259C465.651 260.071 464.549 260.952 463.461 261.877ZM511.912 260.062C510.989 259.075 509.963 258.129 508.863 257.251L509.388 256.597C510.52 257.501 511.576 258.475 512.527 259.492L511.912 260.062ZM470.171 256.865L469.715 256.162C470.932 255.377 472.165 254.65 473.378 254.001L473.775 254.739C472.582 255.377 471.37 256.092 470.171 256.865ZM505.452 254.869C504.964 254.57 504.46 254.279 503.939 253.993C503.223 253.6 502.497 253.235 501.779 252.907L502.128 252.145C502.865 252.482 503.611 252.857 504.345 253.26C504.877 253.551 505.393 253.85 505.892 254.156L505.452 254.869ZM477.548 252.945L477.224 252.173C478.565 251.615 479.917 251.136 481.245 250.75L481.481 251.554C480.183 251.931 478.86 252.399 477.548 252.945ZM497.886 251.446C496.552 251.05 495.186 250.753 493.827 250.563L493.943 249.734C495.344 249.93 496.752 250.236 498.126 250.643L497.886 251.446ZM485.541 250.647L485.411 249.819C486.834 249.598 488.268 249.478 489.672 249.461L489.682 250.299C488.317 250.314 486.924 250.432 485.541 250.647Z" fill="#3D4C65"/>
<path d="M615.508 327.301C615.004 326.809 614.474 326.4 613.934 326.085L614.359 325.362C614.958 325.712 615.542 326.163 616.095 326.703L615.508 327.301Z" fill="#3D4C65"/>
<path d="M633.14 312.635L633.938 324.313L620.107 330.53L628.052 334.478L622.328 341.632L662.622 345.591L633.14 312.635Z" fill="#EBBE00"/>
<path d="M634.189 323.979L633.683 324.647L661.468 345.521L661.974 344.853L634.189 323.979Z" fill="#3D4C65"/>
<path d="M620.118 330.112L620.091 330.949L632.105 331.341L632.132 330.504L620.118 330.112Z" fill="#3D4C65"/>
<path d="M632.301 330.546L631.935 331.299L661.538 345.564L661.904 344.81L632.301 330.546Z" fill="#3D4C65"/>
<path d="M631.842 330.608L627.771 334.163L628.325 334.793L632.395 331.237L631.842 330.608Z" fill="#3D4C65"/>
<path d="M813.999 323.029C820.596 319.891 823.392 312.018 820.243 305.444C817.095 298.87 809.194 296.084 802.596 299.221C795.999 302.359 793.203 310.232 796.352 316.806C799.5 323.38 807.401 326.166 813.999 323.029Z" fill="#EBBE00"/>
<path d="M804.396 306.301L803.638 306.661L806.647 312.945L807.406 312.585L804.396 306.301Z" fill="#3D4C65"/>
<path d="M808.324 304.432L807.565 304.793L810.575 311.077L811.334 310.716L808.324 304.432Z" fill="#3D4C65"/>
<path d="M809.095 318.834C804.64 318.834 802.34 314.023 802.313 313.965L803.075 313.613C803.188 313.856 805.92 319.529 811.229 317.597C812.759 317.041 813.791 316.138 814.295 314.912C815.31 312.442 813.895 309.42 813.881 309.389L814.639 309.03C814.705 309.166 816.228 312.409 815.074 315.225C814.478 316.68 813.281 317.743 811.518 318.384C810.65 318.699 809.842 318.834 809.095 318.834Z" fill="#3D4C65"/>
<path d="M657.403 61.6902C657.403 61.6902 660.266 54.4942 657.697 44.8336C655.328 35.9284 653.149 18.707 671.012 15.3226C688.875 11.9383 692.7 28.4622 690.487 37.9172C688.538 46.2462 676.921 59.3159 676.047 66.0086L657.403 61.6902Z" fill="#EBBE00"/>
<path d="M656.721 56.4972C656.721 56.4972 678.802 60.7941 678.804 61.6123C678.805 62.4305 676.918 74.6444 675.61 75.3001C674.303 75.9557 654.13 70.8996 653.528 70.185C652.925 69.4703 654.924 56.1431 656.721 56.4972Z" fill="#3D4C65"/>
<path d="M660.767 65.6639C660.767 65.6639 670.935 67.3459 670.87 68.0041C670.804 68.6623 668.916 78.6415 668.241 79.2742C667.565 79.9068 658.367 77.4606 658.138 76.934C657.909 76.4075 659.94 65.5235 660.767 65.6639Z" fill="#3D4C65"/>
<path d="M672.001 61.7061C671.482 59.8988 674.041 55.1625 677.004 49.6784C680.022 44.0921 683.778 37.1396 682.824 35.1067C682.379 34.1574 681.912 34.2359 681.761 34.2621C681.206 34.3532 680.575 34.9554 680.032 35.7493C681.001 37.4192 681.11 39.2168 680.589 40.1476C680.196 40.8495 679.496 41.0797 678.722 40.7669C678.354 40.6189 677.76 40.1672 677.912 38.8084C678.01 37.9213 678.439 36.7652 679.043 35.7509C678.669 35.2158 678.189 34.7048 677.591 34.2674C676.927 33.7817 676.268 33.6955 675.629 34.0074C675.301 34.168 674.989 34.4317 674.708 34.7657C675.865 37.992 676.356 40.1165 675.558 40.8021C675.184 41.1234 674.638 41.0895 673.937 40.7015C673.082 40.2294 672.63 39.2576 672.662 37.9654C672.689 36.8931 673.086 35.6181 673.764 34.6259C673.664 34.3536 673.558 34.0687 673.447 33.7703C673.304 33.3921 673.066 33.2057 672.697 33.1845C671.939 33.1456 670.798 33.7899 669.844 34.7052C670.044 35.3989 670.137 36.1213 670.144 36.7774C670.157 38.0153 669.873 39.4445 669.036 39.7437C668.723 39.8557 668.237 39.85 667.697 39.1816C667.082 38.4204 667.09 37.3293 667.72 36.1103C668.005 35.5588 668.413 34.9946 668.89 34.4763C668.543 33.5622 667.958 32.7838 667.059 32.4842C666.977 32.4572 666.879 32.4454 666.737 32.5439C665.056 33.7045 663.731 43.27 663.192 58.132C663.182 58.3949 663.176 58.5657 663.172 58.6303L662.334 58.5854L662.352 58.1017C662.751 47.0829 663.754 33.5851 666.257 31.8559C666.59 31.6261 666.959 31.5681 667.325 31.6903C668.376 32.0402 669.086 32.866 669.53 33.8467C670.554 32.9343 671.761 32.2908 672.746 32.3485C673.447 32.3894 673.975 32.79 674.233 33.4768C674.285 33.6133 674.335 33.7482 674.385 33.8815C674.65 33.6243 674.943 33.4105 675.259 33.256C675.907 32.9396 676.924 32.7393 678.088 33.5929C678.667 34.016 679.148 34.4992 679.538 35.0102C680.159 34.1824 680.891 33.5561 681.625 33.4359C682.195 33.3423 682.995 33.4956 683.585 34.7518C684.717 37.1662 681.329 43.4364 677.743 50.0749C675.108 54.9523 672.383 59.9957 672.808 61.4756L672.001 61.7061ZM674.126 35.6487C673.759 36.3564 673.522 37.1887 673.503 37.9867C673.488 38.5455 673.579 39.5467 674.344 39.9698C674.79 40.2159 674.98 40.1962 675.009 40.168C675.258 39.9542 675.268 38.9617 674.126 35.6487ZM679.533 36.5816C679.124 37.3604 678.824 38.2058 678.746 38.9007C678.715 39.1808 678.682 39.8475 679.037 39.991C679.418 40.1451 679.673 40.0683 679.856 39.7396C680.219 39.09 680.147 37.8379 679.533 36.5816ZM669.165 35.4435C668.891 35.7816 668.652 36.1364 668.467 36.4933C668.136 37.1351 667.846 38.0312 668.352 38.6567C668.557 38.9106 668.708 38.9723 668.752 38.9559C668.945 38.8864 669.319 38.1575 669.304 36.7868C669.299 36.3588 669.256 35.8989 669.165 35.4435Z" fill="#3D4C65"/>
<path d="M702.242 13.9631L695.359 18.4663L695.82 19.1662L702.703 14.663L702.242 13.9631Z" fill="#3D4C65"/>
<path d="M707.365 26.3386L699.157 26.9955L699.224 27.8303L707.432 27.1734L707.365 26.3386Z" fill="#3D4C65"/>
<path d="M698.788 35.584L698.506 36.373L706.263 39.1255L706.545 38.3364L698.788 35.584Z" fill="#3D4C65"/>
<path d="M697.998 45.8293L697.729 46.6226L705.531 49.2467L705.8 48.4534L697.998 45.8293Z" fill="#3D4C65"/>
<path d="M693.785 52.7976L693.266 53.4554L699.74 58.5258L700.259 57.8679L693.785 52.7976Z" fill="#3D4C65"/>
<path d="M688.042 60.0949L687.274 60.4352L690.62 67.9322L691.388 67.5919L688.042 60.0949Z" fill="#3D4C65"/>
<path d="M693.313 5.70893L689.187 12.8096L689.914 13.229L694.04 6.12836L693.313 5.70893Z" fill="#3D4C65"/>
<path d="M660.449 3.68074L659.706 4.07178L663.55 11.3276L664.293 10.9366L660.449 3.68074Z" fill="#3D4C65"/>
<path d="M649.968 12.0585L649.505 12.7567L656.376 17.2789L656.839 16.5807L649.968 12.0585Z" fill="#3D4C65"/>
<path d="M644.876 22.9618L644.741 23.7883L652.869 25.1063L653.004 24.2798L644.876 22.9618Z" fill="#3D4C65"/>
<path d="M640.631 32.1815L640.483 33.0056L648.587 34.4581L648.735 33.634L640.631 32.1815Z" fill="#3D4C65"/>
<path d="M649.051 41.762L640.926 43.0927L641.063 43.9184L649.188 42.5877L649.051 41.762Z" fill="#3D4C65"/>
<path d="M650.549 50.9155L643.989 55.8744L644.496 56.5416L651.057 51.5826L650.549 50.9155Z" fill="#3D4C65"/>
<path d="M672.265 0.743984L671.424 0.761841L671.6 8.96526L672.44 8.9474L672.265 0.743984Z" fill="#3D4C65"/>
<path d="M681.327 0.793643L680.347 8.61133L681.18 8.71516L682.161 0.897479L681.327 0.793643Z" fill="#3D4C65"/>
<path d="M530.033 192.91C540.465 192.91 548.922 184.484 548.922 174.089C548.922 163.694 540.465 155.267 530.033 155.267C519.601 155.267 511.145 163.694 511.145 174.089C511.145 184.484 519.601 192.91 530.033 192.91Z" fill="white"/>
<path d="M530.088 177.448L520.473 166.895L521.233 166.208L529.978 175.805L537.818 164.463L538.663 165.043L530.088 177.448Z" fill="#3D4C65" stroke="#3D4C65" stroke-width="0.520468"/>
<path d="M530.033 199.272C515.796 199.272 504.212 187.73 504.212 173.543C504.212 159.355 515.796 147.813 530.033 147.813C544.271 147.813 555.855 159.355 555.855 173.543C555.855 187.73 544.271 199.272 530.033 199.272ZM530.033 148.836C516.361 148.836 505.239 159.919 505.239 173.543C505.239 187.166 516.361 198.249 530.033 198.249C543.705 198.249 554.828 187.166 554.828 173.543C554.828 159.919 543.705 148.836 530.033 148.836Z" fill="#3D4C65" stroke="#3D4C65" stroke-width="1.04094"/>
<path d="M823.358 169.707C823.358 169.707 814.229 150.008 818.83 147.179C823.43 144.35 826.073 157.197 826.073 157.197C826.073 157.197 831.076 145.167 835.487 151.113C838.48 155.146 823.358 169.707 823.358 169.707Z" fill="#D53D3D"/>
<path d="M541.698 320.194C541.698 320.194 522.593 309.784 524.598 304.782C526.604 299.78 536.405 308.533 536.405 308.533C536.405 308.533 533.235 295.9 540.332 298.059C545.147 299.523 541.698 320.194 541.698 320.194Z" fill="#30BFAE"/>
<path d="M462.588 200.327L461.916 195.696L465.655 198.246L469.083 195.696L467.963 200.141L471.322 202.44L467.223 203.177L465.227 207.548L463.707 203.177H459.452L462.588 200.327Z" fill="#D53D3D"/>
<path d="M523.88 233.631L523.208 229L526.947 231.55L530.375 229L529.255 233.445L532.615 235.744L528.515 236.481L526.519 240.852L524.999 236.481H520.745L523.88 233.631Z" fill="#8BC161"/>
<path d="M830.345 221.792L834.572 219.755L833.262 224.077L836.737 226.563L832.146 226.842L830.961 230.727L829.018 227.055L824.233 226.479L827.957 223.716L826.672 219.674L830.345 221.792Z" fill="#D53D3D"/>
<path d="M595.856 71.1179L600.084 69.0814L598.774 73.4032L602.248 75.8894L597.657 76.1678L596.472 80.0534L594.529 76.3815L589.745 75.8053L593.468 73.0418L592.183 69L595.856 71.1179Z" fill="#8BC161"/>
<path d="M503.726 289.876C507.961 289.876 511.394 286.455 511.394 282.235C511.394 278.015 507.961 274.594 503.726 274.594C499.491 274.594 496.058 278.015 496.058 282.235C496.058 286.455 499.491 289.876 503.726 289.876Z" fill="white"/>
<path d="M503.888 286.402L498.748 281.49L500.493 279.677L503.564 282.612L511.281 272.196L513.309 273.688L503.888 286.402Z" fill="#30BFAE"/>
<path d="M798.467 204.068L798.838 203.732L798.633 203.505L798.337 203.585C798.045 203.664 797.8 203.852 797.599 204.068C797.395 204.287 797.206 204.566 797.03 204.881C796.677 205.512 796.34 206.349 796.022 207.306C795.383 209.222 794.791 211.695 794.286 214.129C793.781 216.566 793.36 218.979 793.065 220.781C792.918 221.683 792.802 222.432 792.723 222.957C792.684 223.219 792.654 223.425 792.633 223.565L792.61 223.726L792.604 223.767L792.603 223.778L792.602 223.781L792.602 223.781C792.602 223.782 792.602 223.782 793.097 223.851L792.602 223.782L792.562 224.069L792.791 224.247L792.791 224.247L792.791 224.247L792.792 224.248L792.799 224.253L792.827 224.275C792.853 224.296 792.892 224.327 792.942 224.369C793.043 224.453 793.191 224.579 793.374 224.745C793.741 225.076 794.249 225.563 794.807 226.185C795.926 227.433 797.233 229.203 798.026 231.319C798.816 233.428 799.094 235.872 798.175 238.502C797.255 241.138 795.113 244.017 790.956 246.951C789.654 247.869 788.08 248.03 786.246 247.538C784.399 247.044 782.327 245.895 780.11 244.254C775.679 240.973 770.793 235.818 766.134 230.376C762.546 226.185 759.111 221.845 756.135 218.087C755.25 216.969 754.405 215.902 753.61 214.906C751.878 212.738 750.374 210.9 749.189 209.603C748.597 208.956 748.074 208.431 747.634 208.065C747.414 207.883 747.203 207.729 747.005 207.62C746.816 207.516 746.588 207.423 746.349 207.427C746.009 207.433 745.64 207.574 745.281 207.763C744.909 207.959 744.491 208.237 744.04 208.578C743.138 209.26 742.065 210.226 740.903 211.382C738.575 213.696 735.855 216.806 733.376 220.028C730.9 223.247 728.65 226.598 727.275 229.39C726.589 230.783 726.106 232.067 725.934 233.143C725.764 234.201 725.877 235.2 726.586 235.834C727.046 236.247 728.026 237.351 729.488 238.998C729.572 239.093 729.658 239.19 729.745 239.288C731.333 241.078 733.416 243.416 735.9 246.062C740.867 251.355 747.447 257.887 754.91 263.752C762.37 269.614 770.738 274.828 779.284 277.457C787.839 280.089 796.601 280.137 804.789 275.619C814.624 270.193 819.202 262.944 820.48 255.109C821.752 247.305 819.741 238.983 816.536 231.393C813.328 223.796 808.903 216.882 805.286 211.873C803.476 209.366 801.866 207.334 800.708 205.926C800.129 205.223 799.663 204.676 799.34 204.304C799.179 204.118 799.054 203.975 798.969 203.879C798.927 203.831 798.894 203.795 798.872 203.77L798.847 203.742L798.841 203.735L798.839 203.733C798.839 203.733 798.838 203.732 798.467 204.068Z" fill="white" stroke="#282425" stroke-miterlimit="10"/>
<path d="M640.238 129.634C640.238 129.634 649.705 164.873 639.874 175.976C630.042 187.079 598.392 183.283 604.291 225.201C610.19 267.119 611.293 302.819 611.293 302.819H708.196C708.196 302.819 723.458 210.714 707.072 190.081C690.686 169.449 669.732 186.29 671.043 170.044C672.354 153.799 667.111 125.062 667.111 125.062L640.238 129.634Z" fill="white" stroke="#282425" stroke-miterlimit="10"/>
<path d="M634.459 179.444C634.459 179.444 645.937 210.158 668.167 204.068C683.571 199.847 676.417 177.232 680.14 177.625C683.862 178.019 696.127 176.242 708.196 187.767C720.264 199.293 721.215 302.819 717.466 302.819C713.717 302.819 610.596 303.172 607.372 302.819C604.147 302.467 598.398 203.674 602.891 194.744C607.384 185.814 601.137 184.538 634.459 179.444Z" fill="#8BC161"/>
<path d="M688.058 123.568C688.058 123.568 687.552 116.489 683.271 116.26C678.99 116.03 677.224 128.682 682.946 130.687C688.667 132.693 688.164 124.434 688.058 123.568Z" fill="white" stroke="#282425" stroke-miterlimit="10"/>
<path d="M637.514 103.813C637.514 103.813 667.113 88.7302 676.397 102.178C685.681 115.627 686.746 166.092 663.085 164.102C639.424 162.113 620.828 109.97 637.514 103.813Z" fill="white" stroke="#282425" stroke-width="1.04094" stroke-miterlimit="10"/>
<path d="M636.583 113.367C636.583 113.367 632.136 142.958 650.333 148.508C659.153 151.198 655.068 135.45 667.841 136.346C676.885 136.98 675.998 146.78 680.242 139.147C684.485 131.514 674.997 108.535 678.24 110.546C681.482 112.557 697.175 154.611 675.005 162.626C654.084 170.189 639.233 157.183 633.941 137.374C628.649 117.565 632.01 108.769 636.583 113.367Z" fill="#434784"/>
<path d="M666.416 134.672C664.795 134.672 662.495 134.454 660.475 134.218L660.573 133.386C663.539 133.734 667.003 133.966 667.78 133.772C667.728 132.754 665.927 127.839 664.122 123.441L664.9 123.124C669.191 133.578 668.654 134.137 668.452 134.347C668.226 134.581 667.462 134.672 666.416 134.672Z" fill="#CA6E70"/>
<path d="M636.217 117.432C636.217 117.432 634.426 104.975 651.222 100.869C671.102 96.0095 676.629 108.189 679.697 121.598C681.751 130.573 686.035 113.457 676.675 99.6719C665.79 83.6424 642.523 85.7455 633.734 93.4888C622.811 103.112 621.382 124.789 631.119 132.447C640.857 140.106 634.806 122.391 636.217 117.432Z" fill="#434784"/>
<path d="M634.822 136.107C634.822 136.107 632.52 129.392 628.322 130.258C624.124 131.125 625.656 143.806 631.701 144.291C637.747 144.775 635.146 136.917 634.822 136.107Z" fill="white" stroke="#282425" stroke-miterlimit="10"/>
<path d="M653.238 132.274C654.216 131.918 654.6 130.513 654.096 129.134C653.591 127.756 652.39 126.926 651.412 127.282C650.434 127.637 650.05 129.042 650.554 130.421C651.059 131.799 652.26 132.629 653.238 132.274Z" fill="#3D4C65"/>
<path d="M672.065 127.35C673.059 127.045 673.514 125.66 673.079 124.258C672.645 122.856 671.487 121.967 670.492 122.273C669.498 122.579 669.044 123.964 669.478 125.366C669.912 126.768 671.07 127.656 672.065 127.35Z" fill="#3D4C65"/>
<path d="M632.67 142.557L632.481 141.741C632.684 141.694 632.972 141.574 633.133 141.07C633.689 139.328 632.138 135.189 630.618 133.485C630.186 133.001 629.799 132.79 629.459 132.852C628.898 132.958 628.465 133.812 628.357 134.102L627.569 133.813C627.628 133.652 628.181 132.241 629.304 132.029C629.951 131.906 630.604 132.21 631.245 132.929C632.807 134.678 634.632 139.135 633.933 141.324C633.721 141.988 633.284 142.415 632.67 142.557Z" fill="#CA6E70"/>
<path opacity="0.38" d="M655.144 138.845C655.41 136.652 653.841 134.659 651.641 134.394C649.44 134.129 647.44 135.692 647.174 137.885C646.908 140.078 648.476 142.071 650.677 142.336C652.878 142.601 654.878 141.038 655.144 138.845Z" fill="#C05C5D"/>
<path opacity="0.38" d="M679.959 133.101C680.225 130.908 678.657 128.915 676.456 128.65C674.255 128.385 672.255 129.948 671.989 132.141C671.723 134.334 673.292 136.327 675.493 136.592C677.693 136.857 679.693 135.294 679.959 133.101Z" fill="#C05C5D"/>
<path d="M661.918 149.861C661.918 149.861 658.37 140.943 665.897 139.01C672.352 137.352 674.302 143.974 674.224 148.068C674.174 150.722 673.184 152.082 668.821 153.298C664.579 154.48 661.913 151.153 661.918 149.861Z" fill="white" stroke="#282425" stroke-width="1.04094" stroke-miterlimit="10"/>
<path d="M668.11 147.805C667.93 147.805 667.731 147.776 667.511 147.705C664.403 146.705 662.805 142.942 662.739 142.783L663.515 142.461C663.53 142.497 665.034 146.028 667.769 146.909C668.194 147.044 668.417 146.919 668.549 146.813C669.543 146.011 669.582 142.489 669.374 140.458L670.209 140.373C670.27 140.957 670.748 146.117 669.077 147.464C668.864 147.636 668.544 147.805 668.11 147.805Z" fill="#CA6E70"/>
<path d="M653.041 120.507C653.621 121.658 651.509 121.274 649.62 122.22C647.731 123.166 646.779 125.083 646.199 123.933C645.619 122.782 646.68 121.083 648.569 120.137C650.459 119.191 652.461 119.357 653.041 120.507Z" fill="#3D4C65"/>
<path d="M674.612 118.137C674.684 119.422 672.9 118.233 670.789 118.351C668.678 118.469 667.04 119.851 666.967 118.565C666.894 117.28 668.547 116.142 670.658 116.024C672.769 115.905 674.539 116.851 674.612 118.137Z" fill="#3D4C65"/>
<path d="M645.521 102.873C645.521 102.873 637.438 106.415 638.61 114.175C639.223 118.232 647.501 125.742 636.777 131.19C636.777 131.19 624.687 109.459 645.521 102.873Z" fill="#434784"/>
<path d="M658.606 99.7931C658.606 99.7931 669.471 99.2397 672.178 105.807C673.901 109.989 675.256 119.301 678.962 118.615C683.799 117.719 682.725 93.711 658.606 99.7931Z" fill="#434784"/>
<path opacity="0.38" d="M786.856 248.187C786.856 248.187 774.078 269.668 771.454 273.788C771.454 273.788 753.624 262.454 742.533 249.878L764.084 228.184C764.084 228.184 775.279 242.745 786.856 248.187Z" fill="#C05C5D"/>
<path d="M692.479 300.418C692.301 300.885 692.301 300.885 692.301 300.885L692.302 300.885L692.304 300.886L692.315 300.89L692.355 300.905C692.39 300.919 692.442 300.938 692.509 300.963C692.644 301.013 692.842 301.086 693.095 301.176C693.601 301.357 694.327 301.611 695.209 301.901C696.973 302.48 699.368 303.207 701.885 303.792C704.397 304.377 707.054 304.827 709.334 304.842C710.475 304.849 711.541 304.748 712.457 304.489C713.373 304.23 714.169 303.804 714.725 303.14C714.982 302.833 715.217 302.377 715.439 301.829C715.664 301.272 715.889 300.582 716.113 299.779C716.561 298.172 717.011 296.08 717.446 293.622C718.316 288.703 719.131 282.287 719.742 275.285C720.907 261.949 721.336 246.44 719.984 235.086C723.94 239.608 728.351 244.167 732.291 247.52C734.442 249.351 736.47 250.838 738.22 251.762C739.096 252.224 739.919 252.555 740.667 252.712C741.413 252.869 742.123 252.859 742.734 252.591L742.782 252.569L742.825 252.539L742.533 252.133C742.825 252.539 742.825 252.538 742.825 252.538L742.827 252.537L742.831 252.534L742.849 252.521L742.919 252.471C742.98 252.426 743.07 252.361 743.188 252.275C743.422 252.102 743.766 251.849 744.2 251.524C745.069 250.874 746.304 249.936 747.766 248.784C750.69 246.481 754.531 243.319 758.19 239.889C761.844 236.465 765.341 232.751 767.557 229.344C768.665 227.642 769.472 225.987 769.805 224.463C770.141 222.93 770.004 221.49 769.168 220.286C746.068 187.021 704.552 179.93 689.802 177.986L689.178 177.904L689.239 178.53C690.167 188.014 690.852 218.471 691.305 246.59C691.532 260.642 691.7 274.1 691.812 284.045C691.868 289.018 691.909 293.112 691.937 295.963C691.951 297.389 691.961 298.504 691.968 299.262L691.976 300.126L691.978 300.347L691.979 300.403L691.979 300.417L691.979 300.421C691.979 300.422 691.979 300.422 692.479 300.418ZM692.479 300.418L692.301 300.885L691.982 300.763L691.979 300.422L692.479 300.418Z" fill="#30BFAE" stroke="#282425" stroke-miterlimit="10"/>
<path d="M742.875 200.587C742.875 200.587 771.464 198.622 772.204 199.113C772.943 199.604 775.9 231.285 775.161 231.776C774.422 232.267 746.275 233.495 746.275 233.495C746.275 233.495 741.191 200.701 742.875 200.587Z" fill="#D53D3D"/>
<path d="M746.562 202.949L771.454 201.475C771.454 201.475 766.054 206.632 760.375 206.878C754.695 207.124 744.814 203.052 746.562 202.949Z" fill="#3D4C65"/>
<path d="M771.454 204.182C771.454 204.182 782.368 203.461 783.94 206.889C785.512 210.316 787.73 224.122 786.498 225.201C785.266 226.279 775.207 228.219 775.207 228.219L773.436 225.201C773.436 225.201 783.427 222.595 782.991 221.859C782.555 221.122 780.583 208.597 780.583 208.597L771.454 210.071V204.182Z" fill="#D53D3D"/>
<path d="M804.547 221.384C804.547 221.384 802.9 207.265 798.467 204.067C794.034 200.87 783.278 200.602 779.381 197.97C775.483 195.337 779.837 205.453 788.288 206.892C794.665 207.977 779.481 206.934 778.639 211.22C777.797 215.506 777.647 225.709 783.766 223.568C792.624 220.469 800.24 230.246 804.547 221.384Z" fill="white" stroke="#282425" stroke-miterlimit="10"/>
<path d="M778.296 215.03L777.793 214.36C780.321 212.474 787.553 211.086 787.859 211.028L788.016 211.85C787.943 211.864 780.669 213.26 778.296 215.03Z" fill="#3D4C65"/>
<path d="M778.375 220.917L777.906 220.224C782.785 216.941 789.451 216.797 789.733 216.792L789.746 217.629C789.679 217.63 783.045 217.777 778.375 220.917Z" fill="#3D4C65"/>
<path d="M720.71 134.981C720.71 134.981 704.982 161.883 732.865 164.183C760.749 166.484 779.496 167.334 774.698 177.62C769.901 187.906 750.576 195.531 759.818 204.068C759.818 204.068 747.635 201.721 758.138 187.906C768.64 174.092 749.736 189.162 724.11 167.813C698.484 146.464 713.11 145.267 720.71 134.981Z" fill="white"/>
<path d="M778.262 314.738C778.262 314.738 674.714 319.057 672.025 318.337C669.335 317.618 644.457 290.986 646.474 290.986C648.491 290.986 674.042 290.986 674.042 290.986C674.042 290.986 678.748 242.762 681.438 242.042C684.127 241.322 786.33 240.603 788.347 242.042C790.364 243.482 778.262 314.738 778.262 314.738Z" fill="#B7EFF9" stroke="#282425" stroke-width="1.04094" stroke-miterlimit="10"/>
<path d="M672.157 311.397C672.157 311.397 655.998 293.865 658.015 293.865C660.032 293.865 672.807 293.865 672.807 293.865L672.157 311.397Z" fill="#3D4C65"/>
<path d="M658.278 298.368C657.188 294.201 654.254 291.243 654.225 291.214L654.819 290.622C654.946 290.748 657.944 293.772 659.092 298.158L658.278 298.368Z" fill="#3D4C65"/>
<path d="M656.083 299.276L655.247 299.196C655.355 298.072 652.479 294.959 650.642 293.261L651.213 292.647C652.057 293.428 656.262 297.414 656.083 299.276Z" fill="#3D4C65"/>
<path d="M729.621 285.732C733.484 285.732 736.616 282.611 736.616 278.762C736.616 274.912 733.484 271.792 729.621 271.792C725.758 271.792 722.626 274.912 722.626 278.762C722.626 282.611 725.758 285.732 729.621 285.732Z" fill="#798B97"/>
<path d="M603.127 251.033C600.519 227.962 603.439 199.278 603.469 198.991L604.305 199.078C604.275 199.364 601.364 227.959 603.963 250.939L603.127 251.033Z" fill="#334054"/>
<path d="M717.003 225.224C716.124 209.307 712.725 190.345 712.691 190.156L713.518 190.007C713.552 190.197 716.96 209.21 717.841 225.178L717.003 225.224Z" fill="#334054"/>
<path d="M627.618 129.167C614.402 110.287 631.666 94.921 631.842 94.7681L632.395 95.3984C632.225 95.5468 615.528 110.43 628.308 128.688L627.618 129.167Z" fill="#434784"/>
<mask id="path-92-outside-1" maskUnits="userSpaceOnUse" x="548.323" y="179.264" width="93" height="127" fill="black">
<rect fill="white" x="548.323" y="179.264" width="93" height="127"/>
<path d="M629.18 180.274C629.18 180.274 628.738 180.237 627.965 180.309C590.331 181.722 546.555 235.305 549.461 246.053C551.566 253.842 589.168 270.094 589.168 270.094C593.711 264.767 598.072 259.915 602.09 255.528C602.915 277.897 605.24 300.271 607.372 302.819C611.136 307.318 639.874 302.286 639.874 302.286C639.874 302.286 627.32 199.293 629.18 180.274Z"/>
</mask>
<path d="M629.18 180.274C629.18 180.274 628.738 180.237 627.965 180.309C590.331 181.722 546.555 235.305 549.461 246.053C551.566 253.842 589.168 270.094 589.168 270.094C593.711 264.767 598.072 259.915 602.09 255.528C602.915 277.897 605.24 300.271 607.372 302.819C611.136 307.318 639.874 302.286 639.874 302.286C639.874 302.286 627.32 199.293 629.18 180.274Z" fill="#30BFAE"/>
<path d="M629.18 180.274L630.175 180.371L630.274 179.361L629.262 179.277L629.18 180.274ZM627.965 180.309L628.002 181.309L628.03 181.308L628.058 181.305L627.965 180.309ZM549.461 246.053L550.426 245.792L550.426 245.792L549.461 246.053ZM589.168 270.094L588.771 271.012L589.449 271.305L589.928 270.743L589.168 270.094ZM602.09 255.528L603.09 255.491L603 253.055L601.353 254.852L602.09 255.528ZM607.372 302.819L608.139 302.178V302.178L607.372 302.819ZM639.874 302.286L640.047 303.271L640.982 303.107L640.867 302.165L639.874 302.286ZM629.18 180.274C629.262 179.277 629.262 179.277 629.262 179.277C629.262 179.277 629.262 179.277 629.262 179.277C629.261 179.277 629.261 179.277 629.261 179.277C629.26 179.277 629.26 179.277 629.259 179.277C629.258 179.277 629.257 179.277 629.256 179.277C629.254 179.276 629.251 179.276 629.247 179.276C629.241 179.275 629.232 179.275 629.222 179.274C629.202 179.273 629.175 179.271 629.142 179.27C629.074 179.267 628.981 179.264 628.863 179.264C628.626 179.264 628.291 179.275 627.872 179.314L628.058 181.305C628.412 181.272 628.684 181.264 628.862 181.264C628.951 181.264 629.016 181.266 629.056 181.268C629.076 181.269 629.089 181.27 629.096 181.27C629.1 181.27 629.102 181.271 629.102 181.271C629.102 181.271 629.102 181.271 629.101 181.27C629.101 181.27 629.1 181.27 629.1 181.27C629.099 181.27 629.099 181.27 629.099 181.27C629.098 181.27 629.098 181.27 629.098 181.27C629.098 181.27 629.098 181.27 629.098 181.27C629.098 181.27 629.098 181.27 629.18 180.274ZM627.927 179.31C618.299 179.672 608.346 183.363 598.914 188.8C589.474 194.241 580.499 201.463 572.812 208.965C565.126 216.466 558.701 224.271 554.372 230.898C552.209 234.209 550.552 237.251 549.527 239.831C548.524 242.353 548.041 244.634 548.495 246.314L550.426 245.792C550.154 244.785 550.403 243.04 551.385 240.57C552.345 238.156 553.926 235.238 556.046 231.992C560.284 225.505 566.611 217.811 574.209 210.396C581.807 202.982 590.65 195.872 599.913 190.533C609.182 185.19 618.813 181.654 628.002 181.309L627.927 179.31ZM548.495 246.314C548.832 247.56 549.818 248.823 551.076 250.041C552.362 251.285 554.054 252.595 555.988 253.92C559.858 256.573 564.797 259.356 569.642 261.881C574.492 264.409 579.273 266.691 582.84 268.341C584.624 269.166 586.105 269.833 587.141 270.294C587.659 270.525 588.066 270.704 588.343 270.826C588.482 270.887 588.589 270.933 588.661 270.964C588.697 270.98 588.724 270.992 588.742 271C588.752 271.004 588.759 271.007 588.763 271.009C588.766 271.01 588.768 271.011 588.769 271.011C588.769 271.012 588.77 271.012 588.77 271.012C588.771 271.012 588.771 271.012 589.168 270.094C589.564 269.176 589.564 269.176 589.564 269.176C589.564 269.176 589.563 269.176 589.563 269.176C589.562 269.175 589.56 269.175 589.558 269.174C589.554 269.172 589.547 269.169 589.538 269.165C589.52 269.157 589.494 269.146 589.459 269.13C589.388 269.1 589.283 269.054 589.146 268.994C588.872 268.874 588.469 268.696 587.955 268.467C586.926 268.009 585.453 267.346 583.679 266.526C580.13 264.884 575.379 262.616 570.566 260.108C565.747 257.596 560.891 254.856 557.118 252.271C555.231 250.977 553.64 249.739 552.467 248.604C551.266 247.441 550.615 246.493 550.426 245.792L548.495 246.314ZM589.928 270.743C594.461 265.428 598.813 260.585 602.828 256.203L601.353 254.852C597.33 259.245 592.96 264.106 588.407 269.445L589.928 270.743ZM601.091 255.565C601.504 266.769 602.293 277.979 603.247 286.715C603.723 291.081 604.243 294.845 604.781 297.686C605.049 299.106 605.325 300.314 605.609 301.26C605.877 302.157 606.193 302.969 606.605 303.461L608.139 302.178C608.018 302.033 607.794 301.587 607.525 300.686C607.269 299.834 607.008 298.701 606.746 297.315C606.222 294.546 605.709 290.84 605.235 286.498C604.287 277.818 603.501 266.657 603.09 255.491L601.091 255.565ZM606.605 303.461C607.283 304.271 608.401 304.75 609.601 305.057C610.839 305.373 612.344 305.551 613.988 305.633C617.281 305.797 621.281 305.585 625.125 305.236C628.976 304.886 632.705 304.395 635.469 303.991C636.852 303.79 637.994 303.61 638.792 303.48C639.191 303.416 639.504 303.363 639.717 303.327C639.824 303.309 639.906 303.295 639.961 303.286C639.989 303.281 640.01 303.277 640.024 303.275C640.032 303.274 640.037 303.273 640.041 303.272C640.043 303.272 640.044 303.271 640.045 303.271C640.045 303.271 640.046 303.271 640.046 303.271C640.046 303.271 640.047 303.271 639.874 302.286C639.702 301.301 639.702 301.301 639.701 301.301C639.701 301.301 639.701 301.301 639.701 301.301C639.7 301.301 639.699 301.301 639.697 301.302C639.694 301.302 639.689 301.303 639.682 301.304C639.669 301.307 639.649 301.31 639.622 301.315C639.568 301.324 639.488 301.338 639.384 301.355C639.174 301.391 638.866 301.442 638.472 301.506C637.683 301.634 636.551 301.813 635.181 302.012C632.438 302.412 628.747 302.898 624.944 303.244C621.133 303.59 617.242 303.793 614.088 303.635C612.509 303.556 611.152 303.389 610.097 303.119C609.005 302.84 608.402 302.492 608.139 302.178L606.605 303.461ZM639.874 302.286C640.867 302.165 640.867 302.165 640.867 302.164C640.867 302.163 640.866 302.162 640.866 302.16C640.866 302.157 640.865 302.153 640.864 302.146C640.863 302.134 640.861 302.115 640.858 302.091C640.852 302.041 640.843 301.967 640.831 301.87C640.807 301.674 640.772 301.384 640.726 301.005C640.635 300.246 640.501 299.131 640.331 297.705C639.992 294.853 639.509 290.757 638.935 285.782C637.787 275.831 636.277 262.367 634.824 248.309C633.372 234.25 631.978 219.604 631.063 207.288C630.146 194.934 629.72 185.023 630.175 180.371L628.185 180.176C627.71 185.034 628.155 195.129 629.069 207.436C629.985 219.78 631.381 234.448 632.835 248.515C634.288 262.583 635.8 276.056 636.948 286.011C637.522 290.988 638.006 295.087 638.345 297.942C638.515 299.369 638.649 300.485 638.741 301.244C638.787 301.624 638.822 301.915 638.845 302.11C638.857 302.208 638.866 302.282 638.872 302.332C638.875 302.357 638.878 302.375 638.879 302.388C638.88 302.394 638.88 302.399 638.881 302.402C638.881 302.404 638.881 302.405 638.881 302.406C638.881 302.407 638.881 302.407 639.874 302.286Z" fill="#282425" mask="url(#path-92-outside-1)"/>
<mask id="path-94-outside-2" maskUnits="userSpaceOnUse" x="547.458" y="248.823" width="123" height="66" fill="black">
<rect fill="white" x="547.458" y="248.823" width="123" height="66"/>
<path fill-rule="evenodd" clip-rule="evenodd" d="M582.404 268.268C566.872 260.876 557.023 254.438 552.506 250.823C550.064 257.97 548.334 266.533 548.465 276.326C548.885 307.722 578.712 316.932 598.877 312.746C609.055 310.633 619.019 304.312 627.149 299.156C635.125 294.097 641.335 290.158 644.247 292.413C649.809 296.718 651.882 296.972 653.865 297.214C653.979 297.228 654.092 297.242 654.206 297.257C655.294 297.396 660.701 295.442 659.926 294.05C651.287 278.559 663.432 293.563 668.613 300.606C670.506 303.179 669.196 275.908 647.188 276.745C642.123 276.938 635.539 279.171 628.434 281.582C615.099 286.106 599.927 291.253 589.512 284.699C582.231 280.116 581.282 273.792 582.404 268.268Z"/>
</mask>
<path fill-rule="evenodd" clip-rule="evenodd" d="M582.404 268.268C566.872 260.876 557.023 254.438 552.506 250.823C550.064 257.97 548.334 266.533 548.465 276.326C548.885 307.722 578.712 316.932 598.877 312.746C609.055 310.633 619.019 304.312 627.149 299.156C635.125 294.097 641.335 290.158 644.247 292.413C649.809 296.718 651.882 296.972 653.865 297.214C653.979 297.228 654.092 297.242 654.206 297.257C655.294 297.396 660.701 295.442 659.926 294.05C651.287 278.559 663.432 293.563 668.613 300.606C670.506 303.179 669.196 275.908 647.188 276.745C642.123 276.938 635.539 279.171 628.434 281.582C615.099 286.106 599.927 291.253 589.512 284.699C582.231 280.116 581.282 273.792 582.404 268.268Z" fill="white"/>
<path d="M582.404 268.268L583.384 268.467L583.539 267.701L582.833 267.365L582.404 268.268ZM552.506 250.823L553.131 250.042L552.02 249.153L551.56 250.5L552.506 250.823ZM548.465 276.326L549.465 276.313L548.465 276.326ZM598.877 312.746L598.673 311.766L598.877 312.746ZM627.149 299.156L627.685 300.001L627.149 299.156ZM644.247 292.413L643.635 293.204L643.635 293.204L644.247 292.413ZM653.865 297.214L653.986 296.222L653.865 297.214ZM654.206 297.257L654.334 296.265L654.334 296.265L654.206 297.257ZM659.926 294.05L660.799 293.563L660.799 293.563L659.926 294.05ZM668.613 300.606L667.808 301.198V301.198L668.613 300.606ZM647.188 276.745L647.15 275.746L647.188 276.745ZM628.434 281.582L628.755 282.529L628.434 281.582ZM589.512 284.699L588.979 285.545L589.512 284.699ZM582.833 267.365C567.347 259.994 557.57 253.595 553.131 250.042L551.882 251.604C556.476 255.281 566.397 261.757 581.974 269.171L582.833 267.365ZM551.56 250.5C549.085 257.742 547.332 266.419 547.465 276.34L549.465 276.313C549.335 266.647 551.042 258.198 553.453 251.147L551.56 250.5ZM547.465 276.34C547.68 292.412 555.451 302.879 565.772 308.748C576.039 314.587 588.79 315.861 599.08 313.725L598.673 311.766C588.799 313.816 576.554 312.579 566.761 307.01C557.022 301.472 549.67 291.637 549.465 276.313L547.465 276.34ZM599.08 313.725C609.469 311.568 619.59 305.135 627.685 300.001L626.613 298.312C618.449 303.49 608.641 309.697 598.673 311.766L599.08 313.725ZM627.685 300.001C631.695 297.457 635.176 295.251 638.014 293.951C639.431 293.301 640.62 292.911 641.586 292.797C642.538 292.685 643.18 292.851 643.635 293.204L644.86 291.622C643.859 290.847 642.633 290.66 641.352 290.811C640.085 290.96 638.677 291.447 637.181 292.133C634.191 293.503 630.579 295.796 626.613 298.312L627.685 300.001ZM643.635 293.204C646.45 295.382 648.433 296.577 650.001 297.255C651.598 297.945 652.727 298.083 653.744 298.207L653.986 296.222C653.02 296.104 652.122 295.993 650.795 295.419C649.441 294.834 647.607 293.749 644.86 291.622L643.635 293.204ZM653.744 298.207C653.858 298.221 653.969 298.235 654.079 298.249L654.334 296.265C654.216 296.25 654.1 296.236 653.986 296.222L653.744 298.207ZM654.079 298.249C654.369 298.286 654.693 298.248 654.965 298.202C655.261 298.151 655.595 298.071 655.943 297.972C656.639 297.773 657.441 297.48 658.185 297.135C658.913 296.797 659.658 296.376 660.184 295.898C660.445 295.662 660.718 295.353 660.874 294.97C661.046 294.547 661.065 294.041 660.799 293.563L659.052 294.537C658.98 294.408 659 294.268 659.021 294.217C659.025 294.207 658.994 294.278 658.84 294.418C658.536 294.693 658.007 295.013 657.344 295.321C656.697 295.621 655.992 295.877 655.393 296.049C655.093 296.135 654.832 296.196 654.628 296.231C654.398 296.27 654.316 296.263 654.334 296.265L654.079 298.249ZM660.799 293.563C659.724 291.636 658.984 290.203 658.515 289.179C658.281 288.667 658.122 288.273 658.023 287.98C657.916 287.662 657.91 287.547 657.91 287.556C657.91 287.56 657.912 287.709 657.801 287.888C657.657 288.12 657.417 288.254 657.182 288.281C657.086 288.292 657.012 288.283 656.969 288.275C656.926 288.267 656.899 288.257 656.892 288.254C656.882 288.25 656.906 288.259 656.969 288.299C657.244 288.477 657.717 288.899 658.368 289.573C660.922 292.216 665.221 297.682 667.808 301.198L669.419 300.013C666.824 296.486 662.46 290.929 659.806 288.183C659.155 287.509 658.542 286.935 658.055 286.62C657.928 286.538 657.781 286.454 657.623 286.392C657.478 286.335 657.238 286.262 656.956 286.294C656.618 286.333 656.299 286.515 656.102 286.833C655.937 287.098 655.911 287.372 655.91 287.542C655.908 287.882 656.007 288.26 656.128 288.618C656.257 289.002 656.447 289.466 656.697 290.012C657.197 291.105 657.967 292.592 659.052 294.538L660.799 293.563ZM667.808 301.198C667.909 301.336 668.088 301.544 668.366 301.671C668.712 301.829 669.126 301.817 669.474 301.59C669.75 301.409 669.889 301.153 669.958 301.003C670.035 300.833 670.084 300.653 670.118 300.486C670.251 299.843 670.258 298.875 670.155 297.754C669.945 295.471 669.245 292.222 667.777 288.92C666.308 285.616 664.048 282.211 660.688 279.683C657.312 277.142 652.876 275.528 647.15 275.746L647.226 277.744C652.504 277.543 656.485 279.024 659.485 281.281C662.501 283.55 664.577 286.645 665.95 289.732C667.323 292.822 667.972 295.856 668.163 297.937C668.261 298.997 668.232 299.731 668.159 300.084C668.142 300.166 668.13 300.19 668.136 300.178C668.139 300.17 668.154 300.138 668.186 300.095C668.218 300.053 668.279 299.981 668.379 299.916C668.638 299.747 668.954 299.741 669.196 299.852C669.369 299.931 669.436 300.036 669.419 300.013L667.808 301.198ZM647.15 275.746C641.905 275.945 635.16 278.244 628.113 280.635L628.755 282.529C635.918 280.099 642.341 277.93 647.226 277.744L647.15 275.746ZM628.113 280.635C621.426 282.903 614.385 285.289 607.727 286.306C601.067 287.324 594.957 286.944 590.045 283.852L588.979 285.545C594.482 289.008 601.165 289.332 608.029 288.283C614.894 287.234 622.106 284.784 628.755 282.529L628.113 280.635ZM590.045 283.852C586.574 281.668 584.674 279.113 583.749 276.502C582.819 273.876 582.847 271.107 583.384 268.467L581.424 268.069C580.838 270.952 580.78 274.108 581.864 277.17C582.954 280.248 585.169 283.147 588.979 285.545L590.045 283.852Z" fill="#282425" mask="url(#path-94-outside-2)"/>
<path d="M949.091 242.538L941.405 296.003L1009.01 307.265L1017.94 254.007C1004.75 251.81 949.091 242.538 949.091 242.538Z" fill="#3D4C65"/>
<path d="M953.753 248.691L947.888 290.164L1005.42 299.748L1013.07 258.572C994.82 255.532 953.753 248.691 953.753 248.691Z" fill="white"/>
<path d="M978.744 291.435C978.744 291.435 981.633 265.739 982.107 265.336C982.581 264.934 990.026 266.572 990.026 266.572C990.026 266.572 987.071 292.661 986.452 292.719C985.833 292.776 978.744 291.435 978.744 291.435Z" fill="#87BECA"/>
<path d="M968.267 289.703C968.267 289.703 970.394 268.546 970.854 268.227C971.314 267.908 978.771 269.477 978.771 269.477C978.771 269.477 976.589 290.957 975.975 290.986C975.36 291.016 968.267 289.703 968.267 289.703Z" fill="#EBBE00"/>
<path d="M955.979 287.036C955.979 287.036 957.265 270.894 957.709 270.667C958.153 270.44 965.623 271.933 965.623 271.933C965.623 271.933 964.296 288.321 963.686 288.32C963.077 288.319 955.979 287.036 955.979 287.036Z" fill="#F7705F"/>
<path d="M990.197 293.325C990.197 293.325 994.148 261.302 994.641 260.783C995.134 260.263 1002.56 261.998 1002.56 261.998C1002.56 261.998 998.531 294.512 997.905 294.609C997.279 294.705 990.197 293.325 990.197 293.325Z" fill="#3D4C65"/>
<path d="M1277.55 268.796C1270.49 268.796 1264.76 274.501 1264.76 281.537C1264.76 288.574 1270.49 294.278 1277.55 294.278C1284.61 294.278 1290.33 288.574 1290.33 281.537C1290.33 274.501 1284.61 268.796 1277.55 268.796ZM1277.11 288.452C1273.6 288.452 1270.75 285.553 1270.75 281.976C1270.75 278.4 1273.6 275.5 1277.11 275.5C1280.63 275.5 1283.48 278.4 1283.48 281.976C1283.48 285.553 1280.63 288.452 1277.11 288.452Z" fill="#3D4C65"/>
<path d="M1274.94 274.883C1274.94 274.883 1273.98 266.115 1275.33 262.935C1275.69 262.094 1280.16 261.875 1280.44 263.798C1280.51 264.312 1280.65 274.497 1280.36 274.69C1280.07 274.883 1274.94 274.883 1274.94 274.883Z" fill="#3D4C65"/>
<path d="M1280.2 288.367C1280.2 288.367 1281.17 297.134 1279.81 300.314C1279.45 301.156 1274.98 301.374 1274.71 299.451C1274.63 298.937 1274.49 288.752 1274.78 288.559C1275.07 288.367 1280.2 288.367 1280.2 288.367Z" fill="#3D4C65"/>
<path d="M1279.92 275.006C1279.92 275.006 1285.46 268.125 1288.67 266.83C1289.52 266.488 1292.84 269.487 1291.67 271.039C1291.36 271.454 1284.23 278.753 1283.89 278.685C1283.54 278.617 1279.92 275.006 1279.92 275.006Z" fill="#3D4C65"/>
<path d="M1274.07 288.244C1274.07 288.244 1268.53 295.125 1265.32 296.42C1264.47 296.762 1261.15 293.763 1262.32 292.211C1262.63 291.796 1269.76 284.497 1270.1 284.565C1270.45 284.633 1274.07 288.244 1274.07 288.244Z" fill="#3D4C65"/>
<path d="M1284.19 284.539C1284.19 284.539 1291.1 290.058 1292.39 293.26C1292.74 294.108 1289.73 297.416 1288.17 296.249C1287.75 295.937 1280.43 288.832 1280.5 288.491C1280.57 288.15 1284.19 284.539 1284.19 284.539Z" fill="#3D4C65"/>
<path d="M1270.9 278.709C1270.9 278.709 1264 273.191 1262.7 269.989C1262.36 269.141 1265.37 265.833 1266.92 267C1267.34 267.312 1274.67 274.417 1274.6 274.758C1274.53 275.099 1270.9 278.709 1270.9 278.709Z" fill="#3D4C65"/>
<path d="M1270.46 284.659C1270.46 284.659 1261.66 285.623 1258.47 284.274C1257.63 283.917 1257.41 279.456 1259.34 279.184C1259.85 279.112 1270.07 278.975 1270.27 279.264C1270.46 279.553 1270.46 284.659 1270.46 284.659Z" fill="#3D4C65"/>
<path d="M1283.47 279.421C1283.47 279.421 1292.27 278.457 1295.46 279.806C1296.31 280.163 1296.53 284.624 1294.6 284.896C1294.08 284.968 1283.86 285.106 1283.67 284.817C1283.47 284.528 1283.47 279.421 1283.47 279.421Z" fill="#3D4C65"/>
<path d="M41.515 282.443C41.4676 282.397 40.3356 281.284 38.6736 279.309L39.317 278.769C40.9506 280.71 42.0928 281.833 42.1041 281.844L41.515 282.443ZM36.0625 276.003C35.2193 274.865 34.4111 273.7 33.6604 272.541L34.3656 272.084C35.1069 273.229 35.9048 274.379 36.7375 275.502L36.0625 276.003ZM32.2238 268.518L31.4892 268.925C30.7942 267.671 30.1546 266.403 29.5874 265.157L30.3521 264.808C30.9099 266.034 31.5399 267.282 32.2238 268.518ZM28.8009 260.96L28.0086 261.239C27.5326 259.879 27.1331 258.514 26.8201 257.182L27.6374 256.989C27.9437 258.292 28.3349 259.628 28.8009 260.96ZM98.8061 215.743C98.2439 216.079 97.6651 216.382 97.0866 216.642L96.7435 215.878C97.2927 215.631 97.8422 215.344 98.3762 215.024C98.3794 215.023 98.3822 215.021 98.385 215.019C99.005 214.648 99.6265 214.222 100.233 213.751L100.746 214.411C100.114 214.903 99.4641 215.349 98.8152 215.737C98.8121 215.739 98.8093 215.741 98.8061 215.743ZM103.868 211.508L103.251 210.942C104.122 209.995 105.005 208.914 105.875 207.728L106.552 208.221C105.664 209.433 104.761 210.538 103.868 211.508ZM92.9775 217.853C91.6571 218.056 90.2628 218.11 88.7151 218.018L88.7674 217.182C90.255 217.27 91.5913 217.219 92.852 217.025L92.9775 217.853ZM108.914 204.715L108.201 204.274C108.895 203.159 109.603 201.946 110.304 200.669L111.04 201.071C110.331 202.361 109.616 203.587 108.914 204.715ZM26.9357 252.914L26.1009 253.007C25.9468 251.58 25.8917 250.153 25.9366 248.767L26.7756 248.791C26.7317 250.139 26.7858 251.526 26.9357 252.914ZM84.511 217.496C83.2486 217.277 81.9795 217.018 80.6362 216.745L80.382 216.693L80.5523 215.872L80.8065 215.923C82.1438 216.196 83.4067 216.454 84.6567 216.67L84.511 217.496ZM112.989 197.335L112.238 196.964C112.559 196.319 112.883 195.654 113.209 194.969L113.966 195.326C113.639 196.016 113.313 196.685 112.989 197.335ZM76.2765 215.902C74.7843 215.644 73.4358 215.455 72.1536 215.326L72.241 214.492C73.543 214.624 74.9107 214.815 76.4222 215.076L76.2765 215.902ZM27.2221 244.696L26.3974 244.544C26.6592 243.154 27.0338 241.773 27.5113 240.441L28.3013 240.721C27.8391 242.012 27.4757 243.349 27.2221 244.696ZM68.0089 215.104C66.6167 215.1 65.2245 215.172 63.8708 215.318L63.7836 214.485C65.1677 214.335 66.5911 214.262 68.0144 214.266L68.0089 215.104ZM29.986 236.958L29.2477 236.561C29.9065 235.345 30.6737 234.139 31.5279 232.978L32.2037 233.473C31.3724 234.602 30.6264 235.775 29.986 236.958ZM59.7824 215.991C58.4597 216.284 57.1156 216.658 55.7869 217.1L55.5234 216.305C56.8796 215.853 58.2518 215.472 59.6029 215.173L59.7824 215.991ZM34.859 230.296L34.2477 229.723C35.1838 228.727 36.2128 227.742 37.3065 226.793L37.8556 227.425C36.7837 228.355 35.7753 229.32 34.859 230.296ZM51.9129 218.596C50.6831 219.135 49.4255 219.748 48.1753 220.418L47.7796 219.68C49.0499 218.999 50.3275 218.377 51.5772 217.828L51.9129 218.596ZM41.1137 224.841L40.6208 224.164C41.3993 223.598 42.2191 223.034 43.0582 222.487C43.4172 222.253 43.7742 222.025 44.1291 221.803L44.573 222.513C44.223 222.732 43.87 222.957 43.5151 223.189C42.6884 223.727 41.8805 224.283 41.1137 224.841Z" fill="#3D4C65"/>
<path d="M102.288 172.484L113.676 175.279L115.366 190.313L121.57 183.966L126.641 191.581L142.777 154.499L102.288 172.484Z" fill="#30BFAE"/>
<path d="M141.874 154.886L113.436 174.939L113.919 175.623L142.357 155.57L141.874 154.886Z" fill="#3D4C65"/>
<path d="M119.029 178.876L114.972 190.173L115.762 190.453L119.819 179.157L119.029 178.876Z" fill="#3D4C65"/>
<path d="M141.812 154.941L119.123 178.729L119.73 179.306L142.42 155.518L141.812 154.941Z" fill="#3D4C65"/>
<path d="M119.041 179.183L121.183 184.133L121.954 183.799L119.812 178.849L119.041 179.183Z" fill="#3D4C65"/>
<path d="M143.008 247.504C143.008 247.504 174.667 239.72 176.154 241.874C177.64 244.027 182.686 279.456 182.686 279.456L149.356 285.483L143.008 247.504Z" fill="#FFAA02"/>
<path d="M148.391 254.974L147.657 254.568C147.678 254.532 149.74 250.919 153.492 251.814C154.727 252.11 155.554 252.472 156.218 252.763C157.394 253.28 157.792 253.453 158.966 252.549C161.128 250.886 162.632 249.932 165.251 250.694C166.279 250.993 166.828 251.587 167.229 252.021C167.419 252.227 167.609 252.438 167.72 252.435C167.842 252.43 168.166 252.269 168.974 251.242C170.579 249.2 170.893 248.97 173.885 249.544L173.726 250.366C171.125 249.868 171.097 249.901 169.685 251.695C168.795 252.827 168.267 253.251 167.753 253.271C167.256 253.299 166.944 252.95 166.611 252.588C166.24 252.187 165.819 251.732 165.015 251.498C162.727 250.833 161.483 251.671 159.479 253.212C157.908 254.42 157.145 254.084 155.879 253.53C155.246 253.252 154.457 252.907 153.296 252.628C150.172 251.881 148.463 254.848 148.391 254.974Z" fill="#3D4C65"/>
<path d="M153.915 278.121L153.181 277.715C153.202 277.678 155.263 274.065 159.016 274.961C160.251 275.257 161.078 275.62 161.742 275.911C162.918 276.427 163.316 276.601 164.49 275.696C166.653 274.034 168.155 273.079 170.775 273.841C171.803 274.141 172.352 274.735 172.753 275.169C172.943 275.374 173.141 275.591 173.244 275.582C173.366 275.577 173.69 275.416 174.498 274.389C176.103 272.347 176.417 272.116 179.409 272.691L179.25 273.514C176.647 273.014 176.621 273.049 175.208 274.843C174.319 275.974 173.791 276.398 173.277 276.419C172.773 276.434 172.469 276.097 172.135 275.736C171.764 275.334 171.343 274.879 170.54 274.645C168.253 273.981 167.007 274.818 165.003 276.359C163.433 277.567 162.669 277.232 161.403 276.677C160.77 276.399 159.982 276.054 158.82 275.775C155.693 275.028 153.987 277.995 153.915 278.121Z" fill="#3D4C65"/>
<path d="M150.512 262.96L149.777 262.553C149.797 262.517 151.858 258.902 155.612 259.799C156.847 260.096 157.674 260.458 158.338 260.749C159.514 261.265 159.91 261.44 161.086 260.535C163.264 258.861 164.411 258.255 167.026 259.014C167.933 259.278 168.555 259.77 169.054 260.166C169.421 260.455 169.738 260.708 169.942 260.662C170.129 260.625 170.472 260.355 171.055 259.286C171.238 258.951 171.37 258.669 171.479 258.433C172.133 257.031 172.476 257.007 174.862 257.464L174.703 258.287C172.657 257.894 172.657 257.894 172.241 258.786C172.126 259.034 171.987 259.332 171.794 259.686C171.16 260.848 170.672 261.369 170.11 261.483C169.517 261.603 169.039 261.223 168.532 260.821C168.067 260.453 167.54 260.036 166.79 259.818C164.529 259.16 163.619 259.645 161.599 261.198C160.029 262.405 159.266 262.071 157.999 261.515C157.366 261.238 156.578 260.892 155.416 260.614C152.292 259.866 150.583 262.833 150.512 262.96Z" fill="#3D4C65"/>
<path d="M152.138 271.243L151.881 270.446C152.288 270.315 152.296 270.31 152.482 270.178C152.735 269.999 153.26 269.628 155.06 268.658C156.733 267.758 157.09 267.839 157.963 268.229C158.32 268.388 158.763 268.587 159.54 268.761C161.866 269.282 163.055 268.366 164.958 266.703C166.449 265.401 167.233 265.687 168.53 266.161C169.18 266.399 169.989 266.694 171.166 266.9C174.351 267.451 175.897 264.284 175.912 264.252L176.671 264.611C176.653 264.649 174.826 268.389 171.021 267.725C169.77 267.506 168.922 267.196 168.241 266.947C167.035 266.507 166.628 266.358 165.512 267.333C163.458 269.128 162.02 270.176 159.356 269.578C158.496 269.386 157.989 269.159 157.619 268.993C156.983 268.709 156.849 268.648 155.459 269.395C153.705 270.34 153.208 270.691 152.969 270.86C152.711 271.043 152.633 271.084 152.138 271.243Z" fill="#3D4C65"/>
<path d="M215.17 179.808C215.17 179.808 193.586 192.572 194.248 193.988C194.91 195.405 198.726 200.548 198.726 200.548L219.648 186.369L215.17 179.808Z" fill="#3D4C65"/>
<path d="M205.055 183.566C205.055 183.566 178.301 198.631 179.478 200.901C180.655 203.172 186.844 211.692 186.844 211.692L212.421 194.357L205.055 183.566Z" fill="#EBBE00"/>
<path d="M250.939 161.529C244.136 151.563 230.514 148.979 220.512 155.757C210.511 162.536 207.918 176.11 214.721 186.076C221.523 196.043 235.146 198.626 245.147 191.848C255.149 185.069 257.742 171.495 250.939 161.529ZM219.967 182.521C215.135 175.442 216.977 165.8 224.081 160.985C231.185 156.17 240.861 158.005 245.693 165.084C250.525 172.163 248.683 181.805 241.579 186.62C234.475 191.435 224.799 189.6 219.967 182.521Z" fill="#B7EFF9"/>
<path d="M393.795 209.437C384.493 209.437 376.953 216.951 376.953 226.22C376.953 235.488 384.493 243.002 393.795 243.002C403.097 243.002 410.637 235.488 410.637 226.22C410.637 216.951 403.097 209.437 393.795 209.437ZM393.223 235.328C388.592 235.328 384.838 231.509 384.838 226.797C384.838 222.086 388.592 218.267 393.223 218.267C397.854 218.267 401.607 222.086 401.607 226.797C401.607 231.509 397.854 235.328 393.223 235.328Z" fill="#3D4C65"/>
<path d="M390.364 217.454C390.364 217.454 389.091 205.905 390.874 201.717C391.346 200.608 397.242 200.321 397.601 202.853C397.697 203.53 397.879 216.946 397.497 217.2C397.115 217.454 390.364 217.454 390.364 217.454Z" fill="#3D4C65"/>
<path d="M397.289 235.214C397.289 235.214 398.562 246.763 396.779 250.952C396.307 252.06 390.411 252.348 390.052 249.815C389.956 249.138 389.774 235.722 390.156 235.468C390.538 235.214 397.289 235.214 397.289 235.214Z" fill="#3D4C65"/>
<path d="M396.921 217.615C396.921 217.615 404.216 208.552 408.449 206.847C409.569 206.395 413.943 210.346 412.399 212.391C411.987 212.937 402.595 222.551 402.145 222.461C401.695 222.372 396.921 217.615 396.921 217.615Z" fill="#3D4C65"/>
<path d="M389.214 235.053C389.214 235.053 381.92 244.117 377.687 245.822C376.567 246.273 372.193 242.322 373.736 240.278C374.149 239.732 383.541 230.117 383.991 230.207C384.441 230.297 389.214 235.053 389.214 235.053Z" fill="#3D4C65"/>
<path d="M402.545 230.174C402.545 230.174 411.641 237.443 413.352 241.661C413.805 242.777 409.84 247.135 407.788 245.597C407.24 245.186 397.591 235.827 397.681 235.379C397.771 234.93 402.545 230.174 402.545 230.174Z" fill="#3D4C65"/>
<path d="M385.045 222.494C385.045 222.494 375.949 215.225 374.238 211.007C373.785 209.891 377.75 205.533 379.802 207.071C380.35 207.482 389.998 216.84 389.908 217.289C389.818 217.738 385.045 222.494 385.045 222.494Z" fill="#3D4C65"/>
<path d="M384.462 230.332C384.462 230.332 372.872 231.601 368.669 229.824C367.556 229.354 367.268 223.478 369.81 223.12C370.489 223.024 383.952 222.844 384.207 223.224C384.462 223.605 384.462 230.332 384.462 230.332Z" fill="#3D4C65"/>
<path d="M401.601 223.432C401.601 223.432 413.191 222.163 417.394 223.939C418.507 224.41 418.795 230.285 416.254 230.643C415.574 230.739 402.111 230.92 401.856 230.539C401.601 230.158 401.601 223.432 401.601 223.432Z" fill="#3D4C65"/>
<path d="M957.311 168.111C956.923 168.111 956.575 167.844 956.49 167.451L952.014 146.841C951.939 146.492 952.093 146.134 952.4 145.949C953.724 145.147 965.286 138.215 968.705 138.215C968.754 138.215 968.802 138.216 968.849 138.219C969.619 138.269 970.493 138.324 974.654 159.622C974.743 160.075 974.446 160.515 973.991 160.603C973.534 160.691 973.094 160.396 973.005 159.941C971.565 152.572 969.262 141.912 968.384 139.906C965.946 140.215 958.487 144.259 953.784 147.072L958.133 167.097C958.23 167.549 957.942 167.994 957.489 168.092C957.43 168.105 957.37 168.111 957.311 168.111Z" fill="#3D4C65"/>
<path d="M956.527 164.824C956.527 164.824 958.838 161.448 962.329 163.466C965.189 165.12 962.073 169.454 958.318 169.128C953.739 168.73 956.527 164.824 956.527 164.824Z" fill="#3D4C65"/>
<path d="M972.98 157.346C972.98 157.346 975.291 153.969 978.783 155.988C981.642 157.641 978.526 161.976 974.771 161.649C970.192 161.251 972.98 157.346 972.98 157.346Z" fill="#3D4C65"/>
<path d="M934.475 146.858C934.369 146.858 934.262 146.838 934.158 146.796C933.728 146.621 933.522 146.133 933.697 145.705C936.172 139.649 938.73 132.9 939.11 131.144C937.367 130.42 931.428 129.903 927.117 129.732L921.542 144.228C921.376 144.66 920.888 144.877 920.457 144.71C920.024 144.545 919.807 144.061 919.973 143.629L925.763 128.573C925.891 128.24 926.215 128.016 926.575 128.036C928.546 128.102 938.476 128.505 940.459 129.987C941.065 130.44 941.589 130.832 935.253 146.336C935.121 146.661 934.806 146.858 934.475 146.858Z" fill="#3D4C65"/>
<path d="M921.284 142.033C921.284 142.033 924.181 140.836 925.568 143.583C926.704 145.834 922.889 147.309 920.623 145.534C917.86 143.37 921.284 142.033 921.284 142.033Z" fill="#3D4C65"/>
<path d="M934.954 144.108C934.954 144.108 937.85 142.91 939.237 145.658C940.373 147.908 936.558 149.383 934.292 147.608C931.529 145.444 934.954 144.108 934.954 144.108Z" fill="#3D4C65"/>
<path d="M1209.18 197.394L1214.64 207.747L1229.68 205.763L1225 213.298L1233.63 216.374L1201.43 240.928L1209.18 197.394Z" fill="#FFAA02"/>
<path d="M1214.26 207.599L1201.59 239.958L1202.37 240.261L1215.04 207.902L1214.26 207.599Z" fill="#3D4C65"/>
<path d="M1229.44 205.412L1219.44 212.068L1219.9 212.764L1229.91 206.109L1229.44 205.412Z" fill="#3D4C65"/>
<path d="M1219.31 212.188L1201.63 239.89L1202.34 240.338L1220.02 212.637L1219.31 212.188Z" fill="#3D4C65"/>
<path d="M1219.74 212L1219.6 212.827L1224.93 213.712L1225.07 212.885L1219.74 212Z" fill="#3D4C65"/>
<path d="M1232.76 197.608L1231.94 197.433C1232.12 196.611 1232.27 195.777 1232.4 194.955L1233.23 195.079C1233.1 195.919 1232.94 196.769 1232.76 197.608ZM1233.65 190.867L1232.81 190.83C1232.88 189.447 1232.87 188.053 1232.79 186.687L1233.63 186.634C1233.71 188.03 1233.72 189.454 1233.65 190.867ZM1233.14 182.429L1232.31 182.576C1232.08 181.22 1231.76 179.864 1231.37 178.547L1232.17 178.308C1232.57 179.655 1232.9 181.042 1233.14 182.429ZM1230.75 174.325L1229.97 174.654C1229.44 173.397 1228.83 172.147 1228.15 170.94L1228.88 170.528C1229.58 171.763 1230.2 173.04 1230.75 174.325ZM1225.94 167.441C1225.15 166.333 1224.29 165.235 1223.38 164.18L1224.02 163.631C1224.95 164.708 1225.82 165.826 1226.62 166.956L1225.94 167.441ZM1220.53 161.165C1219.56 160.222 1218.52 159.29 1217.44 158.396L1217.98 157.75C1219.07 158.658 1220.13 159.605 1221.12 160.562L1220.53 161.165ZM1214.14 155.864C1213.05 155.079 1211.88 154.302 1210.68 153.556L1211.13 152.844C1212.34 153.6 1213.52 154.387 1214.63 155.181L1214.14 155.864ZM1207.08 151.457C1205.9 150.809 1204.66 150.167 1203.38 149.549L1203.75 148.794C1205.04 149.419 1206.3 150.067 1207.49 150.721L1207.08 151.457ZM1199.58 147.817C1198.34 147.283 1197.04 146.755 1195.72 146.248L1196.02 145.466C1197.35 145.976 1198.66 146.509 1199.92 147.047L1199.58 147.817ZM1191.79 144.827L1191.51 144.732C1190.28 144.314 1189.03 143.94 1187.81 143.619L1188.02 142.809C1189.27 143.135 1190.53 143.515 1191.78 143.939L1192.07 144.035L1191.79 144.827ZM1144.81 173.352C1144.68 173.433 1144.54 173.504 1144.39 173.565L1144.07 172.79C1145.26 172.304 1145.64 170.784 1145.73 169.662L1146.57 169.724C1146.43 171.47 1145.82 172.724 1144.81 173.352ZM1140 172.919C1139.39 172.55 1138.9 172.06 1138.53 171.463C1138.13 170.806 1137.87 170.02 1137.77 169.126L1138.61 169.034C1138.69 169.802 1138.91 170.471 1139.25 171.021C1139.55 171.506 1139.95 171.903 1140.44 172.204L1140 172.919ZM1183.75 142.729C1182.37 142.487 1180.99 142.305 1179.63 142.187L1179.7 141.352C1181.09 141.472 1182.5 141.658 1183.9 141.904L1183.75 142.729ZM1146.18 165.445L1145.36 165.626C1145.08 164.384 1144.68 163.058 1144.15 161.683L1144.94 161.382C1145.48 162.796 1145.9 164.163 1146.18 165.445ZM1139.1 165.07L1138.3 164.828C1138.68 163.569 1139.25 162.249 1139.99 160.901L1140.73 161.302C1140.02 162.598 1139.47 163.866 1139.1 165.07ZM1175.48 142.018C1174.09 142.026 1172.69 142.101 1171.33 142.242L1171.24 141.408C1172.64 141.265 1174.06 141.189 1175.47 141.181L1175.48 142.018ZM1167.22 142.869C1165.87 143.145 1164.51 143.493 1163.2 143.901L1162.95 143.1C1164.29 142.684 1165.67 142.33 1167.06 142.048L1167.22 142.869ZM1142.98 157.835L1142.82 157.718L1142.45 157.909C1141.96 156.955 1141.42 155.992 1140.83 155.047C1140.68 154.806 1140.53 154.564 1140.38 154.323L1141.08 153.867C1141.24 154.113 1141.39 154.359 1141.55 154.606C1141.98 155.306 1142.39 156.017 1142.78 156.727C1143.49 155.832 1144.25 154.95 1145.07 154.099L1145.67 154.677C1144.7 155.696 1143.79 156.759 1142.98 157.835ZM1159.29 145.329C1158.02 145.868 1156.76 146.477 1155.55 147.14L1155.15 146.405C1156.38 145.73 1157.67 145.108 1158.97 144.558L1159.29 145.329ZM1148.7 151.832L1148.16 151.193C1149.23 150.287 1150.37 149.422 1151.53 148.623L1152.01 149.314C1150.86 150.097 1149.75 150.944 1148.7 151.832ZM1137.97 150.946C1137.11 149.857 1136.2 148.801 1135.26 147.809L1135.87 147.231C1136.83 148.242 1137.76 149.318 1138.63 150.428L1137.97 150.946ZM1132.26 144.947C1131.21 144.038 1130.11 143.184 1128.99 142.409L1129.47 141.719C1130.61 142.511 1131.74 143.384 1132.81 144.313L1132.26 144.947ZM1125.46 140.246L1125.17 140.096C1124.01 139.485 1122.85 138.92 1121.72 138.416L1122.07 137.651C1123.21 138.163 1124.38 138.735 1125.57 139.354L1125.86 139.508L1125.46 140.246ZM1117.87 136.866C1116.51 136.385 1115.18 135.985 1113.9 135.676L1114.1 134.861C1115.41 135.177 1116.77 135.586 1118.15 136.075L1117.87 136.866ZM1109.83 134.964C1108.4 134.817 1107.01 134.794 1105.72 134.894L1105.65 134.059C1107 133.954 1108.44 133.978 1109.92 134.131L1109.83 134.964ZM1101.71 135.68C1100.79 135.986 1099.96 136.369 1099.23 136.817C1098.55 137.241 1098.21 137.572 1098.21 137.575L1097.61 136.985C1097.63 136.969 1098.01 136.588 1098.79 136.105C1099.57 135.622 1100.46 135.212 1101.44 134.885L1101.71 135.68Z" fill="#3D4C65"/>
<path d="M1115.73 199.713C1115.73 199.713 1095.96 248.452 1095.3 250.077C1094.64 251.702 1028.99 225.299 1027.77 224.26C1026.54 223.221 1052.37 173.477 1052.92 173.868C1061.21 179.704 1115.73 199.713 1115.73 199.713Z" fill="#B7EFF9"/>
<path d="M1115.66 249.599L1115.71 199.682L1095.26 250.068L1115.66 249.599Z" fill="#3D4C65"/>
<path d="M1057.91 182.573C1056.92 182.299 1055.88 181.807 1055.15 180.933C1054.19 179.775 1053.96 178.188 1054.46 176.216C1055.24 173.197 1057.09 172.399 1058.13 172.191C1059.78 171.863 1061.6 172.57 1062.66 173.951C1063.74 175.365 1063.85 177.185 1062.97 178.946L1062.22 178.568C1062.95 177.104 1062.87 175.606 1061.99 174.458C1061.12 173.326 1059.64 172.745 1058.3 173.013C1056.84 173.304 1055.77 174.516 1055.28 176.426C1054.84 178.124 1055.02 179.461 1055.8 180.4C1057.35 182.264 1060.8 182.067 1060.84 182.064L1060.89 182.9C1060.8 182.906 1059.4 182.985 1057.91 182.573Z" fill="#3D4C65"/>
<path d="M1067.83 187.328C1066.84 187.054 1065.81 186.563 1065.08 185.688C1064.11 184.53 1063.88 182.943 1064.39 180.971C1065.16 177.952 1067.01 177.154 1068.05 176.946C1069.7 176.617 1071.52 177.324 1072.58 178.706C1073.66 180.119 1073.78 181.94 1072.89 183.701L1072.14 183.322C1072.87 181.858 1072.79 180.361 1071.91 179.213C1071.05 178.081 1069.56 177.499 1068.22 177.768C1066.76 178.059 1065.69 179.271 1065.2 181.181C1064.76 182.878 1064.94 184.214 1065.72 185.152C1067.27 187.015 1070.72 186.822 1070.76 186.819L1070.82 187.655C1070.72 187.661 1069.33 187.74 1067.83 187.328Z" fill="#3D4C65"/>
<path d="M1078.78 191.224C1077.79 190.95 1076.75 190.458 1076.03 189.584C1075.06 188.426 1074.83 186.839 1075.34 184.867C1076.11 181.848 1077.96 181.05 1079 180.842C1080.65 180.513 1082.47 181.22 1083.53 182.602C1084.61 184.015 1084.73 185.836 1083.84 187.597L1083.09 187.218C1083.82 185.754 1083.74 184.257 1082.86 183.109C1082 181.977 1080.51 181.395 1079.17 181.664C1077.71 181.955 1076.64 183.167 1076.15 185.077C1075.71 186.775 1075.89 188.112 1076.67 189.05C1078.22 190.915 1081.67 190.717 1081.71 190.715L1081.76 191.551C1081.67 191.557 1080.28 191.636 1078.78 191.224Z" fill="#3D4C65"/>
<path d="M1090.97 195.218C1089.97 194.944 1088.94 194.453 1088.21 193.578C1087.24 192.42 1087.01 190.833 1087.52 188.861C1088.29 185.842 1090.15 185.044 1091.18 184.837C1092.83 184.508 1094.65 185.215 1095.71 186.597C1096.8 188.01 1096.91 189.831 1096.02 191.592L1095.27 191.213C1096.01 189.749 1095.93 188.252 1095.05 187.104C1094.18 185.971 1092.69 185.39 1091.35 185.658C1089.89 185.949 1088.82 187.161 1088.33 189.071C1087.9 190.768 1088.07 192.104 1088.85 193.043C1090.4 194.905 1093.85 194.712 1093.89 194.71L1093.95 195.545C1093.85 195.551 1092.46 195.631 1090.97 195.218Z" fill="#3D4C65"/>
<path d="M1103.84 199.85C1102.85 199.576 1101.81 199.084 1101.08 198.209C1100.12 197.051 1099.89 195.464 1100.39 193.492C1101.17 190.473 1103.02 189.675 1104.06 189.468C1105.71 189.139 1107.53 189.846 1108.59 191.228C1109.67 192.641 1109.78 194.462 1108.89 196.223L1108.14 195.844C1108.88 194.38 1108.8 192.883 1107.92 191.735C1107.05 190.603 1105.57 190.021 1104.23 190.289C1102.77 190.58 1101.7 191.792 1101.21 193.702C1100.77 195.399 1100.95 196.735 1101.73 197.674C1103.27 199.535 1106.73 199.343 1106.76 199.341L1106.82 200.176C1106.73 200.183 1105.33 200.262 1103.84 199.85Z" fill="#3D4C65"/>
<path d="M1089.32 242.081L1034.56 221.049L1051.52 183.795L1106.96 204.964L1089.32 242.081ZM1035.7 220.588L1088.89 241.02L1105.81 205.42L1051.96 184.858L1035.7 220.588Z" fill="#3D4C65"/>
<path d="M1059.13 187.418L1043.16 223.908L1043.94 224.246L1059.91 187.756L1059.13 187.418Z" fill="#3D4C65"/>
<path d="M1096.08 201.211L1079.9 238.007L1080.67 238.346L1096.86 201.551L1096.08 201.211Z" fill="#3D4C65"/>
<path d="M1083.27 196.308L1065.79 232.575L1066.54 232.941L1084.03 196.674L1083.27 196.308Z" fill="#3D4C65"/>
<path d="M1070.84 191.58L1054.59 228.292L1055.36 228.633L1071.61 191.921L1070.84 191.58Z" fill="#3D4C65"/>
<path d="M1048.47 191.522L1048.15 192.298L1102.24 213.947L1102.55 213.171L1048.47 191.522Z" fill="#3D4C65"/>
<path d="M1043.46 202.507L1043.15 203.282L1096.99 224.972L1097.31 224.197L1043.46 202.507Z" fill="#3D4C65"/>
<path d="M1038.6 213.166L1038.3 213.945L1092.32 234.825L1092.62 234.046L1038.6 213.166Z" fill="#3D4C65"/>
<path d="M1066.42 206.283C1066.42 206.283 1072.06 200.551 1075.51 206.069C1078.99 211.637 1068.36 214.541 1066.01 209.622C1066.01 209.622 1071.86 211.805 1074.02 208.938C1076.17 206.07 1069.76 204.299 1066.42 206.283Z" fill="#D53D3D"/>
<path d="M258.919 208.417C258.919 208.417 304.041 191.022 306.611 193.307C309.18 195.593 332.735 266.619 330.829 267.997C328.923 269.375 286.197 283.821 283.372 284.337C280.546 284.853 255.223 209.824 258.919 208.417Z" fill="#B7EFF9"/>
<path d="M264.829 210.099C264.829 210.099 299.869 196.802 301.854 198.521C303.838 200.239 321.858 253.833 320.375 254.88C318.893 255.928 285.72 266.989 283.528 267.388C281.336 267.788 261.958 211.175 264.829 210.099Z" fill="#3D4C65"/>
<path d="M305.732 272.085C308.314 271.653 310.056 269.216 309.622 266.643C309.188 264.07 306.743 262.334 304.16 262.767C301.578 263.199 299.836 265.635 300.27 268.209C300.704 270.782 303.149 272.517 305.732 272.085Z" fill="#798B97"/>
<path d="M269.243 215.868C269.243 215.868 288.746 208.299 290.182 208.478C291.618 208.657 292.844 213.844 292.501 214.381C292.157 214.917 271.513 221.445 270.795 221.669C270.077 221.893 267.813 216.419 269.243 215.868Z" fill="#87BECA"/>
<path d="M290.261 240.393C290.261 240.393 310.512 232.751 311.948 232.93C313.384 233.109 314.643 238.067 314.299 238.604C313.956 239.141 293.753 246.382 292.44 246.376C291.687 246.372 288.83 240.945 290.261 240.393Z" fill="#87BECA"/>
<path d="M271.514 223.947C271.514 223.947 284.977 219.21 286.413 219.389C287.849 219.568 289.26 223.882 288.916 224.419C288.572 224.956 274.565 229.223 273.847 229.447C273.129 229.671 270.776 224.419 271.514 223.947Z" fill="#87BECA"/>
<path d="M299.093 246.314C299.093 246.314 313.245 241.33 314.681 241.508C316.117 241.687 317.528 246.002 317.184 246.538C316.841 247.075 302.868 251.573 300.204 252.277C299.477 252.469 297.662 246.866 299.093 246.314Z" fill="#87BECA"/>
<path d="M275.104 232.295C275.104 232.295 288.568 227.558 290.004 227.737C291.44 227.916 292.851 232.23 292.507 232.767C292.163 233.303 277.438 237.794 276.72 238.019C276.002 238.243 273.674 232.846 275.104 232.295Z" fill="#87BECA"/>
<path d="M311.691 181.417C311.691 181.417 295.023 175.13 288.149 189.844C282.63 201.658 290.582 211.571 302.454 214.914C301.04 216.655 299.244 218.951 299.141 219.495C298.97 220.4 314.811 219.279 319.855 212.795C319.855 212.794 319.856 212.793 319.857 212.792C327.92 205.356 328.433 187.574 311.691 181.417Z" fill="white"/>
<path d="M303.51 207.627C303.51 207.627 295.301 189.94 300.925 187.764C306.549 185.588 307.224 196.823 307.224 196.823C307.224 196.823 311.128 189.061 314.185 189.851C320.83 191.566 311.299 203.881 303.51 207.627Z" fill="#D53D3D"/>
</g>
<defs>
<clipPath id="clip0">
<rect width="1296.74" height="356" fill="white"/>
</clipPath>
</defs>
</svg>
