<svg width="46" height="46" viewBox="0 0 46 46" fill="none" xmlns="http://www.w3.org/2000/svg">
<path fill-rule="evenodd" clip-rule="evenodd" d="M2.975 2.975V18.275H18.275V2.975H2.975ZM2.75 0.5C1.50736 0.5 0.5 1.50736 0.5 2.75V18.5C0.5 19.7426 1.50736 20.75 2.75 20.75H18.5C19.7426 20.75 20.75 19.7426 20.75 18.5V2.75C20.75 1.50736 19.7426 0.5 18.5 0.5H2.75Z" fill="#989898"/>
<path fill-rule="evenodd" clip-rule="evenodd" d="M27.725 2.975V18.275H43.025V2.975H27.725ZM27.5 0.5C26.2574 0.5 25.25 1.50736 25.25 2.75V18.5C25.25 19.7426 26.2574 20.75 27.5 20.75H43.25C44.4926 20.75 45.5 19.7426 45.5 18.5V2.75C45.5 1.50736 44.4926 0.5 43.25 0.5H27.5Z" fill="#989898"/>
<path fill-rule="evenodd" clip-rule="evenodd" d="M2.975 27.725V43.025H18.275V27.725H2.975ZM2.75 25.25C1.50736 25.25 0.5 26.2574 0.5 27.5V43.25C0.5 44.4926 1.50736 45.5 2.75 45.5H18.5C19.7426 45.5 20.75 44.4926 20.75 43.25V27.5C20.75 26.2574 19.7426 25.25 18.5 25.25H2.75Z" fill="#989898"/>
<path fill-rule="evenodd" clip-rule="evenodd" d="M27.725 27.725V43.025H43.025V27.725H27.725ZM27.5 25.25C26.2574 25.25 25.25 26.2574 25.25 27.5V43.25C25.25 44.4926 26.2574 45.5 27.5 45.5H43.25C44.4926 45.5 45.5 44.4926 45.5 43.25V27.5C45.5 26.2574 44.4926 25.25 43.25 25.25H27.5Z" fill="#989898"/>
<path fill-rule="evenodd" clip-rule="evenodd" d="M3.225 3.225V18.025H18.025V3.225H3.225ZM0.25 2.75C0.25 1.36929 1.36929 0.25 2.75 0.25H18.5C19.8807 0.25 21 1.36929 21 2.75V18.5C21 19.8807 19.8807 21 18.5 21H2.75C1.36929 21 0.25 19.8807 0.25 18.5V2.75ZM27.975 3.225V18.025H42.775V3.225H27.975ZM25 2.75C25 1.36929 26.1193 0.25 27.5 0.25H43.25C44.6307 0.25 45.75 1.36929 45.75 2.75V18.5C45.75 19.8807 44.6307 21 43.25 21H27.5C26.1193 21 25 19.8807 25 18.5V2.75ZM3.225 27.975V42.775H18.025V27.975H3.225ZM0.25 27.5C0.25 26.1193 1.36929 25 2.75 25H18.5C19.8807 25 21 26.1193 21 27.5V43.25C21 44.6307 19.8807 45.75 18.5 45.75H2.75C1.36929 45.75 0.25 44.6307 0.25 43.25V27.5ZM27.975 27.975V42.775H42.775V27.975H27.975ZM25 27.5C25 26.1193 26.1193 25 27.5 25H43.25C44.6307 25 45.75 26.1193 45.75 27.5V43.25C45.75 44.6307 44.6307 45.75 43.25 45.75H27.5C26.1193 45.75 25 44.6307 25 43.25V27.5ZM2.975 2.975H18.275V18.275H2.975V2.975ZM0.5 2.75C0.5 1.50736 1.50736 0.5 2.75 0.5H18.5C19.7426 0.5 20.75 1.50736 20.75 2.75V18.5C20.75 19.7426 19.7426 20.75 18.5 20.75H2.75C1.50736 20.75 0.5 19.7426 0.5 18.5V2.75ZM27.725 2.975H43.025V18.275H27.725V2.975ZM25.25 2.75C25.25 1.50736 26.2574 0.5 27.5 0.5H43.25C44.4926 0.5 45.5 1.50736 45.5 2.75V18.5C45.5 19.7426 44.4926 20.75 43.25 20.75H27.5C26.2574 20.75 25.25 19.7426 25.25 18.5V2.75ZM2.975 43.025H18.275V27.725H2.975V43.025ZM2.75 25.25C1.50736 25.25 0.5 26.2574 0.5 27.5V43.25C0.5 44.4926 1.50736 45.5 2.75 45.5H18.5C19.7426 45.5 20.75 44.4926 20.75 43.25V27.5C20.75 26.2574 19.7426 25.25 18.5 25.25H2.75ZM27.725 27.725H43.025V43.025H27.725V27.725ZM25.25 27.5C25.25 26.2574 26.2574 25.25 27.5 25.25H43.25C44.4926 25.25 45.5 26.2574 45.5 27.5V43.25C45.5 44.4926 44.4926 45.5 43.25 45.5H27.5C26.2574 45.5 25.25 44.4926 25.25 43.25V27.5Z" fill="#989898"/>
</svg>
