<svg width="45" height="50" viewBox="0 0 45 50" fill="none" xmlns="http://www.w3.org/2000/svg">
<path d="M22.5599 2.4039C22.8784 2.4039 23.1896 2.27525 23.4161 2.05158C23.6413 1.82809 23.7711 1.51803 23.7711 1.20195C23.7711 0.885875 23.6415 0.575622 23.4161 0.352134C23.1896 0.128646 22.8784 0 22.5599 0C22.2414 0 21.9289 0.128458 21.7035 0.352134C21.477 0.575622 21.3486 0.885875 21.3486 1.20195C21.3486 1.51803 21.477 1.82809 21.7035 2.05158C21.9289 2.27525 22.2414 2.4039 22.5599 2.4039Z" fill="#989898"/>
<path d="M43.3769 41.1056H40.7124V8.89443C40.7124 7.56891 39.6257 6.49053 38.2901 6.49053H35.8676V1.20195C35.8676 0.538248 35.325 0 34.6562 0H27.1065C26.4375 0 25.8951 0.538248 25.8951 1.20195C25.8951 1.86565 26.4375 2.4039 27.1065 2.4039H33.4451V6.49053H11.6432V2.4039H18.0222C18.691 2.4039 19.2333 1.86565 19.2333 1.20195C19.2333 0.538248 18.691 0 18.0222 0H10.4321C9.76309 0 9.22071 0.538248 9.22071 1.20195V6.49053H6.79841C5.46255 6.49053 4.37591 7.56891 4.37591 8.89443V41.1056H1.71115C1.04238 41.1056 0.5 41.6438 0.5 42.3075V50H44.5885V42.3075C44.5885 41.6438 44.0459 41.1056 43.3769 41.1056ZM29.4077 8.89443H38.2901V18.0293H29.4077V8.89443ZM29.4077 20.4332H38.2901V29.568H29.4077V20.4332ZM29.4077 31.9717H38.2901V41.1056H29.4077V31.9717ZM18.1029 8.89443H26.9854V18.0293H18.1029V8.89443ZM18.1029 20.4332H26.9854V29.568H18.1029V20.4332ZM18.1029 31.9717H26.9854V41.1056H18.1029V31.9717ZM6.79841 8.89443H15.6804V18.0293H6.79841V8.89443ZM6.79841 20.4332H15.6804V29.568H6.79841V20.4332ZM6.79841 31.9717H15.6804V41.1056H6.79841V31.9717ZM42.1658 47.5963H2.92249V43.5093H42.1658V47.5963Z" fill="#989898"/>
</svg>
