<svg width="41" height="50" viewBox="0 0 41 50" fill="none" xmlns="http://www.w3.org/2000/svg">
<path d="M27.1935 23.305C29.0496 21.5269 30.2087 19.027 30.2087 16.2597V10.927C31.052 9.81848 31.5539 8.4367 31.5539 6.93944V1.36338C31.5539 0.610384 30.9436 0 30.1906 0H18.9543C14.3948 0 10.6852 3.70947 10.6852 8.26914V16.2597C10.6852 19.0269 11.8445 21.5269 13.7004 23.305C6.10001 23.5748 0 29.8409 0 37.5059V48.6366C0 49.3896 0.610383 50 1.36338 50H39.5305C40.2835 50 40.8939 49.3896 40.8939 48.6366V37.5059C40.8939 29.841 34.7939 23.5749 27.1935 23.305ZM18.9545 2.72689H28.8273V6.93958C28.8273 9.07544 27.0897 10.8131 24.954 10.8131H13.4122V8.26928C13.4122 5.21314 15.8983 2.72689 18.9545 2.72689ZM13.4121 16.2599V13.5397H24.9538C25.849 13.5397 26.7029 13.3597 27.482 13.0354V16.2599C27.482 20.1391 24.3262 23.2949 20.4469 23.2949C16.5677 23.2949 13.4121 20.1391 13.4121 16.2599ZM25.9769 26.0216L20.6469 35.0554L15.317 26.0216H25.9769ZM38.1673 47.2732H35.0987V37.7384C35.0987 36.9854 34.4883 36.375 33.7353 36.375C32.9824 36.375 32.372 36.9854 32.372 37.7384V47.2732H8.92192V37.7384C8.92192 36.9854 8.31154 36.375 7.55855 36.375C6.80556 36.375 6.19517 36.9854 6.19517 37.7384V47.2732H2.72689V37.5059C2.72689 31.8416 6.85 27.1253 12.2517 26.1923L19.4727 38.4312C19.7178 38.8468 20.1645 39.1017 20.647 39.1017C21.1294 39.1017 21.576 38.8466 21.8212 38.4312L29.0039 26.2576C34.2275 27.3339 38.1673 31.9685 38.1673 37.506L38.1673 47.2732Z" fill="#989898"/>
<path d="M29.168 38.423H27.2593C26.5063 38.423 25.8959 39.0334 25.8959 39.7864C25.8959 40.5394 26.5063 41.1498 27.2593 41.1498H29.168C29.921 41.1498 30.5314 40.5394 30.5314 39.7864C30.5314 39.0334 29.921 38.423 29.168 38.423Z" fill="#989898"/>
<path d="M18.1837 15.857C17.9302 15.6034 17.5798 15.4575 17.2198 15.4575C16.8613 15.4575 16.5095 15.6034 16.2559 15.857C16.0023 16.1106 15.8565 16.4623 15.8565 16.8209C15.8565 17.1795 16.0023 17.5312 16.2559 17.7848C16.5095 18.0384 16.8613 18.1843 17.2198 18.1843C17.5798 18.1843 17.9302 18.0384 18.1837 17.7848C18.4387 17.5312 18.5832 17.1795 18.5832 16.8209C18.5832 16.4623 18.4387 16.1106 18.1837 15.857Z" fill="#989898"/>
<path d="M24.638 15.857C24.3844 15.6034 24.0326 15.4575 23.674 15.4575C23.3141 15.4575 22.9637 15.6034 22.7101 15.857C22.4552 16.1106 22.3107 16.461 22.3107 16.8209C22.3107 17.1795 22.4552 17.5312 22.7101 17.7848C22.9637 18.0384 23.3155 18.1843 23.674 18.1843C24.0326 18.1843 24.3844 18.0384 24.638 17.7848C24.8915 17.5312 25.0374 17.1795 25.0374 16.8209C25.0374 16.4623 24.8915 16.1106 24.638 15.857Z" fill="#989898"/>
</svg>
