<svg width="1074" height="356" viewBox="0 0 1074 356" fill="none" xmlns="http://www.w3.org/2000/svg">
<g clip-path="url(#clip0)">
<path d="M410.918 45.6669C424.599 46.5842 430.322 37.2311 436.749 25.2097C454.347 -7.70197 493.536 -4.53049 506.682 15.7355C515.992 30.0903 536.071 27.1374 552.315 21.5193C568.302 15.9899 595.54 10.6778 617.234 17.2856C636.184 23.057 643.959 43.8785 661.232 42.5978C698.914 39.8035 717.911 77.0815 711.086 93.3392C706.632 103.951 704.421 115.821 708.041 126.74C712.032 138.766 721.142 148.286 728.506 158.624C735.871 168.962 741.802 181.885 738.141 194.014C735.009 204.391 725.663 211.572 719.862 220.749C701.848 249.248 719.669 292.925 695.665 316.679C678.484 333.683 650.471 329.759 626.43 333.003C606.381 335.711 587.514 344.147 567.557 347.452C527.142 354.147 486.326 339.402 445.353 338.986C430.92 338.84 416.218 340.452 402.239 336.885C383.588 332.127 367.717 317.747 361.247 299.746C352.317 274.905 360.778 246.157 350.69 221.757C342.473 201.88 322.377 185.708 323.641 164.26C324.429 150.907 333.533 139.737 339.794 127.892C349.1 110.289 336.778 40.6951 410.918 45.6669ZM530.185 13.4221C526.589 13.4221 523.675 15.6597 523.675 18.4198C523.675 21.18 526.597 23.1801 530.185 23.4176C541.877 24.1916 541.877 19.4554 541.877 16.6952C541.877 12.2856 533.78 13.4221 530.185 13.4221ZM648.924 34.734C652.051 37.3212 656.035 38.8701 660.099 39.079C661.186 39.1348 662.367 39.0658 663.204 38.3768C664.24 37.5242 664.352 35.7821 663.432 34.806C662.855 34.1917 662.013 33.9158 661.229 33.5969C659.893 33.0529 658.583 32.2736 657.826 31.0525C657.606 30.6978 657.418 30.2918 657.052 30.0863C654.79 28.8112 644.809 31.3298 648.924 34.734ZM668.84 39.1493C669.868 39.5053 670.997 39.1772 672.032 38.8403C672.697 38.6242 673.513 38.1481 673.333 37.4773C673.247 37.154 672.944 36.9395 672.647 36.7806C671.284 36.0498 669.516 35.5112 668.146 36.446C666.775 37.3807 667.81 38.7932 668.84 39.1493ZM716.39 133.285C716.568 134.84 717.525 136.182 718.452 137.449C720.238 139.891 722.054 142.362 724.411 144.267C725.409 145.073 726.569 145.794 727.855 145.839C729.026 145.88 730.148 145.348 731.098 144.666C733.411 143.005 734.972 140.35 735.293 137.533C735.73 133.67 733.936 129.908 731.85 126.617C730.559 124.578 729.052 122.547 726.89 121.454C723.265 119.622 720.869 121.221 719.857 124.438C718.924 127.398 716.013 129.988 716.39 133.285ZM330.7 223.245C328.791 224.93 330.513 229.861 331.076 233.116C331.245 234.092 331.471 235.101 332.086 235.88C332.928 236.947 334.325 237.385 335.634 237.765C337.958 238.439 340.774 239.013 342.549 237.377C343.865 236.163 344.052 234.186 344.049 232.403C344.047 230.774 343.959 229.146 343.787 227.525C343.704 226.748 343.592 225.946 343.177 225.281C342.645 224.431 341.7 223.935 340.773 223.542C337.449 222.133 332.609 221.559 330.7 223.245ZM447.375 346.781C446.245 347.008 444.897 347.498 444.734 348.629C444.599 349.565 445.385 350.363 446.145 350.931C452.375 355.589 460.759 355.887 468.559 355.996C469.469 356.008 470.411 356.014 471.251 355.661C472.919 354.957 473.719 352.756 472.942 351.129C472.658 350.537 472.212 350.036 471.739 349.576C465.473 343.464 455.172 345.214 447.375 346.781ZM602.97 343.63C595.937 348.786 603.049 353.385 611.931 349.972C616.717 348.132 621.306 346.315 626.203 345.084C627.786 344.686 637.358 342.613 637.36 340.458C637.363 334.747 626.575 336.096 619.791 337.047C614.321 337.815 608.768 339.379 602.97 343.63Z" fill="#ECF6FF"/>
<path d="M559.715 97.2371C559.715 97.2371 554.76 113.963 551.707 114.325C547.326 114.844 552.48 85.3457 552.48 85.3457L559.715 97.2371Z" fill="#003386"/>
<path d="M503.34 91.4255C503.34 91.4255 507.643 109.271 514.677 113.337C514.677 113.337 509.195 99.2869 509.108 95.98C509.022 92.6732 503.34 91.4255 503.34 91.4255Z" fill="#003386"/>
<path d="M539.412 128.951C539.412 128.951 538.051 141.028 550.975 141.264C558.647 141.404 542.502 154.076 539.162 156.01C535.822 157.944 524.983 156.848 524.983 156.848L513.622 140.386L517.882 140.378C525.534 140.733 528.186 136.342 529.46 130.308C529.475 130.238 529.49 130.168 529.504 130.097C530.938 123.029 539.412 128.951 539.412 128.951Z" fill="white" stroke="#282425" stroke-width="0.920872" stroke-miterlimit="10" stroke-linecap="round" stroke-linejoin="round"/>
<path d="M529.46 130.308C529.475 130.238 529.49 130.168 529.504 130.097C530.938 123.029 539.412 128.951 539.412 128.951C539.412 128.951 538.971 132.362 540.545 135.459C539.659 136.092 538.386 136.527 534.901 136.749C532.411 136.907 530.212 136.327 527.803 135.286C528.824 133.891 529.085 132.086 529.46 130.308Z" fill="#FFC8C1"/>
<path d="M555.275 97.184C555.275 97.184 551.435 134.261 534.772 134.027C518.109 133.794 508.634 96.2122 508.634 96.2122L537.748 81.9736C537.748 81.9736 548.694 89.3227 548.892 89.7674C549.091 90.2122 555.275 97.184 555.275 97.184Z" fill="#FFD9D2"/>
<path d="M553.197 104.841C553.197 104.841 559.266 102.151 557.577 106.404C555.888 110.658 552.096 109.941 552.096 109.941L553.197 104.841Z" fill="#FFD9D2"/>
<path d="M553.758 106.334C553.758 106.334 556.26 104.422 556.22 106.409C556.194 107.681 553.33 108.267 553.33 108.267L553.758 106.334Z" fill="#FFC8C1"/>
<path d="M511.786 104.25C511.786 104.25 505.513 102.079 507.553 106.176C509.594 110.272 513.312 109.239 513.312 109.239L511.786 104.25Z" fill="#FFD9D2"/>
<path d="M511.352 105.784C511.352 105.784 508.699 104.089 508.906 106.066C509.038 107.331 511.942 107.675 511.942 107.675L511.352 105.784Z" fill="#FFC8C1"/>
<path d="M538.482 110.686C537.288 109.583 536.595 108.082 536.531 106.459C536.465 104.836 537.036 103.284 538.137 102.09C539.24 100.896 540.74 100.203 542.364 100.139C543.98 100.054 545.537 100.643 546.733 101.745C547.927 102.848 548.62 104.349 548.684 105.972C548.75 107.595 548.178 109.147 547.077 110.341C545.975 111.535 544.474 112.228 542.851 112.292C542.735 112.298 542.621 112.3 542.505 112.298C541.008 112.275 539.591 111.709 538.482 110.686ZM542.402 101.078C541.029 101.133 539.762 101.719 538.83 102.729C537.898 103.737 537.416 105.049 537.47 106.421C537.525 107.794 538.111 109.061 539.12 109.993C540.13 110.924 541.443 111.384 542.813 111.353C544.186 111.298 545.453 110.712 546.385 109.702C547.316 108.694 547.798 107.382 547.745 106.01C547.69 104.637 547.104 103.368 546.094 102.436C545.158 101.573 543.96 101.095 542.697 101.075C542.598 101.073 542.501 101.074 542.402 101.078Z" fill="#003386"/>
<path d="M520.996 111.385C519.802 110.282 519.11 108.781 519.045 107.158C518.979 105.535 519.551 103.983 520.652 102.789C521.755 101.595 523.255 100.902 524.879 100.838C528.197 100.673 531.064 103.321 531.199 106.671C531.265 108.294 530.695 109.846 529.592 111.04C528.489 112.234 526.989 112.927 525.366 112.991C525.25 112.997 525.134 112.999 525.018 112.997C523.521 112.974 522.106 112.408 520.996 111.385ZM524.916 101.777C523.543 101.832 522.276 102.418 521.345 103.428C520.413 104.436 519.931 105.748 519.984 107.12C520.04 108.493 520.625 109.762 521.635 110.694C522.645 111.625 523.966 112.113 525.328 112.052C526.701 111.997 527.97 111.411 528.901 110.402C529.833 109.392 530.315 108.082 530.26 106.709C530.149 103.972 527.91 101.816 525.204 101.774C525.109 101.772 525.013 101.775 524.916 101.777Z" fill="#003386"/>
<path d="M533.061 107.554C535.197 107.588 537.054 106.921 537.161 106.882L536.839 105.998C536.805 106.011 533.51 107.186 530.887 106.248L530.571 107.132C531.387 107.425 532.245 107.542 533.061 107.554Z" fill="#003386"/>
<path d="M509.199 102.012L508.815 102.869L519.323 107.568L519.707 106.711L509.199 102.012Z" fill="#003386"/>
<path d="M555.003 102.667L548.034 105.556L548.395 106.425L555.363 103.536L555.003 102.667Z" fill="#003386"/>
<path d="M546.963 109.02C546.799 109.272 546.622 109.516 546.413 109.74C545.58 110.649 544.457 111.201 543.236 111.344L540.206 101.61C540.876 101.261 541.613 101.045 542.393 101.02C543.181 100.977 543.947 101.14 544.656 101.449L546.963 109.02Z" fill="url(#paint0_linear)"/>
<path d="M540.681 111.046L538.113 103.592C538.304 103.27 538.522 102.962 538.783 102.683C538.908 102.546 539.054 102.438 539.191 102.317L541.85 111.342C541.449 111.284 541.055 111.195 540.681 111.046Z" fill="url(#paint1_linear)"/>
<path d="M529.447 109.733C529.286 109.98 529.111 110.221 528.906 110.44C528.087 111.334 526.984 111.877 525.783 112.018L522.803 102.447C523.462 102.103 524.187 101.891 524.953 101.867C525.728 101.824 526.482 101.985 527.179 102.289L529.447 109.733Z" fill="url(#paint2_linear)"/>
<path d="M523.271 111.724L520.746 104.395C520.933 104.079 521.148 103.776 521.404 103.501C521.527 103.367 521.671 103.261 521.806 103.142L524.42 112.016C524.026 111.958 523.638 111.871 523.271 111.724Z" fill="url(#paint3_linear)"/>
<path d="M559.715 97.2371C559.715 97.2371 554.76 113.963 551.707 114.325C547.326 114.844 552.48 85.3457 552.48 85.3457L559.715 97.2371Z" fill="#434784"/>
<path d="M503.34 91.4255C503.34 91.4255 507.643 109.271 514.677 113.337C514.677 113.337 509.195 99.2869 509.108 95.98C509.022 92.6732 503.34 91.4255 503.34 91.4255Z" fill="#434784"/>
<path d="M555.275 97.184C555.275 97.184 551.435 134.261 534.772 134.027C518.109 133.794 508.634 96.2122 508.634 96.2122L537.748 81.9736C537.748 81.9736 548.694 89.3227 548.892 89.7674C549.091 90.2122 555.275 97.184 555.275 97.184Z" fill="white" stroke="#282425" stroke-width="0.920872" stroke-miterlimit="10" stroke-linecap="round" stroke-linejoin="round"/>
<path d="M514.871 101.97C514.871 101.97 514.091 106.793 507.98 106.366C501.87 105.939 492.63 101.316 496.041 90.9992C497.87 85.4683 503.277 84.2663 504.363 82.7633C505.45 81.2601 503.619 76.4197 507.785 69.6915C511.951 62.9631 524.265 65.697 524.265 65.697C531.413 63.6082 540.43 61.6802 545.571 71.4718C545 71.6447 556.133 70.4662 557.989 78.7854C559.845 87.1047 555.973 88.5087 555.973 88.5087C555.973 88.5087 565.26 90.0854 564.023 95.2207C562.786 100.356 555.017 101.605 551.369 98.1583C547.721 94.7114 543.268 92.6089 540.474 94.7753C537.68 96.9415 532.133 84.3076 526.615 90.0868C521.098 95.8661 521.137 105.579 514.871 101.97Z" fill="#434784"/>
<path d="M554.121 104.626C554.121 104.626 560.19 101.936 558.501 106.19C556.812 110.443 553.02 109.726 553.02 109.726L554.121 104.626Z" fill="white" stroke="#282425" stroke-width="0.920872" stroke-miterlimit="10" stroke-linecap="round" stroke-linejoin="round"/>
<path d="M511.59 104.25C511.59 104.25 505.316 102.079 507.357 106.176C509.397 110.272 513.115 109.239 513.115 109.239L511.59 104.25Z" fill="white" stroke="#282425" stroke-width="0.920872" stroke-miterlimit="10" stroke-linecap="round" stroke-linejoin="round"/>
<path d="M544.183 100.991C544.056 101.911 542.962 100.823 541.455 100.615C539.949 100.408 538.601 101.16 538.728 100.24C538.855 99.319 540.179 98.7409 541.685 98.9484C543.191 99.1559 544.31 100.07 544.183 100.991Z" fill="#324B66"/>
<path d="M538.482 110.686C537.288 109.583 536.595 108.082 536.531 106.459C536.465 104.836 537.036 103.284 538.137 102.09C539.24 100.896 540.74 100.203 542.364 100.139C543.98 100.054 545.537 100.643 546.733 101.745C547.927 102.848 548.62 104.349 548.684 105.972C548.75 107.595 548.178 109.147 547.077 110.341C545.975 111.535 544.474 112.228 542.851 112.292C542.735 112.298 542.621 112.3 542.505 112.298C541.008 112.275 539.591 111.709 538.482 110.686ZM542.402 101.078C541.029 101.133 539.762 101.719 538.83 102.729C537.898 103.737 537.416 105.049 537.47 106.421C537.525 107.794 538.111 109.061 539.12 109.993C540.13 110.924 541.443 111.384 542.813 111.353C544.186 111.298 545.453 110.712 546.385 109.702C547.316 108.694 547.798 107.382 547.745 106.01C547.69 104.637 547.104 103.368 546.094 102.436C545.158 101.573 543.96 101.095 542.697 101.075C542.598 101.073 542.501 101.074 542.402 101.078Z" fill="#003386"/>
<path d="M528.21 100.059C528.46 100.954 527.023 100.391 525.559 100.8C524.094 101.209 523.157 102.436 522.907 101.541C522.657 100.646 523.641 99.5888 525.106 99.1795C526.57 98.7701 527.96 99.1638 528.21 100.059Z" fill="#324B66"/>
<path d="M520.996 111.385C519.802 110.282 519.11 108.782 519.045 107.158C518.979 105.535 519.551 103.983 520.652 102.789C521.755 101.595 523.255 100.902 524.879 100.838C528.197 100.673 531.064 103.321 531.199 106.671C531.265 108.295 530.695 109.847 529.592 111.04C528.489 112.234 526.989 112.927 525.366 112.991C525.25 112.997 525.134 112.999 525.018 112.997C523.521 112.974 522.106 112.408 520.996 111.385ZM524.916 101.777C523.543 101.832 522.276 102.418 521.345 103.428C520.413 104.436 519.931 105.748 519.984 107.12C520.04 108.493 520.625 109.762 521.635 110.694C522.645 111.626 523.966 112.113 525.328 112.052C526.701 111.997 527.97 111.411 528.901 110.402C529.833 109.392 530.315 108.082 530.26 106.709C530.149 103.972 527.91 101.816 525.204 101.774C525.109 101.773 525.013 101.775 524.916 101.777Z" fill="#003386"/>
<path d="M533.061 107.554C535.197 107.588 537.054 106.921 537.161 106.882L536.839 105.998C536.805 106.011 533.51 107.186 530.887 106.248L530.571 107.132C531.387 107.425 532.245 107.542 533.061 107.554Z" fill="#003386"/>
<path d="M509.199 102.012L508.815 102.869L519.323 107.568L519.707 106.711L509.199 102.012Z" fill="#003386"/>
<path d="M555.003 102.667L548.034 105.556L548.395 106.425L555.363 103.536L555.003 102.667Z" fill="#003386"/>
<path d="M546.963 109.02C546.799 109.272 546.622 109.516 546.413 109.74C545.58 110.649 544.457 111.201 543.236 111.344L540.206 101.61C540.876 101.261 541.613 101.045 542.393 101.02C543.181 100.977 543.947 101.14 544.656 101.449L546.963 109.02Z" fill="url(#paint4_linear)"/>
<path d="M540.681 111.046L538.113 103.592C538.304 103.27 538.522 102.962 538.783 102.683C538.908 102.546 539.054 102.438 539.191 102.317L541.85 111.342C541.449 111.284 541.055 111.195 540.681 111.046Z" fill="url(#paint5_linear)"/>
<path d="M529.447 109.733C529.286 109.98 529.111 110.221 528.906 110.44C528.087 111.334 526.984 111.877 525.783 112.018L522.803 102.447C523.462 102.103 524.187 101.891 524.953 101.867C525.728 101.824 526.482 101.985 527.179 102.289L529.447 109.733Z" fill="url(#paint6_linear)"/>
<path d="M523.271 111.724L520.746 104.395C520.933 104.079 521.148 103.776 521.404 103.501C521.527 103.367 521.671 103.261 521.806 103.142L524.42 112.016C524.026 111.958 523.638 111.871 523.271 111.724Z" fill="url(#paint7_linear)"/>
<path d="M535.093 117.189C533.949 116.965 532.356 116.494 530.962 116.048L531.147 115.472C533.192 116.128 535.605 116.77 536.18 116.74C536.285 116.012 535.694 112.282 535.029 108.917L535.622 108.8C537.203 116.797 536.746 117.119 536.575 117.24C536.383 117.375 535.831 117.334 535.093 117.189Z" fill="#E36E71"/>
<path d="M526.72 110.694C527.46 110.577 527.925 109.635 527.76 108.589C527.595 107.543 526.862 106.789 526.123 106.906C525.383 107.023 524.917 107.965 525.082 109.011C525.247 110.057 525.981 110.811 526.72 110.694Z" fill="#324B66"/>
<path d="M543.717 108.864C543.854 107.814 543.363 106.884 542.62 106.788C541.878 106.691 541.166 107.464 541.029 108.514C540.892 109.564 541.383 110.494 542.125 110.59C542.867 110.687 543.58 109.914 543.717 108.864Z" fill="#324B66"/>
<path opacity="0.38" d="M527.822 119.386C528.313 117.869 527.482 116.241 525.965 115.75C524.449 115.258 522.821 116.089 522.329 117.606C521.838 119.123 522.669 120.751 524.185 121.242C525.702 121.734 527.33 120.903 527.822 119.386Z" fill="#DA5C5D"/>
<path opacity="0.38" d="M546.486 119.72C546.978 118.203 546.147 116.575 544.63 116.083C543.113 115.592 541.485 116.423 540.994 117.94C540.502 119.456 541.333 121.084 542.85 121.576C544.366 122.067 545.994 121.236 546.486 119.72Z" fill="#DA5C5D"/>
<path d="M534.975 127.96C534.851 127.919 534.722 127.853 534.589 127.755C532.7 126.359 532.475 123.418 532.466 123.294L533.069 123.252C533.071 123.28 533.286 126.04 534.948 127.269C535.206 127.459 535.387 127.424 535.501 127.382C536.364 127.061 537.2 124.66 537.524 123.223L538.113 123.356C538.021 123.769 537.161 127.409 535.712 127.948C535.528 128.017 535.27 128.059 534.975 127.96Z" fill="#E36E71"/>
<path opacity="0.35" d="M608.542 326.539C608.607 322.372 573.158 318.441 529.365 317.758C485.572 317.074 450.019 319.898 449.954 324.065C449.889 328.232 485.337 332.164 529.13 332.847C572.923 333.53 608.477 330.706 608.542 326.539Z" fill="#3D71F5"/>
<path d="M530.184 304.647C529.202 306.32 529.36 308.371 530.462 309.966C531.007 310.755 531.472 311.628 531.942 312.452C532.998 314.308 534.536 316.253 536.669 316.346C537.492 316.382 538.296 316.128 539.075 315.862C542.665 314.638 546.151 313.115 549.487 311.312C550.165 310.946 550.881 310.52 551.181 309.811C551.545 308.95 551.174 307.957 550.687 307.159C549.418 305.077 547.401 303.56 545.955 301.597C543.679 298.508 541.093 290.839 536.218 294.52C535.237 295.261 532.322 301.001 530.184 304.647Z" fill="white" stroke="#282425" stroke-width="0.920872" stroke-miterlimit="10" stroke-linecap="round" stroke-linejoin="round"/>
<path d="M518.747 300.01C511.186 300.765 503.563 301.911 496.073 303.209C495.521 303.305 494.955 303.422 494.391 303.557C491.668 306.669 490.932 310.161 491.8 315.178C492.401 318.655 494.105 321.585 498.282 324.319C503.108 324.195 523.034 321.946 527.352 318.017C529.278 316.264 530.823 313.765 530.796 310.992C530.733 304.663 524.044 299.48 518.747 300.01Z" fill="#FFAA02"/>
<path d="M491.8 315.178C490.932 310.161 491.668 306.668 494.39 303.557C491.933 304.14 489.516 305.183 488.532 307.594C487.967 308.976 488.002 310.569 488.126 312.095C488.495 316.627 488.093 324.58 498.282 324.319C494.105 321.585 492.401 318.655 491.8 315.178Z" fill="#B07501"/>
<path d="M493.081 318.991L489.331 319.545C489.54 320.047 489.784 320.532 490.089 320.984L493.992 320.408C493.65 319.944 493.34 319.474 493.081 318.991Z" fill="#CC8802"/>
<path d="M488.575 316.872C488.662 317.377 488.779 317.878 488.92 318.372L492.545 317.837C492.352 317.354 492.189 316.862 492.058 316.358L488.575 316.872Z" fill="#CC8802"/>
<path d="M488.266 314.133C488.301 314.63 488.346 315.143 488.405 315.664L491.797 315.163C491.707 314.637 491.643 314.136 491.588 313.642L488.266 314.133Z" fill="#CC8802"/>
<path d="M490.062 305.514C489.504 305.989 489.043 306.57 488.701 307.266L492.39 306.721C492.637 306.142 492.931 305.581 493.284 305.038L490.062 305.514Z" fill="#CC8802"/>
<path d="M491.489 310.872L488.083 311.375C488.096 311.615 488.106 311.857 488.126 312.095C488.147 312.356 488.166 312.63 488.184 312.912L491.497 312.422C491.47 311.888 491.468 311.371 491.489 310.872Z" fill="#CC8802"/>
<path d="M494.903 321.507L491.026 322.079C491.539 322.575 492.155 323.006 492.887 323.356L496.32 322.849C495.796 322.409 495.323 321.961 494.903 321.507Z" fill="#CC8802"/>
<path d="M488.242 308.567C488.131 309.079 488.082 309.608 488.067 310.144L491.597 309.623C491.673 309.07 491.785 308.537 491.931 308.022L488.242 308.567Z" fill="#CC8802"/>
<path d="M518.747 300.01C511.186 300.765 503.563 301.911 496.073 303.209C495.521 303.305 494.955 303.422 494.391 303.557C491.668 306.669 490.932 310.161 491.8 315.178C492.401 318.655 494.105 321.585 498.282 324.319C503.108 324.195 523.034 321.946 527.352 318.017C529.278 316.264 530.823 313.765 530.796 310.992C530.733 304.663 524.044 299.48 518.747 300.01Z" fill="#FFAA02"/>
<path d="M518.747 300.01C512.25 300.659 505.712 301.605 499.248 302.679C499.242 303.45 499.468 304.259 499.886 305.002C501.446 307.773 504.559 307.854 507.416 307.658C511.142 307.401 514.731 306.194 518.226 304.95C520.18 304.254 522.26 303.439 523.409 301.712C523.553 301.495 523.668 301.251 523.762 300.999C522.113 300.224 520.365 299.848 518.747 300.01Z" fill="#FCDDC8"/>
<path d="M523.932 315.748C521.767 315.195 519.473 315.058 517.208 315.261C516.004 315.369 514.808 315.572 513.615 315.775C512.284 316 510.953 316.226 509.622 316.452C507.96 316.734 506.277 317.022 504.727 317.681C503.673 318.129 502.638 318.809 502.207 319.81C501.865 320.603 501.951 321.486 502.152 322.301C502.295 322.884 502.497 323.449 502.748 323.992C509.747 323.298 521.457 321.53 526.144 318.858C526.372 317.964 526.163 316.966 525.435 316.389C525.014 316.055 524.47 315.885 523.932 315.748Z" fill="#B07501"/>
<path d="M522.867 304.987C522.801 304.086 523.157 303.218 523.828 302.614C525.57 301.046 529.071 298.428 531.026 300.64C533.7 303.667 534.925 314.863 534.139 316.172C533.353 317.482 527.244 317.6 525.189 314.993C523.637 313.026 523.058 307.553 522.867 304.987Z" fill="#FCDDC8"/>
<path d="M506.326 320.515C506.264 320.524 506.197 320.526 506.131 320.518C505.709 320.472 505.405 320.094 505.452 319.673L506.903 306.332C506.949 305.913 507.324 305.597 507.749 305.653C508.17 305.698 508.475 306.076 508.428 306.498L506.976 319.838C506.937 320.193 506.664 320.465 506.326 320.515Z" fill="white"/>
<path d="M509.674 320.02C509.336 320.07 508.996 319.889 508.856 319.561L503.612 307.209C503.445 306.818 503.627 306.369 504.018 306.203C504.412 306.027 504.858 306.222 505.023 306.609L510.268 318.961C510.434 319.352 510.252 319.802 509.862 319.967C509.801 319.994 509.736 320.011 509.674 320.02Z" fill="white"/>
<path d="M512.389 319.62C512.327 319.629 512.261 319.631 512.194 319.623C511.772 319.577 511.468 319.2 511.515 318.778L512.967 305.437C513.012 305.018 513.385 304.702 513.811 304.758C514.233 304.803 514.538 305.181 514.491 305.603L513.039 318.943C513 319.297 512.727 319.57 512.389 319.62Z" fill="white"/>
<path d="M515.737 319.125C515.399 319.175 515.058 318.994 514.919 318.666L509.675 306.313C509.508 305.923 509.69 305.473 510.081 305.308C510.473 305.132 510.921 305.327 511.086 305.714L516.331 318.067C516.497 318.457 516.315 318.907 515.924 319.072C515.863 319.099 515.799 319.116 515.737 319.125Z" fill="white"/>
<path d="M518.453 318.724C518.391 318.734 518.325 318.736 518.258 318.728C517.837 318.682 517.533 318.304 517.579 317.882L519.031 304.542C519.077 304.123 519.448 303.807 519.876 303.862C520.298 303.908 520.602 304.285 520.555 304.708L519.104 318.048C519.065 318.402 518.792 318.675 518.453 318.724Z" fill="white"/>
<path d="M521.801 318.23C521.463 318.28 521.123 318.099 520.984 317.771L515.739 305.418C515.572 305.028 515.755 304.578 516.145 304.413C516.536 304.237 516.986 304.431 517.151 304.819L522.395 317.171C522.562 317.562 522.38 318.012 521.989 318.177C521.928 318.204 521.864 318.221 521.801 318.23Z" fill="white"/>
<path d="M541.975 309.68C543.167 311.211 543.278 313.264 542.394 314.99C541.957 315.843 541.609 316.769 541.251 317.648C540.447 319.626 539.175 321.755 537.073 322.126C536.262 322.269 535.431 322.122 534.624 321.96C530.906 321.216 527.25 320.16 523.707 318.809C522.988 318.534 522.222 318.205 521.832 317.541C521.359 316.735 521.597 315.703 521.975 314.848C522.962 312.618 524.763 310.85 525.941 308.715C527.794 305.356 529.357 297.415 534.67 300.428C535.739 301.035 539.379 306.345 541.975 309.68Z" fill="white" stroke="#282425" stroke-width="0.920872" stroke-miterlimit="10" stroke-linecap="round" stroke-linejoin="round"/>
<path d="M583.29 243.73C583.29 243.73 611.809 214.749 625.91 227.414C628.335 229.592 630.725 236.599 629.428 242.267C624.361 264.41 590.785 300.004 566.152 323.923C566.152 323.923 559.217 318.018 543.732 301.331C532.665 289.405 532.692 287.655 532.692 287.655L583.29 243.73Z" fill="#3D71F6"/>
<path d="M546.516 292.637C546.516 292.637 530.389 314.464 519.717 323.12C517.355 325.036 513.973 324.985 511.694 322.971C496.567 309.608 438.65 256.978 436.263 251.835C429.036 236.258 444.986 224.85 460.82 228.275C476.654 231.699 546.516 292.637 546.516 292.637Z" fill="#3D71F6"/>
<path d="M519.614 323.202C517.286 325.078 513.936 324.952 511.695 322.972C496.571 309.612 438.65 256.978 436.263 251.835C434.485 248.002 434.116 244.423 434.797 241.254C437.56 241.48 440.383 242.557 442.705 244.084C450.714 249.349 455.049 258.587 461.592 265.591C469.308 273.853 479.883 278.784 490.384 282.972C500.884 287.159 511.742 290.88 520.984 297.39C525.858 300.824 530.443 305.396 531.419 311.325C531.415 311.339 531.411 311.352 531.408 311.367C527.399 315.927 523.194 320.317 519.614 323.202Z" fill="#1A65E8"/>
<path d="M565.028 289.787C570.833 287.172 577.542 287.002 583.238 284.158C591.929 279.817 596.514 270.288 600.484 261.423C603.227 255.297 605.97 249.171 608.713 243.046C611.39 237.069 615.066 230.294 621.543 229.324C623.621 229.013 625.752 229.379 627.749 230.031C629.336 233.193 630.384 238.091 629.428 242.267C624.361 264.41 590.785 300.004 566.152 323.923C566.152 323.923 560.83 319.39 549.104 307.052C552.706 299.829 557.738 293.072 565.028 289.787Z" fill="#1A65E8"/>
<path d="M591.856 248.591C591.599 248.562 591.339 248.543 591.09 248.498C586.633 247.691 582.734 244.883 581.054 241.272C580.315 239.683 579.749 237.046 580.113 234.867C581.194 234.697 582.264 234.54 583.352 234.361L591.856 248.591Z" fill="#003386"/>
<path d="M485.737 236.389C485.737 236.389 488.648 236.971 493.894 237.669C494.127 238.894 494.185 240.154 493.75 241.33C492.686 244.207 488.853 245.858 485.313 245.662C484.62 245.623 483.938 245.487 483.301 245.26L481.635 244.067L485.737 236.389Z" fill="#003386"/>
<path d="M583.981 235.29L595.649 254.818L535.957 287.284L482.429 243.494L486.531 235.816C486.531 235.816 529.028 244.357 583.981 235.29Z" fill="#8BC161" stroke="black" stroke-width="1.53479" stroke-miterlimit="10"/>
<path d="M591.856 248.591C591.599 248.562 591.339 248.543 591.09 248.498C586.633 247.691 582.734 244.883 581.054 241.272C580.315 239.683 579.749 237.046 580.113 234.867C581.194 234.697 582.264 234.54 583.352 234.361L591.856 248.591Z" fill="#618744"/>
<path d="M485.737 236.389C485.737 236.389 488.648 236.971 493.894 237.669C494.127 238.894 494.185 240.154 493.75 241.33C492.686 244.207 488.853 245.858 485.313 245.662C484.62 245.623 483.938 245.487 483.301 245.26L481.635 244.067L485.737 236.389Z" fill="#618744"/>
<path d="M583.29 243.73C583.29 243.73 611.809 214.749 625.91 227.414C628.335 229.592 630.725 236.599 629.428 242.267C624.361 264.41 590.785 300.004 566.152 323.923C566.152 323.923 559.217 318.018 543.732 301.331C532.665 289.405 532.692 287.655 532.692 287.655L583.29 243.73Z" fill="#9EDB6E"/>
<path d="M546.516 292.637C546.516 292.637 530.389 314.464 519.717 323.12C517.355 325.036 513.973 324.985 511.694 322.971C496.567 309.608 438.65 256.978 436.263 251.835C429.036 236.258 444.986 224.85 460.82 228.275C476.654 231.699 546.516 292.637 546.516 292.637Z" fill="#9EDB6E"/>
<path d="M520.349 322.596C517.669 324.853 513.735 324.779 511.112 322.457C495.141 308.312 438.62 256.915 436.263 251.835C434.485 248.002 434.116 244.423 434.797 241.254C437.56 241.48 440.383 242.557 442.705 244.084C450.714 249.349 455.049 258.587 461.592 265.591C469.308 273.853 479.883 278.784 490.384 282.972C500.884 287.159 511.742 290.88 520.984 297.39C525.858 300.824 530.443 305.396 531.419 311.325C531.415 311.339 531.411 311.352 531.408 311.367C527.67 315.618 523.761 319.722 520.349 322.596Z" fill="#8BC161"/>
<path d="M537.529 284.912L546.516 292.637C546.516 292.637 533.944 313.083 518.508 324.52C516.798 325.787 514.314 325.195 512.714 323.792L506.226 318.1C517.935 309.73 528.012 299.285 535.957 287.285L537.529 284.912Z" fill="#618744"/>
<path d="M546.516 292.637C546.516 292.637 530.389 314.464 519.717 323.12C517.355 325.036 513.973 324.985 511.694 322.971C496.567 309.608 438.65 256.978 436.263 251.835C429.036 236.258 444.986 224.85 460.82 228.275C476.654 231.699 546.516 292.637 546.516 292.637Z" stroke="black" stroke-width="0.920872" stroke-miterlimit="10"/>
<path d="M565.028 289.787C570.833 287.172 577.542 287.002 583.238 284.158C591.929 279.817 596.514 270.288 600.484 261.423C603.227 255.297 605.97 249.171 608.713 243.046C611.39 237.069 615.066 230.294 621.543 229.324C623.621 229.013 625.752 229.379 627.749 230.031C629.336 233.193 630.384 238.091 629.428 242.267C624.361 264.41 590.785 300.004 566.152 323.923C566.152 323.923 560.83 319.39 549.104 307.052C552.706 299.829 557.738 293.072 565.028 289.787Z" fill="#8BC161"/>
<path d="M583.29 243.73C583.29 243.73 611.81 214.749 625.91 227.414C628.336 229.592 630.725 236.599 629.428 242.267C624.361 264.41 590.785 300.004 566.152 323.923C566.152 323.923 559.217 318.018 543.733 301.331C542.979 300.519 542.276 299.754 541.622 299.033C543.728 296.314 546.516 292.637 546.516 292.637L536.981 283.932L583.29 243.73Z" stroke="black" stroke-width="0.920872" stroke-miterlimit="10"/>
<path opacity="0.25" d="M556.095 187.592C556.291 175.027 546.264 164.681 533.698 164.485C521.132 164.289 510.787 174.317 510.591 186.882C510.395 199.448 520.423 209.794 532.988 209.99C545.554 210.186 555.899 200.158 556.095 187.592Z" fill="white"/>
<path d="M514.681 174.215L535.082 191.006L537.224 184.635C537.224 184.635 546.966 192.371 553.597 197.564C553.378 197.992 553.153 198.415 552.908 198.827L541.216 193.003L538.951 201.372L514.214 174.955C514.372 174.71 514.514 174.453 514.681 174.215Z" fill="#FFAA02"/>
<path d="M588.471 167.517C587.514 165.589 587.871 166.374 586.845 164.513C582.816 172.224 568.645 175.687 568.645 175.687L568.629 175.687C569.708 177.163 569.141 176.244 570.143 177.745C572.911 177.51 577.058 177.935 581.497 175.6C587.479 172.454 588.608 167.792 588.471 167.517Z" fill="#FFC8C1"/>
<path d="M568.645 175.687C568.645 175.687 595.842 174.931 586.127 158.018C579.725 146.871 557.349 142.068 557.349 142.068L549.075 140.721C549.075 140.721 548.664 152.996 533.539 152.129C519.099 151.302 520.703 139.626 520.703 139.626L514.142 140.002C512.321 140.106 510.516 140.349 508.735 140.745C502.005 142.239 486.05 146.616 482.272 155.163C475.206 171.153 494.045 177.865 500.887 177.4L482.934 238.984C478.966 237.945 518.422 249.116 546.877 247.66C574.457 246.25 585.944 238.473 585.944 238.473L566.906 174.286L568.645 175.687Z" fill="#30BFAE" stroke="#282425" stroke-width="0.920872" stroke-miterlimit="10"/>
<path d="M539.83 193.358C539.775 194.171 539.48 196.165 539.396 196.279C539.122 196.654 538.302 196.116 537.933 195.835C536.278 194.577 535.62 193.512 534.887 192.917C534.625 192.705 533.807 192.563 534.105 193.475C534.505 194.697 535.868 196.061 536.538 196.789C535.434 196.01 533.145 193.912 532.997 193.745C532.39 193.065 531.107 193.298 532.085 194.738C532.32 195.084 532.919 195.726 533.206 196.03C533.664 196.517 534.554 197.285 535.184 197.752C534.136 197.389 531.697 194.859 531.122 195.513C530.436 196.555 532.707 198.417 534.476 199.296C534.041 199.157 532.11 198.24 531.855 198.85C531.67 199.684 533.496 200.506 534.272 200.864C535.381 201.377 536.28 202.289 537.389 202.801C538.733 203.421 540.11 204.051 541.584 204.176C541.722 204.187 541.87 204.192 541.988 204.12C542.155 204.017 542.203 203.798 542.327 203.646C542.512 203.42 542.835 203.371 543.077 203.208C543.479 202.937 543.595 202.399 543.615 201.914C543.686 200.164 542.925 198.552 542.265 196.974C540.474 192.689 539.819 193.524 539.83 193.358Z" fill="#FFD9D2"/>
<path opacity="0.25" d="M556.095 187.592C556.291 175.027 546.264 164.681 533.698 164.485C521.132 164.289 510.787 174.317 510.591 186.882C510.395 199.448 520.423 209.794 532.988 209.99C545.554 210.186 555.899 200.158 556.095 187.592Z" fill="white"/>
<path d="M514.681 174.215L535.082 191.006L537.224 184.635C537.224 184.635 546.966 192.371 553.597 197.564C553.378 197.992 553.153 198.415 552.908 198.827L541.216 193.003L538.951 201.372L514.214 174.955C514.372 174.71 514.514 174.453 514.681 174.215Z" fill="#218579"/>
<path d="M538.05 184.48C537.921 189.928 538.4 203.626 535.837 204.362C533.956 204.903 527.641 205.686 525.715 204.181C524.741 203.421 523.041 186.161 523.062 184.758C523.164 178.188 538.189 178.629 538.05 184.48Z" fill="#003386"/>
<path d="M535.628 183.864C535.637 183.323 535.205 182.878 534.665 182.87C534.124 182.861 533.679 183.293 533.671 183.833C533.662 184.374 534.094 184.819 534.634 184.828C535.175 184.836 535.62 184.405 535.628 183.864Z" fill="#1A65E8"/>
<path d="M535.095 183.856C535.099 183.61 534.902 183.407 534.656 183.404C534.411 183.4 534.208 183.596 534.204 183.842C534.201 184.088 534.397 184.29 534.643 184.294C534.889 184.298 535.091 184.101 535.095 183.856Z" fill="#E9F2FF"/>
<path d="M596.686 186.099C595.078 180.973 593.015 176.293 590.773 171.782C589.816 169.854 588.805 167.978 587.779 166.117C587.775 166.125 587.77 166.132 587.767 166.139C587.573 165.789 587.444 165.601 586.845 164.513C582.816 172.224 568.763 175.647 568.763 175.647L568.645 175.687C569.383 177.072 571.811 180.409 572.861 181.992C575.218 185.523 577.364 189.14 578.999 192.706C580.685 196.235 581.684 199.856 581.83 202.238C581.841 203.363 581.728 203.84 581.728 204.054C581.742 204.271 581.436 204.728 580.322 205.153C577.98 205.93 573.904 205.878 569.905 205.095C561.742 203.537 552.199 201.08 543.99 197.362C543.341 197.067 542.736 196.858 542.165 196.743C540.452 192.734 539.819 193.521 539.83 193.358C539.775 194.171 539.48 196.165 539.396 196.279C539.122 196.654 538.302 196.116 537.933 195.835C536.278 194.577 535.62 193.512 534.887 192.917C534.625 192.705 533.807 192.563 534.105 193.475C534.505 194.697 535.868 196.061 536.538 196.789C535.434 196.01 533.145 193.912 532.997 193.745C532.39 193.065 531.107 193.298 532.085 194.738C532.32 195.084 532.919 195.726 533.206 196.03C533.664 196.517 534.554 197.285 535.184 197.752C534.136 197.389 531.697 194.859 531.122 195.513C530.436 196.555 532.707 198.417 534.476 199.297C534.041 199.157 532.11 198.24 531.855 198.85C531.67 199.684 533.496 200.506 534.272 200.864C535.323 201.35 536.192 202.185 537.224 202.708C537.368 202.865 537.517 203.022 537.727 203.2C544.665 209.091 554.537 214.615 566.519 218.337L570.316 219.404C571.658 219.673 572.969 219.981 574.365 220.187C575.814 220.331 577.176 220.581 578.764 220.541C579.547 220.533 580.287 220.579 581.11 220.505L583.613 220.203C585.349 219.838 587.132 219.428 588.982 218.459C589.438 218.233 589.893 218.02 590.34 217.761C590.786 217.46 591.228 217.147 591.664 216.825C592.1 216.502 592.529 216.169 592.951 215.827C593.346 215.45 593.72 215.041 594.095 214.632C597.138 211.319 598.457 207.168 598.911 203.702C599.59 196.793 598.244 191.214 596.686 186.099Z" fill="white" stroke="#282425" stroke-width="0.920872" stroke-miterlimit="10" stroke-linecap="round" stroke-linejoin="round"/>
<path d="M480.391 167.506C480.705 167.007 481.023 166.497 481.348 165.948C485.202 175.095 498.947 177.413 498.947 177.413C498.752 177.663 498.577 177.906 498.397 178.15C496.689 178.367 492.913 178.347 487.752 175.398C483.937 173.217 481.678 170.021 480.391 167.506Z" fill="#FFC8C1"/>
<path d="M529.655 199.3C529.193 198.562 526.379 200.667 525.286 200.857C525.983 200.498 526.984 199.883 527.515 199.476C527.847 199.221 528.541 198.684 528.829 198.38C530.025 197.116 528.797 196.68 528.088 197.254C527.915 197.395 525.319 199.098 524.104 199.69C524.882 199.079 526.447 197.952 527.038 196.81C527.479 195.957 526.648 195.966 526.356 196.133C525.537 196.602 524.716 197.548 522.881 198.524C522.471 198.742 521.01 199.736 520.8 199.322C520.736 199.196 521.663 197.283 520.764 196.547C520.068 196.401 517.792 199.851 516.781 202.146C507.09 204.755 489.701 205.532 487.643 204.776C486.543 204.317 486.251 203.85 486.272 203.634C486.278 203.421 486.181 202.939 486.226 201.816C486.447 199.439 487.558 195.851 489.353 192.377C491.099 188.864 493.356 185.315 495.823 181.859C496.921 180.31 497.763 178.931 498.947 177.413C498.947 177.413 485.202 175.095 481.348 165.948C480.265 167.777 479.254 169.198 478.237 171.095C475.856 175.534 473.648 180.148 471.881 185.222C470.164 190.285 468.645 195.819 469.109 202.746C469.454 206.224 470.643 210.415 473.581 213.821C473.943 214.241 474.304 214.662 474.688 215.051C475.098 215.406 475.517 215.752 475.943 216.089C476.368 216.425 476.8 216.751 477.236 217.065C477.675 217.339 478.123 217.565 478.572 217.806C480.391 218.832 482.16 219.297 483.884 219.716L486.376 220.096C487.197 220.196 487.938 220.173 488.72 220.205C490.307 220.296 491.675 220.087 493.128 219.989C494.53 219.826 495.85 219.559 497.2 219.333L501.028 218.384C510.023 215.737 515.309 210.112 520.11 206.023C520.847 205.887 521.577 205.687 522.298 205.487C523.476 205.159 524.509 204.404 525.687 204.076C526.509 203.847 528.444 203.328 528.396 202.476C528.242 201.833 526.188 202.428 525.736 202.496C527.624 201.912 530.165 200.439 529.655 199.3Z" fill="white" stroke="#282425" stroke-width="0.920872" stroke-miterlimit="10" stroke-linecap="round" stroke-linejoin="round"/>
<path d="M566.906 174.286L562.751 169.825L567.921 177.71L566.906 174.286Z" fill="#218579"/>
<path d="M500.887 177.4L503.982 172.811L499.949 180.617L500.887 177.4Z" fill="#218579"/>
<path opacity="0.25" d="M483.492 238.704L488.137 222.724C489.383 223.011 490.178 223.277 491.368 223.745C497.638 226.21 502.748 231.004 508.926 233.691C516.466 236.972 525.044 236.882 533.195 235.795C546.849 233.976 560.231 229.528 574.004 229.764C576.703 229.811 579.43 230.064 582.034 230.808C582.534 230.951 582.646 230.966 583.34 231.255L585.394 238.304C585.394 238.304 574.319 245.791 546.739 247.201C518.284 248.656 479.524 237.665 483.492 238.704Z" fill="white"/>
<path d="M548.152 306.618C555.747 306.379 563.455 306.52 571.05 306.829C571.61 306.852 572.186 306.894 572.763 306.954C575.869 309.684 577.054 313.05 576.85 318.138C576.708 321.663 575.4 324.79 571.616 328.046C566.815 328.554 546.766 328.926 541.973 325.595C539.834 324.108 537.976 321.833 537.641 319.08C536.877 312.797 542.831 306.785 548.152 306.618Z" fill="#FFAA02"/>
<path d="M580.089 314.601C580.013 313.072 579.839 311.488 579.099 310.191C577.808 307.93 575.275 307.212 572.763 306.954C575.869 309.684 577.054 313.05 576.85 318.138C576.708 321.663 575.4 324.79 571.616 328.047C581.753 326.975 580.315 319.142 580.089 314.601Z" fill="#B07501"/>
<path d="M578.889 309.888C578.458 309.243 577.925 308.727 577.31 308.329L574.054 308.278C574.474 308.77 574.839 309.288 575.16 309.83L578.889 309.888Z" fill="#CC8802"/>
<path d="M579.893 312.659C579.808 312.129 579.691 311.611 579.513 311.118L575.785 311.06C575.997 311.551 576.178 312.065 576.325 312.603L579.893 312.659Z" fill="#CC8802"/>
<path d="M578.518 324.878L574.599 324.817C574.242 325.323 573.831 325.828 573.369 326.333L576.839 326.387C577.52 325.944 578.074 325.437 578.518 324.878Z" fill="#CC8802"/>
<path d="M580.138 315.418C580.12 315.137 580.102 314.862 580.089 314.601C580.077 314.362 580.056 314.122 580.037 313.882L576.595 313.828C576.682 314.32 576.747 314.833 576.79 315.366L580.138 315.418Z" fill="#CC8802"/>
<path d="M580.278 318.175C580.269 317.652 580.247 317.137 580.216 316.639L576.859 316.587C576.869 317.084 576.871 317.589 576.85 318.122L580.278 318.175Z" fill="#CC8802"/>
<path d="M579.304 323.671C579.547 323.182 579.725 322.669 579.867 322.144L576.077 322.085C575.884 322.597 575.638 323.104 575.359 323.609L579.304 323.671Z" fill="#CC8802"/>
<path d="M580.121 320.928C580.197 320.42 580.247 319.908 580.268 319.395L576.748 319.341C576.684 319.858 576.586 320.367 576.457 320.871L580.121 320.928Z" fill="#CC8802"/>
<path d="M548.152 306.618C555.747 306.379 563.455 306.52 571.05 306.829C571.61 306.852 572.186 306.894 572.763 306.954C575.869 309.684 577.054 313.05 576.85 318.138C576.708 321.663 575.4 324.79 571.616 328.046C566.815 328.554 546.766 328.926 541.973 325.595C539.834 324.108 537.976 321.833 537.641 319.08C536.877 312.797 542.831 306.785 548.152 306.618Z" fill="#FFAA02"/>
<path d="M548.152 306.618C554.678 306.413 561.283 306.497 567.833 306.718C567.939 307.481 567.821 308.313 567.503 309.105C566.319 312.055 563.243 312.542 560.385 312.72C556.657 312.953 552.941 312.225 549.314 311.448C547.285 311.013 545.117 310.477 543.752 308.914C543.581 308.718 543.435 308.491 543.309 308.254C544.843 307.27 546.527 306.669 548.152 306.618Z" fill="#B07501"/>
<path d="M545.066 322.898C547.141 322.067 549.398 321.632 551.67 321.538C552.878 321.488 554.089 321.533 555.299 321.578C556.648 321.628 557.997 321.678 559.346 321.728C561.031 321.791 562.737 321.856 564.36 322.307C565.463 322.614 566.578 323.153 567.136 324.088C567.579 324.83 567.609 325.717 567.516 326.551C567.45 327.148 567.324 327.734 567.146 328.306C560.116 328.532 548.276 328.308 543.28 326.271C542.937 325.414 543.014 324.398 543.66 323.731C544.034 323.344 544.551 323.105 545.066 322.898Z" fill="#B07501"/>
<path d="M544.717 312.091C544.666 311.189 544.199 310.375 543.455 309.863C541.523 308.536 537.711 306.398 536.061 308.847C533.805 312.196 534.053 323.457 535.003 324.652C535.953 325.848 542.025 325.167 543.723 322.314C545.004 320.161 544.863 314.66 544.717 312.091Z" fill="#B07501"/>
<path d="M563.144 325.325C563.207 325.326 563.273 325.32 563.338 325.303C563.75 325.203 564.003 324.788 563.901 324.376L560.72 311.339C560.62 310.93 560.207 310.666 559.793 310.776C559.381 310.876 559.129 311.291 559.23 311.703L562.412 324.74C562.496 325.086 562.803 325.32 563.144 325.325Z" fill="white"/>
<path d="M559.761 325.272C560.102 325.278 560.416 325.053 560.511 324.71L564.098 311.779C564.212 311.37 563.973 310.948 563.564 310.835C563.151 310.712 562.733 310.963 562.62 311.369L559.034 324.3C558.919 324.709 559.159 325.131 559.568 325.244C559.632 325.263 559.698 325.272 559.761 325.272Z" fill="white"/>
<path d="M557.016 325.23C557.079 325.231 557.146 325.224 557.21 325.207C557.623 325.107 557.875 324.693 557.773 324.28L554.592 311.244C554.492 310.834 554.081 310.57 553.665 310.681C553.253 310.78 553.001 311.195 553.102 311.607L556.284 324.644C556.368 324.99 556.675 325.224 557.016 325.23Z" fill="white"/>
<path d="M553.633 325.177C553.974 325.182 554.288 324.958 554.383 324.614L557.97 311.683C558.084 311.274 557.845 310.852 557.436 310.739C557.024 310.616 556.605 310.867 556.492 311.273L552.906 324.205C552.791 324.613 553.031 325.036 553.44 325.148C553.504 325.167 553.57 325.176 553.633 325.177Z" fill="white"/>
<path d="M550.887 325.134C550.95 325.135 551.016 325.128 551.081 325.112C551.493 325.012 551.745 324.597 551.644 324.185L548.462 311.148C548.362 310.739 547.953 310.474 547.536 310.585C547.124 310.685 546.871 311.099 546.973 311.511L550.154 324.548C550.239 324.895 550.545 325.129 550.887 325.134Z" fill="white"/>
<path d="M547.503 325.081C547.845 325.087 548.159 324.862 548.254 324.519L551.84 311.587C551.955 311.179 551.715 310.757 551.307 310.644C550.896 310.521 550.476 310.772 550.363 311.178L546.776 324.109C546.662 324.518 546.901 324.94 547.31 325.053C547.374 325.072 547.44 325.08 547.503 325.081Z" fill="white"/>
<path d="M480.876 163.898L477.901 168.354C477.901 168.354 485.912 179.315 498.276 180.617C500.796 175.796 500.312 176.018 500.312 176.018C500.312 176.018 496.484 174.961 491.353 172.089C486.221 169.218 480.876 163.898 480.876 163.898Z" fill="#30BFAE" stroke="#282425" stroke-width="0.920872" stroke-miterlimit="10"/>
<path d="M588.12 163.295L590.445 167.217C590.445 167.217 582.829 177.581 569.21 178.882C568.31 177.319 567.449 175.471 566.906 174.286C580.119 172.289 588.12 163.295 588.12 163.295Z" fill="#30BFAE" stroke="#282425" stroke-width="0.920872" stroke-miterlimit="10"/>
<path d="M330.113 108.478L320.458 140.26C320.458 140.26 362.22 154.186 364.296 155.065C366.373 155.944 376.554 125.303 375.708 123.84C374.862 122.379 330.113 108.478 330.113 108.478Z" fill="#B7EFF9"/>
<path d="M347.934 138.58C347.764 138.619 347.635 138.634 347.553 138.621C345.818 138.345 334.51 117.592 329.728 108.681L330.499 108.272C336.413 119.297 346.328 137.056 347.742 137.779C349.111 137.776 365.499 129.002 375.495 123.461L375.919 124.218C371.7 126.557 351.371 137.773 347.934 138.58Z" fill="#3D4C65"/>
<path d="M320.651 140.647L320.266 139.869C323.351 138.352 341.293 128.97 341.473 128.875L341.877 129.643C341.695 129.739 323.745 139.125 320.651 140.647Z" fill="#3D4C65"/>
<path d="M363.889 155.223C360.787 147.308 356.03 135.306 355.647 134.682L356.01 134.462L355.793 134.039L356.149 134.019C356.388 134.109 356.575 134.179 364.701 154.906L363.889 155.223Z" fill="#3D4C65"/>
<path d="M63.4642 245.829C63.3947 245.857 61.7311 246.539 58.9336 247.389L58.6579 246.481C61.4073 245.646 63.0865 244.958 63.1029 244.951L63.4642 245.829ZM54.3265 248.634C52.766 249.005 51.1928 249.328 49.6506 249.593L49.49 248.658C51.0125 248.396 52.5657 248.078 54.1067 247.711L54.3265 248.634ZM44.8215 249.301L44.9179 250.244C43.3019 250.409 41.6964 250.511 40.146 250.548L40.1236 249.599C41.6494 249.564 43.2298 249.463 44.8215 249.301ZM35.425 249.503L35.362 250.449C33.7339 250.341 32.135 250.151 30.6085 249.885L30.7713 248.951C32.2647 249.21 33.8304 249.397 35.425 249.503ZM19.5525 156.78C19.6521 157.513 19.709 158.248 19.7221 158.964L18.774 158.981C18.7615 158.302 18.7073 157.604 18.6127 156.908C18.6121 156.904 18.6116 156.9 18.6111 156.896C18.5013 156.088 18.3342 155.254 18.1142 154.416L19.0312 154.175C19.2613 155.05 19.4359 155.922 19.5508 156.768C19.5514 156.772 19.5519 156.776 19.5525 156.78ZM17.3997 149.647L16.5348 150.036C15.938 148.713 15.2052 147.317 14.3581 145.888L15.1738 145.404C16.039 146.863 16.7877 148.291 17.3997 149.647ZM19.1514 163.767C18.7742 165.228 18.2086 166.699 17.4227 168.265L16.5751 167.84C17.3305 166.335 17.8731 164.925 18.2331 163.53L19.1514 163.767ZM12.5752 141.397L11.7987 141.942C10.947 140.727 9.99966 139.455 8.983 138.16L9.72876 137.575C10.7561 138.882 11.7137 140.168 12.5752 141.397ZM26.2158 247.873L25.9401 248.781C24.385 248.308 22.8748 247.733 21.4511 247.071L21.8511 246.211C23.2345 246.854 24.7031 247.413 26.2158 247.873ZM15.0041 172.398C14.2138 173.611 13.3786 174.814 12.4945 176.087L12.3272 176.328L11.548 175.787L11.7153 175.546C12.5955 174.279 13.4269 173.082 14.2094 171.88L15.0041 172.398ZM6.70817 133.895L5.98709 134.51C5.45795 133.891 4.90955 133.26 4.34185 132.618L5.05188 131.99C5.62388 132.636 6.17565 133.271 6.70817 133.895ZM9.67338 180.24C8.73924 181.675 7.94187 182.991 7.23543 184.265L6.40642 183.804C7.12373 182.511 7.9321 181.176 8.87868 179.723L9.67338 180.24ZM17.7858 243.932L17.2592 244.721C15.9286 243.833 14.6583 242.832 13.4839 241.745L14.1277 241.049C15.2656 242.101 16.4963 243.072 17.7858 243.932ZM5.15653 188.469C4.53159 189.913 3.98553 191.39 3.53383 192.86L2.62762 192.581C3.0893 191.078 3.6477 189.568 4.28648 188.092L5.15653 188.469ZM10.9606 237.632L10.2183 238.223C9.24491 236.999 8.3312 235.668 7.50375 234.267L8.32058 233.785C9.12562 235.148 10.0142 236.443 10.9606 237.632ZM2.41177 197.403C2.1277 198.906 1.91738 200.467 1.78568 202.043L0.84024 201.964C0.974522 200.355 1.18978 198.762 1.48023 197.227L2.41177 197.403ZM6.19538 229.619L5.32645 230C4.70722 228.587 4.13951 227.082 3.63921 225.525L4.54197 225.235C5.03246 226.761 5.58859 228.236 6.19538 229.619ZM1.61576 206.728C1.62874 208.243 1.70667 209.821 1.84728 211.416L0.902441 211.499C0.759774 209.879 0.680774 208.276 0.667236 206.736L1.61576 206.728ZM3.30456 220.708L2.37994 220.919C2.13737 219.86 1.91526 218.759 1.72047 217.646C1.63655 217.169 1.55842 216.697 1.48563 216.231L2.42291 216.084C2.49483 216.545 2.57175 217.011 2.65446 217.482C2.84654 218.579 3.06555 219.664 3.30456 220.708Z" fill="#324B66"/>
<path d="M56.4518 221.079L68.6784 226.208L67.9678 243.321L75.9885 237.314L80.3322 246.723L104.747 208.087L56.4518 221.079Z" fill="#9EDB6E"/>
<path d="M103.672 208.36L68.4694 225.786L68.8901 226.636L104.093 209.21L103.672 208.36Z" fill="#618744"/>
<path d="M74.0315 231.174L67.5526 243.095L68.3863 243.548L74.8652 231.627L74.0315 231.174Z" fill="#618744"/>
<path d="M103.594 208.411L74.1617 231.026L74.7398 231.778L104.172 209.163L103.594 208.411Z" fill="#618744"/>
<path d="M74.9101 231.281L73.9924 231.52L75.5281 237.433L76.4458 237.195L74.9101 231.281Z" fill="#618744"/>
<path d="M440.711 198.914C440.711 198.914 422.032 185.398 424.801 180.343C427.57 175.289 436.7 185.847 436.7 185.847C436.7 185.847 435.046 172.022 442.21 175.229C447.072 177.405 440.711 198.914 440.711 198.914Z" fill="#D53D3D"/>
<path d="M707.243 240.333C706.271 234.523 710.029 228.981 715.782 227.716C721.45 226.469 733.296 224.211 741.015 223.146C745.066 222.587 749.168 225.715 749.804 229.092C750.748 234.107 751.873 241.187 752.767 247.047C753.669 252.965 749.7 258.525 743.809 259.589L722.446 263.382C716.387 264.476 710.602 260.406 709.586 254.333L707.243 240.333Z" fill="#FFAA02"/>
<path d="M716.675 237.633L715.919 237.215C715.941 237.178 718.062 233.466 721.921 234.386C723.191 234.69 724.041 235.062 724.725 235.361C725.935 235.892 726.343 236.07 727.551 235.141C729.775 233.433 731.322 232.453 734.015 233.236C735.072 233.543 735.637 234.153 736.05 234.599C736.245 234.81 736.44 235.027 736.555 235.024C736.68 235.019 737.014 234.853 737.844 233.798C739.495 231.701 739.818 231.465 742.895 232.054L742.732 232.899C740.057 232.387 740.027 232.421 738.575 234.264C737.66 235.426 737.117 235.863 736.589 235.883C736.077 235.912 735.757 235.553 735.414 235.182C735.032 234.769 734.599 234.301 733.773 234.061C731.42 233.378 730.139 234.239 728.079 235.823C726.463 237.063 725.678 236.718 724.376 236.149C723.725 235.863 722.914 235.508 721.719 235.222C718.506 234.455 716.748 237.503 716.675 237.633Z" fill="#3D4C65"/>
<path d="M718.856 245.836L718.1 245.419C718.121 245.381 720.241 241.667 724.101 242.589C725.372 242.894 726.222 243.266 726.905 243.565C728.115 244.095 728.522 244.275 729.731 243.345C731.971 241.625 733.152 241.003 735.841 241.783C736.774 242.054 737.413 242.56 737.927 242.966C738.303 243.263 738.63 243.523 738.84 243.476C739.032 243.437 739.385 243.161 739.985 242.062C740.173 241.718 740.308 241.428 740.421 241.186C741.093 239.745 741.446 239.721 743.9 240.191L743.736 241.036C741.632 240.632 741.632 240.632 741.205 241.549C741.086 241.804 740.943 242.11 740.744 242.473C740.092 243.667 739.591 244.202 739.013 244.319C738.402 244.442 737.912 244.052 737.389 243.639C736.911 243.261 736.369 242.832 735.598 242.609C733.272 241.933 732.337 242.431 730.259 244.026C728.644 245.266 727.859 244.923 726.557 244.352C725.905 244.067 725.095 243.712 723.899 243.426C720.687 242.658 718.928 245.706 718.856 245.836Z" fill="#3D4C65"/>
<path d="M720.529 254.345L720.265 253.526C720.683 253.392 720.691 253.387 720.882 253.251C721.142 253.067 721.682 252.686 723.533 251.69C725.255 250.765 725.621 250.848 726.52 251.249C726.887 251.413 727.343 251.617 728.142 251.796C730.534 252.331 731.757 251.39 733.714 249.682C735.248 248.343 736.053 248.638 737.388 249.125C738.056 249.369 738.888 249.673 740.099 249.883C743.375 250.45 744.965 247.196 744.981 247.164L745.761 247.532C745.743 247.571 743.864 251.413 739.95 250.731C738.663 250.507 737.791 250.188 737.091 249.932C735.85 249.48 735.432 249.327 734.283 250.328C732.172 252.173 730.693 253.249 727.952 252.635C727.068 252.437 726.546 252.204 726.166 252.034C725.511 251.742 725.373 251.679 723.944 252.447C722.14 253.417 721.629 253.778 721.383 253.952C721.118 254.14 721.038 254.182 720.529 254.345Z" fill="#3D4C65"/>
<path d="M709.889 255.647C709.889 255.647 712.841 268.251 714.898 271C716.013 272.335 716.758 270.7 716.792 268.479C716.824 266.436 717.556 257.234 717.556 257.234L709.889 255.647Z" fill="#FFAA02"/>
<path d="M285.334 253.666C284.2 249.052 286.887 244.367 291.438 243C295.921 241.654 305.312 239.12 311.456 237.796C314.68 237.101 318.169 239.368 318.885 242.046C319.948 246.022 321.282 251.648 322.356 256.307C323.441 261.012 320.585 265.725 315.911 266.937L298.959 271.283C294.152 272.53 289.252 269.607 288.067 264.784L285.334 253.666Z" fill="#30BFAE"/>
<path d="M292.757 250.922L292.124 250.632C292.139 250.601 293.62 247.487 296.779 247.993C297.819 248.161 298.526 248.409 299.093 248.608C300.099 248.961 300.438 249.079 301.353 248.259C303.038 246.751 304.223 245.869 306.437 246.335C307.306 246.518 307.797 246.975 308.156 247.308C308.326 247.466 308.496 247.629 308.588 247.619C308.688 247.608 308.947 247.454 309.551 246.556C310.752 244.769 310.997 244.559 313.508 244.846L313.427 245.536C311.245 245.286 311.223 245.315 310.167 246.886C309.502 247.876 309.091 248.26 308.667 248.308C308.258 248.363 307.978 248.093 307.68 247.815C307.348 247.507 306.971 247.157 306.292 247.014C304.358 246.607 303.381 247.377 301.819 248.775C300.595 249.871 299.942 249.641 298.861 249.262C298.32 249.072 297.646 248.836 296.668 248.678C294.037 248.256 292.808 250.813 292.757 250.922Z" fill="#3D4C65"/>
<path d="M295.008 257.388L294.374 257.098C294.389 257.067 295.869 253.951 299.03 254.459C300.071 254.627 300.777 254.875 301.344 255.074C302.349 255.427 302.688 255.547 303.604 254.726C305.302 253.207 306.213 252.635 308.423 253.099C309.19 253.261 309.735 253.628 310.173 253.924C310.494 254.14 310.772 254.33 310.938 254.279C311.09 254.236 311.358 253.992 311.773 253.073C311.904 252.785 311.995 252.543 312.071 252.342C312.525 251.142 312.806 251.101 314.809 251.33L314.729 252.02C313.011 251.823 313.011 251.823 312.724 252.586C312.643 252.798 312.547 253.053 312.409 253.357C311.957 254.357 311.586 254.817 311.128 254.946C310.645 255.082 310.226 254.798 309.781 254.498C309.374 254.223 308.912 253.911 308.278 253.778C306.367 253.375 305.644 253.832 304.07 255.242C302.846 256.336 302.194 256.108 301.112 255.728C300.571 255.538 299.897 255.302 298.918 255.144C296.288 254.721 295.058 257.28 295.008 257.388Z" fill="#3D4C65"/>
<path d="M296.869 264.131L296.607 263.488C296.935 263.355 296.941 263.35 297.087 263.23C297.285 263.066 297.696 262.726 299.125 261.813C300.453 260.965 300.753 261.009 301.5 261.278C301.805 261.387 302.184 261.524 302.838 261.619C304.794 261.905 305.721 261.073 307.191 259.581C308.344 258.412 309.01 258.6 310.113 258.91C310.665 259.066 311.352 259.26 312.339 259.356C315.008 259.613 316.09 256.9 316.101 256.873L316.751 257.122C316.738 257.154 315.46 260.359 312.27 260.047C311.222 259.945 310.501 259.741 309.922 259.578C308.897 259.29 308.551 259.191 307.688 260.067C306.102 261.678 304.977 262.633 302.736 262.305C302.013 262.2 301.579 262.044 301.263 261.93C300.718 261.735 300.604 261.693 299.501 262.397C298.108 263.287 297.719 263.608 297.532 263.763C297.33 263.93 297.269 263.969 296.869 264.131Z" fill="#3D4C65"/>
<path d="M288.39 265.823C288.39 265.823 291.529 275.781 293.349 277.867C294.327 278.874 294.827 277.514 294.72 275.725C294.622 274.08 294.653 266.635 294.653 266.635L288.39 265.823Z" fill="#30BFAE"/>
<path d="M383.367 274.445C390.656 273.109 395.488 266.148 394.158 258.892C392.829 251.638 385.843 246.839 378.554 248.174C371.265 249.51 366.434 256.474 367.763 263.728C369.093 270.984 376.078 275.78 383.367 274.445Z" fill="white" stroke="#282425" stroke-width="0.920872" stroke-miterlimit="10" stroke-linecap="round" stroke-linejoin="round"/>
<path d="M382.553 268.421L372.159 261.599L374.59 257.933L380.8 262.008L390.802 241.671L394.761 243.596L382.553 268.421Z" fill="#FFAA02"/>
<path d="M427.437 93.5343L426.812 89.2324L430.29 91.6009L433.478 89.2324L432.436 93.3616L435.561 95.4976L431.748 96.1818L429.892 100.243L428.478 96.1818H424.521L427.437 93.5343Z" fill="#30BFAE"/>
<path d="M612.499 127.14L615.055 123.624L615.891 127.748L619.827 128.278L616.198 130.507L616.943 134.218L613.736 132.045L609.572 133.656L611.396 129.762L608.563 126.999L612.499 127.14Z" fill="#D53D3D"/>
<path d="M651.422 195.254L650.603 189.619L655.159 192.721L659.336 189.619L657.971 195.028L662.064 197.826L657.069 198.722L654.637 204.042L652.786 198.722H647.602L651.422 195.254Z" fill="white"/>
<path d="M698.029 117.107L676.63 109.391L659.453 157.027L680.852 164.744L702.252 172.46L719.429 124.823L698.029 117.107Z" fill="white" stroke="#282425" stroke-width="0.920872" stroke-miterlimit="10" stroke-linecap="round" stroke-linejoin="round"/>
<path d="M715.631 126.608L697.023 119.898L678.415 113.188L667.782 142.675L667.82 142.692L666.076 147.529L684.645 154.225L703.214 160.921L707.912 147.894L707.958 147.887L715.631 126.608Z" fill="#B7EFF9"/>
<path d="M670.396 149.057L673.612 144.546L677.247 143.777L693.404 149.829L698.148 152.157L699.256 153.953L699.217 158.351L670.396 149.057Z" fill="#FFAA02"/>
<path d="M681.754 135.13L679.992 133.891L679.531 132.277L680.055 130.511L681.095 129.88L680.764 128.117L681.707 126.518L683.806 125.774L684.486 125.377C684.486 125.377 685.256 124.196 685.408 124.113C685.561 124.031 686.906 123.959 686.906 123.959L688.083 124.308L689.617 123.311L691.496 123.099L692.693 123.881L693.227 124.381L694.975 123.959L696.616 124.616L697.176 125.465L699.41 125.273L700.912 126.401L701.381 128.163L701.535 128.763L703.367 130.075L703.28 132.098L702.913 132.758L704.42 134.301L704.744 135.947L703.382 137.807L702.768 138.436L703.08 140.265L702.444 141.26L700.896 142.45L699.029 142.409L681.571 136.573L681.754 135.13Z" fill="#434784"/>
<path d="M684.922 134.319C684.922 134.319 687.04 134.042 687.88 132.735C689.536 133.254 690.868 132.97 690.868 132.97L692.313 134.954L693.953 135.241L695.333 134.689L695.576 136.825C695.576 136.825 696.821 137.873 696.907 137.87C696.993 137.867 697.817 138.14 697.817 138.14L697.455 139.362L698.983 141.002L698.367 143.082L695.745 143.606L694.267 147.354L692.154 147.802L690.604 150.935L688.719 151.762L683.7 149.992L682.187 147.847L683.209 144.586L682.249 143.34C682.249 143.34 681.92 141.207 682.119 141.011C682.318 140.816 682.922 138.874 682.922 138.874L682.07 138.027C682.07 138.027 681.318 136.079 681.505 136.022C681.691 135.964 683.136 134.525 683.136 134.525L684.922 134.319Z" fill="white"/>
<path d="M694.585 155.07L693.471 154.857L693.085 156.881L694.168 157.255L694.585 155.07Z" fill="#3D4C65"/>
<path d="M675.191 150.714L676.282 151.09L677.499 148.959L676.515 148.397L675.191 150.714Z" fill="#3D4C65"/>
<path d="M670.94 149.248L672.836 146.25C673.847 144.679 675.812 144.016 677.568 144.654L682.105 146.33L681.909 146.861C681.368 148.33 682.119 149.959 683.586 150.503L687.842 152.075C689.31 152.615 690.939 151.865 691.483 150.397L691.68 149.865L696.217 151.541C697.966 152.197 699.028 153.977 698.776 155.828L698.361 158.7L699.452 159.076L699.898 155.988C700.224 153.608 698.858 151.321 696.61 150.477L692.073 148.801L692.289 148.216C693.62 148.419 694.911 147.659 695.379 146.396L696.184 144.215C697.308 144.386 698.426 143.87 699.026 142.904C699.046 142.911 699.065 142.922 699.085 142.929C699.151 142.954 699.217 142.978 699.283 142.995C701.084 143.531 702.978 142.508 703.517 140.708C703.738 139.98 703.704 139.197 703.422 138.49C705.082 137.611 705.715 135.552 704.836 133.891C704.532 133.318 704.071 132.843 703.507 132.523C704.269 130.976 703.632 129.103 702.084 128.341C702.016 128.308 701.947 128.277 701.877 128.248C701.902 126.365 700.396 124.817 698.512 124.792C698.194 124.788 697.877 124.828 697.57 124.912C696.644 123.55 694.877 123.045 693.371 123.712C693 123.295 692.532 122.977 692.009 122.786C690.621 122.281 689.066 122.724 688.153 123.884C687.951 123.741 687.732 123.625 687.499 123.539C686.031 122.999 684.402 123.749 683.858 125.216C683.835 125.278 683.813 125.338 683.796 125.401C681.915 125.373 680.367 126.875 680.339 128.756C680.334 129.076 680.375 129.395 680.459 129.703C678.903 130.761 678.499 132.881 679.557 134.437C679.955 135.022 680.526 135.469 681.189 135.716C680.724 136.98 681.211 138.396 682.355 139.108L681.549 141.288C681.084 142.552 681.571 143.969 682.714 144.681L682.498 145.266L677.961 143.59C675.703 142.77 673.178 143.622 671.879 145.642L669.838 148.868L670.94 149.248ZM690.42 150.004C690.094 150.886 689.116 151.336 688.235 151.011L683.979 149.439C683.098 149.114 682.647 148.136 682.973 147.254L683.366 146.19L683.759 145.127L691.205 147.877L690.42 150.004ZM696.591 143.113L697.701 140.109C697.719 140.124 697.739 140.137 697.756 140.153C697.782 140.176 697.807 140.2 697.832 140.225C697.878 140.273 697.922 140.323 697.962 140.376C697.981 140.401 698.004 140.426 698.019 140.45C698.07 140.524 698.116 140.601 698.154 140.682L698.164 140.698C698.203 140.785 698.234 140.875 698.258 140.968C698.266 140.997 698.271 141.028 698.277 141.058C698.291 141.124 698.301 141.19 698.307 141.257C698.31 141.291 698.312 141.325 698.312 141.36C698.313 141.428 698.311 141.496 698.303 141.564C698.3 141.596 698.299 141.627 698.294 141.658C698.279 141.759 698.255 141.858 698.222 141.954C698.215 141.976 698.209 141.997 698.204 142.019C697.948 142.686 697.305 143.122 696.591 143.113ZM682.761 138.006C682.208 137.545 682.004 136.785 682.253 136.108C682.31 135.954 682.39 135.81 682.49 135.679C682.564 135.581 682.649 135.492 682.743 135.413C682.761 135.397 682.78 135.38 682.799 135.365C682.89 135.293 682.987 135.23 683.09 135.178C683.109 135.168 683.129 135.161 683.147 135.152C683.245 135.107 683.346 135.071 683.45 135.045C683.465 135.042 683.479 135.036 683.494 135.033C683.606 135.009 683.72 134.997 683.835 134.997L683.872 134.998L682.761 138.006ZM684.299 133.842L684.28 133.895C684.249 133.89 684.221 133.891 684.189 133.886C684.14 133.881 684.091 133.876 684.042 133.873C683.959 133.867 683.876 133.866 683.793 133.868C683.748 133.869 683.702 133.868 683.657 133.872C683.56 133.879 683.465 133.891 683.37 133.908C683.34 133.913 683.31 133.915 683.28 133.921C683.159 133.946 683.04 133.979 682.923 134.02C682.885 134.033 682.851 134.05 682.812 134.064C682.733 134.096 682.655 134.127 682.578 134.167C682.534 134.19 682.491 134.214 682.447 134.24C682.381 134.276 682.315 134.319 682.251 134.363C682.209 134.391 682.169 134.421 682.127 134.452C682.061 134.502 681.999 134.557 681.937 134.613C681.905 134.643 681.871 134.671 681.84 134.703C681.832 134.71 681.824 134.717 681.816 134.725C680.602 134.422 679.863 133.193 680.166 131.98C680.186 131.898 680.211 131.817 680.24 131.738C680.444 131.181 680.858 130.726 681.394 130.472C681.673 130.34 681.795 130.009 681.669 129.727C681.159 128.583 681.673 127.242 682.817 126.732C683.236 126.546 683.702 126.49 684.153 126.573C684.46 126.631 684.757 126.429 684.815 126.121C684.819 126.099 684.821 126.077 684.823 126.055C684.835 125.902 684.868 125.752 684.922 125.609C685.247 124.728 686.225 124.277 687.107 124.603C687.391 124.707 687.642 124.887 687.831 125.123C688.028 125.367 688.385 125.406 688.629 125.209C688.696 125.155 688.75 125.086 688.787 125.007C689.29 123.949 690.516 123.447 691.616 123.85C692.078 124.017 692.471 124.333 692.735 124.747C692.816 124.875 692.944 124.964 693.092 124.996C693.239 125.027 693.393 124.998 693.519 124.916C694.12 124.531 694.866 124.448 695.536 124.693C696.093 124.897 696.548 125.311 696.802 125.847C696.934 126.126 697.265 126.248 697.547 126.122C698.694 125.613 700.037 126.13 700.547 127.277C700.725 127.68 700.783 128.126 700.713 128.561C700.662 128.87 700.87 129.162 701.179 129.213C701.179 129.213 701.181 129.214 701.182 129.214C701.221 129.22 701.263 129.232 701.283 129.237C702.33 129.555 702.924 130.659 702.612 131.708C702.536 131.965 702.408 132.204 702.236 132.409C702.115 132.555 702.074 132.751 702.127 132.933C702.179 133.115 702.321 133.258 702.502 133.313C703.699 133.683 704.369 134.953 703.999 136.15C703.774 136.875 703.203 137.44 702.475 137.655C702.175 137.744 702.004 138.06 702.093 138.36C702.109 138.412 702.131 138.461 702.16 138.506C702.523 139.058 702.622 139.743 702.431 140.375C702.072 141.575 700.809 142.258 699.608 141.902C699.544 141.883 699.48 141.861 699.416 141.835C699.418 141.816 699.418 141.799 699.42 141.78C699.427 141.734 699.428 141.688 699.431 141.642C699.443 141.523 699.447 141.403 699.443 141.284C699.44 141.232 699.437 141.18 699.432 141.128C699.421 141.008 699.402 140.89 699.375 140.773C699.366 140.734 699.36 140.694 699.349 140.655C699.308 140.498 699.252 140.345 699.184 140.198L699.178 140.188C699.11 140.046 699.03 139.91 698.939 139.781C698.918 139.751 698.894 139.723 698.871 139.696C698.793 139.592 698.708 139.494 698.617 139.403C698.59 139.376 698.563 139.349 698.535 139.323C698.423 139.219 698.302 139.125 698.175 139.041C698.162 139.036 698.152 139.024 698.14 139.016C698.128 139.008 698.12 139.006 698.109 139.002L698.376 138.279C698.485 137.985 698.334 137.659 698.041 137.551C697.978 137.528 697.912 137.516 697.845 137.516C697.663 137.513 697.483 137.485 697.309 137.432C696.26 137.113 695.667 136.006 695.981 134.956C696.012 134.849 696.054 134.746 696.105 134.647C696.248 134.369 696.138 134.027 695.859 133.884C695.839 133.874 695.818 133.864 695.797 133.857L695.642 133.799C695.417 133.716 695.163 133.784 695.009 133.97C694.31 134.811 693.061 134.927 692.22 134.228C691.784 133.866 691.524 133.335 691.505 132.769C691.495 132.456 691.233 132.21 690.92 132.221C690.805 132.224 690.695 132.263 690.603 132.331C689.866 132.854 688.851 132.723 688.27 132.03C688.071 131.788 687.714 131.754 687.472 131.954C687.371 132.037 687.302 132.153 687.277 132.281C687.261 132.356 687.24 132.429 687.213 132.5C686.887 133.381 685.909 133.832 685.028 133.506C684.734 133.398 684.408 133.548 684.299 133.842ZM682.613 141.681L685.186 134.713C686.334 134.888 687.472 134.347 688.062 133.346C688.792 133.813 689.694 133.922 690.514 133.644C691.035 135.285 692.788 136.194 694.43 135.673C694.543 135.637 694.654 135.595 694.762 135.547C694.768 136.92 695.672 138.127 696.988 138.52L697.07 138.543L694.315 146.003C693.99 146.884 693.011 147.335 692.13 147.009L683.619 143.866C682.738 143.541 682.288 142.563 682.613 141.681Z" fill="#3D4C65"/>
<path d="M694.88 139.563C695.097 138.975 694.797 138.323 694.209 138.106C693.622 137.889 692.969 138.189 692.752 138.777C692.536 139.364 692.836 140.017 693.423 140.234C694.011 140.451 694.663 140.15 694.88 139.563Z" fill="#3D4C65"/>
<path d="M688.497 137.205C688.714 136.618 688.414 135.966 687.826 135.749C687.239 135.532 686.587 135.832 686.37 136.42C686.153 137.007 686.453 137.659 687.041 137.876C687.628 138.093 688.28 137.793 688.497 137.205Z" fill="#3D4C65"/>
<path d="M836.523 125.915L842.629 153.114C842.629 153.114 878.882 145.995 880.761 145.778C882.641 145.559 877.391 118.976 876.167 118.258C874.945 117.541 836.523 125.915 836.523 125.915Z" fill="#B7EFF9"/>
<path d="M861.992 140.515C861.885 140.614 861.797 140.678 861.732 140.703C860.35 141.219 843.505 130.749 836.326 126.223L836.719 125.605C845.6 131.206 860.189 140.067 861.521 140.009C862.519 139.441 870.852 126.252 875.856 118.069L876.478 118.447C874.366 121.901 864.168 138.503 861.992 140.515Z" fill="#3D4C65"/>
<path d="M842.93 153.317L842.327 152.908C843.951 150.524 853.166 136.248 853.258 136.104L853.871 136.498C853.778 136.643 844.559 150.925 842.93 153.317Z" fill="#3D4C65"/>
<path d="M880.53 146.061C874.988 141.567 866.548 134.773 866.01 134.477L866.183 134.166L865.85 133.947L866.102 133.785C866.313 133.752 866.479 133.726 880.991 145.493L880.53 146.061Z" fill="#3D4C65"/>
<path d="M837.857 181.311L814.479 185.331C812.33 185.7 810.883 187.748 811.252 189.897L815.272 213.275C815.641 215.424 817.689 216.871 819.838 216.502L831.527 214.492L829.685 203.777L825.789 204.447L824.951 199.576L828.848 198.906L828.178 195.01C827.623 191.782 829.789 188.715 833.017 188.16L836.914 187.49L837.751 192.361L835.803 192.696C834.728 192.881 833.837 192.93 834.022 194.005L834.692 197.901L839.563 197.064L838.452 202.269L835.53 202.772L837.372 213.487L843.217 212.482C845.365 212.113 846.813 210.065 846.443 207.916L842.423 184.537C842.054 182.388 840.006 180.941 837.857 181.311Z" fill="#434784"/>
<path d="M809.135 132.665L800.519 130.365C796.554 129.306 792.48 131.663 791.421 135.628L789.121 144.245C788.062 148.21 790.419 152.284 794.384 153.342L803.001 155.643C806.966 156.701 811.04 154.344 812.098 150.379L814.399 141.763C815.457 137.798 813.1 133.724 809.135 132.665Z" fill="white"/>
<path d="M809.656 131.935L800.431 129.472C796.186 128.339 791.824 130.862 790.691 135.107L788.228 144.332C787.095 148.577 789.618 152.939 793.863 154.072L803.088 156.535C807.333 157.669 811.695 155.145 812.828 150.9L815.291 141.675C816.425 137.43 813.901 133.069 809.656 131.935ZM810.522 150.284C809.73 153.252 806.671 155.021 803.704 154.229L794.479 151.766C791.512 150.974 789.742 147.915 790.534 144.948L792.997 135.723C793.79 132.756 796.848 130.986 799.815 131.778L809.04 134.241C812.008 135.034 813.777 138.092 812.985 141.059L810.522 150.284Z" fill="#434784"/>
<path d="M803.402 136.854C800.005 135.947 796.516 137.966 795.61 141.362C794.703 144.758 796.721 148.247 800.118 149.154C803.514 150.061 807.003 148.042 807.91 144.646C808.816 141.249 806.798 137.761 803.402 136.854ZM800.733 146.848C798.615 146.282 797.35 144.096 797.916 141.978C798.482 139.857 800.667 138.594 802.786 139.16C804.905 139.726 806.17 141.91 805.603 144.03C805.038 146.149 802.852 147.413 800.733 146.848Z" fill="#434784"/>
<path d="M810.956 138.376C811.076 137.924 810.807 137.459 810.355 137.338C809.902 137.217 809.437 137.486 809.317 137.939C809.196 138.391 809.465 138.856 809.917 138.977C810.37 139.098 810.835 138.829 810.956 138.376Z" fill="#434784"/>
<path d="M1050.29 110.611L1040.49 118.531L1045.73 134.01L1036.79 130.626L1035.34 140.385L1002.67 111.452L1050.29 110.611Z" fill="#FFAA02"/>
<path d="M1040.57 118.097L1003.73 111.412L1003.57 112.301L1040.41 118.985L1040.57 118.097Z" fill="#3D4C65"/>
<path d="M1046.05 133.692L1036.93 124.492L1036.29 125.126L1045.41 134.326L1046.05 133.692Z" fill="#3D4C65"/>
<path d="M1036.77 124.384L1003.81 111.448L1003.49 112.289L1036.45 125.225L1036.77 124.384Z" fill="#3D4C65"/>
<path d="M1037.06 124.795L1036.16 124.819L1036.33 130.638L1037.24 130.614L1037.06 124.795Z" fill="#3D4C65"/>
<path d="M1052.49 136.892L1052.02 137.667C1051.25 137.209 1050.45 136.768 1049.64 136.354L1050.06 135.552C1050.88 135.975 1051.7 136.425 1052.49 136.892ZM1059.78 142.335L1059.17 142.996C1058.09 141.994 1056.93 141.033 1055.74 140.142L1056.28 139.419C1057.5 140.329 1058.68 141.311 1059.78 142.335ZM1065.71 149.241L1064.96 149.747C1064.13 148.523 1063.22 147.332 1062.26 146.207L1062.94 145.62C1063.93 146.77 1064.86 147.989 1065.71 149.241ZM1069.93 157.299L1069.08 157.628C1068.54 156.238 1067.92 154.873 1067.24 153.57L1068.05 153.152C1068.74 154.484 1069.37 155.88 1069.93 157.299ZM1071.35 161.622C1071.74 163.06 1072.07 164.554 1072.33 166.063L1071.43 166.217C1071.18 164.736 1070.86 163.271 1070.47 161.86L1071.35 161.622ZM1072.89 170.572C1073.01 172.048 1073.07 173.575 1073.08 175.109L1072.17 175.114C1072.17 173.603 1072.11 172.099 1071.99 170.647L1072.89 170.572ZM1072.92 179.646C1072.82 181.114 1072.66 182.633 1072.46 184.16L1071.56 184.043C1071.77 182.536 1071.92 181.036 1072.02 179.587L1072.92 179.646ZM1071.73 188.635C1071.46 190.076 1071.14 191.567 1070.77 193.065L1069.89 192.856C1070.25 191.371 1070.57 189.895 1070.84 188.47L1071.73 188.635ZM1069.6 197.443C1069.19 198.855 1068.73 200.31 1068.24 201.766L1067.38 201.483C1067.87 200.037 1068.32 198.595 1068.73 197.195L1069.6 197.443ZM1066.72 206.033L1066.61 206.334C1066.1 207.663 1065.55 208.973 1064.97 210.231L1064.15 209.855C1064.73 208.617 1065.27 207.326 1065.76 206.018L1065.88 205.721L1066.72 206.033ZM1014.18 226.283L1013.65 227.021C1012.66 226.325 1011.14 225.604 1009.92 226.257L1009.49 225.462C1009.64 225.382 1009.8 225.315 1009.96 225.261C1011.17 224.847 1012.63 225.201 1014.18 226.283ZM1007.91 229.681C1007.83 230.294 1007.88 230.9 1008.08 231.481C1008.3 232.14 1008.71 232.776 1009.29 233.372L1008.65 234.002C1007.97 233.31 1007.49 232.56 1007.22 231.773C1006.98 231.056 1006.91 230.312 1007.02 229.558L1007.91 229.681ZM1062.9 214.281C1062.14 215.612 1061.33 216.912 1060.48 218.145L1059.74 217.636C1060.57 216.425 1061.37 215.148 1062.11 213.84L1062.9 214.281ZM1020 233.343L1019.21 233.789C1018.43 232.411 1017.6 231.167 1016.75 230.093L1017.47 229.535C1018.34 230.644 1019.19 231.926 1020 233.343ZM1017.18 236.899L1017.01 237.784C1015.38 237.477 1013.89 237.047 1012.58 236.505L1012.93 235.672C1014.18 236.19 1015.61 236.603 1017.18 236.899ZM1057.73 221.779C1056.75 222.949 1055.71 224.08 1054.64 225.139L1054 224.5C1055.05 223.46 1056.07 222.351 1057.03 221.204L1057.73 221.779ZM1051.23 228.184C1050.05 229.14 1048.81 230.046 1047.54 230.878L1047.05 230.125C1048.29 229.311 1049.51 228.422 1050.67 227.484L1051.23 228.184ZM1026.07 237.321L1026.14 238.22C1024.88 238.314 1023.62 238.349 1022.39 238.323C1022.71 239.13 1023.02 239.959 1023.31 240.798C1023.41 241.094 1023.51 241.39 1023.6 241.691L1022.74 241.966C1022.65 241.671 1022.55 241.38 1022.45 241.09C1022.07 239.959 1021.64 238.847 1021.18 237.784L1021.6 237.607L1021.61 237.396C1023.06 237.458 1024.56 237.433 1026.07 237.321ZM1043.6 233.192C1042.26 233.894 1040.86 234.537 1039.45 235.101L1039.11 234.264C1040.49 233.712 1041.86 233.082 1043.18 232.393L1043.6 233.192ZM1034.88 235.723L1035.13 236.589C1033.66 237.013 1032.16 237.366 1030.68 237.636L1030.52 236.749C1031.97 236.484 1033.44 236.139 1034.88 235.723ZM1024.78 246.082C1025.11 247.567 1025.37 249.075 1025.55 250.565L1024.65 250.677C1024.47 249.214 1024.22 247.734 1023.9 246.278L1024.78 246.082ZM1025.88 255.103C1025.92 256.632 1025.87 258.165 1025.75 259.656L1024.84 259.585C1024.97 258.124 1025.01 256.624 1024.97 255.127L1025.88 255.103ZM1025.11 264.171L1025.04 264.519C1024.74 265.924 1024.41 267.294 1024.06 268.591L1023.18 268.355C1023.53 267.077 1023.86 265.724 1024.15 264.337L1024.22 263.999L1025.11 264.171ZM1022.68 272.925C1022.14 274.408 1021.55 275.822 1020.92 277.126L1020.1 276.735C1020.72 275.459 1021.3 274.074 1021.83 272.62L1022.68 272.925ZM1018.66 281.101C1017.77 282.437 1016.8 283.646 1015.79 284.695L1015.14 284.072C1016.12 283.062 1017.04 281.895 1017.9 280.605L1018.66 281.101ZM1012.22 287.63C1011.28 288.219 1010.33 288.68 1009.39 288.998C1008.45 289.318 1007.87 289.374 1007.85 289.377L1007.77 288.479C1007.77 288.478 1008.28 288.426 1009.1 288.145C1009.97 287.849 1010.86 287.419 1011.74 286.867L1012.22 287.63Z" fill="#3D4C65"/>
<path d="M915.831 152.452C915.831 152.452 958.675 166.115 959.21 169.266C959.746 172.418 935.537 237.59 933.353 237.479C931.169 237.368 891.777 222.964 889.427 221.694C887.078 220.423 912.331 151.32 915.831 152.452Z" fill="#9EDB6E"/>
<path d="M919.139 157.111C919.139 157.111 952.288 167.874 952.729 170.274C953.169 172.674 935.08 221.995 933.396 221.891C931.712 221.787 901.217 210.491 899.394 209.504C897.573 208.517 916.431 156.22 919.139 157.111Z" fill="#3D4C65"/>
<path d="M912.77 225.833C914.895 227.022 917.576 226.27 918.757 224.153C919.938 222.037 919.174 219.355 917.049 218.165C914.924 216.976 912.244 217.728 911.063 219.844C909.881 221.962 910.646 224.642 912.77 225.833Z" fill="#798B97"/>
<path d="M918.988 163.86C918.988 163.86 937.536 169.729 938.473 170.695C939.411 171.66 937.284 176.132 936.723 176.321C936.162 176.51 917.392 169.223 916.74 168.967C916.089 168.712 917.629 163.427 918.988 163.86Z" fill="#87BECA"/>
<path d="M919.974 193.864C919.974 193.864 939.108 200.115 940.045 201.081C940.983 202.047 939.014 206.372 938.452 206.561C937.891 206.75 919.026 200.237 918.077 199.467C917.533 199.027 918.616 193.431 919.974 193.864Z" fill="#87BECA"/>
<path d="M915.937 171.035C915.937 171.035 928.457 175.441 929.395 176.406C930.333 177.372 928.848 181.319 928.286 181.507C927.725 181.696 915.083 176.635 914.432 176.378C913.781 176.123 915.128 170.948 915.937 171.035Z" fill="#87BECA"/>
<path d="M922.938 203.295C922.938 203.295 936.102 207.922 937.04 208.887C937.978 209.853 936.493 213.801 935.931 213.989C935.371 214.177 922.619 209.303 920.278 208.263C919.639 207.978 921.58 202.863 922.938 203.295Z" fill="#87BECA"/>
<path d="M913.689 179.174C913.689 179.174 926.209 183.579 927.147 184.544C928.084 185.51 926.599 189.457 926.038 189.646C925.476 189.835 912.184 184.517 911.532 184.262C910.882 184.006 912.33 178.741 913.689 179.174Z" fill="#87BECA"/>
<path d="M976.995 162.582C976.995 162.582 968.56 148.324 955.018 154.984C944.146 160.331 944.151 172.142 950.819 181.474C948.781 181.913 946.144 182.531 945.752 182.866C945.102 183.421 957.245 191.83 964.673 190.068C964.675 190.068 964.675 190.068 964.677 190.067C974.849 189.373 985.559 176.789 976.995 162.582Z" fill="#D53D3D"/>
<path d="M955.822 176.81C955.822 176.81 960.15 159.216 965.495 160.914C970.84 162.611 964.797 171.144 964.797 171.144C964.797 171.144 972.142 167.793 973.901 170.144C977.724 175.255 963.65 178.63 955.822 176.81Z" fill="white"/>
<path d="M214.899 164.67L235.305 213.294L245.349 203.934L246.404 188.642L250.721 198.929L256.053 193.96L235.647 145.336L214.899 164.67Z" fill="#618744"/>
<path d="M204.206 165.147L203.362 177.387L198.335 165.408L186.568 165.933L206.974 214.557L235.305 213.294L214.899 164.67L204.206 165.147Z" fill="#8BC161"/>
<path d="M261.812 158.956L268.964 155.955L263.978 144.073L235.647 145.336L256.053 193.96L284.384 192.697L270.475 159.554L261.812 158.956Z" fill="#8BC161"/>
<path d="M225.657 190.303C225.502 190.368 225.337 190.405 225.17 190.413L218.536 190.71C217.745 190.745 217.075 190.133 217.04 189.342C217.005 188.551 217.617 187.881 218.408 187.846L224.516 187.574L225.194 186.943C225.773 186.403 226.68 186.435 227.22 187.014C227.759 187.594 227.727 188.5 227.148 189.04L226.083 190.031C225.958 190.146 225.814 190.238 225.657 190.303ZM232.643 183.79C231.913 184.095 231.073 183.751 230.768 183.02C230.536 182.466 230.675 181.827 231.114 181.418L237.038 175.899C237.617 175.359 238.524 175.391 239.064 175.97C239.603 176.549 239.571 177.456 238.992 177.996L233.068 183.523C232.943 183.636 232.799 183.727 232.643 183.79L232.643 183.79ZM251.877 170.723C251.722 170.787 251.558 170.824 251.39 170.832L246.444 171.052L244.915 172.477C244.336 173.017 243.429 172.985 242.889 172.406C242.349 171.827 242.382 170.92 242.961 170.38L244.878 168.599C245.127 168.367 245.45 168.232 245.79 168.216L251.264 167.972C252.054 167.936 252.725 168.547 252.761 169.338C252.788 169.938 252.439 170.491 251.886 170.724L251.877 170.723Z" fill="white"/>
<path d="M264.467 170.168C264.312 170.233 264.147 170.27 263.98 170.277L259.48 170.478C258.688 170.515 258.016 169.903 257.979 169.111C257.942 168.319 258.554 167.647 259.346 167.61L263.845 167.409C264.636 167.373 265.306 167.985 265.343 168.775C265.37 169.375 265.021 169.928 264.467 170.162L264.467 170.168Z" fill="white"/>
<path d="M209.389 192.509C206.956 193.53 204.157 192.385 203.136 189.953C202.115 187.52 203.259 184.721 205.692 183.7C208.124 182.679 210.923 183.823 211.945 186.255C212.963 188.688 211.819 191.485 209.389 192.509ZM206.801 186.342C205.828 186.75 205.37 187.87 205.778 188.843C206.187 189.816 207.306 190.273 208.279 189.865C209.252 189.457 209.71 188.337 209.302 187.364C208.892 186.392 207.774 185.935 206.801 186.342Z" fill="#434784"/>
<path d="M269.766 175.106L270.774 172.64C271.074 171.907 270.723 171.071 269.99 170.771C269.257 170.472 268.421 170.823 268.121 171.556L267.113 174.021L264.648 173.013C263.915 172.714 263.078 173.065 262.779 173.798C262.479 174.53 262.83 175.367 263.563 175.666L266.029 176.674L265.021 179.14C264.721 179.873 265.072 180.709 265.805 181.009C266.538 181.308 267.374 180.957 267.674 180.225L268.682 177.759L271.147 178.767C271.88 179.066 272.717 178.715 273.016 177.983C273.316 177.25 272.965 176.413 272.232 176.114L269.766 175.106Z" fill="#FFAA02"/>
<path d="M209.865 106.159C201.949 107.271 196.414 114.616 197.527 122.531C198.924 132.48 215.682 147.456 215.682 147.456C215.682 147.456 227.566 127.957 226.237 118.497C225.125 110.582 217.781 105.047 209.865 106.159ZM216.804 124.109C215.777 125.471 214.293 126.288 212.724 126.509C211.156 126.729 209.503 126.352 208.141 125.326C205.417 123.274 204.872 119.388 206.924 116.664C207.918 115.344 209.367 114.491 211.003 114.261C212.639 114.031 214.267 114.452 215.587 115.447C218.311 117.499 218.856 121.385 216.804 124.109Z" fill="#D53D3D"/>
<path d="M188.177 106.81L194.58 110.994L195.008 110.343L188.607 106.16L188.177 106.81Z" fill="#3D4C65"/>
<path d="M183.78 118.432L191.414 119.042L191.476 118.267L183.842 117.657L183.78 118.432Z" fill="#3D4C65"/>
<path d="M184.604 128.802L184.866 129.535L192.081 126.978L191.819 126.245L184.604 128.802Z" fill="#3D4C65"/>
<path d="M188.699 138.267L189.139 138.909L195.464 134.596L195.023 133.955L188.699 138.267Z" fill="#3D4C65"/>
<path d="M196.954 146.096L197.436 146.708L203.457 141.997L202.975 141.386L196.954 146.096Z" fill="#3D4C65"/>
<path d="M196.234 98.8818L200.071 105.478L200.748 105.088L196.911 98.4921L196.234 98.8818Z" fill="#3D4C65"/>
<path d="M222.936 105.174L223.627 105.537L227.203 98.7965L226.51 98.4332L222.936 105.174Z" fill="#3D4C65"/>
<path d="M227.203 109.04L227.632 109.689L234.023 105.488L233.594 104.839L227.203 109.04Z" fill="#3D4C65"/>
<path d="M230.604 116.889L230.73 117.657L238.289 116.432L238.163 115.665L230.604 116.889Z" fill="#3D4C65"/>
<path d="M230.624 125.231L230.613 126.009L238.269 126.126L238.28 125.348L230.624 125.231Z" fill="#3D4C65"/>
<path d="M229.415 134.211L236.971 135.447L237.098 134.68L229.541 133.443L229.415 134.211Z" fill="#3D4C65"/>
<path d="M216.325 101.501L217.106 101.517L217.268 93.8965L216.487 93.8799L216.325 101.501Z" fill="#3D4C65"/>
<path d="M207.283 94.0225L208.195 101.285L208.972 101.188L208.058 93.926L207.283 94.0225Z" fill="#3D4C65"/>
<path d="M156.062 247.434C164.34 247.967 171.458 241.705 171.96 233.449C172.461 225.194 166.155 218.069 157.877 217.536C149.598 217.002 142.481 223.263 141.98 231.519C141.478 239.776 147.783 246.901 156.062 247.434Z" fill="#D53D3D"/>
<path d="M155.758 225.548L154.806 225.486L154.328 233.377L155.28 233.439L155.758 225.548Z" fill="white"/>
<path d="M160.687 225.864L159.737 225.803L159.256 233.695L160.209 233.755L160.687 225.864Z" fill="white"/>
<path d="M153.508 240.567C149.087 238.107 149.458 232.068 149.464 231.996L150.413 232.067C150.392 232.371 149.975 239.504 156.31 240.52C158.134 240.814 159.656 240.488 160.832 239.55C163.204 237.663 163.466 233.884 163.469 233.847L164.42 233.909C164.41 234.081 164.132 238.137 161.435 240.291C160.039 241.404 158.266 241.796 156.163 241.459C155.127 241.292 154.25 240.98 153.508 240.567Z" fill="white"/>
</g>
<defs>
<linearGradient id="paint0_linear" x1="547.374" y1="114.781" x2="542.16" y2="102.028" gradientUnits="userSpaceOnUse">
<stop stop-color="white"/>
<stop offset="1" stop-color="white" stop-opacity="0"/>
</linearGradient>
<linearGradient id="paint1_linear" x1="543.839" y1="116.226" x2="538.625" y2="103.473" gradientUnits="userSpaceOnUse">
<stop stop-color="white"/>
<stop offset="1" stop-color="white" stop-opacity="0"/>
</linearGradient>
<linearGradient id="paint2_linear" x1="529.851" y1="115.397" x2="524.725" y2="102.858" gradientUnits="userSpaceOnUse">
<stop stop-color="white"/>
<stop offset="1" stop-color="white" stop-opacity="0"/>
</linearGradient>
<linearGradient id="paint3_linear" x1="526.375" y1="116.818" x2="521.249" y2="104.279" gradientUnits="userSpaceOnUse">
<stop stop-color="white"/>
<stop offset="1" stop-color="white" stop-opacity="0"/>
</linearGradient>
<linearGradient id="paint4_linear" x1="547.374" y1="114.781" x2="542.16" y2="102.028" gradientUnits="userSpaceOnUse">
<stop stop-color="white"/>
<stop offset="1" stop-color="white" stop-opacity="0"/>
</linearGradient>
<linearGradient id="paint5_linear" x1="543.839" y1="116.226" x2="538.625" y2="103.473" gradientUnits="userSpaceOnUse">
<stop stop-color="white"/>
<stop offset="1" stop-color="white" stop-opacity="0"/>
</linearGradient>
<linearGradient id="paint6_linear" x1="529.851" y1="115.397" x2="524.725" y2="102.858" gradientUnits="userSpaceOnUse">
<stop stop-color="white"/>
<stop offset="1" stop-color="white" stop-opacity="0"/>
</linearGradient>
<linearGradient id="paint7_linear" x1="526.375" y1="116.818" x2="521.249" y2="104.279" gradientUnits="userSpaceOnUse">
<stop stop-color="white"/>
<stop offset="1" stop-color="white" stop-opacity="0"/>
</linearGradient>
<clipPath id="clip0">
<rect x="0.667236" width="1072.41" height="356" fill="white"/>
</clipPath>
</defs>
</svg>
