<svg width="314" height="232" viewBox="0 0 314 232" fill="none" xmlns="http://www.w3.org/2000/svg">
<g clip-path="url(#clip0)">
<path d="M71.1183 29.7546C80.032 30.3523 83.761 24.2582 87.9489 16.4256C99.4144 -5.01823 124.949 -2.95183 133.514 10.2526C139.58 19.6056 152.663 17.6816 163.247 14.0211C173.663 10.4184 191.41 6.95722 205.545 11.2626C217.892 15.023 222.958 28.5894 234.212 27.7549C258.764 25.9343 271.142 50.223 266.695 60.8158C263.793 67.7297 262.352 75.4637 264.711 82.5781C267.311 90.4136 273.247 96.6168 278.045 103.352C282.844 110.088 286.708 118.508 284.323 126.411C282.282 133.172 276.193 137.851 272.413 143.83C260.676 162.399 272.287 190.857 256.647 206.334C245.453 217.413 227.201 214.856 211.537 216.97C198.474 218.734 186.181 224.231 173.178 226.384C146.845 230.746 120.251 221.139 93.5543 220.868C84.1508 220.773 74.5714 221.823 65.4636 219.499C53.3115 216.399 42.9705 207.03 38.7545 195.301C32.9367 179.116 38.4489 160.385 31.8766 144.487C26.5224 131.536 13.429 120.999 14.2527 107.025C14.7655 98.3243 20.6974 91.0464 24.7772 83.3291C30.8405 71.8597 22.8122 26.5152 71.1183 29.7546ZM148.828 8.74526C146.485 8.74526 144.586 10.2032 144.586 12.0016C144.586 13.8 146.49 15.1032 148.828 15.2579C156.446 15.7622 156.446 12.6763 156.446 10.8779C156.446 8.00477 151.17 8.74526 148.828 8.74526ZM226.193 22.6312C228.23 24.3169 230.826 25.3261 233.474 25.4622C234.182 25.4986 234.952 25.4536 235.497 25.0047C236.172 24.4492 236.245 23.3141 235.646 22.6781C235.27 22.2779 234.721 22.0981 234.21 21.8903C233.34 21.5359 232.486 21.0281 231.993 20.2325C231.85 20.0014 231.727 19.7369 231.489 19.603C230.015 18.7722 223.512 20.4132 226.193 22.6312ZM239.169 25.508C239.839 25.74 240.575 25.5262 241.249 25.3067C241.682 25.1659 242.214 24.8557 242.097 24.4186C242.041 24.208 241.843 24.0682 241.65 23.9647C240.762 23.4885 239.61 23.1376 238.717 23.7467C237.824 24.3557 238.498 25.276 239.169 25.508ZM270.151 86.8427C270.267 87.8558 270.89 88.7306 271.494 89.5557C272.658 91.1467 273.841 92.7571 275.377 93.9983C276.027 94.5235 276.783 94.9933 277.621 95.0223C278.384 95.0488 279.115 94.7025 279.734 94.2582C281.241 93.1756 282.258 91.4457 282.467 89.6108C282.752 87.0933 281.583 84.6424 280.224 82.4979C279.383 81.1697 278.401 79.8462 276.992 79.1341C274.63 77.9402 273.069 78.9823 272.41 81.0782C271.802 83.0071 269.905 84.6948 270.151 86.8427ZM18.8518 145.456C17.6081 146.554 18.7299 149.767 19.097 151.888C19.207 152.524 19.3539 153.181 19.755 153.689C20.3032 154.384 21.2134 154.669 22.0666 154.917C23.5808 155.356 25.4157 155.73 26.5718 154.664C27.4297 153.873 27.5511 152.585 27.5495 151.423C27.5482 150.362 27.491 149.301 27.3786 148.245C27.3246 147.739 27.2517 147.216 26.9811 146.783C26.6348 146.229 26.0186 145.906 25.4149 145.65C23.2488 144.732 20.0956 144.358 18.8518 145.456ZM94.8719 225.947C94.136 226.095 93.2574 226.414 93.1511 227.151C93.0633 227.761 93.5756 228.281 94.0708 228.651C98.1301 231.686 103.593 231.88 108.675 231.951C109.268 231.959 109.882 231.963 110.429 231.733C111.516 231.274 112.037 229.84 111.531 228.78C111.346 228.394 111.055 228.068 110.747 227.768C106.664 223.786 99.9521 224.926 94.8719 225.947ZM196.251 223.894C191.669 227.253 196.303 230.25 202.09 228.026C205.208 226.827 208.198 225.643 211.389 224.841C212.42 224.582 218.657 223.231 218.658 221.827C218.66 218.106 211.631 218.985 207.211 219.605C203.647 220.105 200.029 221.124 196.251 223.894Z" fill="#ECF6FF"/>
<path d="M168.068 63.3554C168.068 63.3554 164.839 74.253 162.85 74.489C159.996 74.8276 163.354 55.6075 163.354 55.6075L168.068 63.3554Z" fill="#003386"/>
<path d="M131.336 59.5689C131.336 59.5689 134.14 71.1963 138.723 73.8456C138.723 73.8456 135.151 64.691 135.094 62.5364C135.038 60.3818 131.336 59.5689 131.336 59.5689Z" fill="#003386"/>
<path d="M154.839 84.019C154.839 84.019 153.952 91.8875 162.373 92.0414C167.372 92.1328 156.853 100.389 154.676 101.649C152.5 102.909 145.438 102.195 145.438 102.195L138.036 91.4695L140.811 91.4639C145.797 91.6952 147.525 88.8344 148.355 84.903C148.365 84.8575 148.375 84.8116 148.384 84.7657C149.318 80.1601 154.839 84.019 154.839 84.019Z" fill="white" stroke="#282425" stroke-width="0.6" stroke-miterlimit="10" stroke-linecap="round" stroke-linejoin="round"/>
<path d="M148.355 84.903C148.365 84.8575 148.375 84.8117 148.384 84.7657C149.318 80.1601 154.839 84.019 154.839 84.019C154.839 84.019 154.552 86.241 155.578 88.2593C155 88.6718 154.171 88.9552 151.9 89.0996C150.278 89.2028 148.845 88.8245 147.276 88.1465C147.941 87.2376 148.111 86.0617 148.355 84.903Z" fill="#FFC8C1"/>
<path d="M165.175 63.3208C165.175 63.3208 162.673 87.4784 151.816 87.3263C140.959 87.1742 134.786 62.6876 134.786 62.6876L153.755 53.4104C153.755 53.4104 160.887 58.1987 161.016 58.4885C161.146 58.7783 165.175 63.3208 165.175 63.3208Z" fill="#FFD9D2"/>
<path d="M163.821 68.3097C163.821 68.3097 167.775 66.5571 166.675 69.3285C165.574 72.0999 163.104 71.6326 163.104 71.6326L163.821 68.3097Z" fill="#FFD9D2"/>
<path d="M164.187 69.2824C164.187 69.2824 165.816 68.0367 165.79 69.3313C165.774 70.1602 163.907 70.5419 163.907 70.5419L164.187 69.2824Z" fill="#FFC8C1"/>
<path d="M136.84 67.9247C136.84 67.9247 132.752 66.5101 134.082 69.1794C135.411 71.8484 137.834 71.1753 137.834 71.1753L136.84 67.9247Z" fill="#FFD9D2"/>
<path d="M136.557 68.9245C136.557 68.9245 134.828 67.8201 134.963 69.1079C135.049 69.9325 136.941 70.1561 136.941 70.1561L136.557 68.9245Z" fill="#FFC8C1"/>
<path d="M154.233 72.1179C153.455 71.3993 153.004 70.4217 152.962 69.3639C152.919 68.3062 153.291 67.2951 154.008 66.5171C154.727 65.7392 155.705 65.288 156.762 65.2461C157.815 65.1906 158.83 65.5743 159.609 66.2927C160.387 67.0112 160.838 67.9889 160.88 69.0466C160.923 70.1044 160.551 71.1155 159.834 71.8934C159.115 72.6714 158.137 73.1226 157.08 73.1645C157.004 73.1682 156.93 73.1695 156.854 73.1683C155.879 73.1531 154.956 72.7843 154.233 72.1179ZM156.787 65.8577C155.892 65.8938 155.067 66.2755 154.46 66.9334C153.853 67.5901 153.539 68.445 153.574 69.3393C153.61 70.2338 153.991 71.0594 154.649 71.6664C155.307 72.2734 156.162 72.5729 157.055 72.5527C157.95 72.5168 158.775 72.1351 159.382 71.4772C159.989 70.8205 160.303 69.9656 160.269 69.0711C160.233 68.1767 159.851 67.3499 159.193 66.7429C158.583 66.1805 157.802 65.8688 156.979 65.8559C156.915 65.8549 156.852 65.8551 156.787 65.8577Z" fill="#003386"/>
<path d="M142.84 72.5734C142.062 71.8549 141.611 70.8772 141.569 69.8195C141.526 68.7618 141.899 67.7506 142.616 66.9726C143.334 66.1947 144.312 65.7435 145.37 65.7016C147.532 65.594 149.4 67.3196 149.488 69.5021C149.531 70.5599 149.16 71.5711 148.441 72.3489C147.722 73.1269 146.745 73.5781 145.687 73.62C145.612 73.6238 145.536 73.625 145.461 73.6238C144.485 73.6086 143.563 73.2399 142.84 72.5734ZM145.394 66.3133C144.5 66.3493 143.674 66.731 143.067 67.3889C142.46 68.0456 142.146 68.9005 142.181 69.7949C142.217 70.6894 142.599 71.5161 143.256 72.1232C143.914 72.7302 144.775 73.0481 145.663 73.0083C146.557 72.9723 147.384 72.5907 147.991 71.9328C148.598 71.2749 148.912 70.4212 148.876 69.5267C148.804 67.7438 147.345 66.3389 145.582 66.3114C145.52 66.3104 145.458 66.3119 145.394 66.3133Z" fill="#003386"/>
<path d="M150.701 70.0776C152.093 70.0993 153.303 69.6652 153.373 69.6394L153.163 69.0638C153.141 69.072 150.994 69.8375 149.285 69.2262L149.079 69.8027C149.61 69.9936 150.169 70.0693 150.701 70.0776Z" fill="#003386"/>
<path d="M135.154 66.4663L134.904 67.0251L141.75 70.0869L142 69.5281L135.154 66.4663Z" fill="#003386"/>
<path d="M164.997 66.8931L160.457 68.7758L160.692 69.3421L165.232 67.4594L164.997 66.8931Z" fill="#003386"/>
<path d="M159.759 71.0329C159.652 71.1968 159.537 71.3561 159.401 71.5017C158.858 72.0937 158.127 72.4535 157.331 72.5471L155.357 66.2048C155.793 65.977 156.273 65.8365 156.781 65.8205C157.295 65.7919 157.794 65.8983 158.256 66.0999L159.759 71.0329Z" fill="url(#paint0_linear)"/>
<path d="M155.666 72.3526L153.993 67.4959C154.117 67.2859 154.26 67.0856 154.429 66.9034C154.511 66.8146 154.606 66.7439 154.696 66.6651L156.428 72.5457C156.167 72.5076 155.91 72.4497 155.666 72.3526Z" fill="url(#paint1_linear)"/>
<path d="M148.347 71.4971C148.242 71.6583 148.128 71.8148 147.994 71.9579C147.461 72.54 146.742 72.8938 145.959 72.9858L144.018 66.75C144.447 66.526 144.919 66.3879 145.419 66.3723C145.924 66.3441 146.415 66.4487 146.869 66.6469L148.347 71.4971Z" fill="url(#paint2_linear)"/>
<path d="M144.322 72.7947L142.677 68.0194C142.799 67.813 142.939 67.616 143.106 67.4368C143.186 67.3497 143.28 67.28 143.368 67.2026L145.071 72.9845C144.814 72.947 144.562 72.8901 144.322 72.7947Z" fill="url(#paint3_linear)"/>
<path d="M168.068 63.3554C168.068 63.3554 164.839 74.253 162.85 74.489C159.996 74.8276 163.354 55.6075 163.354 55.6075L168.068 63.3554Z" fill="#434784"/>
<path d="M131.336 59.5689C131.336 59.5689 134.14 71.1963 138.723 73.8456C138.723 73.8456 135.151 64.691 135.094 62.5364C135.038 60.3818 131.336 59.5689 131.336 59.5689Z" fill="#434784"/>
<path d="M165.175 63.3208C165.175 63.3208 162.673 87.4784 151.816 87.3263C140.959 87.1742 134.786 62.6876 134.786 62.6876L153.755 53.4104C153.755 53.4104 160.887 58.1987 161.016 58.4885C161.146 58.7783 165.175 63.3208 165.175 63.3208Z" fill="white" stroke="#282425" stroke-width="0.6" stroke-miterlimit="10" stroke-linecap="round" stroke-linejoin="round"/>
<path d="M138.849 66.4391C138.849 66.4391 138.341 69.5815 134.36 69.3035C130.378 69.0255 124.358 66.0128 126.581 59.2911C127.773 55.6874 131.295 54.9042 132.003 53.9249C132.711 52.9455 131.518 49.7917 134.233 45.4079C136.947 41.024 144.97 42.8053 144.97 42.8053C149.627 41.4443 155.503 40.1881 158.852 46.5679C158.48 46.6805 165.734 45.9127 166.944 51.3331C168.153 56.7536 165.63 57.6684 165.63 57.6684C165.63 57.6684 171.681 58.6957 170.875 62.0416C170.069 65.3876 165.007 66.2014 162.63 63.9556C160.253 61.7098 157.352 60.3399 155.531 61.7514C153.711 63.1628 150.097 54.9311 146.502 58.6966C142.907 62.4621 142.932 68.7906 138.849 66.4391Z" fill="#434784"/>
<path d="M164.423 68.1698C164.423 68.1698 168.377 66.4172 167.277 69.1886C166.176 71.96 163.706 71.4927 163.706 71.4927L164.423 68.1698Z" fill="white" stroke="#282425" stroke-width="0.6" stroke-miterlimit="10" stroke-linecap="round" stroke-linejoin="round"/>
<path d="M136.711 67.9247C136.711 67.9247 132.624 66.5101 133.953 69.1794C135.283 71.8484 137.706 71.1753 137.706 71.1753L136.711 67.9247Z" fill="white" stroke="#282425" stroke-width="0.6" stroke-miterlimit="10" stroke-linecap="round" stroke-linejoin="round"/>
<path d="M157.948 65.8013C157.865 66.4011 157.152 65.6917 156.171 65.5565C155.189 65.4213 154.311 65.9115 154.394 65.3117C154.476 64.7119 155.339 64.3353 156.32 64.4705C157.302 64.6057 158.031 65.2015 157.948 65.8013Z" fill="#324B66"/>
<path d="M154.233 72.1179C153.455 71.3993 153.004 70.4217 152.962 69.3639C152.919 68.3062 153.291 67.2951 154.008 66.5171C154.727 65.7392 155.705 65.288 156.762 65.2461C157.815 65.1906 158.83 65.5743 159.609 66.2927C160.387 67.0112 160.838 67.9889 160.88 69.0466C160.923 70.1044 160.551 71.1155 159.834 71.8934C159.115 72.6714 158.137 73.1226 157.08 73.1645C157.004 73.1682 156.93 73.1695 156.854 73.1683C155.879 73.1531 154.956 72.7843 154.233 72.1179ZM156.787 65.8577C155.892 65.8938 155.067 66.2755 154.46 66.9334C153.853 67.5901 153.539 68.445 153.574 69.3393C153.61 70.2338 153.991 71.0594 154.649 71.6664C155.307 72.2734 156.162 72.5729 157.055 72.5527C157.95 72.5168 158.775 72.1351 159.382 71.4772C159.989 70.8205 160.303 69.9656 160.269 69.0711C160.233 68.1767 159.851 67.3499 159.193 66.7429C158.583 66.1805 157.802 65.8688 156.979 65.8559C156.915 65.8549 156.852 65.8551 156.787 65.8577Z" fill="#003386"/>
<path d="M147.541 65.1939C147.704 65.777 146.767 65.4101 145.813 65.6768C144.859 65.9435 144.248 66.7428 144.085 66.1597C143.922 65.5766 144.564 64.8877 145.518 64.621C146.472 64.3543 147.378 64.6108 147.541 65.1939Z" fill="#324B66"/>
<path d="M142.84 72.5735C142.062 71.855 141.611 70.8773 141.569 69.8196C141.526 68.7619 141.899 67.7507 142.616 66.9727C143.334 66.1948 144.312 65.7436 145.37 65.7017C147.532 65.5941 149.4 67.3197 149.488 69.5022C149.531 70.56 149.16 71.5712 148.441 72.349C147.722 73.127 146.745 73.5782 145.687 73.6201C145.612 73.6239 145.536 73.6251 145.461 73.6239C144.485 73.6087 143.563 73.24 142.84 72.5735ZM145.394 66.3134C144.5 66.3494 143.674 66.7311 143.067 67.389C142.46 68.0457 142.146 68.9006 142.181 69.795C142.217 70.6895 142.599 71.5162 143.256 72.1233C143.914 72.7303 144.775 73.0482 145.663 73.0084C146.557 72.9724 147.384 72.5908 147.991 71.9329C148.598 71.275 148.912 70.4213 148.876 69.5268C148.804 67.7439 147.345 66.339 145.582 66.3115C145.52 66.3105 145.458 66.312 145.394 66.3134Z" fill="#003386"/>
<path d="M150.701 70.0776C152.093 70.0993 153.303 69.6652 153.373 69.6394L153.163 69.0638C153.141 69.072 150.994 69.8375 149.285 69.2262L149.079 69.8027C149.61 69.9936 150.169 70.0693 150.701 70.0776Z" fill="#003386"/>
<path d="M135.154 66.4663L134.904 67.0251L141.75 70.0869L142 69.5281L135.154 66.4663Z" fill="#003386"/>
<path d="M164.997 66.8931L160.457 68.7758L160.692 69.3421L165.232 67.4594L164.997 66.8931Z" fill="#003386"/>
<path d="M159.759 71.0329C159.652 71.1968 159.537 71.3561 159.401 71.5017C158.858 72.0937 158.127 72.4535 157.331 72.5471L155.357 66.2048C155.793 65.977 156.273 65.8365 156.781 65.8205C157.295 65.7919 157.794 65.8983 158.256 66.0999L159.759 71.0329Z" fill="url(#paint4_linear)"/>
<path d="M155.666 72.3526L153.993 67.4959C154.117 67.2859 154.26 67.0856 154.429 66.9034C154.511 66.8146 154.606 66.7439 154.696 66.6651L156.428 72.5457C156.167 72.5076 155.91 72.4497 155.666 72.3526Z" fill="url(#paint5_linear)"/>
<path d="M148.347 71.4971C148.242 71.6583 148.128 71.8148 147.994 71.9579C147.461 72.54 146.742 72.8938 145.959 72.9858L144.018 66.75C144.447 66.526 144.919 66.3879 145.419 66.3723C145.924 66.3441 146.415 66.4487 146.869 66.6469L148.347 71.4971Z" fill="url(#paint6_linear)"/>
<path d="M144.322 72.7947L142.677 68.0194C142.799 67.813 142.939 67.616 143.106 67.4368C143.186 67.3497 143.28 67.28 143.368 67.2026L145.071 72.9845C144.814 72.947 144.562 72.8901 144.322 72.7947Z" fill="url(#paint7_linear)"/>
<path d="M152.025 76.3553C151.28 76.2095 150.242 75.9021 149.334 75.6114L149.454 75.2365C150.787 75.6636 152.359 76.0822 152.734 76.0626C152.802 75.5884 152.417 73.1577 151.984 70.9657L152.37 70.8892C153.4 76.0999 153.103 76.3095 152.991 76.3883C152.866 76.4762 152.506 76.4493 152.025 76.3553Z" fill="#E36E71"/>
<path d="M146.57 72.1233C147.052 72.0473 147.355 71.4332 147.247 70.7516C147.14 70.0701 146.662 69.5792 146.18 69.6552C145.699 69.7312 145.395 70.3453 145.503 71.0268C145.61 71.7084 146.088 72.1993 146.57 72.1233Z" fill="#324B66"/>
<path d="M157.644 70.931C157.733 70.2468 157.414 69.6411 156.93 69.5781C156.446 69.5151 155.982 70.0187 155.893 70.7029C155.804 71.3871 156.124 71.9928 156.607 72.0558C157.091 72.1188 157.555 71.6152 157.644 70.931Z" fill="#324B66"/>
<path opacity="0.38" d="M147.287 77.7866C147.608 76.7984 147.066 75.7377 146.078 75.4174C145.09 75.0971 144.029 75.6386 143.709 76.6268C143.389 77.615 143.93 78.6758 144.918 78.996C145.906 79.3163 146.967 78.7748 147.287 77.7866Z" fill="#DA5C5D"/>
<path opacity="0.38" d="M159.448 78.0041C159.769 77.0159 159.227 75.9552 158.239 75.6349C157.251 75.3146 156.19 75.8561 155.87 76.8443C155.549 77.8326 156.091 78.8933 157.079 79.2136C158.067 79.5338 159.128 78.9924 159.448 78.0041Z" fill="#DA5C5D"/>
<path d="M151.948 83.3733C151.868 83.3464 151.784 83.3035 151.697 83.2393C150.466 82.3299 150.319 80.4139 150.314 80.3329L150.707 80.3055C150.708 80.3235 150.848 82.1222 151.931 82.9228C152.099 83.0465 152.217 83.024 152.291 82.9962C152.853 82.7872 153.398 81.2231 153.609 80.2865L153.993 80.3732C153.933 80.6425 153.373 83.0143 152.428 83.3654C152.308 83.4102 152.14 83.438 151.948 83.3733Z" fill="#E36E71"/>
<path opacity="0.35" d="M199.881 212.759C199.923 210.044 176.827 207.482 148.293 207.037C119.76 206.592 96.5944 208.432 96.552 211.147C96.5097 213.862 119.606 216.423 148.14 216.869C176.673 217.314 199.839 215.474 199.881 212.759Z" fill="#3D71F5"/>
<path d="M148.826 198.495C148.187 199.585 148.29 200.921 149.008 201.96C149.363 202.474 149.666 203.043 149.972 203.58C150.66 204.789 151.663 206.056 153.052 206.117C153.588 206.141 154.112 205.975 154.62 205.802C156.959 205.004 159.23 204.012 161.404 202.837C161.845 202.599 162.312 202.321 162.507 201.859C162.744 201.298 162.503 200.651 162.186 200.131C161.359 198.775 160.045 197.786 159.102 196.507C157.62 194.495 155.934 189.498 152.759 191.896C152.119 192.379 150.22 196.119 148.826 198.495Z" fill="white" stroke="#282425" stroke-width="0.6" stroke-miterlimit="10" stroke-linecap="round" stroke-linejoin="round"/>
<path d="M141.375 195.473C136.449 195.965 131.482 196.712 126.601 197.558C126.242 197.62 125.873 197.697 125.505 197.784C123.731 199.812 123.252 202.087 123.817 205.356C124.209 207.622 125.32 209.531 128.041 211.312C131.185 211.231 144.168 209.766 146.981 207.206C148.236 206.064 149.243 204.436 149.225 202.629C149.184 198.505 144.826 195.128 141.375 195.473Z" fill="#FFAA02"/>
<path d="M123.817 205.356C123.252 202.087 123.731 199.812 125.505 197.784C123.904 198.164 122.329 198.844 121.688 200.415C121.32 201.315 121.343 202.353 121.423 203.347C121.664 206.3 121.402 211.482 128.041 211.312C125.319 209.531 124.209 207.622 123.817 205.356Z" fill="#B07501"/>
<path d="M124.652 207.841L122.209 208.201C122.345 208.528 122.504 208.845 122.703 209.139L125.246 208.764C125.023 208.462 124.821 208.155 124.652 207.841Z" fill="#CC8802"/>
<path d="M121.716 206.46C121.773 206.789 121.849 207.115 121.941 207.437L124.303 207.089C124.177 206.774 124.071 206.453 123.985 206.125L121.716 206.46Z" fill="#CC8802"/>
<path d="M121.515 204.675C121.538 204.999 121.567 205.333 121.606 205.673L123.816 205.346C123.757 205.004 123.715 204.677 123.68 204.355L121.515 204.675Z" fill="#CC8802"/>
<path d="M122.685 199.059C122.322 199.369 122.021 199.747 121.798 200.201L124.202 199.846C124.363 199.469 124.555 199.103 124.785 198.749L122.685 199.059Z" fill="#CC8802"/>
<path d="M123.615 202.551L121.396 202.878C121.404 203.035 121.411 203.192 121.424 203.347C121.437 203.517 121.449 203.696 121.461 203.879L123.62 203.561C123.602 203.213 123.601 202.876 123.615 202.551Z" fill="#CC8802"/>
<path d="M125.839 209.48L123.313 209.853C123.647 210.176 124.049 210.456 124.526 210.684L126.763 210.354C126.421 210.067 126.113 209.776 125.839 209.48Z" fill="#CC8802"/>
<path d="M121.499 201.049C121.427 201.382 121.395 201.727 121.385 202.076L123.685 201.737C123.734 201.377 123.808 201.029 123.903 200.694L121.499 201.049Z" fill="#CC8802"/>
<path d="M141.375 195.473C136.449 195.965 131.482 196.712 126.601 197.558C126.242 197.62 125.873 197.697 125.505 197.784C123.731 199.812 123.252 202.087 123.817 205.356C124.209 207.622 125.32 209.531 128.041 211.312C131.185 211.231 144.168 209.766 146.981 207.206C148.236 206.064 149.243 204.436 149.225 202.629C149.184 198.505 144.826 195.128 141.375 195.473Z" fill="#FFAA02"/>
<path d="M141.375 195.473C137.142 195.896 132.882 196.513 128.67 197.213C128.666 197.714 128.813 198.242 129.086 198.726C130.102 200.531 132.13 200.584 133.992 200.456C136.42 200.289 138.758 199.503 141.035 198.692C142.309 198.238 143.664 197.708 144.412 196.582C144.506 196.441 144.581 196.282 144.643 196.118C143.568 195.613 142.429 195.368 141.375 195.473Z" fill="#FCDDC8"/>
<path d="M144.753 205.727C143.343 205.367 141.848 205.278 140.372 205.41C139.587 205.481 138.809 205.613 138.031 205.745C137.164 205.892 136.297 206.039 135.43 206.186C134.346 206.37 133.25 206.558 132.24 206.987C131.553 207.279 130.879 207.722 130.598 208.374C130.375 208.891 130.431 209.466 130.562 209.997C130.656 210.377 130.787 210.745 130.951 211.099C135.511 210.647 143.141 209.495 146.195 207.754C146.343 207.171 146.207 206.521 145.733 206.145C145.458 205.928 145.104 205.817 144.753 205.727Z" fill="#B07501"/>
<path d="M144.06 198.716C144.016 198.129 144.248 197.564 144.686 197.17C145.82 196.148 148.101 194.443 149.375 195.884C151.118 197.856 151.916 205.151 151.403 206.004C150.891 206.857 146.911 206.934 145.572 205.236C144.561 203.954 144.184 200.388 144.06 198.716Z" fill="#FCDDC8"/>
<path d="M133.282 208.833C133.241 208.839 133.198 208.841 133.155 208.835C132.88 208.806 132.682 208.56 132.712 208.285L133.658 199.592C133.688 199.319 133.932 199.114 134.209 199.15C134.484 199.179 134.682 199.425 134.651 199.7L133.706 208.393C133.68 208.623 133.502 208.801 133.282 208.833Z" fill="white"/>
<path d="M135.463 208.511C135.243 208.544 135.021 208.425 134.931 208.212L131.513 200.164C131.405 199.909 131.523 199.616 131.778 199.508C132.035 199.394 132.326 199.52 132.433 199.773L135.85 207.821C135.959 208.076 135.84 208.369 135.585 208.476C135.546 208.494 135.504 208.505 135.463 208.511Z" fill="white"/>
<path d="M137.232 208.25C137.192 208.256 137.149 208.257 137.105 208.252C136.83 208.223 136.632 207.976 136.663 207.701L137.609 199.009C137.638 198.736 137.881 198.531 138.159 198.567C138.434 198.596 138.632 198.842 138.602 199.117L137.656 207.81C137.631 208.04 137.453 208.218 137.232 208.25Z" fill="white"/>
<path d="M139.414 207.928C139.193 207.961 138.972 207.842 138.881 207.629L135.464 199.58C135.355 199.326 135.474 199.033 135.728 198.926C135.984 198.811 136.276 198.937 136.384 199.19L139.801 207.238C139.909 207.493 139.791 207.786 139.536 207.893C139.496 207.911 139.454 207.922 139.414 207.928Z" fill="white"/>
<path d="M141.184 207.667C141.143 207.673 141.1 207.674 141.057 207.669C140.782 207.639 140.584 207.393 140.614 207.118L141.56 198.426C141.59 198.153 141.832 197.947 142.11 197.983C142.385 198.013 142.584 198.259 142.553 198.534L141.607 207.226C141.582 207.457 141.404 207.634 141.184 207.667Z" fill="white"/>
<path d="M143.365 207.345C143.145 207.377 142.923 207.259 142.832 207.045L139.415 198.997C139.306 198.743 139.425 198.45 139.68 198.342C139.934 198.228 140.227 198.354 140.335 198.607L143.752 206.655C143.86 206.909 143.742 207.202 143.487 207.31C143.447 207.328 143.405 207.339 143.365 207.345Z" fill="white"/>
<path d="M156.51 201.774C157.286 202.771 157.359 204.109 156.782 205.234C156.498 205.79 156.271 206.393 156.038 206.966C155.514 208.254 154.685 209.641 153.315 209.883C152.787 209.976 152.246 209.88 151.72 209.775C149.297 209.29 146.915 208.602 144.607 207.722C144.138 207.543 143.639 207.329 143.385 206.896C143.077 206.371 143.232 205.698 143.478 205.141C144.121 203.688 145.295 202.536 146.062 201.145C147.269 198.956 148.288 193.782 151.75 195.746C152.446 196.141 154.818 199.601 156.51 201.774Z" fill="white" stroke="#282425" stroke-width="0.6" stroke-miterlimit="10" stroke-linecap="round" stroke-linejoin="round"/>
<path d="M183.428 158.804C183.428 158.804 202.01 139.921 211.198 148.173C212.778 149.592 214.335 154.158 213.49 157.85C210.188 172.278 188.311 195.47 172.262 211.054C172.262 211.054 167.744 207.206 157.654 196.334C150.443 188.564 150.461 187.423 150.461 187.423L183.428 158.804Z" fill="#3D71F6"/>
<path d="M159.468 190.669C159.468 190.669 148.96 204.891 142.007 210.531C140.468 211.779 138.265 211.746 136.779 210.434C126.924 201.727 89.187 167.436 87.6323 164.085C82.923 153.935 93.3156 146.503 103.632 148.734C113.949 150.965 159.468 190.669 159.468 190.669Z" fill="#3D71F6"/>
<path d="M141.94 210.584C140.423 211.807 138.241 211.725 136.78 210.435C126.926 201.73 89.1872 167.436 87.6324 164.085C86.4735 161.587 86.2329 159.255 86.6769 157.19C88.4774 157.338 90.3165 158.039 91.8293 159.034C97.0475 162.465 99.8722 168.484 104.135 173.048C109.163 178.431 116.053 181.644 122.895 184.372C129.737 187.1 136.811 189.525 142.832 193.766C146.008 196.004 148.996 198.983 149.632 202.845C149.629 202.855 149.627 202.863 149.624 202.873C147.012 205.844 144.272 208.704 141.94 210.584Z" fill="#1A65E8"/>
<path d="M171.53 188.813C175.312 187.109 179.683 186.998 183.395 185.145C189.057 182.317 192.045 176.108 194.631 170.332C196.418 166.34 198.206 162.349 199.993 158.358C201.737 154.464 204.132 150.049 208.352 149.418C209.706 149.215 211.095 149.453 212.396 149.878C213.43 151.939 214.112 155.129 213.49 157.85C210.188 172.278 188.312 195.47 172.262 211.054C172.262 211.054 168.794 208.101 161.154 200.062C163.501 195.356 166.78 190.953 171.53 188.813Z" fill="#1A65E8"/>
<path d="M189.009 161.971C188.842 161.952 188.673 161.94 188.511 161.91C185.606 161.385 183.066 159.555 181.971 157.202C181.49 156.167 181.121 154.449 181.358 153.029C182.063 152.918 182.76 152.816 183.469 152.699L189.009 161.971Z" fill="#003386"/>
<path d="M119.867 154.021C119.867 154.021 121.764 154.4 125.182 154.854C125.334 155.653 125.371 156.474 125.088 157.24C124.395 159.114 121.897 160.19 119.59 160.062C119.139 160.037 118.695 159.949 118.28 159.801L117.195 159.023L119.867 154.021Z" fill="#003386"/>
<path d="M183.878 153.305L191.481 166.028L152.588 187.182L117.712 158.65L120.384 153.648C120.384 153.648 148.074 159.212 183.878 153.305Z" fill="#8BC161" stroke="black" stroke-miterlimit="10"/>
<path d="M189.009 161.971C188.842 161.952 188.673 161.94 188.511 161.91C185.606 161.385 183.066 159.555 181.971 157.202C181.49 156.167 181.121 154.449 181.358 153.029C182.063 152.918 182.76 152.816 183.469 152.699L189.009 161.971Z" fill="#618744"/>
<path d="M119.867 154.021C119.867 154.021 121.764 154.4 125.182 154.854C125.334 155.653 125.371 156.474 125.088 157.24C124.395 159.114 121.897 160.19 119.59 160.062C119.139 160.037 118.695 159.949 118.28 159.801L117.195 159.023L119.867 154.021Z" fill="#618744"/>
<path d="M183.428 158.804C183.428 158.804 202.01 139.921 211.198 148.173C212.778 149.592 214.335 154.158 213.49 157.85C210.188 172.278 188.311 195.47 172.262 211.054C172.262 211.054 167.744 207.206 157.654 196.334C150.443 188.564 150.461 187.423 150.461 187.423L183.428 158.804Z" fill="#9EDB6E"/>
<path d="M159.468 190.669C159.468 190.669 148.96 204.891 142.007 210.531C140.468 211.779 138.265 211.746 136.779 210.434C126.924 201.727 89.187 167.436 87.6323 164.085C82.923 153.935 93.3156 146.503 103.632 148.734C113.949 150.965 159.468 190.669 159.468 190.669Z" fill="#9EDB6E"/>
<path d="M142.419 210.19C140.673 211.66 138.109 211.612 136.4 210.099C125.995 200.883 89.1679 167.394 87.6324 164.085C86.4735 161.587 86.2329 159.255 86.6769 157.19C88.4774 157.338 90.3165 158.039 91.8293 159.034C97.0475 162.465 99.8722 168.484 104.135 173.048C109.163 178.431 116.053 181.644 122.895 184.372C129.737 187.1 136.811 189.525 142.832 193.766C146.008 196.004 148.996 198.983 149.632 202.845C149.629 202.855 149.627 202.863 149.624 202.873C147.189 205.643 144.642 208.317 142.419 210.19Z" fill="#8BC161"/>
<path d="M153.612 185.636L159.468 190.669C159.468 190.669 151.277 203.991 141.219 211.443C140.105 212.269 138.487 211.883 137.444 210.968L133.217 207.26C140.846 201.806 147.411 195.001 152.588 187.182L153.612 185.636Z" fill="#618744"/>
<path d="M159.468 190.669C159.468 190.669 148.96 204.891 142.007 210.531C140.468 211.779 138.265 211.746 136.779 210.434C126.924 201.727 89.187 167.436 87.6323 164.085C82.923 153.935 93.3156 146.503 103.632 148.734C113.949 150.965 159.468 190.669 159.468 190.669Z" stroke="black" stroke-width="0.6" stroke-miterlimit="10"/>
<path d="M171.53 188.813C175.312 187.109 179.683 186.998 183.395 185.145C189.057 182.317 192.045 176.108 194.631 170.332C196.418 166.34 198.206 162.349 199.993 158.358C201.737 154.464 204.132 150.049 208.352 149.418C209.706 149.215 211.095 149.453 212.396 149.878C213.43 151.939 214.112 155.129 213.49 157.85C210.188 172.278 188.312 195.47 172.262 211.054C172.262 211.054 168.794 208.101 161.154 200.062C163.501 195.356 166.78 190.953 171.53 188.813Z" fill="#8BC161"/>
<path d="M183.428 158.804C183.428 158.804 202.01 139.921 211.198 148.173C212.778 149.592 214.335 154.158 213.49 157.85C210.188 172.278 188.311 195.47 172.262 211.054C172.262 211.054 167.744 207.206 157.654 196.334C157.163 195.805 156.706 195.306 156.279 194.837C157.652 193.065 159.468 190.669 159.468 190.669L153.255 184.998L183.428 158.804Z" stroke="black" stroke-width="0.6" stroke-miterlimit="10"/>
<path opacity="0.25" d="M165.71 122.227C165.837 114.04 159.304 107.299 151.116 107.171C142.929 107.044 136.189 113.577 136.061 121.764C135.933 129.952 142.467 136.692 150.654 136.82C158.841 136.948 165.582 130.414 165.71 122.227Z" fill="white"/>
<path d="M138.726 113.511L152.018 124.451L153.414 120.3C153.414 120.3 159.762 125.34 164.082 128.724C163.939 129.003 163.792 129.278 163.633 129.547L156.015 125.752L154.539 131.205L138.422 113.993C138.524 113.833 138.617 113.666 138.726 113.511Z" fill="#FFAA02"/>
<path d="M186.804 109.147C186.18 107.891 186.413 108.402 185.744 107.189C183.119 112.213 173.886 114.47 173.886 114.47L173.876 114.47C174.579 115.432 174.209 114.833 174.862 115.811C176.666 115.658 179.368 115.935 182.26 114.413C186.157 112.364 186.893 109.326 186.804 109.147Z" fill="#FFC8C1"/>
<path d="M173.886 114.47C173.886 114.47 191.607 113.978 185.277 102.957C181.106 95.6947 166.526 92.5651 166.526 92.5651L161.135 91.6876C161.135 91.6876 160.867 99.6854 151.013 99.1207C141.604 98.5814 142.65 90.9741 142.65 90.9741L138.374 91.2189C137.188 91.2869 136.012 91.4452 134.851 91.7029C130.466 92.6767 120.071 95.5288 117.61 101.097C113.005 111.516 125.28 115.889 129.738 115.586L118.041 155.712C115.455 155.035 141.163 162.313 159.703 161.365C177.673 160.446 185.158 155.378 185.158 155.378L172.753 113.557L173.886 114.47Z" fill="#30BFAE" stroke="#282425" stroke-width="0.6" stroke-miterlimit="10"/>
<path d="M155.111 125.984C155.076 126.513 154.884 127.812 154.829 127.887C154.651 128.131 154.116 127.781 153.876 127.598C152.797 126.778 152.369 126.084 151.891 125.696C151.721 125.558 151.187 125.466 151.382 126.06C151.642 126.856 152.53 127.745 152.967 128.219C152.247 127.711 150.756 126.344 150.659 126.236C150.264 125.793 149.428 125.945 150.066 126.883C150.219 127.108 150.609 127.526 150.796 127.725C151.094 128.042 151.674 128.542 152.084 128.846C151.402 128.61 149.812 126.962 149.438 127.388C148.991 128.067 150.47 129.28 151.623 129.853C151.34 129.762 150.081 129.165 149.915 129.562C149.795 130.105 150.985 130.641 151.49 130.874C152.213 131.208 152.799 131.802 153.521 132.136C154.397 132.54 155.294 132.95 156.255 133.032C156.344 133.039 156.441 133.043 156.518 132.995C156.626 132.928 156.658 132.786 156.739 132.687C156.859 132.54 157.07 132.508 157.227 132.402C157.489 132.225 157.565 131.874 157.578 131.558C157.624 130.418 157.128 129.368 156.698 128.34C155.531 125.548 155.104 126.092 155.111 125.984Z" fill="#FFD9D2"/>
<path opacity="0.25" d="M165.71 122.227C165.837 114.04 159.304 107.299 151.116 107.171C142.929 107.044 136.189 113.577 136.061 121.764C135.933 129.952 142.467 136.692 150.654 136.82C158.841 136.948 165.582 130.414 165.71 122.227Z" fill="white"/>
<path d="M138.726 113.511L152.018 124.451L153.414 120.3C153.414 120.3 159.762 125.34 164.082 128.724C163.939 129.003 163.792 129.278 163.633 129.547L156.015 125.752L154.539 131.205L138.422 113.993C138.524 113.833 138.617 113.666 138.726 113.511Z" fill="#218579"/>
<path d="M153.952 120.199C153.868 123.749 154.18 132.674 152.51 133.153C151.285 133.506 147.17 134.016 145.915 133.036C145.28 132.54 144.172 121.294 144.186 120.38C144.253 116.099 154.042 116.387 153.952 120.199Z" fill="#003386"/>
<path d="M152.374 119.798C152.379 119.446 152.098 119.156 151.746 119.15C151.394 119.145 151.104 119.426 151.098 119.778C151.093 120.13 151.374 120.42 151.726 120.426C152.078 120.431 152.368 120.15 152.374 119.798Z" fill="#1A65E8"/>
<path d="M152.026 119.792C152.029 119.632 151.901 119.5 151.741 119.498C151.581 119.495 151.449 119.623 151.446 119.783C151.444 119.943 151.572 120.075 151.732 120.078C151.892 120.08 152.024 119.952 152.026 119.792Z" fill="#E9F2FF"/>
<path d="M192.157 121.254C191.109 117.914 189.765 114.865 188.304 111.925C187.681 110.669 187.022 109.447 186.353 108.234C186.351 108.24 186.348 108.244 186.345 108.249C186.219 108.021 186.135 107.899 185.745 107.189C183.119 112.213 173.964 114.444 173.964 114.444L173.886 114.47C174.367 115.372 175.949 117.547 176.633 118.578C178.169 120.879 179.567 123.236 180.633 125.559C181.731 127.858 182.382 130.217 182.477 131.77C182.484 132.502 182.411 132.813 182.41 132.952C182.42 133.094 182.22 133.392 181.494 133.669C179.968 134.175 177.313 134.141 174.708 133.631C169.388 132.616 163.171 131.015 157.822 128.592C157.4 128.4 157.005 128.264 156.633 128.189C155.517 125.577 155.105 126.09 155.112 125.984C155.076 126.513 154.884 127.812 154.829 127.887C154.651 128.131 154.116 127.781 153.876 127.598C152.797 126.778 152.369 126.084 151.891 125.696C151.721 125.558 151.187 125.466 151.382 126.06C151.642 126.856 152.531 127.745 152.967 128.219C152.248 127.711 150.756 126.344 150.659 126.236C150.264 125.793 149.428 125.945 150.066 126.883C150.219 127.108 150.609 127.526 150.796 127.725C151.094 128.042 151.674 128.542 152.085 128.846C151.402 128.61 149.812 126.962 149.438 127.388C148.991 128.067 150.471 129.28 151.624 129.853C151.34 129.762 150.082 129.165 149.916 129.562C149.795 130.105 150.985 130.641 151.49 130.874C152.176 131.191 152.741 131.735 153.414 132.076C153.508 132.178 153.605 132.28 153.741 132.396C158.262 136.234 164.694 139.834 172.501 142.259L174.975 142.954C175.85 143.129 176.704 143.33 177.614 143.464C178.557 143.558 179.445 143.721 180.479 143.695C180.989 143.69 181.472 143.72 182.008 143.671L183.639 143.475C184.77 143.237 185.931 142.97 187.137 142.338C187.434 142.191 187.731 142.052 188.022 141.883C188.312 141.687 188.6 141.484 188.884 141.273C189.168 141.063 189.448 140.846 189.723 140.623C189.98 140.378 190.224 140.111 190.468 139.845C192.451 137.686 193.31 134.981 193.606 132.723C194.049 128.222 193.172 124.587 192.157 121.254Z" fill="white" stroke="#282425" stroke-width="0.6" stroke-miterlimit="10" stroke-linecap="round" stroke-linejoin="round"/>
<path d="M116.384 109.14C116.589 108.814 116.795 108.482 117.007 108.125C119.518 114.084 128.474 115.594 128.474 115.594C128.347 115.757 128.233 115.915 128.116 116.075C127.003 116.216 124.542 116.203 121.18 114.281C118.694 112.861 117.222 110.778 116.384 109.14Z" fill="#FFC8C1"/>
<path d="M148.482 129.855C148.181 129.375 146.347 130.746 145.635 130.87C146.09 130.635 146.742 130.235 147.088 129.97C147.304 129.804 147.756 129.454 147.944 129.256C148.723 128.432 147.923 128.148 147.461 128.522C147.348 128.614 145.657 129.723 144.865 130.109C145.372 129.711 146.392 128.977 146.777 128.233C147.064 127.677 146.523 127.683 146.332 127.792C145.799 128.098 145.264 128.713 144.068 129.35C143.801 129.492 142.849 130.139 142.713 129.87C142.671 129.787 143.275 128.541 142.689 128.061C142.236 127.966 140.752 130.214 140.094 131.709C133.78 133.409 122.45 133.915 121.109 133.423C120.392 133.124 120.202 132.82 120.215 132.679C120.22 132.54 120.156 132.226 120.186 131.494C120.329 129.946 121.053 127.608 122.223 125.344C123.36 123.055 124.831 120.743 126.438 118.491C127.154 117.482 127.702 116.584 128.474 115.594C128.474 115.594 119.518 114.084 117.007 108.125C116.301 109.316 115.643 110.242 114.98 111.478C113.429 114.37 111.99 117.377 110.839 120.682C109.72 123.981 108.73 127.587 109.033 132.1C109.258 134.367 110.032 137.097 111.947 139.317C112.182 139.59 112.418 139.865 112.668 140.118C112.935 140.349 113.208 140.575 113.485 140.794C113.763 141.013 114.044 141.225 114.328 141.43C114.614 141.608 114.906 141.756 115.199 141.913C116.384 142.581 117.536 142.884 118.66 143.157L120.283 143.405C120.818 143.47 121.301 143.455 121.81 143.476C122.844 143.535 123.736 143.399 124.682 143.335C125.596 143.229 126.456 143.055 127.336 142.908L129.83 142.29C135.69 140.565 139.135 136.9 142.263 134.235C142.743 134.147 143.219 134.017 143.689 133.886C144.456 133.673 145.129 133.18 145.896 132.967C146.432 132.818 147.693 132.48 147.661 131.924C147.561 131.506 146.223 131.893 145.929 131.937C147.159 131.557 148.814 130.597 148.482 129.855Z" fill="white" stroke="#282425" stroke-width="0.6" stroke-miterlimit="10" stroke-linecap="round" stroke-linejoin="round"/>
<path d="M172.753 113.557L170.046 110.651L173.415 115.788L172.753 113.557Z" fill="#218579"/>
<path d="M129.738 115.586L131.755 112.596L129.127 117.682L129.738 115.586Z" fill="#218579"/>
<path opacity="0.25" d="M118.404 155.529L121.431 145.117C122.243 145.305 122.76 145.478 123.536 145.783C127.621 147.389 130.951 150.512 134.976 152.263C139.889 154.401 145.478 154.342 150.789 153.634C159.685 152.448 168.404 149.551 177.378 149.704C179.136 149.735 180.914 149.899 182.61 150.385C182.935 150.478 183.009 150.487 183.461 150.676L184.799 155.268C184.799 155.268 177.583 160.146 159.613 161.065C141.073 162.013 115.819 154.852 118.404 155.529Z" fill="white"/>
<path d="M160.534 199.779C165.482 199.623 170.504 199.715 175.453 199.916C175.818 199.931 176.194 199.959 176.57 199.998C178.593 201.776 179.366 203.969 179.232 207.285C179.14 209.582 178.288 211.619 175.822 213.741C172.694 214.072 159.631 214.314 156.508 212.143C155.114 211.174 153.903 209.692 153.685 207.898C153.187 203.805 157.067 199.887 160.534 199.779Z" fill="#FFAA02"/>
<path d="M181.343 204.98C181.293 203.984 181.18 202.952 180.698 202.107C179.857 200.634 178.206 200.166 176.57 199.998C178.593 201.776 179.365 203.969 179.232 207.284C179.14 209.582 178.288 211.619 175.822 213.741C182.427 213.042 181.49 207.939 181.343 204.98Z" fill="#B07501"/>
<path d="M180.56 201.91C180.28 201.489 179.933 201.153 179.532 200.893L177.41 200.86C177.684 201.181 177.922 201.519 178.131 201.872L180.56 201.91Z" fill="#CC8802"/>
<path d="M181.215 203.715C181.16 203.37 181.083 203.032 180.967 202.711L178.538 202.673C178.676 202.993 178.794 203.328 178.89 203.679L181.215 203.715Z" fill="#CC8802"/>
<path d="M180.319 211.677L177.765 211.637C177.533 211.966 177.265 212.295 176.964 212.624L179.225 212.66C179.668 212.371 180.03 212.041 180.319 211.677Z" fill="#CC8802"/>
<path d="M181.375 205.513C181.363 205.329 181.351 205.15 181.343 204.98C181.335 204.825 181.321 204.668 181.309 204.511L179.066 204.476C179.122 204.797 179.165 205.131 179.193 205.478L181.375 205.513Z" fill="#CC8802"/>
<path d="M181.466 207.309C181.46 206.968 181.445 206.633 181.426 206.308L179.238 206.274C179.244 206.598 179.246 206.927 179.232 207.274L181.466 207.309Z" fill="#CC8802"/>
<path d="M180.831 210.89C180.99 210.571 181.106 210.237 181.198 209.895L178.728 209.857C178.603 210.19 178.442 210.521 178.261 210.849L180.831 210.89Z" fill="#CC8802"/>
<path d="M181.364 209.103C181.413 208.771 181.446 208.438 181.459 208.104L179.166 208.068C179.124 208.405 179.06 208.737 178.976 209.065L181.364 209.103Z" fill="#CC8802"/>
<path d="M160.534 199.779C165.482 199.623 170.504 199.715 175.453 199.916C175.818 199.931 176.194 199.959 176.57 199.998C178.593 201.776 179.366 203.969 179.232 207.285C179.14 209.582 178.288 211.619 175.822 213.741C172.694 214.072 159.631 214.314 156.508 212.143C155.114 211.174 153.903 209.692 153.685 207.898C153.187 203.805 157.067 199.887 160.534 199.779Z" fill="#FFAA02"/>
<path d="M160.534 199.779C164.786 199.645 169.09 199.7 173.357 199.844C173.426 200.341 173.35 200.883 173.142 201.399C172.371 203.321 170.367 203.639 168.504 203.755C166.075 203.906 163.654 203.432 161.291 202.926C159.969 202.642 158.556 202.293 157.667 201.275C157.555 201.147 157.461 200.999 157.378 200.845C158.378 200.204 159.475 199.812 160.534 199.779Z" fill="#B07501"/>
<path d="M158.523 210.386C159.875 209.845 161.345 209.561 162.826 209.5C163.613 209.467 164.402 209.497 165.191 209.526C166.07 209.559 166.948 209.591 167.827 209.624C168.925 209.665 170.037 209.708 171.094 210.001C171.813 210.201 172.539 210.552 172.903 211.162C173.191 211.645 173.211 212.223 173.151 212.766C173.107 213.155 173.025 213.537 172.909 213.91C168.329 214.057 160.614 213.911 157.359 212.584C157.136 212.026 157.186 211.363 157.607 210.929C157.851 210.677 158.187 210.521 158.523 210.386Z" fill="#B07501"/>
<path d="M158.296 203.345C158.262 202.757 157.958 202.227 157.473 201.893C156.215 201.029 153.731 199.635 152.656 201.231C151.186 203.413 151.347 210.75 151.966 211.529C152.586 212.308 156.542 211.864 157.648 210.006C158.483 208.603 158.391 205.019 158.296 203.345Z" fill="#B07501"/>
<path d="M170.302 211.968C170.343 211.968 170.386 211.964 170.429 211.953C170.697 211.888 170.862 211.618 170.795 211.349L168.723 202.855C168.657 202.588 168.389 202.416 168.119 202.488C167.85 202.553 167.686 202.823 167.752 203.092L169.825 211.586C169.88 211.812 170.08 211.964 170.302 211.968Z" fill="white"/>
<path d="M168.097 211.933C168.32 211.937 168.525 211.791 168.587 211.567L170.923 203.141C170.998 202.875 170.842 202.6 170.576 202.526C170.306 202.446 170.034 202.61 169.961 202.874L167.624 211.3C167.549 211.566 167.705 211.841 167.972 211.915C168.014 211.927 168.056 211.933 168.097 211.933Z" fill="white"/>
<path d="M166.31 211.905C166.351 211.906 166.394 211.902 166.436 211.891C166.705 211.826 166.869 211.556 166.803 211.287L164.73 202.793C164.665 202.526 164.397 202.354 164.126 202.426C163.858 202.491 163.693 202.761 163.759 203.03L165.832 211.524C165.887 211.749 166.087 211.902 166.31 211.905Z" fill="white"/>
<path d="M164.105 211.871C164.327 211.874 164.532 211.728 164.594 211.504L166.931 203.079C167.005 202.813 166.849 202.538 166.583 202.464C166.315 202.384 166.041 202.547 165.968 202.812L163.631 211.237C163.557 211.504 163.713 211.779 163.979 211.852C164.021 211.865 164.064 211.87 164.105 211.871Z" fill="white"/>
<path d="M162.316 211.843C162.357 211.844 162.4 211.839 162.442 211.828C162.711 211.763 162.875 211.493 162.809 211.225L160.736 202.73C160.671 202.464 160.404 202.291 160.132 202.363C159.864 202.429 159.699 202.699 159.766 202.967L161.838 211.461C161.894 211.687 162.093 211.84 162.316 211.843Z" fill="white"/>
<path d="M160.111 211.809C160.334 211.812 160.538 211.666 160.6 211.442L162.937 203.017C163.012 202.75 162.856 202.475 162.589 202.402C162.322 202.322 162.048 202.485 161.974 202.75L159.638 211.175C159.563 211.442 159.719 211.717 159.985 211.79C160.027 211.802 160.07 211.808 160.111 211.809Z" fill="white"/>
<path d="M116.7 106.789L114.761 109.692C114.761 109.692 119.981 116.834 128.037 117.682C129.679 114.541 129.363 114.686 129.363 114.686C129.363 114.686 126.869 113.997 123.526 112.126C120.183 110.255 116.7 106.789 116.7 106.789Z" fill="#30BFAE" stroke="#282425" stroke-width="0.6" stroke-miterlimit="10"/>
<path d="M186.575 106.396L188.09 108.952C188.09 108.952 183.128 115.704 174.255 116.552C173.668 115.533 173.107 114.329 172.753 113.557C181.362 112.256 186.575 106.396 186.575 106.396Z" fill="#30BFAE" stroke="#282425" stroke-width="0.6" stroke-miterlimit="10"/>
<path d="M227.691 15.9889C227.691 15.9889 255.607 24.8906 255.955 26.944C256.304 28.9974 240.531 71.461 239.108 71.3885C237.685 71.316 212.019 61.9313 210.488 61.1038C208.957 60.2755 225.411 15.2512 227.691 15.9889Z" fill="#9EDB6E"/>
<path d="M229.847 19.0244C229.847 19.0244 251.445 26.0371 251.732 27.6008C252.019 29.1646 240.233 61.2997 239.136 61.2319C238.038 61.1641 218.17 53.8042 216.982 53.1616C215.795 52.5181 228.082 18.4435 229.847 19.0244Z" fill="#3D4C65"/>
<path d="M225.697 63.8003C227.081 64.5753 228.828 64.0855 229.598 62.7058C230.367 61.3268 229.869 59.5797 228.485 58.8046C227.1 58.0296 225.354 58.5194 224.585 59.8983C223.814 61.278 224.313 63.0243 225.697 63.8003Z" fill="#798B97"/>
<path d="M229.748 23.4216C229.748 23.4216 241.833 27.2457 242.444 27.8749C243.055 28.5039 241.669 31.4177 241.304 31.5408C240.938 31.6637 228.708 26.9159 228.284 26.7493C227.86 26.5827 228.863 23.1397 229.748 23.4216Z" fill="#87BECA"/>
<path d="M230.391 42.971C230.391 42.971 242.857 47.0438 243.468 47.6734C244.079 48.3024 242.796 51.1205 242.43 51.2436C242.064 51.3668 229.773 47.123 229.154 46.6216C228.8 46.3347 229.506 42.6891 230.391 42.971Z" fill="#87BECA"/>
<path d="M227.761 28.0966C227.761 28.0966 235.918 30.9669 236.529 31.5961C237.14 32.2252 236.173 34.7968 235.807 34.9199C235.441 35.043 227.204 31.7451 226.78 31.578C226.356 31.4118 227.233 28.04 227.761 28.0966Z" fill="#87BECA"/>
<path d="M232.322 49.116C232.322 49.116 240.899 52.1306 241.51 52.7594C242.122 53.3884 241.154 55.9607 240.788 56.0838C240.423 56.2061 232.114 53.0304 230.589 52.3523C230.172 52.1669 231.437 48.8341 232.322 49.116Z" fill="#87BECA"/>
<path d="M226.295 33.3995C226.295 33.3995 234.453 36.2696 235.064 36.8985C235.674 37.5281 234.707 40.0997 234.341 40.2228C233.975 40.3459 225.315 36.881 224.89 36.7147C224.466 36.5476 225.41 33.1175 226.295 33.3995Z" fill="#87BECA"/>
<path d="M267.543 22.5887C267.543 22.5887 262.047 13.299 253.224 17.6384C246.14 21.1225 246.143 28.8178 250.488 34.8983C249.16 35.1843 247.442 35.5868 247.187 35.8048C246.763 36.167 254.675 41.6458 259.515 40.4979C259.515 40.4977 259.516 40.4974 259.517 40.4971C266.145 40.0447 273.123 31.8452 267.543 22.5887Z" fill="#D53D3D"/>
<path d="M253.748 31.8592C253.748 31.8592 256.568 20.3959 260.05 21.5018C263.533 22.6076 259.595 28.1675 259.595 28.1675C259.595 28.1675 264.381 25.9841 265.527 27.5162C268.018 30.8463 258.848 33.0452 253.748 31.8592Z" fill="white"/>
<path d="M83.4219 19.1546L87.591 38.1064C87.591 38.1064 112.849 33.2598 114.157 33.1142C115.467 32.9679 111.892 14.4467 111.042 13.9434C110.194 13.4409 83.4219 19.1546 83.4219 19.1546Z" fill="#B7EFF9"/>
<path d="M101.108 29.3945C101.033 29.4634 100.972 29.5075 100.926 29.5247C99.9633 29.8799 88.2682 22.5407 83.2844 19.3687L83.56 18.9397C89.7255 22.8651 99.8544 29.0775 100.782 29.0413C101.478 28.6483 107.319 19.4927 110.827 13.8116L111.259 14.076C109.778 16.474 102.629 28.0004 101.108 29.3945Z" fill="#3D4C65"/>
<path d="M87.8007 38.2492L87.3821 37.9628C88.5198 36.3079 94.9775 26.3977 95.042 26.2979L95.4674 26.574C95.4022 26.6745 88.9415 36.5888 87.8007 38.2492Z" fill="#3D4C65"/>
<path d="M113.996 33.311C110.152 30.1658 104.297 25.4116 103.923 25.2035L104.045 24.9873L103.814 24.8343L103.989 24.7223C104.137 24.6997 104.252 24.6821 114.319 32.9173L113.996 33.311Z" fill="#3D4C65"/>
<path d="M40.9157 184.893C40.8705 184.912 39.7865 185.356 37.9638 185.91L37.7842 185.319C39.5756 184.774 40.6697 184.326 40.6803 184.322L40.9157 184.893ZM34.962 186.721C33.9452 186.963 32.9202 187.173 31.9154 187.346L31.8107 186.737C32.8028 186.566 33.8147 186.359 34.8188 186.12L34.962 186.721ZM28.769 187.156L28.8318 187.77C27.7789 187.878 26.7328 187.944 25.7226 187.968L25.7081 187.35C26.7022 187.327 27.7319 187.261 28.769 187.156ZM22.6466 187.288L22.6056 187.904C21.5448 187.833 20.503 187.709 19.5084 187.536L19.6145 186.928C20.5875 187.097 21.6077 187.218 22.6466 187.288ZM12.3048 126.873C12.3697 127.351 12.4067 127.829 12.4153 128.296L11.7975 128.308C11.7894 127.865 11.7541 127.41 11.6925 126.956C11.6921 126.954 11.6918 126.951 11.6915 126.949C11.6199 126.422 11.511 125.879 11.3677 125.333L11.9651 125.176C12.1151 125.746 12.2288 126.314 12.3037 126.865C12.3041 126.868 12.3044 126.87 12.3048 126.873ZM10.9021 122.226L10.3386 122.479C9.94974 121.617 9.47229 120.707 8.92036 119.776L9.45181 119.461C10.0156 120.412 10.5034 121.342 10.9021 122.226ZM12.0435 131.425C11.7977 132.377 11.4292 133.336 10.9171 134.356L10.3649 134.079C10.857 133.099 11.2106 132.18 11.4451 131.271L12.0435 131.425ZM7.75871 116.85L7.25276 117.205C6.69783 116.414 6.0806 115.585 5.41818 114.741L5.90409 114.36C6.57348 115.212 7.1974 116.05 7.75871 116.85ZM16.6463 186.225L16.4667 186.817C15.4534 186.509 14.4695 186.134 13.5419 185.703L13.8025 185.143C14.7038 185.561 15.6607 185.926 16.6463 186.225ZM9.3413 137.049C8.82636 137.84 8.28216 138.624 7.70611 139.453L7.59712 139.61L7.08942 139.258L7.19841 139.101C7.77191 138.275 8.31362 137.495 8.82351 136.712L9.3413 137.049ZM3.93601 111.962L3.46619 112.363C3.12142 111.959 2.76411 111.549 2.39422 111.13L2.85684 110.721C3.22953 111.142 3.58904 111.555 3.93601 111.962ZM5.868 142.159C5.25936 143.093 4.73983 143.951 4.27955 144.781L3.7394 144.481C4.20677 143.638 4.73347 142.768 5.35021 141.822L5.868 142.159ZM11.1537 183.658L10.8106 184.171C9.9436 183.593 9.11594 182.941 8.35075 182.233L8.77023 181.779C9.51168 182.465 10.3135 183.097 11.1537 183.658ZM2.92503 147.521C2.51784 148.461 2.16206 149.424 1.86775 150.381L1.2773 150.2C1.57811 149.22 1.94194 148.236 2.35814 147.275L2.92503 147.521ZM6.70668 179.553L6.22306 179.938C5.58884 179.141 4.9935 178.273 4.45437 177.36L4.98658 177.046C5.51111 177.935 6.0901 178.778 6.70668 179.553ZM1.13666 153.341C0.951575 154.321 0.814537 155.338 0.728726 156.364L0.112722 156.313C0.200214 155.265 0.340469 154.227 0.52971 153.226L1.13666 153.341ZM3.6019 174.332L3.03574 174.58C2.63228 173.659 2.26238 172.679 1.93641 171.665L2.52461 171.476C2.84419 172.469 3.20654 173.431 3.6019 174.332ZM0.618013 159.417C0.626474 160.404 0.677248 161.432 0.768866 162.471L0.153249 162.526C0.0602937 161.47 0.0088208 160.426 0 159.422L0.618013 159.417ZM1.71837 168.526L1.11592 168.664C0.957873 167.973 0.813155 167.256 0.686242 166.53C0.631562 166.22 0.580657 165.913 0.53323 165.609L1.14392 165.513C1.19078 165.813 1.24089 166.117 1.29479 166.424C1.41994 167.139 1.56264 167.846 1.71837 168.526Z" fill="#324B66"/>
<path d="M36.3467 168.767L44.313 172.11L43.85 183.259L49.0759 179.345L51.9061 185.476L67.8135 160.302L36.3467 168.767Z" fill="#9EDB6E"/>
<path d="M67.1132 160.481L44.1768 171.834L44.4509 172.388L67.3873 161.034L67.1132 160.481Z" fill="#618744"/>
<path d="M47.8007 175.345L43.5793 183.112L44.1225 183.408L48.3439 175.64L47.8007 175.345Z" fill="#618744"/>
<path d="M67.0624 160.513L47.8857 175.249L48.2624 175.739L67.439 161.004L67.0624 160.513Z" fill="#618744"/>
<path d="M48.3733 175.415L47.7754 175.57L48.776 179.423L49.3739 179.268L48.3733 175.415Z" fill="#618744"/>
<path d="M223.381 135.104C223.381 135.104 212.697 127.449 214.281 124.586C215.865 121.723 221.087 127.703 221.087 127.703C221.087 127.703 220.141 119.873 224.239 121.689C227.02 122.922 223.381 135.104 223.381 135.104Z" fill="#D53D3D"/>
<path d="M65.8754 148.057C71.2694 148.405 75.907 144.324 76.2336 138.945C76.5601 133.566 72.4518 128.924 67.0578 128.577C61.6638 128.229 57.0267 132.308 56.7001 137.687C56.373 143.068 60.4814 147.71 65.8754 148.057Z" fill="#D53D3D"/>
<path d="M65.6776 133.797L65.0573 133.757L64.7456 138.898L65.3659 138.939L65.6776 133.797Z" fill="white"/>
<path d="M68.8892 134.003L68.2699 133.964L67.9565 139.105L68.5775 139.145L68.8892 134.003Z" fill="white"/>
<path d="M64.2115 143.583C61.3313 141.98 61.5727 138.045 61.5764 137.998L62.1949 138.045C62.1812 138.243 61.9094 142.89 66.0371 143.552C67.2258 143.744 68.2176 143.531 68.9836 142.921C70.5287 141.691 70.6997 139.229 70.7019 139.205L71.3211 139.245C71.3145 139.357 71.1339 142 69.3762 143.403C68.4668 144.128 67.3113 144.384 65.9412 144.164C65.2665 144.055 64.6949 143.852 64.2115 143.583Z" fill="white"/>
<path d="M298.625 61.2597L292.24 66.4203L295.65 76.5054L289.826 74.3004L288.881 80.6593L267.598 61.8074L298.625 61.2597Z" fill="#FFAA02"/>
<path d="M292.29 66.1371L268.287 61.7815L268.184 62.3607L292.187 66.7161L292.29 66.1371Z" fill="#3D4C65"/>
<path d="M295.86 76.2979L289.917 70.3041L289.5 70.7168L295.444 76.7115L295.86 76.2979Z" fill="#3D4C65"/>
<path d="M289.816 70.2334L268.34 61.8048L268.128 62.3528L289.604 70.7816L289.816 70.2334Z" fill="#3D4C65"/>
<path d="M290.004 70.5016L289.416 70.5167L289.531 74.3083L290.12 74.2925L290.004 70.5016Z" fill="#3D4C65"/>
<path d="M300.054 78.3831L299.751 78.8879C299.249 78.5899 298.728 78.3026 298.203 78.0327L298.474 77.5103C299.01 77.7855 299.542 78.079 300.054 78.3831ZM304.81 81.9299L304.406 82.3603C303.703 81.7072 302.951 81.0814 302.172 80.5007L302.527 80.0297C303.323 80.6229 304.09 81.2625 304.81 81.9299ZM308.671 86.4295L308.182 86.7589C307.641 85.9613 307.049 85.1853 306.42 84.4528L306.869 84.0699C307.512 84.8195 308.119 85.6133 308.671 86.4295ZM311.418 91.6798L310.866 91.8937C310.515 90.9883 310.112 90.099 309.668 89.2501L310.193 88.9777C310.645 89.8456 311.057 90.7548 311.418 91.6798ZM312.344 94.4965C312.599 95.4331 312.813 96.4065 312.981 97.3896L312.4 97.4902C312.235 96.5254 312.024 95.5705 311.775 94.6516L312.344 94.4965ZM313.35 100.327C313.428 101.289 313.468 102.284 313.47 103.284L312.88 103.287C312.878 102.303 312.839 101.323 312.762 100.376L313.35 100.327ZM313.369 106.24C313.303 107.196 313.202 108.186 313.069 109.181L312.485 109.105C312.616 108.123 312.715 107.146 312.78 106.202L313.369 106.24ZM312.596 112.097C312.417 113.035 312.206 114.007 311.969 114.983L311.395 114.847C311.631 113.879 311.84 112.918 312.016 111.989L312.596 112.097ZM311.206 117.836C310.937 118.755 310.639 119.703 310.321 120.653L309.761 120.468C310.078 119.526 310.373 118.586 310.639 117.674L311.206 117.836ZM309.33 123.432L309.256 123.629C308.928 124.494 308.57 125.348 308.19 126.168L307.655 125.923C308.029 125.116 308.382 124.275 308.705 123.422L308.778 123.229L309.33 123.432ZM275.093 136.627L274.752 137.107C274.107 136.654 273.112 136.184 272.319 136.609L272.041 136.092C272.14 136.039 272.24 135.996 272.343 135.961C273.136 135.691 274.086 135.921 275.093 136.627ZM271.012 138.84C270.956 139.24 270.993 139.634 271.122 140.013C271.268 140.443 271.534 140.857 271.912 141.245L271.49 141.656C271.049 141.205 270.737 140.716 270.562 140.203C270.405 139.737 270.359 139.251 270.428 138.761L271.012 138.84ZM306.837 128.807C306.347 129.674 305.818 130.521 305.264 131.324L304.778 130.993C305.321 130.204 305.842 129.371 306.324 128.519L306.837 128.807ZM278.886 141.227L278.373 141.517C277.863 140.619 277.325 139.809 276.773 139.109L277.237 138.745C277.807 139.468 278.361 140.304 278.886 141.227ZM277.049 143.543L276.937 144.12C275.877 143.92 274.908 143.64 274.054 143.287L274.282 142.744C275.097 143.082 276.029 143.35 277.049 143.543ZM303.468 133.692C302.832 134.454 302.155 135.191 301.456 135.881L301.041 135.465C301.727 134.787 302.392 134.064 303.015 133.317L303.468 133.692ZM299.239 137.865C298.469 138.488 297.66 139.079 296.835 139.62L296.511 139.13C297.32 138.599 298.113 138.02 298.868 137.409L299.239 137.865ZM282.846 143.818L282.889 144.404C282.065 144.465 281.244 144.488 280.444 144.471C280.656 144.997 280.857 145.537 281.043 146.084C281.109 146.277 281.173 146.47 281.235 146.666L280.673 146.845C280.613 146.653 280.549 146.463 280.485 146.274C280.234 145.537 279.955 144.813 279.658 144.12L279.927 144.005L279.934 143.867C280.88 143.908 281.86 143.891 282.846 143.818ZM294.266 141.128C293.388 141.586 292.478 142.004 291.561 142.372L291.342 141.827C292.241 141.467 293.133 141.056 293.994 140.607L294.266 141.128ZM288.582 142.777L288.744 143.341C287.791 143.617 286.814 143.848 285.845 144.024L285.741 143.446C286.69 143.273 287.646 143.048 288.582 142.777ZM282.004 149.527C282.216 150.494 282.384 151.477 282.503 152.448L281.918 152.52C281.801 151.568 281.636 150.603 281.428 149.654L282.004 149.527ZM282.72 155.404C282.742 156.401 282.712 157.399 282.632 158.371L282.043 158.324C282.123 157.373 282.151 156.396 282.129 155.42L282.72 155.404ZM282.217 161.313L282.171 161.539C281.978 162.455 281.763 163.348 281.532 164.192L280.963 164.039C281.191 163.206 281.404 162.325 281.594 161.421L281.638 161.201L282.217 161.313ZM280.636 167.016C280.285 167.983 279.897 168.904 279.485 169.753L278.954 169.499C279.357 168.667 279.737 167.765 280.081 166.818L280.636 167.016ZM278.013 172.344C277.434 173.214 276.806 174.002 276.148 174.685L275.723 174.279C276.357 173.621 276.962 172.861 277.522 172.02L278.013 172.344ZM273.82 176.597C273.206 176.982 272.586 177.281 271.976 177.489C271.365 177.697 270.988 177.734 270.971 177.736L270.918 177.15C270.921 177.15 271.25 177.116 271.786 176.933C272.352 176.74 272.932 176.46 273.507 176.1L273.82 176.597Z" fill="#3D4C65"/>
<path d="M235.76 176.499C235.127 172.714 237.575 169.103 241.324 168.278C245.017 167.466 252.735 165.995 257.764 165.301C260.404 164.937 263.076 166.975 263.491 169.175C264.106 172.443 264.839 177.055 265.421 180.874C266.009 184.729 263.423 188.352 259.585 189.045L245.666 191.517C241.718 192.23 237.949 189.578 237.287 185.621L235.76 176.499Z" fill="#FFAA02"/>
<path d="M241.906 174.74L241.413 174.468C241.427 174.443 242.809 172.025 245.323 172.624C246.151 172.823 246.705 173.065 247.15 173.26C247.939 173.606 248.205 173.722 248.992 173.117C250.441 172.003 251.449 171.365 253.203 171.875C253.892 172.075 254.26 172.473 254.529 172.763C254.657 172.901 254.783 173.042 254.858 173.04C254.94 173.037 255.157 172.929 255.698 172.241C256.774 170.875 256.985 170.721 258.99 171.105L258.883 171.655C257.14 171.322 257.121 171.344 256.175 172.545C255.579 173.302 255.225 173.586 254.88 173.6C254.547 173.619 254.338 173.385 254.115 173.143C253.866 172.874 253.584 172.569 253.046 172.413C251.512 171.968 250.678 172.529 249.336 173.56C248.283 174.369 247.771 174.144 246.923 173.773C246.499 173.587 245.971 173.356 245.192 173.169C243.098 172.669 241.953 174.655 241.906 174.74Z" fill="#3D4C65"/>
<path d="M243.326 180.085L242.834 179.813C242.847 179.788 244.229 177.368 246.744 177.969C247.572 178.168 248.126 178.41 248.571 178.605C249.359 178.95 249.625 179.068 250.412 178.462C251.872 177.341 252.641 176.936 254.393 177.444C255.001 177.621 255.417 177.95 255.752 178.215C255.998 178.408 256.21 178.578 256.347 178.547C256.472 178.522 256.703 178.341 257.093 177.626C257.216 177.402 257.304 177.213 257.377 177.055C257.815 176.116 258.045 176.1 259.644 176.406L259.537 176.957C258.166 176.694 258.166 176.694 257.888 177.291C257.81 177.457 257.717 177.657 257.588 177.894C257.163 178.671 256.836 179.02 256.46 179.096C256.062 179.176 255.742 178.922 255.402 178.653C255.09 178.407 254.737 178.128 254.235 177.982C252.719 177.541 252.11 177.866 250.756 178.906C249.704 179.713 249.192 179.49 248.344 179.118C247.92 178.932 247.391 178.701 246.613 178.514C244.519 178.014 243.374 180 243.326 180.085Z" fill="#3D4C65"/>
<path d="M244.416 185.629L244.244 185.095C244.517 185.008 244.522 185.004 244.647 184.916C244.816 184.796 245.168 184.548 246.374 183.899C247.496 183.296 247.734 183.35 248.32 183.612C248.559 183.718 248.856 183.851 249.377 183.968C250.935 184.317 251.732 183.703 253.007 182.59C254.006 181.718 254.531 181.91 255.401 182.228C255.837 182.387 256.378 182.584 257.167 182.722C259.302 183.091 260.338 180.971 260.348 180.95L260.857 181.19C260.845 181.215 259.62 183.719 257.07 183.274C256.232 183.128 255.664 182.92 255.207 182.754C254.399 182.459 254.126 182.359 253.378 183.012C252.002 184.213 251.039 184.915 249.253 184.515C248.677 184.386 248.337 184.234 248.089 184.123C247.662 183.933 247.573 183.892 246.642 184.392C245.466 185.024 245.133 185.26 244.973 185.373C244.8 185.495 244.748 185.523 244.416 185.629Z" fill="#3D4C65"/>
<path d="M237.484 186.477C237.484 186.477 239.408 194.689 240.748 196.48C241.474 197.35 241.959 196.285 241.982 194.838C242.003 193.507 242.479 187.511 242.479 187.511L237.484 186.477Z" fill="#FFAA02"/>
<path d="M108.012 84.7347C112.226 83.9626 115.019 79.9379 114.251 75.7426C113.482 71.5491 109.443 68.7745 105.229 69.5466C101.015 70.3187 98.2223 74.3451 98.9907 78.5387C99.7593 82.7339 103.798 85.5068 108.012 84.7347Z" fill="white" stroke="#282425" stroke-width="0.6" stroke-miterlimit="10" stroke-linecap="round" stroke-linejoin="round"/>
<path d="M107.541 81.2521L101.532 77.3076L102.938 75.1884L106.528 77.5447L112.31 65.7867L114.599 66.8998L107.541 81.2521Z" fill="#FFAA02"/>
<path d="M277.021 111.673L271.406 110.174C268.823 109.484 266.169 111.02 265.479 113.603L263.98 119.217C263.29 121.801 264.826 124.455 267.409 125.145L273.024 126.644C275.607 127.333 278.261 125.798 278.951 123.214L280.45 117.6C281.14 115.017 279.604 112.362 277.021 111.673Z" fill="white"/>
<path d="M277.36 111.197L271.349 109.592C268.583 108.854 265.742 110.498 265.003 113.264L263.398 119.274C262.66 122.04 264.304 124.882 267.07 125.62L273.081 127.225C275.846 127.964 278.688 126.32 279.427 123.554L281.031 117.543C281.77 114.777 280.126 111.935 277.36 111.197ZM277.924 123.152C277.408 125.086 275.415 126.239 273.482 125.723L267.471 124.118C265.538 123.602 264.385 121.609 264.901 119.675L266.506 113.665C267.022 111.731 269.015 110.579 270.948 111.095L276.959 112.699C278.892 113.216 280.045 115.208 279.529 117.142L277.924 123.152Z" fill="#434784"/>
<path d="M273.285 114.402C271.072 113.811 268.799 115.126 268.208 117.339C267.617 119.552 268.932 121.825 271.145 122.416C273.358 123.007 275.631 121.691 276.222 119.478C276.813 117.266 275.498 114.992 273.285 114.402ZM271.546 120.913C270.166 120.545 269.342 119.12 269.71 117.74C270.079 116.359 271.503 115.536 272.883 115.904C274.264 116.273 275.088 117.696 274.719 119.077C274.351 120.458 272.927 121.282 271.546 120.913Z" fill="#434784"/>
<path d="M278.207 115.394C278.285 115.099 278.11 114.796 277.815 114.717C277.52 114.638 277.217 114.814 277.139 115.109C277.06 115.403 277.235 115.706 277.53 115.785C277.825 115.864 278.128 115.689 278.207 115.394Z" fill="#434784"/>
<path d="M247.314 90.9323L232.082 93.5513C230.682 93.7921 229.739 95.1264 229.979 96.5266L232.598 111.759C232.839 113.159 234.174 114.102 235.574 113.861L243.19 112.552L241.989 105.57L239.451 106.007L238.905 102.833L241.444 102.397L241.007 99.858C240.646 97.7547 242.057 95.7568 244.161 95.3951L246.699 94.9586L247.245 98.1321L245.976 98.3503C245.275 98.4708 244.695 98.5026 244.815 99.2032L245.252 101.742L248.425 101.196L247.702 104.588L245.798 104.915L246.998 111.897L250.806 111.242C252.206 111.001 253.149 109.667 252.908 108.267L250.289 93.0345C250.049 91.6344 248.714 90.6916 247.314 90.9323Z" fill="#434784"/>
<path d="M66.1171 51.8092L65.7099 49.0063L67.9758 50.5495L70.053 49.0063L69.3744 51.6967L71.4101 53.0884L68.9259 53.5342L67.7162 56.1801L66.7954 53.5342H64.217L66.1171 51.8092Z" fill="#30BFAE"/>
<path d="M194.045 69.9749L195.711 67.6841L196.255 70.371L198.82 70.7167L196.455 72.1688L196.941 74.5865L194.851 73.171L192.138 74.2204L193.326 71.6834L191.48 69.883L194.045 69.9749Z" fill="#D53D3D"/>
<path d="M207.05 104.31L206.517 100.639L209.485 102.66L212.206 100.639L211.317 104.163L213.984 105.986L210.73 106.57L209.145 110.036L207.939 106.57H204.561L207.05 104.31Z" fill="white"/>
<path d="M44.5698 88.0136L57.8654 119.695L64.4093 113.597L65.0966 103.633L67.9093 110.335L71.3836 107.098L58.088 75.4165L44.5698 88.0136Z" fill="#618744"/>
<path d="M37.6026 88.3244L37.0524 96.2999L33.777 88.4949L26.1104 88.8364L39.4059 120.518L57.8654 119.695L44.5698 88.0137L37.6026 88.3244Z" fill="#8BC161"/>
<path d="M75.136 84.291L79.7962 82.3353L76.5473 74.5938L58.0879 75.4165L71.3835 107.098L89.8429 106.275L80.7802 84.6801L75.136 84.291Z" fill="#8BC161"/>
<path d="M51.5788 104.715C51.4779 104.757 51.3706 104.781 51.2615 104.787L46.9388 104.98C46.4235 105.003 45.9872 104.604 45.9643 104.089C45.9414 103.574 46.3406 103.137 46.8559 103.114L50.8355 102.937L51.2772 102.526C51.6546 102.174 52.2455 102.195 52.5971 102.572C52.9486 102.95 52.9277 103.541 52.5503 103.892L51.8567 104.538C51.7752 104.613 51.6812 104.673 51.5788 104.715ZM56.1305 100.472C55.6547 100.67 55.1077 100.446 54.9089 99.9701C54.758 99.6091 54.8482 99.1924 55.1347 98.9261L58.9941 95.3298C59.3715 94.9782 59.9624 94.9991 60.3139 95.3765C60.6655 95.7539 60.6446 96.3448 60.2672 96.6963L56.4075 100.297C56.3261 100.371 56.2323 100.43 56.1305 100.472L56.1305 100.472ZM68.6627 91.9573C68.5619 91.9995 68.4545 92.0236 68.3454 92.0285L65.1225 92.1723L64.1263 93.1007C63.7489 93.4523 63.158 93.4314 62.8065 93.054C62.4549 92.6766 62.4759 92.0857 62.8532 91.7342L64.1021 90.5736C64.2647 90.4228 64.4754 90.3344 64.6969 90.3239L68.263 90.1652C68.7782 90.1416 69.2149 90.54 69.2386 91.0551C69.2565 91.4459 69.0289 91.8065 68.6684 91.9584L68.6627 91.9573Z" fill="white"/>
<path d="M76.8656 91.5961C76.7649 91.6383 76.6575 91.6624 76.5484 91.6673L73.6169 91.7981C73.1008 91.8223 72.6629 91.4236 72.6387 90.9076C72.6146 90.3915 73.0133 89.9536 73.5293 89.9294L76.4608 89.7986C76.9759 89.775 77.4127 90.1734 77.4363 90.6886C77.4543 91.0794 77.2267 91.4399 76.8662 91.5918L76.8656 91.5961Z" fill="white"/>
<path d="M40.9793 106.152C39.3943 106.817 37.5703 106.072 36.9051 104.487C36.24 102.902 36.9856 101.078 38.5706 100.413C40.1553 99.7476 41.9792 100.493 42.6445 102.078C43.3078 103.663 42.5628 105.486 40.9793 106.152ZM39.293 102.134C38.6591 102.4 38.3609 103.13 38.6269 103.764C38.8929 104.398 39.6225 104.696 40.2564 104.43C40.8904 104.164 41.1886 103.434 40.9226 102.8C40.6558 102.167 39.927 101.869 39.293 102.134Z" fill="#434784"/>
<path d="M80.3186 94.8133L80.9753 93.2068C81.1704 92.7294 80.9416 92.1843 80.4643 91.9891C79.9869 91.794 79.4417 92.0228 79.2466 92.5001L78.5899 94.1066L76.9834 93.4499C76.506 93.2548 75.9609 93.4836 75.7657 93.9609C75.5706 94.4383 75.7994 94.9835 76.2767 95.1786L77.8832 95.8353L77.2265 97.4418C77.0314 97.9191 77.2602 98.4643 77.7375 98.6595C78.2149 98.8546 78.7601 98.6258 78.9552 98.1484L79.6119 96.542L81.2184 97.1987C81.6957 97.3938 82.2409 97.165 82.4361 96.6877C82.6312 96.2103 82.4024 95.6651 81.9251 95.47L80.3186 94.8133Z" fill="#FFAA02"/>
<path d="M39.6913 49.7037C34.534 50.4283 30.9276 55.2138 31.6522 60.3711C32.563 66.8534 43.4812 76.6109 43.4812 76.6109C43.4812 76.6109 51.2247 63.9063 50.3587 57.7428C49.6341 52.5855 44.8488 48.9791 39.6913 49.7037ZM44.2123 61.3991C43.5435 62.2864 42.5763 62.8191 41.5542 62.9627C40.5323 63.1063 39.4555 62.8608 38.5683 62.1921C36.7936 60.8548 36.4378 58.3229 37.7753 56.5481C38.4229 55.6884 39.3669 55.1324 40.433 54.9826C41.4991 54.8328 42.5596 55.1074 43.4193 55.7551C45.1941 57.0926 45.5498 59.6245 44.2123 61.3991Z" fill="#D53D3D"/>
<path d="M25.5601 50.1281L29.7321 52.8538L30.0111 52.4301L25.8401 49.7045L25.5601 50.1281Z" fill="#3D4C65"/>
<path d="M22.6951 57.7004L27.6691 58.098L27.7101 57.5927L22.7361 57.1951L22.6951 57.7004Z" fill="#3D4C65"/>
<path d="M23.2322 64.4571L23.4032 64.9347L28.1042 63.2687L27.9332 62.7911L23.2322 64.4571Z" fill="#3D4C65"/>
<path d="M25.9001 70.624L26.1871 71.042L30.308 68.2323L30.0211 67.8143L25.9001 70.624Z" fill="#3D4C65"/>
<path d="M31.2791 75.7251L31.593 76.1233L35.5161 73.0543L35.2021 72.6561L31.2791 75.7251Z" fill="#3D4C65"/>
<path d="M30.8101 44.9622L33.3101 49.2601L33.7511 49.0062L31.2511 44.7083L30.8101 44.9622Z" fill="#3D4C65"/>
<path d="M48.2078 49.0617L48.6578 49.2984L50.9878 44.9066L50.5368 44.6699L48.2078 49.0617Z" fill="#3D4C65"/>
<path d="M50.9878 51.5812L51.2678 52.0038L55.4318 49.2666L55.1518 48.844L50.9878 51.5812Z" fill="#3D4C65"/>
<path d="M53.2041 56.6948L53.2861 57.1951L58.2111 56.3974L58.1291 55.8971L53.2041 56.6948Z" fill="#3D4C65"/>
<path d="M53.2168 62.1305L53.2097 62.6373L58.1982 62.7135L58.2053 62.2067L53.2168 62.1305Z" fill="#3D4C65"/>
<path d="M52.4294 67.981L57.3524 68.7864L57.4355 68.2866L52.5114 67.4811L52.4294 67.981Z" fill="#3D4C65"/>
<path d="M43.9001 46.6686L44.4091 46.6794L44.5151 41.714L44.0061 41.7032L43.9001 46.6686Z" fill="#3D4C65"/>
<path d="M38.009 41.7961L38.603 46.528L39.109 46.4651L38.514 41.7332L38.009 41.7961Z" fill="#3D4C65"/>
<path d="M174.833 1.15967L160.036 0.299988L158.122 33.2386L172.919 34.0983L187.716 34.958L189.629 2.01935L174.833 1.15967Z" fill="white" stroke="#282425" stroke-width="0.6" stroke-miterlimit="10" stroke-linecap="round" stroke-linejoin="round"/>
<path d="M187.587 3.83722L174.72 3.08966L161.854 2.34216L160.669 22.7308L160.696 22.7347L160.502 26.0792L173.341 26.8251L186.181 27.5711L186.705 18.5637L186.732 18.551L187.587 3.83722Z" fill="#B7EFF9"/>
<path d="M163.483 26.2343L164.657 22.8205L166.786 21.6677L178 22.4575L181.394 23.0339L182.419 23.951L183.209 26.7058L163.483 26.2343Z" fill="#FFAA02"/>
<path d="M168.001 15.4312L166.671 14.9834L166.084 14.0606V12.8604L166.618 12.2736L166.084 11.2334L166.378 10.0598L167.551 9.20634L167.903 8.83294C167.903 8.83294 168.165 7.95277 168.245 7.87276C168.325 7.79274 169.152 7.49935 169.152 7.49935H169.952L170.725 6.59251L171.86 6.11242L172.752 6.37914L173.179 6.59251L174.193 6.00574L175.34 6.11242L175.846 6.53917L177.207 6.00574L178.353 6.43248L178.972 7.44601L179.18 7.79274L180.567 8.27283L180.887 9.55307L180.781 10.0332L182.007 10.7185L182.514 11.6868L182.007 13.1004L181.741 13.6072L182.274 14.6923L182.061 15.4312L181.314 16.4612L180.14 16.7811L168.154 16.3668L168.001 15.4312Z" fill="#434784"/>
<path d="M169.83 14.3384C169.83 14.3384 171.102 13.773 171.385 12.8014C172.515 12.819 173.295 12.395 173.295 12.395L174.565 13.3667L175.642 13.243L176.402 12.6424L176.95 13.9321C176.95 13.9321 177.922 14.3561 177.975 14.3384C178.028 14.3207 178.593 14.3389 178.593 14.3389V15.1687L179.851 15.9108V17.3241L178.31 18.1368L178.081 20.7515L176.844 21.4229L176.455 23.6666L175.43 24.5323L171.968 24.3556L170.625 23.2956L170.66 21.0695L169.83 20.4689C169.83 20.4689 169.229 19.1968 169.318 19.0378C169.406 18.8788 169.424 17.5538 169.424 17.5538L168.735 17.1828C168.735 17.1828 167.904 16.1051 168.01 16.0344C168.116 15.9638 168.752 14.7977 168.752 14.7977L169.83 14.3384Z" fill="white"/>
<path d="M179.708 25.5133L178.973 25.5864L179.106 26.9224L179.852 26.9551L179.708 25.5133Z" fill="#3D4C65"/>
<path d="M166.786 26.3813L167.537 26.4142L167.903 24.8578L167.184 24.6891L166.786 26.3813Z" fill="#3D4C65"/>
<path d="M163.858 26.2527L164.488 24.029C164.829 22.86 165.934 22.0824 167.149 22.1559L170.294 22.3628L170.269 22.7314C170.204 23.749 170.974 24.6278 171.991 24.696L174.94 24.8901C175.958 24.9558 176.837 24.1855 176.905 23.1681L176.929 22.7995L180.074 23.0064C181.288 23.0928 182.281 24.0079 182.466 25.211L182.738 27.082L183.49 27.115L183.197 25.1032C182.96 23.5565 181.683 22.3799 180.122 22.2691L176.978 22.0622L177.005 21.6566C177.874 21.5368 178.539 20.8228 178.598 19.9474L178.697 18.4359C179.431 18.3344 180.034 17.8054 180.23 17.0909C180.244 17.0918 180.258 17.0949 180.272 17.0959C180.318 17.0989 180.363 17.1019 180.408 17.1004C181.632 17.1017 182.625 16.112 182.629 14.8881C182.632 14.3919 182.467 13.9093 182.159 13.5199C183.034 12.6632 183.048 11.2597 182.192 10.3852C181.896 10.0832 181.52 9.87204 181.108 9.7767C181.297 8.66873 180.553 7.61685 179.445 7.42728C179.396 7.41891 179.348 7.41238 179.298 7.40762C178.966 6.22629 177.738 5.53848 176.557 5.87131C176.357 5.92752 176.167 6.01132 175.991 6.12027C175.16 5.44101 173.962 5.45273 173.145 6.1481C172.836 5.95645 172.485 5.84433 172.123 5.82205C171.162 5.76303 170.273 6.32736 169.917 7.22116C169.765 7.1691 169.606 7.13736 169.445 7.1268C168.427 7.061 167.549 7.83133 167.481 8.84872C167.478 8.89114 167.475 8.93314 167.476 8.97543C166.296 9.30612 165.607 10.5311 165.938 11.7115C165.994 11.9121 166.078 12.1039 166.188 12.281C165.411 13.23 165.551 14.6286 166.5 15.4049C166.857 15.697 167.297 15.8706 167.757 15.9016C167.7 16.7773 168.267 17.5723 169.113 17.8051L169.013 19.3165C168.957 20.1922 169.523 20.9872 170.369 21.2199L170.342 21.6255L167.198 21.4185C165.635 21.324 164.216 22.3236 163.778 23.8263L163.1 26.2194L163.858 26.2527ZM176.168 23.1196C176.128 23.7304 175.6 24.193 174.989 24.1528L172.04 23.9587C171.429 23.9185 170.966 23.3908 171.007 22.7799L171.055 22.0426L171.104 21.3053L176.265 21.645L176.168 23.1196ZM178.748 17.6724L178.885 15.5899C178.899 15.596 178.914 15.6007 178.928 15.6071C178.948 15.617 178.968 15.6276 178.988 15.6385C179.026 15.6597 179.063 15.6831 179.098 15.7086C179.114 15.7205 179.133 15.7321 179.147 15.7445C179.193 15.781 179.235 15.8209 179.274 15.864L179.283 15.8723C179.324 15.9195 179.36 15.9701 179.392 16.0235C179.403 16.0405 179.411 16.0588 179.421 16.0765C179.441 16.1148 179.46 16.1544 179.476 16.1949C179.484 16.2157 179.492 16.2369 179.498 16.2586C179.512 16.3008 179.523 16.3437 179.531 16.3873C179.534 16.4079 179.539 16.4279 179.542 16.4484C179.551 16.5139 179.555 16.5802 179.552 16.6464C179.551 16.6612 179.552 16.6759 179.553 16.6905C179.516 17.1541 179.195 17.5459 178.748 17.6724ZM169.163 17.0416C168.732 16.8557 168.464 16.4187 168.494 15.9502C168.501 15.8433 168.524 15.7381 168.562 15.6381C168.591 15.5634 168.627 15.4921 168.671 15.4253C168.68 15.4118 168.688 15.3979 168.698 15.3845C168.741 15.3228 168.79 15.2657 168.845 15.2138C168.855 15.2041 168.866 15.196 168.876 15.187C168.928 15.1407 168.985 15.0997 169.045 15.0645C169.054 15.0595 169.061 15.0533 169.07 15.0487C169.136 15.0131 169.205 14.9844 169.277 14.9631L169.3 14.9565L169.163 17.0416ZM169.353 14.1554L169.35 14.1923C169.331 14.195 169.313 14.2005 169.292 14.2036C169.26 14.2093 169.229 14.2154 169.198 14.2226C169.145 14.2343 169.093 14.2491 169.042 14.2653C169.013 14.2745 168.984 14.2826 168.957 14.293C168.898 14.3152 168.841 14.3405 168.784 14.3687C168.767 14.3772 168.748 14.3841 168.731 14.3936C168.66 14.4317 168.591 14.4743 168.526 14.5212C168.505 14.5365 168.487 14.5538 168.465 14.5698C168.421 14.604 168.379 14.6382 168.338 14.6773C168.314 14.6995 168.292 14.7228 168.269 14.7469C168.235 14.7816 168.202 14.8205 168.17 14.8599C168.149 14.8855 168.129 14.9117 168.109 14.9384C168.077 14.9823 168.048 15.0277 168.02 15.0744C168.005 15.0994 167.99 15.1228 167.976 15.1485C167.972 15.1546 167.968 15.1602 167.965 15.1667C167.151 15.2025 166.462 14.5714 166.426 13.7573C166.423 13.7024 166.424 13.6474 166.428 13.5927C166.452 13.2069 166.626 12.846 166.914 12.588C167.064 12.4539 167.079 12.2245 166.948 12.0719C166.418 11.4515 166.491 10.5187 167.111 9.98837C167.338 9.79416 167.619 9.67343 167.916 9.64194C168.119 9.62106 168.267 9.43967 168.246 9.23666C168.244 9.2222 168.242 9.20792 168.239 9.19369C168.218 9.09634 168.211 8.99661 168.218 8.89725C168.258 8.28647 168.786 7.82388 169.397 7.8641C169.594 7.87625 169.784 7.94229 169.946 8.05502C170.114 8.17099 170.344 8.129 170.46 7.96121C170.492 7.9147 170.513 7.86148 170.521 7.80557C170.639 7.05142 171.312 6.51126 172.074 6.55936C172.394 6.57834 172.698 6.70255 172.94 6.91251C173.013 6.97739 173.11 7.00955 173.208 7.00162C173.306 6.99387 173.397 6.94748 173.46 6.87271C173.764 6.52103 174.215 6.33157 174.679 6.3605C175.065 6.38431 175.426 6.55905 175.684 6.84683C175.818 6.9968 176.047 7.01187 176.2 6.88083C176.822 6.35019 177.757 6.42471 178.288 7.04727C178.474 7.26572 178.593 7.53354 178.629 7.81827C178.654 8.02072 178.839 8.1647 179.041 8.13968C179.041 8.13968 179.043 8.1395 179.043 8.1395C179.069 8.13632 179.097 8.13596 179.111 8.13541C179.823 8.14029 180.399 8.71982 180.398 9.43265C180.398 9.60751 180.362 9.78036 180.293 9.94077C180.244 10.054 180.255 10.1842 180.322 10.2878C180.388 10.392 180.503 10.4554 180.627 10.4559C181.443 10.4657 182.096 11.1352 182.087 11.9513C182.081 12.4457 181.828 12.9044 181.413 13.1734C181.242 13.2849 181.194 13.5138 181.305 13.6847C181.324 13.714 181.348 13.7404 181.374 13.7633C181.703 14.0412 181.891 14.4505 181.889 14.8809C181.887 15.6969 181.225 16.3574 180.409 16.3573C180.365 16.3571 180.321 16.3553 180.276 16.3509C180.274 16.3388 180.27 16.3279 180.268 16.3159C180.264 16.2856 180.256 16.257 180.25 16.2277C180.235 16.1512 180.215 16.0757 180.191 16.0016C180.179 15.9695 180.168 15.9376 180.155 15.906C180.126 15.8337 180.092 15.7633 180.054 15.6953C180.041 15.6723 180.03 15.6482 180.016 15.6258C179.961 15.5356 179.898 15.4503 179.828 15.3709L179.823 15.3658C179.754 15.2898 179.679 15.2196 179.598 15.1562C179.579 15.1413 179.559 15.1278 179.54 15.1154C179.472 15.0652 179.4 15.0198 179.326 14.9795C179.305 14.9677 179.283 14.9556 179.26 14.9445C179.171 14.9006 179.079 14.864 178.983 14.8351C178.974 14.8346 178.966 14.8288 178.957 14.826C178.948 14.8232 178.943 14.8236 178.935 14.8231L178.968 14.3217C178.982 14.1181 178.827 13.9423 178.624 13.929C178.58 13.9262 178.537 13.9311 178.495 13.9433C178.381 13.9754 178.263 13.9913 178.144 13.9906C177.43 13.9851 176.855 13.4034 176.857 12.6892C176.857 12.6169 176.863 12.5446 176.877 12.4735C176.915 12.273 176.783 12.0799 176.582 12.0421C176.568 12.0394 176.553 12.0376 176.538 12.0366L176.431 12.0295C176.275 12.0193 176.129 12.1088 176.067 12.2529C175.786 12.9081 175.027 13.2115 174.372 12.9306C174.033 12.7851 173.772 12.5014 173.656 12.1512C173.591 11.9576 173.382 11.8529 173.189 11.9173C173.118 11.9408 173.056 11.9853 173.011 12.0447C172.647 12.5078 171.989 12.6139 171.498 12.2884C171.329 12.1745 171.099 12.2193 170.986 12.3886C170.938 12.4594 170.916 12.5445 170.924 12.6294C170.928 12.6788 170.928 12.7285 170.924 12.7779C170.884 13.3886 170.356 13.8512 169.746 13.811C169.542 13.7976 169.366 13.9518 169.353 14.1554ZM169.75 19.365L170.068 14.5357C170.818 14.4323 171.429 13.8836 171.612 13.1496C172.154 13.3059 172.738 13.2071 173.199 12.8813C173.828 13.8105 175.091 14.0536 176.021 13.4243C176.084 13.381 176.146 13.3341 176.205 13.2838C176.463 14.1407 177.251 14.7278 178.146 14.7296L178.201 14.7289L177.861 19.8988C177.82 20.5096 177.293 20.9722 176.682 20.932L170.784 20.5438C170.173 20.5036 169.71 19.9759 169.75 19.365Z" fill="#3D4C65"/>
<path d="M177.022 15.7709C177.048 15.3637 176.74 15.0119 176.333 14.9851C175.926 14.9583 175.574 15.2666 175.547 15.6738C175.52 16.081 175.829 16.4329 176.236 16.4597C176.643 16.4865 176.995 16.1781 177.022 15.7709Z" fill="#3D4C65"/>
<path d="M172.598 15.4797C172.625 15.0725 172.316 14.7207 171.909 14.6939C171.502 14.6671 171.15 14.9755 171.123 15.3827C171.096 15.7899 171.405 16.1417 171.812 16.1685C172.219 16.1953 172.571 15.8869 172.598 15.4797Z" fill="#3D4C65"/>
</g>
<defs>
<linearGradient id="paint0_linear" x1="160.027" y1="74.7862" x2="156.63" y2="66.4769" gradientUnits="userSpaceOnUse">
<stop stop-color="white"/>
<stop offset="1" stop-color="white" stop-opacity="0"/>
</linearGradient>
<linearGradient id="paint1_linear" x1="157.724" y1="75.728" x2="154.326" y2="67.4187" gradientUnits="userSpaceOnUse">
<stop stop-color="white"/>
<stop offset="1" stop-color="white" stop-opacity="0"/>
</linearGradient>
<linearGradient id="paint2_linear" x1="148.61" y1="75.1874" x2="145.27" y2="67.0176" gradientUnits="userSpaceOnUse">
<stop stop-color="white"/>
<stop offset="1" stop-color="white" stop-opacity="0"/>
</linearGradient>
<linearGradient id="paint3_linear" x1="146.345" y1="76.1134" x2="143.005" y2="67.9435" gradientUnits="userSpaceOnUse">
<stop stop-color="white"/>
<stop offset="1" stop-color="white" stop-opacity="0"/>
</linearGradient>
<linearGradient id="paint4_linear" x1="160.027" y1="74.7862" x2="156.63" y2="66.4769" gradientUnits="userSpaceOnUse">
<stop stop-color="white"/>
<stop offset="1" stop-color="white" stop-opacity="0"/>
</linearGradient>
<linearGradient id="paint5_linear" x1="157.724" y1="75.728" x2="154.326" y2="67.4187" gradientUnits="userSpaceOnUse">
<stop stop-color="white"/>
<stop offset="1" stop-color="white" stop-opacity="0"/>
</linearGradient>
<linearGradient id="paint6_linear" x1="148.61" y1="75.1874" x2="145.27" y2="67.0176" gradientUnits="userSpaceOnUse">
<stop stop-color="white"/>
<stop offset="1" stop-color="white" stop-opacity="0"/>
</linearGradient>
<linearGradient id="paint7_linear" x1="146.345" y1="76.1134" x2="143.005" y2="67.9435" gradientUnits="userSpaceOnUse">
<stop stop-color="white"/>
<stop offset="1" stop-color="white" stop-opacity="0"/>
</linearGradient>
<clipPath id="clip0">
<rect width="313.471" height="231.954" fill="white"/>
</clipPath>
</defs>
</svg>
