<svg width="34" height="27" viewBox="0 0 34 27" fill="none" xmlns="http://www.w3.org/2000/svg">
<path d="M32.6028 16.29C33.3219 16.29 33.9049 15.6936 33.9049 14.9579V6.23298C33.9049 3.295 31.5684 0.904758 28.6965 0.904758H5.77987C2.90799 0.904758 0.571533 3.295 0.571533 6.23298V21.6182C0.571533 24.5562 2.90799 26.9464 5.77987 26.9464H28.6965C31.5684 26.9464 33.9049 24.5562 33.9049 21.6182C33.9049 20.8825 33.3219 20.2862 32.6028 20.2862C31.8836 20.2862 31.3007 20.8825 31.3007 21.6182C31.3007 23.0872 30.1325 24.2823 28.6965 24.2823H5.77987C4.34393 24.2823 3.1757 23.0872 3.1757 21.6182V6.51524L14.4879 13.7113C15.3361 14.2509 16.2872 14.5207 17.2382 14.5207C18.1892 14.5207 19.1403 14.2509 19.9885 13.7113L31.3007 6.51524V14.9579C31.3007 15.6936 31.8836 16.29 32.6028 16.29ZM18.6133 11.4489C17.7652 11.9885 16.7112 11.9885 15.8631 11.4489L4.26222 4.06919C4.68983 3.75442 5.21405 3.56887 5.77987 3.56887H28.6965C29.2624 3.56887 29.7866 3.75449 30.2142 4.06925L18.6133 11.4489Z" fill="#30BFAE"/>
</svg>
