<svg width="34" height="34" viewBox="0 0 34 34" fill="none" xmlns="http://www.w3.org/2000/svg">
<path d="M28.9818 5.03186C25.8391 2.15549 21.6684 0.571442 17.2382 0.571442C12.808 0.571442 8.63739 2.15549 5.49475 5.03186C2.32001 7.93752 0.571577 11.81 0.571577 15.936C0.571577 19.1538 1.62379 22.2025 3.62301 24.8014L0.666498 32.1146C0.467866 32.6059 0.586811 33.1686 0.967344 33.5375C1.21539 33.778 1.54208 33.9048 1.87398 33.9048C2.05126 33.9048 2.23004 33.8686 2.39892 33.7942L10.775 30.1018C12.8219 30.8976 14.9935 31.3006 17.2382 31.3006C20.0479 31.3006 22.826 30.644 25.272 29.4017C25.9131 29.076 26.1689 28.2923 25.8433 27.6511C25.5176 27.0099 24.7339 26.7542 24.0927 27.0798C22.0103 28.1374 19.6401 28.6964 17.2382 28.6964C15.1514 28.6964 13.142 28.2906 11.2658 27.4901C10.9344 27.3487 10.5593 27.351 10.2296 27.4963L4.28264 30.1178L6.32469 25.0664C6.50653 24.6166 6.42326 24.103 6.10848 23.7337C4.18987 21.4829 3.17574 18.7865 3.17574 15.936C3.17574 8.89989 9.48413 3.17561 17.2382 3.17561C24.9923 3.17561 31.3007 8.89989 31.3007 15.936C31.3007 18.3589 30.5489 20.7164 29.1264 22.7533C28.7146 23.3429 28.8588 24.1546 29.4484 24.5664C30.0379 24.9781 30.8498 24.8339 31.2614 24.2443C32.9908 21.7679 33.9049 18.8949 33.9049 15.936C33.9049 11.81 32.1565 7.93752 28.9818 5.03186Z" fill="#30BFAE"/>
</svg>
