<svg width="34" height="34" viewBox="0 0 34 34" fill="none" xmlns="http://www.w3.org/2000/svg">
<path d="M33.8199 29.1344C33.6732 28.4303 32.9835 27.9785 32.2794 28.1251C31.5753 28.2717 31.1234 28.9614 31.27 29.6654C31.3555 30.0678 31.2542 30.4873 30.9945 30.8064C30.7415 31.122 30.358 31.3045 29.9534 31.3018H4.52488C4.12036 31.3045 3.73686 31.122 3.48383 30.8064C3.22411 30.4873 3.1228 30.0678 3.20829 29.6654C4.59019 23.163 10.2483 18.4543 16.8942 18.2761C17.009 18.2805 17.1242 18.2827 17.2397 18.2827C17.3553 18.2827 17.4708 18.2805 17.5864 18.2761C22.2469 18.3866 26.5621 20.758 29.1535 24.6329C29.5482 25.234 30.3555 25.4014 30.9566 25.0067C31.5578 24.6121 31.7252 23.8048 31.3305 23.2037C31.326 23.1968 31.3214 23.1899 31.3167 23.1831C29.2161 20.0448 26.1266 17.6986 22.5394 16.5174C26.4568 13.5911 27.26 8.04344 24.3333 4.12643C21.4067 0.209425 15.8585 -0.593657 11.9411 2.3327C8.02374 5.25905 7.22058 10.8067 10.1472 14.7237C10.656 15.4046 11.2601 16.0087 11.9411 16.5174C6.19671 18.4069 1.89586 23.2159 0.657322 29.1344C0.206928 31.2717 1.57462 33.3695 3.71216 33.8198C3.97941 33.8761 4.25177 33.9046 4.52488 33.9048H29.9534C32.1379 33.9026 33.907 32.1302 33.9049 29.9459C33.9046 29.6732 33.8761 29.4013 33.8199 29.1344ZM10.989 9.42963C10.9891 5.97838 13.7873 3.1807 17.2389 3.18084C20.6904 3.18097 23.4884 5.97888 23.4883 9.43013C23.4881 12.7582 20.8794 15.5023 17.5553 15.6709H17.2386H16.9231C13.6001 15.499 10.9928 12.7568 10.989 9.42963Z" fill="#30BFAE"/>
</svg>
