<svg width="272" height="233" viewBox="0 0 272 233" fill="none" xmlns="http://www.w3.org/2000/svg">
<path d="M57.5893 30.392C66.503 30.9897 70.232 24.8956 74.4199 17.0631C85.8854 -4.38077 111.42 -2.31438 119.985 10.8901C126.051 20.243 139.134 18.319 149.718 14.6585C160.134 11.0558 177.881 7.59467 192.016 11.9C204.363 15.6604 209.429 29.2268 220.683 28.3923C245.235 26.5717 257.613 50.8604 253.166 61.4532C250.264 68.3671 248.823 76.1011 251.182 83.2155C253.782 91.051 259.718 97.2542 264.516 103.99C269.315 110.726 273.179 119.146 270.794 127.049C268.753 133.81 262.664 138.489 258.884 144.468C247.147 163.037 258.758 191.495 243.118 206.972C231.924 218.051 213.672 215.494 198.008 217.608C184.945 219.372 172.652 224.869 159.649 227.022C133.316 231.384 106.722 221.777 80.0253 221.506C70.6218 221.411 61.0424 222.461 51.9346 220.137C39.7825 217.037 29.4415 207.668 25.2255 195.939C19.4077 179.754 24.9199 161.023 18.3476 145.125C12.9934 132.174 -0.100031 121.637 0.723669 107.662C1.23647 98.9617 7.16837 91.6838 11.2482 83.9665C17.3115 72.4971 9.28317 27.1526 57.5893 30.392ZM135.299 9.38271C132.956 9.38271 131.057 10.8406 131.057 12.639C131.057 14.4374 132.961 15.7406 135.299 15.8954C142.917 16.3996 142.917 13.3138 142.917 11.5153C142.917 8.64222 137.641 9.38271 135.299 9.38271ZM212.664 23.2686C214.701 24.9543 217.297 25.9635 219.945 26.0996C220.653 26.136 221.423 26.091 221.968 25.6421C222.643 25.0866 222.716 23.9515 222.117 23.3155C221.741 22.9153 221.192 22.7355 220.681 22.5277C219.811 22.1733 218.957 21.6655 218.464 20.8699C218.321 20.6388 218.198 20.3743 217.96 20.2404C216.486 19.4096 209.983 21.0506 212.664 23.2686ZM225.64 26.1454C226.31 26.3774 227.046 26.1636 227.72 25.9441C228.153 25.8033 228.685 25.4931 228.568 25.056C228.512 24.8454 228.314 24.7056 228.121 24.6021C227.233 24.1259 226.081 23.775 225.188 24.3841C224.295 24.9931 224.969 25.9134 225.64 26.1454ZM256.622 87.4801C256.738 88.4932 257.361 89.368 257.965 90.1931C259.129 91.7841 260.312 93.3945 261.848 94.6357C262.498 95.1609 263.254 95.6307 264.092 95.6597C264.855 95.6862 265.586 95.3399 266.205 94.8956C267.712 93.813 268.729 92.0831 268.938 90.2482C269.223 87.7307 268.054 85.2798 266.695 83.1353C265.854 81.8071 264.872 80.4836 263.463 79.7715C261.101 78.5776 259.54 79.6197 258.881 81.7156C258.273 83.6445 256.376 85.3322 256.622 87.4801ZM5.32277 146.094C4.07907 147.192 5.20087 150.405 5.56797 152.526C5.67797 153.162 5.82487 153.819 6.22597 154.327C6.77417 155.022 7.68437 155.307 8.53757 155.555C10.0518 155.994 11.8867 156.368 13.0428 155.302C13.9007 154.511 14.0221 153.223 14.0205 152.061C14.0192 151 13.962 149.939 13.8496 148.883C13.7956 148.377 13.7227 147.854 13.4521 147.421C13.1058 146.867 12.4896 146.544 11.8859 146.288C9.71977 145.37 6.56657 144.996 5.32277 146.094ZM81.3429 226.585C80.607 226.733 79.7284 227.052 79.6221 227.789C79.5343 228.399 80.0466 228.919 80.5418 229.289C84.6011 232.324 90.0636 232.518 95.1456 232.589C95.7386 232.597 96.3526 232.601 96.8996 232.371C97.9866 231.912 98.5076 230.478 98.0016 229.418C97.8166 229.032 97.5256 228.706 97.2176 228.406C93.1346 224.424 86.4231 225.564 81.3429 226.585ZM182.722 224.532C178.14 227.891 182.774 230.888 188.561 228.664C191.679 227.465 194.669 226.281 197.86 225.479C198.891 225.22 205.128 223.869 205.129 222.465C205.131 218.744 198.102 219.623 193.682 220.243C190.118 220.743 186.5 221.762 182.722 224.532Z" fill="#ECF6FF"/>
</svg>
