<svg width="290" height="234" viewBox="0 0 290 234" fill="none" xmlns="http://www.w3.org/2000/svg">
<g clip-path="url(#clip0)">
<path d="M66.589 31.392C75.5027 31.9897 79.2317 25.8956 83.4196 18.0631C94.8851 -3.38077 120.419 -1.31438 128.984 11.8901C135.05 21.243 148.133 19.319 158.717 15.6585C169.133 12.0558 186.88 8.59467 201.015 12.9C213.362 16.6604 218.428 30.2268 229.682 29.3923C254.234 27.5717 266.612 51.8604 262.165 62.4532C259.263 69.3671 257.822 77.1011 260.181 84.2155C262.781 92.051 268.717 98.2542 273.515 104.99C278.314 111.726 282.178 120.146 279.793 128.049C277.752 134.81 271.663 139.489 267.883 145.468C256.146 164.037 267.757 192.495 252.117 207.972C240.923 219.051 222.671 216.494 207.007 218.608C193.944 220.372 181.651 225.869 168.648 228.022C142.315 232.384 115.721 222.777 89.025 222.506C79.6215 222.411 70.0421 223.461 60.9343 221.137C48.7822 218.037 38.4412 208.668 34.2252 196.939C28.4074 180.754 33.9196 162.023 27.3473 146.125C21.9931 133.174 8.89972 122.637 9.72342 108.662C10.2362 99.9617 16.1681 92.6838 20.2479 84.9665C26.3112 73.4971 18.2829 28.1526 66.589 31.392ZM144.298 10.3827C141.955 10.3827 140.056 11.8406 140.056 13.639C140.056 15.4374 141.96 16.7406 144.298 16.8954C151.916 17.3996 151.916 14.3138 151.916 12.5153C151.916 9.64222 146.64 10.3827 144.298 10.3827ZM221.663 24.2686C223.7 25.9543 226.296 26.9635 228.944 27.0996C229.652 27.136 230.422 27.091 230.967 26.6421C231.642 26.0866 231.715 24.9515 231.116 24.3155C230.74 23.9153 230.191 23.7355 229.68 23.5277C228.81 23.1733 227.956 22.6655 227.463 21.8699C227.32 21.6388 227.197 21.3743 226.959 21.2404C225.485 20.4096 218.982 22.0506 221.663 24.2686ZM234.639 27.1454C235.309 27.3774 236.045 27.1636 236.719 26.9441C237.152 26.8033 237.684 26.4931 237.567 26.056C237.511 25.8454 237.313 25.7056 237.12 25.6021C236.232 25.1259 235.08 24.775 234.187 25.3841C233.294 25.9931 233.968 26.9134 234.639 27.1454ZM265.621 88.4801C265.737 89.4932 266.36 90.368 266.964 91.1931C268.128 92.7841 269.311 94.3945 270.847 95.6357C271.497 96.1609 272.253 96.6307 273.091 96.6597C273.854 96.6862 274.585 96.3399 275.204 95.8956C276.711 94.813 277.728 93.0831 277.937 91.2482C278.222 88.7307 277.053 86.2798 275.694 84.1353C274.853 82.8071 273.871 81.4836 272.462 80.7715C270.1 79.5776 268.539 80.6197 267.88 82.7156C267.272 84.6445 265.375 86.3322 265.621 88.4801ZM14.3225 147.094C13.0788 148.192 14.2006 151.405 14.5677 153.526C14.6777 154.162 14.8246 154.819 15.2257 155.327C15.7739 156.022 16.6841 156.307 17.5373 156.555C19.0515 156.994 20.8864 157.368 22.0425 156.302C22.9004 155.511 23.0218 154.223 23.0202 153.061C23.0189 152 22.9617 150.939 22.8493 149.883C22.7953 149.377 22.7224 148.854 22.4518 148.421C22.1055 147.867 21.4893 147.544 20.8856 147.288C18.7195 146.37 15.5663 145.996 14.3225 147.094ZM90.3426 227.585C89.6067 227.733 88.7281 228.052 88.6218 228.789C88.534 229.399 89.0463 229.919 89.5415 230.289C93.6008 233.324 99.0633 233.518 104.145 233.589C104.738 233.597 105.352 233.601 105.899 233.371C106.986 232.912 107.507 231.478 107.001 230.418C106.816 230.032 106.525 229.706 106.217 229.406C102.134 225.424 95.4228 226.564 90.3426 227.585ZM191.721 225.532C187.139 228.891 191.773 231.888 197.56 229.664C200.678 228.465 203.668 227.281 206.859 226.479C207.89 226.22 214.127 224.869 214.128 223.465C214.13 219.744 207.101 220.623 202.681 221.243C199.117 221.743 195.499 222.762 191.721 225.532Z" fill="#ECF6FF"/>
<path d="M63.9778 38.2289C63.9676 38.19 63.7252 37.2601 63.4754 35.7179L63.9781 35.6372C64.2237 37.153 64.4681 38.0915 64.4706 38.1007L63.9778 38.2289ZM63.1462 33.189C63.0617 32.3361 63.0038 31.48 62.9742 30.6444L63.4829 30.6265C63.5122 31.4515 63.5694 32.2968 63.6529 33.139L63.1462 33.189ZM63.4786 28.1086L62.97 28.0918C62.9988 27.2242 63.0607 26.3669 63.1534 25.5434L63.6596 25.5998C63.5681 26.4102 63.5075 27.2542 63.4786 28.1086ZM64.0502 23.119L63.5515 23.0175C63.727 22.1634 63.9438 21.3305 64.1954 20.5414L64.6807 20.6948C64.4345 21.4668 64.2222 22.2824 64.0502 23.119ZM114.523 21.3874C114.126 21.3874 113.731 21.3646 113.349 21.3201L113.408 20.8168C113.771 20.8591 114.146 20.8806 114.523 20.8806C114.525 20.8806 114.527 20.8806 114.529 20.8806C114.967 20.8806 115.423 20.8522 115.885 20.796L115.946 21.2988C115.464 21.3577 114.988 21.3874 114.53 21.3874C114.527 21.3874 114.525 21.3874 114.523 21.3874ZM118.473 20.7609L118.329 20.2749C119.076 20.0542 119.871 19.7667 120.693 19.421L120.891 19.8877C120.052 20.2408 119.239 20.5345 118.473 20.7609ZM110.835 20.6723C110.086 20.3675 109.344 19.9621 108.568 19.4334L108.855 19.0152C109.601 19.5234 110.312 19.9122 111.028 20.2032L110.835 20.6723ZM123.211 18.8002L122.977 18.3498C123.685 17.9863 124.43 17.5763 125.192 17.1312L125.45 17.5682C124.68 18.018 123.927 18.4325 123.211 18.8002ZM65.5834 18.3605L65.1205 18.1492C65.4844 17.3598 65.8996 16.6017 66.3543 15.8955L66.7829 16.1691C66.3409 16.8553 65.9374 17.5927 65.5834 18.3605ZM106.544 17.8554C105.955 17.3497 105.376 16.8209 104.763 16.2612L104.646 16.1553L104.991 15.7817L105.107 15.8876C105.717 16.4448 106.294 16.9711 106.877 17.4719L106.544 17.8554ZM127.626 16.2337L127.35 15.8076C127.718 15.5721 128.093 15.3271 128.476 15.0727L128.759 15.4939C128.374 15.7502 127.996 15.9967 127.626 16.2337ZM102.758 14.4687C102.062 13.8709 101.419 13.354 100.793 12.8883L101.098 12.4825C101.734 12.9554 102.386 13.4795 103.09 14.0852L102.758 14.4687ZM68.2893 14.1807L67.9079 13.8452C68.4765 13.2046 69.1007 12.604 69.7635 12.0604L70.0872 12.4514C69.4453 12.9782 68.8402 13.5599 68.2893 14.1807ZM98.7064 11.4851C97.9837 11.0504 97.2374 10.655 96.4881 10.31L96.7019 9.85033C97.4681 10.2029 98.2311 10.6072 98.97 11.0516L98.7064 11.4851ZM72.134 11.0204L71.8735 10.5849C72.5947 10.1576 73.3689 9.76966 74.1742 9.43239L74.3716 9.89956C73.5879 10.2276 72.8351 10.605 72.134 11.0204ZM94.1526 9.3891C93.3734 9.13053 92.5583 8.90684 91.7296 8.72373L91.84 8.22886C92.6858 8.41568 93.5179 8.64431 94.3137 8.90857L94.1526 9.3891ZM76.7411 9.07411L76.6014 8.58666C77.3979 8.3605 78.2397 8.16823 79.1036 8.01532L79.1926 8.51416C78.3459 8.66409 77.521 8.85241 76.7411 9.07411ZM89.2497 8.29665C88.4425 8.19446 87.5977 8.1222 86.739 8.08187L86.7629 7.57561C87.6352 7.61668 88.4934 7.69017 89.3139 7.79386L89.2497 8.29665ZM81.6907 8.1848L81.6449 7.68004C82.2259 7.62783 82.8278 7.58948 83.4342 7.56646C83.6938 7.55631 83.9503 7.5489 84.2039 7.54395L84.2138 8.0507C83.9637 8.05565 83.7102 8.06283 83.4536 8.07271C82.8562 8.09548 82.263 8.13335 81.6907 8.1848Z" fill="#3D4C65"/>
<path d="M129.793 0L134.845 4.99054L131.047 13.3247L136.248 11.9561L136.515 17.4872L156.444 3.24089L129.793 0Z" fill="#87BECA"/>
<path d="M155.854 3.16113L134.826 4.73947L134.864 5.24475L155.892 3.6664L155.854 3.16113Z" fill="#3D4C65"/>
<path d="M136.51 8.52246L130.885 13.1296L131.209 13.521L136.833 8.91391L136.51 8.52246Z" fill="#3D4C65"/>
<path d="M155.805 3.17041L136.604 8.47547L136.74 8.96391L155.941 3.65885L155.805 3.17041Z" fill="#3D4C65"/>
<path d="M136.42 8.68604L135.994 11.9228L136.499 11.9886L136.925 8.75185L136.42 8.68604Z" fill="#3D4C65"/>
<path d="M42.0935 148.015C42.5429 148.73 42.9792 149.478 43.3918 150.238L42.9457 150.479C42.5393 149.729 42.1071 148.991 41.6637 148.284L42.0935 148.015ZM40.6556 145.88L40.2444 146.177C39.7521 145.495 39.2286 144.819 38.6897 144.17L39.0793 143.846C39.6253 144.504 40.1561 145.188 40.6556 145.88ZM44.5516 152.534C44.91 153.299 45.2553 154.093 45.5782 154.892L45.1076 155.081C44.7882 154.29 44.4464 153.505 44.0922 152.749L44.5516 152.534ZM37.369 141.922L37.0018 142.272C36.4229 141.664 35.8126 141.066 35.1899 140.494L35.5314 140.12C36.163 140.699 36.7811 141.305 37.369 141.922ZM46.4705 157.307C46.7493 158.158 46.9784 158.996 47.1519 159.797L46.6555 159.902C46.4863 159.118 46.2616 158.298 45.9882 157.464L46.4705 157.307ZM33.5803 138.442L33.2631 138.838C32.6212 138.32 31.9388 137.805 31.2367 137.305L31.5289 136.892C32.2401 137.396 32.9297 137.919 33.5803 138.442ZM47.5306 162.356C47.5994 163.245 47.5942 164.118 47.5151 164.948L47.0095 164.898C47.0862 164.096 47.091 163.254 47.0245 162.393L47.5306 162.356ZM29.3923 135.462L29.1229 135.892C28.4327 135.456 27.6972 135.016 26.9395 134.586L27.1884 134.144C27.9538 134.578 28.6951 135.022 29.3923 135.462ZM24.9344 132.918L24.7006 133.369C23.9217 132.962 23.1611 132.58 22.4252 132.215L22.6485 131.76C23.3877 132.126 24.1516 132.51 24.9344 132.918ZM47.0178 167.495C46.7692 168.315 46.4313 169.12 46.014 169.888L45.5683 169.643C45.9695 168.906 46.2932 168.133 46.5322 167.345L47.0178 167.495ZM20.3565 130.628L20.1333 131.083C19.1691 130.604 18.466 130.241 17.8525 129.906L18.0933 129.46C18.7004 129.791 19.3991 130.151 20.3565 130.628ZM15.9374 128.144L15.6463 128.559C14.8112 127.966 14.1805 127.386 13.7194 126.783L14.122 126.475C14.5515 127.037 15.145 127.583 15.9374 128.144ZM44.574 172.038C44.0627 172.674 43.4712 173.309 42.8153 173.926L42.4676 173.554C43.1057 172.954 43.6811 172.336 44.1779 171.718L44.574 172.038ZM40.8496 175.584C40.2973 176.006 39.6891 176.441 39.0428 176.874L38.7572 177.064L38.4763 176.639L38.7586 176.451C39.3974 176.023 39.9968 175.596 40.5402 175.18L40.8496 175.584ZM36.3257 177.98L36.5864 178.418C35.9306 178.808 35.2059 179.224 34.3722 179.691L34.1228 179.246C34.9539 178.782 35.6742 178.368 36.3257 177.98ZM31.8937 180.474L32.1379 180.921L31.7138 181.152C31.1117 181.48 30.5069 181.81 29.9039 182.143L29.6572 181.697C30.2612 181.364 30.8667 181.034 31.4698 180.705L31.8937 180.474ZM27.4329 182.948L27.6884 183.388C26.8877 183.85 26.1751 184.276 25.5092 184.69L25.2401 184.258C25.9102 183.841 26.6281 183.412 27.4329 182.948ZM23.3917 186.081C22.6677 186.585 21.9858 187.094 21.3671 187.593L21.0473 187.197C21.6755 186.69 22.367 186.173 23.1008 185.663L23.3917 186.081ZM19.4766 189.263C18.8554 189.868 18.284 190.492 17.7776 191.118L17.3829 190.797C17.902 190.156 18.4872 189.517 19.1214 188.898L19.4766 189.263ZM41.7171 223.367L41.6764 223.874C40.8334 223.801 39.9749 223.709 39.1257 223.599L39.1878 223.095C40.031 223.204 40.882 223.295 41.7171 223.367ZM36.6745 222.711L36.5889 223.212C35.7348 223.062 34.8887 222.892 34.0725 222.707L34.1822 222.211C34.9908 222.394 35.8288 222.563 36.6745 222.711ZM16.336 193.172C15.9024 193.895 15.5258 194.65 15.2163 195.415L14.7461 195.222C15.0651 194.433 15.4536 193.655 15.9 192.909L16.336 193.172ZM31.7197 221.585L31.5828 222.074C30.7413 221.835 29.9173 221.574 29.1328 221.298L29.299 220.818C30.0737 221.09 30.8883 221.348 31.7197 221.585ZM14.4622 197.805C14.2778 198.602 14.1478 199.438 14.0769 200.288L13.5716 200.243C13.6442 199.369 13.7774 198.51 13.9683 197.688L14.4622 197.805ZM26.9364 219.895L26.7365 220.362C25.9311 220.014 25.1498 219.638 24.4148 219.246L24.6513 218.797C25.3753 219.182 26.1433 219.552 26.9364 219.895ZM14.0306 202.807C14.045 203.154 14.0688 203.505 14.1006 203.864C14.1445 204.357 14.206 204.845 14.2837 205.317L13.782 205.398C13.7029 204.914 13.64 204.412 13.5951 203.907C13.5618 203.541 13.538 203.18 13.5233 202.826L14.0306 202.807ZM22.4762 217.502L22.1976 217.926C21.4647 217.439 20.7675 216.92 20.1259 216.381L20.4511 215.991C21.0784 216.518 21.7598 217.026 22.4762 217.502ZM14.8618 207.769C15.1125 208.575 15.4246 209.362 15.7868 210.111L15.3313 210.331C14.9566 209.56 14.6356 208.748 14.3773 207.919L14.8618 207.769ZM18.6244 214.253L18.2528 214.597C17.6607 213.956 17.1173 213.274 16.6352 212.573L17.0531 212.286C17.5208 212.968 18.0497 213.629 18.6244 214.253Z" fill="#3D4C65"/>
<path d="M13.3225 122.997C13.2453 123.417 13.218 123.822 13.2414 124.2L12.7353 124.23C12.7093 123.81 12.739 123.364 12.8228 122.903L13.3225 122.997Z" fill="#3D4C65"/>
<path d="M0 119.063L5.60205 114.726L13.3937 119.593L12.6992 114.264L18.2274 114.735L6.6243 93.1167L0 119.063Z" fill="#EBBE00"/>
<path d="M5.35022 114.713L5.85617 114.742L6.97913 93.7215L6.47178 93.6919L5.35022 114.713Z" fill="#3D4C65"/>
<path d="M13.1808 119.73L13.61 119.461L9.75498 113.281L9.32434 113.549L13.1808 119.73Z" fill="#3D4C65"/>
<path d="M9.28836 113.451L9.79103 113.38L6.97681 93.6714L6.47498 93.7416L9.28836 113.451Z" fill="#3D4C65"/>
<path d="M9.47461 113.661L12.6357 114.512L12.7651 114.021L9.60462 113.17L9.47461 113.661Z" fill="#3D4C65"/>
<path d="M45.6036 161.47L22.7126 156.986C22.1329 156.873 21.755 156.311 21.8685 155.731L28.7481 120.613C28.8616 120.034 29.4237 119.656 30.0034 119.769L52.8943 124.254C53.4741 124.367 53.852 124.929 53.7384 125.509L46.8589 160.626C46.7453 161.206 46.1833 161.584 45.6036 161.47Z" fill="#B7EFF9"/>
<path d="M45.5489 153.795L25.6592 149.899C25.1909 149.807 24.8857 149.353 24.9775 148.885L30.1512 122.475C30.2429 122.007 30.6969 121.701 31.1651 121.793L51.0548 125.69C51.5231 125.781 51.8283 126.235 51.7366 126.703L46.5628 153.114C46.4711 153.582 46.0171 153.887 45.5489 153.795Z" fill="#3D4C65"/>
<path d="M34.1613 157.418C35.3175 157.841 36.5949 157.251 37.0146 156.099C37.4339 154.948 36.837 153.671 35.6808 153.248C34.5246 152.825 33.2472 153.415 32.8279 154.567C32.4081 155.718 33.0054 156.995 34.1613 157.418Z" fill="#798B97"/>
<path d="M30.9305 126.335L41.1392 128.335C41.8529 128.475 42.5449 128.01 42.6848 127.296V127.296C42.8246 126.582 42.3593 125.89 41.6455 125.75L32.728 124.003C32.015 123.864 31.3237 124.328 31.184 125.042L30.9305 126.335Z" fill="#9EDB6E"/>
<path d="M30.1923 130.104L37.4704 131.53C38.1842 131.67 38.8762 131.205 39.016 130.491V130.491C39.1559 129.777 38.6906 129.085 37.9768 128.945L31.9898 127.772C31.2767 127.633 30.5854 128.097 30.4457 128.811L30.1923 130.104Z" fill="#9EDB6E"/>
<path d="M28.8922 136.74L37.2838 138.384C37.9976 138.524 38.6896 138.058 38.8294 137.345H38.8294C38.9692 136.631 38.504 135.939 37.7902 135.799L30.6897 134.408C29.9766 134.268 29.2853 134.733 29.1457 135.446L28.8922 136.74Z" fill="#9EDB6E"/>
<path d="M28.1539 140.509L33.0292 141.464C33.7423 141.604 34.4336 141.139 34.5733 140.426L34.5738 140.423C34.7135 139.71 34.2487 139.019 33.5356 138.879L29.9514 138.177C29.2384 138.037 28.5471 138.502 28.4074 139.215L28.1539 140.509Z" fill="#9EDB6E"/>
<path d="M48.1215 136.393L40.8433 134.968C40.1296 134.828 39.6643 134.136 39.8041 133.422V133.422C39.9439 132.708 40.6359 132.243 41.3497 132.383L47.3355 133.555C48.0492 133.695 48.5145 134.387 48.3747 135.101L48.1215 136.393Z" fill="#FFAA02"/>
<path d="M45.8082 148.202L37.4166 146.558C36.7028 146.419 36.2375 145.727 36.3774 145.013C36.5172 144.299 37.2092 143.834 37.923 143.974L45.0221 145.364C45.7359 145.504 46.2012 146.196 46.0614 146.91L45.8082 148.202Z" fill="#FFAA02"/>
<path d="M45.0699 151.971L40.1946 151.016C39.4815 150.876 39.0167 150.185 39.1564 149.472L39.1569 149.469C39.2966 148.756 39.9879 148.291 40.701 148.431L44.2851 149.133C44.9982 149.273 45.463 149.964 45.3233 150.677L45.0699 151.971Z" fill="#FFAA02"/>
<path d="M57.063 120.348C57.063 120.348 51.6537 113.954 45.4666 118.418C40.4991 122.002 41.4996 127.889 45.6117 131.977C44.6328 132.368 43.3705 132.899 43.2037 133.099C42.9265 133.431 49.6897 136.596 53.2435 135.09C53.2435 135.09 53.2445 135.09 53.2451 135.089C58.2568 133.884 62.5323 126.706 57.063 120.348Z" fill="white"/>
<path d="M47.7113 129.229C47.7113 129.229 48.3823 120.094 51.1898 120.488C53.9973 120.883 51.7063 125.647 51.7063 125.647C51.7063 125.647 55.0845 123.356 56.1597 124.379C58.497 126.604 51.7671 129.475 47.7113 129.229Z" fill="#D53D3D"/>
<path d="M68.6925 169.078L68.2853 166.275L70.5512 167.819L72.6284 166.275L71.9498 168.966L73.9855 170.357L71.5013 170.803L70.2916 173.449L69.3708 170.803H66.7924L68.6925 169.078Z" fill="#D53D3D"/>
<path d="M139.235 47.2467L138.827 44.4438L141.093 45.987L143.17 44.4438L142.492 47.1342L144.528 48.5259L142.043 48.9717L140.834 51.6176L139.913 48.9717H137.334L139.235 47.2467Z" fill="#30BFAE"/>
<path d="M205.119 140.559L204.502 136.313L207.935 138.651L211.081 136.313L210.053 140.389L213.137 142.497L209.374 143.172L207.541 147.18L206.146 143.172H202.24L205.119 140.559Z" fill="white"/>
<path d="M271.431 90.084L271.613 97.1664L280.311 100.126L275.742 102.957L279.602 106.942L255.517 111.621L271.431 90.084Z" fill="#FFAA02"/>
<path d="M280.279 99.873L273.053 100.797L273.117 101.299L280.343 100.376L280.279 99.873Z" fill="#3D4C65"/>
<path d="M272.952 100.828L255.904 111.111L256.168 111.544L273.216 101.262L272.952 100.828Z" fill="#3D4C65"/>
<path d="M273.234 100.84L272.936 101.252L275.593 103.163L275.892 102.751L273.234 100.84Z" fill="#3D4C65"/>
<path d="M271.445 96.9834L255.861 111.135L256.203 111.51L271.788 97.3577L271.445 96.9834Z" fill="#3D4C65"/>
<path d="M284.176 96.5282L283.777 96.213C284.095 95.8148 284.404 95.4042 284.694 94.9922L285.111 95.2824C284.815 95.7029 284.5 96.1222 284.176 96.5282ZM286.475 93.1117L286.029 92.8665C286.437 92.1338 286.807 91.3754 287.13 90.6125L287.6 90.8088C287.27 91.5885 286.892 92.3633 286.475 93.1117ZM288.464 88.3959L287.975 88.2532C288.211 87.4542 288.403 86.6339 288.547 85.8147L289.048 85.9011C288.902 86.7388 288.705 87.5784 288.464 88.3959ZM289.345 83.3573L288.836 83.3282C288.884 82.5032 288.887 81.6606 288.843 80.8237L289.353 80.797C289.397 81.6526 289.394 82.5141 289.345 83.3573ZM288.583 78.3315C288.454 77.5201 288.283 76.6937 288.071 75.8761L288.565 75.7496C288.78 76.583 288.956 77.4249 289.086 78.2524L288.583 78.3315ZM287.336 73.4763C287.062 72.7038 286.746 71.9189 286.399 71.1434L286.865 70.9368C287.217 71.7246 287.537 72.522 287.816 73.3067L287.336 73.4763ZM285.289 68.8844C284.905 68.1642 284.481 67.4302 284.031 66.7032L284.464 66.4367C284.92 67.1731 285.35 67.9164 285.74 68.6461L285.289 68.8844ZM282.641 64.5989C282.174 63.9304 281.67 63.2474 281.142 62.5692L281.546 62.2587C282.077 62.9437 282.587 63.6335 283.06 64.3089L282.641 64.5989ZM279.547 60.6113C279.015 59.9874 278.451 59.3517 277.868 58.7219L278.244 58.3789C278.83 59.0135 279.399 59.6544 279.936 60.2833L279.547 60.6113ZM276.118 56.8965L275.991 56.7703C275.436 56.2133 274.861 55.676 274.281 55.1733L274.616 54.7912C275.204 55.3021 275.788 55.8475 276.353 56.4129L276.48 56.5413L276.118 56.8965ZM242.935 59.7602C242.842 59.7691 242.747 59.7705 242.651 59.7641L242.687 59.2582C243.462 59.3126 244.078 58.5909 244.426 58.0059L244.864 58.2637C244.321 59.1749 243.655 59.6923 242.935 59.7602ZM240.438 58.2336C240.21 57.8717 240.074 57.4737 240.033 57.0505C239.989 56.585 240.062 56.09 240.25 55.5792L240.727 55.7528C240.567 56.1922 240.504 56.6127 240.541 57.0024C240.573 57.3461 240.684 57.6696 240.869 57.9643L240.438 58.2336ZM272.316 53.6002C271.635 53.0998 270.93 52.6289 270.224 52.2L270.488 51.7674C271.208 52.2038 271.925 52.6832 272.618 53.1925L272.316 53.6002ZM245.802 55.8377L245.309 55.7157C245.496 54.9695 245.632 54.1414 245.716 53.2541L246.223 53.3012C246.136 54.2136 245.996 55.0669 245.802 55.8377ZM242.062 53.7353L241.691 53.3885C242.238 52.8088 242.902 52.245 243.666 51.7128L243.958 52.1275C243.223 52.6401 242.585 53.181 242.062 53.7353ZM268.014 50.9938C267.259 50.6259 266.48 50.2919 265.7 50.0016L265.88 49.527C266.674 49.8231 267.467 50.1635 268.238 50.5386L268.014 50.9938ZM263.302 49.2395C262.491 49.0257 261.662 48.8503 260.838 48.7183L260.92 48.218C261.761 48.3524 262.607 48.5314 263.433 48.7494L263.302 49.2395ZM246.115 50.8521L246.06 50.7462L245.808 50.7504C245.797 50.1005 245.76 49.4317 245.697 48.7627C245.68 48.5914 245.663 48.4193 245.643 48.2467L246.149 48.1891C246.169 48.3651 246.187 48.5401 246.203 48.7149C246.25 49.2112 246.283 49.7077 246.302 50.1965C246.926 49.9002 247.58 49.6278 248.25 49.3847L248.424 49.8609C247.622 50.152 246.844 50.4856 246.115 50.8521ZM258.335 48.4455C257.498 48.3966 256.651 48.3891 255.815 48.4237L255.795 47.9171C256.647 47.8822 257.512 47.8896 258.364 47.9397L258.335 48.4455ZM250.834 49.1302L250.712 48.6382C251.536 48.4344 252.387 48.2701 253.235 48.1501L253.307 48.6518C252.474 48.7695 251.643 48.9304 250.834 49.1302ZM245.243 45.7687C245.071 44.9479 244.861 44.1304 244.615 43.3391L245.101 43.1894C245.351 43.9959 245.566 44.8289 245.742 45.665L245.243 45.7687ZM243.756 40.982C243.429 40.2061 243.061 39.447 242.661 38.7262L243.108 38.4812C243.515 39.2177 243.892 39.9932 244.227 40.7856L243.756 40.982ZM241.325 36.6055L241.213 36.4477C240.743 35.8034 240.264 35.185 239.79 34.6101L240.184 34.2882C240.665 34.8711 241.15 35.4976 241.625 36.1504L241.742 36.3122L241.325 36.6055ZM238.114 32.7345C237.507 32.1104 236.89 31.5347 236.278 31.023L236.606 30.6347C237.231 31.1576 237.862 31.7454 238.48 32.3817L238.114 32.7345ZM234.259 29.5445C233.521 29.0808 232.776 28.6965 232.044 28.4024L232.235 27.9325C232.995 28.2377 233.767 28.636 234.531 29.1162L234.259 29.5445ZM229.655 27.7529C229.075 27.6729 228.52 27.6572 228.007 27.7056C227.52 27.7516 227.249 27.841 227.246 27.8418L227.081 27.3622C227.095 27.3579 227.405 27.2534 227.959 27.2011C228.513 27.1489 229.107 27.1656 229.727 27.2506L229.655 27.7529Z" fill="#3D4C65"/>
<path d="M186.076 132.197V127.881H184.269C183.974 126.351 183.378 124.928 182.535 123.683L183.81 122.409L180.757 119.356L179.484 120.63C178.239 119.787 176.816 119.19 175.285 118.895V117.09H170.969V118.895C169.438 119.19 168.015 119.787 166.77 120.63L165.497 119.356L162.444 122.409L163.718 123.683C162.876 124.928 162.279 126.351 161.984 127.881H160.178V132.197H161.985C162.28 133.728 162.877 135.15 163.719 136.395L162.444 137.669L165.497 140.722L166.772 139.447C168.016 140.288 169.439 140.885 170.969 141.179V142.988H175.285V141.179C176.815 140.885 178.238 140.288 179.482 139.446L180.757 140.722L183.81 137.669L182.534 136.394C183.377 135.15 183.974 133.728 184.268 132.197H186.076ZM173.126 137.251C169.144 137.251 165.919 134.02 165.919 130.037C165.919 126.06 169.144 122.83 173.126 122.83C177.11 122.83 180.334 126.06 180.334 130.037C180.334 134.02 177.11 137.251 173.126 137.251Z" fill="#3D4C65"/>
<path d="M178.03 103.119L195.206 106.241C195.749 106.339 196.27 105.979 196.369 105.436L200.214 84.2776C200.313 83.7343 199.953 83.2137 199.409 83.1149L182.233 79.9929C181.69 79.8941 181.169 80.2545 181.07 80.7979L177.225 101.956C177.126 102.499 177.486 103.02 178.03 103.119Z" fill="#30BFAE"/>
<path d="M190.863 91.9805C190.254 91.8724 189.648 91.9465 189.115 92.1545L189.522 89.8562L188.033 89.5923L187.15 94.5758C186.84 96.323 188.01 97.9815 189.745 98.289C191.481 98.5966 193.151 97.4292 193.459 95.6937C193.78 93.9487 192.61 92.2901 190.863 91.9805ZM190.009 96.7999C189.095 96.6378 188.475 95.766 188.639 94.8397C188.801 93.9251 189.673 93.3055 190.599 93.4697C191.526 93.6339 192.134 94.5035 191.969 95.4298C191.807 96.3445 190.936 96.964 190.009 96.7999Z" fill="white"/>
<path d="M194.666 98.2339C194.578 98.7303 194.105 99.0615 193.608 98.9735C193.112 98.8855 192.781 98.4118 192.869 97.9153C192.957 97.4189 193.43 97.0878 193.927 97.1758C194.423 97.2637 194.754 97.7375 194.666 98.2339Z" fill="white"/>
<path d="M178.03 103.119L181.506 103.751L185.71 80.6248L182.233 79.9929C181.69 79.8941 181.169 80.2545 181.07 80.7979L177.225 101.956C177.126 102.499 177.486 103.02 178.03 103.119Z" fill="#238C80"/>
<path d="M177.67 100.178L178.785 99.187C178.725 99.1187 172.874 92.4768 173.45 87.8099C173.711 85.7092 174.495 84.1887 175.716 83.4146C176.579 82.8691 177.647 82.7318 178.581 83.0319C180.081 83.5273 181.533 85.4147 181.547 85.4332L182.733 84.5321C182.663 84.4386 180.99 82.2586 179.047 81.6174C177.695 81.1702 176.153 81.3734 174.92 82.1552C173.794 82.866 172.37 84.3943 171.972 87.6279C171.312 92.9641 177.412 99.8841 177.67 100.178Z" fill="#238C80"/>
<path d="M249.571 208.799C260.558 205.941 267.149 194.717 264.291 183.73C261.432 172.742 250.208 166.152 239.221 169.01C228.233 171.868 221.643 183.092 224.501 194.079C227.359 205.067 238.583 211.657 249.571 208.799Z" fill="#3D4C65"/>
<path d="M248.951 206.418C258.624 203.902 264.426 194.021 261.91 184.348C259.394 174.676 249.513 168.874 239.84 171.39C230.167 173.906 224.366 183.787 226.882 193.46C229.398 203.133 239.279 208.934 248.951 206.418Z" fill="white"/>
<path d="M244.6 189.689C244.166 189.802 243.723 189.542 243.61 189.108L240.716 177.979C240.603 177.546 240.863 177.102 241.297 176.99C241.73 176.877 242.173 177.137 242.286 177.571L245.181 188.7C245.294 189.133 245.034 189.577 244.6 189.689Z" fill="#3D4C65"/>
<path d="M251.622 183.081C251.903 183.43 251.848 183.941 251.499 184.222L244.905 189.536C244.556 189.817 244.045 189.762 243.764 189.413C243.483 189.065 243.537 188.554 243.886 188.272L250.48 182.958C250.829 182.677 251.34 182.732 251.622 183.081Z" fill="#3D4C65"/>
<path d="M240.75 174.888C240.533 174.945 240.311 174.814 240.255 174.598L239.728 172.572C239.672 172.356 239.802 172.134 240.019 172.078C240.236 172.021 240.457 172.151 240.514 172.368L241.04 174.393C241.097 174.61 240.967 174.832 240.75 174.888Z" fill="#3D4C65"/>
<path d="M252.036 176.458C251.936 176.485 251.825 176.472 251.729 176.415C251.535 176.302 251.471 176.054 251.584 175.86L252.643 174.056C252.757 173.863 253.006 173.798 253.199 173.911C253.392 174.025 253.456 174.274 253.343 174.467L252.284 176.271C252.227 176.368 252.137 176.432 252.036 176.458Z" fill="#3D4C65"/>
<path d="M260.932 185.022L258.907 185.549C258.69 185.605 258.469 185.475 258.412 185.258C258.356 185.041 258.485 184.82 258.702 184.764L260.727 184.237C260.944 184.18 261.165 184.311 261.222 184.527C261.278 184.744 261.149 184.966 260.932 185.022Z" fill="#3D4C65"/>
<path d="M259.141 197.895C259.041 197.921 258.93 197.909 258.833 197.852L257.029 196.792C256.836 196.679 256.771 196.43 256.885 196.237C256.998 196.044 257.247 195.979 257.44 196.093L259.244 197.152C259.437 197.266 259.502 197.514 259.389 197.707C259.332 197.804 259.241 197.869 259.141 197.895Z" fill="#3D4C65"/>
<path d="M248.773 205.731C248.556 205.787 248.334 205.657 248.278 205.44L247.751 203.415C247.695 203.198 247.825 202.977 248.041 202.92C248.258 202.864 248.48 202.994 248.536 203.211L249.063 205.236C249.12 205.453 248.989 205.675 248.773 205.731Z" fill="#3D4C65"/>
<path d="M235.9 203.94C235.8 203.966 235.689 203.954 235.593 203.897C235.399 203.784 235.334 203.535 235.448 203.342L236.508 201.537C236.621 201.344 236.87 201.279 237.063 201.393C237.256 201.506 237.321 201.755 237.207 201.948L236.148 203.753C236.091 203.849 236.001 203.914 235.9 203.94Z" fill="#3D4C65"/>
<path d="M230.089 193.045L228.064 193.571C227.847 193.628 227.625 193.498 227.569 193.281C227.513 193.064 227.643 192.842 227.86 192.786L229.885 192.259C230.102 192.203 230.323 192.333 230.38 192.55C230.436 192.767 230.306 192.988 230.089 193.045Z" fill="#3D4C65"/>
<path d="M231.659 181.758C231.559 181.785 231.448 181.772 231.352 181.715L229.547 180.656C229.354 180.543 229.289 180.294 229.403 180.101C229.516 179.908 229.765 179.843 229.958 179.956L231.762 181.016C231.956 181.129 232.021 181.378 231.907 181.571C231.85 181.668 231.76 181.732 231.659 181.758Z" fill="#3D4C65"/>
<path d="M193.998 218.318L201.545 228.179L215.919 221.819L206.725 207.065L193.998 218.318Z" fill="#E1E1E1"/>
<path d="M198.473 219.482L198.704 224.359L203.457 226.589L203.214 221.591L198.473 219.482Z" fill="#375A64"/>
<path d="M202.983 216.754L203.214 221.632L207.967 223.862L207.725 218.864L202.983 216.754Z" fill="#375A64"/>
<path d="M207.57 214.027L207.802 218.904L212.555 221.134L212.312 216.136L207.57 214.027Z" fill="#375A64"/>
<path d="M216.491 221.624L214.85 219.116L200.765 228.028L204.086 233.592L205.011 233.13C209.105 231.044 225.684 222.235 227.868 219.889C230.304 217.272 216.491 221.624 216.491 221.624Z" fill="#30BFAE"/>
<g opacity="0.5">
<g opacity="0.5">
<g opacity="0.5">
<path opacity="0.5" d="M209.233 230.448C208.33 229.366 207.053 228.493 205.657 228.304C204.26 228.116 203.126 228.208 201.574 229.383L203.981 233.378L209.233 230.448Z" fill="white"/>
</g>
</g>
</g>
<path opacity="0.5" d="M223.364 219.711C223.364 219.711 228.363 218.457 228.239 219.472C228.115 220.487 211.696 230.02 204.086 233.592L203.922 233.257L223.168 222.301C223.168 222.301 222.547 220.232 223.364 219.711Z" fill="white"/>
<path d="M203.691 233.379C203.695 233.385 203.785 233.345 203.954 233.262C204.175 233.151 204.417 233.03 204.689 232.893C205.417 232.511 206.312 232.042 207.368 231.488C209.622 230.286 212.713 228.583 216.086 226.629C219.459 224.673 222.473 222.837 224.636 221.479C225.642 220.838 226.494 220.295 227.187 219.853C227.441 219.684 227.667 219.535 227.873 219.399C228.028 219.293 228.108 219.235 228.104 219.229C228.101 219.223 228.013 219.27 227.851 219.365C227.639 219.491 227.407 219.63 227.145 219.787C226.443 220.213 225.58 220.738 224.561 221.358C222.379 222.684 219.355 224.5 215.985 226.455C212.614 228.408 209.536 230.129 207.3 231.363C206.256 231.939 205.372 232.427 204.652 232.824C204.386 232.973 204.151 233.105 203.935 233.226C203.772 233.321 203.688 233.373 203.691 233.379Z" fill="#1A2E35"/>
<path d="M223.294 222.526C223.351 222.502 223.03 221.854 223.058 220.995C223.071 220.136 223.424 219.504 223.368 219.477C223.333 219.44 222.874 220.069 222.857 220.99C222.829 221.911 223.257 222.562 223.294 222.526Z" fill="#1A2E35"/>
<path d="M217.934 222.022C217.952 221.57 217.922 221.201 217.866 221.199C217.81 221.197 217.751 221.562 217.733 222.014C217.715 222.466 217.746 222.835 217.801 222.837C217.857 222.839 217.916 222.474 217.934 222.022Z" fill="#1A2E35"/>
<path d="M216.59 222.265C216.708 221.899 216.762 221.588 216.709 221.571C216.656 221.553 216.517 221.837 216.398 222.203C216.28 222.57 216.226 222.881 216.279 222.898C216.332 222.915 216.471 222.632 216.59 222.265Z" fill="#1A2E35"/>
<path d="M215.561 221.628C215.979 221.391 216.295 221.161 216.268 221.112C216.24 221.064 215.879 221.216 215.462 221.452C215.044 221.688 214.728 221.919 214.755 221.968C214.783 222.016 215.143 221.864 215.561 221.628Z" fill="#1A2E35"/>
<path d="M213.947 221.158C213.956 221.21 214.417 221.163 214.925 220.915C215.435 220.67 215.759 220.337 215.723 220.298C215.686 220.253 215.322 220.501 214.838 220.733C214.355 220.969 213.934 221.101 213.947 221.158Z" fill="#1A2E35"/>
<path d="M217.561 221.299C217.571 221.32 217.951 221.157 218.481 220.757C218.746 220.558 219.044 220.295 219.339 219.969C219.482 219.8 219.643 219.643 219.768 219.41C219.823 219.296 219.875 219.151 219.83 218.99C219.787 218.83 219.623 218.717 219.475 218.702C218.326 218.758 217.73 219.768 217.667 220.415C217.622 220.752 217.671 221.028 217.724 221.206C217.779 221.386 217.834 221.474 217.845 221.47C217.884 221.463 217.696 221.07 217.808 220.437C217.864 220.126 218.014 219.768 218.3 219.466C218.57 219.18 219.019 218.884 219.445 218.901C219.654 218.925 219.697 219.131 219.591 219.323C219.496 219.509 219.334 219.683 219.2 219.846C218.92 220.169 218.64 220.437 218.392 220.646C217.896 221.066 217.544 221.271 217.561 221.299Z" fill="#1A2E35"/>
<path d="M217.827 221.206C217.846 221.209 217.845 220.893 217.561 220.503C217.42 220.312 217.204 220.113 216.916 219.974C216.634 219.864 216.26 219.703 215.874 219.95C215.675 220.101 215.712 220.406 215.836 220.542C215.947 220.694 216.101 220.791 216.233 220.863C216.505 221.015 216.768 221.111 216.994 221.169C217.448 221.284 217.74 221.259 217.74 221.236C217.743 221.204 217.46 221.177 217.035 221.033C216.824 220.96 216.578 220.854 216.326 220.703C216.086 220.581 215.796 220.281 216.003 220.104C216.222 219.948 216.591 220.041 216.839 220.143C217.101 220.259 217.306 220.427 217.45 220.592C217.739 220.927 217.792 221.217 217.827 221.206Z" fill="#1A2E35"/>
<path d="M201.7 229.274C201.722 229.305 202.09 228.996 202.784 228.695C203.469 228.393 204.518 228.137 205.657 228.304C206.795 228.474 207.725 229.023 208.294 229.51C208.871 229.999 209.133 230.401 209.163 230.378C209.173 230.371 209.118 230.265 208.995 230.088C208.872 229.911 208.672 229.668 208.388 229.403C207.829 228.875 206.874 228.282 205.686 228.105C204.499 227.93 203.413 228.221 202.725 228.565C202.377 228.736 202.114 228.911 201.945 229.045C201.776 229.179 201.693 229.265 201.7 229.274Z" fill="#1A2E35"/>
<path d="M210.228 227.996C210.248 228.044 211.275 227.654 212.448 226.985C213.624 226.319 214.485 225.638 214.454 225.595C214.42 225.548 213.514 226.15 212.349 226.81C211.186 227.473 210.204 227.942 210.228 227.996Z" fill="#1A2E35"/>
<path d="M207.407 229.628C207.393 229.683 207.6 229.782 207.821 229.942C208.044 230.099 208.205 230.262 208.253 230.23C208.299 230.203 208.195 229.96 207.938 229.778C207.682 229.594 207.418 229.575 207.407 229.628Z" fill="#1A2E35"/>
<path d="M206.433 229.156C206.448 229.102 206.268 229.006 206.032 228.942C205.796 228.877 205.592 228.869 205.578 228.922C205.563 228.976 205.743 229.072 205.979 229.136C206.215 229.201 206.419 229.209 206.433 229.156Z" fill="#1A2E35"/>
<path d="M203.707 229.201C203.746 229.244 203.936 229.131 204.19 229.083C204.443 229.029 204.662 229.059 204.681 229.005C204.704 228.956 204.464 228.821 204.15 228.886C203.836 228.948 203.667 229.165 203.707 229.201Z" fill="#1A2E35"/>
<path d="M202.74 229.602C202.886 229.579 202.998 229.516 202.989 229.461C202.98 229.406 202.855 229.38 202.709 229.403C202.563 229.426 202.451 229.489 202.46 229.544C202.468 229.599 202.594 229.625 202.74 229.602Z" fill="#1A2E35"/>
<path d="M98.6102 211.02L154.845 157.991C158.323 154.433 163.089 152.427 168.065 152.427C174.697 152.427 180.821 155.979 184.114 161.736L212.885 211.175L194.63 221.706L166.92 186.469L139.153 211.558L98.6102 211.02Z" fill="#1A2E35"/>
<path d="M82.0538 213.679C81.8154 214.395 80.1467 232.512 104.462 232.512H169.432C177.655 232.512 184.322 225.846 184.322 217.622C184.322 209.398 177.655 202.732 169.432 202.732H108.939C106.775 202.732 104.637 203.204 102.674 204.114L82.0538 213.679Z" fill="#1A2E35"/>
<path d="M145.207 202.992C161.759 202.992 175.176 202.876 175.176 202.732C175.176 202.588 161.759 202.472 145.207 202.472C128.655 202.472 115.238 202.588 115.238 202.732C115.238 202.876 128.655 202.992 145.207 202.992Z" fill="#375A64"/>
<path d="M165.147 174.074C165.303 174.076 165.31 176.885 165.82 180.293C166.314 183.705 167.117 186.396 166.968 186.443C166.845 186.491 165.807 183.834 165.305 180.369C164.787 176.907 165.016 174.063 165.147 174.074Z" fill="#375A64"/>
<path d="M167.906 173.669C168.044 173.667 168.187 176.538 167.881 180.064C167.583 183.592 166.952 186.396 166.817 186.37C166.669 186.344 167.066 183.52 167.362 180.019C167.666 176.521 167.756 173.67 167.906 173.669Z" fill="#375A64"/>
<path d="M117.536 93.9146C117.611 94.65 117.213 95.4126 116.566 95.7708C115.92 96.129 115.062 96.0619 114.479 95.6076C113.371 94.7445 113.546 93.0176 114.052 91.7076C114.559 90.3975 115.303 89.0389 114.978 87.6725C114.73 86.6268 113.905 85.8344 113.317 84.935C112.292 83.368 111.984 81.3154 112.649 79.5653C113.314 77.815 114.989 76.4521 116.855 76.3024C118.761 76.1495 120.879 77.1386 122.479 76.0931C123.638 75.3354 124.001 73.7941 124.976 72.8099C126.489 71.2819 129.019 71.4859 131.054 72.1796C133.09 72.8734 135.088 73.9594 137.236 73.8492C139.029 73.7573 140.667 72.8362 142.412 72.4156C146.198 71.5038 150.471 73.2308 152.56 76.5163C154.649 79.8017 154.4 84.4044 151.969 87.4453C151.095 88.5374 149.129 91.8034 145.215 90.9905" fill="#1A2E35"/>
<path d="M119.763 79.1118L119.236 81.9292L111.076 124.052C110.129 128.942 113.579 133.651 118.823 134.626L118.823 134.626C124.119 135.61 129.249 132.418 130.288 127.494C131.378 122.325 132.62 116.904 132.62 116.904C132.62 116.904 139.512 117.182 142.697 108.776C144.281 104.595 145.536 97.4625 146.374 91.593C147.129 86.3101 143.337 81.4625 138.027 80.933L119.763 79.1118Z" fill="#FFBF9D"/>
<path d="M142.429 95.775C142.328 96.368 141.742 96.771 141.12 96.6765C140.5 96.5821 140.079 96.0259 140.18 95.4328C140.282 94.8398 140.867 94.436 141.488 94.5303C142.109 94.6248 142.53 95.182 142.429 95.775Z" fill="#1A2E35"/>
<path d="M144.071 94.9611C143.903 95.0777 143.188 94.2774 141.988 94.0314C140.792 93.7686 139.784 94.2029 139.684 94.0288C139.634 93.9506 139.829 93.7175 140.27 93.518C140.705 93.3183 141.405 93.1818 142.152 93.3401C142.898 93.4994 143.469 93.905 143.772 94.2616C144.082 94.6212 144.153 94.9102 144.071 94.9611Z" fill="#1A2E35"/>
<path d="M130.959 93.4424C130.857 94.0355 130.272 94.4384 129.65 94.3439C129.03 94.2495 128.608 93.6933 128.71 93.1002C128.811 92.5073 129.397 92.1034 130.018 92.1977C130.639 92.2922 131.06 92.8494 130.959 93.4424Z" fill="#1A2E35"/>
<path d="M132.233 92.7361C132.064 92.8527 131.348 92.0523 130.149 91.8065C128.954 91.5436 127.945 91.9779 127.845 91.8038C127.795 91.7256 127.989 91.4923 128.432 91.293C128.867 91.0934 129.567 90.9568 130.313 91.115C131.059 91.2744 131.631 91.68 131.934 92.0366C132.243 92.3961 132.314 92.6851 132.233 92.7361Z" fill="#1A2E35"/>
<path d="M134.739 102.537C134.748 102.467 135.52 102.493 136.76 102.59C137.073 102.622 137.376 102.621 137.471 102.423C137.589 102.216 137.529 101.859 137.455 101.472C137.321 100.671 137.181 99.8317 137.033 98.9517C136.465 95.3694 136.122 92.4495 136.266 92.4279C136.41 92.4063 136.988 95.2923 137.557 98.8746C137.689 99.7564 137.817 100.597 137.937 101.401C137.981 101.773 138.098 102.21 137.846 102.636C137.716 102.848 137.457 102.968 137.25 102.98C137.041 102.999 136.868 102.966 136.714 102.944C135.485 102.757 134.729 102.606 134.739 102.537Z" fill="#1A2E35"/>
<path d="M132.62 116.904C132.62 116.904 126.693 116.067 121.623 111.381C121.623 111.381 123.207 117.939 132.076 118.932L132.62 116.904Z" fill="#FF9A6C"/>
<path d="M131.036 102.633C131.234 102.662 130.966 103.965 131.888 105.12C132.808 106.279 134.227 106.421 134.199 106.605C134.2 106.69 133.837 106.794 133.248 106.688C132.67 106.588 131.869 106.229 131.304 105.522C130.742 104.814 130.607 103.997 130.673 103.454C130.736 102.899 130.949 102.607 131.036 102.633Z" fill="#1A2E35"/>
<path d="M133.519 88.0992C133.333 88.4008 132.167 87.9974 130.725 87.8748C129.284 87.7232 128.064 87.8995 127.938 87.5682C127.884 87.4109 128.145 87.1452 128.67 86.9247C129.19 86.7038 129.978 86.5549 130.843 86.6363C131.707 86.7194 132.452 87.0142 132.922 87.3292C133.395 87.6446 133.602 87.955 133.519 88.0992Z" fill="#1A2E35"/>
<path d="M144.351 91.3976C144.083 91.6261 143.316 91.1718 142.325 90.9522C141.342 90.6977 140.452 90.7541 140.317 90.4289C140.261 90.2729 140.45 90.0274 140.871 89.8459C141.287 89.6641 141.937 89.5799 142.615 89.7424C143.294 89.9058 143.834 90.2757 144.122 90.6264C144.415 90.9794 144.472 91.284 144.351 91.3976Z" fill="#1A2E35"/>
<path d="M147.464 87.7967C147.464 87.7967 142.542 89.1998 137.152 85.2193C133.615 82.6074 129.264 80.8724 128.131 81.4773C126.999 82.0824 126.091 86.0385 122.048 86.5328C122.048 86.5328 120.979 94.1974 117.989 93.3945C114.999 92.5915 118.607 77.5112 118.607 77.5112L127.027 78.7946L135.404 78.6809L142.856 81.0945L148.485 83.7472L147.464 87.7967Z" fill="#1A2E35"/>
<path d="M118.852 75.3091C118.833 75.186 119.602 75.0656 120.374 75.5426C121.149 76.0136 121.391 76.7529 121.273 76.7923C121.155 76.8541 120.783 76.3276 120.131 75.9386C119.489 75.5348 118.851 75.4428 118.852 75.3091Z" fill="#1A2E35"/>
<path d="M121.89 73.2723C122.028 73.3125 121.796 74.1907 121.74 75.2481C121.676 76.3095 121.97 77.145 121.846 77.2005C121.744 77.2684 121.21 76.4135 121.276 75.228C121.342 74.061 121.786 73.2341 121.89 73.2723Z" fill="#1A2E35"/>
<path d="M118.813 90.3131C118.701 90.2274 114.145 87.5493 113.04 92.6085C111.935 97.6676 117.242 97.7337 117.282 97.5905C117.323 97.4474 118.813 90.3131 118.813 90.3131Z" fill="#FFBF9D"/>
<path d="M116.155 95.336C116.137 95.315 116.054 95.3785 115.89 95.4143C115.73 95.4489 115.47 95.4403 115.228 95.2838C114.737 94.9709 114.472 94.0241 114.647 93.1069C114.734 92.6435 114.927 92.2261 115.169 91.8989C115.404 91.5625 115.7 91.3563 115.98 91.3672C116.261 91.3639 116.416 91.5666 116.447 91.7225C116.484 91.8787 116.43 91.9727 116.455 91.9871C116.466 92.0029 116.582 91.9262 116.587 91.7083C116.588 91.6034 116.555 91.471 116.457 91.3479C116.357 91.2226 116.189 91.1333 115.998 91.1126C115.602 91.0543 115.172 91.3365 114.906 91.6958C114.617 92.0523 114.39 92.519 114.292 93.0392C114.102 94.0656 114.415 95.1336 115.1 95.5048C115.436 95.6753 115.756 95.633 115.936 95.547C116.12 95.4564 116.171 95.349 116.155 95.336Z" fill="#FF9A6C"/>
<path d="M135.58 93.271C135.527 93.2735 135.539 92.7919 135.313 91.9825C135.09 91.1882 134.542 90.0296 133.344 89.1423C132.186 88.2523 130.286 87.7584 128.451 88.4451C126.632 89.0754 125.063 91.0114 125.083 93.2702C125.062 95.5299 126.631 97.4664 128.451 98.0968C130.286 98.7837 132.186 98.2895 133.344 97.3994C134.542 96.512 135.09 95.3535 135.313 94.5593C135.539 93.7499 135.527 93.2685 135.58 93.271C135.598 93.271 135.609 93.389 135.615 93.617C135.625 93.8443 135.601 94.1833 135.51 94.6087C135.339 95.4474 134.82 96.7021 133.567 97.6922C132.358 98.6836 130.305 99.2732 128.287 98.5479C127.294 98.2008 126.342 97.5325 125.664 96.6006C124.968 95.6814 124.572 94.4926 124.563 93.2701C124.573 92.048 124.968 90.8597 125.665 89.9408C126.343 89.0092 127.294 88.3411 128.287 87.994C130.305 87.2688 132.357 87.8582 133.567 88.8495C134.82 89.8396 135.339 91.0942 135.51 91.9331C135.601 92.3585 135.625 92.6976 135.615 92.9249C135.609 93.1529 135.598 93.271 135.58 93.271Z" fill="#375A64"/>
<path d="M148.485 95.603C148.433 95.6055 148.444 95.124 148.219 94.3145C147.995 93.5203 147.448 92.3616 146.249 91.4744C145.091 90.5843 143.191 90.0904 141.357 90.7772C139.537 91.4075 137.969 93.3434 137.989 95.6023C137.968 97.8619 139.537 99.7985 141.357 100.429C143.191 101.116 145.091 100.622 146.25 99.7315C147.448 98.8441 147.996 97.6855 148.219 96.8913C148.444 96.082 148.433 95.6005 148.485 95.603C148.503 95.603 148.515 95.7211 148.52 95.9491C148.53 96.1763 148.506 96.5154 148.415 96.9407C148.245 97.7795 147.726 99.0341 146.473 100.024C145.263 101.016 143.211 101.605 141.193 100.88C140.199 100.533 139.248 99.8646 138.57 98.9327C137.873 98.0134 137.478 96.8247 137.468 95.6022C137.478 94.3801 137.874 93.1918 138.57 92.2728C139.248 91.3412 140.199 90.6731 141.193 90.3261C143.211 89.6009 145.263 90.1902 146.473 91.1815C147.726 92.1716 148.245 93.4263 148.415 94.2651C148.506 94.6905 148.53 95.0296 148.52 95.2569C148.515 95.4849 148.503 95.603 148.485 95.603Z" fill="#375A64"/>
<path d="M122.201 90.563C123.989 90.5572 125.438 90.4359 125.437 90.2921C125.437 90.1483 123.987 90.0364 122.2 90.0422C120.412 90.048 118.964 90.1693 118.964 90.3131C118.965 90.4569 120.414 90.5688 122.201 90.563Z" fill="#375A64"/>
<path d="M137.728 94.5754C137.597 94.6316 137.281 94.1444 136.687 93.9778C136.097 93.7994 135.569 94.0401 135.488 93.9222C135.448 93.8671 135.536 93.7116 135.777 93.5778C136.012 93.4447 136.413 93.3558 136.833 93.4779C137.253 93.6008 137.543 93.8911 137.67 94.1295C137.801 94.372 137.792 94.5503 137.728 94.5754Z" fill="#375A64"/>
<path d="M125.835 202.305V198.968L173.336 199.939L200.686 156.241L203.196 158.053L175.176 202.732L125.835 202.305Z" fill="#E1E1E1"/>
<path d="M158.696 187.741L161.087 191.287V198.586C161.087 198.586 159.85 198.873 159.356 197.883C158.861 196.894 158.201 193.513 158.201 193.513L157.045 196.501C156.575 197.714 155.275 198.387 154.014 198.071L145.206 195.862L148.805 185.57L158.696 187.741Z" fill="#FFBF9D"/>
<path d="M110.059 117.245C110.059 117.245 96.9124 120.532 92.9684 126.448C89.0243 132.364 84.5323 142.182 79.6936 161.225C75.471 177.843 72.2133 204.382 76.7857 210.608C79.9343 214.896 81.9418 215.987 81.9418 215.987L92.0872 212.353C101.859 208.853 110.839 203.449 118.507 196.452L134.075 182.249L125.835 175.749C125.835 175.749 132.104 141.887 130.437 130.055C128.981 119.71 110.059 117.245 110.059 117.245Z" fill="#30BFAE"/>
<path d="M113.459 127.449C108.4 128.705 103.532 130.759 96.6169 131.337C94.9965 131.473 93.3331 131.174 91.9495 130.32C87.5847 127.626 89.0963 122.637 91.4817 119.277C94.0104 115.717 97.9912 112.652 102.337 113.09C101.509 110.929 102.791 108.348 104.82 107.235C106.849 106.122 109.38 106.269 111.546 107.083C113.712 107.897 115.592 109.31 117.439 110.704C119.917 112.574 122.395 114.445 124.873 116.315C126.54 117.574 128.261 118.894 129.223 120.748C130.184 122.602 133.743 129.878 132.162 131.243C132.162 131.243 130.14 131.831 129.163 131.243C129.108 131.21 129.047 131.167 128.981 131.115C124.55 127.664 118.909 126.095 113.459 127.449Z" fill="#30BFAE"/>
<path d="M105.985 133.614L97.2944 174.237C95.7761 181.335 99.7222 188.465 106.542 190.947L144.31 198.19L149.019 184.112L118.37 174.551L127.359 135.306L105.985 133.614Z" fill="#30BFAE"/>
<path d="M96.9706 181.962C96.9766 181.962 96.9968 182.042 97.0308 182.199C97.0664 182.375 97.1132 182.606 97.1734 182.902C97.2042 183.059 97.2382 183.233 97.2755 183.423C97.3429 183.608 97.4162 183.809 97.4955 184.027C97.5756 184.246 97.6617 184.482 97.7537 184.734C97.8834 184.97 98.0214 185.222 98.1676 185.488C98.7748 186.537 99.7589 187.718 101.222 188.717C102.675 189.719 104.552 190.58 106.762 191.134C115.8 192.787 128.679 195.143 144.129 197.969L143.877 198.116C145.433 193.656 147.078 188.94 148.791 184.033L148.947 184.344C139.492 181.4 129.125 178.172 118.293 174.799L118.057 174.726L118.119 174.485C118.652 172.393 119.224 170.153 119.799 167.896C121.581 160.783 123.251 153.819 124.703 147.062C125.414 143.682 126.089 140.352 126.554 137.071C126.69 136.251 126.687 135.44 126.761 134.63C126.729 133.827 126.699 133.026 126.493 132.256C126.137 130.711 125.404 129.278 124.402 128.094C122.4 125.699 119.322 124.428 116.394 124.507C113.426 124.59 110.774 126.183 108.959 128.271C107.105 130.362 105.925 132.86 105.127 135.332C104.323 137.813 103.855 140.288 103.39 142.644C101.532 152.059 100.028 159.685 98.9838 164.979C98.4556 167.598 98.044 169.639 97.76 171.047C97.6177 171.724 97.5076 172.248 97.4289 172.622C97.3514 172.977 97.2985 173.156 97.2985 173.156C97.2985 173.156 97.3163 172.97 97.3766 172.612C97.4432 172.235 97.5365 171.708 97.657 171.027C97.9187 169.615 98.2981 167.567 98.7848 164.941C99.7906 159.639 101.239 152.002 103.028 142.574C103.482 140.216 103.94 137.726 104.745 135.208C105.544 132.701 106.734 130.143 108.636 127.984C110.49 125.832 113.264 124.143 116.378 124.05C119.448 123.958 122.663 125.28 124.767 127.782C125.819 129.02 126.593 130.523 126.97 132.145C127.186 132.954 127.221 133.796 127.254 134.635C127.182 135.463 127.183 136.315 127.047 137.138C126.583 140.446 125.911 143.78 125.202 147.168C123.754 153.937 122.087 160.905 120.304 168.023C119.728 170.281 119.156 172.523 118.621 174.617L118.447 174.303C129.276 177.688 139.639 180.927 149.091 183.881L149.331 183.956L149.248 184.193C147.524 189.096 145.867 193.808 144.301 198.264L144.237 198.446L144.048 198.41C128.588 195.519 115.719 193.158 106.698 191.387C104.464 190.808 102.571 189.917 101.106 188.882C99.6316 187.851 98.6449 186.633 98.0478 185.556C97.9047 185.283 97.7697 185.025 97.6429 184.783C97.5551 184.526 97.473 184.285 97.3967 184.061C97.3225 183.839 97.2539 183.634 97.1909 183.445C97.1593 183.252 97.1305 183.076 97.1045 182.916C97.0585 182.615 97.0227 182.382 96.9955 182.204C96.9731 182.044 96.9647 181.963 96.9706 181.962Z" fill="#1A2E35"/>
<path d="M113.101 179.871C113.042 179.869 112.989 179.395 113.181 178.657C113.367 177.923 113.859 176.951 114.702 176.138C115.548 175.328 116.54 174.877 117.28 174.72C118.025 174.558 118.497 174.63 118.497 174.689C118.502 174.773 118.051 174.834 117.383 175.074C116.715 175.309 115.841 175.771 115.063 176.514C114.289 177.261 113.792 178.116 113.53 178.774C113.264 179.432 113.185 179.88 113.101 179.871Z" fill="#1A2E35"/>
<g opacity="0.2">
<path opacity="0.2" d="M105.099 133.073C100.554 147.156 97.8092 161.77 96.0025 176.458C95.5855 179.849 95.2191 183.3 95.8027 186.666C96.3862 190.031 98.0477 193.354 100.914 195.213C103.59 196.948 107.01 197.213 110.143 196.619C113.277 196.025 118.345 195.332 121.229 193.97L104.331 190.486C104.331 190.486 93.4344 189.808 98.1136 168.944C102.793 148.08 105.099 133.073 105.099 133.073Z" fill="black"/>
</g>
<g opacity="0.2">
<path opacity="0.2" d="M90.6908 129.605C90.6237 131.273 90.7796 133.328 92.295 134.026C93.8524 134.743 95.5403 133.443 96.8007 132.28C101.923 127.556 107.73 123.576 113.984 120.504C105.494 121.051 97.2081 124.4 90.7222 129.906" fill="black"/>
</g>
<path d="M123.791 124.513C123.722 124.62 122.18 123.216 119.133 122.027C117.615 121.448 115.729 120.927 113.586 120.766C111.448 120.593 109.064 120.781 106.695 121.516C104.316 122.225 102.186 123.306 100.278 124.325C98.3743 125.36 96.6793 126.343 95.2204 127.109C93.7637 127.88 92.5483 128.437 91.6923 128.78C90.8322 129.115 90.3449 129.265 90.3334 129.235C90.3193 129.198 90.7814 128.984 91.6106 128.595C92.4365 128.196 93.617 127.594 95.044 126.786C96.4972 125.949 98.1867 124.976 100.048 123.904C101.955 122.856 104.108 121.744 106.546 121.017C108.974 120.263 111.44 120.083 113.626 120.288C115.822 120.48 117.741 121.051 119.271 121.686C120.805 122.322 121.946 123.047 122.691 123.592C123.074 123.852 123.34 124.095 123.527 124.25C123.711 124.409 123.802 124.499 123.791 124.513Z" fill="#1A2E35"/>
<path d="M129.077 126.619C129.012 126.685 127.817 125.493 125.705 123.791C123.598 122.086 120.514 119.933 116.814 118.083C113.109 116.243 109.532 115.076 106.903 114.42C104.272 113.759 102.602 113.522 102.615 113.43C102.619 113.395 103.04 113.426 103.799 113.513C104.559 113.591 105.651 113.774 106.987 114.061C109.659 114.631 113.299 115.755 117.047 117.617C120.788 119.488 123.877 121.717 125.94 123.508C126.975 124.401 127.778 125.163 128.298 125.723C128.824 126.277 129.102 126.594 129.077 126.619Z" fill="#1A2E35"/>
<path d="M131.602 159.494C131.574 159.498 131.503 159.202 131.401 158.649C131.302 158.096 131.163 157.286 131.071 156.251C130.998 155.214 130.913 153.959 131.242 152.519C131.414 151.817 131.954 150.991 132.885 150.839C133.323 150.749 133.892 150.926 134.166 151.362C134.434 151.752 134.532 152.394 134.094 152.826L134.043 152.876L133.966 152.889C133.413 152.984 132.878 152.709 132.531 152.326C132.165 151.934 131.995 151.409 131.918 150.915C131.797 149.914 131.793 148.955 131.726 147.938C131.477 143.144 131.281 138.804 131.165 135.66C131.121 134.166 131.084 132.917 131.055 131.936C131.04 131.057 131.049 130.569 131.085 130.567C131.121 130.565 131.18 131.049 131.257 131.926C131.33 132.904 131.422 134.151 131.533 135.641C131.743 138.78 131.997 143.117 132.246 147.911C132.311 148.908 132.319 149.933 132.425 150.836C132.493 151.282 132.633 151.694 132.903 151.987C133.169 152.284 133.548 152.463 133.885 152.404L133.758 152.467C133.967 152.286 133.95 151.895 133.77 151.627C133.599 151.352 133.283 151.246 132.953 151.293C132.273 151.392 131.814 152.003 131.642 152.636C131.309 153.946 131.341 155.22 131.375 156.231C131.492 158.278 131.675 159.486 131.602 159.494Z" fill="#E1E1E1"/>
<path d="M115.181 192.562C115.204 192.589 114.769 192.997 113.96 193.712C113.156 194.433 111.956 195.432 110.444 196.633C107.419 199.029 103.083 202.161 97.9962 205.144C92.9093 208.132 88.0589 210.39 84.48 211.837C82.6918 212.564 81.228 213.11 80.2041 213.452C79.1821 213.799 78.6119 213.975 78.5997 213.941C78.5876 213.907 79.1345 213.667 80.1328 213.262C81.133 212.863 82.5727 212.265 84.3369 211.497C87.8682 209.969 92.669 207.669 97.7326 204.695C102.796 201.725 107.145 198.656 110.219 196.341C111.755 195.181 112.988 194.228 113.831 193.556C114.678 192.89 115.158 192.535 115.181 192.562Z" fill="#1A2E35"/>
<path d="M84.7244 215.294C84.8393 215.208 84.4281 214.468 83.8059 213.641C83.1837 212.814 82.5861 212.214 82.4712 212.301C82.3563 212.387 82.7676 213.128 83.3898 213.954C84.012 214.781 84.6095 215.381 84.7244 215.294Z" fill="#1A2E35"/>
<path d="M90.7598 212.744C90.6787 212.857 89.8541 212.393 89.0802 211.538C88.3025 210.687 87.9181 209.822 88.0388 209.752C88.1651 209.675 88.7257 210.379 89.4655 211.188C90.2003 212 90.8487 212.625 90.7598 212.744Z" fill="#1A2E35"/>
<path d="M98.3437 210.243C98.4515 210.147 97.7888 209.221 96.8635 208.173C95.9381 207.125 95.1006 206.352 94.9928 206.447C94.885 206.542 95.5477 207.469 96.4731 208.517C97.3984 209.565 98.2359 210.338 98.3437 210.243Z" fill="#1A2E35"/>
<path d="M106.482 205.921C106.593 205.829 105.879 204.783 104.888 203.586C103.897 202.388 103.003 201.491 102.893 201.583C102.782 201.674 103.496 202.72 104.487 203.918C105.478 205.115 106.371 206.012 106.482 205.921Z" fill="#1A2E35"/>
<path d="M114.041 200.267C114.137 200.161 113.338 199.281 112.255 198.302C111.172 197.322 110.216 196.615 110.119 196.722C110.023 196.829 110.823 197.709 111.905 198.688C112.988 199.667 113.944 200.374 114.041 200.267Z" fill="#1A2E35"/>
<path d="M240.481 95.6515L228.228 75.5297C228.093 75.3082 227.847 75.1787 227.588 75.1924L214.087 75.9114C213.702 75.9233 213.4 76.2447 213.412 76.6293C213.412 76.638 213.413 76.6468 213.413 76.6555L214.461 99.4217C214.477 99.8116 214.806 100.115 215.196 100.099C215.201 100.099 215.207 100.099 215.213 100.098L240.068 98.6911L240.148 98.6774C240.508 98.617 240.763 98.2913 240.736 97.9266L240.584 95.9635C240.575 95.8527 240.539 95.7458 240.481 95.6515Z" fill="#FFC40C"/>
<path d="M241.272 71.8634C241.161 71.4891 240.768 71.2751 240.394 71.3855C240.392 71.3861 240.39 71.3867 240.388 71.3873L234.52 73.1224L217.188 78.2464C216.816 78.3546 216.601 78.7413 216.704 79.114L222.627 101.042C222.723 101.395 223.072 101.616 223.432 101.553L223.512 101.539L247.409 94.5601C247.784 94.4505 247.998 94.058 247.889 93.6834C247.888 93.6805 247.887 93.6777 247.886 93.6748L241.272 71.8634Z" fill="#FFE082"/>
<path d="M231.678 78.6222C231.294 78.689 230.928 78.4315 230.861 78.0469C230.829 77.8616 230.872 77.671 230.981 77.5174L233.864 73.436C234.084 73.1134 234.523 73.0299 234.846 73.2495C235.168 73.4692 235.252 73.9087 235.032 74.2314C235.028 74.2382 235.023 74.2449 235.018 74.2515L232.135 78.3328C232.027 78.4859 231.863 78.59 231.678 78.6222Z" fill="#455A64"/>
<path d="M236.771 74.8778C238.694 74.547 239.985 72.7197 239.654 70.7965C239.323 68.8733 237.496 67.5824 235.573 67.9132C233.65 68.244 232.359 70.0713 232.69 71.9945C233.02 73.9178 234.848 75.2087 236.771 74.8778Z" fill="#D53D3D"/>
<path d="M239.878 79.4654L222.324 84.7332C222.042 84.818 221.744 84.6579 221.659 84.3751C221.574 84.0923 221.735 83.7948 222.017 83.71L239.571 78.4422C239.854 78.3573 240.151 78.5175 240.236 78.8002C240.321 79.083 240.161 79.3805 239.878 79.4654Z" fill="#3D4C65"/>
<path d="M240.764 82.4185L236.884 83.5828C236.602 83.6677 236.304 83.5075 236.219 83.2247C236.134 82.9419 236.295 82.6444 236.577 82.5596L240.457 81.3953C240.74 81.3104 241.037 81.4706 241.122 81.7534C241.207 82.0362 241.047 82.3337 240.764 82.4185Z" fill="#3D4C65"/>
<path d="M233.76 84.5206L223.211 87.6864C222.928 87.7712 222.63 87.6111 222.546 87.3283C222.461 87.0455 222.621 86.7479 222.904 86.6631L233.453 83.4973C233.735 83.4125 234.033 83.5726 234.118 83.8554C234.203 84.1382 234.043 84.4357 233.76 84.5206Z" fill="#3D4C65"/>
<path d="M239.119 86.1324L224.097 90.6405C223.815 90.7253 223.517 90.5652 223.432 90.2824C223.347 89.9996 223.507 89.702 223.79 89.6172L238.812 85.1092C239.095 85.0243 239.392 85.1844 239.477 85.4672C239.562 85.75 239.402 86.0475 239.119 86.1324Z" fill="#3D4C65"/>
<path d="M231.355 91.6822L224.984 93.5943C224.701 93.6791 224.403 93.519 224.318 93.2362C224.233 92.9534 224.394 92.6558 224.676 92.5711L231.048 90.6589C231.331 90.5741 231.628 90.7342 231.713 91.017C231.798 91.2998 231.638 91.5974 231.355 91.6822Z" fill="#3D4C65"/>
<path d="M242.537 88.3263L233.971 90.8968C233.689 90.9816 233.391 90.8215 233.306 90.5388C233.221 90.256 233.382 89.9584 233.664 89.8736L242.23 87.303C242.513 87.2181 242.81 87.3783 242.895 87.6611C242.98 87.9439 242.82 88.2414 242.537 88.3263Z" fill="#3D4C65"/>
<path d="M232.706 94.4966L225.87 96.5481C225.587 96.6328 225.29 96.4728 225.205 96.19C225.12 95.9072 225.28 95.6096 225.563 95.5248L232.399 93.4734C232.681 93.3886 232.979 93.5487 233.064 93.8315C233.149 94.1143 232.988 94.4118 232.706 94.4966Z" fill="#3D4C65"/>
<path d="M62.7688 189.929C62.8244 189.542 62.5563 189.184 62.1699 189.129C62.1679 189.128 62.1659 189.128 62.1639 189.128L56.1062 188.26L38.2149 185.697C37.8323 185.641 37.4754 185.903 37.4142 186.284L33.4316 209.653C33.3714 210.014 33.5965 210.361 33.9504 210.453L34.0283 210.474L58.6603 214.085C59.0465 214.142 59.4054 213.874 59.4619 213.488C59.4623 213.485 59.4627 213.482 59.4631 213.479L62.7688 189.929Z" fill="#FFC40C"/>
<path d="M58.4652 195.51L40.3131 192.986C40.0209 192.945 39.8169 192.675 39.8576 192.383C39.8982 192.091 40.1681 191.887 40.4602 191.928L58.6124 194.452C58.9048 194.493 59.1086 194.762 59.0679 195.055C59.0272 195.347 58.7577 195.551 58.4652 195.51Z" fill="#3D4C65"/>
<path d="M58.0405 198.564L54.0285 198.006C53.7361 197.966 53.5324 197.696 53.573 197.404C53.6137 197.111 53.8833 196.907 54.1757 196.948L58.1877 197.506C58.4801 197.547 58.6839 197.816 58.6432 198.109C58.6025 198.401 58.333 198.605 58.0405 198.564Z" fill="#3D4C65"/>
<path d="M50.7973 197.557L39.8884 196.04C39.5962 195.999 39.3922 195.73 39.4329 195.437C39.4736 195.145 39.7434 194.941 40.0356 194.982L50.9444 196.499C51.2369 196.539 51.4406 196.809 51.3999 197.101C51.3592 197.394 51.0897 197.598 50.7973 197.557Z" fill="#3D4C65"/>
<path d="M54.9977 201.255L39.4636 199.095C39.1714 199.054 38.9674 198.784 39.0081 198.492C39.0488 198.199 39.3186 197.996 39.6108 198.036L55.1449 200.197C55.4373 200.237 55.6411 200.507 55.6004 200.799C55.5597 201.092 55.2902 201.296 54.9977 201.255Z" fill="#3D4C65"/>
<path d="M45.6277 203.065L39.0388 202.149C38.7466 202.108 38.5426 201.839 38.5833 201.546C38.624 201.254 38.8938 201.05 39.1859 201.091L45.7749 202.007C46.067 202.048 46.271 202.317 46.2304 202.61C46.1897 202.902 45.9199 203.106 45.6277 203.065Z" fill="#3D4C65"/>
<path d="M57.1909 204.674L48.333 203.442C48.0408 203.401 47.8368 203.132 47.8775 202.839C47.9182 202.547 48.188 202.343 48.4801 202.384L57.338 203.615C57.6305 203.656 57.8342 203.926 57.7935 204.218C57.7529 204.511 57.4833 204.714 57.1909 204.674Z" fill="#3D4C65"/>
<path d="M45.6829 206.187L38.614 205.203C38.3218 205.163 38.1178 204.893 38.1585 204.601C38.1992 204.308 38.469 204.105 38.7611 204.145L45.8301 205.128C46.1222 205.169 46.3262 205.439 46.2856 205.731C46.2449 206.023 45.9751 206.227 45.6829 206.187Z" fill="#3D4C65"/>
<path d="M60.4524 194.237C62.9668 194.751 65.4196 193.139 65.931 190.636C66.4423 188.134 64.8185 185.688 62.304 185.174C59.7895 184.661 57.3366 186.273 56.8253 188.776C56.3139 191.279 57.9379 193.724 60.4524 194.237Z" fill="white"/>
<path d="M60.9698 192.197L58.5131 188.66L59.7684 187.797L61.2361 189.91L67.0802 184.669L68.1032 185.8L60.9698 192.197Z" fill="#9EDB6E"/>
<path d="M90.5788 79.0804L88.9392 78.5099C88.3284 78.2973 88.0055 77.6299 88.2181 77.0191L94.4277 59.1728C94.6402 58.5619 95.3077 58.2391 95.9185 58.4516L97.5581 59.0221C98.1689 59.2346 98.4918 59.9021 98.2792 60.5129L92.0696 78.3592C91.8571 78.97 91.1897 79.2929 90.5788 79.0804Z" fill="#3D4C65"/>
<path d="M98.4467 56.7356L96.6414 56.1074L95.4123 59.6396L97.2176 60.2678L98.4467 56.7356Z" fill="#3D4C65"/>
<path d="M105.214 34.3774C99.1269 32.2594 92.4752 35.477 90.3571 41.5643C88.2391 47.6516 91.4567 54.3033 97.5441 56.4214C103.631 58.5394 110.283 55.3218 112.401 49.2345C114.519 43.1473 111.301 36.4954 105.214 34.3774ZM96.4878 44.4801C95.1894 48.2116 96.0057 51.1351 94.021 50.4447C92.0364 49.7541 90.8764 45.9911 92.1747 42.2594C93.4732 38.5278 96.7382 36.2408 98.7229 36.9314C100.708 37.622 97.7862 40.7485 96.4878 44.4801Z" fill="#B7EFF9"/>
<path d="M100.179 58.0114C99.1895 57.9173 98.1957 57.7044 97.2161 57.3633C94.0205 56.2512 91.449 53.9615 89.9758 50.9157C88.5025 47.8695 88.3036 44.4323 89.4156 41.2367C91.711 34.64 98.9457 31.1383 105.542 33.4357C108.738 34.5477 111.309 36.8375 112.783 39.8832C114.256 42.9294 114.455 46.3667 113.343 49.5623C111.388 55.1794 105.853 58.551 100.179 58.0114ZM102.371 34.7684C100.451 34.5858 98.5121 34.9307 96.7318 35.792C94.1655 37.0331 92.2361 39.2 91.2991 41.8923C90.3622 44.5846 90.5299 47.4807 91.7714 50.047C93.0125 52.6133 95.1789 54.5427 97.8717 55.4797C100.564 56.4161 103.461 56.2485 106.026 55.0069C108.593 53.7659 110.522 51.599 111.459 48.9067C112.396 46.2144 112.228 43.3183 110.987 40.7519C109.746 38.1856 107.579 36.2563 104.887 35.3192C104.062 35.0325 103.218 34.849 102.371 34.7684Z" fill="#3D4C65"/>
<path d="M242.129 134.459C247.992 134.459 252.746 129.706 252.746 123.842C252.746 117.978 247.992 113.225 242.129 113.225C236.265 113.225 231.511 117.978 231.511 123.842C231.511 129.706 236.265 134.459 242.129 134.459Z" fill="#434784"/>
<path d="M244.476 125.752H240.067L239.068 128.496H237.323L241.272 118.029H243.302L247.251 128.496H245.459L244.476 125.752ZM243.968 124.372L242.763 121.011L242.287 119.504H242.24L241.796 120.978L240.559 124.372H243.968Z" fill="white"/>
<path d="M264.749 146.495C266.803 141.002 264.015 134.885 258.523 132.832C253.03 130.778 246.913 133.566 244.859 139.058C242.806 144.55 245.593 150.668 251.086 152.721C256.578 154.775 262.695 151.987 264.749 146.495Z" fill="#9EDB6E"/>
<path d="M253.557 136.645L257.419 138.089C258.568 138.518 259.335 139.071 259.721 139.745C260.106 140.42 260.138 141.188 259.816 142.049C259.616 142.584 259.288 142.992 258.833 143.274C258.378 143.555 257.854 143.642 257.263 143.533L257.258 143.548C257.835 143.877 258.226 144.316 258.432 144.867C258.638 145.418 258.635 145.976 258.424 146.541C258.106 147.392 257.545 147.942 256.742 148.188C255.938 148.435 254.962 148.344 253.813 147.915L249.892 146.448L253.557 136.645ZM255.723 142.263C256.971 142.729 257.774 142.483 258.134 141.522C258.493 140.562 258.049 139.848 256.8 139.382L254.617 138.565L253.54 141.446L255.723 142.263ZM254.382 146.621C254.995 146.85 255.508 146.898 255.92 146.764C256.331 146.63 256.626 146.325 256.803 145.85C256.981 145.374 256.959 144.951 256.736 144.58C256.514 144.209 256.095 143.909 255.481 143.68L253.045 142.769L251.946 145.71L254.382 146.621Z" fill="white"/>
<path d="M234.516 155.792C240.055 153.867 242.985 147.817 241.06 142.278C239.136 136.739 233.085 133.809 227.546 135.734C222.008 137.659 219.078 143.709 221.002 149.248C222.927 154.787 228.977 157.717 234.516 155.792Z" fill="#FFAA02"/>
<path d="M235.572 149.144C235.015 149.875 234.246 150.41 233.268 150.75C232.319 151.08 231.424 151.162 230.583 150.995C229.741 150.828 228.998 150.427 228.351 149.79C227.704 149.153 227.201 148.315 226.84 147.276C226.479 146.238 226.354 145.268 226.467 144.367C226.579 143.466 226.913 142.69 227.47 142.037C228.027 141.385 228.774 140.895 229.714 140.569C230.702 140.226 231.605 140.142 232.421 140.317C233.238 140.493 233.934 140.928 234.511 141.622L233.233 142.822C232.828 142.302 232.388 141.971 231.913 141.828C231.439 141.685 230.896 141.72 230.287 141.931C229.359 142.254 228.731 142.839 228.404 143.686C228.077 144.532 228.115 145.535 228.517 146.693C228.923 147.861 229.504 148.679 230.258 149.143C231.013 149.609 231.86 149.678 232.799 149.352C233.438 149.13 233.919 148.784 234.243 148.313C234.566 147.843 234.715 147.265 234.689 146.58L236.395 146.558C236.404 147.552 236.13 148.413 235.572 149.144Z" fill="white"/>
<path d="M194.664 27.4243L190.493 30.1499L190.772 30.5736L194.944 27.8479L194.664 27.4243Z" fill="#3D4C65"/>
<path d="M197.768 34.9146L192.794 35.3121L192.835 35.8174L197.809 35.4198L197.768 34.9146Z" fill="#3D4C65"/>
<path d="M192.571 40.5107L192.4 40.9883L197.101 42.6543L197.272 42.1767L192.571 40.5107Z" fill="#3D4C65"/>
<path d="M192.092 46.7119L191.929 47.192L196.657 48.7803L196.82 48.3002L192.092 46.7119Z" fill="#3D4C65"/>
<path d="M189.539 50.9297L189.225 51.3279L193.148 54.3969L193.462 53.9987L189.539 50.9297Z" fill="#3D4C65"/>
<path d="M189.253 22.4277L186.753 26.7256L187.194 26.9795L189.694 22.6816L189.253 22.4277Z" fill="#3D4C65"/>
<path d="M169.338 21.2002L168.887 21.4369L171.217 25.8287L171.667 25.592L169.338 21.2002Z" fill="#3D4C65"/>
<path d="M162.986 26.2715L162.706 26.6941L166.87 29.4313L167.15 29.0087L162.986 26.2715Z" fill="#3D4C65"/>
<path d="M158.948 31.6387L158.744 32.1028L163.315 34.1025L163.519 33.6385L158.948 31.6387Z" fill="#3D4C65"/>
<path d="M157.328 38.4512L157.238 38.95L162.149 39.8292L162.239 39.3304L157.328 38.4512Z" fill="#3D4C65"/>
<path d="M162.431 44.25L157.507 45.0555L157.59 45.5553L162.513 44.7499L162.431 44.25Z" fill="#3D4C65"/>
<path d="M176.498 19.4229L175.989 19.4337L176.095 24.399L176.604 24.3882L176.498 19.4229Z" fill="#3D4C65"/>
<path d="M181.99 19.4526L181.395 24.1845L181.901 24.2474L182.495 19.5155L181.99 19.4526Z" fill="#3D4C65"/>
<path d="M171.612 61.4959C171.406 61.4458 171.275 61.1909 171.295 60.9962L171.312 60.8306L171.581 60.929C171.644 60.9542 171.707 60.9794 171.775 60.9959L173.234 61.3511C173.34 61.3769 173.446 61.3968 173.553 61.4102L173.725 61.433L173.656 61.5926C173.58 61.7669 173.376 61.9253 173.18 61.8775L171.612 61.4959ZM171.847 60.7014C170.889 60.4683 170.119 59.7318 169.786 58.7313L169.711 58.5064L176.215 60.0898L176.045 60.2551C175.289 60.9904 174.265 61.2901 173.306 61.0565L171.847 60.7014ZM169.658 58.1814L169.647 58.0908C169.616 57.8146 169.624 57.5231 169.674 57.2237C169.686 57.1498 169.787 56.6635 169.787 56.6635L170.664 53.0615L177.872 54.8163L176.996 58.414L176.84 58.9629C176.744 59.2568 176.617 59.5196 176.462 59.7496L176.411 59.8255L169.658 58.1814Z" fill="#BCBEC0"/>
<path d="M170.663 52.7491L170.663 52.6458C170.667 51.044 170.061 49.4223 168.959 48.0804L168.866 47.971C166.148 44.9932 165.097 40.9028 166.044 37.0106C167.609 30.5839 174.11 26.6285 180.536 28.1928C186.961 29.757 190.917 36.2578 189.352 42.6845C188.401 46.5935 185.572 49.7486 181.785 51.1244C180.12 51.8203 178.808 52.9931 178.062 54.4469L178.014 54.5387L170.663 52.7491Z" fill="#EBBE00"/>
<path d="M177.989 56.1083C177.989 56.1078 177.989 56.1073 177.989 56.1068L178.26 54.9946L178.382 54.4938L177.82 54.3569L177.82 54.3567L176.159 53.9525L182.581 41.9377C182.654 41.8002 182.602 41.6286 182.464 41.555C182.328 41.4828 182.155 41.5335 182.082 41.6713L181.768 42.2589C181.269 42.1513 180.935 42.4412 180.667 42.6793C180.418 42.9011 180.266 43.0241 180.049 42.9714C179.833 42.9187 179.755 42.7397 179.635 42.4281C179.504 42.0873 179.342 41.6636 178.827 41.5383C178.312 41.413 177.973 41.7147 177.7 41.9573C177.451 42.1791 177.299 42.3019 177.083 42.2493C176.867 42.1967 176.789 42.018 176.67 41.7062C176.539 41.3657 176.377 40.9418 175.863 40.8167C175.348 40.6914 175.009 40.9931 174.736 41.2358C174.487 41.4575 174.335 41.5803 174.119 41.5278C173.903 41.4752 173.825 41.2965 173.706 40.9849C173.583 40.6647 173.421 40.28 172.976 40.1297L172.967 39.4526C172.965 39.2964 172.835 39.1716 172.681 39.1734C172.525 39.1755 172.4 39.3039 172.402 39.4598L172.582 53.0818L170.997 52.6959L170.997 52.696L170.33 52.5337L170.205 53.0481L169.271 56.8847C168.888 58.4568 169.594 60.021 170.881 60.7638L170.863 60.8398C170.752 61.2946 171.054 61.8068 171.495 61.9143L173.063 62.296C173.499 62.402 173.979 62.0887 174.092 61.6259L174.109 61.556C175.101 61.5016 176.041 60.9902 176.666 60.1907C176.681 60.1755 176.695 60.1598 176.706 60.1411C176.99 59.7642 177.206 59.3272 177.323 58.8448L177.336 58.7892C177.337 58.7887 177.337 58.7884 177.337 58.7879C177.337 58.7875 177.337 58.787 177.337 58.7866L177.663 57.4494C177.663 57.4489 177.663 57.4485 177.663 57.4481C177.663 57.4476 177.663 57.4471 177.663 57.4467L177.989 56.1096C177.989 56.1091 177.989 56.1087 177.989 56.1083ZM172.985 40.7951C173.056 40.8874 173.112 41.0151 173.178 41.1876C173.309 41.5281 173.471 41.9518 173.986 42.0772C174.5 42.2025 174.84 41.9008 175.112 41.6581C175.361 41.4363 175.513 41.3134 175.729 41.3659C175.944 41.4184 176.022 41.5971 176.141 41.9087C176.272 42.2495 176.435 42.6734 176.949 42.7986C177.464 42.9239 177.803 42.6224 178.076 42.3798C178.325 42.1581 178.477 42.0349 178.693 42.0876C178.909 42.1402 178.988 42.319 179.107 42.6307C179.238 42.9715 179.401 43.3954 179.916 43.5208C180.431 43.6461 180.77 43.3445 181.043 43.1018C181.214 42.9499 181.339 42.8498 181.47 42.8153L175.592 53.8144L173.15 53.2199L172.985 40.7951ZM173.197 61.7467L171.629 61.365C171.501 61.3338 171.397 61.1517 171.412 61.006C171.518 61.0438 171.618 61.0926 171.73 61.1199L173.189 61.475C173.299 61.5019 173.41 61.5224 173.521 61.5369C173.464 61.6706 173.314 61.7752 173.197 61.7467ZM173.323 60.9257L171.864 60.5706C170.918 60.3403 170.199 59.5975 169.896 58.6864L175.94 60.1578C175.251 60.8274 174.27 61.1563 173.323 60.9257ZM177.507 55.6999L176.978 55.571C176.826 55.5341 176.673 55.6269 176.636 55.7788C176.599 55.9307 176.692 56.0833 176.844 56.1203L177.373 56.2492L177.181 57.0397L176.651 56.9108C176.5 56.8739 176.347 56.9668 176.31 57.1186C176.273 57.2705 176.366 57.4232 176.518 57.4602L177.047 57.5891L176.855 58.3796L176.325 58.2507C176.173 58.2137 176.021 58.3067 175.984 58.4585C175.947 58.6104 176.04 58.7631 176.192 58.8001L176.699 58.9237C176.612 59.1934 176.493 59.4458 176.34 59.6732L169.764 58.0724C169.732 57.8 169.743 57.5214 169.789 57.2415L174.584 58.4088C174.736 58.4458 174.889 58.3529 174.926 58.2009C174.963 58.0491 174.87 57.8964 174.718 57.8594L169.901 56.6869L170.094 55.8964L174.91 57.0689C175.062 57.1059 175.215 57.013 175.252 56.8611C175.289 56.7092 175.196 56.5565 175.044 56.5195L170.227 55.347L170.42 54.5565L175.237 55.729C175.388 55.766 175.541 55.6732 175.578 55.5212C175.615 55.3693 175.522 55.2167 175.37 55.1797L170.554 54.0072L170.746 53.2167L177.7 54.9094L177.507 55.6999Z" fill="#3D4C65"/>
<path opacity="0.36" d="M176.443 35.4592C178.35 34.4468 179.281 32.4706 178.524 31.0452C177.767 29.6198 175.608 29.285 173.702 30.2973C171.796 31.3097 170.864 33.2859 171.621 34.7113C172.378 36.1367 174.537 36.4715 176.443 35.4592Z" fill="white"/>
<path d="M72.5306 86.2467L42.9285 99.0096C42.261 99.2974 41.4866 98.9895 41.1988 98.322L24.6384 59.912C24.3506 59.2445 24.6584 58.4701 25.3259 58.1823L54.9281 45.4194C55.5956 45.1316 56.37 45.4394 56.6578 46.1069L73.2182 84.517C73.506 85.1845 73.1981 85.9589 72.5306 86.2467Z" fill="#9EDB6E"/>
<path d="M45.2977 97.9861L42.1424 99.3465C41.9129 99.4455 41.6466 99.3397 41.5476 99.1101L24.3032 59.1139C24.2043 58.8844 24.3101 58.6181 24.5396 58.5191L27.6949 57.1587L45.2977 97.9861Z" fill="#3D4C65"/>
<path d="M58.912 70.6879L44.1824 77.0387C43.9175 77.1529 43.6102 77.0307 43.496 76.7659L38.5735 65.3495C38.4592 65.0846 38.5814 64.7773 38.8463 64.6631L53.5759 58.3123C53.8408 58.1981 54.1481 58.3203 54.2623 58.5852L59.1849 70.0015C59.2991 70.2664 59.1769 70.5737 58.912 70.6879Z" fill="white"/>
<path d="M53.0266 63.0526L42.6705 67.5176C42.3529 67.6545 41.9846 67.5084 41.8475 67.1905C41.7105 66.8726 41.8571 66.5044 42.1746 66.3675L52.5308 61.9025C52.8486 61.7654 53.2167 61.9118 53.3537 62.2296C53.4908 62.5475 53.3445 62.9156 53.0266 63.0526Z" fill="#3D4C65"/>
<path d="M53.6772 66.7089L50.3931 68.1248C50.0752 68.2618 49.7071 68.1155 49.5701 67.7977C49.4331 67.4798 49.5794 67.1117 49.8972 66.9747L53.1813 65.5587C53.4992 65.4217 53.8673 65.568 54.0043 65.8859C54.1414 66.2037 53.9951 66.5718 53.6772 66.7089Z" fill="#3D4C65"/>
<path d="M47.6615 69.3021L44.1017 70.837C43.7841 70.9739 43.4157 70.8277 43.2787 70.5098C43.1416 70.192 43.2882 69.8238 43.6058 69.6868L47.1657 68.152C47.4835 68.015 47.8516 68.1613 47.9887 68.4791C48.1257 68.797 47.9794 69.1651 47.6615 69.3021Z" fill="#3D4C65"/>
<path d="M53.0438 70.9188L45.5332 74.157C45.2156 74.2939 44.8472 74.1477 44.7102 73.8299C44.5731 73.512 44.7197 73.1438 45.0373 73.0069L52.5479 69.7687C52.8658 69.6317 53.2339 69.778 53.3709 70.0958C53.5079 70.4137 53.3616 70.7818 53.0438 70.9188Z" fill="#3D4C65"/>
</g>
<defs>
<clipPath id="clip0">
<rect width="289.384" height="233.592" fill="white"/>
</clipPath>
</defs>
</svg>
