<svg width="1249" height="354" viewBox="0 0 1249 354" fill="none" xmlns="http://www.w3.org/2000/svg">
<g clip-path="url(#clip0)">
<path d="M489.477 45.8424C503.061 46.7533 508.743 37.4657 515.126 25.5287C532.598 -7.15232 571.51 -4.00307 584.563 16.1208C593.807 30.375 613.745 27.4428 629.874 21.8641C645.747 16.3735 672.792 11.0986 694.333 17.6601C713.149 23.391 720.869 44.0666 738.019 42.7948C775.435 40.0202 794.298 77.0368 787.521 93.1805C783.099 103.717 780.903 115.504 784.498 126.347C788.46 138.288 797.506 147.742 804.818 158.008C812.131 168.273 818.019 181.106 814.385 193.15C811.275 203.454 801.995 210.585 796.235 219.697C778.349 247.997 796.043 291.368 772.209 314.955C755.15 331.84 727.335 327.943 703.464 331.164C683.557 333.853 664.824 342.23 645.008 345.512C604.878 352.159 564.351 337.518 523.668 337.105C509.338 336.96 494.739 338.561 480.86 335.019C462.341 330.294 446.582 316.016 440.157 298.14C431.291 273.474 439.691 244.927 429.675 220.698C421.516 200.961 401.563 184.902 402.818 163.604C403.599 150.345 412.639 139.253 418.856 127.491C428.096 110.012 415.862 40.9055 489.477 45.8424ZM607.9 13.8236C604.33 13.8236 601.436 16.0455 601.436 18.7864C601.436 21.5271 604.337 23.5133 607.9 23.7491C619.51 24.5176 619.51 19.8147 619.51 17.0738C619.51 12.6951 611.469 13.8236 607.9 13.8236ZM725.799 34.9861C728.903 37.5552 732.859 39.0932 736.895 39.3007C737.974 39.3561 739.147 39.2875 739.978 38.6034C741.006 37.7568 741.117 36.0269 740.205 35.0576C739.632 34.4477 738.795 34.1737 738.016 33.857C736.69 33.3169 735.389 32.543 734.638 31.3305C734.42 30.9782 734.232 30.5751 733.87 30.3711C731.623 29.1049 721.713 31.6058 725.799 34.9861ZM745.573 39.3705C746.595 39.724 747.716 39.3982 748.743 39.0637C749.403 38.8491 750.214 38.3763 750.036 37.7102C749.95 37.3892 749.648 37.1762 749.354 37.0184C748.001 36.2927 746.246 35.7579 744.885 36.6862C743.524 37.6143 744.551 39.0169 745.573 39.3705ZM792.788 132.846C792.965 134.39 793.914 135.723 794.834 136.981C796.608 139.406 798.411 141.86 800.752 143.752C801.742 144.552 802.894 145.268 804.172 145.312C805.334 145.353 806.448 144.825 807.392 144.148C809.688 142.498 811.238 139.861 811.557 137.065C811.991 133.228 810.209 129.493 808.138 126.225C806.857 124.2 805.36 122.183 803.213 121.098C799.613 119.279 797.235 120.867 796.23 124.061C795.304 127.001 792.413 129.573 792.788 132.846ZM409.827 222.175C407.931 223.849 409.641 228.745 410.2 231.978C410.368 232.947 410.592 233.948 411.203 234.722C412.038 235.782 413.425 236.216 414.726 236.594C417.033 237.263 419.829 237.833 421.591 236.208C422.899 235.003 423.084 233.04 423.081 231.269C423.079 229.652 422.992 228.035 422.821 226.426C422.738 225.654 422.627 224.857 422.215 224.198C421.687 223.353 420.748 222.861 419.828 222.471C416.527 221.072 411.722 220.502 409.827 222.175ZM525.676 344.846C524.554 345.071 523.215 345.557 523.053 346.681C522.92 347.61 523.7 348.403 524.455 348.967C530.641 353.592 538.965 353.888 546.71 353.996C547.614 354.008 548.549 354.014 549.383 353.664C551.039 352.964 551.833 350.779 551.062 349.163C550.78 348.575 550.337 348.078 549.868 347.621C543.645 341.552 533.418 343.29 525.676 344.846ZM680.17 341.717C673.187 346.836 680.249 351.404 689.068 348.014C693.819 346.187 698.376 344.382 703.239 343.16C704.81 342.765 714.315 340.706 714.316 338.567C714.319 332.896 703.608 334.235 696.872 335.18C691.441 335.942 685.927 337.495 680.17 341.717Z" fill="#ECF6FF"/>
<path d="M456.308 176.74C456.266 176.696 455.262 175.629 453.8 173.75L454.413 173.275C455.85 175.122 456.863 176.198 456.873 176.208L456.308 176.74ZM451.51 170.61C450.773 169.531 450.07 168.429 449.419 167.333L450.086 166.937C450.729 168.019 451.423 169.107 452.151 170.172L451.51 170.61ZM448.239 163.574L447.546 163.923C446.95 162.742 446.406 161.551 445.928 160.382L446.646 160.087C447.116 161.237 447.652 162.41 448.239 163.574ZM445.353 156.484L444.612 156.713C444.222 155.443 443.903 154.171 443.662 152.932L444.423 152.782C444.659 153.994 444.972 155.24 445.353 156.484ZM511.567 117.255C511.037 117.546 510.492 117.804 509.949 118.024L509.66 117.308C510.175 117.099 510.693 116.854 511.197 116.578C511.2 116.576 511.202 116.575 511.205 116.573C511.79 116.253 512.379 115.882 512.955 115.469L513.406 116.096C512.804 116.527 512.189 116.916 511.576 117.251C511.573 117.252 511.57 117.254 511.567 117.255ZM516.39 113.529L515.842 112.985C516.679 112.143 517.533 111.177 518.378 110.114L518.984 110.593C518.121 111.678 517.249 112.666 516.39 113.529ZM506.114 118.996C504.889 119.137 503.6 119.138 502.176 118.998L502.254 118.229C503.624 118.363 504.858 118.363 506.028 118.228L506.114 118.996ZM521.291 107.442L520.648 107.011C521.329 106.007 522.025 104.914 522.718 103.762L523.383 104.157C522.683 105.322 521.979 106.427 521.291 107.442ZM443.923 149.001L443.149 149.057C443.059 147.735 443.059 146.418 443.151 145.141L443.924 145.193C443.835 146.434 443.835 147.715 443.923 149.001ZM498.316 118.369C497.16 118.123 495.998 117.84 494.769 117.54L494.536 117.483L494.723 116.732L494.955 116.789C496.179 117.087 497.335 117.369 498.481 117.613L498.316 118.369ZM525.316 100.782L524.636 100.414C524.955 99.8298 525.277 99.228 525.603 98.6077L526.29 98.9639C525.963 99.5882 525.638 100.194 525.316 100.782ZM490.777 116.61C489.41 116.319 488.172 116.098 486.994 115.933L487.105 115.168C488.301 115.335 489.556 115.559 490.941 115.854L490.777 116.61ZM444.483 141.433L443.728 141.263C444.02 139.991 444.415 138.732 444.904 137.52L445.622 137.806C445.149 138.98 444.766 140.2 444.483 141.433ZM483.178 115.583C481.894 115.531 480.607 115.548 479.353 115.634L479.303 114.863C480.585 114.774 481.901 114.757 483.214 114.811L483.178 115.583ZM447.312 134.396L446.645 134.004C447.297 132.905 448.048 131.82 448.878 130.78L449.484 131.261C448.676 132.272 447.946 133.328 447.312 134.396ZM475.557 116.111C474.326 116.335 473.073 116.632 471.831 116.994L471.617 116.251C472.884 115.882 474.164 115.58 475.421 115.351L475.557 116.111ZM452.048 128.424L451.505 127.874C452.404 126.99 453.389 126.117 454.432 125.281L454.916 125.882C453.894 126.702 452.929 127.557 452.048 128.424ZM468.203 118.236C467.049 118.69 465.867 119.211 464.689 119.785L464.351 119.091C465.547 118.508 466.748 117.978 467.921 117.517L468.203 118.236ZM458.015 123.615L457.585 122.974C458.323 122.479 459.1 121.987 459.894 121.513C460.234 121.31 460.571 121.112 460.907 120.92L461.29 121.59C460.96 121.78 460.626 121.975 460.29 122.176C459.508 122.643 458.743 123.128 458.015 123.615Z" fill="#3D4C65"/>
<path d="M516.34 77.4915L526.745 80.4692L527.763 94.3901L533.715 88.7565L538.118 95.9566L554.342 62.3333L516.34 77.4915Z" fill="#87BECA"/>
<path d="M553.495 62.6584L526.536 80.1477L526.956 80.7955L553.915 63.3062L553.495 62.6584Z" fill="#3D4C65"/>
<path d="M531.554 83.9738L527.403 94.2476L528.122 94.534L532.272 84.2609L531.554 83.9738Z" fill="#3D4C65"/>
<path d="M553.436 62.7065L531.645 83.8424L532.184 84.396L553.975 63.2601L553.436 62.7065Z" fill="#3D4C65"/>
<path d="M531.553 84.2585L533.351 88.8978L534.074 88.6165L532.276 83.9772L531.553 84.2585Z" fill="#3D4C65"/>
<path d="M486.491 195.642L485.528 189L490.883 192.657L495.793 189L494.189 195.376L499 198.673L493.129 199.73L490.27 206L488.094 199.73H482L486.491 195.642Z" fill="#D53D3D"/>
<path d="M594.755 69.0328L593.736 62L599.406 65.8721L604.604 62L602.906 68.7506L608 72.2425L601.784 73.3611L598.756 80L596.452 73.3611H590L594.755 69.0328Z" fill="#30BFAE"/>
<path d="M661.387 189.471L660.446 183L665.677 186.563L670.473 183L668.906 189.211L673.606 192.424L667.871 193.454L665.078 199.562L662.952 193.454H657L661.387 189.471Z" fill="white"/>
<path d="M683.639 330.722L695.14 345.75L717.045 336.058L703.034 313.573L683.639 330.722Z" fill="#E1E1E1"/>
<path d="M690.458 332.496L690.811 339.93L698.054 343.328L697.684 335.711L690.458 332.496Z" fill="#375A64"/>
<path d="M697.332 328.339L697.684 335.773L704.927 339.171L704.557 331.554L697.332 328.339Z" fill="#375A64"/>
<path d="M704.322 324.183L704.675 331.616L711.918 335.014L711.548 327.398L704.322 324.183Z" fill="#375A64"/>
<path d="M717.917 335.76L715.416 331.938L693.952 345.52L699.013 354L700.422 353.297C706.662 350.118 731.926 336.692 735.255 333.117C738.967 329.129 717.917 335.76 717.917 335.76Z" fill="#30BFAE"/>
<g opacity="0.5">
<g opacity="0.5">
<g opacity="0.5">
<path opacity="0.5" d="M706.855 349.209C705.479 347.56 703.534 346.23 701.406 345.942C699.278 345.654 697.55 345.794 695.185 347.586L698.853 353.674L706.855 349.209Z" fill="white"/>
</g>
</g>
</g>
<path opacity="0.5" d="M728.391 332.845C728.391 332.845 736.009 330.934 735.82 332.481C735.631 334.029 710.61 348.557 699.013 354L698.763 353.49L728.093 336.792C728.093 336.792 727.146 333.64 728.391 332.845Z" fill="white"/>
<path d="M698.411 353.676C698.416 353.685 698.554 353.624 698.812 353.498C699.148 353.329 699.516 353.144 699.932 352.935C701.041 352.353 702.405 351.638 704.014 350.794C707.449 348.962 712.16 346.367 717.299 343.389C722.439 340.409 727.033 337.61 730.329 335.54C731.862 334.563 733.16 333.735 734.216 333.062C734.604 332.805 734.948 332.578 735.262 332.37C735.499 332.209 735.62 332.12 735.615 332.111C735.609 332.102 735.476 332.174 735.228 332.318C734.905 332.511 734.552 332.722 734.153 332.961C733.083 333.611 731.768 334.411 730.215 335.355C726.89 337.377 722.282 340.144 717.145 343.123C712.009 346.1 707.317 348.723 703.911 350.603C702.32 351.481 700.972 352.225 699.875 352.83C699.47 353.057 699.111 353.259 698.783 353.444C698.534 353.587 698.406 353.667 698.411 353.676Z" fill="#1A2E35"/>
<path d="M728.284 337.136C728.371 337.099 727.881 336.112 727.924 334.803C727.945 333.493 728.482 332.53 728.397 332.489C728.343 332.432 727.643 333.391 727.617 334.795C727.575 336.199 728.228 337.19 728.284 337.136Z" fill="#1A2E35"/>
<path d="M720.116 336.368C720.144 335.678 720.097 335.117 720.012 335.114C719.928 335.11 719.837 335.666 719.81 336.356C719.782 337.045 719.829 337.606 719.914 337.61C719.998 337.613 720.089 337.057 720.116 336.368Z" fill="#1A2E35"/>
<path d="M718.068 336.738C718.248 336.179 718.329 335.705 718.248 335.679C718.168 335.653 717.956 336.085 717.775 336.643C717.595 337.202 717.514 337.676 717.594 337.702C717.675 337.728 717.887 337.296 718.068 336.738Z" fill="#1A2E35"/>
<path d="M716.499 335.767C717.136 335.407 717.618 335.055 717.576 334.981C717.534 334.907 716.985 335.139 716.348 335.499C715.712 335.859 715.23 336.211 715.271 336.285C715.313 336.359 715.863 336.127 716.499 335.767Z" fill="#1A2E35"/>
<path d="M714.039 335.05C714.053 335.13 714.757 335.057 715.531 334.68C716.307 334.307 716.8 333.799 716.746 333.74C716.69 333.671 716.135 334.05 715.397 334.403C714.662 334.763 714.02 334.963 714.039 335.05Z" fill="#1A2E35"/>
<path d="M719.547 335.266C719.562 335.297 720.141 335.049 720.95 334.44C721.353 334.136 721.807 333.735 722.257 333.239C722.475 332.981 722.719 332.742 722.91 332.387C722.995 332.213 723.074 331.992 723.005 331.747C722.94 331.502 722.69 331.331 722.464 331.308C720.713 331.392 719.805 332.932 719.709 333.918C719.64 334.433 719.715 334.852 719.795 335.124C719.879 335.398 719.963 335.533 719.98 335.526C720.04 335.515 719.753 334.916 719.924 333.952C720.009 333.479 720.238 332.933 720.673 332.472C721.084 332.036 721.769 331.585 722.418 331.611C722.737 331.647 722.803 331.961 722.64 332.254C722.496 332.538 722.248 332.803 722.045 333.051C721.618 333.544 721.192 333.951 720.814 334.271C720.058 334.91 719.521 335.223 719.547 335.266Z" fill="#1A2E35"/>
<path d="M719.953 335.124C719.981 335.128 719.98 334.648 719.547 334.052C719.332 333.761 719.004 333.459 718.565 333.247C718.135 333.079 717.565 332.833 716.976 333.209C716.674 333.441 716.731 333.905 716.92 334.112C717.089 334.344 717.322 334.491 717.524 334.602C717.938 334.832 718.34 334.98 718.684 335.068C719.376 335.243 719.821 335.206 719.821 335.17C719.826 335.121 719.394 335.08 718.747 334.86C718.424 334.749 718.05 334.588 717.666 334.357C717.3 334.172 716.857 333.714 717.173 333.445C717.507 333.206 718.07 333.348 718.448 333.504C718.846 333.681 719.16 333.937 719.378 334.189C719.819 334.699 719.9 335.141 719.953 335.124Z" fill="#1A2E35"/>
<path d="M695.377 347.42C695.41 347.467 695.97 346.996 697.028 346.537C698.072 346.077 699.671 345.687 701.406 345.942C703.141 346.2 704.558 347.037 705.424 347.78C706.304 348.525 706.703 349.138 706.749 349.103C706.764 349.092 706.681 348.93 706.493 348.66C706.306 348.39 706 348.02 705.568 347.617C704.716 346.811 703.26 345.908 701.451 345.638C699.641 345.372 697.986 345.816 696.938 346.34C696.407 346.6 696.008 346.866 695.75 347.071C695.492 347.274 695.365 347.405 695.377 347.42Z" fill="#1A2E35"/>
<path d="M708.372 345.471C708.403 345.545 709.967 344.951 711.756 343.931C713.548 342.916 714.86 341.878 714.812 341.813C714.76 341.741 713.38 342.659 711.604 343.664C709.832 344.674 708.336 345.389 708.372 345.471Z" fill="#1A2E35"/>
<path d="M704.074 347.959C704.052 348.043 704.367 348.194 704.704 348.438C705.044 348.676 705.289 348.926 705.362 348.877C705.433 348.836 705.274 348.465 704.882 348.188C704.492 347.908 704.09 347.878 704.074 347.959Z" fill="#1A2E35"/>
<path d="M702.589 347.239C702.612 347.157 702.338 347.011 701.978 346.913C701.618 346.815 701.308 346.801 701.285 346.883C701.263 346.965 701.537 347.111 701.897 347.209C702.257 347.308 702.567 347.321 702.589 347.239Z" fill="#1A2E35"/>
<path d="M698.435 347.309C698.493 347.374 698.783 347.202 699.171 347.129C699.557 347.046 699.89 347.092 699.919 347.009C699.954 346.934 699.588 346.73 699.11 346.828C698.631 346.923 698.373 347.254 698.435 347.309Z" fill="#1A2E35"/>
<path d="M696.961 347.919C697.184 347.884 697.354 347.788 697.341 347.704C697.327 347.62 697.136 347.581 696.913 347.616C696.69 347.651 696.52 347.748 696.534 347.831C696.547 347.915 696.738 347.954 696.961 347.919Z" fill="#1A2E35"/>
<path d="M538.275 319.6L623.972 238.783C629.273 233.36 636.536 230.302 644.119 230.302C654.226 230.302 663.559 235.716 668.576 244.49L712.421 319.836L684.602 335.886L642.375 282.184L600.06 320.421L538.275 319.6Z" fill="#1A2E35"/>
<path d="M513.044 323.653C512.681 324.743 510.138 352.355 547.193 352.355H646.202C658.734 352.355 668.893 342.195 668.893 329.662C668.893 317.129 658.734 306.969 646.202 306.969H554.016C550.718 306.969 547.459 307.688 544.467 309.076L513.044 323.653Z" fill="#1A2E35"/>
<path d="M609.285 307.366C634.509 307.366 654.956 307.188 654.956 306.969C654.956 306.75 634.509 306.572 609.285 306.572C584.062 306.572 563.614 306.75 563.614 306.969C563.614 307.188 584.062 307.366 609.285 307.366Z" fill="#375A64"/>
<path d="M639.672 263.293C639.911 263.297 639.92 267.578 640.698 272.772C641.45 277.971 642.674 282.073 642.447 282.145C642.261 282.217 640.678 278.168 639.913 272.887C639.124 267.612 639.473 263.278 639.672 263.293Z" fill="#375A64"/>
<path d="M643.878 262.677C644.087 262.673 644.306 267.049 643.839 272.423C643.385 277.799 642.423 282.073 642.218 282.033C641.992 281.994 642.598 277.689 643.048 272.355C643.512 267.024 643.648 262.678 643.878 262.677Z" fill="#375A64"/>
<path d="M567.116 141.128C567.231 142.249 566.624 143.411 565.639 143.957C564.653 144.503 563.346 144.401 562.457 143.708C560.769 142.393 561.035 139.761 561.807 137.765C562.579 135.768 563.713 133.698 563.219 131.615C562.84 130.021 561.584 128.814 560.687 127.443C559.126 125.055 558.656 121.927 559.669 119.259C560.682 116.592 563.235 114.515 566.079 114.287C568.983 114.054 572.21 115.561 574.649 113.968C576.416 112.813 576.969 110.464 578.454 108.964C580.76 106.635 584.615 106.946 587.717 108.003C590.819 109.061 593.864 110.716 597.137 110.548C599.871 110.408 602.366 109.004 605.026 108.363C610.795 106.974 617.307 109.606 620.491 114.613C623.674 119.62 623.295 126.634 619.589 131.269C618.258 132.933 615.263 137.911 609.298 136.672" fill="#1A2E35"/>
<path d="M570.511 118.569L569.707 122.862L557.272 187.059C555.829 194.512 561.086 201.688 569.078 203.173L569.078 203.173C577.148 204.673 584.967 199.808 586.549 192.304C588.21 184.427 590.103 176.165 590.103 176.165C590.103 176.165 600.606 176.588 605.461 163.777C607.875 157.406 609.787 146.536 611.064 137.59C612.214 129.539 606.436 122.151 598.344 121.344L570.511 118.569Z" fill="#FFBF9D"/>
<path d="M605.052 143.963C604.898 144.867 604.005 145.481 603.058 145.337C602.113 145.193 601.47 144.346 601.625 143.442C601.78 142.538 602.672 141.923 603.617 142.066C604.564 142.21 605.207 143.06 605.052 143.963Z" fill="#1A2E35"/>
<path d="M607.554 142.723C607.298 142.901 606.208 141.681 604.379 141.306C602.558 140.906 601.021 141.568 600.869 141.302C600.792 141.183 601.089 140.828 601.762 140.524C602.425 140.22 603.491 140.012 604.629 140.253C605.767 140.496 606.637 141.114 607.099 141.657C607.571 142.205 607.678 142.646 607.554 142.723Z" fill="#1A2E35"/>
<path d="M587.572 140.409C587.418 141.313 586.525 141.927 585.578 141.783C584.633 141.639 583.99 140.791 584.145 139.887C584.3 138.984 585.193 138.368 586.138 138.512C587.084 138.656 587.727 139.505 587.572 140.409Z" fill="#1A2E35"/>
<path d="M589.514 139.332C589.257 139.51 588.166 138.29 586.338 137.915C584.517 137.515 582.98 138.177 582.828 137.911C582.751 137.792 583.047 137.437 583.721 137.133C584.384 136.829 585.451 136.62 586.588 136.862C587.726 137.105 588.596 137.723 589.058 138.266C589.529 138.814 589.637 139.254 589.514 139.332Z" fill="#1A2E35"/>
<path d="M593.333 154.268C593.346 154.163 594.523 154.203 596.413 154.35C596.89 154.398 597.351 154.397 597.496 154.095C597.676 153.78 597.585 153.237 597.472 152.646C597.267 151.426 597.054 150.146 596.829 148.805C595.963 143.345 595.44 138.895 595.66 138.862C595.88 138.83 596.761 143.228 597.627 148.687C597.829 150.031 598.023 151.313 598.206 152.538C598.273 153.105 598.452 153.77 598.068 154.421C597.87 154.743 597.475 154.925 597.159 154.944C596.841 154.973 596.577 154.923 596.343 154.889C594.47 154.604 593.318 154.374 593.333 154.268Z" fill="#1A2E35"/>
<path d="M590.103 176.165C590.103 176.165 581.072 174.889 573.345 167.748C573.345 167.748 575.759 177.742 589.275 179.256L590.103 176.165Z" fill="#FF9A6C"/>
<path d="M587.69 154.416C587.991 154.46 587.583 156.445 588.989 158.206C590.391 159.972 592.552 160.188 592.51 160.469C592.512 160.599 591.959 160.756 591.061 160.595C590.179 160.444 588.959 159.897 588.098 158.819C587.242 157.74 587.036 156.495 587.137 155.667C587.233 154.821 587.557 154.376 587.69 154.416Z" fill="#1A2E35"/>
<path d="M591.474 132.266C591.19 132.725 589.414 132.11 587.215 131.924C585.021 131.693 583.161 131.961 582.969 131.456C582.886 131.217 583.284 130.812 584.084 130.476C584.877 130.139 586.078 129.912 587.395 130.036C588.712 130.163 589.848 130.612 590.563 131.092C591.285 131.573 591.6 132.046 591.474 132.266Z" fill="#1A2E35"/>
<path d="M607.981 137.292C607.573 137.641 606.403 136.948 604.893 136.613C603.395 136.226 602.039 136.312 601.834 135.816C601.748 135.578 602.036 135.204 602.678 134.927C603.312 134.65 604.302 134.522 605.336 134.77C606.369 135.019 607.193 135.582 607.631 136.117C608.078 136.655 608.165 137.119 607.981 137.292Z" fill="#1A2E35"/>
<path d="M612.725 131.805C612.725 131.805 605.224 133.943 597.011 127.877C591.621 123.896 584.989 121.252 583.263 122.174C581.538 123.096 580.153 129.125 573.993 129.878C573.993 129.878 572.364 141.559 567.807 140.336C563.251 139.112 568.749 116.129 568.749 116.129L581.58 118.085L594.346 117.912L605.703 121.59L614.281 125.633L612.725 131.805Z" fill="#1A2E35"/>
<path d="M569.122 112.773C569.094 112.585 570.265 112.402 571.441 113.129C572.623 113.847 572.992 114.973 572.812 115.033C572.631 115.128 572.064 114.325 571.071 113.732C570.092 113.117 569.12 112.977 569.122 112.773Z" fill="#1A2E35"/>
<path d="M573.752 109.669C573.962 109.73 573.609 111.068 573.524 112.68C573.426 114.297 573.874 115.571 573.686 115.655C573.529 115.759 572.716 114.456 572.817 112.649C572.917 110.871 573.594 109.61 573.752 109.669Z" fill="#1A2E35"/>
<path d="M569.062 135.64C568.893 135.509 561.949 131.427 560.265 139.138C558.581 146.848 566.668 146.949 566.73 146.73C566.792 146.512 569.062 135.64 569.062 135.64Z" fill="#FFBF9D"/>
<path d="M565.013 143.295C564.985 143.263 564.858 143.36 564.608 143.414C564.365 143.467 563.969 143.454 563.6 143.215C562.851 142.739 562.447 141.296 562.714 139.898C562.847 139.192 563.14 138.555 563.51 138.057C563.868 137.544 564.319 137.23 564.745 137.246C565.174 137.241 565.411 137.55 565.457 137.788C565.513 138.026 565.431 138.169 565.469 138.191C565.486 138.215 565.663 138.098 565.67 137.766C565.672 137.606 565.621 137.405 565.472 137.217C565.32 137.026 565.065 136.89 564.772 136.858C564.169 136.77 563.514 137.2 563.108 137.747C562.669 138.29 562.323 139.002 562.173 139.795C561.883 141.359 562.361 142.986 563.405 143.552C563.917 143.812 564.405 143.748 564.678 143.617C564.958 143.478 565.037 143.315 565.013 143.295Z" fill="#FF9A6C"/>
<path d="M594.614 140.147C594.534 140.151 594.552 139.417 594.208 138.184C593.868 136.973 593.033 135.207 591.207 133.855C589.442 132.499 586.546 131.746 583.751 132.792C580.978 133.753 578.588 136.704 578.619 140.146C578.587 143.59 580.978 146.541 583.751 147.502C586.547 148.549 589.443 147.796 591.208 146.439C593.034 145.087 593.868 143.321 594.208 142.111C594.552 140.877 594.534 140.143 594.614 140.147C594.642 140.147 594.66 140.327 594.668 140.675C594.683 141.021 594.646 141.538 594.508 142.186C594.248 143.464 593.457 145.376 591.548 146.885C589.705 148.396 586.577 149.295 583.502 148.189C581.987 147.66 580.537 146.642 579.504 145.222C578.443 143.821 577.84 142.009 577.825 140.146C577.841 138.283 578.443 136.472 579.505 135.072C580.538 133.652 581.988 132.634 583.502 132.105C586.576 131 589.704 131.898 591.547 133.409C593.457 134.918 594.248 136.83 594.508 138.108C594.646 138.757 594.683 139.273 594.668 139.62C594.659 139.967 594.642 140.147 594.614 140.147Z" fill="#375A64"/>
<path d="M614.281 143.701C614.201 143.705 614.219 142.971 613.875 141.738C613.535 140.527 612.7 138.761 610.874 137.409C609.109 136.053 606.213 135.3 603.418 136.347C600.645 137.307 598.255 140.258 598.286 143.7C598.254 147.144 600.645 150.095 603.418 151.056C606.214 152.103 609.11 151.35 610.874 149.993C612.701 148.641 613.535 146.875 613.875 145.665C614.219 144.431 614.201 143.698 614.281 143.701C614.309 143.701 614.326 143.881 614.335 144.229C614.35 144.575 614.313 145.092 614.175 145.74C613.915 147.018 613.124 148.93 611.215 150.44C609.372 151.95 606.244 152.849 603.169 151.743C601.654 151.215 600.204 150.196 599.171 148.776C598.11 147.375 597.507 145.563 597.492 143.7C597.508 141.838 598.11 140.027 599.171 138.626C600.205 137.206 601.654 136.188 603.169 135.659C606.243 134.554 609.371 135.452 611.214 136.963C613.124 138.472 613.915 140.384 614.175 141.662C614.313 142.311 614.35 142.827 614.335 143.174C614.326 143.521 614.309 143.701 614.281 143.701Z" fill="#375A64"/>
<path d="M574.227 136.02C576.951 136.011 579.159 135.826 579.158 135.607C579.157 135.388 576.948 135.218 574.224 135.226C571.5 135.235 569.293 135.42 569.293 135.639C569.294 135.858 571.503 136.029 574.227 136.02Z" fill="#375A64"/>
<path d="M597.889 142.135C597.689 142.221 597.206 141.478 596.302 141.224C595.403 140.953 594.597 141.319 594.474 141.14C594.414 141.056 594.548 140.819 594.915 140.615C595.273 140.412 595.884 140.276 596.524 140.463C597.164 140.65 597.606 141.092 597.799 141.456C597.999 141.825 597.985 142.097 597.889 142.135Z" fill="#375A64"/>
<path d="M579.764 306.317V301.232L652.152 302.712L693.831 236.116L697.656 238.876L654.956 306.969L579.764 306.317Z" fill="#E1E1E1"/>
<path d="M629.842 284.123L633.486 289.527V300.651C633.486 300.651 631.601 301.088 630.847 299.58C630.093 298.072 629.088 292.919 629.088 292.919L627.325 297.473C626.609 299.322 624.629 300.348 622.706 299.866L609.284 296.499L614.768 280.813L629.842 284.123Z" fill="#FFBF9D"/>
<path d="M555.723 176.685C555.723 176.685 535.688 181.694 529.677 190.71C523.667 199.726 516.821 214.689 509.447 243.711C503.012 269.037 498.048 309.483 505.016 318.973C509.814 325.507 512.874 327.17 512.874 327.17L528.334 321.632C543.226 316.298 556.912 308.061 568.597 297.399L592.322 275.752L579.764 265.846C579.764 265.846 589.317 214.239 586.777 196.207C584.557 180.441 555.723 176.685 555.723 176.685Z" fill="#30BFAE"/>
<path d="M560.903 192.235C553.194 194.15 545.775 197.28 535.237 198.161C532.768 198.368 530.233 197.913 528.124 196.611C521.473 192.505 523.776 184.901 527.411 179.782C531.265 174.355 537.331 169.685 543.954 170.352C542.692 167.059 544.646 163.125 547.738 161.429C550.83 159.733 554.687 159.956 557.988 161.197C561.289 162.438 564.154 164.591 566.968 166.715C570.744 169.566 574.521 172.417 578.297 175.267C580.837 177.185 583.46 179.198 584.926 182.024C586.391 184.849 591.815 195.937 589.406 198.017C589.406 198.017 586.324 198.914 584.834 198.017C584.752 197.967 584.659 197.902 584.557 197.822C577.806 192.563 569.209 190.172 560.903 192.235Z" fill="#30BFAE"/>
<path d="M549.513 201.632L536.27 263.542C533.956 274.359 539.969 285.226 550.363 289.009L607.918 300.046L615.094 278.592L568.387 264.02L582.086 204.21L549.513 201.632Z" fill="#30BFAE"/>
<path d="M535.776 275.315C535.785 275.315 535.816 275.436 535.868 275.677C535.922 275.944 535.994 276.296 536.085 276.748C536.132 276.987 536.184 277.251 536.241 277.541C536.344 277.823 536.455 278.13 536.576 278.462C536.698 278.796 536.829 279.155 536.97 279.539C537.167 279.899 537.378 280.283 537.6 280.689C538.526 282.287 540.025 284.088 542.255 285.61C544.47 287.136 547.33 288.449 550.698 289.293C564.471 291.812 584.097 295.403 607.643 299.71L607.259 299.933C609.629 293.138 612.137 285.95 614.746 278.47L614.984 278.945C600.575 274.458 584.778 269.538 568.27 264.398L567.911 264.287L568.004 263.92C568.818 260.732 569.688 257.318 570.566 253.878C573.28 243.037 575.825 232.425 578.038 222.127C579.122 216.975 580.15 211.9 580.859 206.9C581.067 205.65 581.061 204.413 581.174 203.18C581.126 201.956 581.08 200.735 580.767 199.561C580.224 197.206 579.107 195.022 577.58 193.218C574.528 189.568 569.838 187.631 565.377 187.753C560.853 187.879 556.812 190.305 554.045 193.488C551.22 196.675 549.423 200.483 548.206 204.249C546.98 208.031 546.267 211.802 545.559 215.393C542.728 229.742 540.436 241.364 538.844 249.433C538.039 253.424 537.412 256.534 536.979 258.68C536.762 259.712 536.595 260.51 536.475 261.081C536.357 261.621 536.276 261.894 536.276 261.894C536.276 261.894 536.303 261.611 536.395 261.066C536.496 260.491 536.639 259.688 536.822 258.65C537.221 256.497 537.799 253.377 538.541 249.374C540.074 241.294 542.282 229.656 545.008 215.286C545.699 211.692 546.397 207.898 547.623 204.061C548.841 200.24 550.656 196.342 553.553 193.051C556.379 189.771 560.606 187.197 565.352 187.055C570.031 186.915 574.93 188.93 578.135 192.743C579.74 194.629 580.918 196.921 581.493 199.393C581.823 200.625 581.876 201.909 581.927 203.187C581.816 204.45 581.817 205.748 581.61 207.001C580.903 212.044 579.879 217.125 578.799 222.288C576.593 232.604 574.052 243.224 571.335 254.071C570.457 257.513 569.585 260.93 568.77 264.12L568.505 263.642C585.008 268.801 600.8 273.737 615.204 278.24L615.569 278.354L615.443 278.714C612.815 286.188 610.291 293.369 607.904 300.159L607.806 300.436L607.519 300.382C583.96 295.976 564.347 292.378 550.6 289.68C547.196 288.796 544.311 287.439 542.078 285.861C539.831 284.29 538.328 282.433 537.418 280.793C537.2 280.376 536.994 279.983 536.801 279.614C536.667 279.222 536.542 278.855 536.426 278.514C536.312 278.176 536.208 277.863 536.112 277.575C536.064 277.281 536.02 277.012 535.98 276.769C535.91 276.311 535.856 275.954 535.814 275.683C535.78 275.44 535.767 275.316 535.776 275.315Z" fill="#1A2E35"/>
<path d="M560.359 272.129C560.269 272.125 560.188 271.403 560.48 270.278C560.764 269.16 561.513 267.678 562.798 266.439C564.087 265.205 565.599 264.517 566.727 264.278C567.862 264.031 568.581 264.141 568.581 264.231C568.589 264.359 567.902 264.452 566.884 264.817C565.866 265.175 564.534 265.879 563.347 267.011C562.169 268.151 561.411 269.454 561.012 270.457C560.607 271.459 560.486 272.142 560.359 272.129Z" fill="#1A2E35"/>
<g opacity="0.2">
<path opacity="0.2" d="M548.163 200.806C541.237 222.27 537.054 244.542 534.301 266.927C533.665 272.094 533.107 277.354 533.996 282.483C534.885 287.613 537.417 292.677 541.786 295.509C545.864 298.153 551.075 298.557 555.85 297.652C560.626 296.748 568.349 295.691 572.743 293.615L546.992 288.305C546.992 288.305 530.387 287.272 537.518 255.474C544.648 223.677 548.163 200.806 548.163 200.806Z" fill="black"/>
</g>
<g opacity="0.2">
<path opacity="0.2" d="M526.206 195.522C526.104 198.063 526.341 201.195 528.651 202.259C531.024 203.352 533.596 201.37 535.517 199.598C543.323 192.398 552.173 186.333 561.704 181.651C548.766 182.484 536.138 187.588 526.254 195.979" fill="black"/>
</g>
<path d="M576.648 187.761C576.544 187.925 574.195 185.784 569.551 183.973C567.237 183.09 564.364 182.297 561.098 182.052C557.84 181.787 554.206 182.073 550.596 183.193C546.971 184.274 543.724 185.921 540.817 187.474C537.916 189.052 535.333 190.551 533.11 191.718C530.89 192.893 529.037 193.741 527.733 194.265C526.422 194.775 525.68 195.004 525.662 194.957C525.641 194.902 526.345 194.575 527.608 193.982C528.867 193.375 530.666 192.457 532.841 191.226C535.055 189.95 537.63 188.467 540.466 186.833C543.372 185.236 546.653 183.542 550.368 182.433C554.069 181.284 557.827 181.01 561.159 181.323C564.505 181.615 567.429 182.485 569.761 183.452C572.099 184.423 573.838 185.528 574.973 186.358C575.556 186.754 575.962 187.125 576.246 187.36C576.527 187.603 576.665 187.74 576.648 187.761Z" fill="#1A2E35"/>
<path d="M584.704 190.971C584.605 191.071 582.784 189.255 579.566 186.66C576.354 184.063 571.654 180.781 566.017 177.962C560.37 175.157 554.92 173.379 550.912 172.378C546.903 171.371 544.358 171.01 544.378 170.871C544.385 170.816 545.026 170.864 546.183 170.996C547.341 171.115 549.005 171.394 551.041 171.832C555.113 172.7 560.659 174.414 566.371 177.251C572.073 180.103 576.78 183.499 579.924 186.228C581.5 187.59 582.724 188.751 583.517 189.605C584.319 190.449 584.743 190.932 584.704 190.971Z" fill="#1A2E35"/>
<path d="M588.552 241.074C588.51 241.079 588.402 240.629 588.246 239.786C588.095 238.943 587.883 237.709 587.744 236.131C587.632 234.551 587.503 232.637 588.004 230.443C588.266 229.373 589.089 228.114 590.507 227.883C591.175 227.746 592.042 228.015 592.46 228.68C592.869 229.274 593.018 230.252 592.35 230.911L592.273 230.987L592.155 231.007C591.312 231.152 590.496 230.733 589.969 230.15C589.41 229.552 589.152 228.751 589.034 227.999C588.849 226.473 588.844 225.011 588.741 223.462C588.362 216.156 588.063 209.54 587.886 204.75C587.819 202.473 587.762 200.569 587.718 199.075C587.696 197.734 587.71 196.991 587.764 196.988C587.819 196.985 587.91 197.723 588.027 199.059C588.137 200.55 588.278 202.449 588.447 204.721C588.767 209.504 589.154 216.115 589.534 223.421C589.633 224.94 589.645 226.502 589.807 227.877C589.911 228.557 590.124 229.187 590.536 229.632C590.94 230.085 591.517 230.357 592.032 230.268L591.838 230.364C592.156 230.087 592.13 229.493 591.856 229.084C591.595 228.665 591.114 228.503 590.611 228.575C589.575 228.725 588.876 229.656 588.614 230.621C588.107 232.618 588.154 234.56 588.206 236.101C588.385 239.22 588.664 241.061 588.552 241.074Z" fill="#E1E1E1"/>
<path d="M563.528 291.47C563.564 291.512 562.9 292.133 561.667 293.223C560.442 294.321 558.613 295.844 556.309 297.674C551.699 301.325 545.092 306.098 537.339 310.645C529.587 315.198 522.196 318.641 516.742 320.845C514.017 321.953 511.786 322.786 510.226 323.307C508.668 323.836 507.799 324.103 507.781 324.052C507.762 324 508.596 323.634 510.117 323.017C511.641 322.409 513.835 321.498 516.524 320.328C521.905 317.998 529.221 314.493 536.938 309.961C544.654 305.435 551.282 300.757 555.967 297.23C558.307 295.462 560.186 294.008 561.47 292.985C562.761 291.97 563.492 291.428 563.528 291.47Z" fill="#1A2E35"/>
<path d="M517.114 326.115C517.289 325.983 516.662 324.855 515.714 323.595C514.766 322.335 513.855 321.421 513.68 321.552C513.505 321.684 514.132 322.812 515.08 324.072C516.028 325.332 516.939 326.246 517.114 326.115Z" fill="#1A2E35"/>
<path d="M526.312 322.227C526.188 322.4 524.931 321.692 523.752 320.39C522.567 319.092 521.981 317.774 522.165 317.668C522.358 317.55 523.212 318.623 524.339 319.856C525.459 321.094 526.447 322.047 526.312 322.227Z" fill="#1A2E35"/>
<path d="M537.869 318.415C538.033 318.27 537.023 316.858 535.613 315.261C534.203 313.663 532.927 312.486 532.762 312.631C532.598 312.776 533.608 314.189 535.018 315.786C536.428 317.383 537.705 318.56 537.869 318.415Z" fill="#1A2E35"/>
<path d="M550.271 311.828C550.44 311.689 549.352 310.096 547.842 308.27C546.331 306.444 544.97 305.078 544.801 305.217C544.632 305.357 545.72 306.95 547.23 308.776C548.741 310.601 550.102 311.968 550.271 311.828Z" fill="#1A2E35"/>
<path d="M561.79 303.213C561.937 303.05 560.718 301.709 559.068 300.217C557.418 298.725 555.961 297.647 555.814 297.809C555.667 297.972 556.886 299.313 558.536 300.806C560.186 302.298 561.643 303.376 561.79 303.213Z" fill="#1A2E35"/>
<path d="M463.276 271.529L460.51 273.401C459.479 274.099 458.078 273.829 457.381 272.798L437.001 242.689C436.303 241.658 436.573 240.257 437.604 239.56L440.37 237.688C441.4 236.99 442.801 237.26 443.499 238.291L463.879 268.4C464.576 269.431 464.306 270.832 463.276 271.529Z" fill="#3D4C65"/>
<path d="M437.866 233.686L434.82 235.748L438.853 241.707L441.899 239.646L437.866 233.686Z" fill="#3D4C65"/>
<path d="M411.169 197.526C400.899 204.476 398.209 218.436 405.16 228.707C412.112 238.977 426.072 241.668 436.342 234.717C446.612 227.766 449.302 213.806 442.351 203.536C435.399 193.266 421.439 190.575 411.169 197.526ZM416.71 222.607C420.972 228.902 426.42 231.007 423.072 233.274C419.723 235.54 412.585 232.999 408.323 226.703C404.062 220.408 404.291 212.741 407.64 210.475C410.988 208.209 412.449 216.311 416.71 222.607Z" fill="#B7EFF9"/>
<path d="M441.826 232.483C440.543 233.901 439.071 235.188 437.418 236.307C432.026 239.955 425.536 241.287 419.144 240.054C412.751 238.821 407.221 235.174 403.572 229.782C396.039 218.652 398.961 203.466 410.094 195.937C415.485 192.288 421.975 190.957 428.367 192.189C434.76 193.422 440.29 197.07 443.94 202.461C450.354 211.938 449.186 224.354 441.826 232.483ZM408.501 202.36C406.01 205.111 404.311 208.498 403.592 212.235C402.553 217.62 403.676 223.089 406.75 227.632C409.824 232.174 414.484 235.248 419.87 236.286C425.256 237.324 430.724 236.203 435.267 233.129C439.808 230.055 442.883 225.394 443.92 220.008C444.958 214.623 443.836 209.154 440.762 204.612C437.687 200.069 433.028 196.996 427.641 195.958C422.256 194.919 416.788 196.04 412.244 199.115C410.854 200.056 409.6 201.146 408.501 202.36Z" fill="#3D4C65"/>
<path d="M687.462 41.1064L680.423 45.7069L680.894 46.4221L687.935 41.8214L687.462 41.1064Z" fill="#3D4C65"/>
<path d="M692.702 53.7493L684.307 54.4204L684.376 55.2732L692.771 54.6021L692.702 53.7493Z" fill="#3D4C65"/>
<path d="M683.93 63.1948L683.642 64.001L691.576 66.813L691.864 66.0068L683.93 63.1948Z" fill="#3D4C65"/>
<path d="M683.122 73.6616L682.847 74.472L690.826 77.1528L691.102 76.3425L683.122 73.6616Z" fill="#3D4C65"/>
<path d="M678.813 80.7808L678.283 81.4529L684.904 86.633L685.434 85.9608L678.813 80.7808Z" fill="#3D4C65"/>
<path d="M678.33 32.6731L674.111 39.9274L674.855 40.356L679.075 33.1016L678.33 32.6731Z" fill="#3D4C65"/>
<path d="M644.719 30.6013L643.958 31.0008L647.89 38.4136L648.649 38.0141L644.719 30.6013Z" fill="#3D4C65"/>
<path d="M633.997 39.1606L633.525 39.8739L640.553 44.494L641.025 43.7807L633.997 39.1606Z" fill="#3D4C65"/>
<path d="M627.182 48.2202L626.837 49.0035L634.552 52.3789L634.896 51.5956L627.182 48.2202Z" fill="#3D4C65"/>
<path d="M624.448 59.7188L624.296 60.5607L632.585 62.0446L632.737 61.2027L624.448 59.7188Z" fill="#3D4C65"/>
<path d="M633.061 69.5063L624.75 70.8659L624.891 71.7095L633.199 70.3501L633.061 69.5063Z" fill="#3D4C65"/>
<path d="M656.803 27.6011L655.944 27.6193L656.123 36.0002L656.982 35.982L656.803 27.6011Z" fill="#3D4C65"/>
<path d="M666.072 27.6514L665.067 35.6382L665.921 35.7443L666.924 27.7574L666.072 27.6514Z" fill="#3D4C65"/>
<path d="M648.556 98.6148C648.209 98.5303 647.988 98.0999 648.021 97.7714L648.05 97.4919L648.504 97.658C648.611 97.7005 648.717 97.743 648.831 97.7709L651.294 98.3703C651.473 98.414 651.651 98.4475 651.831 98.4702L652.122 98.5087L652.005 98.778C651.877 99.0723 651.533 99.3396 651.202 99.2589L648.556 98.6148ZM648.952 97.2738C647.336 96.8803 646.036 95.6372 645.474 93.9485L645.347 93.5688L656.325 96.2414L656.038 96.5204C654.762 97.7617 653.034 98.2674 651.415 97.8732L648.952 97.2738ZM645.258 93.0204L645.24 92.8674C645.187 92.4012 645.201 91.9092 645.284 91.4039C645.306 91.2791 645.476 90.4584 645.476 90.4584L646.956 84.3787L659.122 87.3405L657.644 93.4129L657.379 94.3395C657.217 94.8355 657.004 95.279 656.742 95.6673L656.656 95.7954L645.258 93.0204Z" fill="#BCBEC0"/>
<path d="M646.954 83.8514L646.954 83.677C646.96 80.9734 645.938 78.2361 644.078 75.9712L643.922 75.7866C639.334 70.7604 637.56 63.8563 639.159 57.2867C641.8 46.4393 652.772 39.7631 663.617 42.4035C674.462 45.0436 681.138 56.0162 678.497 66.8636C676.891 73.4615 672.117 78.7869 665.725 81.1091C662.915 82.2836 660.702 84.2632 659.441 86.717L659.361 86.8719L646.954 83.8514Z" fill="#FFAA02"/>
<path d="M659.319 89.521C659.319 89.5202 659.319 89.5193 659.319 89.5185L659.776 87.6412L659.982 86.796L659.033 86.5649L659.033 86.5646L656.23 85.8824L667.068 65.6029C667.192 65.3707 667.104 65.0812 666.872 64.9569C666.642 64.8352 666.35 64.9207 666.226 65.1532L665.696 66.1451C664.854 65.9634 664.29 66.4528 663.839 66.8547C663.418 67.229 663.162 67.4366 662.796 67.3477C662.431 67.2587 662.299 66.9566 662.097 66.4306C661.876 65.8553 661.602 65.1402 660.733 64.9287C659.864 64.7172 659.291 65.2265 658.831 65.636C658.41 66.0103 658.154 66.2176 657.79 66.1288C657.425 66.0401 657.293 65.7384 657.092 65.2121C656.871 64.6374 656.598 63.922 655.73 63.7107C654.861 63.4992 654.288 64.0086 653.829 64.4181C653.408 64.7924 653.152 64.9997 652.787 64.911C652.423 64.8223 652.291 64.5207 652.09 63.9948C651.883 63.4543 651.609 62.8048 650.859 62.5512L650.844 61.4083C650.84 61.1447 650.621 60.9341 650.36 60.937C650.097 60.9406 649.885 61.1573 649.889 61.4206L650.193 84.4126L647.518 83.7613L647.518 83.7616L646.392 83.4875L646.181 84.3558L644.605 90.8314C643.959 93.4851 645.149 96.1252 647.323 97.3789L647.291 97.5072C647.105 98.2749 647.614 99.1394 648.359 99.3209L651.005 99.9651C651.74 100.144 652.551 99.6152 652.741 98.834L652.77 98.716C654.445 98.6242 656.032 97.761 657.086 96.4116C657.111 96.3859 657.134 96.3595 657.153 96.328C657.632 95.6917 657.996 94.9541 658.194 94.1399L658.217 94.0461C658.217 94.0453 658.218 94.0447 658.218 94.0439C658.218 94.0432 658.218 94.0424 658.218 94.0416L658.768 91.7846C658.768 91.7839 658.769 91.7832 658.769 91.7824C658.769 91.7816 658.769 91.7808 658.769 91.78L659.318 89.5232C659.318 89.5224 659.319 89.5218 659.319 89.521ZM650.874 63.6744C650.993 63.8301 651.087 64.0456 651.199 64.3368C651.419 64.9115 651.693 65.6268 652.562 65.8383C653.43 66.0498 654.003 65.5406 654.463 65.1309C654.884 64.7566 655.14 64.5491 655.504 64.6379C655.868 64.7263 655.999 65.0281 656.2 65.5539C656.421 66.1293 656.695 66.8446 657.564 67.056C658.433 67.2675 659.005 66.7586 659.465 66.3492C659.886 65.9748 660.142 65.7669 660.507 65.8558C660.872 65.9447 661.004 66.2465 661.206 66.7726C661.427 67.3478 661.701 68.0633 662.57 68.2749C663.44 68.4865 664.012 67.9773 664.473 67.5678C664.761 67.3114 664.973 67.1424 665.194 67.0842L655.272 85.6492L651.151 84.6458L650.874 63.6744ZM651.231 99.038L648.585 98.3937C648.368 98.3409 648.192 98.0336 648.218 97.7877C648.398 97.8516 648.566 97.934 648.755 97.9799L651.217 98.5793C651.404 98.6247 651.591 98.6594 651.779 98.6839C651.681 98.9095 651.428 99.086 651.231 99.038ZM651.443 97.6522L648.981 97.0528C647.385 96.664 646.171 95.4105 645.659 93.8726L655.861 96.3562C654.698 97.4864 653.042 98.0415 651.443 97.6522ZM658.505 88.8318L657.612 88.6142C657.355 88.5518 657.098 88.7085 657.035 88.9649C656.973 89.2213 657.13 89.4789 657.386 89.5413L658.28 89.7589L657.955 91.0932L657.061 90.8756C656.805 90.8132 656.547 90.97 656.485 91.2263C656.422 91.4828 656.579 91.7405 656.835 91.8029L657.729 92.0205L657.404 93.3548L656.511 93.1372C656.254 93.0748 655.997 93.2316 655.934 93.4879C655.872 93.7443 656.029 94.002 656.285 94.0644L657.142 94.2731C656.994 94.7283 656.794 95.1542 656.535 95.5381L645.437 92.8362C645.384 92.3764 645.402 91.9062 645.479 91.4338L653.572 93.404C653.828 93.4664 654.086 93.3096 654.149 93.0532C654.211 92.7969 654.054 92.5391 653.798 92.4767L645.668 90.4976L645.993 89.1633L654.123 91.1424C654.379 91.2048 654.637 91.048 654.699 90.7916C654.761 90.5353 654.605 90.2776 654.348 90.2152L646.219 88.2361L646.544 86.9018L654.673 88.8809C654.929 88.9433 655.187 88.7866 655.249 88.5302C655.312 88.2738 655.155 88.0162 654.899 87.9538L646.769 85.9747L647.094 84.6404L658.83 87.4975L658.505 88.8318Z" fill="#3D4C65"/>
<path opacity="0.36" d="M656.71 54.6684C659.927 52.9597 661.5 49.6241 660.222 47.2182C658.944 44.8123 655.301 44.2472 652.083 45.9559C648.866 47.6646 647.294 51.0002 648.572 53.406C649.849 55.8119 653.493 56.3771 656.71 54.6684Z" fill="white"/>
<path d="M737.595 175.22L698.85 158.626C697.977 158.252 697.572 157.24 697.946 156.366L719.481 106.092C719.855 105.219 720.867 104.814 721.741 105.188L760.485 121.782C761.359 122.156 761.764 123.168 761.39 124.042L739.855 174.316C739.48 175.189 738.469 175.594 737.595 175.22Z" fill="#87BECA"/>
<path d="M701.952 159.952L697.823 158.183C697.522 158.055 697.383 157.707 697.512 157.406L719.936 105.056C720.065 104.755 720.412 104.616 720.713 104.745L724.843 106.514L701.952 159.952Z" fill="#3D4C65"/>
<path d="M740.1 148.3L720.821 140.043C720.474 139.895 720.313 139.493 720.462 139.147L726.862 124.204C727.011 123.857 727.412 123.696 727.759 123.845L747.038 132.102C747.385 132.25 747.545 132.652 747.397 132.998L740.996 147.941C740.848 148.288 740.446 148.449 740.1 148.3Z" fill="white"/>
<path d="M742.047 135.847L728.492 130.041C728.077 129.863 727.884 129.382 728.062 128.966C728.24 128.55 728.722 128.358 729.137 128.536L742.692 134.341C743.108 134.52 743.3 135 743.122 135.416C742.944 135.832 742.463 136.025 742.047 135.847Z" fill="#3D4C65"/>
<path d="M739.164 139.754L734.866 137.913C734.45 137.735 734.257 137.254 734.436 136.838C734.614 136.422 735.095 136.23 735.511 136.408L739.809 138.249C740.225 138.427 740.418 138.908 740.239 139.324C740.061 139.74 739.58 139.932 739.164 139.754Z" fill="#3D4C65"/>
<path d="M731.29 136.381L726.631 134.386C726.215 134.208 726.022 133.727 726.201 133.311C726.379 132.895 726.86 132.702 727.276 132.881L731.935 134.876C732.351 135.054 732.544 135.535 732.365 135.951C732.187 136.367 731.706 136.56 731.29 136.381Z" fill="#3D4C65"/>
<path d="M734.6 142.942L724.77 138.732C724.354 138.554 724.162 138.073 724.34 137.657C724.518 137.241 724.999 137.048 725.415 137.226L735.245 141.437C735.661 141.615 735.854 142.096 735.675 142.512C735.497 142.928 735.016 143.12 734.6 142.942Z" fill="#3D4C65"/>
<path d="M747.047 230.318L716.288 200.931C715.594 200.268 715.569 199.169 716.232 198.475L754.367 158.564C755.03 157.871 756.13 157.845 756.823 158.508L787.582 187.896C788.276 188.559 788.301 189.658 787.638 190.352L749.502 230.262C748.84 230.956 747.74 230.981 747.047 230.318Z" fill="#FFAA02"/>
<path d="M718.752 203.282L715.473 200.149C715.235 199.921 715.226 199.543 715.454 199.305L755.165 157.746C755.392 157.507 755.771 157.499 756.009 157.726L759.288 160.859L718.752 203.282Z" fill="#3D4C65"/>
<path d="M758.934 205.756L743.629 191.133C743.353 190.87 743.343 190.434 743.606 190.159L754.941 178.296C755.204 178.021 755.64 178.011 755.915 178.274L771.221 192.897C771.496 193.159 771.506 193.596 771.243 193.871L759.908 205.734C759.645 206.009 759.209 206.019 758.934 205.756Z" fill="white"/>
<path d="M765.178 194.672L754.417 184.391C754.087 184.075 754.075 183.553 754.391 183.222C754.706 182.892 755.229 182.88 755.559 183.196L766.32 193.477C766.65 193.792 766.662 194.315 766.346 194.645C766.031 194.976 765.508 194.987 765.178 194.672Z" fill="#3D4C65"/>
<path d="M761.071 197.346L757.658 194.086C757.328 193.771 757.316 193.248 757.632 192.918C757.948 192.587 758.47 192.575 758.8 192.891L762.213 196.151C762.543 196.467 762.555 196.989 762.239 197.32C761.924 197.65 761.401 197.662 761.071 197.346Z" fill="#3D4C65"/>
<path d="M754.82 191.374L751.121 187.84C750.791 187.525 750.779 187.002 751.095 186.671C751.41 186.341 751.933 186.33 752.263 186.645L755.962 190.179C756.293 190.495 756.304 191.017 755.989 191.347C755.673 191.678 755.151 191.69 754.82 191.374Z" fill="#3D4C65"/>
<path d="M755.629 198.746L747.825 191.29C747.495 190.974 747.483 190.451 747.798 190.121C748.114 189.791 748.637 189.779 748.967 190.095L756.771 197.551C757.101 197.866 757.113 198.389 756.797 198.719C756.482 199.049 755.959 199.061 755.629 198.746Z" fill="#3D4C65"/>
<path d="M1166.43 207.934L1170.92 220.026L1187.64 220.002L1181.44 227.569L1190.43 232.16L1151.7 254.401L1166.43 207.934Z" fill="#FFAA02"/>
<path d="M1187.43 219.585L1175.53 225.43L1175.94 226.258L1187.84 220.413L1187.43 219.585Z" fill="#3D4C65"/>
<path d="M1175.38 225.545L1152.07 253.295L1152.78 253.885L1176.09 226.136L1175.38 225.545Z" fill="#3D4C65"/>
<path d="M1175.87 225.399L1175.6 226.283L1181.3 228.011L1181.57 227.126L1175.87 225.399Z" fill="#3D4C65"/>
<path d="M1170.52 219.81L1152.01 253.362L1152.82 253.805L1171.33 220.252L1170.52 219.81Z" fill="#3D4C65"/>
<path d="M1192.18 211.53L1191.3 211.221C1191.62 210.348 1191.91 209.459 1192.16 208.579L1193.05 208.833C1192.79 209.732 1192.5 210.639 1192.18 211.53ZM1194.13 204.291L1193.21 204.131C1193.48 202.629 1193.68 201.104 1193.78 199.6L1194.71 199.662C1194.6 201.2 1194.4 202.757 1194.13 204.291ZM1194.77 194.997L1193.85 195.039C1193.78 193.524 1193.63 191.998 1193.4 190.502L1194.31 190.356C1194.55 191.885 1194.71 193.447 1194.77 194.997ZM1193.32 185.8L1192.43 186.049C1192.03 184.6 1191.54 183.147 1190.97 181.731L1191.83 181.385C1192.41 182.833 1192.91 184.319 1193.32 185.8ZM1189.05 177.592C1188.35 176.27 1187.57 174.947 1186.73 173.664L1187.5 173.155C1188.36 174.464 1189.16 175.811 1189.87 177.159L1189.05 177.592ZM1184.04 169.963C1183.12 168.794 1182.11 167.628 1181.06 166.496L1181.74 165.866C1182.81 167.016 1183.83 168.201 1184.77 169.388L1184.04 169.963ZM1177.82 163.259C1176.73 162.245 1175.57 161.23 1174.36 160.243L1174.95 159.529C1176.17 160.529 1177.35 161.556 1178.45 162.583L1177.82 163.259ZM1170.73 157.437C1169.53 156.56 1168.26 155.681 1166.95 154.823L1167.47 154.051C1168.79 154.918 1170.07 155.806 1171.28 156.691L1170.73 157.437ZM1163.05 152.39C1161.77 151.629 1160.42 150.866 1159.05 150.124L1159.49 149.312C1160.88 150.06 1162.24 150.829 1163.53 151.596L1163.05 152.39ZM1154.96 148.011L1154.67 147.868C1153.38 147.236 1152.08 146.649 1150.78 146.124L1151.13 145.269C1152.45 145.803 1153.77 146.398 1155.08 147.04L1155.38 147.186L1154.96 148.011ZM1099.5 172.482C1099.34 172.552 1099.18 172.61 1099.01 172.656L1098.77 171.763C1100.14 171.401 1100.78 169.795 1101.03 168.582L1101.94 168.768C1101.54 170.657 1100.7 171.941 1099.5 172.482ZM1094.3 171.323C1093.69 170.834 1093.22 170.228 1092.9 169.524C1092.55 168.748 1092.39 167.852 1092.41 166.862L1093.33 166.88C1093.32 167.731 1093.45 168.492 1093.75 169.142C1094.01 169.715 1094.39 170.207 1094.88 170.605L1094.3 171.323ZM1146.47 144.572C1145 144.111 1143.51 143.715 1142.04 143.392L1142.24 142.491C1143.74 142.819 1145.26 143.223 1146.75 143.692L1146.47 144.572ZM1102.12 164.037L1101.2 164.118C1101.08 162.723 1100.83 161.216 1100.45 159.638L1101.36 159.421C1101.74 161.043 1102 162.596 1102.12 164.037ZM1094.44 162.618L1093.6 162.239C1094.2 160.919 1095.01 159.557 1096.02 158.191L1096.76 158.733C1095.8 160.049 1095.02 161.356 1094.44 162.618ZM1137.53 142.616C1136.01 142.426 1134.47 142.31 1132.96 142.269L1132.99 141.346C1134.53 141.388 1136.1 141.507 1137.65 141.7L1137.53 142.616ZM1128.38 142.368C1126.86 142.477 1125.33 142.663 1123.83 142.921L1123.67 142.012C1125.2 141.748 1126.76 141.558 1128.32 141.447L1128.38 142.368ZM1099.73 155.266L1099.57 155.116L1099.14 155.272C1098.74 154.159 1098.28 153.029 1097.78 151.913C1097.65 151.628 1097.52 151.342 1097.38 151.056L1098.22 150.659C1098.36 150.95 1098.49 151.241 1098.62 151.533C1098.99 152.36 1099.34 153.196 1099.66 154.027C1100.56 153.149 1101.53 152.294 1102.54 151.481L1103.12 152.199C1101.91 153.173 1100.77 154.205 1099.73 155.266ZM1119.36 143.926C1117.89 144.334 1116.42 144.82 1115 145.371L1114.67 144.511C1116.12 143.949 1117.61 143.453 1119.11 143.037L1119.36 143.926ZM1106.84 149.522L1106.34 148.746C1107.64 147.909 1109.01 147.126 1110.4 146.419L1110.82 147.241C1109.45 147.934 1108.12 148.701 1106.84 149.522ZM1095.23 147.023C1094.45 145.711 1093.61 144.427 1092.72 143.208L1093.47 142.664C1094.37 143.906 1095.24 145.214 1096.03 146.551L1095.23 147.023ZM1089.85 139.654C1088.83 138.51 1087.75 137.42 1086.64 136.413L1087.26 135.728C1088.4 136.757 1089.5 137.871 1090.55 139.039L1089.85 139.654ZM1083.09 133.547L1082.8 133.341C1081.61 132.508 1080.42 131.725 1079.27 131.014L1079.76 130.228C1080.93 130.949 1082.13 131.742 1083.34 132.587L1083.63 132.797L1083.09 133.547ZM1075.28 128.771C1073.87 128.053 1072.46 127.425 1071.11 126.904L1071.44 126.042C1072.83 126.574 1074.26 127.215 1075.7 127.947L1075.28 128.771ZM1066.76 125.546C1065.22 125.181 1063.71 124.958 1062.27 124.883L1062.32 123.961C1063.81 124.039 1065.38 124.27 1066.98 124.648L1066.76 125.546ZM1057.78 125.171C1056.73 125.374 1055.76 125.674 1054.91 126.06C1054.1 126.426 1053.68 126.739 1053.68 126.742L1053.11 126.013C1053.13 125.998 1053.6 125.636 1054.53 125.219C1055.45 124.803 1056.49 124.482 1057.6 124.263L1057.78 125.171Z" fill="#3D4C65"/>
<path d="M222.402 233.113L254.585 220.473C255.603 220.073 256.104 218.924 255.704 217.906L240.133 178.261C239.733 177.243 238.583 176.742 237.565 177.142L205.383 189.781C204.365 190.181 203.863 191.331 204.263 192.349L219.835 231.994C220.235 233.012 221.384 233.513 222.402 233.113Z" fill="#30BFAE"/>
<path d="M232.41 200.98C231.271 201.433 230.328 202.189 229.647 203.095L227.938 198.799L225.155 199.906L228.861 209.221C230.16 212.486 233.858 214.061 237.102 212.771C240.345 211.48 241.942 207.773 240.651 204.53C239.374 201.256 235.676 199.681 232.41 200.98ZM235.994 209.987C234.285 210.667 232.333 209.845 231.644 208.113C230.964 206.404 231.787 204.452 233.518 203.763C235.249 203.074 237.179 203.906 237.868 205.637C238.548 207.347 237.725 209.298 235.994 209.987Z" fill="white"/>
<path d="M245.333 207.55C245.702 208.478 245.249 209.529 244.321 209.898C243.393 210.268 242.342 209.815 241.973 208.887C241.604 207.959 242.057 206.908 242.984 206.539C243.912 206.169 244.963 206.622 245.333 207.55Z" fill="white"/>
<path d="M222.402 233.113L228.916 230.555L211.897 187.223L205.383 189.781C204.365 190.181 203.863 191.331 204.263 192.349L219.835 231.994C220.235 233.012 221.384 233.513 222.402 233.113Z" fill="#238C80"/>
<path d="M218.732 228.534L219.578 225.703C219.405 225.652 202.629 220.561 198.736 212.1C196.987 208.289 196.722 204.912 197.973 202.335C198.858 200.517 200.514 199.173 202.399 198.705C205.441 197.977 209.854 199.643 209.897 199.659L210.955 196.906C210.74 196.821 205.651 194.893 201.71 195.837C198.966 196.494 196.581 198.443 195.319 201.044C194.164 203.414 193.359 207.472 196.057 213.334C200.506 223.009 217.991 228.309 218.732 228.534Z" fill="#238C80"/>
<path d="M859.468 205.024V198.446H856.713C856.264 196.114 855.355 193.946 854.071 192.049L856.013 190.106L851.362 185.454L849.421 187.396C847.524 186.111 845.356 185.201 843.023 184.751V182H836.445V184.751C834.112 185.2 831.943 186.11 830.046 187.395L828.106 185.454L823.454 190.106L825.396 192.048C824.112 193.945 823.202 196.114 822.753 198.446H820V205.024H822.754C823.203 207.357 824.113 209.525 825.397 211.421L823.454 213.364L828.106 218.016L830.049 216.072C831.945 217.355 834.113 218.264 836.445 218.713V221.47H843.023V218.712C845.355 218.264 847.522 217.355 849.418 216.072L851.362 218.016L856.013 213.364L854.07 211.421C855.354 209.524 856.263 207.357 856.712 205.024H859.468ZM839.733 212.726C833.663 212.726 828.75 207.802 828.75 201.732C828.75 195.671 833.663 190.748 839.733 190.748C845.803 190.748 850.717 195.671 850.717 201.732C850.717 207.802 845.803 212.726 839.733 212.726Z" fill="#3D4C65"/>
<path d="M1237.25 298.187L1218.58 267.521C1218.37 267.183 1218 266.986 1217.6 267.007L1197.03 268.103C1196.44 268.121 1195.98 268.611 1196 269.197C1196 269.21 1196 269.223 1196 269.237L1197.6 303.933C1197.62 304.527 1198.12 304.99 1198.72 304.966C1198.73 304.965 1198.74 304.965 1198.74 304.964L1236.62 302.82L1236.74 302.799C1237.29 302.707 1237.68 302.21 1237.64 301.654L1237.41 298.663C1237.4 298.494 1237.34 298.331 1237.25 298.187Z" fill="#FFC40C"/>
<path d="M1238.46 261.933C1238.29 261.363 1237.69 261.037 1237.12 261.205C1237.12 261.206 1237.11 261.207 1237.11 261.208L1228.17 263.852L1201.75 271.661C1201.19 271.826 1200.86 272.415 1201.02 272.983L1210.04 306.402C1210.19 306.94 1210.72 307.278 1211.27 307.181L1211.39 307.16L1247.81 296.524C1248.38 296.357 1248.71 295.758 1248.54 295.188C1248.54 295.183 1248.54 295.179 1248.54 295.174L1238.46 261.933Z" fill="#FFE082"/>
<path d="M1223.84 272.234C1223.25 272.336 1222.69 271.943 1222.59 271.357C1222.54 271.075 1222.61 270.784 1222.77 270.55L1227.17 264.33C1227.5 263.838 1228.17 263.711 1228.66 264.046C1229.16 264.38 1229.28 265.05 1228.95 265.542C1228.94 265.552 1228.93 265.563 1228.93 265.573L1224.53 271.793C1224.37 272.026 1224.12 272.185 1223.84 272.234Z" fill="#455A64"/>
<path d="M1231.6 266.527C1234.53 266.023 1236.5 263.238 1235.99 260.307C1235.49 257.376 1232.7 255.409 1229.77 255.913C1226.84 256.417 1224.87 259.202 1225.38 262.133C1225.88 265.064 1228.67 267.032 1231.6 266.527Z" fill="#D53D3D"/>
<path d="M1236.33 273.519L1209.58 281.547C1209.15 281.677 1208.7 281.433 1208.57 281.002C1208.44 280.571 1208.68 280.117 1209.11 279.988L1235.86 271.96C1236.3 271.83 1236.75 272.074 1236.88 272.505C1237.01 272.936 1236.76 273.39 1236.33 273.519Z" fill="#3D4C65"/>
<path d="M1237.68 278.02L1231.77 279.795C1231.34 279.924 1230.89 279.68 1230.76 279.249C1230.63 278.818 1230.87 278.364 1231.3 278.235L1237.22 276.461C1237.65 276.331 1238.1 276.575 1238.23 277.006C1238.36 277.437 1238.11 277.891 1237.68 278.02Z" fill="#3D4C65"/>
<path d="M1227.01 281.223L1210.93 286.048C1210.5 286.177 1210.05 285.933 1209.92 285.502C1209.79 285.072 1210.03 284.618 1210.47 284.489L1226.54 279.664C1226.97 279.535 1227.43 279.779 1227.55 280.21C1227.68 280.641 1227.44 281.094 1227.01 281.223Z" fill="#3D4C65"/>
<path d="M1235.18 283.68L1212.28 290.55C1211.85 290.679 1211.4 290.435 1211.27 290.004C1211.14 289.573 1211.39 289.12 1211.82 288.991L1234.71 282.12C1235.14 281.991 1235.59 282.235 1235.72 282.666C1235.85 283.097 1235.61 283.55 1235.18 283.68Z" fill="#3D4C65"/>
<path d="M1223.34 292.138L1213.63 295.052C1213.2 295.181 1212.75 294.937 1212.62 294.506C1212.49 294.075 1212.74 293.622 1213.17 293.492L1222.88 290.578C1223.31 290.449 1223.76 290.693 1223.89 291.124C1224.02 291.555 1223.78 292.009 1223.34 292.138Z" fill="#3D4C65"/>
<path d="M1240.39 287.024L1227.33 290.941C1226.9 291.07 1226.45 290.826 1226.32 290.395C1226.19 289.964 1226.43 289.511 1226.86 289.382L1239.92 285.464C1240.35 285.335 1240.8 285.579 1240.93 286.01C1241.06 286.441 1240.82 286.894 1240.39 287.024Z" fill="#3D4C65"/>
<path d="M1225.4 296.427L1214.99 299.554C1214.56 299.683 1214.1 299.439 1213.97 299.008C1213.84 298.577 1214.09 298.123 1214.52 297.994L1224.93 294.868C1225.37 294.739 1225.82 294.983 1225.95 295.414C1226.08 295.845 1225.83 296.298 1225.4 296.427Z" fill="#3D4C65"/>
<path d="M1035.51 216.362C1044.44 216.362 1051.69 209.118 1051.69 200.181C1051.69 191.245 1044.44 184 1035.51 184C1026.57 184 1019.33 191.245 1019.33 200.181C1019.33 209.118 1026.57 216.362 1035.51 216.362Z" fill="#434784"/>
<path d="M1039.08 203.092H1032.36L1030.84 207.274H1028.18L1034.2 191.323H1037.29L1043.31 207.274H1040.58L1039.08 203.092ZM1038.31 200.99L1036.47 195.867L1035.75 193.57H1035.67L1035 195.817L1033.11 200.99H1038.31Z" fill="white"/>
<path d="M1069.98 234.705C1073.11 226.334 1068.86 217.012 1060.49 213.882C1052.12 210.752 1042.8 215.001 1039.67 223.371C1036.54 231.742 1040.79 241.065 1049.16 244.194C1057.53 247.324 1066.85 243.076 1069.98 234.705Z" fill="#9EDB6E"/>
<path d="M1052.92 219.694L1058.81 221.894C1060.56 222.549 1061.73 223.391 1062.31 224.418C1062.9 225.446 1062.95 226.617 1062.46 227.93C1062.15 228.745 1061.66 229.366 1060.96 229.796C1060.27 230.224 1059.47 230.357 1058.57 230.191L1058.56 230.214C1059.44 230.715 1060.04 231.385 1060.35 232.224C1060.66 233.064 1060.66 233.915 1060.34 234.775C1059.85 236.072 1059 236.91 1057.77 237.286C1056.55 237.662 1055.06 237.523 1053.31 236.869L1047.34 234.634L1052.92 219.694ZM1056.22 228.255C1058.12 228.966 1059.35 228.59 1059.9 227.126C1060.44 225.663 1059.77 224.575 1057.86 223.864L1054.54 222.62L1052.9 227.011L1056.22 228.255ZM1054.18 234.897C1055.11 235.246 1055.9 235.319 1056.52 235.114C1057.15 234.91 1057.6 234.446 1057.87 233.721C1058.14 232.997 1058.11 232.352 1057.77 231.787C1057.43 231.221 1056.79 230.764 1055.85 230.414L1052.14 229.026L1050.47 233.508L1054.18 234.897Z" fill="white"/>
<path d="M1023.91 248.874C1032.35 245.941 1036.81 236.72 1033.88 228.278C1030.94 219.837 1021.72 215.372 1013.28 218.305C1004.84 221.238 1000.38 230.459 1003.31 238.901C1006.24 247.342 1015.46 251.807 1023.91 248.874Z" fill="#FFAA02"/>
<path d="M1025.51 238.742C1024.66 239.856 1023.49 240.672 1022 241.19C1020.56 241.693 1019.19 241.818 1017.91 241.564C1016.63 241.309 1015.5 240.697 1014.51 239.726C1013.52 238.755 1012.76 237.479 1012.21 235.896C1011.66 234.313 1011.47 232.835 1011.64 231.462C1011.81 230.089 1012.32 228.906 1013.17 227.911C1014.02 226.917 1015.16 226.171 1016.59 225.674C1018.09 225.15 1019.47 225.022 1020.71 225.289C1021.96 225.557 1023.02 226.22 1023.9 227.278L1021.95 229.107C1021.33 228.315 1020.66 227.81 1019.94 227.592C1019.22 227.375 1018.39 227.428 1017.46 227.75C1016.05 228.242 1015.09 229.133 1014.59 230.424C1014.09 231.714 1014.15 233.241 1014.76 235.007C1015.38 236.787 1016.27 238.033 1017.42 238.741C1018.57 239.451 1019.86 239.557 1021.29 239.059C1022.26 238.721 1023 238.193 1023.49 237.476C1023.98 236.759 1024.21 235.879 1024.17 234.834L1026.77 234.801C1026.78 236.315 1026.36 237.628 1025.51 238.742Z" fill="white"/>
<path d="M946.201 151.061L908.356 155.973C904.381 156.489 901.542 160.158 902.061 164.108L904.613 183.53C905.132 187.479 908.825 190.301 912.799 189.785L940.569 186.181L941.259 193L947.378 185.297L950.644 184.873C954.619 184.357 957.458 180.688 956.939 176.738L954.387 157.317C953.867 153.367 950.175 150.545 946.201 151.061ZM908.583 164.361C908.437 163.255 909.23 162.23 910.343 162.086L919.052 160.956C920.166 160.811 921.17 161.602 921.316 162.709C921.458 163.791 920.691 164.811 919.578 164.956L910.869 166.086C909.755 166.231 908.725 165.443 908.583 164.361ZM947.607 178.41L932.545 180.365C931.456 180.506 930.429 179.744 930.284 178.637C930.138 177.53 930.933 176.532 932.022 176.39L947.084 174.435C948.198 174.291 949.199 175.056 949.345 176.163C949.49 177.27 948.72 178.266 947.607 178.41ZM946.502 170.007L913.999 174.226C912.91 174.367 911.883 173.605 911.738 172.498C911.592 171.391 912.388 170.392 913.476 170.251L945.98 166.033C947.094 165.888 948.095 166.653 948.241 167.761C948.386 168.867 947.616 169.863 946.502 170.007ZM945.398 161.605L926.159 164.102C925.045 164.246 924.04 163.455 923.898 162.374C923.753 161.267 924.52 160.246 925.633 160.101L944.873 157.604C945.986 157.46 946.991 158.251 947.136 159.358C947.279 160.439 946.512 161.46 945.398 161.605Z" fill="#FFAA02"/>
<path d="M942.091 302.528C958.835 298.172 968.878 281.066 964.523 264.32C960.168 247.575 943.063 237.531 926.318 241.887C909.574 246.243 899.531 263.349 903.886 280.094C908.242 296.84 925.347 306.883 942.091 302.528Z" fill="#3D4C65"/>
<path d="M941.147 298.899C955.888 295.064 964.729 280.006 960.895 265.264C957.061 250.523 942.003 241.681 927.262 245.515C912.522 249.35 903.681 264.409 907.515 279.15C911.349 293.892 926.407 302.733 941.147 298.899Z" fill="white"/>
<path d="M934.516 273.404C933.855 273.576 933.18 273.179 933.008 272.518L928.596 255.557C928.424 254.896 928.821 254.221 929.482 254.049C930.143 253.877 930.818 254.274 930.99 254.935L935.401 271.895C935.573 272.556 935.177 273.232 934.516 273.404Z" fill="#3D4C65"/>
<path d="M945.216 263.332C945.645 263.864 945.561 264.643 945.029 265.071L934.98 273.17C934.449 273.598 933.67 273.515 933.241 272.983C932.813 272.451 932.897 271.672 933.428 271.244L943.477 263.145C944.009 262.717 944.788 262.801 945.216 263.332Z" fill="#3D4C65"/>
<path d="M928.649 250.846C928.318 250.932 927.981 250.734 927.895 250.403L927.092 247.317C927.006 246.986 927.204 246.649 927.535 246.563C927.865 246.477 928.203 246.675 928.289 247.006L929.091 250.092C929.177 250.422 928.979 250.76 928.649 250.846Z" fill="#3D4C65"/>
<path d="M945.848 253.239C945.695 253.279 945.527 253.26 945.38 253.174C945.085 253.001 944.986 252.622 945.16 252.328L946.773 249.578C946.947 249.283 947.325 249.184 947.62 249.357C947.914 249.53 948.013 249.909 947.84 250.203L946.226 252.953C946.139 253.101 946.001 253.199 945.848 253.239Z" fill="#3D4C65"/>
<path d="M959.404 266.291L956.318 267.093C955.987 267.18 955.65 266.981 955.565 266.651C955.479 266.32 955.676 265.983 956.007 265.897L959.093 265.094C959.424 265.008 959.76 265.206 959.846 265.537C959.932 265.867 959.735 266.205 959.404 266.291Z" fill="#3D4C65"/>
<path d="M956.676 285.909C956.523 285.949 956.354 285.93 956.206 285.844L953.457 284.229C953.163 284.056 953.064 283.677 953.237 283.383C953.41 283.088 953.789 282.989 954.083 283.163L956.833 284.777C957.127 284.95 957.226 285.329 957.053 285.623C956.967 285.771 956.828 285.869 956.676 285.909Z" fill="#3D4C65"/>
<path d="M940.874 297.851C940.544 297.937 940.206 297.739 940.12 297.409L939.317 294.322C939.231 293.992 939.43 293.654 939.76 293.568C940.091 293.482 940.428 293.68 940.514 294.011L941.317 297.097C941.403 297.428 941.205 297.765 940.874 297.851Z" fill="#3D4C65"/>
<path d="M921.258 295.122C921.105 295.162 920.936 295.143 920.789 295.057C920.495 294.884 920.396 294.505 920.569 294.211L922.184 291.461C922.356 291.166 922.736 291.067 923.03 291.24C923.325 291.413 923.423 291.792 923.25 292.086L921.635 294.837C921.549 294.984 921.411 295.082 921.258 295.122Z" fill="#3D4C65"/>
<path d="M912.402 278.517L909.316 279.32C908.986 279.406 908.648 279.208 908.562 278.877C908.476 278.547 908.674 278.209 909.005 278.123L912.091 277.32C912.422 277.234 912.759 277.433 912.845 277.763C912.931 278.094 912.733 278.431 912.402 278.517Z" fill="#3D4C65"/>
<path d="M914.796 261.317C914.642 261.357 914.474 261.338 914.327 261.251L911.577 259.637C911.282 259.464 911.184 259.085 911.357 258.791C911.529 258.496 911.909 258.397 912.203 258.571L914.953 260.185C915.247 260.358 915.346 260.737 915.173 261.031C915.087 261.179 914.949 261.277 914.796 261.317Z" fill="#3D4C65"/>
<path d="M165.723 255.015C165.807 254.426 165.399 253.88 164.81 253.796C164.807 253.795 164.804 253.795 164.801 253.794L155.569 252.472L128.304 248.566C127.721 248.48 127.177 248.879 127.084 249.461L121.015 285.075C120.923 285.625 121.266 286.154 121.805 286.295L121.924 286.326L159.462 291.831C160.05 291.917 160.597 291.509 160.683 290.921C160.684 290.916 160.684 290.912 160.685 290.907L165.723 255.015Z" fill="#FFAA02"/>
<path d="M159.164 263.521L131.502 259.674C131.057 259.612 130.746 259.201 130.808 258.756C130.87 258.31 131.281 257.999 131.726 258.061L159.389 261.909C159.834 261.971 160.145 262.381 160.083 262.827C160.021 263.273 159.61 263.583 159.164 263.521Z" fill="#3D4C65"/>
<path d="M158.517 268.176L152.403 267.325C151.958 267.263 151.647 266.853 151.709 266.407C151.771 265.961 152.182 265.651 152.627 265.713L158.741 266.563C159.187 266.625 159.498 267.036 159.436 267.482C159.374 267.927 158.963 268.238 158.517 268.176Z" fill="#3D4C65"/>
<path d="M147.479 266.641L130.854 264.329C130.409 264.267 130.098 263.856 130.16 263.41C130.222 262.964 130.633 262.654 131.079 262.716L147.703 265.028C148.149 265.09 148.459 265.501 148.397 265.946C148.335 266.392 147.924 266.703 147.479 266.641Z" fill="#3D4C65"/>
<path d="M153.88 272.276L130.207 268.984C129.762 268.922 129.451 268.511 129.513 268.065C129.575 267.62 129.986 267.309 130.432 267.371L154.105 270.664C154.55 270.726 154.861 271.136 154.799 271.582C154.737 272.028 154.326 272.338 153.88 272.276Z" fill="#3D4C65"/>
<path d="M139.601 275.036L129.56 273.639C129.115 273.577 128.804 273.166 128.866 272.721C128.928 272.275 129.339 271.964 129.784 272.026L139.825 273.423C140.27 273.485 140.581 273.896 140.519 274.341C140.457 274.787 140.046 275.098 139.601 275.036Z" fill="#3D4C65"/>
<path d="M157.222 277.486L143.724 275.609C143.278 275.547 142.967 275.136 143.029 274.691C143.091 274.245 143.502 273.934 143.948 273.996L157.447 275.874C157.892 275.936 158.203 276.347 158.141 276.792C158.079 277.238 157.668 277.548 157.222 277.486Z" fill="#3D4C65"/>
<path d="M139.685 279.793L128.912 278.294C128.467 278.232 128.156 277.822 128.218 277.376C128.28 276.93 128.691 276.62 129.137 276.682L139.909 278.18C140.355 278.242 140.665 278.653 140.603 279.098C140.541 279.544 140.13 279.855 139.685 279.793Z" fill="#3D4C65"/>
<path d="M162.193 261.582C166.025 262.365 169.762 259.908 170.542 256.093C171.321 252.28 168.846 248.553 165.015 247.77C161.183 246.987 157.445 249.444 156.665 253.258C155.886 257.073 158.361 260.799 162.193 261.582Z" fill="white"/>
<path d="M162.981 258.472L159.237 253.082L161.15 251.767L163.387 254.986L172.293 247L173.852 248.723L162.981 258.472Z" fill="#9EDB6E"/>
<path d="M330.002 294.913L288.467 279.23C287.415 278.833 286.884 277.658 287.281 276.606L311.341 212.882C311.738 211.83 312.913 211.299 313.965 211.697L355.5 227.38C356.552 227.777 357.082 228.952 356.685 230.004L332.626 293.728C332.228 294.78 331.054 295.311 330.002 294.913Z" fill="#B7EFF9"/>
<path d="M332.336 280.492L296.247 266.865C295.397 266.544 294.969 265.595 295.289 264.746L313.384 216.822C313.704 215.972 314.653 215.543 315.503 215.864L351.592 229.491C352.442 229.812 352.87 230.761 352.55 231.61L334.455 279.534C334.135 280.384 333.186 280.812 332.336 280.492Z" fill="#3D4C65"/>
<path d="M309.815 283.676C311.851 284.837 314.435 284.134 315.589 282.105C316.741 280.078 316.026 277.492 313.991 276.331C311.955 275.17 309.37 275.873 308.218 277.9C307.065 279.929 307.78 282.514 309.815 283.676Z" fill="#798B97"/>
<path d="M313.62 224.314L332.143 231.308C333.438 231.797 334.885 231.143 335.374 229.848L335.374 229.848C335.863 228.553 335.209 227.106 333.914 226.617L317.734 220.508C316.44 220.019 314.995 220.672 314.506 221.966L313.62 224.314Z" fill="#9EDB6E"/>
<path d="M311.038 231.153L324.244 236.139C325.54 236.628 326.986 235.975 327.475 234.68L327.475 234.68C327.964 233.384 327.311 231.938 326.015 231.449L315.152 227.347C313.858 226.859 312.413 227.512 311.925 228.805L311.038 231.153Z" fill="#9EDB6E"/>
<path d="M306.492 243.195L321.718 248.944C323.013 249.433 324.46 248.779 324.949 247.484L324.949 247.484C325.438 246.189 324.784 244.742 323.489 244.253L310.606 239.389C309.312 238.9 307.867 239.553 307.378 240.847L306.492 243.195Z" fill="#9EDB6E"/>
<path d="M303.91 250.034L312.756 253.374C314.05 253.863 315.495 253.21 315.983 251.916L315.985 251.911C316.474 250.617 315.821 249.172 314.527 248.684L308.024 246.228C306.73 245.739 305.285 246.392 304.796 247.686L303.91 250.034Z" fill="#9EDB6E"/>
<path d="M342.689 248.648L329.483 243.662C328.188 243.173 327.535 241.726 328.024 240.431L328.024 240.431C328.513 239.136 329.959 238.482 331.254 238.971L342.115 243.072C343.41 243.561 344.064 245.008 343.575 246.303L342.689 248.648Z" fill="#FFAA02"/>
<path d="M334.598 270.076L319.372 264.327C318.077 263.838 317.423 262.392 317.912 261.096C318.401 259.801 319.848 259.148 321.143 259.637L334.024 264.5C335.319 264.989 335.973 266.436 335.484 267.731L334.598 270.076Z" fill="#FFAA02"/>
<path d="M332.016 276.916L323.17 273.576C321.876 273.087 321.224 271.642 321.712 270.348L321.714 270.343C322.202 269.049 323.647 268.397 324.941 268.885L331.445 271.341C332.738 271.829 333.391 273.274 332.903 274.568L332.016 276.916Z" fill="#FFAA02"/>
<path d="M364.563 221.373C364.563 221.373 356.441 207.656 343.413 214.069C332.953 219.219 332.962 230.584 339.381 239.562C337.419 239.986 334.882 240.581 334.506 240.903C333.88 241.438 345.567 249.526 352.715 247.828C352.715 247.828 352.717 247.827 352.718 247.827C362.506 247.155 372.808 235.042 364.563 221.373Z" fill="white"/>
<path d="M344.194 235.072C344.194 235.072 348.353 218.14 353.497 219.771C358.64 221.403 352.828 229.617 352.828 229.617C352.828 229.617 359.895 226.389 361.588 228.651C365.268 233.569 351.727 236.821 344.194 235.072Z" fill="#D53D3D"/>
<path d="M73.5521 287.386L28.4406 306.837C27.4233 307.276 26.2431 306.807 25.8046 305.789L0.567732 247.252C0.129151 246.234 0.598249 245.054 1.61549 244.615L46.727 225.164C47.7442 224.726 48.9244 225.195 49.363 226.212L74.5998 284.75C75.0384 285.767 74.5693 286.948 73.5521 287.386Z" fill="#9EDB6E"/>
<path d="M32.0506 305.278L27.2422 307.351C26.8924 307.502 26.4866 307.34 26.3358 306.991L0.0565347 246.035C-0.0942746 245.685 0.0670248 245.28 0.416807 245.129L5.22522 243.055L32.0506 305.278Z" fill="#3D4C65"/>
<path d="M52.7981 263.674L30.3511 273.353C29.9475 273.527 29.4791 273.341 29.3051 272.937L21.8035 255.538C21.6295 255.134 21.8156 254.666 22.2193 254.492L44.6662 244.813C45.0699 244.639 45.5382 244.825 45.7123 245.229L53.2138 262.628C53.3879 263.032 53.2017 263.5 52.7981 263.674Z" fill="white"/>
<path d="M43.8293 252.038L28.0473 258.843C27.5634 259.051 27.002 258.828 26.7931 258.344C26.5843 257.86 26.8077 257.298 27.2916 257.09L43.0736 250.285C43.558 250.076 44.119 250.299 44.3278 250.783C44.5367 251.268 44.3137 251.829 43.8293 252.038Z" fill="#3D4C65"/>
<path d="M44.8207 257.61L39.8159 259.768C39.3315 259.977 38.7706 259.754 38.5618 259.269C38.3529 258.785 38.5759 258.224 39.0603 258.015L44.065 255.857C44.5494 255.648 45.1104 255.871 45.3192 256.355C45.528 256.84 45.3051 257.401 44.8207 257.61Z" fill="#3D4C65"/>
<path d="M35.6535 261.562L30.2285 263.902C29.7445 264.11 29.1831 263.887 28.9743 263.403C28.7654 262.919 28.9888 262.357 29.4728 262.149L34.8978 259.81C35.3822 259.601 35.9432 259.824 36.152 260.308C36.3608 260.793 36.1379 261.354 35.6535 261.562Z" fill="#3D4C65"/>
<path d="M43.8552 264.026L32.4096 268.961C31.9257 269.17 31.3643 268.947 31.1554 268.463C30.9466 267.978 31.17 267.417 31.654 267.209L43.0996 262.273C43.5839 262.065 44.1449 262.288 44.3537 262.772C44.5626 263.256 44.3396 263.817 43.8552 264.026Z" fill="#3D4C65"/>
<path d="M199.74 210.212C198.547 210.986 197.298 211.739 196.03 212.453L195.613 211.708C196.866 211.005 198.098 210.259 199.276 209.496L199.74 210.212ZM203.299 207.739L202.788 207.054C203.925 206.209 205.049 205.311 206.129 204.388L206.684 205.035C205.589 205.971 204.45 206.881 203.299 207.739ZM192.193 214.462C190.914 215.084 189.587 215.685 188.249 216.248L187.919 215.46C189.243 214.903 190.556 214.309 191.821 213.694L192.193 214.462ZM209.88 202.109L209.281 201.5C210.291 200.51 211.283 199.468 212.23 198.406L212.869 198.971C211.909 200.049 210.903 201.104 209.88 202.109ZM184.206 217.81C182.78 218.3 181.376 218.706 180.031 219.018L179.842 218.185C181.158 217.881 182.533 217.482 183.93 217.002L184.206 217.81ZM215.644 195.646L214.969 195.122C215.825 194.028 216.676 192.867 217.5 191.673L218.204 192.154C217.372 193.364 216.509 194.538 215.644 195.646ZM175.733 219.719C174.237 219.857 172.769 219.869 171.369 219.757L171.441 218.905C172.792 219.014 174.211 219.001 175.658 218.868L175.733 219.719ZM220.557 188.522L219.827 188.08C220.543 186.907 221.266 185.658 221.971 184.372L222.722 184.78C222.009 186.079 221.281 187.338 220.557 188.522ZM224.73 180.956L223.966 180.573C224.63 179.252 225.255 177.962 225.851 176.715L226.623 177.079C226.025 178.333 225.398 179.628 224.73 180.956ZM167.069 218.983C165.682 218.585 164.319 218.036 163.016 217.352L163.417 216.596C164.669 217.253 165.978 217.779 167.309 218.162L167.069 218.983ZM228.472 173.193L227.7 172.829C228.483 171.194 229.077 170.001 229.626 168.96L230.382 169.355C229.839 170.385 229.25 171.57 228.472 173.193ZM232.545 165.693L231.838 165.213C232.815 163.793 233.776 162.717 234.78 161.926L235.309 162.596C234.374 163.333 233.469 164.346 232.545 165.693ZM159.361 214.982C158.278 214.137 157.194 213.157 156.14 212.068L156.757 211.473C157.782 212.533 158.837 213.486 159.89 214.307L159.361 214.982ZM153.3 208.8C152.575 207.881 151.829 206.868 151.084 205.791L150.757 205.314L151.465 204.831L151.788 205.302C152.525 206.366 153.259 207.365 153.973 208.269L153.3 208.8ZM149.155 201.244L148.425 201.694C147.752 200.6 147.032 199.39 146.227 197.998L146.968 197.567C147.771 198.955 148.486 200.157 149.155 201.244ZM144.847 193.846L144.101 194.268L143.701 193.56C143.133 192.554 142.563 191.544 141.989 190.537L142.732 190.111C143.307 191.12 143.879 192.131 144.447 193.138L144.847 193.846ZM140.572 186.398L139.837 186.839C139.04 185.503 138.306 184.314 137.591 183.203L138.312 182.739C139.031 183.857 139.771 185.055 140.572 186.398ZM135.199 179.673C134.332 178.467 133.458 177.332 132.602 176.302L133.261 175.754C134.13 176.799 135.017 177.95 135.895 179.173L135.199 179.673ZM129.745 173.161C128.71 172.131 127.646 171.184 126.58 170.347L127.111 169.675C128.203 170.533 129.293 171.502 130.35 172.555L129.745 173.161ZM72.8845 211.441L72.0304 211.385C72.1312 209.965 72.2649 208.517 72.4295 207.085L73.279 207.177C73.1171 208.599 72.9842 210.034 72.8845 211.441ZM73.8634 202.937L73.018 202.805C73.2496 201.364 73.5154 199.936 73.8068 198.557L74.6437 198.729C74.3561 200.095 74.0923 201.51 73.8634 202.937ZM123.087 167.972C121.858 167.26 120.578 166.644 119.283 166.142L119.597 165.346C120.932 165.863 122.252 166.498 123.518 167.231L123.087 167.972ZM75.6372 194.569L74.8103 194.351C75.1918 192.928 75.6116 191.535 76.0569 190.207L76.8682 190.475C76.4289 191.786 76.0147 193.164 75.6372 194.569ZM115.241 164.932C113.894 164.641 112.485 164.443 111.052 164.345L111.115 163.493C112.588 163.594 114.038 163.797 115.426 164.098L115.241 164.932ZM78.363 186.476L77.5721 186.151C78.139 184.786 78.7517 183.462 79.3945 182.215L80.1549 182.602C79.5245 183.83 78.9206 185.132 78.363 186.476ZM106.81 164.329C106.227 164.362 105.636 164.411 105.033 164.473C104.205 164.559 103.383 164.675 102.591 164.817L102.442 163.975C103.256 163.83 104.099 163.711 104.948 163.623C105.563 163.558 106.17 163.509 106.766 163.476L106.81 164.329ZM82.2809 178.909L81.5617 178.45C82.3627 177.204 83.2198 176.018 84.111 174.925L84.775 175.462C83.9042 176.531 83.065 177.691 82.2809 178.909ZM98.4773 165.851C97.128 166.293 95.8106 166.838 94.559 167.466L94.177 166.704C95.4656 166.055 96.8235 165.494 98.2129 165.039L98.4773 165.851ZM87.6552 172.345L87.0676 171.728C88.1321 170.715 89.266 169.784 90.4348 168.955L90.9285 169.651C89.7923 170.455 88.6915 171.362 87.6552 172.345Z" fill="#3D4C65"/>
<path d="M241.144 161.164C240.435 161.045 239.753 161.009 239.117 161.057L239.055 160.206C239.76 160.152 240.512 160.191 241.289 160.321L241.144 161.164Z" fill="#3D4C65"/>
<path d="M247.438 138.641L254.877 147.964L246.876 161.2L255.83 159.899L255.173 169.216L291.278 149.151L247.438 138.641Z" fill="#FFAA02"/>
<path d="M254.893 147.54L254.856 148.392L290.269 149.763L290.307 148.908L254.893 147.54Z" fill="#3D4C65"/>
<path d="M246.64 160.845L247.103 161.561L257.411 154.919L256.949 154.2L246.64 160.845Z" fill="#3D4C65"/>
<path d="M257.114 154.138L257.246 154.982L290.354 149.758L290.223 148.915L257.114 154.138Z" fill="#3D4C65"/>
<path d="M256.765 154.456L255.41 159.798L256.24 160.004L257.594 154.663L256.765 154.456Z" fill="#3D4C65"/>
</g>
<defs>
<clipPath id="clip0">
<rect width="1249" height="354" fill="white"/>
</clipPath>
</defs>
</svg>
