<svg width="30" height="28" viewBox="0 0 30 28" fill="none" xmlns="http://www.w3.org/2000/svg">
<path d="M15.0316 26.3226C14.7072 26.3226 14.4442 26.5861 14.4442 26.9113C14.4442 27.2365 14.7072 27.5 15.0316 27.5H15.0394C15.3639 27.5 15.623 27.2365 15.623 26.9113C15.623 26.5861 15.3561 26.3226 15.0316 26.3226Z" fill="#989898"/>
<path d="M29.4125 4.02355H20.9138V2.81561C20.9138 1.5388 19.8644 0.5 18.5746 0.5H11.4254C10.1356 0.5 9.08616 1.5388 9.08616 2.81561V4.02355H0.587467C0.262983 4.02355 0 4.28713 0 4.61226V26.9113C0 27.2365 0.262983 27.5 0.587467 27.5H12.3492C12.6737 27.5 12.9367 27.2365 12.9367 26.9113C12.9367 26.5861 12.6737 26.3226 12.3492 26.3226H9.93776V19.3516H11.1303C11.4548 19.3516 11.7178 19.0881 11.7178 18.7629V17.5636H18.2822V18.7629C18.2822 19.0881 18.5452 19.3516 18.8697 19.3516H20.0622V26.3226H17.6698C17.3454 26.3226 17.0824 26.5861 17.0824 26.9113C17.0824 27.2365 17.3454 27.5 17.6698 27.5H29.4125C29.737 27.5 30 27.2365 30 26.9113V4.61226C30 4.28713 29.737 4.02355 29.4125 4.02355ZM10.2611 2.81561C10.2611 2.18803 10.7834 1.67743 11.4254 1.67743H18.5746C19.2166 1.67743 19.7389 2.18803 19.7389 2.81561V4.02355H10.2611V2.81561ZM1.17493 16.37C1.77941 16.9792 2.57591 17.3962 3.4646 17.5226V18.7629C3.4646 19.0881 3.72759 19.3516 4.05207 19.3516H5.24452V26.3226H1.17493V16.37ZM8.76283 26.3226H6.41946V19.3516H8.76283V26.3226ZM10.5428 18.1742H4.63954V14.0422H7.00371V15.2092C7.00371 15.5343 7.2667 15.7979 7.59118 15.7979C7.91566 15.7979 8.17865 15.5343 8.17865 15.2092V14.0422H10.5428V18.1742ZM11.7178 16.3862V13.4534C11.7178 13.1283 11.4548 12.8647 11.1303 12.8647H4.05207C3.72759 12.8647 3.4646 13.1283 3.4646 13.4534V16.329C2.16 16.0637 1.17493 14.9056 1.17493 13.5212V5.20098H28.8251V13.5212C28.8251 14.9056 27.84 16.0637 26.5354 16.329V13.4534C26.5354 13.1283 26.2724 12.8647 25.9479 12.8647H18.8697C18.5452 12.8647 18.2822 13.1283 18.2822 13.4534V16.3862H11.7178ZM19.4572 14.0422H21.8214V15.2092C21.8214 15.5343 22.0843 15.7979 22.4088 15.7979C22.7333 15.7979 22.9963 15.5343 22.9963 15.2092V14.0422H25.3605V18.1742H19.4572V14.0422ZM21.2372 26.3226V19.3516H23.5805V26.3226H21.2372ZM28.8251 26.3226H24.7555V19.3516H25.9479C26.2724 19.3516 26.5354 19.0881 26.5354 18.7629V17.5226C27.4241 17.3962 28.2206 16.9792 28.8251 16.37V26.3226Z" fill="#989898"/>
</svg>
