<svg width="30" height="30" viewBox="0 0 30 30" fill="none" xmlns="http://www.w3.org/2000/svg">
<path d="M25.817 0H23.1328C22.8089 0 22.5464 0.262856 22.5464 0.587098C22.5464 0.91134 22.8089 1.1742 23.1328 1.1742H25.817C27.4768 1.1742 28.8272 2.52617 28.8272 4.18797V14.4635H25.6784C25.3545 14.4635 25.092 14.7263 25.092 15.0506V17.0961L22.6062 14.6333C22.4964 14.5245 22.3482 14.4635 22.1938 14.4635H15.0416C13.3818 14.4635 12.0314 13.1115 12.0314 11.4498V1.1742H17.814C18.1379 1.1742 18.4004 0.91134 18.4004 0.587098C18.4004 0.262856 18.1379 0 17.814 0H11.445C11.1211 0 10.8586 0.262856 10.8586 0.587098V10.9099H4.18295C1.87647 10.9099 0 12.7886 0 15.0979V25.9606C0 26.2848 0.262504 26.5477 0.586395 26.5477H3.73522V29.4129C3.73522 29.6498 3.87739 29.8635 4.09576 29.9547C4.16875 29.9852 4.24541 30 4.32146 30C4.47302 30 4.62206 29.9411 4.73407 29.8302L8.04728 26.5477H14.9583C17.2648 26.5477 19.1413 24.6689 19.1413 22.3597V15.6377H21.9526L25.2659 18.9203C25.3779 19.0312 25.527 19.0901 25.6785 19.0901C25.7546 19.0901 25.8312 19.0752 25.9042 19.0448C26.1226 18.9535 26.2648 18.7399 26.2648 18.503V15.6377H29.4136C29.7375 15.6377 30 15.3749 30 15.0506V4.18797C30 1.87872 28.1235 0 25.817 0ZM17.9685 22.3597C17.9685 24.0215 16.6181 25.3735 14.9583 25.3735H7.80616C7.6517 25.3735 7.50349 25.4345 7.3937 25.5433L4.90801 28.0059V25.9606C4.90801 25.6363 4.6455 25.3735 4.32161 25.3735H1.17279V15.0979C1.17279 13.4361 2.52318 12.0841 4.18295 12.0841H10.9066C11.2128 14.0934 12.9504 15.6377 15.0416 15.6377H17.9685V22.3597Z" fill="#989898"/>
<path d="M20.4625 1.1742H20.4704C20.7943 1.1742 21.0568 0.91134 21.0568 0.587098C21.0568 0.262857 20.7943 0 20.4704 0H20.4625C20.1387 0 19.8762 0.262857 19.8762 0.587098C19.8762 0.91134 20.1387 1.1742 20.4625 1.1742Z" fill="#989898"/>
<path d="M24.5713 6.05434C24.5713 5.73009 24.3088 5.46724 23.9849 5.46724H21.0529V4.26697C21.0529 3.94273 20.7904 3.67988 20.4665 3.67988C20.1426 3.67988 19.8801 3.94273 19.8801 4.26697V5.46724H16.9482C16.6243 5.46724 16.3618 5.73009 16.3618 6.05434C16.3618 6.37858 16.6243 6.64143 16.9482 6.64143H18.0318C18.0253 6.74643 18.0211 6.85164 18.0211 6.95677C18.0211 8.3295 18.5718 9.57534 19.4627 10.4864C18.9763 10.7074 18.437 10.8316 17.869 10.8316C17.6208 10.8316 17.3725 10.808 17.1309 10.7613L17.0843 10.752C16.7667 10.6867 16.4568 10.8906 16.3913 11.2081C16.3257 11.5257 16.5297 11.8363 16.8468 11.9019C16.8675 11.9062 16.8883 11.9103 16.909 11.9143C17.2235 11.975 17.5465 12.0058 17.869 12.0058C18.8185 12.0058 19.7073 11.7414 20.4665 11.2827C21.2257 11.7414 22.1146 12.0058 23.0641 12.0058C23.3865 12.0058 23.7095 11.975 24.0243 11.9142C24.045 11.9103 24.0657 11.9062 24.0862 11.9019C24.4034 11.8363 24.6073 11.5257 24.5417 11.2081C24.4762 10.8906 24.1657 10.6866 23.8488 10.752L23.802 10.7614C23.5604 10.808 23.3122 10.8316 23.0641 10.8316C22.496 10.8316 21.9567 10.7074 21.4703 10.4864C22.3613 9.57534 22.912 8.3295 22.912 6.95677C22.912 6.85169 22.9077 6.74648 22.9012 6.64143H23.9849C24.3088 6.64143 24.5713 6.37858 24.5713 6.05434ZM21.7392 6.95677C21.7392 8.09342 21.2477 9.11725 20.4665 9.82669C19.6853 9.11725 19.1939 8.09342 19.1939 6.95677C19.1939 6.85153 19.1982 6.74618 19.2066 6.64143H21.7264C21.7348 6.74626 21.7392 6.85161 21.7392 6.95677Z" fill="#989898"/>
<path d="M10.096 14.9314C10.0939 14.9271 10.0913 14.9231 10.0891 14.9189C10.0838 14.9088 10.0783 14.8989 10.0724 14.8892C10.0681 14.8821 10.0637 14.8751 10.0592 14.8682C10.0532 14.8591 10.0469 14.8502 10.0404 14.8415C10.0352 14.8345 10.03 14.8277 10.0245 14.821C10.018 14.813 10.0112 14.8052 10.0042 14.7975C9.99813 14.7908 9.99192 14.7842 9.98554 14.7778C9.97858 14.7708 9.97141 14.764 9.96405 14.7574C9.95699 14.751 9.94982 14.7448 9.94248 14.7387C9.9352 14.7328 9.92776 14.727 9.92014 14.7213C9.91202 14.7153 9.90376 14.7095 9.89536 14.7039C9.88791 14.699 9.88035 14.6941 9.87261 14.6895C9.86346 14.684 9.85418 14.6789 9.84478 14.6739C9.84021 14.6715 9.83599 14.6686 9.83133 14.6663C9.8279 14.6646 9.82437 14.6634 9.82093 14.6618C9.81173 14.6575 9.80241 14.6535 9.79302 14.6497C9.78402 14.646 9.77505 14.6423 9.76597 14.6391C9.75777 14.6362 9.74947 14.6337 9.74116 14.6312C9.73079 14.628 9.72045 14.6248 9.71002 14.6223C9.7026 14.6205 9.69509 14.6191 9.68761 14.6175C9.6764 14.6152 9.66522 14.613 9.65398 14.6113C9.64641 14.6102 9.63879 14.6096 9.63118 14.6088C9.62013 14.6077 9.60911 14.6065 9.59807 14.606C9.58943 14.6056 9.58077 14.6057 9.5721 14.6057C9.56216 14.6057 9.55222 14.6055 9.54233 14.606C9.5325 14.6065 9.52268 14.6076 9.51285 14.6086C9.50402 14.6094 9.4952 14.6102 9.48644 14.6115C9.47626 14.613 9.46614 14.615 9.45599 14.6171C9.44745 14.6188 9.43889 14.6204 9.43044 14.6225C9.42092 14.6248 9.41149 14.6277 9.40203 14.6306C9.39278 14.6334 9.38356 14.6362 9.37446 14.6394C9.36624 14.6423 9.35811 14.6457 9.34996 14.649C9.33966 14.6532 9.32947 14.6575 9.31942 14.6623C9.31635 14.6638 9.31319 14.6648 9.31014 14.6663C9.30596 14.6684 9.30217 14.671 9.29807 14.6731C9.28782 14.6785 9.27773 14.6841 9.2678 14.6901C9.26077 14.6943 9.2539 14.6987 9.2471 14.7032C9.23805 14.7092 9.22918 14.7154 9.22044 14.722C9.21336 14.7272 9.20644 14.7326 9.19965 14.7382C9.19187 14.7445 9.18427 14.7511 9.17679 14.7579C9.1698 14.7643 9.16297 14.7707 9.15633 14.7774C9.14968 14.784 9.14323 14.7909 9.13687 14.7979C9.13009 14.8054 9.12352 14.813 9.11716 14.8208C9.11159 14.8276 9.10619 14.8346 9.1009 14.8417C9.09446 14.8503 9.0883 14.8591 9.08238 14.8681C9.0778 14.875 9.07333 14.8821 9.06902 14.8892C9.06317 14.899 9.05769 14.9088 9.05242 14.9189C9.05018 14.9231 9.04756 14.927 9.04542 14.9314L5.53026 22.0256C5.38633 22.316 5.50483 22.6683 5.79497 22.8124C5.87873 22.854 5.96761 22.8737 6.05511 22.8737C6.27089 22.8737 6.47849 22.754 6.58088 22.5474L7.30879 21.0783H11.8326L12.5605 22.5474C12.6629 22.754 12.8705 22.8737 13.0863 22.8737C13.1738 22.8737 13.2627 22.854 13.3464 22.8124C13.6366 22.6683 13.7551 22.316 13.6111 22.0256L10.096 14.9314ZM7.89061 19.9041L9.57073 16.5134L11.2508 19.9041H7.89061Z" fill="#989898"/>
</svg>
