<svg width="30" height="29" viewBox="0 0 30 29" fill="none" xmlns="http://www.w3.org/2000/svg">
<path d="M6.22952 17.793H4.12705C3.80448 17.793 3.54304 17.5316 3.54304 17.209C3.54304 16.8864 3.80448 16.625 4.12705 16.625H6.22952C6.55209 16.625 6.81353 16.8864 6.81353 17.209C6.81353 17.5316 6.55209 17.793 6.22952 17.793Z" fill="#989898"/>
<path d="M6.22952 21.294H4.12705C3.80448 21.294 3.54304 21.0326 3.54304 20.71C3.54304 20.3874 3.80448 20.126 4.12705 20.126H6.22952C6.55209 20.126 6.81353 20.3874 6.81353 20.71C6.81353 21.0326 6.55209 21.294 6.22952 21.294Z" fill="#989898"/>
<path d="M6.22952 24.795H4.12705C3.80448 24.795 3.54304 24.5335 3.54304 24.211C3.54304 23.8884 3.80448 23.627 4.12705 23.627H6.22952C6.55209 23.627 6.81353 23.8884 6.81353 24.211C6.81353 24.5335 6.55209 24.795 6.22952 24.795Z" fill="#989898"/>
<path d="M25.8729 17.793H23.7705C23.4479 17.793 23.1865 17.5316 23.1865 17.209C23.1865 16.8864 23.4479 16.625 23.7705 16.625H25.8729C26.1955 16.625 26.457 16.8864 26.457 17.209C26.457 17.5316 26.1955 17.793 25.8729 17.793Z" fill="#989898"/>
<path d="M25.8729 21.294H23.7705C23.4479 21.294 23.1865 21.0326 23.1865 20.71C23.1865 20.3874 23.4479 20.126 23.7705 20.126H25.8729C26.1955 20.126 26.457 20.3874 26.457 20.71C26.457 21.0326 26.1955 21.294 25.8729 21.294Z" fill="#989898"/>
<path d="M25.8729 24.795H23.7705C23.4479 24.795 23.1865 24.5335 23.1865 24.211C23.1865 23.8884 23.4479 23.627 23.7705 23.627H25.8729C26.1955 23.627 26.457 23.8884 26.457 24.211C26.457 24.5335 26.1955 24.795 25.8729 24.795Z" fill="#989898"/>
<path d="M16.7521 17.793H13.248C12.9254 17.793 12.664 17.5316 12.664 17.209C12.664 16.8864 12.9254 16.625 13.248 16.625H16.7521C17.0747 16.625 17.3361 16.8864 17.3361 17.209C17.3361 17.5316 17.0747 17.793 16.7521 17.793Z" fill="#989898"/>
<path d="M14.416 4.45167V0.584017C14.416 0.261439 14.6775 0 15 0C15.3226 0 15.5841 0.261439 15.5841 0.584017V4.45167C15.5841 4.77425 15.3226 5.03568 15 5.03568C14.6775 5.03568 14.416 4.77425 14.416 4.45167Z" fill="#989898"/>
<path d="M16.7521 28.2534C16.4295 28.2534 16.1681 27.992 16.1681 27.6694V21.294H13.832V27.6694C13.832 27.992 13.5706 28.2534 13.248 28.2534C12.9254 28.2534 12.664 27.992 12.664 27.6694V20.71C12.664 20.3874 12.9254 20.126 13.248 20.126H16.7521C17.0747 20.126 17.3361 20.3874 17.3361 20.71V27.6694C17.3361 27.992 17.0747 28.2534 16.7521 28.2534Z" fill="#989898"/>
<path d="M9.77255 28.5H0.584017C0.261439 28.5 0 28.2386 0 27.916V13.5492C0 13.2266 0.261439 12.9651 0.584017 12.9651H9.77255C10.0951 12.9651 10.3566 13.2266 10.3566 13.5492V27.916C10.3566 28.2386 10.0951 28.5 9.77255 28.5ZM1.16803 27.332H9.18854V14.1332H1.16803V27.332Z" fill="#989898"/>
<path d="M20.2274 28.5H9.77255C9.44997 28.5 9.18854 28.2386 9.18854 27.916V8.49646C9.18854 8.17392 9.44997 7.91245 9.77255 7.91245C10.0951 7.91245 10.3566 8.17392 10.3566 8.49646V27.332H19.6434V8.49646C19.6434 8.17392 19.9049 7.91245 20.2274 7.91245C20.55 7.91245 20.8115 8.17392 20.8115 8.49646V27.916C20.8115 28.2386 20.55 28.5 20.2274 28.5Z" fill="#989898"/>
<path d="M29.416 21.3018C29.0934 21.3018 28.832 21.0403 28.832 20.7177C28.832 20.3952 29.0934 20.1298 29.416 20.1298C29.7386 20.1298 30 20.3874 30 20.71V20.7177C30 21.0403 29.7386 21.3018 29.416 21.3018Z" fill="#989898"/>
<path d="M29.416 28.5H20.2274C19.9049 28.5 19.6434 28.2386 19.6434 27.916V13.5492C19.6434 13.2266 19.9049 12.9651 20.2274 12.9651H29.416C29.7386 12.9651 30 13.2266 30 13.5492V18.0918C30 18.4144 29.7386 18.6758 29.416 18.6758C29.0934 18.6758 28.832 18.4144 28.832 18.0918V14.1332H20.8115V27.332H28.832V23.3289C28.832 23.0064 29.0934 22.7449 29.416 22.7449C29.7386 22.7449 30 23.0064 30 23.3289V27.916C30 28.2386 29.7386 28.5 29.416 28.5Z" fill="#989898"/>
<path d="M7.97488 10.2571C7.7967 10.2571 7.62089 10.1759 7.50622 10.0221C7.31345 9.76355 7.36675 9.39762 7.62538 9.20485L14.651 3.9671C14.9096 3.77418 15.2754 3.82764 15.4682 4.08622C15.661 4.34481 15.6077 4.71073 15.3491 4.9035L8.32346 10.1413C8.21867 10.2194 8.09624 10.2571 7.97488 10.2571Z" fill="#989898"/>
<path d="M22.0251 10.2571C21.9038 10.2571 21.7813 10.2194 21.6765 10.1413L14.651 4.9035C14.3924 4.71073 14.3391 4.34481 14.5318 4.08622C14.7245 3.82767 15.0905 3.77425 15.3491 3.9671L22.3746 9.20485C22.6332 9.39762 22.6866 9.76355 22.4938 10.0221C22.3792 10.1759 22.2032 10.2571 22.0251 10.2571Z" fill="#989898"/>
<path d="M15 14.0953C13.7119 14.0953 12.664 13.0474 12.664 11.7593C12.664 10.4712 13.7119 9.42321 15 9.42321C16.2881 9.42321 17.3361 10.4712 17.3361 11.7593C17.3361 13.0474 16.2881 14.0953 15 14.0953ZM15 10.5912C14.3559 10.5912 13.832 11.1152 13.832 11.7593C13.832 12.4033 14.3559 12.9273 15 12.9273C15.6441 12.9273 16.1681 12.4033 16.1681 11.7593C16.1681 11.1152 15.6441 10.5912 15 10.5912Z" fill="#989898"/>
</svg>
