<svg width="30" height="30" viewBox="0 0 30 30" fill="none" xmlns="http://www.w3.org/2000/svg">
<path d="M7.61708 8.20312H11.4843C11.8079 8.20312 12.0702 7.94079 12.0702 7.61718C12.0702 7.29357 11.8079 7.03124 11.4843 7.03124H7.61708C7.29347 7.03124 7.03115 7.29357 7.03115 7.61718C7.03115 7.94079 7.29347 8.20312 7.61708 8.20312Z" fill="#989898"/>
<path d="M22.9686 11.1328C22.9686 10.8092 22.7063 10.5469 22.3827 10.5469H7.61708C7.29347 10.5469 7.03115 10.8092 7.03115 11.1328C7.03115 11.4564 7.29347 11.7187 7.61708 11.7187H22.3827C22.7063 11.7187 22.9686 11.4564 22.9686 11.1328Z" fill="#989898"/>
<path d="M14.9999 1.17188C15.3235 1.17188 15.5858 0.909544 15.5858 0.58594C15.5858 0.262336 15.3235 3.52354e-06 14.9999 3.52354e-06C14.6763 3.52354e-06 14.4139 0.262336 14.4139 0.58594C14.4139 0.909544 14.6763 1.17188 14.9999 1.17188Z" fill="#989898"/>
<path d="M29.414 0L17.6367 3.57421e-06C17.3131 3.57421e-06 17.0508 0.262327 17.0508 0.58594C17.0508 0.909554 17.3131 1.17188 17.6367 1.17188H28.8281V21.0937H22.1766C22.4661 20.4552 22.6172 19.7612 22.6172 19.0429C22.6172 18.9453 22.6134 18.8475 22.6077 18.75H24.1406C24.4642 18.75 24.7265 18.4877 24.7265 18.164C24.7265 17.5179 25.2522 16.9922 25.8984 16.9922C26.222 16.9922 26.4843 16.7298 26.4843 16.4062V5.85937C26.4843 5.53576 26.222 5.27343 25.8984 5.27343C25.2522 5.27343 24.7265 4.74773 24.7265 4.10156C24.7265 3.77795 24.4642 3.51562 24.1406 3.51562H5.85937C5.53575 3.51562 5.27343 3.77795 5.27343 4.10156C5.27343 4.74773 4.74772 5.27343 4.10156 5.27343C3.77794 5.27343 3.51562 5.53576 3.51562 5.85937V16.4062C3.51562 16.7298 3.77794 16.9922 4.10156 16.9922C4.74772 16.9922 5.27343 17.5179 5.27343 18.164C5.27343 18.4877 5.53575 18.75 5.85937 18.7494H12.6657C12.66 18.8475 12.6562 18.9453 12.6562 19.0429C12.6562 19.7612 12.8073 20.4553 13.0967 21.0937H1.17187V1.17188H12.3633C12.6869 1.17188 12.9492 0.909554 12.9492 0.58594C12.9492 0.262327 12.6869 3.57421e-06 12.3633 3.57421e-06H0.585937C0.262323 3.57421e-06 0 0.262327 0 0.58594V21.6797C0 22.0033 0.262323 22.2656 0.585937 22.2656H13.8402C14.0157 22.4723 14.2075 22.6641 14.414 22.8395V29.414C14.414 29.6288 14.5315 29.8263 14.7203 29.9289C14.9089 30.0314 15.1386 30.0225 15.3188 29.9056L17.7009 28.3605L19.9421 29.8973C20.1214 30.0203 20.3541 30.0338 20.5465 29.9325C20.7389 29.8311 20.8593 29.6315 20.8593 29.4141V22.8394C21.0661 22.664 21.2579 22.4721 21.4332 22.2656H29.414C29.7376 22.2656 30 22.0033 30 21.6797V0.585937C30 0.262323 29.7376 0 29.414 0ZM12.8761 17.578H6.37112C6.15872 16.7557 5.50991 16.1069 4.68749 15.8945V6.37113C5.50991 6.15872 6.15872 5.50986 6.37112 4.6875H23.6288C23.8412 5.50992 24.49 6.15872 25.3124 6.37113V15.8944C24.49 16.1068 23.8412 16.7557 23.6288 17.578H22.3972C21.7626 15.5148 19.8329 14.0624 17.6366 14.0624C15.4405 14.0624 13.5108 15.5148 12.8761 17.578ZM19.6875 28.3018L18.0413 27.173C17.8461 27.0392 17.5896 27.0358 17.3911 27.1646L15.5859 28.3355V23.5828C16.2244 23.8723 16.9184 24.0234 17.6367 24.0234C18.355 24.0234 19.0491 23.8724 19.6875 23.5829V28.3018ZM17.6367 22.8515C15.5296 22.8515 13.8281 21.1445 13.8281 19.0429C13.8281 16.909 15.5716 15.2344 17.6367 15.2344C19.7035 15.2344 21.4453 16.9104 21.4453 19.0429C21.4453 21.137 19.751 22.8515 17.6367 22.8515Z" fill="#989898"/>
</svg>
