<svg width="30" height="30" viewBox="0 0 30 30" fill="none" xmlns="http://www.w3.org/2000/svg">
<path d="M18.1383 19.1141C18.0562 19.0897 17.9698 19.0842 17.8855 19.0966C17.8757 19.0961 17.8658 19.0959 17.8559 19.0955C18.6165 18.3524 19.09 17.3165 19.09 16.1717V10.3359C19.09 10.0124 18.8276 9.75 18.504 9.75H14.1637C12.3697 9.75 10.9102 11.2095 10.9102 13.0035V16.1716C10.9102 17.3164 11.3837 18.3523 12.1443 19.0954C12.1344 19.0958 12.1245 19.0961 12.1147 19.0965C12.0304 19.0842 11.944 19.0896 11.8618 19.114C8.83277 19.386 6.45059 21.9383 6.45059 25.0369V29.4141C6.45059 29.7376 6.71297 30 7.03652 30H22.9637C23.2873 30 23.5496 29.7376 23.5496 29.4141V25.037C23.5495 21.9384 21.1674 19.386 18.1383 19.1141ZM12.082 13.0035C12.082 11.8557 13.0158 10.9219 14.1636 10.9219H17.918V12.4899C17.918 13.2822 17.2734 13.9268 16.4811 13.9268H12.082L12.082 13.0035ZM12.082 16.1717V15.0987H16.4811C17.0118 15.0987 17.5056 14.939 17.918 14.6658V16.1716C17.918 17.7806 16.6089 19.0897 14.9999 19.0897C13.391 19.0897 12.082 17.7807 12.082 16.1717ZM16.5561 20.2615L15 21.8177L13.4439 20.2615L16.5561 20.2615ZM22.3777 28.8281H7.62234V25.6418H12.4038C12.7274 25.6418 12.9898 25.3794 12.9898 25.0559C12.9898 24.7323 12.7274 24.4699 12.4038 24.4699H7.65721C7.91619 22.2922 9.64582 20.5602 11.8225 20.2975L14.5857 23.0607C14.7001 23.1751 14.8501 23.2323 15 23.2323C15.1499 23.2323 15.2999 23.1751 15.4143 23.0607L18.1775 20.2975C20.5402 20.5826 22.3777 22.5987 22.3777 25.037V28.8281Z" fill="#989898"/>
<path d="M15.4142 24.6416C15.3053 24.5326 15.1541 24.4699 15 24.4699C14.8459 24.4699 14.6947 24.5326 14.5857 24.6416C14.4768 24.7506 14.4141 24.9018 14.4141 25.0559C14.4141 25.21 14.4767 25.3611 14.5857 25.4701C14.6947 25.579 14.8459 25.6418 15 25.6418C15.1541 25.6418 15.3053 25.5791 15.4142 25.4701C15.5232 25.3611 15.5859 25.21 15.5859 25.0559C15.5859 24.9018 15.5232 24.7506 15.4142 24.6416Z" fill="#989898"/>
<path d="M15.0074 0C13.7797 0 12.7809 0.998848 12.7809 2.22656C12.7809 3.25148 13.4772 4.11639 14.4215 4.37432V5.80535C14.4215 6.12891 14.6839 6.39129 15.0074 6.39129C15.331 6.39129 15.5934 6.12891 15.5934 5.80535V4.37432C16.5377 4.11639 17.234 3.25148 17.234 2.22656C17.234 0.998848 16.2352 0 15.0074 0ZM15.0074 3.28125C14.4259 3.28125 13.9528 2.80811 13.9528 2.22656C13.9528 1.64502 14.4259 1.17188 15.0074 1.17188C15.589 1.17188 16.0621 1.64502 16.0621 2.22656C16.0621 2.80811 15.589 3.28125 15.0074 3.28125Z" fill="#989898"/>
<path d="M26.7705 4.57037C26.3499 4.14984 25.7908 3.91822 25.1961 3.91822C24.6013 3.91822 24.0422 4.14984 23.6217 4.57043C22.897 5.29518 22.7778 6.39908 23.2631 7.24922L22.2512 8.26113C22.0223 8.48994 22.0223 8.86096 22.2512 9.08982C22.3656 9.20414 22.5156 9.26139 22.6655 9.26139C22.8155 9.26139 22.9654 9.20414 23.0798 9.08977L24.0913 8.07832C24.4241 8.26916 24.8021 8.37141 25.1961 8.37141C25.7908 8.37141 26.3499 8.13979 26.7704 7.71926C27.1911 7.29873 27.4227 6.73957 27.4227 6.14484C27.4227 5.55012 27.1911 4.99096 26.7705 4.57037ZM25.9419 6.89068C25.5307 7.30189 24.8616 7.30189 24.4504 6.89068C24.0391 6.47941 24.0391 5.81027 24.4504 5.39906C24.656 5.1934 24.926 5.09062 25.1961 5.09062C25.4662 5.09062 25.7363 5.1934 25.9419 5.39906C26.1411 5.59828 26.2509 5.86312 26.2509 6.1449C26.2509 6.42662 26.1411 6.69146 25.9419 6.89068Z" fill="#989898"/>
<path d="M27.7734 12.6113C26.7485 12.6113 25.8836 13.3076 25.6257 14.2519H24.1946C23.8711 14.2519 23.6087 14.5143 23.6087 14.8379C23.6087 15.1614 23.8711 15.4238 24.1946 15.4238H25.6257C25.8836 16.3681 26.7485 17.0644 27.7734 17.0644C29.0012 17.0644 30 16.0656 30 14.8379C30 13.6102 29.0012 12.6113 27.7734 12.6113ZM27.7734 15.8926C27.1919 15.8926 26.7188 15.4194 26.7188 14.8379C26.7188 14.2563 27.1919 13.7832 27.7734 13.7832C28.355 13.7832 28.8281 14.2563 28.8281 14.8379C28.8281 15.4194 28.355 15.8926 27.7734 15.8926Z" fill="#989898"/>
<path d="M22.3869 14.4234C22.2779 14.3145 22.1268 14.2518 21.9727 14.2518C21.8186 14.2518 21.6674 14.3144 21.5584 14.4234C21.4494 14.5325 21.3867 14.6836 21.3867 14.8377C21.3867 14.9924 21.4494 15.143 21.5584 15.2519C21.6674 15.3615 21.8186 15.4236 21.9727 15.4236C22.1268 15.4236 22.2779 15.3615 22.3869 15.2519C22.4958 15.143 22.5586 14.9918 22.5586 14.8377C22.5586 14.6836 22.4959 14.533 22.3869 14.4234Z" fill="#989898"/>
<path d="M5.80535 14.2371H4.37432C4.11639 13.2928 3.25148 12.5964 2.22656 12.5964C0.998848 12.5964 0 13.5953 0 14.823C0 16.0507 0.998848 17.0496 2.22656 17.0496C3.25148 17.0496 4.11639 16.3532 4.37432 15.4089H5.80535C6.12891 15.4089 6.39129 15.1465 6.39129 14.823C6.39129 14.4994 6.12896 14.2371 5.80535 14.2371ZM2.22656 15.8777C1.64502 15.8777 1.17188 15.4045 1.17188 14.823C1.17188 14.2414 1.64502 13.7683 2.22656 13.7683C2.80811 13.7683 3.28125 14.2414 3.28125 14.823C3.28125 15.4045 2.80811 15.8777 2.22656 15.8777Z" fill="#989898"/>
<path d="M7.71334 8.20459L6.70189 7.1932C6.89279 6.86039 6.99498 6.48234 6.99498 6.08836C6.99498 5.49363 6.76336 4.93447 6.34277 4.51389C5.92219 4.09336 5.36309 3.86174 4.76836 3.86174C4.17363 3.86174 3.61453 4.09336 3.19395 4.51394C2.32588 5.38207 2.32588 6.79465 3.19395 7.66277C3.61453 8.0833 4.17363 8.31492 4.76842 8.31492C5.1624 8.31492 5.54045 8.21268 5.87326 8.02184L6.88471 9.03328C6.99914 9.14766 7.14908 9.2049 7.29902 9.2049C7.44897 9.2049 7.59891 9.14766 7.71334 9.03328C7.94215 8.80447 7.94215 8.43346 7.71334 8.20459ZM5.51449 6.83391C5.51461 6.83379 5.51443 6.83402 5.51449 6.83391C5.10328 7.24523 4.43385 7.24553 4.0227 6.8342C3.61143 6.42293 3.61143 5.75379 4.02264 5.34258C4.22824 5.13697 4.4983 5.03414 4.76842 5.03414C5.03854 5.03414 5.30859 5.13697 5.5142 5.34258C5.71342 5.5418 5.82316 5.80664 5.82316 6.08842C5.82316 6.36996 5.71348 6.63475 5.51449 6.83391Z" fill="#989898"/>
</svg>
