<svg width="30" height="30" viewBox="0 0 30 30" fill="none" xmlns="http://www.w3.org/2000/svg">
<path d="M15.0333 28.8287H15.0254C14.7015 28.8287 14.4391 29.0909 14.4391 29.4143C14.4391 29.7378 14.7015 30 15.0254 30H15.0333C15.3571 30 15.6196 29.7378 15.6196 29.4143C15.6196 29.0909 15.3571 28.8287 15.0333 28.8287Z" fill="#989898"/>
<path d="M29.4137 13.8373C29.7375 13.8373 30 13.5751 30 13.2516V9.72184L29.9996 9.71486C29.9995 9.70351 29.9987 9.69224 29.9979 9.68093C29.9973 9.67239 29.9969 9.6638 29.996 9.65536C29.9949 9.64631 29.9933 9.63737 29.9919 9.62839C29.9902 9.61804 29.9887 9.60766 29.9865 9.59751C29.985 9.59073 29.983 9.58407 29.9813 9.57735C29.9783 9.56551 29.9753 9.55367 29.9716 9.54214C29.9698 9.53642 29.9674 9.53086 29.9654 9.52519C29.9611 9.51317 29.9569 9.50113 29.9518 9.48949C29.9489 9.48277 29.9454 9.47631 29.9423 9.46969C29.9374 9.45956 29.9328 9.44936 29.9274 9.43957C29.9225 9.43065 29.9168 9.42211 29.9115 9.41343C29.9071 9.40636 29.9029 9.39909 29.8982 9.39221C29.8916 9.38238 29.8841 9.37301 29.8768 9.36356C29.8726 9.35818 29.8687 9.35258 29.8643 9.34734C29.8569 9.33845 29.8488 9.33004 29.8408 9.32154C29.8357 9.31609 29.8308 9.31045 29.8255 9.3052C29.8184 9.2982 29.8107 9.29164 29.8032 9.28496C29.7961 9.27862 29.7891 9.27218 29.7817 9.26619C29.7753 9.26108 29.7685 9.25633 29.7619 9.25145C29.7525 9.24451 29.7432 9.23764 29.7334 9.23127L29.7278 9.22735L15.3142 0.0911651C15.1224 -0.0303884 14.8776 -0.0303884 14.6858 0.0911651L0.272172 9.22735L0.266637 9.23127C0.25685 9.23764 0.24746 9.24451 0.238088 9.25145C0.231465 9.25633 0.224714 9.26108 0.218353 9.26619C0.210924 9.27218 0.203919 9.27862 0.1968 9.28496C0.189275 9.29164 0.181612 9.2982 0.174497 9.3052C0.169172 9.31045 0.164272 9.31609 0.159152 9.32154C0.151164 9.33004 0.143076 9.33845 0.135666 9.34734C0.1313 9.35258 0.127392 9.35818 0.123212 9.36356C0.115888 9.37301 0.108454 9.38238 0.101764 9.39221C0.0970686 9.39909 0.0929507 9.40636 0.0885465 9.41343C0.083169 9.42211 0.0775528 9.43065 0.0726523 9.43957C0.0672795 9.44929 0.0626511 9.45944 0.0578318 9.4695C0.0546348 9.47619 0.0511038 9.48273 0.0481693 9.48953C0.0431495 9.50111 0.0389267 9.51309 0.0346513 9.52505C0.0326091 9.53077 0.0302567 9.53637 0.028391 9.54215C0.0246739 9.55368 0.0217346 9.56551 0.0187237 9.57735C0.0170107 9.58407 0.0150067 9.59073 0.0135322 9.59751C0.0113325 9.60766 0.00981992 9.61804 0.00815463 9.62839C0.00669452 9.63737 0.00507218 9.64631 0.00403197 9.65536C0.00307288 9.6638 0.00266252 9.67239 0.00206607 9.68093C0.00126444 9.69224 0.000496211 9.70351 0.000353067 9.71486L0 9.72184V13.2516C0 13.5751 0.262476 13.8373 0.586334 13.8373H1.7461V25.2988H0.586334C0.262476 25.2988 0 25.561 0 25.8845V29.4143C0 29.7378 0.262476 30 0.586334 30H12.3406C12.6644 30 12.9269 29.7378 12.9269 29.4143C12.9269 29.0909 12.6644 28.8287 12.3406 28.8287H1.17267V26.4701H28.8273V28.8287H17.6597C17.3359 28.8287 17.0734 29.0909 17.0734 29.4143C17.0734 29.7378 17.3359 30 17.6597 30H29.4137C29.7375 30 30 29.7378 30 29.4143V25.8845C30 25.561 29.7375 25.2988 29.4137 25.2988H28.254V13.8373H29.4137ZM15 1.27929L27.3954 9.13619H2.60458L15 1.27929ZM1.17267 10.3075H28.8273V12.666H1.17267V10.3075ZM23.3623 25.2988H21.0486V13.8373H23.3623V25.2988ZM6.63779 13.8373H8.95144V25.2988H6.63779V13.8373ZM10.1241 13.8373H12.6705V21.8083H10.1241V13.8373ZM13.8432 13.8373H16.1569V25.2988H13.8432V13.8373ZM17.3295 13.8373H19.8759V21.8083H17.3295V13.8373ZM5.46512 13.8373V21.8083H2.91877V13.8373H5.46512ZM2.91877 25.2988V22.9796H5.46512V25.2988H2.91877ZM10.1241 25.2988V22.9796H12.6705V25.2988H10.1241ZM17.3295 25.2988V22.9796H19.8759V25.2988H17.3295ZM24.535 25.2988V22.9796H27.0813V25.2988H24.535ZM27.0813 21.8083H24.535V13.8373H27.0813V21.8083Z" fill="#989898"/>
</svg>
