<svg width="50" height="50" viewBox="0 0 50 50" fill="none" xmlns="http://www.w3.org/2000/svg">
<path d="M34.3267 5.12645L9.85351 18.4208H1.39115C0.625602 18.4208 0 19.0382 0 19.812V29.5255C0 30.2911 0.617325 30.9167 1.39115 30.9167H5.26827C4.98011 34.8598 7.24389 38.6711 11.0223 40.2351C12.183 40.7208 17.5419 42.1038 21.9048 37.461L34.3349 44.2111C35.8989 44.7873 36.3929 43.4702 36.3929 42.9927V6.34467C36.3846 5.85901 35.9236 4.59953 34.3267 5.12645ZM2.78242 28.1426V21.1948H8.82464V28.1426H2.78242ZM12.0926 37.6751C9.37613 36.5555 7.77093 33.7649 8.06724 30.925H9.87007L19.4107 36.111C17.5585 38.0536 14.6527 38.7369 12.0926 37.6751ZM11.5987 28.7106V20.6434L33.6106 8.67428V40.6548L11.5987 28.7106Z" fill="#989898"/>
<path d="M45.4067 13.1689C44.8717 12.6174 43.999 12.5844 43.4393 13.1195L39.274 17.0954C38.7225 17.6305 38.6648 18.5442 39.2246 19.0629C39.8996 19.6638 40.9286 19.3592 41.192 19.0958L45.3573 15.1363C45.9088 14.6013 45.9418 13.7286 45.4067 13.1689Z" fill="#989898"/>
<path d="M48.6089 23.2776H42.8712C42.1057 23.2776 41.4801 23.8949 41.4801 24.6687C41.4801 25.4342 42.0974 26.0598 42.8712 26.0598H48.6089C49.3744 26.0598 50 25.4425 50 24.6687C50 23.8949 49.3744 23.2776 48.6089 23.2776Z" fill="#989898"/>
<path d="M45.3573 34.2095L41.192 30.25C40.6406 29.7149 39.7515 29.7396 39.2246 30.2994C38.6895 30.8509 38.7142 31.7399 39.274 32.2668L43.4393 36.2264C43.7027 36.4815 44.7893 36.7944 45.4067 36.1769C45.9501 35.6335 45.9171 34.7363 45.3573 34.2095Z" fill="#989898"/>
</svg>
