<svg width="50" height="50" viewBox="0 0 50 50" fill="none" xmlns="http://www.w3.org/2000/svg">
<path d="M25 0C15.3351 0 7.5 7.83493 7.5 17.5C7.5 27.1649 15.3351 35 25 35C34.6651 35 42.5 27.1649 42.5 17.5C42.5 7.83493 34.6651 0 25 0ZM24.9995 31.9995C17.0039 31.9995 10.5 25.4956 10.5 17.5C10.5 9.50439 17.0039 3.00049 24.9995 3.00049C32.9951 3.00049 39.4991 9.50439 39.4991 17.5C39.4991 25.4956 32.9951 31.9995 24.9995 31.9995Z" fill="#989898"/>
<path d="M36.6491 13.8028C36.4778 13.2679 36.0159 12.8781 35.4597 12.7992L29.1312 11.9013L26.3074 6.31492C26.0581 5.82186 25.5526 5.51092 25 5.51092C24.4475 5.51092 23.942 5.82186 23.6927 6.31492L20.8689 11.9013L14.5404 12.7992C13.9843 12.8781 13.5223 13.2679 13.351 13.8028C13.1797 14.3377 13.3294 14.9234 13.7363 15.3106L18.2945 19.6487L17.2201 25.7652C17.1239 26.3129 17.346 26.8678 17.7937 27.1977C18.2413 27.5277 18.8371 27.5758 19.3318 27.3218L25 24.4124L30.6683 27.3219C31.164 27.5763 31.7597 27.5272 32.2064 27.1978C32.6539 26.8679 32.8761 26.313 32.78 25.7653L31.7056 19.6488L36.2638 15.3107C36.6706 14.9234 36.8203 14.3378 36.6491 13.8028ZM29.1171 18.0678C28.7619 18.4059 28.5994 18.8994 28.6842 19.3824L29.3847 23.37L25.669 21.4627C25.249 21.2471 24.751 21.2471 24.3311 21.4627L20.6154 23.37L21.3159 19.3824C21.4007 18.8994 21.2382 18.4059 20.883 18.0678L17.9482 15.2748L22.0371 14.6947C22.5113 14.6274 22.9227 14.3326 23.1387 13.9052L25 10.2228L26.8614 13.9052C27.0774 14.3326 27.4887 14.6274 27.9629 14.6946L32.0519 15.2747L29.1171 18.0678Z" fill="#989898"/>
<path d="M32.3243 30.8403V45.7979L25.8126 41.4568C25.3206 41.1288 24.6795 41.1288 24.1875 41.4568L17.6758 45.7979V30.8403H14.7461V48.5351C14.7461 49.0754 15.0435 49.5717 15.5198 49.8266C15.9961 50.0815 16.5741 50.0535 17.0235 49.7539L25 44.4362L32.9766 49.7539C33.4258 50.0535 34.0038 50.0817 34.4803 49.8266C34.9566 49.5717 35.2539 49.0754 35.2539 48.5351V30.8403H32.3243Z" fill="#989898"/>
</svg>
