<svg width="50" height="50" viewBox="0 0 50 50" fill="none" xmlns="http://www.w3.org/2000/svg">
<path d="M9.93718 50C4.45745 50 0 45.5426 0 40.0628C0 34.5831 4.45745 30.1256 9.93718 30.1256C15.4157 30.1256 19.8731 34.5831 19.8731 40.0628C19.8731 45.5426 15.4157 50 9.93718 50ZM9.93718 33.0004C6.04262 33.0004 2.87474 36.1682 2.87474 40.0628C2.87474 43.9574 6.04262 47.1253 9.93718 47.1253C13.8305 47.1253 16.9984 43.9574 16.9984 40.0628C16.9984 36.1682 13.8305 33.0004 9.93718 33.0004Z" fill="#989898"/>
<path d="M40.0628 50C34.5831 50 30.1256 45.5426 30.1256 40.0628C30.1256 34.5831 34.5831 30.1256 40.0628 30.1256C45.5426 30.1256 50 34.5831 50 40.0628C50 45.5426 45.5426 50 40.0628 50ZM40.0628 33.0004C36.1682 33.0004 33.0004 36.1682 33.0004 40.0628C33.0004 43.9574 36.1682 47.1253 40.0628 47.1253C43.9574 47.1253 47.1253 43.9574 47.1253 40.0628C47.1253 36.1682 43.9574 33.0004 40.0628 33.0004Z" fill="#989898"/>
<path d="M34.535 12.589C31.0642 12.589 28.2412 9.76475 28.2412 6.29388C28.2412 2.82301 31.0642 0 34.535 0C38.0059 0 40.8301 2.82301 40.8301 6.29388C40.8301 9.76475 38.0059 12.589 34.535 12.589ZM34.535 2.87474C32.6506 2.87474 31.1159 4.40941 31.1159 6.29388C31.1159 8.17958 32.6506 9.71425 34.535 9.71425C36.4207 9.71425 37.9554 8.17958 37.9554 6.29388C37.9554 4.40941 36.4207 2.87474 34.535 2.87474Z" fill="#989898"/>
<path d="M24.8356 45.2223C24.7728 45.2223 24.7099 45.2186 24.6459 45.21C23.8589 45.1065 23.3046 44.3835 23.4093 43.5965C23.6606 41.696 24.3257 36.5587 24.3749 35.6115C24.4217 34.7223 24.439 34.3885 23.2849 33.2837C21.8278 31.8869 16.0648 27.4369 16.0069 27.3913C15.8332 27.2718 13.8182 25.7975 13.5793 23.3108C13.4179 21.6369 14.0966 20.0012 15.5967 18.4505C18.6131 15.3344 20.3707 13.6335 21.276 12.7577L21.8192 12.2293C22.2909 11.7576 23.716 10.3412 25.7347 10.5629C27.2176 10.7292 28.5528 11.7391 29.7044 13.5645C32.3858 17.815 34.2505 20.4471 34.5412 20.7784C35.1238 21.4719 36.188 22.7417 38.0515 22.7417H43.2147C44.0091 22.7417 44.6521 23.3847 44.6521 24.1791C44.6521 24.9735 44.0091 25.6165 43.2147 25.6165H38.0515C34.8454 25.6165 33.0546 23.4783 32.4658 22.7762C31.8919 22.1197 29.8448 19.176 27.2731 15.0991C26.6289 14.0793 25.9699 13.4832 25.4157 13.4216C24.7383 13.3613 24.1064 14.0091 23.8576 14.2567L23.2763 14.8245C22.3821 15.6891 20.6442 17.3704 17.6635 20.4508C16.7816 21.3622 16.3702 22.2256 16.4392 23.0188C16.5451 24.221 17.7054 25.0721 17.7177 25.0807C18.0059 25.3011 23.7074 29.7056 25.2753 31.207C27.0538 32.9117 27.3346 34.0781 27.2472 35.7618C27.1819 36.9959 26.3542 43.2627 26.2594 43.9734C26.1633 44.6964 25.5463 45.2223 24.8356 45.2223Z" fill="#989898"/>
<path d="M18.8188 28.538C18.4505 28.538 18.0823 28.3976 17.8027 28.1168C17.241 27.5564 17.241 26.6449 17.8027 26.0845L28.6735 15.2137C29.2327 14.6521 30.1466 14.6521 30.7058 15.2137C31.2674 15.7741 31.2674 16.6856 30.7058 17.246L19.835 28.1168C19.5554 28.3976 19.1871 28.538 18.8188 28.538Z" fill="#989898"/>
</svg>
