<svg width="50" height="34" viewBox="0 0 50 34" fill="none" xmlns="http://www.w3.org/2000/svg">
<path d="M26.8611 33.7063C25.9904 33.7063 25.1606 33.3815 24.5256 32.7922L22.3343 30.7646L20.7769 32.3906C20.1311 33.064 19.2255 33.4489 18.291 33.4489C17.3951 33.4489 16.5556 33.1145 15.9158 32.5072L15.4973 32.1103C15.1882 31.8157 14.9417 31.4657 14.7625 31.0652C14.2922 31.2949 13.7787 31.414 13.2532 31.414C12.3656 31.414 11.5238 31.0797 10.8815 30.4711L10.463 30.0743C10.0938 29.7243 9.80998 29.2901 9.62959 28.8043C9.32051 28.8945 9.00301 28.939 8.6807 28.939C7.78232 28.939 6.94047 28.6046 6.30066 27.9973L5.88214 27.6004C5.20626 26.9582 4.819 26.0538 4.82021 25.1206C4.819 24.7105 4.90078 24.2931 5.05833 23.8939C4.64582 23.7351 4.27781 23.5042 3.96272 23.206L3.54661 22.8115C2.86952 22.1693 2.48106 21.2649 2.48226 20.3316C2.48226 19.4465 2.81901 18.607 3.42995 17.9684L5.20626 16.1152L1.18942 12.6888C0.431753 12.043 -0.00119891 11.1061 3.53789e-06 10.1164C-0.00119915 9.28653 0.304273 8.48797 0.859895 7.8662L5.48647 2.68641C5.88695 2.23662 6.40169 1.88184 7.01383 1.63289C7.58509 1.40078 8.18641 1.28292 8.80096 1.28172C9.37703 1.28292 9.91341 1.38755 10.3969 1.59321L12.9381 2.67799C13.3085 2.83794 13.9158 2.94137 14.4859 2.94137C15.1137 2.94137 15.7222 2.83794 16.0926 2.67919L18.6302 1.59441C19.3133 1.30698 20.1118 1.15905 21.003 1.15664C22.0012 1.15905 22.8719 1.33945 23.5935 1.69302L24.8803 2.33403L25.1353 2.15484C25.9351 1.60042 26.9537 1.30457 28.0806 1.29976C28.8671 1.30096 29.5743 1.45129 30.1852 1.74474L33.9158 3.54991C34.1972 3.69062 34.6422 3.77721 35.0776 3.77721C35.6861 3.77721 36.2995 3.62928 36.6482 3.4092L40.4558 1.03879C41.021 0.68641 41.6849 0.5 42.3776 0.5C43.5442 0.502405 44.6121 1.01112 45.3097 1.89507L49.2135 6.89086C49.7282 7.55231 50 8.36771 50 9.24925C50 10.2318 49.656 11.153 49.0331 11.8409L42.6566 18.8933L43.1209 19.3214C43.8208 19.9672 44.2201 20.8836 44.2177 21.8337C44.2177 22.7032 43.8906 23.5319 43.2989 24.1657L42.9068 24.5854C42.4642 25.0616 41.8773 25.4008 41.2255 25.5595C41.2423 25.6954 41.252 25.8253 41.252 25.9504C41.252 26.8187 40.9248 27.6461 40.3331 28.2799L39.9411 28.7008C39.294 29.3936 38.3752 29.7904 37.4203 29.7904C37.2712 29.7904 37.1173 29.7784 36.9513 29.752C36.8142 30.3184 36.54 30.8307 36.1455 31.2529L35.7583 31.6714C35.1088 32.3653 34.19 32.7622 33.2375 32.7622C32.3596 32.7622 31.5322 32.4387 30.8948 31.8518L30.3464 31.3455C30.1996 31.6618 30.0096 31.9468 29.7787 32.1957L29.3818 32.6179C28.7372 33.3094 27.8232 33.7063 26.8707 33.7063H26.8611ZM26.172 31.0328C26.362 31.2084 26.6025 31.3022 26.8695 31.3034C27.1582 31.3022 27.4251 31.1879 27.6188 30.9811L28.0108 30.5601C28.1864 30.3713 28.2802 30.132 28.2802 29.8686C28.2802 29.61 28.1768 29.3599 27.9892 29.1663L25.5843 27.0091L25.8152 26.7169L27.2018 25.222L32.5376 30.0875C32.73 30.2643 32.9705 30.3581 33.2375 30.3593C33.5286 30.3581 33.7956 30.2426 33.9904 30.0358L34.3824 29.6149C34.558 29.4272 34.6494 29.1879 34.6494 28.9233C34.6494 28.6443 34.5388 28.3833 34.3391 28.1897L28.9938 23.3086L30.639 21.5479L36.7252 27.1158C36.9128 27.2901 37.1606 27.3863 37.4251 27.3876C37.7138 27.3863 37.9832 27.2709 38.178 27.0628L38.5652 26.6443C38.7432 26.4555 38.837 26.215 38.837 25.948C38.837 25.6618 38.7216 25.3948 38.5123 25.2023L31.9595 19.1919L33.6047 17.4312L39.6909 22.9991C39.8809 23.1759 40.1239 23.2697 40.3909 23.2709C40.6795 23.2697 40.9489 23.1542 41.1437 22.9462L41.531 22.5277C41.7114 22.3364 41.8052 22.0971 41.8052 21.8349C41.8052 21.5463 41.6897 21.2805 41.4829 21.0881L36.5256 16.5048C35.6548 15.7014 34.1299 14.4567 33.1942 13.788L28.908 10.7165C28.6146 10.4988 28.1143 10.3593 27.6284 10.3593C27.193 10.3593 26.7793 10.4591 26.5183 10.6179L24.9669 11.5487C24.4137 11.8818 23.7691 12.0574 23.1052 12.0574C21.9302 12.055 20.8202 11.5102 20.1359 10.6022L19.7919 10.1392C19.3602 9.56073 19.1233 8.84636 19.1245 8.12958C19.1233 7.03758 19.6597 6.00691 20.5592 5.37432L22.6422 3.9107L22.5195 3.84937C22.2393 3.70625 21.6741 3.56434 21.0319 3.56434C20.4666 3.56434 19.929 3.65815 19.5851 3.80848L17.0451 4.89326C16.3295 5.19393 15.4805 5.34786 14.5183 5.35027C13.5526 5.34786 12.7036 5.19393 11.9916 4.89326L9.44919 3.80968C9.2724 3.73271 9.0439 3.69062 8.80457 3.69062C8.50752 3.69062 8.19964 3.75195 7.92784 3.8626C7.66687 3.96843 7.44198 4.11876 7.29164 4.28833L2.66507 9.46933C2.50271 9.65093 2.41612 9.87583 2.41492 10.12C2.41612 10.4086 2.53879 10.6732 2.76008 10.8632L6.87793 14.3761L7.62598 13.5944C8.2706 12.9221 9.17619 12.5373 10.1106 12.5373C11.0066 12.5373 11.8473 12.8716 12.4871 13.4802L12.9032 13.8746C13.4624 14.4062 13.8172 15.1025 13.9242 15.865C14.7841 15.883 15.5983 16.2162 16.2225 16.8079L16.6398 17.2035C17.3169 17.8446 17.7042 18.7489 17.7042 19.6834C17.7042 19.9287 17.6741 20.1789 17.6152 20.4302C18.1143 20.5866 18.5713 20.8536 18.9513 21.2144L19.3686 21.6088C19.5057 21.7989 20.2249 22.8848 20.3957 23.7507C21.2243 23.7868 22.0036 24.1176 22.6061 24.6888L23.0235 25.0845C23.7017 25.7291 24.089 26.6323 24.0878 27.5643C24.0878 27.9937 23.9964 28.4351 23.8208 28.856L26.172 31.0328ZM20.2333 26.15C19.9459 26.1512 19.6813 26.2631 19.4889 26.4639L17.1293 28.9281C16.9489 29.117 16.8491 29.3659 16.8479 29.6317C16.8491 29.9143 16.9609 30.1765 17.163 30.3677L17.5803 30.7658C17.7727 30.9462 18.018 31.0436 18.2886 31.0448C18.5737 31.0436 18.8382 30.9317 19.0307 30.7309L21.3927 28.2655C21.5743 28.0755 21.6717 27.8313 21.6729 27.5619C21.6717 27.2793 21.5598 27.0171 21.359 26.8247L20.9417 26.4302C20.7529 26.251 20.5015 26.1512 20.2333 26.15ZM16.5761 22.6756C16.3259 22.6756 16.083 22.7706 15.893 22.9426L12.0204 26.9871C11.8918 27.147 11.8136 27.3647 11.8136 27.5944C11.8136 27.877 11.9254 28.1404 12.1299 28.3328L12.546 28.7285C12.7384 28.9101 12.9838 29.0075 13.2556 29.0087C13.5406 29.0075 13.8052 28.8957 13.9976 28.6948L17.7378 24.791C17.9194 24.5998 18.0168 24.3569 18.018 24.0875C18.0168 23.8061 17.905 23.5439 17.7029 23.3503L17.2856 22.9558C17.0932 22.773 16.8491 22.6768 16.5761 22.6756ZM13.8485 18.2691C13.5839 18.2691 13.3313 18.3713 13.1389 18.5565C13.1209 18.5806 10.0674 21.7616 7.51413 24.4194C7.33133 24.6106 7.23392 24.8536 7.23392 25.1206C7.23392 25.4032 7.34576 25.6654 7.54901 25.8578L7.96633 26.2547C8.15875 26.4363 8.40409 26.5337 8.67348 26.5337C8.95971 26.5337 9.22309 26.4218 9.41672 26.221L15.0078 20.3845C15.1894 20.1945 15.2868 19.9504 15.288 19.681C15.2868 19.3984 15.175 19.1362 14.9741 18.945L14.5568 18.5469C14.3668 18.3689 14.1155 18.2691 13.8485 18.2691ZM10.1118 14.9402C9.82682 14.9402 9.56224 15.052 9.36861 15.2553L5.17619 19.6305C4.99339 19.8193 4.89718 20.0622 4.89597 20.3328C4.89718 20.6155 5.00902 20.8776 5.21107 21.0688L5.62718 21.4633C5.81961 21.6461 6.06495 21.7423 6.33674 21.7435C6.55081 21.7423 6.75767 21.6762 6.93205 21.5535C6.92845 21.5475 11.3963 16.8921 11.4107 16.8776C11.4865 16.7574 11.549 16.5577 11.5502 16.3521C11.549 16.2005 11.3602 15.8169 11.1834 15.5547L10.8202 15.2192C10.629 15.0388 10.3836 14.9414 10.1118 14.9402ZM27.6115 7.9528C28.6434 7.9552 29.5791 8.23421 30.3175 8.76097L34.6013 11.8313C35.6524 12.5878 37.2183 13.8638 38.1636 14.7381L40.8888 17.2577L47.2435 10.2306C47.4576 9.99609 47.5875 9.62207 47.5851 9.25286C47.5851 8.91491 47.4865 8.59381 47.3109 8.37011L43.4071 3.37553C43.1882 3.0893 42.7865 2.90529 42.3824 2.90529C42.1419 2.90529 41.9182 2.96663 41.733 3.08088L37.9278 5.44889C37.1509 5.92634 36.172 6.1801 35.0992 6.1837C34.2574 6.1825 33.5069 6.02495 32.8623 5.71587L29.1341 3.9095C28.8743 3.78202 28.4895 3.70625 28.0998 3.70625C27.4937 3.70625 26.8659 3.87583 26.5304 4.11876L21.9495 7.33704C21.6885 7.52225 21.537 7.81088 21.5346 8.12958C21.5358 8.33644 21.6007 8.53127 21.7294 8.70445L22.071 9.16266C22.2886 9.46091 22.6915 9.65093 23.1004 9.65093C23.3301 9.64973 23.5454 9.5932 23.7222 9.48737L25.2688 8.55773C25.9315 8.16326 26.7408 7.954 27.6115 7.9528Z" fill="#989898"/>
</svg>
