<svg width="20" height="24" viewBox="0 0 20 24" fill="none" xmlns="http://www.w3.org/2000/svg">
<path d="M18.4888 16.5C19.0066 16.5 19.4264 16.0802 19.4264 15.5624V3.7504C19.4242 1.68003 17.7464 0.00220648 15.676 0H4.14962C2.07956 0.00264528 0.402228 1.68034 0.400024 3.7504V20.2496C0.402228 22.3197 2.07956 23.9974 4.14962 24H15.676C17.7464 23.9978 19.4242 22.32 19.4264 20.2496C19.4264 19.7318 19.0067 19.312 18.4888 19.312C17.971 19.312 17.5512 19.7318 17.5512 20.2496C17.5503 21.2849 16.7113 22.1239 15.676 22.1248H4.14962C3.11466 22.1235 2.27611 21.2846 2.27523 20.2496V3.7504C2.27611 2.71512 3.11515 1.87608 4.15043 1.8752H15.676C16.7113 1.87608 17.5503 2.71512 17.5512 3.7504V15.5624C17.5512 16.0802 17.971 16.5 18.4888 16.5Z" fill="white"/>
<path d="M14.7384 5.6248H5.08242C4.5646 5.6248 4.14482 6.04458 4.14482 6.5624C4.14482 7.08023 4.5646 7.5 5.08242 7.5H14.7384C15.2563 7.5 15.676 7.08023 15.676 6.5624C15.676 6.04458 15.2563 5.6248 14.7384 5.6248Z" fill="white"/>
<path d="M5.08242 9.3752C4.5646 9.37403 4.14387 9.79285 4.1427 10.3107C4.14153 10.8285 4.56036 11.2492 5.07819 11.2504H14.7384C15.2563 11.2516 15.677 10.8327 15.6781 10.3149C15.6793 9.7971 15.2605 9.37637 14.7427 9.3752H5.08242Z" fill="white"/>
<path d="M5.08243 13.1248C4.56461 13.1236 4.14388 13.5425 4.14271 14.0603C4.14154 14.5781 4.56038 14.9988 5.0782 15H10.9472C11.4651 15.0012 11.8858 14.5823 11.887 14.0645C11.8881 13.5467 11.4693 13.126 10.9515 13.1248H5.08243Z" fill="white"/>
</svg>
