<svg width="24" height="24" viewBox="0 0 24 24" fill="none" xmlns="http://www.w3.org/2000/svg">
<path d="M23.7275 11.0426L13.9593 0.789769C13.9468 0.776572 13.9338 0.763766 13.9206 0.751351C12.8539 -0.247281 11.2421 -0.250849 10.1714 0.74309C10.1581 0.755457 10.1451 0.768214 10.1325 0.781313L0.275244 11.0396C-0.0912241 11.4211 -0.0918335 12.04 0.273932 12.4222C0.639744 12.8043 1.23332 12.8049 1.59974 12.4235L2.34374 11.6492V20.0897C2.34374 22.2459 4.02599 24 6.09374 24H9.46874C9.98652 24 10.4062 23.5623 10.4062 23.0224V15.0553H13.6875V23.0224C13.6875 23.5623 14.1072 24 14.625 24H17.9062C19.974 24 21.6562 22.2459 21.6562 20.0897C21.6562 19.5498 21.2365 19.1122 20.7187 19.1122C20.201 19.1122 19.7812 19.5498 19.7812 20.0897C19.7812 21.1678 18.9401 22.0449 17.9062 22.0449H15.5625V14.0777C15.5625 13.5378 15.1428 13.1001 14.625 13.1001H9.46874C8.95096 13.1001 8.53124 13.5378 8.53124 14.0777V22.0449H6.09374C5.05987 22.0449 4.21874 21.1678 4.21874 20.0897V9.72755C4.21874 9.71777 4.2186 9.70805 4.21832 9.69837L11.435 2.18818C11.7862 1.87716 12.3013 1.87834 12.6512 2.19086L19.7812 9.67462V15.2019C19.7812 15.7418 20.201 16.1795 20.7187 16.1795C21.2365 16.1795 21.6562 15.7418 21.6562 15.2019V11.6426L22.3974 12.4206C22.5807 12.6129 22.8215 12.7092 23.0625 12.7092C23.3014 12.7092 23.5404 12.6145 23.7232 12.4251C24.0905 12.0446 24.0925 11.4256 23.7275 11.0426Z" fill="white"/>
</svg>
