<svg width="24" height="24" viewBox="0 0 24 24" fill="none" xmlns="http://www.w3.org/2000/svg">
<path d="M20.2483 0H12.6547C10.587 0 8.90478 1.68225 8.90478 3.75V4.6875C8.90478 5.20528 9.32449 5.625 9.84226 5.625C10.36 5.625 10.7797 5.20528 10.7797 4.6875V3.75C10.7797 2.71613 11.6208 1.875 12.6547 1.875H20.2483C21.2821 1.875 22.1232 2.71613 22.1232 3.75V20.25C22.1232 21.2839 21.2821 22.125 20.2483 22.125H12.6547C11.6208 22.125 10.7797 21.2839 10.7797 20.25V19.3125C10.7797 18.7947 10.36 18.375 9.84226 18.375C9.32449 18.375 8.90478 18.7947 8.90478 19.3125V20.25C8.90478 22.3178 10.587 24 12.6547 24H20.2483C22.316 24 23.9982 22.3178 23.9982 20.25V3.75C23.9982 1.68225 22.316 0 20.2483 0Z" fill="white"/>
<path d="M2.15453 12.6693C2.15247 12.6671 2.15036 12.665 2.14825 12.6629C1.78272 12.2974 1.78272 11.7026 2.15017 11.3352L5.63223 7.83284C5.99729 7.46567 5.99556 6.87209 5.62839 6.50703C5.26122 6.14201 4.66764 6.1437 4.30258 6.51087L0.822434 10.0113C-0.272987 11.1067 -0.274159 12.8884 0.819013 13.9853L4.29826 17.5315C4.48183 17.7187 4.72454 17.8125 4.9675 17.8125C5.2044 17.8125 5.44154 17.7232 5.62393 17.5442C5.99354 17.1816 5.99922 16.588 5.63659 16.2185L2.15453 12.6693Z" fill="white"/>
<path d="M15.6079 11.0625H5.62352C5.10573 11.0625 4.68602 11.4822 4.68602 12C4.68602 12.5178 5.10573 12.9375 5.62352 12.9375H15.6079C16.1257 12.9375 16.5454 12.5178 16.5454 12C16.5454 11.4822 16.1257 11.0625 15.6079 11.0625Z" fill="white"/>
</svg>
