<svg width="24" height="24" viewBox="0 0 24 24" fill="none" xmlns="http://www.w3.org/2000/svg">
<path d="M23.9365 20.5653C23.8309 20.0584 23.3344 19.7331 22.8275 19.8386C22.3206 19.9442 21.9952 20.4407 22.1008 20.9477C22.1623 21.2374 22.0894 21.5394 21.9024 21.7691C21.7203 21.9964 21.4442 22.1278 21.1529 22.1259H2.84614C2.55491 22.1278 2.27882 21.9964 2.09665 21.7691C1.90967 21.5394 1.83674 21.2374 1.89828 20.9477C2.89316 16.2659 6.96658 12.8757 11.7512 12.7473C11.8338 12.7505 11.9167 12.7521 11.9999 12.7521C12.0831 12.7521 12.1663 12.7505 12.2495 12.7473C15.6048 12.8269 18.7114 14.5343 20.577 17.3242C20.8612 17.757 21.4424 17.8775 21.8752 17.5934C22.308 17.3092 22.4285 16.728 22.1443 16.2952C22.1411 16.2903 22.1378 16.2853 22.1344 16.2804C20.6221 14.0208 18.3979 12.3315 15.8154 11.4811C18.6356 9.37414 19.2138 5.37984 17.1068 2.55959C14.9999 -0.260652 11.0056 -0.838871 8.18532 1.2681C5.36507 3.37508 4.78686 7.36938 6.89383 10.1896C7.2601 10.6799 7.69506 11.1148 8.18532 11.4811C4.04974 12.8415 0.953426 16.304 0.0617621 20.5653C-0.262491 22.1042 0.722156 23.6146 2.26103 23.9388C2.45343 23.9794 2.64951 23.9999 2.84614 24H21.1529C22.7256 23.9984 23.9992 22.7223 23.9977 21.1496C23.9975 20.9533 23.977 20.7575 23.9365 20.5653ZM7.49982 6.3779C7.49992 3.89299 9.51441 1.87866 11.9993 1.87876C14.4842 1.87886 16.4985 3.89335 16.4984 6.37825C16.4984 8.77448 14.6203 10.7502 12.2271 10.8716H11.9991H11.772C9.37964 10.7478 7.50258 8.77343 7.49982 6.3779Z" fill="white"/>
</svg>
