<svg width="24" height="25" viewBox="0 0 24 25" fill="none" xmlns="http://www.w3.org/2000/svg">
<path d="M20.2238 11.9523C19.677 11.8191 19.1262 12.1523 18.9863 12.7019C18.4434 14.9523 17.0535 16.8585 15.073 18.0695C13.0926 19.2804 10.7621 19.6507 8.51172 19.1039C3.85938 17.9804 0.987892 13.2812 2.11055 8.62886C3.2332 3.98042 7.92813 1.10894 12.5852 2.22729C15.859 3.01792 18.4012 5.66284 19.0605 8.96636C19.1152 9.23198 19.2699 9.4605 19.4957 9.60972C19.7238 9.76128 19.998 9.81284 20.2582 9.75776C20.802 9.64683 21.1574 9.11401 21.052 8.56987C20.0816 3.62925 15.7238 0.0276856 10.6898 0.00541995L10.6305 0.00463867C7.78985 0.00581051 5.11953 1.11362 3.11133 3.123C1.10352 5.13315 -0.00156091 7.80425 1.65481e-06 10.6449C0.00273605 16.5039 4.77149 21.2726 10.6305 21.2757C15.5355 21.275 19.7824 17.9484 20.9582 13.1875C21.0965 12.6441 20.7668 12.0902 20.2238 11.9523Z" fill="white"/>
<path d="M23.707 22.2976L18.3672 16.9593C17.9781 16.5703 17.3422 16.5703 16.9531 16.9593C16.5633 17.3492 16.5633 17.9835 16.9531 18.3734L22.293 23.7117C22.482 23.9007 22.7336 24.0046 23 24.0046C23.2664 24.0046 23.518 23.9007 23.707 23.7117C23.8961 23.5234 24 23.2718 24 23.0046C24 22.7375 23.8961 22.4859 23.707 22.2976Z" fill="white"/>
</svg>
