<svg width="24" height="25" viewBox="0 0 24 25" fill="none" xmlns="http://www.w3.org/2000/svg">
<path d="M12.0024 6.56704C8.99798 6.56054 6.55715 8.99085 6.55067 11.9953C6.54418 14.9997 8.97447 17.4405 11.9789 17.447C12.5442 17.4482 13.1063 17.3613 13.6448 17.1894C14.1385 17.0332 14.4122 16.5064 14.256 16.0126C14.0998 15.5189 13.5729 15.2452 13.0792 15.4014C11.2056 15.9932 9.20705 14.9542 8.61526 13.0806C8.02346 11.207 9.06253 9.20847 10.9361 8.61666C12.8097 8.02486 14.8082 9.06394 15.4 10.9375C15.6124 11.6099 15.6202 12.3302 15.4224 13.007C15.277 13.5041 15.5621 14.0249 16.0592 14.1702C16.5562 14.3156 17.077 14.0305 17.2224 13.5334C18.0654 10.6497 16.4111 7.62859 13.5273 6.78557C13.032 6.64076 12.5185 6.56717 12.0024 6.56704Z" fill="white"/>
<path d="M21.1872 8.72464H20.7152C20.5891 8.723 20.4765 8.64567 20.4296 8.52864L20.4216 8.50864C20.3698 8.3927 20.3929 8.25699 20.48 8.16464L20.8136 7.83104C21.9101 6.73188 21.9101 4.9526 20.8136 3.85344L20.1504 3.19024C19.052 2.09197 17.2712 2.09197 16.1728 3.19024L15.84 3.52464C15.7484 3.61288 15.6126 3.6372 15.496 3.58624L15.4784 3.57904C15.3601 3.53272 15.2815 3.41964 15.2792 3.29264V2.82064C15.2792 1.26759 14.0218 0.00772771 12.4688 0.00463867H11.5312C9.97909 0.00728331 8.72176 1.26533 8.72 2.81744V3.28944C8.71808 3.41631 8.6397 3.52945 8.5216 3.57584L8.5032 3.58304C8.38748 3.63447 8.2522 3.61145 8.16 3.52464L7.824 3.18784C6.72557 2.08957 4.94483 2.08957 3.8464 3.18784L3.1832 3.85104C2.0867 4.9502 2.0867 6.72948 3.1832 7.82864L3.52 8.16464C3.60799 8.2581 3.63161 8.3951 3.58 8.51264L3.5744 8.52624C3.52808 8.64451 3.415 8.72317 3.288 8.72544H2.816C1.26295 8.72544 0.00308864 9.98279 0 11.5358V12.4734C0.00264424 14.0255 1.26069 15.2829 2.8128 15.2846H3.2848C3.41086 15.2863 3.52354 15.3636 3.5704 15.4806L3.5784 15.5006C3.63019 15.6166 3.60715 15.7523 3.52 15.8446L3.1864 16.1782C2.08813 17.2767 2.08813 19.0574 3.1864 20.1558L3.8496 20.819C4.94803 21.9173 6.72877 21.9173 7.8272 20.819L8.16 20.4846C8.25164 20.3964 8.38743 20.3721 8.504 20.423L8.5216 20.4302C8.63987 20.4766 8.71853 20.5896 8.7208 20.7166V21.1886C8.7208 22.7417 9.97815 24.0016 11.5312 24.0046H12.4688C14.0209 24.002 15.2782 22.744 15.28 21.1918V20.7198C15.2819 20.593 15.3603 20.4798 15.4784 20.4334L15.4968 20.4262C15.6136 20.3749 15.7498 20.3993 15.8416 20.4878L16.1752 20.8214C17.2736 21.9197 19.0544 21.9197 20.1528 20.8214L20.816 20.1582C21.9143 19.0598 21.9143 17.2791 20.816 16.1806L20.48 15.8446C20.3914 15.7528 20.3671 15.6166 20.4184 15.4998L20.4256 15.483C20.4719 15.3648 20.585 15.2861 20.712 15.2838H21.184C22.7371 15.2838 23.9969 14.0265 24 12.4734V11.5358C23.9974 9.98373 22.7393 8.7264 21.1872 8.72464ZM22.1248 12.4742C22.1244 12.9919 21.7048 13.4114 21.1872 13.4118H20.7152C19.828 13.4125 19.0295 13.9501 18.6952 14.7718L18.6888 14.7862C18.3452 15.6037 18.5302 16.5477 19.1568 17.175L19.4904 17.5086C19.8563 17.8748 19.8563 18.4681 19.4904 18.8342L18.8272 19.4974C18.4611 19.8634 17.8677 19.8634 17.5016 19.4974L17.168 19.1638C16.5402 18.5368 15.5953 18.3521 14.7776 18.6966L14.764 18.7022C13.9422 19.0366 13.4046 19.8351 13.404 20.7222V21.1942C13.4036 21.7119 12.984 22.1314 12.4664 22.1318H11.5312C11.0136 22.1314 10.594 21.7119 10.5936 21.1942V20.7222C10.593 19.8351 10.0554 19.0366 9.2336 18.7022L9.2208 18.6966C8.95134 18.5843 8.66233 18.5264 8.3704 18.5262C7.79237 18.5262 7.23817 18.7566 6.8304 19.1662L6.4968 19.4998C6.13069 19.8658 5.53731 19.8658 5.1712 19.4998L4.508 18.8366C4.14209 18.4705 4.14209 17.8772 4.508 17.511L4.8416 17.1774C5.46822 16.5501 5.65317 15.6061 5.3096 14.7886L5.3032 14.7742C4.96888 13.9525 4.17037 13.4149 3.2832 13.4142H2.8112C2.29356 13.4138 1.87404 12.9943 1.8736 12.4766V11.5358C1.87404 11.0182 2.29356 10.5987 2.8112 10.5982H3.2832C4.1706 10.5977 4.9694 10.0601 5.304 9.23824L5.308 9.22784C5.65347 8.41039 5.46974 7.46515 4.8432 6.83664L4.5096 6.50304C4.14413 6.13674 4.14413 5.54373 4.5096 5.17744L5.1728 4.51424C5.53891 4.14833 6.13229 4.14833 6.4984 4.51424L6.832 4.84784C7.45982 5.47486 8.40469 5.65954 9.2224 5.31504L9.236 5.30944C10.0578 4.97512 10.5954 4.17661 10.596 3.28944V2.81744C10.5964 2.2998 11.016 1.88028 11.5336 1.87984H12.4712C12.9888 1.88028 13.4084 2.2998 13.4088 2.81744V3.28944C13.4094 4.17661 13.947 4.97512 14.7688 5.30944L14.7816 5.31504C15.5991 5.65917 16.5435 5.47452 17.1712 4.84784L17.5048 4.51424C17.8709 4.14833 18.4643 4.14833 18.8304 4.51424L19.4936 5.17744C19.8591 5.54373 19.8591 6.13674 19.4936 6.50304L19.16 6.83664C18.5337 7.46315 18.3485 8.40617 18.6912 9.22304L18.6984 9.23984C19.0327 10.0616 19.8312 10.5992 20.7184 10.5998H21.1904C21.708 10.6003 22.1276 11.0198 22.128 11.5374L22.1248 12.4742Z" fill="white"/>
</svg>
